# exported by ae3d_export.py v3
# object: Car_Lamp_R
mtllib Car_Lamp_R.mtl
v -0.200000 -0.080000 -0.020000
v -0.200000 -0.080000 0.020000
v -0.200000 0.080000 -0.020000
v -0.200000 0.080000 0.020000
v 0.200000 -0.080000 -0.020000
v 0.200000 -0.080000 0.020000
v 0.200000 0.080000 -0.020000
v 0.200000 0.080000 0.020000
vt -0.200000 -0.080000
vt -0.200000 -0.020000
vt -0.200000 0.020000
vt -0.200000 0.080000
vt -0.020000 -0.080000
vt -0.020000 0.080000
vt 0.020000 -0.080000
vt 0.020000 0.080000
vt 0.200000 -0.080000
vt 0.200000 -0.020000
vt 0.200000 0.020000
vt 0.200000 0.080000
vn -1.000000 0.000000 0.000000
vn 0.000000 -1.000000 0.000000
vn 0.000000 0.000000 -1.000000
vn 0.000000 0.000000 1.000000
vn 0.000000 1.000000 0.000000
vn 1.000000 0.000000 0.000000
usemtl CarLamp
f 1/1/3 3/4/3 5/9/3
f 1/3/2 5/11/2 2/2/2
f 1/7/1 2/5/1 4/6/1
f 1/7/1 4/6/1 3/8/1
f 2/1/4 6/9/4 8/12/4
f 2/1/4 8/12/4 4/4/4
f 2/2/2 5/11/2 6/10/2
f 3/3/5 4/2/5 7/11/5
f 3/4/3 7/12/3 5/9/3
f 4/2/5 8/10/5 7/11/5
f 5/7/6 7/8/6 6/5/6
f 6/5/6 7/8/6 8/6/6
