# exported by ae3d_export.py v3
# object: Car_Roof
mtllib Car_Roof.mtl
v -0.740000 0.960000 -0.080000
v -0.740000 0.960000 1.030000
v -0.734142 0.945858 -0.080000
v -0.734142 0.945858 1.030000
v -0.734142 0.960000 -0.094142
v -0.734142 0.960000 1.044142
v -0.734142 0.974142 -0.080000
v -0.734142 0.974142 1.030000
v -0.731547 0.948453 -0.091547
v -0.731547 0.948453 1.041547
v -0.731547 0.971547 -0.091547
v -0.731547 0.971547 1.041547
v -0.720000 0.940000 -0.080000
v -0.720000 0.940000 1.030000
v -0.720000 0.945858 -0.094142
v -0.720000 0.945858 1.044142
v -0.720000 0.960000 -0.100000
v -0.720000 0.960000 1.050000
v -0.720000 0.974142 -0.094142
v -0.720000 0.974142 1.044142
v -0.720000 0.980000 -0.080000
v -0.720000 0.980000 1.030000
v 0.720000 0.940000 -0.080000
v 0.720000 0.940000 1.030000
v 0.720000 0.945858 -0.094142
v 0.720000 0.945858 1.044142
v 0.720000 0.960000 -0.100000
v 0.720000 0.960000 1.050000
v 0.720000 0.974142 -0.094142
v 0.720000 0.974142 1.044142
v 0.720000 0.980000 -0.080000
v 0.720000 0.980000 1.030000
v 0.731547 0.948453 -0.091547
v 0.731547 0.948453 1.041547
v 0.731547 0.971547 -0.091547
v 0.731547 0.971547 1.041547
v 0.734142 0.945858 -0.080000
v 0.734142 0.945858 1.030000
v 0.734142 0.960000 -0.094142
v 0.734142 0.960000 1.044142
v 0.734142 0.974142 -0.080000
v 0.734142 0.974142 1.030000
v 0.740000 0.960000 -0.080000
v 0.740000 0.960000 1.030000
vt -0.939728 0.864000
vt -0.937392 0.853608
vt -0.937392 0.874392
vt -0.927000 0.851272
vt -0.927000 0.864000
vt -0.927000 0.876728
vt -0.660728 -0.927000
vt -0.660728 0.072000
vt -0.660728 0.864000
vt -0.658392 -0.937392
vt -0.658392 0.082392
vt -0.658392 0.853608
vt -0.658392 0.874392
vt -0.648000 -0.939728
vt -0.648000 -0.927000
vt -0.648000 0.072000
vt -0.648000 0.084728
vt -0.648000 0.851272
vt -0.648000 0.864000
vt -0.648000 0.876728
vt 0.072000 0.851272
vt 0.072000 0.864000
vt 0.072000 0.876728
vt 0.082392 0.853608
vt 0.082392 0.874392
vt 0.084728 0.864000
vt 0.648000 -0.939728
vt 0.648000 -0.927000
vt 0.648000 0.072000
vt 0.648000 0.084728
vt 0.648000 0.851272
vt 0.648000 0.864000
vt 0.648000 0.876728
vt 0.658392 -0.937392
vt 0.658392 0.082392
vt 0.658392 0.853608
vt 0.658392 0.874392
vt 0.660728 -0.927000
vt 0.660728 0.072000
vt 0.660728 0.864000
vn -0.962669 0.000000 -0.270681
vn -0.962669 0.000000 0.270681
vn -0.923880 -0.382683 0.000000
vn -0.923879 0.382686 0.000000
vn -0.888076 0.325056 0.325054
vn -0.888075 -0.325059 -0.325054
vn -0.888075 -0.325056 0.325057
vn -0.888075 0.325058 -0.325055
vn -0.593057 0.000000 -0.805160
vn -0.382686 0.923878 0.000000
vn -0.382680 -0.923881 0.000000
vn -0.345593 0.000000 0.938384
vn -0.325060 0.325058 0.888073
vn -0.325059 -0.325056 0.888074
vn -0.325058 0.325059 -0.888073
vn -0.325057 -0.888075 0.325055
vn -0.325057 0.888075 -0.325057
vn -0.325056 -0.325057 -0.888074
vn -0.325054 -0.888076 -0.325055
vn -0.325053 0.888076 0.325057
vn 0.000000 -1.000000 0.000000
vn 0.000000 -0.923880 -0.382681
vn 0.000000 -0.923880 0.382682
vn 0.000000 -0.382683 -0.923880
vn 0.000000 -0.382680 0.923881
vn 0.000000 0.000000 -1.000000
vn 0.000000 0.000000 1.000000
vn 0.000000 0.382681 0.923880
vn 0.000000 0.382684 -0.923879
vn 0.000000 0.923879 -0.382685
vn 0.000000 0.923879 0.382685
vn 0.000000 1.000000 0.000000
vn 0.325052 -0.888077 -0.325055
vn 0.325052 0.888076 0.325057
vn 0.325056 -0.325057 -0.888074
vn 0.325056 0.888075 -0.325057
vn 0.325058 -0.888075 0.325054
vn 0.325058 0.325058 -0.888073
vn 0.325059 -0.325056 0.888074
vn 0.325060 0.325058 0.888073
vn 0.345593 0.000000 0.938384
vn 0.382680 -0.923881 0.000000
vn 0.382686 0.923878 0.000000
vn 0.593057 0.000000 -0.805160
vn 0.888074 -0.325059 -0.325056
vn 0.888075 0.325056 0.325057
vn 0.888076 -0.325056 0.325054
vn 0.888076 0.325058 -0.325053
vn 0.923879 0.382686 0.000000
vn 0.923880 -0.382683 0.000000
vn 0.962669 0.000000 -0.270681
vn 0.962669 0.000000 0.270681
usemtl CarPaint
f 1/22/1 1/22/1 5/26/1
f 1/22/1 5/26/1 5/26/1
f 1/22/3 3/21/3 2/5/3
f 1/22/4 2/5/4 8/6/4
f 1/22/4 8/6/4 7/23/4
f 1/22/6 5/26/6 9/24/6
f 1/22/6 9/24/6 3/21/6
f 1/22/8 7/23/8 11/25/8
f 1/22/8 11/25/8 5/26/8
f 1/22/32 2/5/32 1/22/32
f 1/22/32 2/5/32 2/5/32
f 2/5/2 6/1/2 2/5/2
f 2/5/2 6/1/2 6/1/2
f 2/5/3 3/21/3 4/4/3
f 2/5/5 6/1/5 12/3/5
f 2/5/5 12/3/5 8/6/5
f 2/5/7 4/4/7 10/2/7
f 2/5/7 10/2/7 6/1/7
f 3/8/11 13/16/11 4/7/11
f 3/8/19 9/11/19 13/16/19
f 4/7/11 13/16/11 14/15/11
f 4/7/16 14/15/16 10/10/16
f 5/9/9 17/19/9 5/9/9
f 5/9/9 17/19/9 17/19/9
f 5/9/15 11/13/15 17/19/15
f 5/9/18 17/19/18 9/12/18
f 6/9/12 6/9/12 18/19/12
f 6/9/12 18/19/12 18/19/12
f 6/9/13 18/19/13 12/13/13
f 6/9/14 10/12/14 18/19/14
f 7/8/10 8/7/10 22/15/10
f 7/8/10 22/15/10 21/16/10
f 7/8/17 21/16/17 11/11/17
f 8/7/20 12/10/20 22/15/20
f 9/11/19 15/17/19 13/16/19
f 9/12/18 17/19/18 15/18/18
f 10/10/16 14/15/16 16/14/16
f 10/12/14 16/18/14 18/19/14
f 11/11/17 21/16/17 19/17/17
f 11/13/15 19/20/15 17/19/15
f 12/10/20 20/14/20 22/15/20
f 12/13/13 18/19/13 20/20/13
f 13/16/21 23/29/21 14/15/21
f 13/16/22 15/17/22 23/29/22
f 14/15/21 23/29/21 24/28/21
f 14/15/23 24/28/23 26/27/23
f 14/15/23 26/27/23 16/14/23
f 15/17/22 25/30/22 23/29/22
f 15/18/24 17/19/24 25/31/24
f 16/18/25 26/31/25 28/32/25
f 16/18/25 28/32/25 18/19/25
f 17/19/24 27/32/24 25/31/24
f 17/19/26 17/19/26 27/32/26
f 17/19/26 27/32/26 27/32/26
f 17/19/29 19/20/29 27/32/29
f 18/19/27 28/32/27 18/19/27
f 18/19/27 28/32/27 28/32/27
f 18/19/28 28/32/28 30/33/28
f 18/19/28 30/33/28 20/20/28
f 19/17/30 21/16/30 29/30/30
f 19/20/29 29/33/29 27/32/29
f 20/14/31 30/27/31 32/28/31
f 20/14/31 32/28/31 22/15/31
f 21/16/30 31/29/30 29/30/30
f 21/16/32 22/15/32 31/29/32
f 22/15/32 32/28/32 31/29/32
f 23/29/33 25/30/33 33/35/33
f 23/29/33 33/35/33 37/39/33
f 23/29/42 37/39/42 24/28/42
f 24/28/37 34/34/37 26/27/37
f 24/28/37 38/38/37 34/34/37
f 24/28/42 37/39/42 38/38/42
f 25/31/35 27/32/35 33/36/35
f 26/31/39 34/36/39 28/32/39
f 27/32/35 39/40/35 33/36/35
f 27/32/38 29/33/38 35/37/38
f 27/32/38 35/37/38 39/40/38
f 27/32/44 27/32/44 39/40/44
f 27/32/44 39/40/44 39/40/44
f 28/32/39 34/36/39 40/40/39
f 28/32/40 36/37/40 30/33/40
f 28/32/40 40/40/40 36/37/40
f 28/32/41 28/32/41 40/40/41
f 28/32/41 40/40/41 40/40/41
f 29/30/36 31/29/36 35/35/36
f 30/27/34 36/34/34 32/28/34
f 31/29/36 41/39/36 35/35/36
f 31/29/43 32/28/43 42/38/43
f 31/29/43 42/38/43 41/39/43
f 32/28/34 36/34/34 42/38/34
f 33/24/45 39/26/45 43/22/45
f 33/24/45 43/22/45 37/21/45
f 34/2/47 38/4/47 44/5/47
f 34/2/47 44/5/47 40/1/47
f 35/25/48 41/23/48 43/22/48
f 35/25/48 43/22/48 39/26/48
f 36/3/46 40/1/46 44/5/46
f 36/3/46 44/5/46 42/6/46
f 37/21/50 43/22/50 38/4/50
f 38/4/50 43/22/50 44/5/50
f 39/26/51 43/22/51 39/26/51
f 39/26/51 43/22/51 43/22/51
f 40/1/52 40/1/52 44/5/52
f 40/1/52 44/5/52 44/5/52
f 41/23/49 42/6/49 44/5/49
f 41/23/49 44/5/49 43/22/49
f 43/22/32 43/22/32 44/5/32
f 43/22/32 44/5/32 44/5/32
