# exported by ae3d_export.py v3
# object: Car_Hub_FR
mtllib Car_Hub_FR.mtl
v -0.130000 -0.223200 0.000000
v -0.130000 -0.193297 -0.111600
v -0.130000 -0.193297 0.111600
v -0.130000 -0.111600 -0.193297
v -0.130000 -0.111600 0.193297
v -0.130000 0.000000 -0.223200
v -0.130000 0.000000 0.223200
v -0.130000 0.111600 -0.193297
v -0.130000 0.111600 0.193297
v -0.130000 0.193297 -0.111600
v -0.130000 0.193297 0.111600
v -0.130000 0.223200 0.000000
v 0.130000 -0.223200 0.000000
v 0.130000 -0.193297 -0.111600
v 0.130000 -0.193297 0.111600
v 0.130000 -0.111600 -0.193297
v 0.130000 -0.111600 0.193297
v 0.130000 0.000000 -0.223200
v 0.130000 0.000000 0.223200
v 0.130000 0.111600 -0.193297
v 0.130000 0.111600 0.193297
v 0.130000 0.193297 -0.111600
v 0.130000 0.193297 0.111600
v 0.130000 0.223200 0.000000
vt -0.312480 0.000000
vt -0.270616 -0.156240
vt -0.270616 0.156240
vt -0.182000 -0.270616
vt -0.182000 -0.156240
vt -0.182000 0.000000
vt -0.182000 0.156240
vt -0.182000 0.270616
vt -0.156240 -0.270616
vt -0.156240 0.270616
vt 0.000000 -0.312480
vt 0.000000 0.312480
vt 0.156240 -0.270616
vt 0.156240 0.270616
vt 0.182000 -0.270616
vt 0.182000 -0.156240
vt 0.182000 0.000000
vt 0.182000 0.156240
vt 0.182000 0.270616
vt 0.270616 -0.156240
vt 0.270616 0.156240
vt 0.312480 0.000000
vn -1.000000 0.000000 0.000000
vn 0.000000 -1.000000 0.000000
vn 0.000000 -0.866025 -0.500000
vn 0.000000 -0.866025 0.500000
vn 0.000000 -0.500000 -0.866025
vn 0.000000 -0.500000 0.866025
vn 0.000000 0.000000 -1.000000
vn 0.000000 0.000000 1.000000
vn 0.000000 0.500000 -0.866025
vn 0.000000 0.500000 0.866025
vn 0.000000 0.866025 -0.500000
vn 0.000000 0.866025 0.500000
vn 0.000000 1.000000 0.000000
vn 1.000000 0.000000 0.000000
usemtl CarHub
f 1/6/2 2/7/3 13/17/2
f 1/6/2 13/17/2 3/5/4
f 1/11/1 3/9/1 6/22/1
f 1/11/1 6/22/1 2/13/1
f 2/4/3 4/5/5 14/15/3
f 2/7/3 14/18/3 13/17/2
f 2/13/1 6/22/1 4/20/1
f 3/4/4 15/15/4 5/5/6
f 3/5/4 13/17/2 15/16/4
f 3/9/1 5/2/1 6/22/1
f 4/5/5 6/6/7 16/16/5
f 4/5/5 16/16/5 14/15/3
f 5/2/1 7/1/1 6/22/1
f 5/5/6 15/15/4 17/16/6
f 5/5/6 17/16/6 7/6/8
f 6/6/7 8/7/9 18/17/7
f 6/6/7 18/17/7 16/16/5
f 6/22/1 7/1/1 9/3/1
f 6/22/1 9/3/1 11/10/1
f 6/22/1 10/14/1 8/21/1
f 6/22/1 11/10/1 12/12/1
f 6/22/1 12/12/1 10/14/1
f 7/6/8 17/16/6 19/17/8
f 7/6/8 19/17/8 9/7/10
f 8/7/9 10/8/11 20/18/9
f 8/7/9 20/18/9 18/17/7
f 9/7/10 19/17/8 21/18/10
f 9/7/10 21/18/10 11/8/12
f 10/7/11 12/6/13 22/18/11
f 10/8/11 22/19/11 20/18/9
f 11/5/12 23/16/12 12/6/13
f 11/8/12 21/18/10 23/19/12
f 12/6/13 23/16/12 24/17/13
f 12/6/13 24/17/13 22/18/11
f 13/11/14 14/13/14 16/20/14
f 13/11/14 16/20/14 15/9/14
f 15/9/14 16/20/14 17/2/14
f 16/20/14 18/22/14 20/21/14
f 16/20/14 19/1/14 17/2/14
f 16/20/14 20/21/14 22/14/14
f 16/20/14 21/3/14 19/1/14
f 16/20/14 22/14/14 24/12/14
f 16/20/14 23/10/14 21/3/14
f 16/20/14 24/12/14 23/10/14
