# exported by ae3d_export.py v3
# object: Car_Glass
mtllib Car_Glass.mtl
v -0.860000 0.320000 -0.720000
v -0.860000 0.320000 1.620000
v -0.740000 0.940000 -0.100000
v -0.740000 0.940000 1.050000
v 0.740000 0.940000 -0.100000
v 0.740000 0.940000 1.050000
v 0.860000 0.320000 -0.720000
v 0.860000 0.320000 1.620000
vt -2.754000 0.544000
vt -1.785000 1.598000
vt -1.462000 0.544000
vt -1.258000 1.598000
vt 0.170000 1.598000
vt 1.224000 0.544000
vt 1.258000 1.598000
vt 1.462000 0.544000
vn -0.981780 0.190022 0.000000
vn 0.000000 0.676799 0.736168
vn 0.000000 0.707107 -0.707107
vn 0.981780 0.190022 0.000000
usemtl CarGlass
f 1/3/3 3/4/3 5/7/3
f 1/3/3 5/7/3 7/8/3
f 1/6/1 2/1/1 3/5/1
f 2/1/1 4/2/1 3/5/1
f 2/3/2 8/8/2 4/4/2
f 4/4/2 8/8/2 6/7/2
f 5/5/4 6/2/4 8/1/4
f 5/5/4 8/1/4 7/6/4
