# exported by ae3d_export.py v3
# object: Car_Wheel_RR
mtllib Car_Wheel_RR.mtl
v -0.120000 -0.360000 0.000000
v -0.120000 -0.347733 -0.093175
v -0.120000 -0.347733 0.093175
v -0.120000 -0.311769 -0.180000
v -0.120000 -0.311769 0.180000
v -0.120000 -0.254558 -0.254558
v -0.120000 -0.254558 0.254558
v -0.120000 -0.180000 -0.311769
v -0.120000 -0.180000 0.311769
v -0.120000 -0.093175 -0.347733
v -0.120000 -0.093175 0.347733
v -0.120000 0.000000 -0.360000
v -0.120000 0.000000 0.360000
v -0.120000 0.093175 -0.347733
v -0.120000 0.093175 0.347733
v -0.120000 0.180000 -0.311769
v -0.120000 0.180000 0.311769
v -0.120000 0.254558 -0.254558
v -0.120000 0.254558 0.254558
v -0.120000 0.311769 -0.180000
v -0.120000 0.311769 0.180000
v -0.120000 0.347733 -0.093175
v -0.120000 0.347733 0.093175
v -0.120000 0.360000 0.000000
v 0.120000 -0.360000 0.000000
v 0.120000 -0.347733 -0.093175
v 0.120000 -0.347733 0.093175
v 0.120000 -0.311769 -0.180000
v 0.120000 -0.311769 0.180000
v 0.120000 -0.254558 -0.254558
v 0.120000 -0.254558 0.254558
v 0.120000 -0.180000 -0.311769
v 0.120000 -0.180000 0.311769
v 0.120000 -0.093175 -0.347733
v 0.120000 -0.093175 0.347733
v 0.120000 0.000000 -0.360000
v 0.120000 0.000000 0.360000
v 0.120000 0.093175 -0.347733
v 0.120000 0.093175 0.347733
v 0.120000 0.180000 -0.311769
v 0.120000 0.180000 0.311769
v 0.120000 0.254558 -0.254558
v 0.120000 0.254558 0.254558
v 0.120000 0.311769 -0.180000
v 0.120000 0.311769 0.180000
v 0.120000 0.347733 -0.093175
v 0.120000 0.347733 0.093175
v 0.120000 0.360000 0.000000
vt -0.504000 0.000000
vt -0.486827 -0.130445
vt -0.486827 0.130445
vt -0.436477 -0.252000
vt -0.436477 0.252000
vt -0.356382 -0.356382
vt -0.356382 0.356382
vt -0.252000 -0.436477
vt -0.252000 0.436477
vt -0.168000 -0.356382
vt -0.168000 -0.252000
vt -0.168000 -0.130445
vt -0.168000 0.000000
vt -0.168000 0.130445
vt -0.168000 0.252000
vt -0.168000 0.356382
vt -0.130445 -0.486827
vt -0.130445 0.486827
vt 0.000000 -0.504000
vt 0.000000 0.504000
vt 0.130445 -0.486827
vt 0.130445 0.486827
vt 0.168000 -0.356382
vt 0.168000 -0.252000
vt 0.168000 -0.130445
vt 0.168000 0.000000
vt 0.168000 0.130445
vt 0.168000 0.252000
vt 0.168000 0.356382
vt 0.252000 -0.436477
vt 0.252000 0.436477
vt 0.356382 -0.356382
vt 0.356382 0.356382
vt 0.436477 -0.252000
vt 0.436477 0.252000
vt 0.486827 -0.130445
vt 0.486827 0.130445
vt 0.504000 0.000000
vn -1.000000 0.000000 0.000000
vn 0.000000 -1.000000 0.000000
vn 0.000000 -0.965926 -0.258819
vn 0.000000 -0.965926 0.258819
vn 0.000000 -0.866025 -0.500000
vn 0.000000 -0.866025 0.500000
vn 0.000000 -0.707107 -0.707107
vn 0.000000 -0.707107 0.707107
vn 0.000000 -0.500000 -0.866025
vn 0.000000 -0.500000 0.866025
vn 0.000000 -0.258819 -0.965926
vn 0.000000 -0.258819 0.965926
vn 0.000000 0.000000 -1.000000
vn 0.000000 0.000000 1.000000
vn 0.000000 0.258819 -0.965926
vn 0.000000 0.258819 0.965926
vn 0.000000 0.500000 -0.866025
vn 0.000000 0.500000 0.866025
vn 0.000000 0.707107 -0.707107
vn 0.000000 0.707107 0.707107
vn 0.000000 0.866025 -0.500000
vn 0.000000 0.866025 0.500000
vn 0.000000 0.965926 -0.258819
vn 0.000000 0.965926 0.258819
vn 0.000000 1.000000 0.000000
vn 1.000000 0.000000 0.000000
usemtl CarTyre
f 1/13/2 2/14/3 25/26/2
f 1/13/2 25/26/2 27/25/4
f 1/13/2 27/25/4 3/12/4
f 1/19/1 3/17/1 12/38/1
f 1/19/1 12/38/1 2/21/1
f 2/14/3 4/15/5 28/28/5
f 2/14/3 26/27/3 25/26/2
f 2/14/3 28/28/5 26/27/3
f 2/21/1 12/38/1 4/30/1
f 3/12/4 27/25/4 29/24/6
f 3/12/4 29/24/6 5/11/6
f 3/17/1 5/8/1 12/38/1
f 4/15/5 6/16/7 28/28/5
f 4/30/1 12/38/1 6/32/1
f 5/8/1 7/6/1 12/38/1
f 5/11/6 29/24/6 31/23/8
f 5/11/6 31/23/8 7/10/8
f 6/10/7 8/11/9 32/24/9
f 6/10/7 32/24/9 30/23/7
f 6/16/7 30/29/7 28/28/5
f 6/32/1 12/38/1 8/34/1
f 7/6/1 9/4/1 12/38/1
f 7/10/8 31/23/8 33/24/10
f 7/10/8 33/24/10 9/11/10
f 8/11/9 10/12/11 34/25/11
f 8/11/9 34/25/11 32/24/9
f 8/34/1 12/38/1 10/36/1
f 9/4/1 11/2/1 12/38/1
f 9/11/10 33/24/10 35/25/12
f 9/11/10 35/25/12 11/12/12
f 10/12/11 12/13/13 36/26/13
f 10/12/11 36/26/13 34/25/11
f 11/2/1 13/1/1 12/38/1
f 11/12/12 35/25/12 37/26/14
f 11/12/12 37/26/14 13/13/14
f 12/13/13 14/14/15 38/27/15
f 12/13/13 38/27/15 36/26/13
f 12/38/1 13/1/1 15/3/1
f 12/38/1 15/3/1 17/5/1
f 12/38/1 16/35/1 14/37/1
f 12/38/1 17/5/1 19/7/1
f 12/38/1 18/33/1 16/35/1
f 12/38/1 19/7/1 21/9/1
f 12/38/1 20/31/1 18/33/1
f 12/38/1 21/9/1 23/18/1
f 12/38/1 22/22/1 20/31/1
f 12/38/1 23/18/1 24/20/1
f 12/38/1 24/20/1 22/22/1
f 13/13/14 37/26/14 39/27/16
f 13/13/14 39/27/16 15/14/16
f 14/14/15 16/15/17 40/28/17
f 14/14/15 40/28/17 38/27/15
f 15/14/16 39/27/16 41/28/18
f 15/14/16 41/28/18 17/15/18
f 16/15/17 18/16/19 42/29/19
f 16/15/17 42/29/19 40/28/17
f 17/15/18 41/28/18 43/29/20
f 17/15/18 43/29/20 19/16/20
f 18/16/19 20/15/21 42/29/19
f 19/10/20 43/23/20 45/24/22
f 19/10/20 45/24/22 21/11/22
f 20/15/21 22/14/23 46/27/23
f 20/15/21 44/28/21 42/29/19
f 20/15/21 46/27/23 44/28/21
f 21/11/22 45/24/22 47/25/24
f 21/11/22 47/25/24 23/12/24
f 22/14/23 24/13/25 46/27/23
f 23/12/24 47/25/24 48/26/25
f 23/12/24 48/26/25 24/13/25
f 24/13/25 48/26/25 46/27/23
f 25/19/26 26/21/26 34/36/26
f 25/19/26 34/36/26 27/17/26
f 26/21/26 28/30/26 34/36/26
f 27/17/26 34/36/26 29/8/26
f 28/30/26 30/32/26 34/36/26
f 29/8/26 34/36/26 31/6/26
f 30/32/26 32/34/26 34/36/26
f 31/6/26 34/36/26 33/4/26
f 33/4/26 34/36/26 35/2/26
f 34/36/26 36/38/26 38/37/26
f 34/36/26 37/1/26 35/2/26
f 34/36/26 38/37/26 40/35/26
f 34/36/26 39/3/26 37/1/26
f 34/36/26 40/35/26 42/33/26
f 34/36/26 41/5/26 39/3/26
f 34/36/26 42/33/26 44/31/26
f 34/36/26 43/7/26 41/5/26
f 34/36/26 44/31/26 46/22/26
f 34/36/26 45/9/26 43/7/26
f 34/36/26 46/22/26 48/20/26
f 34/36/26 47/18/26 45/9/26
f 34/36/26 48/20/26 47/18/26
