# exported by ae3d_export.py v3
# object: Car_Body
mtllib Car_Body.mtl
v -0.860000 -0.270000 -2.020000
v -0.860000 -0.270000 2.020000
v -0.860000 0.032033 -2.020000
v -0.860000 0.114372 2.020000
v -0.860000 0.157602 -1.948246
v -0.860000 0.230406 -1.811739
v -0.860000 0.271118 1.959043
v -0.860000 0.290000 -0.719182
v -0.860000 0.290000 1.619167
v -0.851213 -0.291213 -2.020000
v -0.851213 -0.291213 2.020000
v -0.851213 -0.270000 -2.041213
v -0.851213 -0.270000 2.041213
v -0.851213 0.021017 -2.041213
v -0.851213 0.052123 -2.032952
v -0.851213 0.102186 2.041213
v -0.851213 0.133418 2.035354
v -0.851213 0.158860 -1.971960
v -0.851213 0.181342 -1.948812
v -0.851213 0.243626 -1.832029
v -0.851213 0.252224 -1.801230
v -0.851213 0.271234 1.981162
v -0.851213 0.292182 1.952293
v -0.851213 0.310372 1.634905
v -0.851213 0.310387 -0.734907
v -0.851213 0.311213 -0.704591
v -0.851213 0.311213 1.604584
v -0.847321 0.037779 -2.041636
v -0.847321 0.118605 2.042566
v -0.847321 0.173561 -1.963747
v -0.847321 0.252263 -1.817840
v -0.847321 0.314597 1.619850
v -0.847321 0.314604 -0.719853
v -0.847320 -0.287321 -2.037320
v -0.847320 -0.287321 2.037320
v -0.847320 0.288340 1.971539
v -0.830000 -0.300000 -2.020000
v -0.830000 -0.300000 2.020000
v -0.830000 -0.291213 -2.041213
v -0.830000 -0.291213 2.041213
v -0.830000 -0.270000 -2.050000
v -0.830000 -0.270000 2.050000
v -0.830000 0.010000 -2.050000
v -0.830000 0.038842 -2.045640
v -0.830000 0.066047 -2.035116
v -0.830000 0.090000 2.050000
v -0.830000 0.119403 2.046815
v -0.830000 0.147960 2.039127
v -0.830000 0.153953 -1.984884
v -0.830000 0.176506 -1.966606
v -0.830000 0.194118 -1.943529
v -0.830000 0.245882 -1.846471
v -0.830000 0.256344 -1.818979
v -0.830000 0.261634 -1.790045
v -0.830000 0.272040 1.990873
v -0.830000 0.292834 1.974800
v -0.830000 0.301664 1.950046
v -0.830000 0.318336 1.649954
v -0.830000 0.318366 -0.749955
v -0.830000 0.319513 1.619987
v -0.830000 0.319521 -0.719987
v -0.830000 0.320000 -0.690000
v -0.830000 0.320000 1.590000
v 0.830000 -0.300000 -2.020000
v 0.830000 -0.300000 2.020000
v 0.830000 -0.291213 -2.041213
v 0.830000 -0.291213 2.041213
v 0.830000 -0.270000 -2.050000
v 0.830000 -0.270000 2.050000
v 0.830000 0.010000 -2.050000
v 0.830000 0.038842 -2.045640
v 0.830000 0.066047 -2.035116
v 0.830000 0.090000 2.050000
v 0.830000 0.119403 2.046815
v 0.830000 0.147960 2.039127
v 0.830000 0.153953 -1.984884
v 0.830000 0.176506 -1.966606
v 0.830000 0.194118 -1.943529
v 0.830000 0.245882 -1.846471
v 0.830000 0.256344 -1.818979
v 0.830000 0.261634 -1.790045
v 0.830000 0.272040 1.990873
v 0.830000 0.292834 1.974800
v 0.830000 0.301664 1.950046
v 0.830000 0.318336 1.649954
v 0.830000 0.318366 -0.749955
v 0.830000 0.319513 1.619987
v 0.830000 0.319521 -0.719987
v 0.830000 0.320000 -0.690000
v 0.830000 0.320000 1.590000
v 0.847320 -0.287321 -2.037320
v 0.847320 -0.287321 2.037320
v 0.847320 0.288340 1.971539
v 0.847321 0.037779 -2.041636
v 0.847321 0.118605 2.042566
v 0.847321 0.173561 -1.963747
v 0.847321 0.252263 -1.817840
v 0.847321 0.314597 1.619850
v 0.847321 0.314604 -0.719853
v 0.851213 -0.291213 -2.020000
v 0.851213 -0.291213 2.020000
v 0.851213 -0.270000 -2.041213
v 0.851213 -0.270000 2.041213
v 0.851213 0.021017 -2.041213
v 0.851213 0.052123 -2.032952
v 0.851213 0.102186 2.041213
v 0.851213 0.133418 2.035354
v 0.851213 0.158860 -1.971960
v 0.851213 0.181342 -1.948812
v 0.851213 0.243626 -1.832029
v 0.851213 0.252224 -1.801230
v 0.851213 0.271234 1.981162
v 0.851213 0.292182 1.952293
v 0.851213 0.310372 1.634905
v 0.851213 0.310387 -0.734907
v 0.851213 0.311213 -0.704591
v 0.851213 0.311213 1.604584
v 0.860000 -0.270000 -2.020000
v 0.860000 -0.270000 2.020000
v 0.860000 0.032033 -2.020000
v 0.860000 0.114372 2.020000
v 0.860000 0.157602 -1.948246
v 0.860000 0.230406 -1.811739
v 0.860000 0.271118 1.959043
v 0.860000 0.290000 -0.719182
v 0.860000 0.290000 1.619167
vt -1.838309 0.106745
vt -1.837092 -0.243000
vt -1.837092 0.091967
vt -1.833588 -0.258588
vt -1.831819 0.120076
vt -1.818000 -0.262092
vt -1.818000 -0.243000
vt -1.818000 0.102935
vt -1.783046 0.244111
vt -1.774385 0.259506
vt -1.763139 0.244006
vt -1.757064 0.262964
vt -1.471415 0.279334
vt -1.457865 0.283138
vt -1.457251 0.261000
vt -1.444125 0.280092
vt -0.766092 -1.818000
vt -0.766092 -1.757064
vt -0.766092 -1.471415
vt -0.766092 -1.444125
vt -0.766092 -0.243000
vt -0.766092 0.018915
vt -0.766092 0.046911
vt -0.766092 0.091967
vt -0.766092 0.120076
vt -0.766092 0.142974
vt -0.766092 0.244111
vt -0.766092 0.634132
vt -0.766092 0.661417
vt -0.766092 1.621107
vt -0.766092 1.648826
vt -0.766092 1.753930
vt -0.766092 1.818000
vt -0.762589 -1.457865
vt -0.762589 0.034001
vt -0.762589 0.106745
vt -0.762589 0.156205
vt -0.762589 0.647868
vt -0.762589 1.636056
vt -0.762589 1.767372
vt -0.762588 -1.833588
vt -0.762588 -1.774385
vt -0.762588 -0.258588
vt -0.762588 0.259506
vt -0.762588 1.833588
vt -0.747000 -1.837092
vt -0.747000 -1.818000
vt -0.747000 -1.777320
vt -0.747000 -1.755042
vt -0.747000 -1.484958
vt -0.747000 -1.457988
vt -0.747000 -1.431000
vt -0.747000 -0.262092
vt -0.747000 -0.243000
vt -0.747000 0.009000
vt -0.747000 0.034958
vt -0.747000 0.059443
vt -0.747000 0.081000
vt -0.747000 0.107462
vt -0.747000 0.133164
vt -0.747000 0.138557
vt -0.747000 0.158855
vt -0.747000 0.244836
vt -0.747000 0.263550
vt -0.747000 0.621000
vt -0.747000 0.647988
vt -0.747000 0.674960
vt -0.747000 1.611040
vt -0.747000 1.637081
vt -0.747000 1.661824
vt -0.747000 1.749177
vt -0.747000 1.769946
vt -0.747000 1.818000
vt -0.747000 1.837092
vt 0.634132 0.280092
vt 0.647264 0.261000
vt 0.647868 0.283143
vt 0.661417 0.279348
vt 0.747000 -1.837092
vt 0.747000 -1.818000
vt 0.747000 -1.777320
vt 0.747000 -1.755042
vt 0.747000 -1.484958
vt 0.747000 -1.457988
vt 0.747000 -1.431000
vt 0.747000 -0.262092
vt 0.747000 -0.243000
vt 0.747000 0.009000
vt 0.747000 0.034958
vt 0.747000 0.059443
vt 0.747000 0.081000
vt 0.747000 0.107462
vt 0.747000 0.133164
vt 0.747000 0.138557
vt 0.747000 0.158855
vt 0.747000 0.244836
vt 0.747000 0.263550
vt 0.747000 0.621000
vt 0.747000 0.647988
vt 0.747000 0.674960
vt 0.747000 1.611040
vt 0.747000 1.637081
vt 0.747000 1.661824
vt 0.747000 1.749177
vt 0.747000 1.769946
vt 0.747000 1.818000
vt 0.747000 1.837092
vt 0.762588 -1.833588
vt 0.762588 -1.774385
vt 0.762588 -0.258588
vt 0.762588 0.259506
vt 0.762588 1.833588
vt 0.762589 -1.457865
vt 0.762589 0.034001
vt 0.762589 0.106745
vt 0.762589 0.156205
vt 0.762589 0.647868
vt 0.762589 1.636056
vt 0.762589 1.767372
vt 0.766092 -1.818000
vt 0.766092 -1.757064
vt 0.766092 -1.471415
vt 0.766092 -1.444125
vt 0.766092 -0.243000
vt 0.766092 0.018915
vt 0.766092 0.046911
vt 0.766092 0.091967
vt 0.766092 0.120076
vt 0.766092 0.142974
vt 0.766092 0.244111
vt 0.766092 0.634132
vt 0.766092 0.661417
vt 0.766092 1.621107
vt 0.766092 1.648826
vt 0.766092 1.753930
vt 0.766092 1.818000
vt 1.621107 0.227002
vt 1.630565 0.207365
vt 1.636056 0.227036
vt 1.648826 0.219264
vt 1.753422 0.141842
vt 1.753930 0.163208
vt 1.767372 0.156205
vt 1.774764 0.142974
vt 1.818000 -0.262092
vt 1.818000 -0.243000
vt 1.818000 0.028830
vt 1.829657 0.046911
vt 1.833588 -0.258588
vt 1.837092 -0.243000
vt 1.837092 0.018915
vt 1.837472 0.034001
vn -1.000000 0.000000 0.000000
vn -0.923880 0.000000 -0.382683
vn -0.923880 0.189865 -0.332261
vn -0.923880 0.382115 -0.020843
vn -0.923879 -0.382686 0.000000
vn -0.923879 0.337663 -0.180086
vn -0.923879 0.382684 0.000000
vn -0.923878 0.000000 0.382686
vn -0.922101 0.140883 0.360392
vn -0.922093 0.386354 0.021792
vn -0.888979 0.457778 -0.012472
vn -0.888933 0.457861 0.012706
vn -0.888073 -0.325063 -0.325056
vn -0.888073 -0.325063 0.325056
vn -0.875384 0.089128 0.475141
vn -0.872972 0.469808 -0.131150
vn -0.870124 0.126495 -0.476323
vn -0.868814 0.355189 -0.344968
vn -0.859039 0.414331 0.300637
vn -0.393286 0.334934 0.856239
vn -0.393147 0.918014 0.051829
vn -0.382686 0.815186 -0.434767
vn -0.382685 0.000000 0.923879
vn -0.382685 0.458369 -0.802153
vn -0.382684 -0.923879 0.000000
vn -0.382684 0.922508 -0.050318
vn -0.382684 0.923879 0.000000
vn -0.382683 0.000000 -0.923880
vn -0.345125 0.938055 0.030684
vn -0.345124 0.934992 -0.081730
vn -0.344971 0.938121 -0.030382
vn -0.344969 0.934993 0.082372
vn -0.333212 0.552319 0.764142
vn -0.333210 0.897775 0.288047
vn -0.325061 -0.325059 -0.888072
vn -0.325061 -0.325059 0.888072
vn -0.325056 -0.888075 -0.325055
vn -0.325056 -0.888075 0.325055
vn -0.302858 0.063760 0.950900
vn -0.302844 0.285227 0.909357
vn -0.296063 0.945673 -0.134349
vn -0.296061 0.878526 -0.374886
vn -0.288301 0.379421 -0.879160
vn -0.288300 0.106769 -0.951569
vn -0.284845 0.575087 -0.766902
vn -0.284845 0.783360 -0.552458
vn 0.000000 -1.000000 0.000000
vn 0.000000 -0.923881 -0.382681
vn 0.000000 -0.923881 0.382681
vn 0.000000 -0.382676 -0.923883
vn 0.000000 -0.382676 0.923883
vn 0.000000 0.000000 -1.000000
vn 0.000000 0.000000 1.000000
vn 0.000000 0.107686 0.994185
vn 0.000000 0.149456 -0.988768
vn 0.000000 0.259973 0.965616
vn 0.000000 0.360804 -0.932642
vn 0.000000 0.362446 0.932005
vn 0.000000 0.496139 -0.868243
vn 0.000000 0.611578 0.791184
vn 0.000000 0.629621 -0.776902
vn 0.000000 0.794944 -0.606683
vn 0.000000 0.882353 -0.470588
vn 0.000000 0.934619 -0.355650
vn 0.000000 0.941865 0.335991
vn 0.000000 0.983693 -0.179856
vn 0.000000 0.998460 0.055470
vn 0.000000 0.998516 -0.054464
vn 0.000000 0.999230 0.039236
vn 0.000000 0.999258 -0.038524
vn 0.000000 0.999868 0.016252
vn 0.000000 0.999873 -0.015957
vn 0.000000 1.000000 0.000000
vn 0.284845 0.783361 -0.552457
vn 0.284847 0.575088 -0.766900
vn 0.288299 0.106769 -0.951569
vn 0.288300 0.379422 -0.879160
vn 0.296061 0.945673 -0.134348
vn 0.296062 0.878525 -0.374887
vn 0.302844 0.285224 0.909358
vn 0.302859 0.063762 0.950900
vn 0.325056 -0.888075 -0.325055
vn 0.325056 -0.888075 0.325055
vn 0.325061 -0.325059 -0.888072
vn 0.325061 -0.325059 0.888072
vn 0.333210 0.897775 0.288046
vn 0.333213 0.552319 0.764142
vn 0.344969 0.934993 0.082372
vn 0.344969 0.938122 -0.030381
vn 0.345125 0.934991 -0.081730
vn 0.345126 0.938055 0.030684
vn 0.382683 0.000000 -0.923880
vn 0.382684 -0.923879 0.000000
vn 0.382684 0.923879 0.000000
vn 0.382685 0.000000 0.923879
vn 0.382685 0.922507 -0.050318
vn 0.382686 0.815186 -0.434767
vn 0.382687 0.458371 -0.802151
vn 0.393147 0.918014 0.051829
vn 0.393287 0.334934 0.856239
vn 0.859039 0.414331 0.300636
vn 0.868813 0.355189 -0.344970
vn 0.870125 0.126495 -0.476321
vn 0.872972 0.469807 -0.131149
vn 0.875387 0.089128 0.475136
vn 0.888073 -0.325063 -0.325056
vn 0.888073 -0.325063 0.325056
vn 0.888934 0.457860 0.012707
vn 0.888979 0.457778 -0.012474
vn 0.922093 0.386354 0.021792
vn 0.922101 0.140882 0.360392
vn 0.923878 0.000000 0.382686
vn 0.923878 0.189865 -0.332265
vn 0.923879 -0.382686 0.000000
vn 0.923879 0.337663 -0.180087
vn 0.923879 0.382115 -0.020843
vn 0.923879 0.382684 0.000000
vn 0.923880 0.000000 -0.382683
vn 1.000000 0.000000 0.000000
usemtl CarPaint
f 1/146/1 2/7/1 3/147/1
f 1/146/2 3/147/2 14/151/2
f 1/146/2 14/151/2 12/150/2
f 1/146/5 10/145/5 2/7/5
f 1/146/13 12/150/13 34/149/13
f 1/146/13 34/149/13 10/145/13
f 2/7/1 4/8/1 7/11/1
f 2/7/1 5/141/1 3/147/1
f 2/7/1 6/138/1 5/141/1
f 2/7/1 7/11/1 9/15/1
f 2/7/1 8/76/1 6/138/1
f 2/7/1 9/15/1 8/76/1
f 2/7/5 10/145/5 11/6/5
f 2/7/8 13/2/8 16/3/8
f 2/7/8 16/3/8 4/8/8
f 2/7/14 11/6/14 35/4/14
f 2/7/14 35/4/14 13/2/14
f 3/147/3 5/141/3 15/148/3
f 3/147/17 15/148/17 28/152/17
f 3/147/17 28/152/17 14/151/17
f 4/8/9 17/5/9 7/11/9
f 4/8/15 16/3/15 29/1/15
f 4/8/15 29/1/15 17/5/15
f 5/141/3 18/144/3 15/148/3
f 5/141/6 6/138/6 20/140/6
f 5/141/6 20/140/6 19/142/6
f 5/141/18 19/142/18 30/143/18
f 5/141/18 30/143/18 18/144/18
f 6/138/4 8/76/4 25/78/4
f 6/138/4 25/78/4 21/137/4
f 6/138/16 21/137/16 31/139/16
f 6/138/16 31/139/16 20/140/16
f 7/11/9 17/5/9 22/9/9
f 7/11/10 23/12/10 24/13/10
f 7/11/10 24/13/10 9/15/10
f 7/11/19 22/9/19 36/10/19
f 7/11/19 36/10/19 23/12/19
f 8/76/7 9/15/7 26/75/7
f 8/76/11 26/75/11 33/77/11
f 8/76/11 33/77/11 25/78/11
f 9/15/7 27/16/7 26/75/7
f 9/15/12 24/13/12 32/14/12
f 9/15/12 32/14/12 27/16/12
f 10/33/25 37/73/25 11/17/25
f 10/33/37 34/45/37 37/73/37
f 11/17/25 37/73/25 38/47/25
f 11/17/38 38/47/38 35/41/38
f 12/21/28 14/22/28 43/55/28
f 12/21/28 43/55/28 41/54/28
f 12/21/35 41/54/35 34/43/35
f 13/21/23 42/54/23 46/58/23
f 13/21/23 46/58/23 16/24/23
f 13/21/36 35/43/36 42/54/36
f 14/22/44 28/35/44 44/56/44
f 14/22/44 44/56/44 43/55/44
f 15/23/24 18/26/24 45/57/24
f 15/23/43 44/56/43 28/35/43
f 15/23/43 45/57/43 44/56/43
f 16/24/39 46/58/39 47/59/39
f 16/24/39 47/59/39 29/36/39
f 17/25/20 48/60/20 22/27/20
f 17/25/40 29/36/40 47/59/40
f 17/25/40 47/59/40 48/60/40
f 18/26/24 49/61/24 45/57/24
f 18/26/45 30/37/45 50/62/45
f 18/26/45 50/62/45 49/61/45
f 19/32/22 20/31/22 52/70/22
f 19/32/22 52/70/22 51/71/22
f 19/32/46 50/72/46 30/40/46
f 19/32/46 51/71/46 50/72/46
f 20/31/42 31/39/42 53/69/42
f 20/31/42 53/69/42 52/70/42
f 21/30/26 25/29/26 59/67/26
f 21/30/26 59/67/26 54/68/26
f 21/30/41 53/69/41 31/39/41
f 21/30/41 54/68/41 53/69/41
f 22/27/20 48/60/20 55/63/20
f 22/27/33 55/63/33 36/44/33
f 23/18/21 57/49/21 58/50/21
f 23/18/21 58/50/21 24/19/21
f 23/18/34 36/42/34 57/49/34
f 24/19/32 58/50/32 60/51/32
f 24/19/32 60/51/32 32/34/32
f 25/29/30 33/38/30 61/66/30
f 25/29/30 61/66/30 59/67/30
f 26/28/27 27/20/27 62/65/27
f 26/28/29 61/66/29 33/38/29
f 26/28/29 62/65/29 61/66/29
f 27/20/27 63/52/27 62/65/27
f 27/20/31 32/34/31 60/51/31
f 27/20/31 60/51/31 63/52/31
f 34/43/35 41/54/35 39/53/35
f 34/45/37 39/74/37 37/73/37
f 35/41/38 38/47/38 40/46/38
f 35/43/36 40/53/36 42/54/36
f 36/42/34 56/48/34 57/49/34
f 36/44/33 55/63/33 56/64/33
f 37/73/47 64/106/47 38/47/47
f 37/73/48 39/74/48 64/106/48
f 38/47/47 64/106/47 65/80/47
f 38/47/49 65/80/49 67/79/49
f 38/47/49 67/79/49 40/46/49
f 39/53/50 41/54/50 66/86/50
f 39/74/48 66/107/48 64/106/48
f 40/53/51 67/86/51 69/87/51
f 40/53/51 69/87/51 42/54/51
f 41/54/50 68/87/50 66/86/50
f 41/54/52 43/55/52 70/88/52
f 41/54/52 70/88/52 68/87/52
f 42/54/53 69/87/53 46/58/53
f 43/55/55 44/56/55 71/89/55
f 43/55/55 71/89/55 70/88/55
f 44/56/57 45/57/57 72/90/57
f 44/56/57 72/90/57 71/89/57
f 45/57/59 49/61/59 76/94/59
f 45/57/59 76/94/59 72/90/59
f 46/58/53 69/87/53 73/91/53
f 46/58/54 73/91/54 47/59/54
f 47/59/54 73/91/54 74/92/54
f 47/59/56 74/92/56 48/60/56
f 48/60/56 74/92/56 75/93/56
f 48/60/58 75/93/58 55/63/58
f 49/61/61 50/62/61 76/94/61
f 50/62/61 77/95/61 76/94/61
f 50/72/62 51/71/62 77/105/62
f 51/71/62 78/104/62 77/105/62
f 51/71/63 52/70/63 78/104/63
f 52/70/63 79/103/63 78/104/63
f 52/70/64 53/69/64 79/103/64
f 53/69/64 80/102/64 79/103/64
f 53/69/66 54/68/66 80/102/66
f 54/68/66 81/101/66 80/102/66
f 54/68/68 59/67/68 86/100/68
f 54/68/68 86/100/68 81/101/68
f 55/63/58 75/93/58 82/96/58
f 55/63/60 82/96/60 56/64/60
f 56/48/65 83/81/65 57/49/65
f 56/64/60 82/96/60 83/97/60
f 57/49/65 83/81/65 84/82/65
f 57/49/67 84/82/67 58/50/67
f 58/50/67 84/82/67 85/83/67
f 58/50/69 85/83/69 87/84/69
f 58/50/69 87/84/69 60/51/69
f 59/67/70 61/66/70 86/100/70
f 60/51/71 87/84/71 90/85/71
f 60/51/71 90/85/71 63/52/71
f 61/66/70 88/99/70 86/100/70
f 61/66/72 62/65/72 88/99/72
f 62/65/72 89/98/72 88/99/72
f 62/65/73 63/52/73 90/85/73
f 62/65/73 90/85/73 89/98/73
f 64/106/82 66/107/82 91/112/82
f 64/106/82 91/112/82 100/136/82
f 64/106/93 100/136/93 65/80/93
f 65/80/83 92/108/83 67/79/83
f 65/80/83 101/120/83 92/108/83
f 65/80/93 100/136/93 101/120/93
f 66/86/84 68/87/84 91/110/84
f 67/86/85 92/110/85 69/87/85
f 68/87/84 102/124/84 91/110/84
f 68/87/92 70/88/92 102/124/92
f 69/87/85 92/110/85 103/124/85
f 69/87/95 103/124/95 73/91/95
f 70/88/76 71/89/76 104/125/76
f 70/88/92 104/125/92 102/124/92
f 71/89/76 94/114/76 104/125/76
f 71/89/77 72/90/77 105/126/77
f 71/89/77 105/126/77 94/114/77
f 72/90/98 76/94/98 108/129/98
f 72/90/98 108/129/98 105/126/98
f 73/91/81 106/127/81 74/92/81
f 73/91/95 103/124/95 106/127/95
f 74/92/80 95/115/80 107/128/80
f 74/92/80 107/128/80 75/93/80
f 74/92/81 106/127/81 95/115/81
f 75/93/100 107/128/100 112/130/100
f 75/93/100 112/130/100 82/96/100
f 76/94/75 77/95/75 108/129/75
f 77/95/75 96/116/75 108/129/75
f 77/105/74 78/104/74 109/135/74
f 77/105/74 109/135/74 96/119/74
f 78/104/97 79/103/97 109/135/97
f 79/103/79 80/102/79 110/134/79
f 79/103/97 110/134/97 109/135/97
f 80/102/78 81/101/78 111/133/78
f 80/102/78 111/133/78 97/118/78
f 80/102/79 97/118/79 110/134/79
f 81/101/96 86/100/96 111/133/96
f 82/96/87 93/111/87 83/97/87
f 82/96/87 112/130/87 93/111/87
f 83/81/86 93/109/86 84/82/86
f 84/82/86 93/109/86 113/121/86
f 84/82/99 113/121/99 85/83/99
f 85/83/88 114/122/88 87/84/88
f 85/83/99 113/121/99 114/122/99
f 86/100/90 88/99/90 115/132/90
f 86/100/96 115/132/96 111/133/96
f 87/84/88 114/122/88 98/113/88
f 87/84/89 98/113/89 117/123/89
f 87/84/89 117/123/89 90/85/89
f 88/99/90 99/117/90 115/132/90
f 88/99/91 89/98/91 116/131/91
f 88/99/91 116/131/91 99/117/91
f 89/98/94 90/85/94 117/123/94
f 89/98/94 117/123/94 116/131/94
f 91/149/106 102/150/106 118/146/106
f 91/149/106 118/146/106 100/145/106
f 92/4/107 101/6/107 119/7/107
f 92/4/107 119/7/107 103/2/107
f 93/10/101 112/9/101 124/11/101
f 93/10/101 124/11/101 113/12/101
f 94/152/103 105/148/103 120/147/103
f 94/152/103 120/147/103 104/151/103
f 95/1/105 106/3/105 121/8/105
f 95/1/105 121/8/105 107/5/105
f 96/143/102 109/142/102 122/141/102
f 96/143/102 122/141/102 108/144/102
f 97/139/104 111/137/104 123/138/104
f 97/139/104 123/138/104 110/140/104
f 98/14/108 114/13/108 126/15/108
f 98/14/108 126/15/108 117/16/108
f 99/77/109 116/75/109 125/76/109
f 99/77/109 125/76/109 115/78/109
f 100/145/114 118/146/114 101/6/114
f 101/6/114 118/146/114 119/7/114
f 102/150/118 104/151/118 118/146/118
f 103/2/112 119/7/112 106/3/112
f 104/151/118 120/147/118 118/146/118
f 105/148/113 108/144/113 122/141/113
f 105/148/113 122/141/113 120/147/113
f 106/3/112 119/7/112 121/8/112
f 107/5/111 121/8/111 124/11/111
f 107/5/111 124/11/111 112/9/111
f 109/142/115 110/140/115 122/141/115
f 110/140/115 123/138/115 122/141/115
f 111/137/116 115/78/116 123/138/116
f 113/12/110 124/11/110 114/13/110
f 114/13/110 124/11/110 126/15/110
f 115/78/116 125/76/116 123/138/116
f 116/75/117 117/16/117 126/15/117
f 116/75/117 126/15/117 125/76/117
f 118/146/119 120/147/119 119/7/119
f 119/7/119 120/147/119 122/141/119
f 119/7/119 122/141/119 123/138/119
f 119/7/119 123/138/119 125/76/119
f 119/7/119 124/11/119 121/8/119
f 119/7/119 125/76/119 126/15/119
f 119/7/119 126/15/119 124/11/119
