# exported by ae3d_export.py v3
# object: Street_BlockL1
mtllib Street_BlockL1.mtl
v -5.600000 -0.430000 -8.000000
v -5.600000 -0.430000 0.000000
v -5.600000 -0.410000 0.000000
v -5.600000 0.520000 0.000000
v -5.600000 2.020000 0.000000
v -5.600000 2.070000 0.000000
v -5.600000 3.670000 0.000000
v -5.600000 5.220000 0.000000
v -5.600000 9.000000 -8.000000
v -5.600000 9.000000 0.000000
v -4.775000 -0.430000 0.000000
v -4.775000 -0.410000 0.000000
v -4.775000 0.520000 -0.240000
v -4.775000 0.520000 0.000000
v -4.775000 2.020000 0.000000
v -4.775000 2.070000 -0.240000
v -4.775000 2.070000 0.000000
v -4.775000 3.670000 -0.240000
v -4.775000 3.670000 0.000000
v -4.775000 5.220000 -0.240000
v -4.775000 5.220000 0.000000
v -4.775000 9.000000 0.000000
v -3.625000 -0.430000 0.000000
v -3.625000 -0.410000 0.000000
v -3.625000 0.520000 -0.240000
v -3.625000 0.520000 0.000000
v -3.625000 2.020000 0.000000
v -3.625000 2.070000 -0.240000
v -3.625000 2.070000 0.000000
v -3.625000 3.670000 -0.240000
v -3.625000 3.670000 0.000000
v -3.625000 5.220000 -0.240000
v -3.625000 5.220000 0.000000
v -3.625000 9.000000 0.000000
v -1.975000 -0.430000 0.000000
v -1.975000 -0.410000 0.000000
v -1.975000 0.520000 -0.240000
v -1.975000 0.520000 0.000000
v -1.975000 2.020000 0.000000
v -1.975000 2.070000 -0.240000
v -1.975000 2.070000 0.000000
v -1.975000 3.670000 -0.240000
v -1.975000 3.670000 0.000000
v -1.975000 5.220000 -0.240000
v -1.975000 5.220000 0.000000
v -1.975000 9.000000 0.000000
v -0.825000 -0.430000 0.000000
v -0.825000 -0.410000 0.000000
v -0.825000 0.520000 -0.240000
v -0.825000 0.520000 0.000000
v -0.825000 2.020000 0.000000
v -0.825000 2.070000 -0.240000
v -0.825000 2.070000 0.000000
v -0.825000 3.670000 -0.240000
v -0.825000 3.670000 0.000000
v -0.825000 5.220000 -0.240000
v -0.825000 5.220000 0.000000
v -0.825000 9.000000 0.000000
v 0.725000 -0.430000 0.000000
v 0.725000 -0.410000 -0.240000
v 0.725000 -0.410000 0.000000
v 0.725000 0.520000 0.000000
v 0.725000 2.020000 -0.240000
v 0.725000 2.020000 0.000000
v 0.725000 2.070000 0.000000
v 0.725000 3.670000 0.000000
v 0.725000 5.220000 0.000000
v 0.725000 9.000000 0.000000
v 0.825000 -0.430000 0.000000
v 0.825000 -0.410000 0.000000
v 0.825000 2.020000 0.000000
v 0.825000 2.070000 0.000000
v 0.825000 3.670000 -0.240000
v 0.825000 3.670000 0.000000
v 0.825000 5.220000 -0.240000
v 0.825000 5.220000 0.000000
v 0.825000 9.000000 0.000000
v 1.975000 -0.430000 0.000000
v 1.975000 -0.410000 0.000000
v 1.975000 2.020000 0.000000
v 1.975000 2.070000 0.000000
v 1.975000 3.670000 -0.240000
v 1.975000 3.670000 0.000000
v 1.975000 5.220000 -0.240000
v 1.975000 5.220000 0.000000
v 1.975000 9.000000 0.000000
v 2.075000 -0.430000 0.000000
v 2.075000 -0.410000 -0.240000
v 2.075000 -0.410000 0.000000
v 2.075000 0.520000 0.000000
v 2.075000 2.020000 -0.240000
v 2.075000 2.020000 0.000000
v 2.075000 2.070000 0.000000
v 2.075000 3.670000 0.000000
v 2.075000 5.220000 0.000000
v 2.075000 9.000000 0.000000
v 3.625000 -0.430000 0.000000
v 3.625000 -0.410000 0.000000
v 3.625000 0.520000 -0.240000
v 3.625000 0.520000 0.000000
v 3.625000 2.020000 0.000000
v 3.625000 2.070000 -0.240000
v 3.625000 2.070000 0.000000
v 3.625000 3.670000 -0.240000
v 3.625000 3.670000 0.000000
v 3.625000 5.220000 -0.240000
v 3.625000 5.220000 0.000000
v 3.625000 9.000000 0.000000
v 4.775000 -0.430000 0.000000
v 4.775000 -0.410000 0.000000
v 4.775000 0.520000 -0.240000
v 4.775000 0.520000 0.000000
v 4.775000 2.020000 0.000000
v 4.775000 2.070000 -0.240000
v 4.775000 2.070000 0.000000
v 4.775000 3.670000 -0.240000
v 4.775000 3.670000 0.000000
v 4.775000 5.220000 -0.240000
v 4.775000 5.220000 0.000000
v 4.775000 9.000000 0.000000
v 5.600000 -0.430000 -8.000000
v 5.600000 -0.430000 0.000000
v 5.600000 -0.410000 0.000000
v 5.600000 0.520000 0.000000
v 5.600000 2.020000 0.000000
v 5.600000 2.070000 0.000000
v 5.600000 3.670000 0.000000
v 5.600000 5.220000 0.000000
v 5.600000 9.000000 -8.000000
v 5.600000 9.000000 0.000000
vt -4.704000 -0.361200
vt -4.704000 -0.344400
vt -4.704000 0.000000
vt -4.704000 0.436800
vt -4.704000 1.696800
vt -4.704000 1.738800
vt -4.704000 3.082800
vt -4.704000 4.384800
vt -4.704000 6.720000
vt -4.704000 7.560000
vt -4.011000 -0.361200
vt -4.011000 -0.344400
vt -4.011000 0.000000
vt -4.011000 0.201600
vt -4.011000 0.436800
vt -4.011000 1.696800
vt -4.011000 1.738800
vt -4.011000 3.082800
vt -4.011000 4.384800
vt -4.011000 7.560000
vt -3.045000 -0.361200
vt -3.045000 -0.344400
vt -3.045000 0.000000
vt -3.045000 0.201600
vt -3.045000 0.436800
vt -3.045000 1.696800
vt -3.045000 1.738800
vt -3.045000 3.082800
vt -3.045000 4.384800
vt -3.045000 7.560000
vt -1.659000 -0.361200
vt -1.659000 -0.344400
vt -1.659000 0.000000
vt -1.659000 0.201600
vt -1.659000 0.436800
vt -1.659000 1.696800
vt -1.659000 1.738800
vt -1.659000 3.082800
vt -1.659000 4.384800
vt -1.659000 7.560000
vt -0.693000 -0.361200
vt -0.693000 -0.344400
vt -0.693000 0.000000
vt -0.693000 0.201600
vt -0.693000 0.436800
vt -0.693000 1.696800
vt -0.693000 1.738800
vt -0.693000 3.082800
vt -0.693000 4.384800
vt -0.693000 7.560000
vt 0.000000 -0.361200
vt 0.000000 -0.344400
vt 0.000000 0.436800
vt 0.000000 1.696800
vt 0.000000 1.738800
vt 0.000000 3.082800
vt 0.000000 4.384800
vt 0.000000 7.560000
vt 0.201600 -0.344400
vt 0.201600 0.436800
vt 0.201600 1.696800
vt 0.201600 1.738800
vt 0.201600 3.082800
vt 0.201600 4.384800
vt 0.609000 -0.361200
vt 0.609000 -0.344400
vt 0.609000 0.000000
vt 0.609000 0.201600
vt 0.609000 0.436800
vt 0.609000 1.696800
vt 0.609000 1.738800
vt 0.609000 3.082800
vt 0.609000 4.384800
vt 0.609000 7.560000
vt 0.693000 -0.361200
vt 0.693000 -0.344400
vt 0.693000 0.000000
vt 0.693000 0.201600
vt 0.693000 1.696800
vt 0.693000 1.738800
vt 0.693000 3.082800
vt 0.693000 4.384800
vt 0.693000 7.560000
vt 1.659000 -0.361200
vt 1.659000 -0.344400
vt 1.659000 0.000000
vt 1.659000 0.201600
vt 1.659000 1.696800
vt 1.659000 1.738800
vt 1.659000 3.082800
vt 1.659000 4.384800
vt 1.659000 7.560000
vt 1.743000 -0.361200
vt 1.743000 -0.344400
vt 1.743000 0.000000
vt 1.743000 0.201600
vt 1.743000 0.436800
vt 1.743000 1.696800
vt 1.743000 1.738800
vt 1.743000 3.082800
vt 1.743000 4.384800
vt 1.743000 7.560000
vt 3.045000 -0.361200
vt 3.045000 -0.344400
vt 3.045000 0.000000
vt 3.045000 0.201600
vt 3.045000 0.436800
vt 3.045000 1.696800
vt 3.045000 1.738800
vt 3.045000 3.082800
vt 3.045000 4.384800
vt 3.045000 7.560000
vt 4.011000 -0.361200
vt 4.011000 -0.344400
vt 4.011000 0.000000
vt 4.011000 0.201600
vt 4.011000 0.436800
vt 4.011000 1.696800
vt 4.011000 1.738800
vt 4.011000 3.082800
vt 4.011000 4.384800
vt 4.011000 7.560000
vt 4.704000 -0.361200
vt 4.704000 -0.344400
vt 4.704000 0.000000
vt 4.704000 0.436800
vt 4.704000 1.696800
vt 4.704000 1.738800
vt 4.704000 3.082800
vt 4.704000 4.384800
vt 4.704000 6.720000
vt 4.704000 7.560000
vt 6.720000 -0.361200
vt 6.720000 7.560000
vn -1.000000 0.000000 0.000000
vn 0.000000 -1.000000 0.000000
vn 0.000000 0.000000 -1.000000
vn 0.000000 0.000000 1.000000
vn 0.000000 1.000000 0.000000
vn 1.000000 0.000000 0.000000
usemtl WallConcrete
f 1/1/3 9/10/3 129/132/3
f 1/1/3 129/132/3 121/123/3
f 1/9/2 121/131/2 2/3/2
f 1/133/1 2/51/1 9/134/1
f 2/1/4 11/11/4 12/12/4
f 2/1/4 12/12/4 3/2/4
f 2/3/2 121/131/2 122/125/2
f 2/51/1 10/58/1 9/134/1
f 3/2/4 12/12/4 14/15/4
f 3/2/4 14/15/4 4/4/4
f 4/4/4 14/15/4 15/16/4
f 4/4/4 15/16/4 5/5/4
f 5/5/4 15/16/4 17/17/4
f 5/5/4 17/17/4 6/6/4
f 6/6/4 17/17/4 19/18/4
f 6/6/4 19/18/4 7/7/4
f 7/7/4 19/18/4 21/19/4
f 7/7/4 21/19/4 8/8/4
f 8/8/4 21/19/4 22/20/4
f 8/8/4 22/20/4 10/10/4
f 9/9/5 10/3/5 129/131/5
f 10/3/5 130/125/5 129/131/5
f 11/11/4 23/21/4 24/22/4
f 11/11/4 24/22/4 12/12/4
f 12/12/4 24/22/4 26/25/4
f 12/12/4 26/25/4 14/15/4
f 13/14/5 14/13/5 25/24/5
f 13/60/6 16/62/6 14/53/6
f 14/13/5 26/23/5 25/24/5
f 14/53/6 16/62/6 17/55/6
f 16/14/2 28/24/2 17/13/2
f 17/13/2 28/24/2 29/23/2
f 17/17/4 29/27/4 31/28/4
f 17/17/4 31/28/4 19/18/4
f 18/14/5 19/13/5 30/24/5
f 18/63/6 20/64/6 19/56/6
f 19/13/5 31/23/5 30/24/5
f 19/56/6 20/64/6 21/57/6
f 20/14/2 32/24/2 21/13/2
f 21/13/2 32/24/2 33/23/2
f 21/19/4 33/29/4 34/30/4
f 21/19/4 34/30/4 22/20/4
f 23/21/4 35/31/4 36/32/4
f 23/21/4 36/32/4 24/22/4
f 24/22/4 36/32/4 38/35/4
f 24/22/4 38/35/4 26/25/4
f 25/60/1 26/53/1 28/62/1
f 26/25/4 38/35/4 39/36/4
f 26/25/4 39/36/4 27/26/4
f 26/53/1 29/55/1 28/62/1
f 27/26/4 39/36/4 41/37/4
f 27/26/4 41/37/4 29/27/4
f 29/27/4 41/37/4 43/38/4
f 29/27/4 43/38/4 31/28/4
f 30/63/1 31/56/1 32/64/1
f 31/28/4 43/38/4 45/39/4
f 31/28/4 45/39/4 33/29/4
f 31/56/1 33/57/1 32/64/1
f 33/29/4 45/39/4 46/40/4
f 33/29/4 46/40/4 34/30/4
f 35/31/4 47/41/4 48/42/4
f 35/31/4 48/42/4 36/32/4
f 36/32/4 48/42/4 50/45/4
f 36/32/4 50/45/4 38/35/4
f 37/34/5 38/33/5 49/44/5
f 37/60/6 40/62/6 38/53/6
f 38/33/5 50/43/5 49/44/5
f 38/53/6 40/62/6 41/55/6
f 40/34/2 52/44/2 41/33/2
f 41/33/2 52/44/2 53/43/2
f 41/37/4 53/47/4 55/48/4
f 41/37/4 55/48/4 43/38/4
f 42/34/5 43/33/5 54/44/5
f 42/63/6 44/64/6 43/56/6
f 43/33/5 55/43/5 54/44/5
f 43/56/6 44/64/6 45/57/6
f 44/34/2 56/44/2 45/33/2
f 45/33/2 56/44/2 57/43/2
f 45/39/4 57/49/4 58/50/4
f 45/39/4 58/50/4 46/40/4
f 47/41/4 59/65/4 61/66/4
f 47/41/4 61/66/4 48/42/4
f 48/42/4 61/66/4 62/69/4
f 48/42/4 62/69/4 50/45/4
f 49/60/1 50/53/1 52/62/1
f 50/45/4 62/69/4 64/70/4
f 50/45/4 64/70/4 51/46/4
f 50/53/1 53/55/1 52/62/1
f 51/46/4 64/70/4 65/71/4
f 51/46/4 65/71/4 53/47/4
f 53/47/4 65/71/4 66/72/4
f 53/47/4 66/72/4 55/48/4
f 54/63/1 55/56/1 56/64/1
f 55/48/4 66/72/4 67/73/4
f 55/48/4 67/73/4 57/49/4
f 55/56/1 57/57/1 56/64/1
f 57/49/4 67/73/4 68/74/4
f 57/49/4 68/74/4 58/50/4
f 59/65/4 69/75/4 70/76/4
f 59/65/4 70/76/4 61/66/4
f 60/59/1 61/52/1 63/61/1
f 60/68/2 88/96/2 61/67/2
f 61/52/1 64/54/1 63/61/1
f 61/67/2 88/96/2 89/95/2
f 63/68/5 64/67/5 91/96/5
f 64/67/5 92/95/5 91/96/5
f 64/70/4 71/79/4 72/80/4
f 64/70/4 72/80/4 65/71/4
f 65/71/4 72/80/4 74/81/4
f 65/71/4 74/81/4 66/72/4
f 66/72/4 74/81/4 76/82/4
f 66/72/4 76/82/4 67/73/4
f 67/73/4 76/82/4 77/83/4
f 67/73/4 77/83/4 68/74/4
f 69/75/4 78/84/4 79/85/4
f 69/75/4 79/85/4 70/76/4
f 71/79/4 80/88/4 81/89/4
f 71/79/4 81/89/4 72/80/4
f 72/80/4 81/89/4 83/90/4
f 72/80/4 83/90/4 74/81/4
f 73/63/6 75/64/6 74/56/6
f 73/78/5 74/77/5 82/87/5
f 74/56/6 75/64/6 76/57/6
f 74/77/5 83/86/5 82/87/5
f 75/78/2 84/87/2 76/77/2
f 76/77/2 84/87/2 85/86/2
f 76/82/4 85/91/4 86/92/4
f 76/82/4 86/92/4 77/83/4
f 78/84/4 87/93/4 89/94/4
f 78/84/4 89/94/4 79/85/4
f 80/88/4 92/98/4 93/99/4
f 80/88/4 93/99/4 81/89/4
f 81/89/4 93/99/4 94/100/4
f 81/89/4 94/100/4 83/90/4
f 82/63/1 83/56/1 84/64/1
f 83/56/1 85/57/1 84/64/1
f 83/90/4 94/100/4 95/101/4
f 83/90/4 95/101/4 85/91/4
f 85/91/4 95/101/4 96/102/4
f 85/91/4 96/102/4 86/92/4
f 87/93/4 97/103/4 98/104/4
f 87/93/4 98/104/4 89/94/4
f 88/59/6 91/61/6 89/52/6
f 89/52/6 91/61/6 92/54/6
f 89/94/4 98/104/4 100/107/4
f 89/94/4 100/107/4 90/97/4
f 90/97/4 100/107/4 101/108/4
f 90/97/4 101/108/4 92/98/4
f 92/98/4 101/108/4 103/109/4
f 92/98/4 103/109/4 93/99/4
f 93/99/4 103/109/4 105/110/4
f 93/99/4 105/110/4 94/100/4
f 94/100/4 105/110/4 107/111/4
f 94/100/4 107/111/4 95/101/4
f 95/101/4 107/111/4 108/112/4
f 95/101/4 108/112/4 96/102/4
f 97/103/4 109/113/4 110/114/4
f 97/103/4 110/114/4 98/104/4
f 98/104/4 110/114/4 112/117/4
f 98/104/4 112/117/4 100/107/4
f 99/60/6 102/62/6 100/53/6
f 99/106/5 100/105/5 111/116/5
f 100/53/6 102/62/6 103/55/6
f 100/105/5 112/115/5 111/116/5
f 102/106/2 114/116/2 103/105/2
f 103/105/2 114/116/2 115/115/2
f 103/109/4 115/119/4 117/120/4
f 103/109/4 117/120/4 105/110/4
f 104/63/6 106/64/6 105/56/6
f 104/106/5 105/105/5 116/116/5
f 105/56/6 106/64/6 107/57/6
f 105/105/5 117/115/5 116/116/5
f 106/106/2 118/116/2 107/105/2
f 107/105/2 118/116/2 119/115/2
f 107/111/4 119/121/4 120/122/4
f 107/111/4 120/122/4 108/112/4
f 109/113/4 122/123/4 123/124/4
f 109/113/4 123/124/4 110/114/4
f 110/114/4 123/124/4 124/126/4
f 110/114/4 124/126/4 112/117/4
f 111/60/1 112/53/1 114/62/1
f 112/53/1 115/55/1 114/62/1
f 112/117/4 124/126/4 125/127/4
f 112/117/4 125/127/4 113/118/4
f 113/118/4 125/127/4 126/128/4
f 113/118/4 126/128/4 115/119/4
f 115/119/4 126/128/4 127/129/4
f 115/119/4 127/129/4 117/120/4
f 116/63/1 117/56/1 118/64/1
f 117/56/1 119/57/1 118/64/1
f 117/120/4 127/129/4 128/130/4
f 117/120/4 128/130/4 119/121/4
f 119/121/4 128/130/4 130/132/4
f 119/121/4 130/132/4 120/122/4
f 121/133/6 129/134/6 122/51/6
f 122/51/6 129/134/6 130/58/6
