# exported by ae3d_export.py v3
# object: Street_BlockR4_Lit
mtllib Street_BlockR4_Lit.mtl
v -5.735000 9.770000 0.225000
v -5.735000 11.240000 0.225000
v -4.665000 9.770000 0.225000
v -4.665000 11.240000 0.225000
v -3.135000 3.470000 0.225000
v -3.135000 4.940000 0.225000
v -2.065000 3.470000 0.225000
v -2.065000 4.940000 0.225000
v 2.065000 6.620000 0.225000
v 2.065000 8.090000 0.225000
v 2.065000 9.770000 0.225000
v 2.065000 11.240000 0.225000
v 3.135000 6.620000 0.225000
v 3.135000 8.090000 0.225000
v 3.135000 9.770000 0.225000
v 3.135000 11.240000 0.225000
v 4.665000 3.470000 0.225000
v 4.665000 4.940000 0.225000
v 4.665000 9.770000 0.225000
v 4.665000 11.240000 0.225000
v 5.735000 3.470000 0.225000
v 5.735000 4.940000 0.225000
v 5.735000 9.770000 0.225000
v 5.735000 11.240000 0.225000
vt 0.000000 0.000000
vt 0.000000 1.000000
vt 1.000000 0.000000
vt 1.000000 1.000000
vn 0.000000 0.000000 -1.000000
vn 0.000000 0.000000 1.000000
usemtl WindowLit
f 1/1/1 2/2/1 4/4/1
f 1/1/1 4/4/1 3/3/1
f 5/1/1 6/2/1 8/4/1
f 5/1/1 8/4/1 7/3/1
f 9/1/2 13/3/2 14/4/2
f 9/1/2 14/4/2 10/2/2
f 11/1/2 15/3/2 16/4/2
f 11/1/2 16/4/2 12/2/2
f 17/1/2 21/3/2 22/4/2
f 17/1/2 22/4/2 18/2/2
f 19/1/1 20/2/1 24/4/1
f 19/1/1 24/4/1 23/3/1
