# exported by ae3d_export.py v3
# object: Street_BlockR3_Glass
mtllib Street_BlockR3_Glass.mtl
v -5.735000 0.350000 0.225000
v -5.735000 1.820000 0.225000
v -5.735000 3.500000 0.225000
v -5.735000 4.970000 0.225000
v -5.735000 6.650000 0.225000
v -5.735000 8.120000 0.225000
v -4.665000 0.350000 0.225000
v -4.665000 1.820000 0.225000
v -4.665000 3.500000 0.225000
v -4.665000 4.970000 0.225000
v -4.665000 6.650000 0.225000
v -4.665000 8.120000 0.225000
v -3.135000 0.350000 0.225000
v -3.135000 1.820000 0.225000
v -3.135000 3.500000 0.225000
v -3.135000 4.970000 0.225000
v -3.135000 6.650000 0.225000
v -3.135000 8.120000 0.225000
v -2.065000 0.350000 0.225000
v -2.065000 1.820000 0.225000
v -2.065000 3.500000 0.225000
v -2.065000 4.970000 0.225000
v -2.065000 6.650000 0.225000
v -2.065000 8.120000 0.225000
v -0.635000 -0.580000 0.225000
v -0.635000 1.770000 0.225000
v -0.535000 6.650000 0.225000
v -0.535000 8.120000 0.225000
v 0.535000 6.650000 0.225000
v 0.535000 8.120000 0.225000
v 0.635000 -0.580000 0.225000
v 0.635000 1.770000 0.225000
v 2.065000 3.500000 0.225000
v 2.065000 4.970000 0.225000
v 3.135000 3.500000 0.225000
v 3.135000 4.970000 0.225000
v 4.665000 0.350000 0.225000
v 4.665000 1.820000 0.225000
v 4.665000 3.500000 0.225000
v 4.665000 4.970000 0.225000
v 5.735000 0.350000 0.225000
v 5.735000 1.820000 0.225000
v 5.735000 3.500000 0.225000
v 5.735000 4.970000 0.225000
vt 0.000000 0.000000
vt 0.000000 1.000000
vt 1.000000 0.000000
vt 1.000000 1.000000
vn 0.000000 0.000000 -1.000000
vn 0.000000 0.000000 1.000000
usemtl WindowGlass
f 1/1/2 7/3/2 8/4/2
f 1/1/2 8/4/2 2/2/2
f 3/1/2 9/3/2 10/4/2
f 3/1/2 10/4/2 4/2/2
f 5/1/2 11/3/2 12/4/2
f 5/1/2 12/4/2 6/2/2
f 13/1/1 14/2/1 20/4/1
f 13/1/1 20/4/1 19/3/1
f 15/1/1 16/2/1 22/4/1
f 15/1/1 22/4/1 21/3/1
f 17/1/1 18/2/1 24/4/1
f 17/1/1 24/4/1 23/3/1
f 25/1/2 31/3/2 32/4/2
f 25/1/2 32/4/2 26/2/2
f 27/1/1 28/2/1 30/4/1
f 27/1/1 30/4/1 29/3/1
f 33/1/1 34/2/1 36/4/1
f 33/1/1 36/4/1 35/3/1
f 37/1/2 41/3/2 42/4/2
f 37/1/2 42/4/2 38/2/2
f 39/1/2 43/3/2 44/4/2
f 39/1/2 44/4/2 40/2/2
