# exported by ae3d_export.py v3
# object: Street_BlockL3_Glass
mtllib Street_BlockL3_Glass.mtl
v -1.935000 0.500000 -0.225000
v -1.935000 1.970000 -0.225000
v -0.865000 0.500000 -0.225000
v -0.865000 1.970000 -0.225000
v 0.765000 -0.430000 -0.225000
v 0.765000 1.920000 -0.225000
v 0.865000 6.800000 -0.225000
v 0.865000 8.270000 -0.225000
v 1.935000 6.800000 -0.225000
v 1.935000 8.270000 -0.225000
v 2.035000 -0.430000 -0.225000
v 2.035000 1.920000 -0.225000
v 3.665000 0.500000 -0.225000
v 3.665000 1.970000 -0.225000
v 3.665000 6.800000 -0.225000
v 3.665000 8.270000 -0.225000
v 4.735000 0.500000 -0.225000
v 4.735000 1.970000 -0.225000
v 4.735000 6.800000 -0.225000
v 4.735000 8.270000 -0.225000
vt 0.000000 0.000000
vt 0.000000 1.000000
vt 1.000000 0.000000
vt 1.000000 1.000000
vn 0.000000 0.000000 -1.000000
vn 0.000000 0.000000 1.000000
usemtl WindowGlass
f 1/1/2 3/3/2 4/4/2
f 1/1/2 4/4/2 2/2/2
f 5/1/2 11/3/2 12/4/2
f 5/1/2 12/4/2 6/2/2
f 7/1/1 8/2/1 10/4/1
f 7/1/1 10/4/1 9/3/1
f 13/1/1 14/2/1 18/4/1
f 13/1/1 18/4/1 17/3/1
f 15/1/1 16/2/1 20/4/1
f 15/1/1 20/4/1 19/3/1
