# exported by ae3d_export.py v2
# object: Street_PathR
mtllib Street_PathR.mtl
v -35.000000 -0.430000 -1.580000
v -35.000000 -0.430000 1.580000
v -35.000000 0.130000 -1.580000
v -35.000000 0.130000 1.580000
v -34.994137 -0.444142 -1.580000
v -34.994137 -0.444142 1.580000
v -34.994137 -0.430000 -1.594142
v -34.994137 -0.430000 1.594142
v -34.994137 0.130000 -1.594142
v -34.994137 0.130000 1.594142
v -34.994137 0.144142 -1.580000
v -34.994137 0.144142 1.580000
v -34.991543 -0.441547 -1.591547
v -34.991543 -0.441547 1.591547
v -34.991543 0.141547 -1.591547
v -34.991543 0.141547 1.591547
v -34.980000 -0.450000 -1.580000
v -34.980000 -0.450000 1.580000
v -34.980000 -0.430000 -1.600000
v -34.980000 -0.430000 1.600000
v -34.980000 0.130000 -1.600000
v -34.980000 0.130000 1.600000
v -34.980000 0.150000 -1.580000
v -34.980000 0.150000 1.580000
v -34.979996 -0.444142 -1.594142
v -34.979996 -0.444142 1.594142
v -34.979996 0.144142 -1.594142
v -34.979996 0.144142 1.594142
v 34.979996 -0.444142 -1.594142
v 34.979996 0.144142 -1.594142
v 34.979996 0.144142 1.594142
v 34.980000 -0.450000 -1.580000
v 34.980000 -0.450000 1.580000
v 34.980000 -0.444142 1.594142
v 34.980000 -0.430000 -1.600000
v 34.980000 -0.430000 1.600000
v 34.980000 0.130000 -1.600000
v 34.980000 0.130000 1.600000
v 34.980000 0.150000 -1.580000
v 34.980000 0.150000 1.580000
v 34.991543 -0.441547 -1.591547
v 34.991543 0.141547 -1.591547
v 34.991543 0.141547 1.591547
v 34.991547 -0.441547 1.591547
v 34.994137 -0.444142 -1.580000
v 34.994137 -0.430000 -1.594142
v 34.994137 0.130000 -1.594142
v 34.994137 0.130000 1.594142
v 34.994137 0.144142 -1.580000
v 34.994137 0.144142 1.580000
v 34.994141 -0.444142 1.580000
v 34.994141 -0.430000 1.594142
v 35.000000 -0.430000 -1.580000
v 35.000000 -0.430000 1.580000
v 35.000000 0.130000 -1.580000
v 35.000000 0.130000 1.580000
vt -26.245602 -1.185000
vt -26.245602 -0.322500
vt -26.245602 0.097500
vt -26.245602 1.185000
vt -26.243656 -1.193660
vt -26.243656 -0.331160
vt -26.243656 0.106160
vt -26.243656 1.193660
vt -26.235001 -1.185000
vt -26.235001 -0.322500
vt -26.235001 0.097500
vt -26.235001 1.185000
vt -26.234997 -1.195607
vt -26.234997 -0.333107
vt -26.234997 0.108107
vt -26.234997 1.195607
vt -1.195607 -0.322500
vt -1.195607 0.097500
vt -1.193660 -0.331160
vt -1.193660 0.106160
vt -1.185000 -0.333107
vt -1.185000 -0.322500
vt -1.185000 0.097500
vt -1.185000 0.108107
vt 1.185000 -0.333107
vt 1.185000 -0.322500
vt 1.185000 0.097500
vt 1.185000 0.108107
vt 1.193660 -0.331160
vt 1.193660 0.106160
vt 1.195607 -0.322500
vt 1.195607 0.097500
vt 26.234997 -1.195607
vt 26.234997 -0.333107
vt 26.234997 0.108107
vt 26.234997 1.195607
vt 26.235001 -1.195607
vt 26.235001 -1.185000
vt 26.235001 -0.333107
vt 26.235001 -0.322500
vt 26.235001 0.097500
vt 26.235001 1.185000
vt 26.243656 -1.193660
vt 26.243656 -0.331160
vt 26.243656 0.106160
vt 26.243656 1.193660
vt 26.243660 -1.193660
vt 26.243660 -0.331160
vt 26.245602 -1.185000
vt 26.245602 -0.322500
vt 26.245602 0.097500
vt 26.245602 1.185000
vt 26.245605 -1.185000
vt 26.245605 -0.322500
vn -1.000000 0.000000 0.000000
vn -0.923757 -0.382979 0.000000
vn -0.923756 0.382980 0.000000
vn -0.923714 0.000000 -0.383083
vn -0.923714 0.000000 0.383083
vn -0.887964 -0.325173 0.325241
vn -0.887964 0.325173 -0.325242
vn -0.887964 0.325173 0.325242
vn -0.887941 -0.325164 -0.325314
vn -0.382844 0.000000 -0.923813
vn -0.382844 0.000000 0.923813
vn -0.382796 0.923833 0.000000
vn -0.382795 -0.923833 0.000000
vn -0.325109 -0.888043 -0.325091
vn -0.325109 -0.888043 0.325091
vn -0.325109 0.888043 -0.325091
vn -0.325109 0.888043 0.325091
vn -0.325077 0.325051 0.888069
vn -0.325053 0.325030 -0.888086
vn -0.325029 -0.325006 0.888103
vn -0.325029 -0.325004 -0.888104
vn 0.000000 -1.000000 0.000000
vn 0.000000 -0.923881 -0.382679
vn 0.000000 -0.923880 0.382682
vn 0.000000 -0.382674 0.923883
vn 0.000000 -0.382668 -0.923886
vn 0.000000 0.000000 -1.000000
vn 0.000000 0.000000 1.000000
vn 0.000000 0.382669 -0.923886
vn 0.000000 0.382669 0.923886
vn 0.000000 0.923881 -0.382679
vn 0.000000 0.923881 0.382679
vn 0.000000 1.000000 0.000000
vn 0.325029 -0.325006 -0.888103
vn 0.325053 0.325030 0.888086
vn 0.325076 -0.325051 0.888069
vn 0.325077 0.325051 -0.888069
vn 0.325081 -0.888108 0.324941
vn 0.325109 -0.888043 -0.325091
vn 0.325109 0.888043 -0.325091
vn 0.325109 0.888043 0.325091
vn 0.382686 0.000001 0.923878
vn 0.382751 -0.923851 0.000000
vn 0.382796 0.923833 0.000000
vn 0.382844 0.000000 -0.923813
vn 0.887964 -0.325173 -0.325241
vn 0.887964 0.325173 -0.325242
vn 0.887964 0.325173 0.325242
vn 0.888043 -0.325050 0.325149
vn 0.923714 0.000000 -0.383083
vn 0.923756 0.382980 0.000000
vn 0.923801 -0.382873 0.000000
vn 0.923871 0.000003 0.382704
vn 1.000000 0.000000 0.000000
usemtl PathPaving
f 1/26/1 2/22/1 4/23/1
f 1/26/1 4/23/1 3/27/1
f 1/26/2 5/25/2 2/22/2
f 1/26/4 3/27/4 9/32/4
f 1/26/4 9/32/4 7/31/4
f 1/26/9 7/31/9 13/29/9
f 1/26/9 13/29/9 5/25/9
f 2/22/2 5/25/2 6/21/2
f 2/22/5 8/17/5 4/23/5
f 2/22/6 6/21/6 14/19/6
f 2/22/6 14/19/6 8/17/6
f 3/27/3 4/23/3 12/24/3
f 3/27/3 12/24/3 11/28/3
f 3/27/7 11/28/7 15/30/7
f 3/27/7 15/30/7 9/32/7
f 4/23/5 8/17/5 10/18/5
f 4/23/8 10/18/8 16/20/8
f 4/23/8 16/20/8 12/24/8
f 5/4/13 17/12/13 6/1/13
f 5/4/14 13/8/14 17/12/14
f 6/1/13 17/12/13 18/9/13
f 6/1/15 18/9/15 14/5/15
f 7/2/10 9/3/10 21/11/10
f 7/2/10 21/11/10 19/10/10
f 7/2/21 19/10/21 13/6/21
f 8/2/11 20/10/11 10/3/11
f 8/2/20 14/6/20 20/10/20
f 9/3/19 15/7/19 21/11/19
f 10/3/11 20/10/11 22/11/11
f 10/3/18 22/11/18 16/7/18
f 11/4/12 12/1/12 24/9/12
f 11/4/12 24/9/12 23/12/12
f 11/4/16 23/12/16 15/8/16
f 12/1/17 16/5/17 24/9/17
f 13/6/21 19/10/21 25/14/21
f 13/8/14 25/16/14 17/12/14
f 14/5/15 18/9/15 26/13/15
f 14/6/20 26/14/20 20/10/20
f 15/7/19 27/15/19 21/11/19
f 15/8/16 23/12/16 27/16/16
f 16/5/17 28/13/17 24/9/17
f 16/7/18 22/11/18 28/15/18
f 17/12/22 32/42/22 18/9/22
f 17/12/23 25/16/23 32/42/23
f 18/9/22 32/42/22 33/38/22
f 18/9/24 33/38/24 26/13/24
f 19/10/26 29/34/26 25/14/26
f 19/10/26 35/40/26 29/34/26
f 19/10/27 21/11/27 35/40/27
f 20/10/25 26/14/25 36/40/25
f 20/10/28 36/40/28 38/41/28
f 20/10/28 38/41/28 22/11/28
f 21/11/27 37/41/27 35/40/27
f 21/11/29 27/15/29 37/41/29
f 22/11/30 31/35/30 28/15/30
f 22/11/30 38/41/30 31/35/30
f 23/12/31 30/36/31 27/16/31
f 23/12/31 39/42/31 30/36/31
f 23/12/33 24/9/33 39/42/33
f 24/9/32 28/13/32 40/38/32
f 24/9/33 40/38/33 39/42/33
f 25/16/23 29/36/23 32/42/23
f 26/13/24 33/38/24 34/37/24
f 26/14/25 34/39/25 36/40/25
f 27/15/29 30/35/29 37/41/29
f 28/13/32 31/33/32 40/38/32
f 29/34/34 35/40/34 41/44/34
f 29/36/39 41/46/39 32/42/39
f 30/35/37 42/45/37 37/41/37
f 30/36/40 39/42/40 42/46/40
f 31/33/41 43/43/41 40/38/41
f 31/35/35 38/41/35 43/45/35
f 32/42/39 41/46/39 45/52/39
f 32/42/43 45/52/43 33/38/43
f 33/38/38 44/47/38 34/37/38
f 33/38/38 51/53/38 44/47/38
f 33/38/43 45/52/43 51/53/43
f 34/39/36 44/48/36 36/40/36
f 35/40/34 46/50/34 41/44/34
f 35/40/45 37/41/45 47/51/45
f 35/40/45 47/51/45 46/50/45
f 36/40/36 44/48/36 52/54/36
f 36/40/42 48/51/42 38/41/42
f 36/40/42 52/54/42 48/51/42
f 37/41/37 42/45/37 47/51/37
f 38/41/35 48/51/35 43/45/35
f 39/42/40 49/52/40 42/46/40
f 39/42/44 40/38/44 50/49/44
f 39/42/44 50/49/44 49/52/44
f 40/38/41 43/43/41 50/49/41
f 41/29/46 46/31/46 53/26/46
f 41/29/46 53/26/46 45/25/46
f 42/30/47 49/28/47 55/27/47
f 42/30/47 55/27/47 47/32/47
f 43/20/48 48/18/48 56/23/48
f 43/20/48 56/23/48 50/24/48
f 44/19/49 51/21/49 54/22/49
f 44/19/49 54/22/49 52/17/49
f 45/25/52 53/26/52 51/21/52
f 46/31/50 47/32/50 55/27/50
f 46/31/50 55/27/50 53/26/50
f 48/18/53 52/17/53 56/23/53
f 49/28/51 50/24/51 56/23/51
f 49/28/51 56/23/51 55/27/51
f 51/21/52 53/26/52 54/22/52
f 52/17/53 54/22/53 56/23/53
f 53/26/54 55/27/54 54/22/54
f 54/22/54 55/27/54 56/23/54
