# exported by ae3d_export.py v3
# object: Street_BlockL2_Glass
mtllib Street_BlockL2_Glass.mtl
v -1.935000 0.530000 -0.225000
v -1.935000 2.000000 -0.225000
v -0.865000 0.530000 -0.225000
v -0.865000 2.000000 -0.225000
v 0.765000 -0.400000 -0.225000
v 0.765000 1.950000 -0.225000
v 0.865000 6.830000 -0.225000
v 0.865000 8.300000 -0.225000
v 0.865000 9.980000 -0.225000
v 0.865000 11.450000 -0.225000
v 1.935000 6.830000 -0.225000
v 1.935000 8.300000 -0.225000
v 1.935000 9.980000 -0.225000
v 1.935000 11.450000 -0.225000
v 2.035000 -0.400000 -0.225000
v 2.035000 1.950000 -0.225000
v 3.665000 0.530000 -0.225000
v 3.665000 2.000000 -0.225000
v 3.665000 6.830000 -0.225000
v 3.665000 8.300000 -0.225000
v 4.735000 0.530000 -0.225000
v 4.735000 2.000000 -0.225000
v 4.735000 6.830000 -0.225000
v 4.735000 8.300000 -0.225000
vt 0.000000 0.000000
vt 0.000000 1.000000
vt 1.000000 0.000000
vt 1.000000 1.000000
vn 0.000000 0.000000 -1.000000
vn 0.000000 0.000000 1.000000
usemtl WindowGlass
f 1/1/2 3/3/2 4/4/2
f 1/1/2 4/4/2 2/2/2
f 5/1/1 6/2/1 16/4/1
f 5/1/1 16/4/1 15/3/1
f 7/1/1 8/2/1 12/4/1
f 7/1/1 12/4/1 11/3/1
f 9/1/1 10/2/1 14/4/1
f 9/1/1 14/4/1 13/3/1
f 17/1/1 18/2/1 22/4/1
f 17/1/1 22/4/1 21/3/1
f 19/1/1 20/2/1 24/4/1
f 19/1/1 24/4/1 23/3/1
