# exported by ae3d_export.py v3
# object: Street_BlockL0_Trim
mtllib Street_BlockL0_Trim.mtl
v -5.700000 12.080000 0.000000
v -5.700000 12.080000 0.260000
v -5.700000 12.500000 0.000000
v -5.700000 12.500000 0.260000
v -5.660000 -0.400000 0.000000
v -5.660000 -0.400000 0.130000
v -5.660000 0.480000 0.000000
v -5.660000 0.480000 0.130000
v -5.600000 2.680000 0.000000
v -5.600000 2.680000 0.049500
v -5.600000 2.750000 0.000000
v -5.600000 2.750000 0.049500
v -5.600000 5.830000 0.000000
v -5.600000 5.830000 0.049500
v -5.600000 5.900000 0.000000
v -5.600000 5.900000 0.049500
v -5.600000 8.980000 0.000000
v -5.600000 8.980000 0.049500
v -5.600000 9.050000 0.000000
v -5.600000 9.050000 0.049500
v -4.865000 0.470000 0.000000
v -4.865000 0.470000 0.090000
v -4.865000 0.550000 0.000000
v -4.865000 0.550000 0.090000
v -4.865000 3.620000 0.000000
v -4.865000 3.620000 0.090000
v -4.865000 3.700000 0.000000
v -4.865000 3.700000 0.090000
v -4.865000 6.770000 0.000000
v -4.865000 6.770000 0.090000
v -4.865000 6.850000 0.000000
v -4.865000 6.850000 0.090000
v -4.225000 0.590000 -0.225000
v -4.225000 0.590000 -0.195000
v -4.225000 2.060000 -0.225000
v -4.225000 2.060000 -0.195000
v -4.225000 3.740000 -0.225000
v -4.225000 3.740000 -0.195000
v -4.225000 5.210000 -0.225000
v -4.225000 5.210000 -0.195000
v -4.225000 6.890000 -0.225000
v -4.225000 6.890000 -0.195000
v -4.225000 8.360000 -0.225000
v -4.225000 8.360000 -0.195000
v -4.175000 0.590000 -0.225000
v -4.175000 0.590000 -0.195000
v -4.175000 2.060000 -0.225000
v -4.175000 2.060000 -0.195000
v -4.175000 3.740000 -0.225000
v -4.175000 3.740000 -0.195000
v -4.175000 5.210000 -0.225000
v -4.175000 5.210000 -0.195000
v -4.175000 6.890000 -0.225000
v -4.175000 6.890000 -0.195000
v -4.175000 8.360000 -0.225000
v -4.175000 8.360000 -0.195000
v -3.535000 0.470000 0.000000
v -3.535000 0.470000 0.090000
v -3.535000 0.550000 0.000000
v -3.535000 0.550000 0.090000
v -3.535000 3.620000 0.000000
v -3.535000 3.620000 0.090000
v -3.535000 3.700000 0.000000
v -3.535000 3.700000 0.090000
v -3.535000 6.770000 0.000000
v -3.535000 6.770000 0.090000
v -3.535000 6.850000 0.000000
v -3.535000 6.850000 0.090000
v -2.065000 0.470000 0.000000
v -2.065000 0.470000 0.090000
v -2.065000 0.550000 0.000000
v -2.065000 0.550000 0.090000
v -2.065000 3.620000 0.000000
v -2.065000 3.620000 0.090000
v -2.065000 3.700000 0.000000
v -2.065000 3.700000 0.090000
v -2.065000 6.770000 0.000000
v -2.065000 6.770000 0.090000
v -2.065000 6.850000 0.000000
v -2.065000 6.850000 0.090000
v -1.425000 0.590000 -0.225000
v -1.425000 0.590000 -0.195000
v -1.425000 2.060000 -0.225000
v -1.425000 2.060000 -0.195000
v -1.425000 3.740000 -0.225000
v -1.425000 3.740000 -0.195000
v -1.425000 5.210000 -0.225000
v -1.425000 5.210000 -0.195000
v -1.425000 6.890000 -0.225000
v -1.425000 6.890000 -0.195000
v -1.425000 8.360000 -0.225000
v -1.425000 8.360000 -0.195000
v -1.375000 0.590000 -0.225000
v -1.375000 0.590000 -0.195000
v -1.375000 2.060000 -0.225000
v -1.375000 2.060000 -0.195000
v -1.375000 3.740000 -0.225000
v -1.375000 3.740000 -0.195000
v -1.375000 5.210000 -0.225000
v -1.375000 5.210000 -0.195000
v -1.375000 6.890000 -0.225000
v -1.375000 6.890000 -0.195000
v -1.375000 8.360000 -0.225000
v -1.375000 8.360000 -0.195000
v -0.735000 0.470000 0.000000
v -0.735000 0.470000 0.090000
v -0.735000 0.550000 0.000000
v -0.735000 0.550000 0.090000
v -0.735000 3.620000 0.000000
v -0.735000 3.620000 0.090000
v -0.735000 3.700000 0.000000
v -0.735000 3.700000 0.090000
v -0.735000 6.770000 0.000000
v -0.735000 6.770000 0.090000
v -0.735000 6.850000 0.000000
v -0.735000 6.850000 0.090000
v 0.605000 -0.380000 0.000000
v 0.605000 -0.380000 0.144000
v 0.605000 2.210000 0.000000
v 0.605000 2.210000 0.144000
v 0.735000 3.620000 0.000000
v 0.735000 3.620000 0.090000
v 0.735000 3.700000 0.000000
v 0.735000 3.700000 0.090000
v 0.735000 6.770000 0.000000
v 0.735000 6.770000 0.090000
v 0.735000 6.850000 0.000000
v 0.735000 6.850000 0.090000
v 1.375000 3.740000 -0.225000
v 1.375000 3.740000 -0.195000
v 1.375000 5.210000 -0.225000
v 1.375000 5.210000 -0.195000
v 1.375000 6.890000 -0.225000
v 1.375000 6.890000 -0.195000
v 1.375000 8.360000 -0.225000
v 1.375000 8.360000 -0.195000
v 1.425000 3.740000 -0.225000
v 1.425000 3.740000 -0.195000
v 1.425000 5.210000 -0.225000
v 1.425000 5.210000 -0.195000
v 1.425000 6.890000 -0.225000
v 1.425000 6.890000 -0.195000
v 1.425000 8.360000 -0.225000
v 1.425000 8.360000 -0.195000
v 2.065000 3.620000 0.000000
v 2.065000 3.620000 0.090000
v 2.065000 3.700000 0.000000
v 2.065000 3.700000 0.090000
v 2.065000 6.770000 0.000000
v 2.065000 6.770000 0.090000
v 2.065000 6.850000 0.000000
v 2.065000 6.850000 0.090000
v 2.195000 -0.380000 0.000000
v 2.195000 -0.380000 0.144000
v 2.195000 2.210000 0.000000
v 2.195000 2.210000 0.144000
v 3.535000 0.470000 0.000000
v 3.535000 0.470000 0.090000
v 3.535000 0.550000 0.000000
v 3.535000 0.550000 0.090000
v 3.535000 3.620000 0.000000
v 3.535000 3.620000 0.090000
v 3.535000 3.700000 0.000000
v 3.535000 3.700000 0.090000
v 3.535000 6.770000 0.000000
v 3.535000 6.770000 0.090000
v 3.535000 6.850000 0.000000
v 3.535000 6.850000 0.090000
v 4.175000 0.590000 -0.225000
v 4.175000 0.590000 -0.195000
v 4.175000 2.060000 -0.225000
v 4.175000 2.060000 -0.195000
v 4.175000 3.740000 -0.225000
v 4.175000 3.740000 -0.195000
v 4.175000 5.210000 -0.225000
v 4.175000 5.210000 -0.195000
v 4.175000 6.890000 -0.225000
v 4.175000 6.890000 -0.195000
v 4.175000 8.360000 -0.225000
v 4.175000 8.360000 -0.195000
v 4.225000 0.590000 -0.225000
v 4.225000 0.590000 -0.195000
v 4.225000 2.060000 -0.225000
v 4.225000 2.060000 -0.195000
v 4.225000 3.740000 -0.225000
v 4.225000 3.740000 -0.195000
v 4.225000 5.210000 -0.225000
v 4.225000 5.210000 -0.195000
v 4.225000 6.890000 -0.225000
v 4.225000 6.890000 -0.195000
v 4.225000 8.360000 -0.225000
v 4.225000 8.360000 -0.195000
v 4.865000 0.470000 0.000000
v 4.865000 0.470000 0.090000
v 4.865000 0.550000 0.000000
v 4.865000 0.550000 0.090000
v 4.865000 3.620000 0.000000
v 4.865000 3.620000 0.090000
v 4.865000 3.700000 0.000000
v 4.865000 3.700000 0.090000
v 4.865000 6.770000 0.000000
v 4.865000 6.770000 0.090000
v 4.865000 6.850000 0.000000
v 4.865000 6.850000 0.090000
v 5.600000 2.680000 0.000000
v 5.600000 2.680000 0.049500
v 5.600000 2.750000 0.000000
v 5.600000 2.750000 0.049500
v 5.600000 5.830000 0.000000
v 5.600000 5.830000 0.049500
v 5.600000 5.900000 0.000000
v 5.600000 5.900000 0.049500
v 5.600000 8.980000 0.000000
v 5.600000 8.980000 0.049500
v 5.600000 9.050000 0.000000
v 5.600000 9.050000 0.049500
v 5.660000 -0.400000 0.000000
v 5.660000 -0.400000 0.130000
v 5.660000 0.480000 0.000000
v 5.660000 0.480000 0.130000
v 5.700000 12.080000 0.000000
v 5.700000 12.080000 0.260000
v 5.700000 12.500000 0.000000
v 5.700000 12.500000 0.260000
vt -12.540000 -0.572000
vt -12.540000 0.000000
vt -12.540000 26.576000
vt -12.540000 27.500000
vt -12.452000 -0.880000
vt -12.452000 -0.286000
vt -12.452000 0.000000
vt -12.452000 1.056000
vt -12.320000 -0.108900
vt -12.320000 0.000000
vt -12.320000 5.896000
vt -12.320000 6.050000
vt -12.320000 12.826000
vt -12.320000 12.980000
vt -12.320000 19.755999
vt -12.320000 19.910000
vt -10.702999 -0.198000
vt -10.702999 0.000000
vt -10.702999 1.034000
vt -10.702999 1.210000
vt -10.702999 7.964000
vt -10.702999 8.140000
vt -10.702999 14.894000
vt -10.702999 15.070000
vt -9.295000 0.429000
vt -9.295000 0.495000
vt -9.295000 1.298000
vt -9.295000 4.532000
vt -9.295000 8.228000
vt -9.295000 11.462000
vt -9.295000 15.158000
vt -9.295000 18.391998
vt -9.185000 0.429000
vt -9.185000 0.495000
vt -9.185000 1.298000
vt -9.185000 4.532000
vt -9.185000 8.228000
vt -9.185000 11.462000
vt -9.185000 15.158000
vt -9.185000 18.391998
vt -7.777000 -0.198000
vt -7.777000 0.000000
vt -7.777000 1.034000
vt -7.777000 1.210000
vt -7.777000 7.964000
vt -7.777000 8.140000
vt -7.777000 14.894000
vt -7.777000 15.070000
vt -4.543000 -0.198000
vt -4.543000 0.000000
vt -4.543000 1.034000
vt -4.543000 1.210000
vt -4.543000 7.964000
vt -4.543000 8.140000
vt -4.543000 14.894000
vt -4.543000 15.070000
vt -3.135000 0.429000
vt -3.135000 0.495000
vt -3.135000 1.298000
vt -3.135000 4.532000
vt -3.135000 8.228000
vt -3.135000 11.462000
vt -3.135000 15.158000
vt -3.135000 18.391998
vt -3.025000 0.429000
vt -3.025000 0.495000
vt -3.025000 1.298000
vt -3.025000 4.532000
vt -3.025000 8.228000
vt -3.025000 11.462000
vt -3.025000 15.158000
vt -3.025000 18.391998
vt -1.617000 -0.198000
vt -1.617000 0.000000
vt -1.617000 1.034000
vt -1.617000 1.210000
vt -1.617000 7.964000
vt -1.617000 8.140000
vt -1.617000 14.894000
vt -1.617000 15.070000
vt -0.572000 26.576000
vt -0.572000 27.500000
vt -0.316800 -0.836000
vt -0.316800 4.862000
vt -0.286000 -0.880000
vt -0.286000 1.056000
vt -0.198000 1.034000
vt -0.198000 1.210000
vt -0.198000 7.964000
vt -0.198000 8.140000
vt -0.198000 14.894000
vt -0.198000 15.070000
vt -0.108900 5.896000
vt -0.108900 6.050000
vt -0.108900 12.826000
vt -0.108900 12.980000
vt -0.108900 19.755999
vt -0.108900 19.910000
vt 0.000000 -0.880000
vt 0.000000 -0.836000
vt 0.000000 1.034000
vt 0.000000 1.056000
vt 0.000000 1.210000
vt 0.000000 4.862000
vt 0.000000 5.896000
vt 0.000000 6.050000
vt 0.000000 7.964000
vt 0.000000 8.140000
vt 0.000000 12.826000
vt 0.000000 12.980000
vt 0.000000 14.894000
vt 0.000000 15.070000
vt 0.000000 19.755999
vt 0.000000 19.910000
vt 0.000000 26.576000
vt 0.000000 27.500000
vt 0.429000 1.298000
vt 0.429000 4.532000
vt 0.429000 8.228000
vt 0.429000 11.462000
vt 0.429000 15.158000
vt 0.429000 18.391998
vt 0.495000 1.298000
vt 0.495000 4.532000
vt 0.495000 8.228000
vt 0.495000 11.462000
vt 0.495000 15.158000
vt 0.495000 18.391998
vt 1.331000 -0.836000
vt 1.331000 -0.316800
vt 1.331000 0.000000
vt 1.331000 4.862000
vt 1.617000 -0.198000
vt 1.617000 0.000000
vt 1.617000 7.964000
vt 1.617000 8.140000
vt 1.617000 14.894000
vt 1.617000 15.070000
vt 3.025000 0.429000
vt 3.025000 0.495000
vt 3.025000 8.228000
vt 3.025000 11.462000
vt 3.025000 15.158000
vt 3.025000 18.391998
vt 3.135000 0.429000
vt 3.135000 0.495000
vt 3.135000 8.228000
vt 3.135000 11.462000
vt 3.135000 15.158000
vt 3.135000 18.391998
vt 4.543000 -0.198000
vt 4.543000 0.000000
vt 4.543000 7.964000
vt 4.543000 8.140000
vt 4.543000 14.894000
vt 4.543000 15.070000
vt 4.829000 -0.836000
vt 4.829000 -0.316800
vt 4.829000 0.000000
vt 4.829000 4.862000
vt 7.777000 -0.198000
vt 7.777000 0.000000
vt 7.777000 1.034000
vt 7.777000 1.210000
vt 7.777000 7.964000
vt 7.777000 8.140000
vt 7.777000 14.894000
vt 7.777000 15.070000
vt 9.185000 0.429000
vt 9.185000 0.495000
vt 9.185000 1.298000
vt 9.185000 4.532000
vt 9.185000 8.228000
vt 9.185000 11.462000
vt 9.185000 15.158000
vt 9.185000 18.391998
vt 9.295000 0.429000
vt 9.295000 0.495000
vt 9.295000 1.298000
vt 9.295000 4.532000
vt 9.295000 8.228000
vt 9.295000 11.462000
vt 9.295000 15.158000
vt 9.295000 18.391998
vt 10.702999 -0.198000
vt 10.702999 0.000000
vt 10.702999 1.034000
vt 10.702999 1.210000
vt 10.702999 7.964000
vt 10.702999 8.140000
vt 10.702999 14.894000
vt 10.702999 15.070000
vt 12.320000 -0.108900
vt 12.320000 0.000000
vt 12.320000 5.896000
vt 12.320000 6.050000
vt 12.320000 12.826000
vt 12.320000 12.980000
vt 12.320000 19.755999
vt 12.320000 19.910000
vt 12.452000 -0.880000
vt 12.452000 -0.286000
vt 12.452000 0.000000
vt 12.452000 1.056000
vt 12.540000 -0.572000
vt 12.540000 0.000000
vt 12.540000 26.576000
vt 12.540000 27.500000
vn -1.000000 0.000000 0.000000
vn 0.000000 -1.000000 0.000000
vn 0.000000 0.000000 -1.000000
vn 0.000000 0.000000 1.000000
vn 0.000000 1.000000 0.000000
vn 1.000000 0.000000 0.000000
usemtl TrimStone
f 1/2/2 221/206/2 2/1/2
f 1/3/3 3/4/3 223/208/3
f 1/3/3 223/208/3 221/207/3
f 1/115/1 2/81/1 3/116/1
f 2/1/2 221/206/2 222/205/2
f 2/3/4 222/207/4 224/208/4
f 2/3/4 224/208/4 4/4/4
f 2/81/1 4/82/1 3/116/1
f 3/2/5 4/1/5 223/206/5
f 4/1/5 224/205/5 223/206/5
f 5/5/3 7/8/3 219/204/3
f 5/5/3 219/204/3 217/201/3
f 5/7/2 217/203/2 6/6/2
f 5/99/1 6/85/1 7/102/1
f 6/5/4 218/201/4 220/204/4
f 6/5/4 220/204/4 8/8/4
f 6/6/2 217/203/2 218/202/2
f 6/85/1 8/86/1 7/102/1
f 7/7/5 8/6/5 219/203/5
f 8/6/5 220/202/5 219/203/5
f 9/10/2 205/194/2 10/9/2
f 9/11/3 11/12/3 207/196/3
f 9/11/3 207/196/3 205/195/3
f 9/105/1 10/93/1 11/106/1
f 10/9/2 205/194/2 206/193/2
f 10/11/4 206/195/4 208/196/4
f 10/11/4 208/196/4 12/12/4
f 10/93/1 12/94/1 11/106/1
f 11/10/5 12/9/5 207/194/5
f 12/9/5 208/193/5 207/194/5
f 13/10/2 209/194/2 14/9/2
f 13/13/3 15/14/3 211/198/3
f 13/13/3 211/198/3 209/197/3
f 13/109/1 14/95/1 15/110/1
f 14/9/2 209/194/2 210/193/2
f 14/13/4 210/197/4 212/198/4
f 14/13/4 212/198/4 16/14/4
f 14/95/1 16/96/1 15/110/1
f 15/10/5 16/9/5 211/194/5
f 16/9/5 212/193/5 211/194/5
f 17/10/2 213/194/2 18/9/2
f 17/15/3 19/16/3 215/200/3
f 17/15/3 215/200/3 213/199/3
f 17/113/1 18/97/1 19/114/1
f 18/9/2 213/194/2 214/193/2
f 18/15/4 214/199/4 216/200/4
f 18/15/4 216/200/4 20/16/4
f 18/97/1 20/98/1 19/114/1
f 19/10/5 20/9/5 215/194/5
f 20/9/5 216/193/5 215/194/5
f 21/18/2 57/42/2 22/17/2
f 21/19/3 23/20/3 59/44/3
f 21/19/3 59/44/3 57/43/3
f 21/101/1 22/87/1 23/103/1
f 22/17/2 57/42/2 58/41/2
f 22/19/4 58/43/4 60/44/4
f 22/19/4 60/44/4 24/20/4
f 22/87/1 24/88/1 23/103/1
f 23/18/5 24/17/5 59/42/5
f 24/17/5 60/41/5 59/42/5
f 25/18/2 61/42/2 26/17/2
f 25/21/3 27/22/3 63/46/3
f 25/21/3 63/46/3 61/45/3
f 25/107/1 26/89/1 27/108/1
f 26/17/2 61/42/2 62/41/2
f 26/21/4 62/45/4 64/46/4
f 26/21/4 64/46/4 28/22/4
f 26/89/1 28/90/1 27/108/1
f 27/18/5 28/17/5 63/42/5
f 28/17/5 64/41/5 63/42/5
f 29/18/2 65/42/2 30/17/2
f 29/23/3 31/24/3 67/48/3
f 29/23/3 67/48/3 65/47/3
f 29/111/1 30/91/1 31/112/1
f 30/17/2 65/42/2 66/41/2
f 30/23/4 66/47/4 68/48/4
f 30/23/4 68/48/4 32/24/4
f 30/91/1 32/92/1 31/112/1
f 31/18/5 32/17/5 67/42/5
f 32/17/5 68/41/5 67/42/5
f 33/26/2 45/34/2 34/25/2
f 33/27/3 35/28/3 47/36/3
f 33/27/3 47/36/3 45/35/3
f 33/123/1 34/117/1 35/124/1
f 34/25/2 45/34/2 46/33/2
f 34/27/4 46/35/4 48/36/4
f 34/27/4 48/36/4 36/28/4
f 34/117/1 36/118/1 35/124/1
f 35/26/5 36/25/5 47/34/5
f 36/25/5 48/33/5 47/34/5
f 37/26/2 49/34/2 38/25/2
f 37/29/3 39/30/3 51/38/3
f 37/29/3 51/38/3 49/37/3
f 37/125/1 38/119/1 39/126/1
f 38/25/2 49/34/2 50/33/2
f 38/29/4 50/37/4 52/38/4
f 38/29/4 52/38/4 40/30/4
f 38/119/1 40/120/1 39/126/1
f 39/26/5 40/25/5 51/34/5
f 40/25/5 52/33/5 51/34/5
f 41/26/2 53/34/2 42/25/2
f 41/31/3 43/32/3 55/40/3
f 41/31/3 55/40/3 53/39/3
f 41/127/1 42/121/1 43/128/1
f 42/25/2 53/34/2 54/33/2
f 42/31/4 54/39/4 56/40/4
f 42/31/4 56/40/4 44/32/4
f 42/121/1 44/122/1 43/128/1
f 43/26/5 44/25/5 55/34/5
f 44/25/5 56/33/5 55/34/5
f 45/123/6 47/124/6 46/117/6
f 46/117/6 47/124/6 48/118/6
f 49/125/6 51/126/6 50/119/6
f 50/119/6 51/126/6 52/120/6
f 53/127/6 55/128/6 54/121/6
f 54/121/6 55/128/6 56/122/6
f 57/101/6 59/103/6 58/87/6
f 58/87/6 59/103/6 60/88/6
f 61/107/6 63/108/6 62/89/6
f 62/89/6 63/108/6 64/90/6
f 65/111/6 67/112/6 66/91/6
f 66/91/6 67/112/6 68/92/6
f 69/50/2 105/74/2 70/49/2
f 69/51/3 71/52/3 107/76/3
f 69/51/3 107/76/3 105/75/3
f 69/101/1 70/87/1 71/103/1
f 70/49/2 105/74/2 106/73/2
f 70/51/4 106/75/4 108/76/4
f 70/51/4 108/76/4 72/52/4
f 70/87/1 72/88/1 71/103/1
f 71/50/5 72/49/5 107/74/5
f 72/49/5 108/73/5 107/74/5
f 73/50/2 109/74/2 74/49/2
f 73/53/3 75/54/3 111/78/3
f 73/53/3 111/78/3 109/77/3
f 73/107/1 74/89/1 75/108/1
f 74/49/2 109/74/2 110/73/2
f 74/53/4 110/77/4 112/78/4
f 74/53/4 112/78/4 76/54/4
f 74/89/1 76/90/1 75/108/1
f 75/50/5 76/49/5 111/74/5
f 76/49/5 112/73/5 111/74/5
f 77/50/2 113/74/2 78/49/2
f 77/55/3 79/56/3 115/80/3
f 77/55/3 115/80/3 113/79/3
f 77/111/1 78/91/1 79/112/1
f 78/49/2 113/74/2 114/73/2
f 78/55/4 114/79/4 116/80/4
f 78/55/4 116/80/4 80/56/4
f 78/91/1 80/92/1 79/112/1
f 79/50/5 80/49/5 115/74/5
f 80/49/5 116/73/5 115/74/5
f 81/58/2 93/66/2 82/57/2
f 81/59/3 83/60/3 95/68/3
f 81/59/3 95/68/3 93/67/3
f 81/123/1 82/117/1 83/124/1
f 82/57/2 93/66/2 94/65/2
f 82/59/4 94/67/4 96/68/4
f 82/59/4 96/68/4 84/60/4
f 82/117/1 84/118/1 83/124/1
f 83/58/5 84/57/5 95/66/5
f 84/57/5 96/65/5 95/66/5
f 85/58/2 97/66/2 86/57/2
f 85/61/3 87/62/3 99/70/3
f 85/61/3 99/70/3 97/69/3
f 85/125/1 86/119/1 87/126/1
f 86/57/2 97/66/2 98/65/2
f 86/61/4 98/69/4 100/70/4
f 86/61/4 100/70/4 88/62/4
f 86/119/1 88/120/1 87/126/1
f 87/58/5 88/57/5 99/66/5
f 88/57/5 100/65/5 99/66/5
f 89/58/2 101/66/2 90/57/2
f 89/63/3 91/64/3 103/72/3
f 89/63/3 103/72/3 101/71/3
f 89/127/1 90/121/1 91/128/1
f 90/57/2 101/66/2 102/65/2
f 90/63/4 102/71/4 104/72/4
f 90/63/4 104/72/4 92/64/4
f 90/121/1 92/122/1 91/128/1
f 91/58/5 92/57/5 103/66/5
f 92/57/5 104/65/5 103/66/5
f 93/123/6 95/124/6 94/117/6
f 94/117/6 95/124/6 96/118/6
f 97/125/6 99/126/6 98/119/6
f 98/119/6 99/126/6 100/120/6
f 101/127/6 103/128/6 102/121/6
f 102/121/6 103/128/6 104/122/6
f 105/101/6 107/103/6 106/87/6
f 106/87/6 107/103/6 108/88/6
f 109/107/6 111/108/6 110/89/6
f 110/89/6 111/108/6 112/90/6
f 113/111/6 115/112/6 114/91/6
f 114/91/6 115/112/6 116/92/6
f 117/100/1 118/83/1 119/104/1
f 117/129/3 119/132/3 155/160/3
f 117/129/3 155/160/3 153/157/3
f 117/131/2 153/159/2 118/130/2
f 118/83/1 120/84/1 119/104/1
f 118/129/4 154/157/4 156/160/4
f 118/129/4 156/160/4 120/132/4
f 118/130/2 153/159/2 154/158/2
f 119/131/5 120/130/5 155/159/5
f 120/130/5 156/158/5 155/159/5
f 121/107/1 122/89/1 123/108/1
f 121/134/2 145/152/2 122/133/2
f 121/135/3 123/136/3 147/154/3
f 121/135/3 147/154/3 145/153/3
f 122/89/1 124/90/1 123/108/1
f 122/133/2 145/152/2 146/151/2
f 122/135/4 146/153/4 148/154/4
f 122/135/4 148/154/4 124/136/4
f 123/134/5 124/133/5 147/152/5
f 124/133/5 148/151/5 147/152/5
f 125/111/1 126/91/1 127/112/1
f 125/134/2 149/152/2 126/133/2
f 125/137/3 127/138/3 151/156/3
f 125/137/3 151/156/3 149/155/3
f 126/91/1 128/92/1 127/112/1
f 126/133/2 149/152/2 150/151/2
f 126/137/4 150/155/4 152/156/4
f 126/137/4 152/156/4 128/138/4
f 127/134/5 128/133/5 151/152/5
f 128/133/5 152/151/5 151/152/5
f 129/125/1 130/119/1 131/126/1
f 129/140/2 137/146/2 130/139/2
f 129/141/3 131/142/3 139/148/3
f 129/141/3 139/148/3 137/147/3
f 130/119/1 132/120/1 131/126/1
f 130/139/2 137/146/2 138/145/2
f 130/141/4 138/147/4 140/148/4
f 130/141/4 140/148/4 132/142/4
f 131/140/5 132/139/5 139/146/5
f 132/139/5 140/145/5 139/146/5
f 133/127/1 134/121/1 135/128/1
f 133/140/2 141/146/2 134/139/2
f 133/143/3 135/144/3 143/150/3
f 133/143/3 143/150/3 141/149/3
f 134/121/1 136/122/1 135/128/1
f 134/139/2 141/146/2 142/145/2
f 134/143/4 142/149/4 144/150/4
f 134/143/4 144/150/4 136/144/4
f 135/140/5 136/139/5 143/146/5
f 136/139/5 144/145/5 143/146/5
f 137/125/6 139/126/6 138/119/6
f 138/119/6 139/126/6 140/120/6
f 141/127/6 143/128/6 142/121/6
f 142/121/6 143/128/6 144/122/6
f 145/107/6 147/108/6 146/89/6
f 146/89/6 147/108/6 148/90/6
f 149/111/6 151/112/6 150/91/6
f 150/91/6 151/112/6 152/92/6
f 153/100/6 155/104/6 154/83/6
f 154/83/6 155/104/6 156/84/6
f 157/101/1 158/87/1 159/103/1
f 157/162/2 193/186/2 158/161/2
f 157/163/3 159/164/3 195/188/3
f 157/163/3 195/188/3 193/187/3
f 158/87/1 160/88/1 159/103/1
f 158/161/2 193/186/2 194/185/2
f 158/163/4 194/187/4 196/188/4
f 158/163/4 196/188/4 160/164/4
f 159/162/5 160/161/5 195/186/5
f 160/161/5 196/185/5 195/186/5
f 161/107/1 162/89/1 163/108/1
f 161/162/2 197/186/2 162/161/2
f 161/165/3 163/166/3 199/190/3
f 161/165/3 199/190/3 197/189/3
f 162/89/1 164/90/1 163/108/1
f 162/161/2 197/186/2 198/185/2
f 162/165/4 198/189/4 200/190/4
f 162/165/4 200/190/4 164/166/4
f 163/162/5 164/161/5 199/186/5
f 164/161/5 200/185/5 199/186/5
f 165/111/1 166/91/1 167/112/1
f 165/162/2 201/186/2 166/161/2
f 165/167/3 167/168/3 203/192/3
f 165/167/3 203/192/3 201/191/3
f 166/91/1 168/92/1 167/112/1
f 166/161/2 201/186/2 202/185/2
f 166/167/4 202/191/4 204/192/4
f 166/167/4 204/192/4 168/168/4
f 167/162/5 168/161/5 203/186/5
f 168/161/5 204/185/5 203/186/5
f 169/123/1 170/117/1 171/124/1
f 169/170/2 181/178/2 170/169/2
f 169/171/3 171/172/3 183/180/3
f 169/171/3 183/180/3 181/179/3
f 170/117/1 172/118/1 171/124/1
f 170/169/2 181/178/2 182/177/2
f 170/171/4 182/179/4 184/180/4
f 170/171/4 184/180/4 172/172/4
f 171/170/5 172/169/5 183/178/5
f 172/169/5 184/177/5 183/178/5
f 173/125/1 174/119/1 175/126/1
f 173/170/2 185/178/2 174/169/2
f 173/173/3 175/174/3 187/182/3
f 173/173/3 187/182/3 185/181/3
f 174/119/1 176/120/1 175/126/1
f 174/169/2 185/178/2 186/177/2
f 174/173/4 186/181/4 188/182/4
f 174/173/4 188/182/4 176/174/4
f 175/170/5 176/169/5 187/178/5
f 176/169/5 188/177/5 187/178/5
f 177/127/1 178/121/1 179/128/1
f 177/170/2 189/178/2 178/169/2
f 177/175/3 179/176/3 191/184/3
f 177/175/3 191/184/3 189/183/3
f 178/121/1 180/122/1 179/128/1
f 178/169/2 189/178/2 190/177/2
f 178/175/4 190/183/4 192/184/4
f 178/175/4 192/184/4 180/176/4
f 179/170/5 180/169/5 191/178/5
f 180/169/5 192/177/5 191/178/5
f 181/123/6 183/124/6 182/117/6
f 182/117/6 183/124/6 184/118/6
f 185/125/6 187/126/6 186/119/6
f 186/119/6 187/126/6 188/120/6
f 189/127/6 191/128/6 190/121/6
f 190/121/6 191/128/6 192/122/6
f 193/101/6 195/103/6 194/87/6
f 194/87/6 195/103/6 196/88/6
f 197/107/6 199/108/6 198/89/6
f 198/89/6 199/108/6 200/90/6
f 201/111/6 203/112/6 202/91/6
f 202/91/6 203/112/6 204/92/6
f 205/105/6 207/106/6 206/93/6
f 206/93/6 207/106/6 208/94/6
f 209/109/6 211/110/6 210/95/6
f 210/95/6 211/110/6 212/96/6
f 213/113/6 215/114/6 214/97/6
f 214/97/6 215/114/6 216/98/6
f 217/99/6 219/102/6 218/85/6
f 218/85/6 219/102/6 220/86/6
f 221/115/6 223/116/6 222/81/6
f 222/81/6 223/116/6 224/82/6
