# exported by ae3d_export.py v3
# object: Street_BlockL5_Coping
mtllib Street_BlockL5_Coping.mtl
v -1.301921 0.015000 -0.565000
v -1.301921 0.015000 0.245000
v -1.301921 0.105000 -0.565000
v -1.301921 0.105000 0.245000
v -1.297528 0.004393 -0.565000
v -1.297528 0.004393 0.245000
v -1.297528 0.015000 -0.575607
v -1.297528 0.015000 0.255607
v -1.297528 0.105000 -0.575607
v -1.297528 0.105000 0.255607
v -1.297528 0.115607 -0.565000
v -1.297528 0.115607 0.245000
v -1.295581 0.006340 -0.573660
v -1.295581 0.006340 0.253660
v -1.295581 0.113660 -0.573660
v -1.295581 0.113660 0.253660
v -1.286921 0.000000 -0.565000
v -1.286921 0.000000 0.245000
v -1.286921 0.004393 -0.575607
v -1.286921 0.004393 0.255607
v -1.286921 0.015000 -0.580000
v -1.286921 0.015000 0.260000
v -1.286921 0.105000 -0.580000
v -1.286921 0.105000 0.260000
v -1.286921 0.115607 -0.575607
v -1.286921 0.115607 0.255607
v -1.286921 0.120000 -0.565000
v -1.286921 0.120000 0.245000
v 1.286921 0.000000 -0.565000
v 1.286921 0.000000 0.245000
v 1.286921 0.004393 -0.575607
v 1.286921 0.004393 0.255607
v 1.286921 0.015000 -0.580000
v 1.286921 0.015000 0.260000
v 1.286921 0.105000 -0.580000
v 1.286921 0.105000 0.260000
v 1.286921 0.115607 -0.575607
v 1.286921 0.115607 0.255607
v 1.286921 0.120000 -0.565000
v 1.286921 0.120000 0.245000
v 1.295581 0.006340 -0.573660
v 1.295581 0.006340 0.253660
v 1.295581 0.113660 -0.573660
v 1.295581 0.113660 0.253660
v 1.297528 0.004393 -0.565000
v 1.297528 0.004393 0.245000
v 1.297528 0.015000 -0.575607
v 1.297528 0.015000 0.255607
v 1.297528 0.105000 -0.575607
v 1.297528 0.105000 0.255607
v 1.297528 0.115607 -0.565000
v 1.297528 0.115607 0.245000
v 1.301921 0.015000 -0.565000
v 1.301921 0.015000 0.245000
v 1.301921 0.105000 -0.565000
v 1.301921 0.105000 0.245000
vt -2.854561 -0.539000
vt -2.854561 0.033000
vt -2.854561 0.231000
vt -2.854561 1.243000
vt -2.850279 -0.558053
vt -2.850279 0.013947
vt -2.850279 0.250053
vt -2.850279 1.262053
vt -2.831227 -0.562335
vt -2.831227 -0.539000
vt -2.831227 0.009665
vt -2.831227 0.033000
vt -2.831227 0.231000
vt -2.831227 0.254335
vt -2.831227 1.243000
vt -2.831227 1.266335
vt -0.562335 0.033000
vt -0.562335 0.231000
vt -0.558053 0.013947
vt -0.558053 0.250053
vt -0.539000 0.009665
vt -0.539000 0.033000
vt -0.539000 0.231000
vt -0.539000 0.254335
vt 1.243000 0.009665
vt 1.243000 0.033000
vt 1.243000 0.231000
vt 1.243000 0.254335
vt 1.262053 0.013947
vt 1.262053 0.250053
vt 1.266335 0.033000
vt 1.266335 0.231000
vt 2.831227 -0.562335
vt 2.831227 -0.539000
vt 2.831227 0.009665
vt 2.831227 0.033000
vt 2.831227 0.231000
vt 2.831227 0.254335
vt 2.831227 1.243000
vt 2.831227 1.266335
vt 2.850279 -0.558053
vt 2.850279 0.013947
vt 2.850279 0.250053
vt 2.850279 1.262053
vt 2.854561 -0.539000
vt 2.854561 0.033000
vt 2.854561 0.231000
vt 2.854561 1.243000
vn -1.000000 0.000000 0.000000
vn -0.923881 -0.382679 0.000000
vn -0.923881 0.000000 -0.382679
vn -0.923881 0.000000 0.382680
vn -0.923881 0.382679 0.000000
vn -0.888074 0.325058 -0.325058
vn -0.888073 -0.325058 0.325058
vn -0.888073 -0.325057 -0.325060
vn -0.888073 0.325059 0.325058
vn -0.382683 0.923880 0.000000
vn -0.382682 -0.923880 0.000000
vn -0.382680 0.000000 0.923881
vn -0.382678 0.000000 -0.923882
vn -0.325059 0.888074 0.325056
vn -0.325058 -0.888074 0.325058
vn -0.325058 0.888074 -0.325056
vn -0.325057 -0.888074 -0.325058
vn -0.325057 -0.325061 0.888073
vn -0.325055 -0.325058 -0.888074
vn -0.325055 0.325059 0.888074
vn -0.325053 0.325058 -0.888075
vn 0.000000 -1.000000 0.000000
vn 0.000000 -0.923880 -0.382681
vn 0.000000 -0.923880 0.382682
vn 0.000000 -0.382681 0.923880
vn 0.000000 -0.382678 -0.923882
vn 0.000000 0.000000 -1.000000
vn 0.000000 0.000000 1.000000
vn 0.000000 0.382678 -0.923882
vn 0.000000 0.382681 0.923880
vn 0.000000 0.923880 -0.382682
vn 0.000000 0.923880 0.382683
vn 0.000000 1.000000 0.000000
vn 0.325053 0.325055 -0.888076
vn 0.325055 -0.325059 -0.888074
vn 0.325056 0.325060 0.888074
vn 0.325057 -0.888074 -0.325058
vn 0.325058 -0.888074 0.325058
vn 0.325058 -0.325061 0.888072
vn 0.325058 0.888074 -0.325056
vn 0.325059 0.888074 0.325056
vn 0.382678 0.000000 -0.923882
vn 0.382680 0.000000 0.923881
vn 0.382682 -0.923880 0.000000
vn 0.382683 0.923880 0.000000
vn 0.888073 -0.325058 0.325060
vn 0.888073 0.325059 0.325058
vn 0.888074 -0.325058 -0.325058
vn 0.888074 0.325058 -0.325058
vn 0.923881 -0.382679 0.000000
vn 0.923881 0.000000 -0.382679
vn 0.923881 0.000000 0.382680
vn 0.923881 0.382679 0.000000
vn 1.000000 0.000000 0.000000
usemtl TrimStone
f 1/26/1 2/22/1 4/23/1
f 1/26/1 4/23/1 3/27/1
f 1/26/2 5/25/2 6/21/2
f 1/26/2 6/21/2 2/22/2
f 1/26/3 3/27/3 9/32/3
f 1/26/3 9/32/3 7/31/3
f 1/26/8 7/31/8 13/29/8
f 1/26/8 13/29/8 5/25/8
f 2/22/4 8/17/4 10/18/4
f 2/22/4 10/18/4 4/23/4
f 2/22/7 6/21/7 14/19/7
f 2/22/7 14/19/7 8/17/7
f 3/27/5 4/23/5 12/24/5
f 3/27/5 12/24/5 11/28/5
f 3/27/6 11/28/6 15/30/6
f 3/27/6 15/30/6 9/32/6
f 4/23/9 10/18/9 16/20/9
f 4/23/9 16/20/9 12/24/9
f 5/4/11 17/15/11 6/1/11
f 5/4/17 13/8/17 17/15/17
f 6/1/11 17/15/11 18/10/11
f 6/1/15 18/10/15 14/5/15
f 7/2/13 9/3/13 21/12/13
f 7/2/19 21/12/19 13/6/19
f 8/2/12 22/12/12 10/3/12
f 8/2/18 14/6/18 22/12/18
f 9/3/13 23/13/13 21/12/13
f 9/3/21 15/7/21 23/13/21
f 10/3/12 22/12/12 24/13/12
f 10/3/20 24/13/20 16/7/20
f 11/4/10 12/1/10 27/15/10
f 11/4/16 27/15/16 15/8/16
f 12/1/10 28/10/10 27/15/10
f 12/1/14 16/5/14 28/10/14
f 13/6/19 21/12/19 19/11/19
f 13/8/17 19/16/17 17/15/17
f 14/5/15 18/10/15 20/9/15
f 14/6/18 20/11/18 22/12/18
f 15/7/21 25/14/21 23/13/21
f 15/8/16 27/15/16 25/16/16
f 16/5/14 26/9/14 28/10/14
f 16/7/20 24/13/20 26/14/20
f 17/15/22 29/39/22 18/10/22
f 17/15/23 19/16/23 29/39/23
f 18/10/22 29/39/22 30/34/22
f 18/10/24 30/34/24 32/33/24
f 18/10/24 32/33/24 20/9/24
f 19/11/26 21/12/26 31/35/26
f 19/16/23 31/40/23 29/39/23
f 20/11/25 32/35/25 34/36/25
f 20/11/25 34/36/25 22/12/25
f 21/12/26 33/36/26 31/35/26
f 21/12/27 23/13/27 33/36/27
f 22/12/28 34/36/28 36/37/28
f 22/12/28 36/37/28 24/13/28
f 23/13/27 35/37/27 33/36/27
f 23/13/29 25/14/29 35/37/29
f 24/13/30 36/37/30 38/38/30
f 24/13/30 38/38/30 26/14/30
f 25/14/29 37/38/29 35/37/29
f 25/16/31 27/15/31 37/40/31
f 26/9/32 38/33/32 40/34/32
f 26/9/32 40/34/32 28/10/32
f 27/15/31 39/39/31 37/40/31
f 27/15/33 28/10/33 39/39/33
f 28/10/33 40/34/33 39/39/33
f 29/39/37 31/40/37 41/44/37
f 29/39/37 41/44/37 45/48/37
f 29/39/44 45/48/44 46/45/44
f 29/39/44 46/45/44 30/34/44
f 30/34/38 42/41/38 32/33/38
f 30/34/38 46/45/38 42/41/38
f 31/35/35 33/36/35 41/42/35
f 32/35/39 42/42/39 34/36/39
f 33/36/35 47/46/35 41/42/35
f 33/36/42 35/37/42 49/47/42
f 33/36/42 49/47/42 47/46/42
f 34/36/39 42/42/39 48/46/39
f 34/36/43 48/46/43 50/47/43
f 34/36/43 50/47/43 36/37/43
f 35/37/34 37/38/34 43/43/34
f 35/37/34 43/43/34 49/47/34
f 36/37/36 44/43/36 38/38/36
f 36/37/36 50/47/36 44/43/36
f 37/40/40 39/39/40 43/44/40
f 38/33/41 44/41/41 40/34/41
f 39/39/40 51/48/40 43/44/40
f 39/39/45 40/34/45 52/45/45
f 39/39/45 52/45/45 51/48/45
f 40/34/41 44/41/41 52/45/41
f 41/29/48 47/31/48 53/26/48
f 41/29/48 53/26/48 45/25/48
f 42/19/46 46/21/46 54/22/46
f 42/19/46 54/22/46 48/17/46
f 43/30/49 51/28/49 55/27/49
f 43/30/49 55/27/49 49/32/49
f 44/20/47 50/18/47 56/23/47
f 44/20/47 56/23/47 52/24/47
f 45/25/50 53/26/50 46/21/50
f 46/21/50 53/26/50 54/22/50
f 47/31/51 49/32/51 53/26/51
f 48/17/52 54/22/52 50/18/52
f 49/32/51 55/27/51 53/26/51
f 50/18/52 54/22/52 56/23/52
f 51/28/53 52/24/53 55/27/53
f 52/24/53 56/23/53 55/27/53
f 53/26/54 55/27/54 54/22/54
f 54/22/54 55/27/54 56/23/54
