# exported by ae3d_export.py v3
# object: Street_BinLid13
mtllib Street_BinLid13.mtl
v -0.300967 0.023311 -0.341585
v -0.300967 0.023311 0.341585
v -0.300281 0.006979 -0.350514
v -0.300281 0.006979 0.350514
v -0.295361 0.009698 -0.364332
v -0.295361 0.009698 0.364332
v -0.293042 0.022946 -0.360607
v -0.293042 0.022946 0.360607
v -0.288033 0.056689 -0.325730
v -0.288033 0.056689 0.325730
v -0.285000 0.000000 -0.355000
v -0.285000 0.000000 0.355000
v -0.281752 0.006463 -0.370093
v -0.281752 0.006463 0.370093
v -0.278778 0.060554 -0.343229
v -0.278778 0.060554 0.343229
v -0.274762 0.022582 -0.369274
v -0.274762 0.022582 0.369274
v -0.274323 0.073172 -0.321365
v -0.274323 0.073172 0.321365
v -0.271973 0.071029 -0.335677
v -0.271973 0.071029 0.335677
v -0.261263 0.057418 -0.352726
v -0.261263 0.057418 0.352726
v -0.257632 0.073386 -0.337819
v -0.257632 0.073386 0.337819
v -0.254000 0.080000 -0.317000
v -0.254000 0.080000 0.317000
v 0.254000 0.080000 -0.317000
v 0.254000 0.080000 0.317000
v 0.257632 0.073386 -0.337819
v 0.257632 0.073386 0.337819
v 0.261263 0.057418 -0.352726
v 0.261263 0.057418 0.352726
v 0.271972 0.071029 0.335677
v 0.271973 0.071029 -0.335677
v 0.274323 0.073172 -0.321365
v 0.274323 0.073172 0.321365
v 0.274762 0.022582 -0.369274
v 0.274762 0.022582 0.369274
v 0.278778 0.060554 -0.343229
v 0.278778 0.060554 0.343229
v 0.281752 0.006463 -0.370093
v 0.281752 0.006463 0.370093
v 0.285000 0.000000 -0.355000
v 0.285000 0.000000 0.355000
v 0.288033 0.056689 -0.325730
v 0.288033 0.056689 0.325730
v 0.293042 0.022946 -0.360607
v 0.293042 0.022946 0.360607
v 0.295361 0.009698 -0.364332
v 0.295361 0.009698 0.364332
v 0.300281 0.006979 -0.350514
v 0.300281 0.006979 0.350514
v 0.300967 0.023311 -0.341585
v 0.300967 0.023311 0.341585
vt -0.582931 0.015517
vt -0.576971 0.036714
vt -0.560822 0.011166
vt -0.549166 0.096886
vt -0.546536 0.037298
vt -0.537083 0.113646
vt -0.521169 0.090702
vt -0.514184 0.117076
vt -0.480450 -0.560822
vt -0.480450 0.560822
vt -0.472578 -0.582931
vt -0.472578 0.015517
vt -0.472578 0.582931
vt -0.468868 0.036714
vt -0.456000 -0.568000
vt -0.456000 0.568000
vt -0.450803 -0.592149
vt -0.450803 0.010341
vt -0.450803 0.592149
vt -0.446044 0.096886
vt -0.439620 0.036131
vt -0.438917 -0.514184
vt -0.438917 0.514184
vt -0.435156 -0.537083
vt -0.435156 0.113646
vt -0.435156 0.537083
vt -0.418021 0.091869
vt -0.412211 -0.540511
vt -0.412211 0.117417
vt -0.412211 0.540511
vt -0.406400 -0.507200
vt -0.406400 0.507200
vt 0.406400 -0.507200
vt 0.406400 0.507200
vt 0.412211 -0.540511
vt 0.412211 0.117417
vt 0.412211 0.540511
vt 0.418021 0.091869
vt 0.435156 -0.537083
vt 0.435156 0.113646
vt 0.435156 0.537083
vt 0.438917 -0.514184
vt 0.438917 0.514184
vt 0.439620 0.036131
vt 0.446044 0.096886
vt 0.450803 -0.592149
vt 0.450803 0.010341
vt 0.450803 0.592149
vt 0.456000 -0.568000
vt 0.456000 0.568000
vt 0.468868 0.036714
vt 0.472578 -0.582931
vt 0.472578 0.015517
vt 0.472578 0.582931
vt 0.480450 -0.560822
vt 0.480450 0.560822
vt 0.514184 0.117076
vt 0.521169 0.090702
vt 0.537083 0.113646
vt 0.546536 0.037298
vt 0.549166 0.096886
vt 0.560822 0.011166
vt 0.576971 0.036714
vt 0.582931 0.015517
vn -0.999120 -0.041938 0.000000
vn -0.932441 0.361321 0.000000
vn -0.917573 0.198122 -0.344685
vn -0.917573 0.198122 0.344684
vn -0.814927 0.470610 0.338261
vn -0.814926 0.470610 -0.338262
vn -0.768830 0.639453 0.000000
vn -0.723344 0.651524 -0.228668
vn -0.723344 0.651524 0.228668
vn -0.425342 -0.820962 -0.380927
vn -0.425342 -0.820962 0.380928
vn -0.415407 -0.909635 0.000000
vn -0.374221 0.256522 -0.891154
vn -0.374221 0.256523 0.891153
vn -0.351130 0.504086 -0.789053
vn -0.351129 0.504086 0.789054
vn -0.318459 0.947937 0.000000
vn -0.236416 0.681521 -0.692558
vn -0.236415 0.681521 0.692558
vn -0.235814 0.944925 -0.226954
vn -0.235813 0.944925 0.226954
vn 0.000000 -1.000000 0.000000
vn 0.000000 -0.919261 -0.393648
vn 0.000000 -0.919261 0.393648
vn 0.000000 0.050759 0.998711
vn 0.000000 0.050761 -0.998711
vn 0.000000 0.429056 -0.903278
vn 0.000000 0.429056 0.903278
vn 0.000000 0.682409 -0.730971
vn 0.000000 0.682409 0.730971
vn 0.000000 0.953061 -0.302777
vn 0.000000 0.953061 0.302777
vn 0.000000 1.000000 0.000000
vn 0.235813 0.944925 -0.226954
vn 0.235814 0.944925 0.226955
vn 0.236415 0.681521 -0.692558
vn 0.236416 0.681521 0.692558
vn 0.318459 0.947937 0.000000
vn 0.351129 0.504086 -0.789054
vn 0.351129 0.504087 0.789053
vn 0.374220 0.256522 0.891154
vn 0.374221 0.256523 -0.891153
vn 0.415407 -0.909636 0.000000
vn 0.425342 -0.820962 -0.380928
vn 0.425342 -0.820962 0.380927
vn 0.723343 0.651526 0.228669
vn 0.723344 0.651524 -0.228668
vn 0.768830 0.639453 0.000000
vn 0.814927 0.470610 -0.338261
vn 0.814927 0.470610 0.338261
vn 0.917573 0.198122 -0.344684
vn 0.917573 0.198123 0.344683
vn 0.932441 0.361321 0.000000
vn 0.999120 -0.041937 0.000000
usemtl PropPaint
f 1/60/1 3/62/1 2/5/1
f 1/60/2 2/5/2 10/7/2
f 1/60/2 10/7/2 9/58/2
f 1/60/3 7/63/3 3/62/3
f 1/60/6 9/58/6 15/61/6
f 1/60/6 15/61/6 7/63/6
f 2/5/1 3/62/1 4/3/1
f 2/5/4 4/3/4 8/2/4
f 2/5/5 8/2/5 16/4/5
f 2/5/5 16/4/5 10/7/5
f 3/10/10 5/13/10 11/16/10
f 3/10/12 11/16/12 4/9/12
f 3/62/3 7/63/3 5/64/3
f 4/3/4 6/1/4 8/2/4
f 4/9/11 12/15/11 6/11/11
f 4/9/12 11/16/12 12/15/12
f 5/12/13 7/14/13 13/18/13
f 5/13/10 13/19/10 11/16/10
f 6/11/11 12/15/11 14/17/11
f 6/12/14 14/18/14 8/14/14
f 7/14/13 17/21/13 13/18/13
f 7/14/15 15/20/15 17/21/15
f 8/14/14 14/18/14 18/21/14
f 8/14/16 18/21/16 16/20/16
f 9/58/7 10/7/7 19/57/7
f 9/58/8 19/57/8 21/59/8
f 9/58/8 21/59/8 15/61/8
f 10/7/7 20/8/7 19/57/7
f 10/7/9 16/4/9 22/6/9
f 10/7/9 22/6/9 20/8/9
f 11/16/22 45/50/22 12/15/22
f 11/16/23 13/19/23 45/50/23
f 12/15/22 45/50/22 46/49/22
f 12/15/24 44/46/24 14/17/24
f 12/15/24 46/49/24 44/46/24
f 13/18/26 17/21/26 43/47/26
f 13/19/23 43/48/23 45/50/23
f 14/18/25 40/44/25 18/21/25
f 14/18/25 44/47/25 40/44/25
f 15/20/15 23/27/15 17/21/15
f 15/20/18 21/25/18 23/27/18
f 16/20/16 18/21/16 24/27/16
f 16/20/19 24/27/19 22/25/19
f 17/21/26 39/44/26 43/47/26
f 17/21/27 23/27/27 33/38/27
f 17/21/27 33/38/27 39/44/27
f 18/21/28 40/44/28 24/27/28
f 19/23/17 20/22/17 27/32/17
f 19/23/20 25/30/20 21/26/20
f 19/23/20 27/32/20 25/30/20
f 20/22/17 28/31/17 27/32/17
f 20/22/21 22/24/21 26/28/21
f 20/22/21 26/28/21 28/31/21
f 21/25/18 25/29/18 23/27/18
f 22/25/19 24/27/19 26/29/19
f 23/27/29 25/29/29 31/36/29
f 23/27/29 31/36/29 33/38/29
f 24/27/28 40/44/28 34/38/28
f 24/27/30 34/38/30 26/29/30
f 25/30/31 27/32/31 29/34/31
f 25/30/31 29/34/31 31/37/31
f 26/28/32 32/35/32 28/31/32
f 26/29/30 34/38/30 32/36/30
f 27/32/33 28/31/33 29/34/33
f 28/31/32 32/35/32 30/33/32
f 28/31/33 30/33/33 29/34/33
f 29/34/34 37/43/34 31/37/34
f 29/34/38 30/33/38 37/43/38
f 30/33/35 32/35/35 38/42/35
f 30/33/38 38/42/38 37/43/38
f 31/36/36 36/40/36 33/38/36
f 31/37/34 37/43/34 36/41/34
f 32/35/35 35/39/35 38/42/35
f 32/36/37 34/38/37 35/40/37
f 33/38/36 36/40/36 41/45/36
f 33/38/39 41/45/39 39/44/39
f 34/38/37 42/45/37 35/40/37
f 34/38/40 40/44/40 42/45/40
f 35/6/46 42/4/46 48/7/46
f 35/6/46 48/7/46 38/8/46
f 36/59/47 37/57/47 47/58/47
f 36/59/47 47/58/47 41/61/47
f 37/57/48 38/8/48 47/58/48
f 38/8/48 48/7/48 47/58/48
f 39/44/39 41/45/39 49/51/39
f 39/44/42 49/51/42 43/47/42
f 40/44/40 50/51/40 42/45/40
f 40/44/41 44/47/41 50/51/41
f 41/61/49 47/58/49 55/60/49
f 41/61/49 55/60/49 49/63/49
f 42/4/50 50/2/50 56/5/50
f 42/4/50 56/5/50 48/7/50
f 43/47/42 49/51/42 51/53/42
f 43/48/44 51/54/44 45/50/44
f 44/46/45 46/49/45 52/52/45
f 44/47/41 52/53/41 50/51/41
f 45/50/43 53/56/43 46/49/43
f 45/50/44 51/54/44 53/56/44
f 46/49/43 53/56/43 54/55/43
f 46/49/45 54/55/45 52/52/45
f 47/58/53 48/7/53 56/5/53
f 47/58/53 56/5/53 55/60/53
f 49/63/51 53/62/51 51/64/51
f 49/63/51 55/60/51 53/62/51
f 50/2/52 52/1/52 54/3/52
f 50/2/52 54/3/52 56/5/52
f 53/62/54 55/60/54 54/3/54
f 54/3/54 55/60/54 56/5/54
