# exported by ae3d_export.py v3
# object: Street_BenchBack0
mtllib Street_BenchBack0.mtl
v -0.850000 0.008000 -0.022000
v -0.850000 0.008000 0.022000
v -0.850000 0.332000 -0.022000
v -0.850000 0.332000 0.022000
v -0.847657 0.002343 -0.022000
v -0.847657 0.002343 0.022000
v -0.847657 0.008000 -0.027657
v -0.847657 0.008000 0.027657
v -0.847657 0.332000 -0.027657
v -0.847657 0.332000 0.027657
v -0.847657 0.337657 -0.022000
v -0.847657 0.337657 0.022000
v -0.846619 0.003381 -0.026619
v -0.846619 0.003381 0.026619
v -0.846619 0.336619 -0.026619
v -0.846619 0.336619 0.026619
v -0.842000 0.000000 -0.022000
v -0.842000 0.000000 0.022000
v -0.842000 0.002343 -0.027657
v -0.842000 0.002343 0.027657
v -0.842000 0.008000 -0.030000
v -0.842000 0.008000 0.030000
v -0.842000 0.332000 -0.030000
v -0.842000 0.332000 0.030000
v -0.842000 0.337657 -0.027657
v -0.842000 0.337657 0.027657
v -0.842000 0.340000 -0.022000
v -0.842000 0.340000 0.022000
v 0.842000 0.000000 -0.022000
v 0.842000 0.000000 0.022000
v 0.842000 0.002343 -0.027657
v 0.842000 0.002343 0.027657
v 0.842000 0.008000 -0.030000
v 0.842000 0.008000 0.030000
v 0.842000 0.332000 -0.030000
v 0.842000 0.332000 0.030000
v 0.842000 0.337657 -0.027657
v 0.842000 0.337657 0.027657
v 0.842000 0.340000 -0.022000
v 0.842000 0.340000 0.022000
v 0.846619 0.003381 -0.026619
v 0.846619 0.003381 0.026619
v 0.846619 0.336619 -0.026619
v 0.846619 0.336619 0.026619
v 0.847657 0.002343 -0.022000
v 0.847657 0.002343 0.022000
v 0.847657 0.008000 -0.027657
v 0.847657 0.008000 0.027657
v 0.847657 0.332000 -0.027657
v 0.847657 0.332000 0.027657
v 0.847657 0.337657 -0.022000
v 0.847657 0.337657 0.022000
v 0.850000 0.008000 -0.022000
v 0.850000 0.008000 0.022000
v 0.850000 0.332000 -0.022000
v 0.850000 0.332000 0.022000
vt -1.441017 -0.037400
vt -1.441017 0.013600
vt -1.441017 0.037400
vt -1.441017 0.564400
vt -1.439252 -0.045252
vt -1.439252 0.005748
vt -1.439252 0.045252
vt -1.439252 0.572252
vt -1.431400 -0.047017
vt -1.431400 -0.037400
vt -1.431400 0.003983
vt -1.431400 0.013600
vt -1.431400 0.037400
vt -1.431400 0.047017
vt -1.431400 0.564400
vt -1.431400 0.574017
vt -0.047017 0.013600
vt -0.047017 0.564400
vt -0.045252 0.005748
vt -0.045252 0.572252
vt -0.037400 0.003983
vt -0.037400 0.013600
vt -0.037400 0.564400
vt -0.037400 0.574017
vt 0.037400 0.003983
vt 0.037400 0.013600
vt 0.037400 0.564400
vt 0.037400 0.574017
vt 0.045252 0.005748
vt 0.045252 0.572252
vt 0.047017 0.013600
vt 0.047017 0.564400
vt 1.431400 -0.047017
vt 1.431400 -0.037400
vt 1.431400 0.003983
vt 1.431400 0.013600
vt 1.431400 0.037400
vt 1.431400 0.047017
vt 1.431400 0.564400
vt 1.431400 0.574017
vt 1.439252 -0.045252
vt 1.439252 0.005748
vt 1.439252 0.045252
vt 1.439252 0.572252
vt 1.441017 -0.037400
vt 1.441017 0.013600
vt 1.441017 0.037400
vt 1.441017 0.564400
vn -1.000000 0.000000 0.000002
vn -0.923879 0.000000 0.382686
vn -0.923874 -0.382696 0.000000
vn -0.923874 0.382696 0.000000
vn -0.923873 0.000000 -0.382699
vn -0.888074 -0.325063 0.325051
vn -0.888073 -0.325063 -0.325055
vn -0.888068 0.325063 -0.325068
vn -0.888068 0.325063 0.325068
vn -0.382688 -0.923878 0.000000
vn -0.382688 0.923878 0.000000
vn -0.382685 0.000000 -0.923879
vn -0.382685 0.000000 0.923879
vn -0.325069 0.888074 -0.325047
vn -0.325067 0.888074 0.325047
vn -0.325063 -0.325063 -0.888070
vn -0.325062 -0.325062 0.888071
vn -0.325060 -0.888075 -0.325054
vn -0.325059 -0.888072 0.325061
vn -0.325059 0.325059 -0.888073
vn -0.325058 0.325058 0.888073
vn 0.000000 -1.000000 0.000000
vn 0.000000 -0.923879 -0.382683
vn 0.000000 -0.923879 0.382683
vn 0.000000 -0.382684 -0.923879
vn 0.000000 -0.382684 0.923879
vn 0.000000 0.000000 -1.000000
vn 0.000000 0.000000 1.000000
vn 0.000000 0.382685 -0.923879
vn 0.000000 0.382685 0.923879
vn 0.000000 0.923879 -0.382684
vn 0.000000 0.923879 0.382684
vn 0.000000 1.000000 0.000000
vn 0.325058 0.325058 -0.888073
vn 0.325059 -0.888072 -0.325061
vn 0.325059 0.325059 0.888073
vn 0.325060 -0.888075 0.325054
vn 0.325062 -0.325062 -0.888071
vn 0.325063 -0.325063 0.888070
vn 0.325067 0.888074 -0.325047
vn 0.325069 0.888074 0.325047
vn 0.382685 0.000000 -0.923879
vn 0.382685 0.000000 0.923879
vn 0.382688 -0.923878 0.000000
vn 0.382688 0.923878 0.000000
vn 0.888068 0.325063 -0.325068
vn 0.888068 0.325063 0.325068
vn 0.888073 -0.325063 0.325055
vn 0.888074 -0.325063 -0.325051
vn 0.923873 0.000000 0.382699
vn 0.923874 -0.382696 0.000000
vn 0.923874 0.382696 0.000000
vn 0.923879 0.000000 -0.382686
vn 1.000000 0.000000 -0.000002
usemtl PropWood
f 1/26/1 2/22/1 3/27/1
f 1/26/3 5/25/3 6/21/3
f 1/26/3 6/21/3 2/22/3
f 1/26/5 3/27/5 9/32/5
f 1/26/5 9/32/5 7/31/5
f 1/26/7 7/31/7 13/29/7
f 1/26/7 13/29/7 5/25/7
f 2/22/1 4/23/1 3/27/1
f 2/22/2 8/17/2 10/18/2
f 2/22/2 10/18/2 4/23/2
f 2/22/6 6/21/6 14/19/6
f 2/22/6 14/19/6 8/17/6
f 3/27/4 4/23/4 12/24/4
f 3/27/4 12/24/4 11/28/4
f 3/27/8 11/28/8 15/30/8
f 3/27/8 15/30/8 9/32/8
f 4/23/9 10/18/9 16/20/9
f 4/23/9 16/20/9 12/24/9
f 5/3/10 17/13/10 18/10/10
f 5/3/10 18/10/10 6/1/10
f 5/3/18 13/7/18 17/13/18
f 6/1/19 18/10/19 14/5/19
f 7/2/12 9/4/12 23/15/12
f 7/2/12 23/15/12 21/12/12
f 7/2/16 21/12/16 13/6/16
f 8/2/13 22/12/13 10/4/13
f 8/2/17 14/6/17 22/12/17
f 9/4/20 15/8/20 23/15/20
f 10/4/13 22/12/13 24/15/13
f 10/4/21 24/15/21 16/8/21
f 11/3/11 12/1/11 28/10/11
f 11/3/11 28/10/11 27/13/11
f 11/3/14 27/13/14 15/7/14
f 12/1/15 16/5/15 28/10/15
f 13/6/16 21/12/16 19/11/16
f 13/7/18 19/14/18 17/13/18
f 14/5/19 18/10/19 20/9/19
f 14/6/17 20/11/17 22/12/17
f 15/7/14 27/13/14 25/14/14
f 15/8/20 25/16/20 23/15/20
f 16/5/15 26/9/15 28/10/15
f 16/8/21 24/15/21 26/16/21
f 17/13/22 29/37/22 18/10/22
f 17/13/23 19/14/23 29/37/23
f 18/10/22 29/37/22 30/34/22
f 18/10/24 30/34/24 32/33/24
f 18/10/24 32/33/24 20/9/24
f 19/11/25 21/12/25 31/35/25
f 19/14/23 31/38/23 29/37/23
f 20/11/26 32/35/26 34/36/26
f 20/11/26 34/36/26 22/12/26
f 21/12/25 33/36/25 31/35/25
f 21/12/27 23/15/27 33/36/27
f 22/12/28 34/36/28 36/39/28
f 22/12/28 36/39/28 24/15/28
f 23/15/27 35/39/27 33/36/27
f 23/15/29 25/16/29 35/39/29
f 24/15/30 36/39/30 38/40/30
f 24/15/30 38/40/30 26/16/30
f 25/14/31 27/13/31 37/38/31
f 25/16/29 37/40/29 35/39/29
f 26/9/32 38/33/32 40/34/32
f 26/9/32 40/34/32 28/10/32
f 27/13/31 39/37/31 37/38/31
f 27/13/33 28/10/33 39/37/33
f 28/10/33 40/34/33 39/37/33
f 29/37/35 31/38/35 41/43/35
f 29/37/35 41/43/35 45/47/35
f 29/37/44 45/47/44 46/45/44
f 29/37/44 46/45/44 30/34/44
f 30/34/37 42/41/37 32/33/37
f 30/34/37 46/45/37 42/41/37
f 31/35/38 33/36/38 41/42/38
f 32/35/39 42/42/39 34/36/39
f 33/36/38 47/46/38 41/42/38
f 33/36/42 35/39/42 49/48/42
f 33/36/42 49/48/42 47/46/42
f 34/36/39 42/42/39 48/46/39
f 34/36/43 48/46/43 36/39/43
f 35/39/34 37/40/34 43/44/34
f 35/39/34 43/44/34 49/48/34
f 36/39/36 44/44/36 38/40/36
f 36/39/36 50/48/36 44/44/36
f 36/39/43 48/46/43 50/48/43
f 37/38/40 39/37/40 43/43/40
f 38/33/41 44/41/41 40/34/41
f 39/37/40 51/47/40 43/43/40
f 39/37/45 40/34/45 52/45/45
f 39/37/45 52/45/45 51/47/45
f 40/34/41 44/41/41 52/45/41
f 41/29/49 47/31/49 53/26/49
f 41/29/49 53/26/49 45/25/49
f 42/19/48 46/21/48 54/22/48
f 42/19/48 54/22/48 48/17/48
f 43/30/46 51/28/46 55/27/46
f 43/30/46 55/27/46 49/32/46
f 44/20/47 50/18/47 56/23/47
f 44/20/47 56/23/47 52/24/47
f 45/25/51 53/26/51 54/22/51
f 45/25/51 54/22/51 46/21/51
f 47/31/53 49/32/53 53/26/53
f 48/17/50 54/22/50 50/18/50
f 49/32/53 55/27/53 53/26/53
f 50/18/50 54/22/50 56/23/50
f 51/28/52 52/24/52 56/23/52
f 51/28/52 56/23/52 55/27/52
f 53/26/54 55/27/54 56/23/54
f 53/26/54 56/23/54 54/22/54
