# exported by ae3d_export.py v3
# object: Street_BlockL5_Trim
mtllib Street_BlockL5_Trim.mtl
v -5.700000 14.580000 0.000000
v -5.700000 14.580000 0.260000
v -5.700000 15.000000 0.000000
v -5.700000 15.000000 0.260000
v -5.660000 -0.550000 0.000000
v -5.660000 -0.550000 0.130000
v -5.660000 0.480000 0.000000
v -5.660000 0.480000 0.130000
v -5.600000 2.530000 0.000000
v -5.600000 2.530000 0.049500
v -5.600000 2.600000 0.000000
v -5.600000 2.600000 0.049500
v -5.600000 5.680000 0.000000
v -5.600000 5.680000 0.049500
v -5.600000 5.750000 0.000000
v -5.600000 5.750000 0.049500
v -5.600000 8.830000 0.000000
v -5.600000 8.830000 0.049500
v -5.600000 8.900000 0.000000
v -5.600000 8.900000 0.049500
v -5.600000 11.980000 0.000000
v -5.600000 11.980000 0.049500
v -5.600000 12.050000 0.000000
v -5.600000 12.050000 0.049500
v -4.865000 0.320000 0.000000
v -4.865000 0.320000 0.090000
v -4.865000 0.400000 0.000000
v -4.865000 0.400000 0.090000
v -4.865000 3.470000 0.000000
v -4.865000 3.470000 0.090000
v -4.865000 3.550000 0.000000
v -4.865000 3.550000 0.090000
v -4.865000 6.620000 0.000000
v -4.865000 6.620000 0.090000
v -4.865000 6.700000 0.000000
v -4.865000 6.700000 0.090000
v -4.865000 9.770000 0.000000
v -4.865000 9.770000 0.090000
v -4.865000 9.850000 0.000000
v -4.865000 9.850000 0.090000
v -4.225000 0.440000 -0.225000
v -4.225000 0.440000 -0.195000
v -4.225000 1.910000 -0.225000
v -4.225000 1.910000 -0.195000
v -4.225000 3.590000 -0.225000
v -4.225000 3.590000 -0.195000
v -4.225000 5.060000 -0.225000
v -4.225000 5.060000 -0.195000
v -4.225000 6.740000 -0.225000
v -4.225000 6.740000 -0.195000
v -4.225000 8.210000 -0.225000
v -4.225000 8.210000 -0.195000
v -4.225000 9.890000 -0.225000
v -4.225000 9.890000 -0.195000
v -4.225000 11.360000 -0.225000
v -4.225000 11.360000 -0.195000
v -4.175000 0.440000 -0.225000
v -4.175000 0.440000 -0.195000
v -4.175000 1.910000 -0.225000
v -4.175000 1.910000 -0.195000
v -4.175000 3.590000 -0.225000
v -4.175000 3.590000 -0.195000
v -4.175000 5.060000 -0.225000
v -4.175000 5.060000 -0.195000
v -4.175000 6.740000 -0.225000
v -4.175000 6.740000 -0.195000
v -4.175000 8.210000 -0.225000
v -4.175000 8.210000 -0.195000
v -4.175000 9.890000 -0.225000
v -4.175000 9.890000 -0.195000
v -4.175000 11.360000 -0.225000
v -4.175000 11.360000 -0.195000
v -3.535000 0.320000 0.000000
v -3.535000 0.320000 0.090000
v -3.535000 0.400000 0.000000
v -3.535000 0.400000 0.090000
v -3.535000 3.470000 0.000000
v -3.535000 3.470000 0.090000
v -3.535000 3.550000 0.000000
v -3.535000 3.550000 0.090000
v -3.535000 6.620000 0.000000
v -3.535000 6.620000 0.090000
v -3.535000 6.700000 0.000000
v -3.535000 6.700000 0.090000
v -3.535000 9.770000 0.000000
v -3.535000 9.770000 0.090000
v -3.535000 9.850000 0.000000
v -3.535000 9.850000 0.090000
v -2.065000 0.320000 0.000000
v -2.065000 0.320000 0.090000
v -2.065000 0.400000 0.000000
v -2.065000 0.400000 0.090000
v -2.065000 3.470000 0.000000
v -2.065000 3.470000 0.090000
v -2.065000 3.550000 0.000000
v -2.065000 3.550000 0.090000
v -2.065000 6.620000 0.000000
v -2.065000 6.620000 0.090000
v -2.065000 6.700000 0.000000
v -2.065000 6.700000 0.090000
v -2.065000 9.770000 0.000000
v -2.065000 9.770000 0.090000
v -2.065000 9.850000 0.000000
v -2.065000 9.850000 0.090000
v -1.425000 0.440000 -0.225000
v -1.425000 0.440000 -0.195000
v -1.425000 1.910000 -0.225000
v -1.425000 1.910000 -0.195000
v -1.425000 3.590000 -0.225000
v -1.425000 3.590000 -0.195000
v -1.425000 5.060000 -0.225000
v -1.425000 5.060000 -0.195000
v -1.425000 6.740000 -0.225000
v -1.425000 6.740000 -0.195000
v -1.425000 8.210000 -0.225000
v -1.425000 8.210000 -0.195000
v -1.425000 9.890000 -0.225000
v -1.425000 9.890000 -0.195000
v -1.425000 11.360000 -0.225000
v -1.425000 11.360000 -0.195000
v -1.375000 0.440000 -0.225000
v -1.375000 0.440000 -0.195000
v -1.375000 1.910000 -0.225000
v -1.375000 1.910000 -0.195000
v -1.375000 3.590000 -0.225000
v -1.375000 3.590000 -0.195000
v -1.375000 5.060000 -0.225000
v -1.375000 5.060000 -0.195000
v -1.375000 6.740000 -0.225000
v -1.375000 6.740000 -0.195000
v -1.375000 8.210000 -0.225000
v -1.375000 8.210000 -0.195000
v -1.375000 9.890000 -0.225000
v -1.375000 9.890000 -0.195000
v -1.375000 11.360000 -0.225000
v -1.375000 11.360000 -0.195000
v -0.735000 0.320000 0.000000
v -0.735000 0.320000 0.090000
v -0.735000 0.400000 0.000000
v -0.735000 0.400000 0.090000
v -0.735000 3.470000 0.000000
v -0.735000 3.470000 0.090000
v -0.735000 3.550000 0.000000
v -0.735000 3.550000 0.090000
v -0.735000 6.620000 0.000000
v -0.735000 6.620000 0.090000
v -0.735000 6.700000 0.000000
v -0.735000 6.700000 0.090000
v -0.735000 9.770000 0.000000
v -0.735000 9.770000 0.090000
v -0.735000 9.850000 0.000000
v -0.735000 9.850000 0.090000
v 0.605000 -0.530000 0.000000
v 0.605000 -0.530000 0.144000
v 0.605000 2.060000 0.000000
v 0.605000 2.060000 0.144000
v 0.735000 3.470000 0.000000
v 0.735000 3.470000 0.090000
v 0.735000 3.550000 0.000000
v 0.735000 3.550000 0.090000
v 0.735000 6.620000 0.000000
v 0.735000 6.620000 0.090000
v 0.735000 6.700000 0.000000
v 0.735000 6.700000 0.090000
v 0.735000 9.770000 0.000000
v 0.735000 9.770000 0.090000
v 0.735000 9.850000 0.000000
v 0.735000 9.850000 0.090000
v 1.375000 3.590000 -0.225000
v 1.375000 3.590000 -0.195000
v 1.375000 5.060000 -0.225000
v 1.375000 5.060000 -0.195000
v 1.375000 6.740000 -0.225000
v 1.375000 6.740000 -0.195000
v 1.375000 8.210000 -0.225000
v 1.375000 8.210000 -0.195000
v 1.375000 9.890000 -0.225000
v 1.375000 9.890000 -0.195000
v 1.375000 11.360000 -0.225000
v 1.375000 11.360000 -0.195000
v 1.425000 3.590000 -0.225000
v 1.425000 3.590000 -0.195000
v 1.425000 5.060000 -0.225000
v 1.425000 5.060000 -0.195000
v 1.425000 6.740000 -0.225000
v 1.425000 6.740000 -0.195000
v 1.425000 8.210000 -0.225000
v 1.425000 8.210000 -0.195000
v 1.425000 9.890000 -0.225000
v 1.425000 9.890000 -0.195000
v 1.425000 11.360000 -0.225000
v 1.425000 11.360000 -0.195000
v 2.065000 3.470000 0.000000
v 2.065000 3.470000 0.090000
v 2.065000 3.550000 0.000000
v 2.065000 3.550000 0.090000
v 2.065000 6.620000 0.000000
v 2.065000 6.620000 0.090000
v 2.065000 6.700000 0.000000
v 2.065000 6.700000 0.090000
v 2.065000 9.770000 0.000000
v 2.065000 9.770000 0.090000
v 2.065000 9.850000 0.000000
v 2.065000 9.850000 0.090000
v 2.195000 -0.530000 0.000000
v 2.195000 -0.530000 0.144000
v 2.195000 2.060000 0.000000
v 2.195000 2.060000 0.144000
v 3.535000 0.320000 0.000000
v 3.535000 0.320000 0.090000
v 3.535000 0.400000 0.000000
v 3.535000 0.400000 0.090000
v 3.535000 3.470000 0.000000
v 3.535000 3.470000 0.090000
v 3.535000 3.550000 0.000000
v 3.535000 3.550000 0.090000
v 3.535000 6.620000 0.000000
v 3.535000 6.620000 0.090000
v 3.535000 6.700000 0.000000
v 3.535000 6.700000 0.090000
v 3.535000 9.770000 0.000000
v 3.535000 9.770000 0.090000
v 3.535000 9.850000 0.000000
v 3.535000 9.850000 0.090000
v 4.175000 0.440000 -0.225000
v 4.175000 0.440000 -0.195000
v 4.175000 1.910000 -0.225000
v 4.175000 1.910000 -0.195000
v 4.175000 3.590000 -0.225000
v 4.175000 3.590000 -0.195000
v 4.175000 5.060000 -0.225000
v 4.175000 5.060000 -0.195000
v 4.175000 6.740000 -0.225000
v 4.175000 6.740000 -0.195000
v 4.175000 8.210000 -0.225000
v 4.175000 8.210000 -0.195000
v 4.175000 9.890000 -0.225000
v 4.175000 9.890000 -0.195000
v 4.175000 11.360000 -0.225000
v 4.175000 11.360000 -0.195000
v 4.225000 0.440000 -0.225000
v 4.225000 0.440000 -0.195000
v 4.225000 1.910000 -0.225000
v 4.225000 1.910000 -0.195000
v 4.225000 3.590000 -0.225000
v 4.225000 3.590000 -0.195000
v 4.225000 5.060000 -0.225000
v 4.225000 5.060000 -0.195000
v 4.225000 6.740000 -0.225000
v 4.225000 6.740000 -0.195000
v 4.225000 8.210000 -0.225000
v 4.225000 8.210000 -0.195000
v 4.225000 9.890000 -0.225000
v 4.225000 9.890000 -0.195000
v 4.225000 11.360000 -0.225000
v 4.225000 11.360000 -0.195000
v 4.865000 0.320000 0.000000
v 4.865000 0.320000 0.090000
v 4.865000 0.400000 0.000000
v 4.865000 0.400000 0.090000
v 4.865000 3.470000 0.000000
v 4.865000 3.470000 0.090000
v 4.865000 3.550000 0.000000
v 4.865000 3.550000 0.090000
v 4.865000 6.620000 0.000000
v 4.865000 6.620000 0.090000
v 4.865000 6.700000 0.000000
v 4.865000 6.700000 0.090000
v 4.865000 9.770000 0.000000
v 4.865000 9.770000 0.090000
v 4.865000 9.850000 0.000000
v 4.865000 9.850000 0.090000
v 5.600000 2.530000 0.000000
v 5.600000 2.530000 0.049500
v 5.600000 2.600000 0.000000
v 5.600000 2.600000 0.049500
v 5.600000 5.680000 0.000000
v 5.600000 5.680000 0.049500
v 5.600000 5.750000 0.000000
v 5.600000 5.750000 0.049500
v 5.600000 8.830000 0.000000
v 5.600000 8.830000 0.049500
v 5.600000 8.900000 0.000000
v 5.600000 8.900000 0.049500
v 5.600000 11.980000 0.000000
v 5.600000 11.980000 0.049500
v 5.600000 12.050000 0.000000
v 5.600000 12.050000 0.049500
v 5.660000 -0.550000 0.000000
v 5.660000 -0.550000 0.130000
v 5.660000 0.480000 0.000000
v 5.660000 0.480000 0.130000
v 5.700000 14.580000 0.000000
v 5.700000 14.580000 0.260000
v 5.700000 15.000000 0.000000
v 5.700000 15.000000 0.260000
vt -12.540000 -0.572000
vt -12.540000 0.000000
vt -12.540000 32.076000
vt -12.540000 33.000000
vt -12.452000 -1.210000
vt -12.452000 -0.286000
vt -12.452000 0.000000
vt -12.452000 1.056000
vt -12.320000 -0.108900
vt -12.320000 0.000000
vt -12.320000 5.566000
vt -12.320000 5.720000
vt -12.320000 12.495999
vt -12.320000 12.650000
vt -12.320000 19.426001
vt -12.320000 19.580000
vt -12.320000 26.355999
vt -12.320000 26.510000
vt -10.702999 -0.198000
vt -10.702999 0.000000
vt -10.702999 0.704000
vt -10.702999 0.880000
vt -10.702999 7.634000
vt -10.702999 7.810000
vt -10.702999 14.564000
vt -10.702999 14.740000
vt -10.702999 21.494001
vt -10.702999 21.670000
vt -9.295000 0.429000
vt -9.295000 0.495000
vt -9.295000 0.968000
vt -9.295000 4.202000
vt -9.295000 7.898000
vt -9.295000 11.132000
vt -9.295000 14.827999
vt -9.295000 18.062000
vt -9.295000 21.758001
vt -9.295000 24.991999
vt -9.185000 0.429000
vt -9.185000 0.495000
vt -9.185000 0.968000
vt -9.185000 4.202000
vt -9.185000 7.898000
vt -9.185000 11.132000
vt -9.185000 14.827999
vt -9.185000 18.062000
vt -9.185000 21.758001
vt -9.185000 24.991999
vt -7.777000 -0.198000
vt -7.777000 0.000000
vt -7.777000 0.704000
vt -7.777000 0.880000
vt -7.777000 7.634000
vt -7.777000 7.810000
vt -7.777000 14.564000
vt -7.777000 14.740000
vt -7.777000 21.494001
vt -7.777000 21.670000
vt -4.543000 -0.198000
vt -4.543000 0.000000
vt -4.543000 0.704000
vt -4.543000 0.880000
vt -4.543000 7.634000
vt -4.543000 7.810000
vt -4.543000 14.564000
vt -4.543000 14.740000
vt -4.543000 21.494001
vt -4.543000 21.670000
vt -3.135000 0.429000
vt -3.135000 0.495000
vt -3.135000 0.968000
vt -3.135000 4.202000
vt -3.135000 7.898000
vt -3.135000 11.132000
vt -3.135000 14.827999
vt -3.135000 18.062000
vt -3.135000 21.758001
vt -3.135000 24.991999
vt -3.025000 0.429000
vt -3.025000 0.495000
vt -3.025000 0.968000
vt -3.025000 4.202000
vt -3.025000 7.898000
vt -3.025000 11.132000
vt -3.025000 14.827999
vt -3.025000 18.062000
vt -3.025000 21.758001
vt -3.025000 24.991999
vt -1.617000 -0.198000
vt -1.617000 0.000000
vt -1.617000 0.704000
vt -1.617000 0.880000
vt -1.617000 7.634000
vt -1.617000 7.810000
vt -1.617000 14.564000
vt -1.617000 14.740000
vt -1.617000 21.494001
vt -1.617000 21.670000
vt -0.572000 32.076000
vt -0.572000 33.000000
vt -0.316800 -1.166000
vt -0.316800 4.532000
vt -0.286000 -1.210000
vt -0.286000 1.056000
vt -0.198000 0.704000
vt -0.198000 0.880000
vt -0.198000 7.634000
vt -0.198000 7.810000
vt -0.198000 14.564000
vt -0.198000 14.740000
vt -0.198000 21.494001
vt -0.198000 21.670000
vt -0.108900 5.566000
vt -0.108900 5.720000
vt -0.108900 12.495999
vt -0.108900 12.650000
vt -0.108900 19.426001
vt -0.108900 19.580000
vt -0.108900 26.355999
vt -0.108900 26.510000
vt 0.000000 -1.210000
vt 0.000000 -1.166000
vt 0.000000 0.704000
vt 0.000000 0.880000
vt 0.000000 1.056000
vt 0.000000 4.532000
vt 0.000000 5.566000
vt 0.000000 5.720000
vt 0.000000 7.634000
vt 0.000000 7.810000
vt 0.000000 12.495999
vt 0.000000 12.650000
vt 0.000000 14.564000
vt 0.000000 14.740000
vt 0.000000 19.426001
vt 0.000000 19.580000
vt 0.000000 21.494001
vt 0.000000 21.670000
vt 0.000000 26.355999
vt 0.000000 26.510000
vt 0.000000 32.076000
vt 0.000000 33.000000
vt 0.429000 0.968000
vt 0.429000 4.202000
vt 0.429000 7.898000
vt 0.429000 11.132000
vt 0.429000 14.827999
vt 0.429000 18.062000
vt 0.429000 21.758001
vt 0.429000 24.991999
vt 0.495000 0.968000
vt 0.495000 4.202000
vt 0.495000 7.898000
vt 0.495000 11.132000
vt 0.495000 14.827999
vt 0.495000 18.062000
vt 0.495000 21.758001
vt 0.495000 24.991999
vt 1.331000 -1.166000
vt 1.331000 -0.316800
vt 1.331000 0.000000
vt 1.331000 4.532000
vt 1.617000 -0.198000
vt 1.617000 0.000000
vt 1.617000 7.634000
vt 1.617000 7.810000
vt 1.617000 14.564000
vt 1.617000 14.740000
vt 1.617000 21.494001
vt 1.617000 21.670000
vt 3.025000 0.429000
vt 3.025000 0.495000
vt 3.025000 7.898000
vt 3.025000 11.132000
vt 3.025000 14.827999
vt 3.025000 18.062000
vt 3.025000 21.758001
vt 3.025000 24.991999
vt 3.135000 0.429000
vt 3.135000 0.495000
vt 3.135000 7.898000
vt 3.135000 11.132000
vt 3.135000 14.827999
vt 3.135000 18.062000
vt 3.135000 21.758001
vt 3.135000 24.991999
vt 4.543000 -0.198000
vt 4.543000 0.000000
vt 4.543000 7.634000
vt 4.543000 7.810000
vt 4.543000 14.564000
vt 4.543000 14.740000
vt 4.543000 21.494001
vt 4.543000 21.670000
vt 4.829000 -1.166000
vt 4.829000 -0.316800
vt 4.829000 0.000000
vt 4.829000 4.532000
vt 7.777000 -0.198000
vt 7.777000 0.000000
vt 7.777000 0.704000
vt 7.777000 0.880000
vt 7.777000 7.634000
vt 7.777000 7.810000
vt 7.777000 14.564000
vt 7.777000 14.740000
vt 7.777000 21.494001
vt 7.777000 21.670000
vt 9.185000 0.429000
vt 9.185000 0.495000
vt 9.185000 0.968000
vt 9.185000 4.202000
vt 9.185000 7.898000
vt 9.185000 11.132000
vt 9.185000 14.827999
vt 9.185000 18.062000
vt 9.185000 21.758001
vt 9.185000 24.991999
vt 9.295000 0.429000
vt 9.295000 0.495000
vt 9.295000 0.968000
vt 9.295000 4.202000
vt 9.295000 7.898000
vt 9.295000 11.132000
vt 9.295000 14.827999
vt 9.295000 18.062000
vt 9.295000 21.758001
vt 9.295000 24.991999
vt 10.702999 -0.198000
vt 10.702999 0.000000
vt 10.702999 0.704000
vt 10.702999 0.880000
vt 10.702999 7.634000
vt 10.702999 7.810000
vt 10.702999 14.564000
vt 10.702999 14.740000
vt 10.702999 21.494001
vt 10.702999 21.670000
vt 12.320000 -0.108900
vt 12.320000 0.000000
vt 12.320000 5.566000
vt 12.320000 5.720000
vt 12.320000 12.495999
vt 12.320000 12.650000
vt 12.320000 19.426001
vt 12.320000 19.580000
vt 12.320000 26.355999
vt 12.320000 26.510000
vt 12.452000 -1.210000
vt 12.452000 -0.286000
vt 12.452000 0.000000
vt 12.452000 1.056000
vt 12.540000 -0.572000
vt 12.540000 0.000000
vt 12.540000 32.076000
vt 12.540000 33.000000
vn -1.000000 0.000000 0.000000
vn 0.000000 -1.000000 0.000000
vn 0.000000 0.000000 -1.000000
vn 0.000000 0.000000 1.000000
vn 0.000000 1.000000 0.000000
vn 1.000000 0.000000 0.000000
usemtl TrimStone
f 1/2/2 293/254/2 2/1/2
f 1/3/3 3/4/3 295/256/3
f 1/3/3 295/256/3 293/255/3
f 1/141/1 2/99/1 3/142/1
f 2/1/2 293/254/2 294/253/2
f 2/3/4 294/255/4 296/256/4
f 2/3/4 296/256/4 4/4/4
f 2/99/1 4/100/1 3/142/1
f 3/2/5 4/1/5 295/254/5
f 4/1/5 296/253/5 295/254/5
f 5/5/3 7/8/3 291/252/3
f 5/5/3 291/252/3 289/249/3
f 5/7/2 289/251/2 6/6/2
f 5/121/1 6/103/1 7/125/1
f 6/5/4 290/249/4 292/252/4
f 6/5/4 292/252/4 8/8/4
f 6/6/2 289/251/2 290/250/2
f 6/103/1 8/104/1 7/125/1
f 7/7/5 8/6/5 291/251/5
f 8/6/5 292/250/5 291/251/5
f 9/10/2 273/240/2 10/9/2
f 9/11/3 11/12/3 275/242/3
f 9/11/3 275/242/3 273/241/3
f 9/127/1 10/113/1 11/128/1
f 10/9/2 273/240/2 274/239/2
f 10/11/4 274/241/4 276/242/4
f 10/11/4 276/242/4 12/12/4
f 10/113/1 12/114/1 11/128/1
f 11/10/5 12/9/5 275/240/5
f 12/9/5 276/239/5 275/240/5
f 13/10/2 277/240/2 14/9/2
f 13/13/3 15/14/3 279/244/3
f 13/13/3 279/244/3 277/243/3
f 13/131/1 14/115/1 15/132/1
f 14/9/2 277/240/2 278/239/2
f 14/13/4 278/243/4 280/244/4
f 14/13/4 280/244/4 16/14/4
f 14/115/1 16/116/1 15/132/1
f 15/10/5 16/9/5 279/240/5
f 16/9/5 280/239/5 279/240/5
f 17/10/2 281/240/2 18/9/2
f 17/15/3 19/16/3 283/246/3
f 17/15/3 283/246/3 281/245/3
f 17/135/1 18/117/1 19/136/1
f 18/9/2 281/240/2 282/239/2
f 18/15/4 282/245/4 284/246/4
f 18/15/4 284/246/4 20/16/4
f 18/117/1 20/118/1 19/136/1
f 19/10/5 20/9/5 283/240/5
f 20/9/5 284/239/5 283/240/5
f 21/10/2 285/240/2 22/9/2
f 21/17/3 23/18/3 287/248/3
f 21/17/3 287/248/3 285/247/3
f 21/139/1 22/119/1 23/140/1
f 22/9/2 285/240/2 286/239/2
f 22/17/4 286/247/4 288/248/4
f 22/17/4 288/248/4 24/18/4
f 22/119/1 24/120/1 23/140/1
f 23/10/5 24/9/5 287/240/5
f 24/9/5 288/239/5 287/240/5
f 25/20/2 73/50/2 26/19/2
f 25/21/3 27/22/3 75/52/3
f 25/21/3 75/52/3 73/51/3
f 25/123/1 26/105/1 27/124/1
f 26/19/2 73/50/2 74/49/2
f 26/21/4 74/51/4 76/52/4
f 26/21/4 76/52/4 28/22/4
f 26/105/1 28/106/1 27/124/1
f 27/20/5 28/19/5 75/50/5
f 28/19/5 76/49/5 75/50/5
f 29/20/2 77/50/2 30/19/2
f 29/23/3 31/24/3 79/54/3
f 29/23/3 79/54/3 77/53/3
f 29/129/1 30/107/1 31/130/1
f 30/19/2 77/50/2 78/49/2
f 30/23/4 78/53/4 80/54/4
f 30/23/4 80/54/4 32/24/4
f 30/107/1 32/108/1 31/130/1
f 31/20/5 32/19/5 79/50/5
f 32/19/5 80/49/5 79/50/5
f 33/20/2 81/50/2 34/19/2
f 33/25/3 35/26/3 83/56/3
f 33/25/3 83/56/3 81/55/3
f 33/133/1 34/109/1 35/134/1
f 34/19/2 81/50/2 82/49/2
f 34/25/4 82/55/4 84/56/4
f 34/25/4 84/56/4 36/26/4
f 34/109/1 36/110/1 35/134/1
f 35/20/5 36/19/5 83/50/5
f 36/19/5 84/49/5 83/50/5
f 37/20/2 85/50/2 38/19/2
f 37/27/3 39/28/3 87/58/3
f 37/27/3 87/58/3 85/57/3
f 37/137/1 38/111/1 39/138/1
f 38/19/2 85/50/2 86/49/2
f 38/27/4 86/57/4 88/58/4
f 38/27/4 88/58/4 40/28/4
f 38/111/1 40/112/1 39/138/1
f 39/20/5 40/19/5 87/50/5
f 40/19/5 88/49/5 87/50/5
f 41/30/2 57/40/2 42/29/2
f 41/31/3 43/32/3 59/42/3
f 41/31/3 59/42/3 57/41/3
f 41/151/1 42/143/1 43/152/1
f 42/29/2 57/40/2 58/39/2
f 42/31/4 58/41/4 60/42/4
f 42/31/4 60/42/4 44/32/4
f 42/143/1 44/144/1 43/152/1
f 43/30/5 44/29/5 59/40/5
f 44/29/5 60/39/5 59/40/5
f 45/30/2 61/40/2 46/29/2
f 45/33/3 47/34/3 63/44/3
f 45/33/3 63/44/3 61/43/3
f 45/153/1 46/145/1 47/154/1
f 46/29/2 61/40/2 62/39/2
f 46/33/4 62/43/4 64/44/4
f 46/33/4 64/44/4 48/34/4
f 46/145/1 48/146/1 47/154/1
f 47/30/5 48/29/5 63/40/5
f 48/29/5 64/39/5 63/40/5
f 49/30/2 65/40/2 50/29/2
f 49/35/3 51/36/3 67/46/3
f 49/35/3 67/46/3 65/45/3
f 49/155/1 50/147/1 51/156/1
f 50/29/2 65/40/2 66/39/2
f 50/35/4 66/45/4 68/46/4
f 50/35/4 68/46/4 52/36/4
f 50/147/1 52/148/1 51/156/1
f 51/30/5 52/29/5 67/40/5
f 52/29/5 68/39/5 67/40/5
f 53/30/2 69/40/2 54/29/2
f 53/37/3 55/38/3 71/48/3
f 53/37/3 71/48/3 69/47/3
f 53/157/1 54/149/1 55/158/1
f 54/29/2 69/40/2 70/39/2
f 54/37/4 70/47/4 72/48/4
f 54/37/4 72/48/4 56/38/4
f 54/149/1 56/150/1 55/158/1
f 55/30/5 56/29/5 71/40/5
f 56/29/5 72/39/5 71/40/5
f 57/151/6 59/152/6 58/143/6
f 58/143/6 59/152/6 60/144/6
f 61/153/6 63/154/6 62/145/6
f 62/145/6 63/154/6 64/146/6
f 65/155/6 67/156/6 66/147/6
f 66/147/6 67/156/6 68/148/6
f 69/157/6 71/158/6 70/149/6
f 70/149/6 71/158/6 72/150/6
f 73/123/6 75/124/6 74/105/6
f 74/105/6 75/124/6 76/106/6
f 77/129/6 79/130/6 78/107/6
f 78/107/6 79/130/6 80/108/6
f 81/133/6 83/134/6 82/109/6
f 82/109/6 83/134/6 84/110/6
f 85/137/6 87/138/6 86/111/6
f 86/111/6 87/138/6 88/112/6
f 89/60/2 137/90/2 90/59/2
f 89/61/3 91/62/3 139/92/3
f 89/61/3 139/92/3 137/91/3
f 89/123/1 90/105/1 91/124/1
f 90/59/2 137/90/2 138/89/2
f 90/61/4 138/91/4 140/92/4
f 90/61/4 140/92/4 92/62/4
f 90/105/1 92/106/1 91/124/1
f 91/60/5 92/59/5 139/90/5
f 92/59/5 140/89/5 139/90/5
f 93/60/2 141/90/2 94/59/2
f 93/63/3 95/64/3 143/94/3
f 93/63/3 143/94/3 141/93/3
f 93/129/1 94/107/1 95/130/1
f 94/59/2 141/90/2 142/89/2
f 94/63/4 142/93/4 144/94/4
f 94/63/4 144/94/4 96/64/4
f 94/107/1 96/108/1 95/130/1
f 95/60/5 96/59/5 143/90/5
f 96/59/5 144/89/5 143/90/5
f 97/60/2 145/90/2 98/59/2
f 97/65/3 99/66/3 147/96/3
f 97/65/3 147/96/3 145/95/3
f 97/133/1 98/109/1 99/134/1
f 98/59/2 145/90/2 146/89/2
f 98/65/4 146/95/4 148/96/4
f 98/65/4 148/96/4 100/66/4
f 98/109/1 100/110/1 99/134/1
f 99/60/5 100/59/5 147/90/5
f 100/59/5 148/89/5 147/90/5
f 101/60/2 149/90/2 102/59/2
f 101/67/3 103/68/3 151/98/3
f 101/67/3 151/98/3 149/97/3
f 101/137/1 102/111/1 103/138/1
f 102/59/2 149/90/2 150/89/2
f 102/67/4 150/97/4 152/98/4
f 102/67/4 152/98/4 104/68/4
f 102/111/1 104/112/1 103/138/1
f 103/60/5 104/59/5 151/90/5
f 104/59/5 152/89/5 151/90/5
f 105/70/2 121/80/2 106/69/2
f 105/71/3 107/72/3 123/82/3
f 105/71/3 123/82/3 121/81/3
f 105/151/1 106/143/1 107/152/1
f 106/69/2 121/80/2 122/79/2
f 106/71/4 122/81/4 124/82/4
f 106/71/4 124/82/4 108/72/4
f 106/143/1 108/144/1 107/152/1
f 107/70/5 108/69/5 123/80/5
f 108/69/5 124/79/5 123/80/5
f 109/70/2 125/80/2 110/69/2
f 109/73/3 111/74/3 127/84/3
f 109/73/3 127/84/3 125/83/3
f 109/153/1 110/145/1 111/154/1
f 110/69/2 125/80/2 126/79/2
f 110/73/4 126/83/4 128/84/4
f 110/73/4 128/84/4 112/74/4
f 110/145/1 112/146/1 111/154/1
f 111/70/5 112/69/5 127/80/5
f 112/69/5 128/79/5 127/80/5
f 113/70/2 129/80/2 114/69/2
f 113/75/3 115/76/3 131/86/3
f 113/75/3 131/86/3 129/85/3
f 113/155/1 114/147/1 115/156/1
f 114/69/2 129/80/2 130/79/2
f 114/75/4 130/85/4 132/86/4
f 114/75/4 132/86/4 116/76/4
f 114/147/1 116/148/1 115/156/1
f 115/70/5 116/69/5 131/80/5
f 116/69/5 132/79/5 131/80/5
f 117/70/2 133/80/2 118/69/2
f 117/77/3 119/78/3 135/88/3
f 117/77/3 135/88/3 133/87/3
f 117/157/1 118/149/1 119/158/1
f 118/69/2 133/80/2 134/79/2
f 118/77/4 134/87/4 136/88/4
f 118/77/4 136/88/4 120/78/4
f 118/149/1 120/150/1 119/158/1
f 119/70/5 120/69/5 135/80/5
f 120/69/5 136/79/5 135/80/5
f 121/151/6 123/152/6 122/143/6
f 122/143/6 123/152/6 124/144/6
f 125/153/6 127/154/6 126/145/6
f 126/145/6 127/154/6 128/146/6
f 129/155/6 131/156/6 130/147/6
f 130/147/6 131/156/6 132/148/6
f 133/157/6 135/158/6 134/149/6
f 134/149/6 135/158/6 136/150/6
f 137/123/6 139/124/6 138/105/6
f 138/105/6 139/124/6 140/106/6
f 141/129/6 143/130/6 142/107/6
f 142/107/6 143/130/6 144/108/6
f 145/133/6 147/134/6 146/109/6
f 146/109/6 147/134/6 148/110/6
f 149/137/6 151/138/6 150/111/6
f 150/111/6 151/138/6 152/112/6
f 153/122/1 154/101/1 155/126/1
f 153/159/3 155/162/3 207/198/3
f 153/159/3 207/198/3 205/195/3
f 153/161/2 205/197/2 154/160/2
f 154/101/1 156/102/1 155/126/1
f 154/159/4 206/195/4 208/198/4
f 154/159/4 208/198/4 156/162/4
f 154/160/2 205/197/2 206/196/2
f 155/161/5 156/160/5 207/197/5
f 156/160/5 208/196/5 207/197/5
f 157/129/1 158/107/1 159/130/1
f 157/164/2 193/188/2 158/163/2
f 157/165/3 159/166/3 195/190/3
f 157/165/3 195/190/3 193/189/3
f 158/107/1 160/108/1 159/130/1
f 158/163/2 193/188/2 194/187/2
f 158/165/4 194/189/4 196/190/4
f 158/165/4 196/190/4 160/166/4
f 159/164/5 160/163/5 195/188/5
f 160/163/5 196/187/5 195/188/5
f 161/133/1 162/109/1 163/134/1
f 161/164/2 197/188/2 162/163/2
f 161/167/3 163/168/3 199/192/3
f 161/167/3 199/192/3 197/191/3
f 162/109/1 164/110/1 163/134/1
f 162/163/2 197/188/2 198/187/2
f 162/167/4 198/191/4 200/192/4
f 162/167/4 200/192/4 164/168/4
f 163/164/5 164/163/5 199/188/5
f 164/163/5 200/187/5 199/188/5
f 165/137/1 166/111/1 167/138/1
f 165/164/2 201/188/2 166/163/2
f 165/169/3 167/170/3 203/194/3
f 165/169/3 203/194/3 201/193/3
f 166/111/1 168/112/1 167/138/1
f 166/163/2 201/188/2 202/187/2
f 166/169/4 202/193/4 204/194/4
f 166/169/4 204/194/4 168/170/4
f 167/164/5 168/163/5 203/188/5
f 168/163/5 204/187/5 203/188/5
f 169/153/1 170/145/1 171/154/1
f 169/172/2 181/180/2 170/171/2
f 169/173/3 171/174/3 183/182/3
f 169/173/3 183/182/3 181/181/3
f 170/145/1 172/146/1 171/154/1
f 170/171/2 181/180/2 182/179/2
f 170/173/4 182/181/4 184/182/4
f 170/173/4 184/182/4 172/174/4
f 171/172/5 172/171/5 183/180/5
f 172/171/5 184/179/5 183/180/5
f 173/155/1 174/147/1 175/156/1
f 173/172/2 185/180/2 174/171/2
f 173/175/3 175/176/3 187/184/3
f 173/175/3 187/184/3 185/183/3
f 174/147/1 176/148/1 175/156/1
f 174/171/2 185/180/2 186/179/2
f 174/175/4 186/183/4 188/184/4
f 174/175/4 188/184/4 176/176/4
f 175/172/5 176/171/5 187/180/5
f 176/171/5 188/179/5 187/180/5
f 177/157/1 178/149/1 179/158/1
f 177/172/2 189/180/2 178/171/2
f 177/177/3 179/178/3 191/186/3
f 177/177/3 191/186/3 189/185/3
f 178/149/1 180/150/1 179/158/1
f 178/171/2 189/180/2 190/179/2
f 178/177/4 190/185/4 192/186/4
f 178/177/4 192/186/4 180/178/4
f 179/172/5 180/171/5 191/180/5
f 180/171/5 192/179/5 191/180/5
f 181/153/6 183/154/6 182/145/6
f 182/145/6 183/154/6 184/146/6
f 185/155/6 187/156/6 186/147/6
f 186/147/6 187/156/6 188/148/6
f 189/157/6 191/158/6 190/149/6
f 190/149/6 191/158/6 192/150/6
f 193/129/6 195/130/6 194/107/6
f 194/107/6 195/130/6 196/108/6
f 197/133/6 199/134/6 198/109/6
f 198/109/6 199/134/6 200/110/6
f 201/137/6 203/138/6 202/111/6
f 202/111/6 203/138/6 204/112/6
f 205/122/6 207/126/6 206/101/6
f 206/101/6 207/126/6 208/102/6
f 209/123/1 210/105/1 211/124/1
f 209/200/2 257/230/2 210/199/2
f 209/201/3 211/202/3 259/232/3
f 209/201/3 259/232/3 257/231/3
f 210/105/1 212/106/1 211/124/1
f 210/199/2 257/230/2 258/229/2
f 210/201/4 258/231/4 260/232/4
f 210/201/4 260/232/4 212/202/4
f 211/200/5 212/199/5 259/230/5
f 212/199/5 260/229/5 259/230/5
f 213/129/1 214/107/1 215/130/1
f 213/200/2 261/230/2 214/199/2
f 213/203/3 215/204/3 263/234/3
f 213/203/3 263/234/3 261/233/3
f 214/107/1 216/108/1 215/130/1
f 214/199/2 261/230/2 262/229/2
f 214/203/4 262/233/4 264/234/4
f 214/203/4 264/234/4 216/204/4
f 215/200/5 216/199/5 263/230/5
f 216/199/5 264/229/5 263/230/5
f 217/133/1 218/109/1 219/134/1
f 217/200/2 265/230/2 218/199/2
f 217/205/3 219/206/3 267/236/3
f 217/205/3 267/236/3 265/235/3
f 218/109/1 220/110/1 219/134/1
f 218/199/2 265/230/2 266/229/2
f 218/205/4 266/235/4 268/236/4
f 218/205/4 268/236/4 220/206/4
f 219/200/5 220/199/5 267/230/5
f 220/199/5 268/229/5 267/230/5
f 221/137/1 222/111/1 223/138/1
f 221/200/2 269/230/2 222/199/2
f 221/207/3 223/208/3 271/238/3
f 221/207/3 271/238/3 269/237/3
f 222/111/1 224/112/1 223/138/1
f 222/199/2 269/230/2 270/229/2
f 222/207/4 270/237/4 272/238/4
f 222/207/4 272/238/4 224/208/4
f 223/200/5 224/199/5 271/230/5
f 224/199/5 272/229/5 271/230/5
f 225/151/1 226/143/1 227/152/1
f 225/210/2 241/220/2 226/209/2
f 225/211/3 227/212/3 243/222/3
f 225/211/3 243/222/3 241/221/3
f 226/143/1 228/144/1 227/152/1
f 226/209/2 241/220/2 242/219/2
f 226/211/4 242/221/4 244/222/4
f 226/211/4 244/222/4 228/212/4
f 227/210/5 228/209/5 243/220/5
f 228/209/5 244/219/5 243/220/5
f 229/153/1 230/145/1 231/154/1
f 229/210/2 245/220/2 230/209/2
f 229/213/3 231/214/3 247/224/3
f 229/213/3 247/224/3 245/223/3
f 230/145/1 232/146/1 231/154/1
f 230/209/2 245/220/2 246/219/2
f 230/213/4 246/223/4 248/224/4
f 230/213/4 248/224/4 232/214/4
f 231/210/5 232/209/5 247/220/5
f 232/209/5 248/219/5 247/220/5
f 233/155/1 234/147/1 235/156/1
f 233/210/2 249/220/2 234/209/2
f 233/215/3 235/216/3 251/226/3
f 233/215/3 251/226/3 249/225/3
f 234/147/1 236/148/1 235/156/1
f 234/209/2 249/220/2 250/219/2
f 234/215/4 250/225/4 252/226/4
f 234/215/4 252/226/4 236/216/4
f 235/210/5 236/209/5 251/220/5
f 236/209/5 252/219/5 251/220/5
f 237/157/1 238/149/1 239/158/1
f 237/210/2 253/220/2 238/209/2
f 237/217/3 239/218/3 255/228/3
f 237/217/3 255/228/3 253/227/3
f 238/149/1 240/150/1 239/158/1
f 238/209/2 253/220/2 254/219/2
f 238/217/4 254/227/4 256/228/4
f 238/217/4 256/228/4 240/218/4
f 239/210/5 240/209/5 255/220/5
f 240/209/5 256/219/5 255/220/5
f 241/151/6 243/152/6 242/143/6
f 242/143/6 243/152/6 244/144/6
f 245/153/6 247/154/6 246/145/6
f 246/145/6 247/154/6 248/146/6
f 249/155/6 251/156/6 250/147/6
f 250/147/6 251/156/6 252/148/6
f 253/157/6 255/158/6 254/149/6
f 254/149/6 255/158/6 256/150/6
f 257/123/6 259/124/6 258/105/6
f 258/105/6 259/124/6 260/106/6
f 261/129/6 263/130/6 262/107/6
f 262/107/6 263/130/6 264/108/6
f 265/133/6 267/134/6 266/109/6
f 266/109/6 267/134/6 268/110/6
f 269/137/6 271/138/6 270/111/6
f 270/111/6 271/138/6 272/112/6
f 273/127/6 275/128/6 274/113/6
f 274/113/6 275/128/6 276/114/6
f 277/131/6 279/132/6 278/115/6
f 278/115/6 279/132/6 280/116/6
f 281/135/6 283/136/6 282/117/6
f 282/117/6 283/136/6 284/118/6
f 285/139/6 287/140/6 286/119/6
f 286/119/6 287/140/6 288/120/6
f 289/121/6 291/125/6 290/103/6
f 290/103/6 291/125/6 292/104/6
f 293/141/6 295/142/6 294/99/6
f 294/99/6 295/142/6 296/100/6
