# exported by ae3d_export.py v3
# object: Street_BlockR0_Coping
mtllib Street_BlockR0_Coping.mtl
v -1.097337 0.015000 0.015000
v -1.097337 0.015000 0.305000
v -1.097337 0.105000 0.015000
v -1.097337 0.105000 0.305000
v -1.092944 0.004393 0.015000
v -1.092944 0.004393 0.305000
v -1.092944 0.015000 0.004393
v -1.092944 0.015000 0.315607
v -1.092944 0.105000 0.004393
v -1.092944 0.105000 0.315607
v -1.092944 0.115607 0.015000
v -1.092944 0.115607 0.305000
v -1.090997 0.006340 0.006340
v -1.090997 0.006340 0.313660
v -1.090997 0.113660 0.006340
v -1.090997 0.113660 0.313660
v -1.082337 0.000000 0.015000
v -1.082337 0.000000 0.305000
v -1.082337 0.004393 0.004393
v -1.082337 0.004393 0.315607
v -1.082337 0.015000 0.000000
v -1.082337 0.015000 0.320000
v -1.082337 0.105000 0.000000
v -1.082337 0.105000 0.320000
v -1.082337 0.115607 0.004393
v -1.082337 0.115607 0.315607
v -1.082337 0.120000 0.015000
v -1.082337 0.120000 0.305000
v 1.082337 0.000000 0.015000
v 1.082337 0.000000 0.305000
v 1.082337 0.004393 0.004393
v 1.082337 0.004393 0.315607
v 1.082337 0.015000 0.000000
v 1.082337 0.015000 0.320000
v 1.082337 0.105000 0.000000
v 1.082337 0.105000 0.320000
v 1.082337 0.115607 0.004393
v 1.082337 0.115607 0.315607
v 1.082337 0.120000 0.015000
v 1.082337 0.120000 0.305000
v 1.090997 0.006340 0.006340
v 1.090997 0.006340 0.313660
v 1.090997 0.113660 0.006340
v 1.090997 0.113660 0.313660
v 1.092943 0.004393 0.015000
v 1.092943 0.015000 0.004393
v 1.092944 0.004393 0.305000
v 1.092944 0.015000 0.315607
v 1.092944 0.105000 0.004393
v 1.092944 0.105000 0.315607
v 1.092944 0.115607 0.015000
v 1.092944 0.115607 0.305000
v 1.097337 0.015000 0.015000
v 1.097337 0.015000 0.305000
v 1.097337 0.105000 0.015000
v 1.097337 0.105000 0.305000
vt -2.404476 -0.671000
vt -2.404476 -0.033000
vt -2.404476 0.033000
vt -2.404476 0.231000
vt -2.400194 -0.690053
vt -2.400194 -0.013947
vt -2.400194 0.013947
vt -2.400194 0.250053
vt -2.381141 -0.694335
vt -2.381141 -0.671000
vt -2.381141 -0.033000
vt -2.381141 -0.009665
vt -2.381141 0.009665
vt -2.381141 0.033000
vt -2.381141 0.231000
vt -2.381141 0.254335
vt -0.694335 0.033000
vt -0.694335 0.231000
vt -0.690053 0.013947
vt -0.690053 0.250053
vt -0.671000 0.009665
vt -0.671000 0.033000
vt -0.671000 0.231000
vt -0.671000 0.254335
vt -0.033000 0.009665
vt -0.033000 0.033000
vt -0.033000 0.231000
vt -0.033000 0.254335
vt -0.013947 0.013947
vt -0.013947 0.250053
vt -0.009665 0.033000
vt -0.009665 0.231000
vt 2.381141 -0.694335
vt 2.381141 -0.671000
vt 2.381141 -0.033000
vt 2.381141 -0.009665
vt 2.381141 0.009665
vt 2.381141 0.033000
vt 2.381141 0.231000
vt 2.381141 0.254335
vt 2.400193 -0.013947
vt 2.400193 0.013947
vt 2.400194 -0.690053
vt 2.400194 -0.013947
vt 2.400194 0.013947
vt 2.400194 0.250053
vt 2.404475 -0.033000
vt 2.404475 0.033000
vt 2.404476 -0.671000
vt 2.404476 -0.033000
vt 2.404476 0.033000
vt 2.404476 0.231000
vn -1.000000 0.000000 0.000000
vn -0.923885 -0.382670 0.000000
vn -0.923883 0.000000 -0.382675
vn -0.923883 0.382675 0.000000
vn -0.923881 0.000001 0.382681
vn -0.888075 0.325053 -0.325059
vn -0.888074 0.325060 0.325056
vn -0.888073 -0.325053 -0.325065
vn -0.888072 -0.325053 0.325067
vn -0.382682 0.000000 0.923880
vn -0.382680 0.923881 0.000000
vn -0.382679 -0.923882 0.000000
vn -0.382679 0.000000 -0.923881
vn -0.325059 -0.325060 0.888072
vn -0.325058 -0.325059 -0.888073
vn -0.325058 0.888073 0.325059
vn -0.325057 -0.888075 0.325055
vn -0.325057 0.325059 -0.888073
vn -0.325056 -0.888075 -0.325055
vn -0.325056 0.325057 0.888074
vn -0.325056 0.888075 -0.325055
vn 0.000000 -1.000000 0.000000
vn 0.000000 -0.923879 -0.382685
vn 0.000000 -0.923879 0.382684
vn 0.000000 -0.382684 -0.923879
vn 0.000000 -0.382684 0.923879
vn 0.000000 0.000000 -1.000000
vn 0.000000 0.000000 1.000000
vn 0.000000 0.382683 0.923880
vn 0.000000 0.382684 -0.923880
vn 0.000000 0.923879 -0.382684
vn 0.000000 0.923880 0.382683
vn 0.000000 1.000000 0.000000
vn 0.325056 -0.888075 -0.325055
vn 0.325056 0.888075 -0.325055
vn 0.325056 0.888075 0.325055
vn 0.325057 -0.888075 0.325055
vn 0.325058 -0.325060 -0.888073
vn 0.325058 0.325059 -0.888073
vn 0.325058 0.325059 0.888073
vn 0.325059 -0.325060 0.888072
vn 0.382678 0.923882 0.000000
vn 0.382679 -0.923882 0.000000
vn 0.382679 0.000000 -0.923881
vn 0.382679 0.000000 0.923881
vn 0.888072 -0.325052 -0.325067
vn 0.888073 -0.325053 0.325065
vn 0.888075 0.325054 0.325059
vn 0.888076 0.325054 -0.325055
vn 0.923883 0.000000 -0.382675
vn 0.923883 0.000000 0.382674
vn 0.923885 -0.382670 0.000000
vn 0.923885 0.382670 0.000000
vn 1.000000 0.000000 0.000000
usemtl TrimStone
f 1/26/48 5/25/48 13/29/48
f 1/26/48 13/29/48 7/31/48
f 1/26/51 7/31/51 9/32/51
f 1/26/51 9/32/51 3/27/51
f 1/26/53 2/22/53 6/21/53
f 1/26/53 6/21/53 5/25/53
f 1/26/54 3/27/54 2/22/54
f 2/22/49 8/17/49 14/19/49
f 2/22/49 14/19/49 6/21/49
f 2/22/50 4/23/50 10/18/50
f 2/22/50 10/18/50 8/17/50
f 2/22/54 3/27/54 4/23/54
f 3/27/47 9/32/47 15/30/47
f 3/27/47 15/30/47 11/28/47
f 3/27/52 11/28/52 4/23/52
f 4/23/46 12/24/46 16/20/46
f 4/23/46 16/20/46 10/18/46
f 4/23/52 11/28/52 12/24/52
f 5/2/36 17/11/36 13/6/36
f 5/2/42 6/1/42 18/10/42
f 5/2/42 18/10/42 17/11/42
f 6/1/35 14/5/35 18/10/35
f 7/3/40 13/7/40 21/14/40
f 7/3/45 21/14/45 9/4/45
f 8/3/39 22/14/39 14/7/39
f 8/3/44 10/4/44 22/14/44
f 9/4/41 23/15/41 15/8/41
f 9/4/45 21/14/45 23/15/45
f 10/4/38 16/8/38 24/15/38
f 10/4/44 24/15/44 22/14/44
f 11/2/37 15/6/37 27/11/37
f 11/2/43 27/11/43 12/1/43
f 12/1/34 28/10/34 16/5/34
f 12/1/43 27/11/43 28/10/43
f 13/6/36 17/11/36 19/12/36
f 13/7/40 19/13/40 21/14/40
f 14/5/35 20/9/35 18/10/35
f 14/7/39 22/14/39 20/13/39
f 15/6/37 25/12/37 27/11/37
f 15/8/41 23/15/41 25/16/41
f 16/5/34 28/10/34 26/9/34
f 16/8/38 26/16/38 24/15/38
f 17/11/32 29/35/32 31/36/32
f 17/11/32 31/36/32 19/12/32
f 17/11/33 18/10/33 30/34/33
f 17/11/33 30/34/33 29/35/33
f 18/10/31 20/9/31 30/34/31
f 19/13/29 31/37/29 21/14/29
f 20/9/31 32/33/31 30/34/31
f 20/13/30 22/14/30 32/37/30
f 21/14/28 33/38/28 35/39/28
f 21/14/28 35/39/28 23/15/28
f 21/14/29 31/37/29 33/38/29
f 22/14/27 24/15/27 34/38/27
f 22/14/30 34/38/30 32/37/30
f 23/15/26 35/39/26 37/40/26
f 23/15/26 37/40/26 25/16/26
f 24/15/25 26/16/25 36/39/25
f 24/15/27 36/39/27 34/38/27
f 25/12/24 37/36/24 39/35/24
f 25/12/24 39/35/24 27/11/24
f 26/9/23 28/10/23 38/33/23
f 26/16/25 38/40/25 36/39/25
f 27/11/22 39/35/22 40/34/22
f 27/11/22 40/34/22 28/10/22
f 28/10/23 40/34/23 38/33/23
f 29/35/11 30/34/11 45/47/11
f 29/35/16 41/41/16 31/36/16
f 29/35/16 45/47/16 41/41/16
f 30/34/11 47/49/11 45/47/11
f 30/34/21 32/33/21 42/43/21
f 30/34/21 42/43/21 47/49/21
f 31/37/20 41/42/20 33/38/20
f 32/37/18 34/38/18 42/45/18
f 33/38/10 46/48/10 35/39/10
f 33/38/20 41/42/20 46/48/20
f 34/38/13 36/39/13 50/52/13
f 34/38/13 50/52/13 48/51/13
f 34/38/18 48/51/18 42/45/18
f 35/39/10 46/48/10 49/52/10
f 35/39/14 43/46/14 37/40/14
f 35/39/14 49/52/14 43/46/14
f 36/39/15 38/40/15 44/46/15
f 36/39/15 44/46/15 50/52/15
f 37/36/17 43/44/17 39/35/17
f 38/33/19 40/34/19 44/43/19
f 39/35/12 51/50/12 40/34/12
f 39/35/17 43/44/17 51/50/17
f 40/34/12 51/50/12 52/49/12
f 40/34/19 52/49/19 44/43/19
f 41/29/7 45/25/7 53/26/7
f 41/29/7 53/26/7 46/31/7
f 42/19/6 48/17/6 54/22/6
f 42/19/6 54/22/6 47/21/6
f 43/30/9 49/32/9 55/27/9
f 43/30/9 55/27/9 51/28/9
f 44/20/8 52/24/8 56/23/8
f 44/20/8 56/23/8 50/18/8
f 45/25/4 47/21/4 53/26/4
f 46/31/5 53/26/5 49/32/5
f 47/21/4 54/22/4 53/26/4
f 48/17/3 50/18/3 54/22/3
f 49/32/5 53/26/5 55/27/5
f 50/18/3 56/23/3 54/22/3
f 51/28/2 55/27/2 52/24/2
f 52/24/2 55/27/2 56/23/2
f 53/26/1 54/22/1 56/23/1
f 53/26/1 56/23/1 55/27/1
