# exported by ae3d_export.py v3
# object: Street_BlockR2_Glass
mtllib Street_BlockR2_Glass.mtl
v -3.135000 0.380000 0.225000
v -3.135000 1.850000 0.225000
v -3.135000 6.680000 0.225000
v -3.135000 8.150000 0.225000
v -2.065000 0.380000 0.225000
v -2.065000 1.850000 0.225000
v -2.065000 6.680000 0.225000
v -2.065000 8.150000 0.225000
v -0.635000 -0.550000 0.225000
v -0.635000 1.800000 0.225000
v -0.535000 3.530000 0.225000
v -0.535000 5.000000 0.225000
v 0.535000 3.530000 0.225000
v 0.535000 5.000000 0.225000
v 0.635000 -0.550000 0.225000
v 0.635000 1.800000 0.225000
v 2.065000 3.530000 0.225000
v 2.065000 5.000000 0.225000
v 2.065000 6.680000 0.225000
v 2.065000 8.150000 0.225000
v 3.135000 3.530000 0.225000
v 3.135000 5.000000 0.225000
v 3.135000 6.680000 0.225000
v 3.135000 8.150000 0.225000
v 4.665000 0.380000 0.225000
v 4.665000 1.850000 0.225000
v 4.665000 3.530000 0.225000
v 4.665000 5.000000 0.225000
v 4.665000 6.680000 0.225000
v 4.665000 8.150000 0.225000
v 5.735000 0.380000 0.225000
v 5.735000 1.850000 0.225000
v 5.735000 3.530000 0.225000
v 5.735000 5.000000 0.225000
v 5.735000 6.680000 0.225000
v 5.735000 8.150000 0.225000
vt 0.000000 0.000000
vt 0.000000 1.000000
vt 1.000000 0.000000
vt 1.000000 1.000000
vn 0.000000 0.000000 -1.000000
vn 0.000000 0.000000 1.000000
usemtl WindowGlass
f 1/1/1 2/2/1 6/4/1
f 1/1/1 6/4/1 5/3/1
f 3/1/1 4/2/1 8/4/1
f 3/1/1 8/4/1 7/3/1
f 9/1/2 15/3/2 16/4/2
f 9/1/2 16/4/2 10/2/2
f 11/1/2 13/3/2 14/4/2
f 11/1/2 14/4/2 12/2/2
f 17/1/1 18/2/1 22/4/1
f 17/1/1 22/4/1 21/3/1
f 19/1/1 20/2/1 24/4/1
f 19/1/1 24/4/1 23/3/1
f 25/1/2 31/3/2 32/4/2
f 25/1/2 32/4/2 26/2/2
f 27/1/2 33/3/2 34/4/2
f 27/1/2 34/4/2 28/2/2
f 29/1/2 35/3/2 36/4/2
f 29/1/2 36/4/2 30/2/2
