# exported by ae3d_export.py v3
# object: Street_BlockR2
mtllib Street_BlockR2.mtl
v -6.500000 -0.610000 0.000000
v -6.500000 -0.610000 9.000000
v -6.500000 -0.590000 0.000000
v -6.500000 0.340000 0.000000
v -6.500000 1.840000 0.000000
v -6.500000 1.890000 0.000000
v -6.500000 3.490000 0.000000
v -6.500000 5.040000 0.000000
v -6.500000 6.640000 0.000000
v -6.500000 8.190000 0.000000
v -6.500000 9.790000 0.000000
v -6.500000 11.340000 0.000000
v -6.500000 14.000000 0.000000
v -6.500000 14.000000 9.000000
v -5.775000 -0.610000 0.000000
v -5.775000 -0.590000 0.000000
v -5.775000 0.340000 0.000000
v -5.775000 0.340000 0.240000
v -5.775000 1.840000 0.000000
v -5.775000 1.890000 0.000000
v -5.775000 1.890000 0.240000
v -5.775000 3.490000 0.000000
v -5.775000 3.490000 0.240000
v -5.775000 5.040000 0.000000
v -5.775000 5.040000 0.240000
v -5.775000 6.640000 0.000000
v -5.775000 6.640000 0.240000
v -5.775000 8.190000 0.000000
v -5.775000 8.190000 0.240000
v -5.775000 9.790000 0.000000
v -5.775000 9.790000 0.240000
v -5.775000 11.340000 0.000000
v -5.775000 11.340000 0.240000
v -5.775000 14.000000 0.000000
v -4.625000 -0.610000 0.000000
v -4.625000 -0.590000 0.000000
v -4.625000 0.340000 0.000000
v -4.625000 0.340000 0.240000
v -4.625000 1.840000 0.000000
v -4.625000 1.890000 0.000000
v -4.625000 1.890000 0.240000
v -4.625000 3.490000 0.000000
v -4.625000 3.490000 0.240000
v -4.625000 5.040000 0.000000
v -4.625000 5.040000 0.240000
v -4.625000 6.640000 0.000000
v -4.625000 6.640000 0.240000
v -4.625000 8.190000 0.000000
v -4.625000 8.190000 0.240000
v -4.625000 9.790000 0.000000
v -4.625000 9.790000 0.240000
v -4.625000 11.340000 0.000000
v -4.625000 11.340000 0.240000
v -4.625000 14.000000 0.000000
v -3.175000 -0.610000 0.000000
v -3.175000 -0.590000 0.000000
v -3.175000 0.340000 0.000000
v -3.175000 0.340000 0.240000
v -3.175000 1.840000 0.000000
v -3.175000 1.890000 0.000000
v -3.175000 1.890000 0.240000
v -3.175000 3.490000 0.000000
v -3.175000 3.490000 0.240000
v -3.175000 5.040000 0.000000
v -3.175000 5.040000 0.240000
v -3.175000 6.640000 0.000000
v -3.175000 6.640000 0.240000
v -3.175000 8.190000 0.000000
v -3.175000 8.190000 0.240000
v -3.175000 9.790000 0.000000
v -3.175000 9.790000 0.240000
v -3.175000 11.340000 0.000000
v -3.175000 11.340000 0.240000
v -3.175000 14.000000 0.000000
v -2.025000 -0.610000 0.000000
v -2.025000 -0.590000 0.000000
v -2.025000 0.340000 0.000000
v -2.025000 0.340000 0.240000
v -2.025000 1.840000 0.000000
v -2.025000 1.890000 0.000000
v -2.025000 1.890000 0.240000
v -2.025000 3.490000 0.000000
v -2.025000 3.490000 0.240000
v -2.025000 5.040000 0.000000
v -2.025000 5.040000 0.240000
v -2.025000 6.640000 0.000000
v -2.025000 6.640000 0.240000
v -2.025000 8.190000 0.000000
v -2.025000 8.190000 0.240000
v -2.025000 9.790000 0.000000
v -2.025000 9.790000 0.240000
v -2.025000 11.340000 0.000000
v -2.025000 11.340000 0.240000
v -2.025000 14.000000 0.000000
v -0.675000 -0.610000 0.000000
v -0.675000 -0.590000 0.000000
v -0.675000 -0.590000 0.240000
v -0.675000 0.340000 0.000000
v -0.675000 1.840000 0.000000
v -0.675000 1.840000 0.240000
v -0.675000 1.890000 0.000000
v -0.675000 3.490000 0.000000
v -0.675000 5.040000 0.000000
v -0.675000 6.640000 0.000000
v -0.675000 8.190000 0.000000
v -0.675000 9.790000 0.000000
v -0.675000 11.340000 0.000000
v -0.675000 14.000000 0.000000
v -0.575000 -0.610000 0.000000
v -0.575000 -0.590000 0.000000
v -0.575000 1.840000 0.000000
v -0.575000 1.890000 0.000000
v -0.575000 3.490000 0.000000
v -0.575000 3.490000 0.240000
v -0.575000 5.040000 0.000000
v -0.575000 5.040000 0.240000
v -0.575000 6.640000 0.000000
v -0.575000 6.640000 0.240000
v -0.575000 8.190000 0.000000
v -0.575000 8.190000 0.240000
v -0.575000 9.790000 0.000000
v -0.575000 9.790000 0.240000
v -0.575000 11.340000 0.000000
v -0.575000 11.340000 0.240000
v -0.575000 14.000000 0.000000
v 0.575000 -0.610000 0.000000
v 0.575000 -0.590000 0.000000
v 0.575000 1.840000 0.000000
v 0.575000 1.890000 0.000000
v 0.575000 3.490000 0.000000
v 0.575000 3.490000 0.240000
v 0.575000 5.040000 0.000000
v 0.575000 5.040000 0.240000
v 0.575000 6.640000 0.000000
v 0.575000 6.640000 0.240000
v 0.575000 8.190000 0.000000
v 0.575000 8.190000 0.240000
v 0.575000 9.790000 0.000000
v 0.575000 9.790000 0.240000
v 0.575000 11.340000 0.000000
v 0.575000 11.340000 0.240000
v 0.575000 14.000000 0.000000
v 0.675000 -0.610000 0.000000
v 0.675000 -0.590000 0.000000
v 0.675000 -0.590000 0.240000
v 0.675000 0.340000 0.000000
v 0.675000 1.840000 0.000000
v 0.675000 1.840000 0.240000
v 0.675000 1.890000 0.000000
v 0.675000 3.490000 0.000000
v 0.675000 5.040000 0.000000
v 0.675000 6.640000 0.000000
v 0.675000 8.190000 0.000000
v 0.675000 9.790000 0.000000
v 0.675000 11.340000 0.000000
v 0.675000 14.000000 0.000000
v 2.025000 -0.610000 0.000000
v 2.025000 -0.590000 0.000000
v 2.025000 0.340000 0.000000
v 2.025000 0.340000 0.240000
v 2.025000 1.840000 0.000000
v 2.025000 1.890000 0.000000
v 2.025000 1.890000 0.240000
v 2.025000 3.490000 0.000000
v 2.025000 3.490000 0.240000
v 2.025000 5.040000 0.000000
v 2.025000 5.040000 0.240000
v 2.025000 6.640000 0.000000
v 2.025000 6.640000 0.240000
v 2.025000 8.190000 0.000000
v 2.025000 8.190000 0.240000
v 2.025000 9.790000 0.000000
v 2.025000 9.790000 0.240000
v 2.025000 11.340000 0.000000
v 2.025000 11.340000 0.240000
v 2.025000 14.000000 0.000000
v 3.175000 -0.610000 0.000000
v 3.175000 -0.590000 0.000000
v 3.175000 0.340000 0.000000
v 3.175000 0.340000 0.240000
v 3.175000 1.840000 0.000000
v 3.175000 1.890000 0.000000
v 3.175000 1.890000 0.240000
v 3.175000 3.490000 0.000000
v 3.175000 3.490000 0.240000
v 3.175000 5.040000 0.000000
v 3.175000 5.040000 0.240000
v 3.175000 6.640000 0.000000
v 3.175000 6.640000 0.240000
v 3.175000 8.190000 0.000000
v 3.175000 8.190000 0.240000
v 3.175000 9.790000 0.000000
v 3.175000 9.790000 0.240000
v 3.175000 11.340000 0.000000
v 3.175000 11.340000 0.240000
v 3.175000 14.000000 0.000000
v 4.625000 -0.610000 0.000000
v 4.625000 -0.590000 0.000000
v 4.625000 0.340000 0.000000
v 4.625000 0.340000 0.240000
v 4.625000 1.840000 0.000000
v 4.625000 1.890000 0.000000
v 4.625000 1.890000 0.240000
v 4.625000 3.490000 0.000000
v 4.625000 3.490000 0.240000
v 4.625000 5.040000 0.000000
v 4.625000 5.040000 0.240000
v 4.625000 6.640000 0.000000
v 4.625000 6.640000 0.240000
v 4.625000 8.190000 0.000000
v 4.625000 8.190000 0.240000
v 4.625000 9.790000 0.000000
v 4.625000 9.790000 0.240000
v 4.625000 11.340000 0.000000
v 4.625000 11.340000 0.240000
v 4.625000 14.000000 0.000000
v 5.775000 -0.610000 0.000000
v 5.775000 -0.590000 0.000000
v 5.775000 0.340000 0.000000
v 5.775000 0.340000 0.240000
v 5.775000 1.840000 0.000000
v 5.775000 1.890000 0.000000
v 5.775000 1.890000 0.240000
v 5.775000 3.490000 0.000000
v 5.775000 3.490000 0.240000
v 5.775000 5.040000 0.000000
v 5.775000 5.040000 0.240000
v 5.775000 6.640000 0.000000
v 5.775000 6.640000 0.240000
v 5.775000 8.190000 0.000000
v 5.775000 8.190000 0.240000
v 5.775000 9.790000 0.000000
v 5.775000 9.790000 0.240000
v 5.775000 11.340000 0.000000
v 5.775000 11.340000 0.240000
v 5.775000 14.000000 0.000000
v 6.500000 -0.610000 0.000000
v 6.500000 -0.610000 9.000000
v 6.500000 -0.590000 0.000000
v 6.500000 0.340000 0.000000
v 6.500000 1.840000 0.000000
v 6.500000 1.890000 0.000000
v 6.500000 3.490000 0.000000
v 6.500000 5.040000 0.000000
v 6.500000 6.640000 0.000000
v 6.500000 8.190000 0.000000
v 6.500000 9.790000 0.000000
v 6.500000 11.340000 0.000000
v 6.500000 14.000000 0.000000
v 6.500000 14.000000 9.000000
vt -7.560000 -0.512400
vt -7.560000 11.760000
vt -5.460000 -7.560000
vt -5.460000 -0.512400
vt -5.460000 -0.495600
vt -5.460000 0.000000
vt -5.460000 0.285600
vt -5.460000 1.545600
vt -5.460000 1.587600
vt -5.460000 2.931600
vt -5.460000 4.233600
vt -5.460000 5.577600
vt -5.460000 6.879600
vt -5.460000 8.223600
vt -5.460000 9.525600
vt -5.460000 11.760000
vt -4.851000 -0.512400
vt -4.851000 -0.495600
vt -4.851000 -0.201600
vt -4.851000 0.000000
vt -4.851000 0.285600
vt -4.851000 1.545600
vt -4.851000 1.587600
vt -4.851000 2.931600
vt -4.851000 4.233600
vt -4.851000 5.577600
vt -4.851000 6.879600
vt -4.851000 8.223600
vt -4.851000 9.525600
vt -4.851000 11.760000
vt -3.885000 -0.512400
vt -3.885000 -0.495600
vt -3.885000 -0.201600
vt -3.885000 0.000000
vt -3.885000 0.285600
vt -3.885000 1.545600
vt -3.885000 1.587600
vt -3.885000 2.931600
vt -3.885000 4.233600
vt -3.885000 5.577600
vt -3.885000 6.879600
vt -3.885000 8.223600
vt -3.885000 9.525600
vt -3.885000 11.760000
vt -2.667000 -0.512400
vt -2.667000 -0.495600
vt -2.667000 -0.201600
vt -2.667000 0.000000
vt -2.667000 0.285600
vt -2.667000 1.545600
vt -2.667000 1.587600
vt -2.667000 2.931600
vt -2.667000 4.233600
vt -2.667000 5.577600
vt -2.667000 6.879600
vt -2.667000 8.223600
vt -2.667000 9.525600
vt -2.667000 11.760000
vt -1.701000 -0.512400
vt -1.701000 -0.495600
vt -1.701000 -0.201600
vt -1.701000 0.000000
vt -1.701000 0.285600
vt -1.701000 1.545600
vt -1.701000 1.587600
vt -1.701000 2.931600
vt -1.701000 4.233600
vt -1.701000 5.577600
vt -1.701000 6.879600
vt -1.701000 8.223600
vt -1.701000 9.525600
vt -1.701000 11.760000
vt -0.567000 -0.512400
vt -0.567000 -0.495600
vt -0.567000 -0.201600
vt -0.567000 0.000000
vt -0.567000 0.285600
vt -0.567000 1.545600
vt -0.567000 1.587600
vt -0.567000 2.931600
vt -0.567000 4.233600
vt -0.567000 5.577600
vt -0.567000 6.879600
vt -0.567000 8.223600
vt -0.567000 9.525600
vt -0.567000 11.760000
vt -0.483000 -0.512400
vt -0.483000 -0.495600
vt -0.483000 -0.201600
vt -0.483000 0.000000
vt -0.483000 1.545600
vt -0.483000 1.587600
vt -0.483000 2.931600
vt -0.483000 4.233600
vt -0.483000 5.577600
vt -0.483000 6.879600
vt -0.483000 8.223600
vt -0.483000 9.525600
vt -0.483000 11.760000
vt -0.201600 -0.495600
vt -0.201600 0.285600
vt -0.201600 1.545600
vt -0.201600 1.587600
vt -0.201600 2.931600
vt -0.201600 4.233600
vt -0.201600 5.577600
vt -0.201600 6.879600
vt -0.201600 8.223600
vt -0.201600 9.525600
vt 0.000000 -0.512400
vt 0.000000 -0.495600
vt 0.000000 0.285600
vt 0.000000 1.545600
vt 0.000000 1.587600
vt 0.000000 2.931600
vt 0.000000 4.233600
vt 0.000000 5.577600
vt 0.000000 6.879600
vt 0.000000 8.223600
vt 0.000000 9.525600
vt 0.000000 11.760000
vt 0.483000 -0.512400
vt 0.483000 -0.495600
vt 0.483000 -0.201600
vt 0.483000 0.000000
vt 0.483000 1.545600
vt 0.483000 1.587600
vt 0.483000 2.931600
vt 0.483000 4.233600
vt 0.483000 5.577600
vt 0.483000 6.879600
vt 0.483000 8.223600
vt 0.483000 9.525600
vt 0.483000 11.760000
vt 0.567000 -0.512400
vt 0.567000 -0.495600
vt 0.567000 -0.201600
vt 0.567000 0.000000
vt 0.567000 0.285600
vt 0.567000 1.545600
vt 0.567000 1.587600
vt 0.567000 2.931600
vt 0.567000 4.233600
vt 0.567000 5.577600
vt 0.567000 6.879600
vt 0.567000 8.223600
vt 0.567000 9.525600
vt 0.567000 11.760000
vt 1.701000 -0.512400
vt 1.701000 -0.495600
vt 1.701000 -0.201600
vt 1.701000 0.000000
vt 1.701000 0.285600
vt 1.701000 1.545600
vt 1.701000 1.587600
vt 1.701000 2.931600
vt 1.701000 4.233600
vt 1.701000 5.577600
vt 1.701000 6.879600
vt 1.701000 8.223600
vt 1.701000 9.525600
vt 1.701000 11.760000
vt 2.667000 -0.512400
vt 2.667000 -0.495600
vt 2.667000 -0.201600
vt 2.667000 0.000000
vt 2.667000 0.285600
vt 2.667000 1.545600
vt 2.667000 1.587600
vt 2.667000 2.931600
vt 2.667000 4.233600
vt 2.667000 5.577600
vt 2.667000 6.879600
vt 2.667000 8.223600
vt 2.667000 9.525600
vt 2.667000 11.760000
vt 3.885000 -0.512400
vt 3.885000 -0.495600
vt 3.885000 -0.201600
vt 3.885000 0.000000
vt 3.885000 0.285600
vt 3.885000 1.545600
vt 3.885000 1.587600
vt 3.885000 2.931600
vt 3.885000 4.233600
vt 3.885000 5.577600
vt 3.885000 6.879600
vt 3.885000 8.223600
vt 3.885000 9.525600
vt 3.885000 11.760000
vt 4.851000 -0.512400
vt 4.851000 -0.495600
vt 4.851000 -0.201600
vt 4.851000 0.000000
vt 4.851000 0.285600
vt 4.851000 1.545600
vt 4.851000 1.587600
vt 4.851000 2.931600
vt 4.851000 4.233600
vt 4.851000 5.577600
vt 4.851000 6.879600
vt 4.851000 8.223600
vt 4.851000 9.525600
vt 4.851000 11.760000
vt 5.460000 -7.560000
vt 5.460000 -0.512400
vt 5.460000 -0.495600
vt 5.460000 0.000000
vt 5.460000 0.285600
vt 5.460000 1.545600
vt 5.460000 1.587600
vt 5.460000 2.931600
vt 5.460000 4.233600
vt 5.460000 5.577600
vt 5.460000 6.879600
vt 5.460000 8.223600
vt 5.460000 9.525600
vt 5.460000 11.760000
vn -1.000000 0.000000 0.000000
vn 0.000000 -1.000000 0.000000
vn 0.000000 0.000000 -1.000000
vn 0.000000 0.000000 1.000000
vn 0.000000 1.000000 0.000000
vn 1.000000 0.000000 0.000000
usemtl WallBrick
f 1/4/3 3/5/3 16/18/3
f 1/4/3 16/18/3 15/17/3
f 1/6/2 237/208/2 238/205/2
f 1/6/2 238/205/2 2/3/2
f 1/110/1 2/1/1 14/2/1
f 1/110/1 14/2/1 13/121/1
f 2/4/4 238/206/4 250/218/4
f 2/4/4 250/218/4 14/16/4
f 3/5/3 4/7/3 17/21/3
f 3/5/3 17/21/3 16/18/3
f 4/7/3 5/8/3 19/22/3
f 4/7/3 19/22/3 17/21/3
f 5/8/3 6/9/3 20/23/3
f 5/8/3 20/23/3 19/22/3
f 6/9/3 7/10/3 22/24/3
f 6/9/3 22/24/3 20/23/3
f 7/10/3 8/11/3 24/25/3
f 7/10/3 24/25/3 22/24/3
f 8/11/3 9/12/3 26/26/3
f 8/11/3 26/26/3 24/25/3
f 9/12/3 10/13/3 28/27/3
f 9/12/3 28/27/3 26/26/3
f 10/13/3 11/14/3 30/28/3
f 10/13/3 30/28/3 28/27/3
f 11/14/3 12/15/3 32/29/3
f 11/14/3 32/29/3 30/28/3
f 12/15/3 13/16/3 34/30/3
f 12/15/3 34/30/3 32/29/3
f 13/6/5 14/3/5 250/205/5
f 13/6/5 250/205/5 249/208/5
f 15/17/3 16/18/3 36/32/3
f 15/17/3 36/32/3 35/31/3
f 16/18/3 17/21/3 37/35/3
f 16/18/3 37/35/3 36/32/3
f 17/20/5 18/19/5 38/33/5
f 17/20/5 38/33/5 37/34/5
f 17/112/6 20/114/6 21/103/6
f 17/112/6 21/103/6 18/101/6
f 20/20/2 40/34/2 41/33/2
f 20/20/2 41/33/2 21/19/2
f 20/23/3 22/24/3 42/38/3
f 20/23/3 42/38/3 40/37/3
f 22/20/5 23/19/5 43/33/5
f 22/20/5 43/33/5 42/34/5
f 22/115/6 24/116/6 25/105/6
f 22/115/6 25/105/6 23/104/6
f 24/20/2 44/34/2 45/33/2
f 24/20/2 45/33/2 25/19/2
f 24/25/3 26/26/3 46/40/3
f 24/25/3 46/40/3 44/39/3
f 26/20/5 27/19/5 47/33/5
f 26/20/5 47/33/5 46/34/5
f 26/117/6 28/118/6 29/107/6
f 26/117/6 29/107/6 27/106/6
f 28/20/2 48/34/2 49/33/2
f 28/20/2 49/33/2 29/19/2
f 28/27/3 30/28/3 50/42/3
f 28/27/3 50/42/3 48/41/3
f 30/20/5 31/19/5 51/33/5
f 30/20/5 51/33/5 50/34/5
f 30/119/6 32/120/6 33/109/6
f 30/119/6 33/109/6 31/108/6
f 32/20/2 52/34/2 53/33/2
f 32/20/2 53/33/2 33/19/2
f 32/29/3 34/30/3 54/44/3
f 32/29/3 54/44/3 52/43/3
f 35/31/3 36/32/3 56/46/3
f 35/31/3 56/46/3 55/45/3
f 36/32/3 37/35/3 57/49/3
f 36/32/3 57/49/3 56/46/3
f 37/35/3 39/36/3 59/50/3
f 37/35/3 59/50/3 57/49/3
f 37/112/1 38/101/1 41/103/1
f 37/112/1 41/103/1 40/114/1
f 39/36/3 40/37/3 60/51/3
f 39/36/3 60/51/3 59/50/3
f 40/37/3 42/38/3 62/52/3
f 40/37/3 62/52/3 60/51/3
f 42/38/3 44/39/3 64/53/3
f 42/38/3 64/53/3 62/52/3
f 42/115/1 43/104/1 45/105/1
f 42/115/1 45/105/1 44/116/1
f 44/39/3 46/40/3 66/54/3
f 44/39/3 66/54/3 64/53/3
f 46/40/3 48/41/3 68/55/3
f 46/40/3 68/55/3 66/54/3
f 46/117/1 47/106/1 49/107/1
f 46/117/1 49/107/1 48/118/1
f 48/41/3 50/42/3 70/56/3
f 48/41/3 70/56/3 68/55/3
f 50/42/3 52/43/3 72/57/3
f 50/42/3 72/57/3 70/56/3
f 50/119/1 51/108/1 53/109/1
f 50/119/1 53/109/1 52/120/1
f 52/43/3 54/44/3 74/58/3
f 52/43/3 74/58/3 72/57/3
f 55/45/3 56/46/3 76/60/3
f 55/45/3 76/60/3 75/59/3
f 56/46/3 57/49/3 77/63/3
f 56/46/3 77/63/3 76/60/3
f 57/48/5 58/47/5 78/61/5
f 57/48/5 78/61/5 77/62/5
f 57/112/6 60/114/6 61/103/6
f 57/112/6 61/103/6 58/101/6
f 60/48/2 80/62/2 81/61/2
f 60/48/2 81/61/2 61/47/2
f 60/51/3 62/52/3 82/66/3
f 60/51/3 82/66/3 80/65/3
f 62/48/5 63/47/5 83/61/5
f 62/48/5 83/61/5 82/62/5
f 62/115/6 64/116/6 65/105/6
f 62/115/6 65/105/6 63/104/6
f 64/48/2 84/62/2 85/61/2
f 64/48/2 85/61/2 65/47/2
f 64/53/3 66/54/3 86/68/3
f 64/53/3 86/68/3 84/67/3
f 66/48/5 67/47/5 87/61/5
f 66/48/5 87/61/5 86/62/5
f 66/117/6 68/118/6 69/107/6
f 66/117/6 69/107/6 67/106/6
f 68/48/2 88/62/2 89/61/2
f 68/48/2 89/61/2 69/47/2
f 68/55/3 70/56/3 90/70/3
f 68/55/3 90/70/3 88/69/3
f 70/48/5 71/47/5 91/61/5
f 70/48/5 91/61/5 90/62/5
f 70/119/6 72/120/6 73/109/6
f 70/119/6 73/109/6 71/108/6
f 72/48/2 92/62/2 93/61/2
f 72/48/2 93/61/2 73/47/2
f 72/57/3 74/58/3 94/72/3
f 72/57/3 94/72/3 92/71/3
f 75/59/3 76/60/3 96/74/3
f 75/59/3 96/74/3 95/73/3
f 76/60/3 77/63/3 98/77/3
f 76/60/3 98/77/3 96/74/3
f 77/63/3 79/64/3 99/78/3
f 77/63/3 99/78/3 98/77/3
f 77/112/1 78/101/1 81/103/1
f 77/112/1 81/103/1 80/114/1
f 79/64/3 80/65/3 101/79/3
f 79/64/3 101/79/3 99/78/3
f 80/65/3 82/66/3 102/80/3
f 80/65/3 102/80/3 101/79/3
f 82/66/3 84/67/3 103/81/3
f 82/66/3 103/81/3 102/80/3
f 82/115/1 83/104/1 85/105/1
f 82/115/1 85/105/1 84/116/1
f 84/67/3 86/68/3 104/82/3
f 84/67/3 104/82/3 103/81/3
f 86/68/3 88/69/3 105/83/3
f 86/68/3 105/83/3 104/82/3
f 86/117/1 87/106/1 89/107/1
f 86/117/1 89/107/1 88/118/1
f 88/69/3 90/70/3 106/84/3
f 88/69/3 106/84/3 105/83/3
f 90/70/3 92/71/3 107/85/3
f 90/70/3 107/85/3 106/84/3
f 90/119/1 91/108/1 93/109/1
f 90/119/1 93/109/1 92/120/1
f 92/71/3 94/72/3 108/86/3
f 92/71/3 108/86/3 107/85/3
f 95/73/3 96/74/3 110/88/3
f 95/73/3 110/88/3 109/87/3
f 96/76/2 144/138/2 145/137/2
f 96/76/2 145/137/2 97/75/2
f 96/111/1 97/100/1 100/102/1
f 96/111/1 100/102/1 99/113/1
f 99/76/5 100/75/5 148/137/5
f 99/76/5 148/137/5 147/138/5
f 99/78/3 101/79/3 112/92/3
f 99/78/3 112/92/3 111/91/3
f 101/79/3 102/80/3 113/93/3
f 101/79/3 113/93/3 112/92/3
f 102/80/3 103/81/3 115/94/3
f 102/80/3 115/94/3 113/93/3
f 103/81/3 104/82/3 117/95/3
f 103/81/3 117/95/3 115/94/3
f 104/82/3 105/83/3 119/96/3
f 104/82/3 119/96/3 117/95/3
f 105/83/3 106/84/3 121/97/3
f 105/83/3 121/97/3 119/96/3
f 106/84/3 107/85/3 123/98/3
f 106/84/3 123/98/3 121/97/3
f 107/85/3 108/86/3 125/99/3
f 107/85/3 125/99/3 123/98/3
f 109/87/3 110/88/3 127/123/3
f 109/87/3 127/123/3 126/122/3
f 111/91/3 112/92/3 129/127/3
f 111/91/3 129/127/3 128/126/3
f 112/92/3 113/93/3 130/128/3
f 112/92/3 130/128/3 129/127/3
f 113/90/5 114/89/5 131/124/5
f 113/90/5 131/124/5 130/125/5
f 113/115/6 115/116/6 116/105/6
f 113/115/6 116/105/6 114/104/6
f 115/90/2 132/125/2 133/124/2
f 115/90/2 133/124/2 116/89/2
f 115/94/3 117/95/3 134/130/3
f 115/94/3 134/130/3 132/129/3
f 117/90/5 118/89/5 135/124/5
f 117/90/5 135/124/5 134/125/5
f 117/117/6 119/118/6 120/107/6
f 117/117/6 120/107/6 118/106/6
f 119/90/2 136/125/2 137/124/2
f 119/90/2 137/124/2 120/89/2
f 119/96/3 121/97/3 138/132/3
f 119/96/3 138/132/3 136/131/3
f 121/90/5 122/89/5 139/124/5
f 121/90/5 139/124/5 138/125/5
f 121/119/6 123/120/6 124/109/6
f 121/119/6 124/109/6 122/108/6
f 123/90/2 140/125/2 141/124/2
f 123/90/2 141/124/2 124/89/2
f 123/98/3 125/99/3 142/134/3
f 123/98/3 142/134/3 140/133/3
f 126/122/3 127/123/3 144/136/3
f 126/122/3 144/136/3 143/135/3
f 128/126/3 129/127/3 149/141/3
f 128/126/3 149/141/3 147/140/3
f 129/127/3 130/128/3 150/142/3
f 129/127/3 150/142/3 149/141/3
f 130/115/1 131/104/1 133/105/1
f 130/115/1 133/105/1 132/116/1
f 130/128/3 132/129/3 151/143/3
f 130/128/3 151/143/3 150/142/3
f 132/129/3 134/130/3 152/144/3
f 132/129/3 152/144/3 151/143/3
f 134/117/1 135/106/1 137/107/1
f 134/117/1 137/107/1 136/118/1
f 134/130/3 136/131/3 153/145/3
f 134/130/3 153/145/3 152/144/3
f 136/131/3 138/132/3 154/146/3
f 136/131/3 154/146/3 153/145/3
f 138/119/1 139/108/1 141/109/1
f 138/119/1 141/109/1 140/120/1
f 138/132/3 140/133/3 155/147/3
f 138/132/3 155/147/3 154/146/3
f 140/133/3 142/134/3 156/148/3
f 140/133/3 156/148/3 155/147/3
f 143/135/3 144/136/3 158/150/3
f 143/135/3 158/150/3 157/149/3
f 144/111/6 147/113/6 148/102/6
f 144/111/6 148/102/6 145/100/6
f 144/136/3 146/139/3 159/153/3
f 144/136/3 159/153/3 158/150/3
f 146/139/3 147/140/3 161/154/3
f 146/139/3 161/154/3 159/153/3
f 147/140/3 149/141/3 162/155/3
f 147/140/3 162/155/3 161/154/3
f 149/141/3 150/142/3 164/156/3
f 149/141/3 164/156/3 162/155/3
f 150/142/3 151/143/3 166/157/3
f 150/142/3 166/157/3 164/156/3
f 151/143/3 152/144/3 168/158/3
f 151/143/3 168/158/3 166/157/3
f 152/144/3 153/145/3 170/159/3
f 152/144/3 170/159/3 168/158/3
f 153/145/3 154/146/3 172/160/3
f 153/145/3 172/160/3 170/159/3
f 154/146/3 155/147/3 174/161/3
f 154/146/3 174/161/3 172/160/3
f 155/147/3 156/148/3 176/162/3
f 155/147/3 176/162/3 174/161/3
f 157/149/3 158/150/3 178/164/3
f 157/149/3 178/164/3 177/163/3
f 158/150/3 159/153/3 179/167/3
f 158/150/3 179/167/3 178/164/3
f 159/112/6 162/114/6 163/103/6
f 159/112/6 163/103/6 160/101/6
f 159/152/5 160/151/5 180/165/5
f 159/152/5 180/165/5 179/166/5
f 162/152/2 182/166/2 183/165/2
f 162/152/2 183/165/2 163/151/2
f 162/155/3 164/156/3 184/170/3
f 162/155/3 184/170/3 182/169/3
f 164/115/6 166/116/6 167/105/6
f 164/115/6 167/105/6 165/104/6
f 164/152/5 165/151/5 185/165/5
f 164/152/5 185/165/5 184/166/5
f 166/152/2 186/166/2 187/165/2
f 166/152/2 187/165/2 167/151/2
f 166/157/3 168/158/3 188/172/3
f 166/157/3 188/172/3 186/171/3
f 168/117/6 170/118/6 171/107/6
f 168/117/6 171/107/6 169/106/6
f 168/152/5 169/151/5 189/165/5
f 168/152/5 189/165/5 188/166/5
f 170/152/2 190/166/2 191/165/2
f 170/152/2 191/165/2 171/151/2
f 170/159/3 172/160/3 192/174/3
f 170/159/3 192/174/3 190/173/3
f 172/119/6 174/120/6 175/109/6
f 172/119/6 175/109/6 173/108/6
f 172/152/5 173/151/5 193/165/5
f 172/152/5 193/165/5 192/166/5
f 174/152/2 194/166/2 195/165/2
f 174/152/2 195/165/2 175/151/2
f 174/161/3 176/162/3 196/176/3
f 174/161/3 196/176/3 194/175/3
f 177/163/3 178/164/3 198/178/3
f 177/163/3 198/178/3 197/177/3
f 178/164/3 179/167/3 199/181/3
f 178/164/3 199/181/3 198/178/3
f 179/112/1 180/101/1 183/103/1
f 179/112/1 183/103/1 182/114/1
f 179/167/3 181/168/3 201/182/3
f 179/167/3 201/182/3 199/181/3
f 181/168/3 182/169/3 202/183/3
f 181/168/3 202/183/3 201/182/3
f 182/169/3 184/170/3 204/184/3
f 182/169/3 204/184/3 202/183/3
f 184/115/1 185/104/1 187/105/1
f 184/115/1 187/105/1 186/116/1
f 184/170/3 186/171/3 206/185/3
f 184/170/3 206/185/3 204/184/3
f 186/171/3 188/172/3 208/186/3
f 186/171/3 208/186/3 206/185/3
f 188/117/1 189/106/1 191/107/1
f 188/117/1 191/107/1 190/118/1
f 188/172/3 190/173/3 210/187/3
f 188/172/3 210/187/3 208/186/3
f 190/173/3 192/174/3 212/188/3
f 190/173/3 212/188/3 210/187/3
f 192/119/1 193/108/1 195/109/1
f 192/119/1 195/109/1 194/120/1
f 192/174/3 194/175/3 214/189/3
f 192/174/3 214/189/3 212/188/3
f 194/175/3 196/176/3 216/190/3
f 194/175/3 216/190/3 214/189/3
f 197/177/3 198/178/3 218/192/3
f 197/177/3 218/192/3 217/191/3
f 198/178/3 199/181/3 219/195/3
f 198/178/3 219/195/3 218/192/3
f 199/112/6 202/114/6 203/103/6
f 199/112/6 203/103/6 200/101/6
f 199/180/5 200/179/5 220/193/5
f 199/180/5 220/193/5 219/194/5
f 202/180/2 222/194/2 223/193/2
f 202/180/2 223/193/2 203/179/2
f 202/183/3 204/184/3 224/198/3
f 202/183/3 224/198/3 222/197/3
f 204/115/6 206/116/6 207/105/6
f 204/115/6 207/105/6 205/104/6
f 204/180/5 205/179/5 225/193/5
f 204/180/5 225/193/5 224/194/5
f 206/180/2 226/194/2 227/193/2
f 206/180/2 227/193/2 207/179/2
f 206/185/3 208/186/3 228/200/3
f 206/185/3 228/200/3 226/199/3
f 208/117/6 210/118/6 211/107/6
f 208/117/6 211/107/6 209/106/6
f 208/180/5 209/179/5 229/193/5
f 208/180/5 229/193/5 228/194/5
f 210/180/2 230/194/2 231/193/2
f 210/180/2 231/193/2 211/179/2
f 210/187/3 212/188/3 232/202/3
f 210/187/3 232/202/3 230/201/3
f 212/119/6 214/120/6 215/109/6
f 212/119/6 215/109/6 213/108/6
f 212/180/5 213/179/5 233/193/5
f 212/180/5 233/193/5 232/194/5
f 214/180/2 234/194/2 235/193/2
f 214/180/2 235/193/2 215/179/2
f 214/189/3 216/190/3 236/204/3
f 214/189/3 236/204/3 234/203/3
f 217/191/3 218/192/3 239/207/3
f 217/191/3 239/207/3 237/206/3
f 218/192/3 219/195/3 240/209/3
f 218/192/3 240/209/3 239/207/3
f 219/112/1 220/101/1 223/103/1
f 219/112/1 223/103/1 222/114/1
f 219/195/3 221/196/3 241/210/3
f 219/195/3 241/210/3 240/209/3
f 221/196/3 222/197/3 242/211/3
f 221/196/3 242/211/3 241/210/3
f 222/197/3 224/198/3 243/212/3
f 222/197/3 243/212/3 242/211/3
f 224/115/1 225/104/1 227/105/1
f 224/115/1 227/105/1 226/116/1
f 224/198/3 226/199/3 244/213/3
f 224/198/3 244/213/3 243/212/3
f 226/199/3 228/200/3 245/214/3
f 226/199/3 245/214/3 244/213/3
f 228/117/1 229/106/1 231/107/1
f 228/117/1 231/107/1 230/118/1
f 228/200/3 230/201/3 246/215/3
f 228/200/3 246/215/3 245/214/3
f 230/201/3 232/202/3 247/216/3
f 230/201/3 247/216/3 246/215/3
f 232/119/1 233/108/1 235/109/1
f 232/119/1 235/109/1 234/120/1
f 232/202/3 234/203/3 248/217/3
f 232/202/3 248/217/3 247/216/3
f 234/203/3 236/204/3 249/218/3
f 234/203/3 249/218/3 248/217/3
f 237/110/6 249/121/6 250/2/6
f 237/110/6 250/2/6 238/1/6
