# exported by ae3d_export.py v3
# object: Street_BlockR1_Trim
mtllib Street_BlockR1_Trim.mtl
v -6.600000 13.580000 -0.260000
v -6.600000 13.580000 0.000000
v -6.600000 14.000000 -0.260000
v -6.600000 14.000000 0.000000
v -6.500000 2.500000 -0.049500
v -6.500000 2.500000 0.000000
v -6.500000 2.570000 -0.049500
v -6.500000 2.570000 0.000000
v -6.500000 5.650000 -0.049500
v -6.500000 5.650000 0.000000
v -6.500000 5.720000 -0.049500
v -6.500000 5.720000 0.000000
v -6.500000 8.800000 -0.049500
v -6.500000 8.800000 0.000000
v -6.500000 8.870000 -0.049500
v -6.500000 8.870000 0.000000
v -6.500000 11.950000 -0.049500
v -6.500000 11.950000 0.000000
v -6.500000 12.020000 -0.049500
v -6.500000 12.020000 0.000000
v -5.865000 0.290000 -0.090000
v -5.865000 0.290000 0.000000
v -5.865000 0.370000 -0.090000
v -5.865000 0.370000 0.000000
v -5.865000 3.440000 -0.090000
v -5.865000 3.440000 0.000000
v -5.865000 3.520000 -0.090000
v -5.865000 3.520000 0.000000
v -5.865000 6.590000 -0.090000
v -5.865000 6.590000 0.000000
v -5.865000 6.670000 -0.090000
v -5.865000 6.670000 0.000000
v -5.865000 9.740000 -0.090000
v -5.865000 9.740000 0.000000
v -5.865000 9.820000 -0.090000
v -5.865000 9.820000 0.000000
v -5.225000 0.410000 0.195000
v -5.225000 0.410000 0.225000
v -5.225000 1.880000 0.195000
v -5.225000 1.880000 0.225000
v -5.225000 3.560000 0.195000
v -5.225000 3.560000 0.225000
v -5.225000 5.030000 0.195000
v -5.225000 5.030000 0.225000
v -5.225000 6.710000 0.195000
v -5.225000 6.710000 0.225000
v -5.225000 8.180000 0.195000
v -5.225000 8.180000 0.225000
v -5.225000 9.860000 0.195000
v -5.225000 9.860000 0.225000
v -5.225000 11.330000 0.195000
v -5.225000 11.330000 0.225000
v -5.175000 0.410000 0.195000
v -5.175000 0.410000 0.225000
v -5.175000 1.880000 0.195000
v -5.175000 1.880000 0.225000
v -5.175000 3.560000 0.195000
v -5.175000 3.560000 0.225000
v -5.175000 5.030000 0.195000
v -5.175000 5.030000 0.225000
v -5.175000 6.710000 0.195000
v -5.175000 6.710000 0.225000
v -5.175000 8.180000 0.195000
v -5.175000 8.180000 0.225000
v -5.175000 9.860000 0.195000
v -5.175000 9.860000 0.225000
v -5.175000 11.330000 0.195000
v -5.175000 11.330000 0.225000
v -4.535000 0.290000 -0.090000
v -4.535000 0.290000 0.000000
v -4.535000 0.370000 -0.090000
v -4.535000 0.370000 0.000000
v -4.535000 3.440000 -0.090000
v -4.535000 3.440000 0.000000
v -4.535000 3.520000 -0.090000
v -4.535000 3.520000 0.000000
v -4.535000 6.590000 -0.090000
v -4.535000 6.590000 0.000000
v -4.535000 6.670000 -0.090000
v -4.535000 6.670000 0.000000
v -4.535000 9.740000 -0.090000
v -4.535000 9.740000 0.000000
v -4.535000 9.820000 -0.090000
v -4.535000 9.820000 0.000000
v -3.265000 0.290000 -0.090000
v -3.265000 0.290000 0.000000
v -3.265000 0.370000 -0.090000
v -3.265000 0.370000 0.000000
v -3.265000 3.440000 -0.090000
v -3.265000 3.440000 0.000000
v -3.265000 3.520000 -0.090000
v -3.265000 3.520000 0.000000
v -3.265000 6.590000 -0.090000
v -3.265000 6.590000 0.000000
v -3.265000 6.670000 -0.090000
v -3.265000 6.670000 0.000000
v -3.265000 9.740000 -0.090000
v -3.265000 9.740000 0.000000
v -3.265000 9.820000 -0.090000
v -3.265000 9.820000 0.000000
v -2.625000 0.410000 0.195000
v -2.625000 0.410000 0.225000
v -2.625000 1.880000 0.195000
v -2.625000 1.880000 0.225000
v -2.625000 3.560000 0.195000
v -2.625000 3.560000 0.225000
v -2.625000 5.030000 0.195000
v -2.625000 5.030000 0.225000
v -2.625000 6.710000 0.195000
v -2.625000 6.710000 0.225000
v -2.625000 8.180000 0.195000
v -2.625000 8.180000 0.225000
v -2.625000 9.860000 0.195000
v -2.625000 9.860000 0.225000
v -2.625000 11.330000 0.195000
v -2.625000 11.330000 0.225000
v -2.575000 0.410000 0.195000
v -2.575000 0.410000 0.225000
v -2.575000 1.880000 0.195000
v -2.575000 1.880000 0.225000
v -2.575000 3.560000 0.195000
v -2.575000 3.560000 0.225000
v -2.575000 5.030000 0.195000
v -2.575000 5.030000 0.225000
v -2.575000 6.710000 0.195000
v -2.575000 6.710000 0.225000
v -2.575000 8.180000 0.195000
v -2.575000 8.180000 0.225000
v -2.575000 9.860000 0.195000
v -2.575000 9.860000 0.225000
v -2.575000 11.330000 0.195000
v -2.575000 11.330000 0.225000
v -1.935000 0.290000 -0.090000
v -1.935000 0.290000 0.000000
v -1.935000 0.370000 -0.090000
v -1.935000 0.370000 0.000000
v -1.935000 3.440000 -0.090000
v -1.935000 3.440000 0.000000
v -1.935000 3.520000 -0.090000
v -1.935000 3.520000 0.000000
v -1.935000 6.590000 -0.090000
v -1.935000 6.590000 0.000000
v -1.935000 6.670000 -0.090000
v -1.935000 6.670000 0.000000
v -1.935000 9.740000 -0.090000
v -1.935000 9.740000 0.000000
v -1.935000 9.820000 -0.090000
v -1.935000 9.820000 0.000000
v -0.795000 -0.560000 -0.144000
v -0.795000 -0.560000 0.000000
v -0.795000 2.030000 -0.144000
v -0.795000 2.030000 0.000000
v -0.665000 3.440000 -0.090000
v -0.665000 3.440000 0.000000
v -0.665000 3.520000 -0.090000
v -0.665000 3.520000 0.000000
v -0.665000 6.590000 -0.090000
v -0.665000 6.590000 0.000000
v -0.665000 6.670000 -0.090000
v -0.665000 6.670000 0.000000
v -0.665000 9.740000 -0.090000
v -0.665000 9.740000 0.000000
v -0.665000 9.820000 -0.090000
v -0.665000 9.820000 0.000000
v -0.025000 3.560000 0.195000
v -0.025000 3.560000 0.225000
v -0.025000 5.030000 0.195000
v -0.025000 5.030000 0.225000
v -0.025000 6.710000 0.195000
v -0.025000 6.710000 0.225000
v -0.025000 8.180000 0.195000
v -0.025000 8.180000 0.225000
v -0.025000 9.860000 0.195000
v -0.025000 9.860000 0.225000
v -0.025000 11.330000 0.195000
v -0.025000 11.330000 0.225000
v 0.025000 3.560000 0.195000
v 0.025000 3.560000 0.225000
v 0.025000 5.030000 0.195000
v 0.025000 5.030000 0.225000
v 0.025000 6.710000 0.195000
v 0.025000 6.710000 0.225000
v 0.025000 8.180000 0.195000
v 0.025000 8.180000 0.225000
v 0.025000 9.860000 0.195000
v 0.025000 9.860000 0.225000
v 0.025000 11.330000 0.195000
v 0.025000 11.330000 0.225000
v 0.665000 3.440000 -0.090000
v 0.665000 3.440000 0.000000
v 0.665000 3.520000 -0.090000
v 0.665000 3.520000 0.000000
v 0.665000 6.590000 -0.090000
v 0.665000 6.590000 0.000000
v 0.665000 6.670000 -0.090000
v 0.665000 6.670000 0.000000
v 0.665000 9.740000 -0.090000
v 0.665000 9.740000 0.000000
v 0.665000 9.820000 -0.090000
v 0.665000 9.820000 0.000000
v 0.795000 -0.560000 -0.144000
v 0.795000 -0.560000 0.000000
v 0.795000 2.030000 -0.144000
v 0.795000 2.030000 0.000000
v 1.935000 0.290000 -0.090000
v 1.935000 0.290000 0.000000
v 1.935000 0.370000 -0.090000
v 1.935000 0.370000 0.000000
v 1.935000 3.440000 -0.090000
v 1.935000 3.440000 0.000000
v 1.935000 3.520000 -0.090000
v 1.935000 3.520000 0.000000
v 1.935000 6.590000 -0.090000
v 1.935000 6.590000 0.000000
v 1.935000 6.670000 -0.090000
v 1.935000 6.670000 0.000000
v 1.935000 9.740000 -0.090000
v 1.935000 9.740000 0.000000
v 1.935000 9.820000 -0.090000
v 1.935000 9.820000 0.000000
v 2.575000 0.410000 0.195000
v 2.575000 0.410000 0.225000
v 2.575000 1.880000 0.195000
v 2.575000 1.880000 0.225000
v 2.575000 3.560000 0.195000
v 2.575000 3.560000 0.225000
v 2.575000 5.030000 0.195000
v 2.575000 5.030000 0.225000
v 2.575000 6.710000 0.195000
v 2.575000 6.710000 0.225000
v 2.575000 8.180000 0.195000
v 2.575000 8.180000 0.225000
v 2.575000 9.860000 0.195000
v 2.575000 9.860000 0.225000
v 2.575000 11.330000 0.195000
v 2.575000 11.330000 0.225000
v 2.625000 0.410000 0.195000
v 2.625000 0.410000 0.225000
v 2.625000 1.880000 0.195000
v 2.625000 1.880000 0.225000
v 2.625000 3.560000 0.195000
v 2.625000 3.560000 0.225000
v 2.625000 5.030000 0.195000
v 2.625000 5.030000 0.225000
v 2.625000 6.710000 0.195000
v 2.625000 6.710000 0.225000
v 2.625000 8.180000 0.195000
v 2.625000 8.180000 0.225000
v 2.625000 9.860000 0.195000
v 2.625000 9.860000 0.225000
v 2.625000 11.330000 0.195000
v 2.625000 11.330000 0.225000
v 3.265000 0.290000 -0.090000
v 3.265000 0.290000 0.000000
v 3.265000 0.370000 -0.090000
v 3.265000 0.370000 0.000000
v 3.265000 3.440000 -0.090000
v 3.265000 3.440000 0.000000
v 3.265000 3.520000 -0.090000
v 3.265000 3.520000 0.000000
v 3.265000 6.590000 -0.090000
v 3.265000 6.590000 0.000000
v 3.265000 6.670000 -0.090000
v 3.265000 6.670000 0.000000
v 3.265000 9.740000 -0.090000
v 3.265000 9.740000 0.000000
v 3.265000 9.820000 -0.090000
v 3.265000 9.820000 0.000000
v 4.535000 0.290000 -0.090000
v 4.535000 0.290000 0.000000
v 4.535000 0.370000 -0.090000
v 4.535000 0.370000 0.000000
v 4.535000 3.440000 -0.090000
v 4.535000 3.440000 0.000000
v 4.535000 3.520000 -0.090000
v 4.535000 3.520000 0.000000
v 4.535000 6.590000 -0.090000
v 4.535000 6.590000 0.000000
v 4.535000 6.670000 -0.090000
v 4.535000 6.670000 0.000000
v 4.535000 9.740000 -0.090000
v 4.535000 9.740000 0.000000
v 4.535000 9.820000 -0.090000
v 4.535000 9.820000 0.000000
v 5.175000 0.410000 0.195000
v 5.175000 0.410000 0.225000
v 5.175000 1.880000 0.195000
v 5.175000 1.880000 0.225000
v 5.175000 3.560000 0.195000
v 5.175000 3.560000 0.225000
v 5.175000 5.030000 0.195000
v 5.175000 5.030000 0.225000
v 5.175000 6.710000 0.195000
v 5.175000 6.710000 0.225000
v 5.175000 8.180000 0.195000
v 5.175000 8.180000 0.225000
v 5.175000 9.860000 0.195000
v 5.175000 9.860000 0.225000
v 5.175000 11.330000 0.195000
v 5.175000 11.330000 0.225000
v 5.225000 0.410000 0.195000
v 5.225000 0.410000 0.225000
v 5.225000 1.880000 0.195000
v 5.225000 1.880000 0.225000
v 5.225000 3.560000 0.195000
v 5.225000 3.560000 0.225000
v 5.225000 5.030000 0.195000
v 5.225000 5.030000 0.225000
v 5.225000 6.710000 0.195000
v 5.225000 6.710000 0.225000
v 5.225000 8.180000 0.195000
v 5.225000 8.180000 0.225000
v 5.225000 9.860000 0.195000
v 5.225000 9.860000 0.225000
v 5.225000 11.330000 0.195000
v 5.225000 11.330000 0.225000
v 5.865000 0.290000 -0.090000
v 5.865000 0.290000 0.000000
v 5.865000 0.370000 -0.090000
v 5.865000 0.370000 0.000000
v 5.865000 3.440000 -0.090000
v 5.865000 3.440000 0.000000
v 5.865000 3.520000 -0.090000
v 5.865000 3.520000 0.000000
v 5.865000 6.590000 -0.090000
v 5.865000 6.590000 0.000000
v 5.865000 6.670000 -0.090000
v 5.865000 6.670000 0.000000
v 5.865000 9.740000 -0.090000
v 5.865000 9.740000 0.000000
v 5.865000 9.820000 -0.090000
v 5.865000 9.820000 0.000000
v 6.500000 2.500000 -0.049500
v 6.500000 2.500000 0.000000
v 6.500000 2.570000 -0.049500
v 6.500000 2.570000 0.000000
v 6.500000 5.650000 -0.049500
v 6.500000 5.650000 0.000000
v 6.500000 5.720000 -0.049500
v 6.500000 5.720000 0.000000
v 6.500000 8.800000 -0.049500
v 6.500000 8.800000 0.000000
v 6.500000 8.870000 -0.049500
v 6.500000 8.870000 0.000000
v 6.500000 11.950000 -0.049500
v 6.500000 11.950000 0.000000
v 6.500000 12.020000 -0.049500
v 6.500000 12.020000 0.000000
v 6.600000 13.580000 -0.260000
v 6.600000 13.580000 0.000000
v 6.600000 14.000000 -0.260000
v 6.600000 14.000000 0.000000
vt -14.520000 0.000000
vt -14.520000 0.572000
vt -14.520000 29.875999
vt -14.520000 30.799999
vt -14.300000 0.000000
vt -14.300000 0.108900
vt -14.300000 5.500000
vt -14.300000 5.654000
vt -14.300000 12.430000
vt -14.300000 12.584000
vt -14.300000 19.360001
vt -14.300000 19.514000
vt -14.300000 26.289999
vt -14.300000 26.444000
vt -12.903000 0.000000
vt -12.903000 0.198000
vt -12.903000 0.638000
vt -12.903000 0.814000
vt -12.903000 7.568000
vt -12.903000 7.744000
vt -12.903000 14.498000
vt -12.903000 14.674000
vt -12.903000 21.427999
vt -12.903000 21.604000
vt -11.495000 -0.495000
vt -11.495000 -0.429000
vt -11.495000 0.902000
vt -11.495000 4.136000
vt -11.495000 7.832000
vt -11.495000 11.066001
vt -11.495000 14.762000
vt -11.495000 17.996000
vt -11.495000 21.691999
vt -11.495000 24.926001
vt -11.385000 -0.495000
vt -11.385000 -0.429000
vt -11.385000 0.902000
vt -11.385000 4.136000
vt -11.385000 7.832000
vt -11.385000 11.066001
vt -11.385000 14.762000
vt -11.385000 17.996000
vt -11.385000 21.691999
vt -11.385000 24.926001
vt -9.976999 0.000000
vt -9.976999 0.198000
vt -9.976999 0.638000
vt -9.976999 0.814000
vt -9.976999 7.568000
vt -9.976999 7.744000
vt -9.976999 14.498000
vt -9.976999 14.674000
vt -9.976999 21.427999
vt -9.976999 21.604000
vt -7.183000 0.000000
vt -7.183000 0.198000
vt -7.183000 0.638000
vt -7.183000 0.814000
vt -7.183000 7.568000
vt -7.183000 7.744000
vt -7.183000 14.498000
vt -7.183000 14.674000
vt -7.183000 21.427999
vt -7.183000 21.604000
vt -5.775000 -0.495000
vt -5.775000 -0.429000
vt -5.775000 0.902000
vt -5.775000 4.136000
vt -5.775000 7.832000
vt -5.775000 11.066001
vt -5.775000 14.762000
vt -5.775000 17.996000
vt -5.775000 21.691999
vt -5.775000 24.926001
vt -5.665000 -0.495000
vt -5.665000 -0.429000
vt -5.665000 0.902000
vt -5.665000 4.136000
vt -5.665000 7.832000
vt -5.665000 11.066001
vt -5.665000 14.762000
vt -5.665000 17.996000
vt -5.665000 21.691999
vt -5.665000 24.926001
vt -4.257000 0.000000
vt -4.257000 0.198000
vt -4.257000 0.638000
vt -4.257000 0.814000
vt -4.257000 7.568000
vt -4.257000 7.744000
vt -4.257000 14.498000
vt -4.257000 14.674000
vt -4.257000 21.427999
vt -4.257000 21.604000
vt -1.749000 -1.232000
vt -1.749000 0.000000
vt -1.749000 0.316800
vt -1.749000 4.466000
vt -1.463000 0.000000
vt -1.463000 0.198000
vt -1.463000 7.568000
vt -1.463000 7.744000
vt -1.463000 14.498000
vt -1.463000 14.674000
vt -1.463000 21.427999
vt -1.463000 21.604000
vt -0.495000 0.902000
vt -0.495000 4.136000
vt -0.495000 7.832000
vt -0.495000 11.066001
vt -0.495000 14.762000
vt -0.495000 17.996000
vt -0.495000 21.691999
vt -0.495000 24.926001
vt -0.429000 0.902000
vt -0.429000 4.136000
vt -0.429000 7.832000
vt -0.429000 11.066001
vt -0.429000 14.762000
vt -0.429000 17.996000
vt -0.429000 21.691999
vt -0.429000 24.926001
vt -0.055000 -0.495000
vt -0.055000 -0.429000
vt -0.055000 7.832000
vt -0.055000 11.066001
vt -0.055000 14.762000
vt -0.055000 17.996000
vt -0.055000 21.691999
vt -0.055000 24.926001
vt 0.000000 -1.232000
vt 0.000000 0.638000
vt 0.000000 0.814000
vt 0.000000 4.466000
vt 0.000000 5.500000
vt 0.000000 5.654000
vt 0.000000 7.568000
vt 0.000000 7.744000
vt 0.000000 12.430000
vt 0.000000 12.584000
vt 0.000000 14.498000
vt 0.000000 14.674000
vt 0.000000 19.360001
vt 0.000000 19.514000
vt 0.000000 21.427999
vt 0.000000 21.604000
vt 0.000000 26.289999
vt 0.000000 26.444000
vt 0.000000 29.875999
vt 0.000000 30.799999
vt 0.055000 -0.495000
vt 0.055000 -0.429000
vt 0.055000 7.832000
vt 0.055000 11.066001
vt 0.055000 14.762000
vt 0.055000 17.996000
vt 0.055000 21.691999
vt 0.055000 24.926001
vt 0.108900 5.500000
vt 0.108900 5.654000
vt 0.108900 12.430000
vt 0.108900 12.584000
vt 0.108900 19.360001
vt 0.108900 19.514000
vt 0.108900 26.289999
vt 0.108900 26.444000
vt 0.198000 0.638000
vt 0.198000 0.814000
vt 0.198000 7.568000
vt 0.198000 7.744000
vt 0.198000 14.498000
vt 0.198000 14.674000
vt 0.198000 21.427999
vt 0.198000 21.604000
vt 0.316800 -1.232000
vt 0.316800 4.466000
vt 0.572000 29.875999
vt 0.572000 30.799999
vt 1.463000 0.000000
vt 1.463000 0.198000
vt 1.463000 7.568000
vt 1.463000 7.744000
vt 1.463000 14.498000
vt 1.463000 14.674000
vt 1.463000 21.427999
vt 1.463000 21.604000
vt 1.749000 -1.232000
vt 1.749000 0.000000
vt 1.749000 0.316800
vt 1.749000 4.466000
vt 4.257000 0.000000
vt 4.257000 0.198000
vt 4.257000 0.638000
vt 4.257000 0.814000
vt 4.257000 7.568000
vt 4.257000 7.744000
vt 4.257000 14.498000
vt 4.257000 14.674000
vt 4.257000 21.427999
vt 4.257000 21.604000
vt 5.665000 -0.495000
vt 5.665000 -0.429000
vt 5.665000 0.902000
vt 5.665000 4.136000
vt 5.665000 7.832000
vt 5.665000 11.066001
vt 5.665000 14.762000
vt 5.665000 17.996000
vt 5.665000 21.691999
vt 5.665000 24.926001
vt 5.775000 -0.495000
vt 5.775000 -0.429000
vt 5.775000 0.902000
vt 5.775000 4.136000
vt 5.775000 7.832000
vt 5.775000 11.066001
vt 5.775000 14.762000
vt 5.775000 17.996000
vt 5.775000 21.691999
vt 5.775000 24.926001
vt 7.183000 0.000000
vt 7.183000 0.198000
vt 7.183000 0.638000
vt 7.183000 0.814000
vt 7.183000 7.568000
vt 7.183000 7.744000
vt 7.183000 14.498000
vt 7.183000 14.674000
vt 7.183000 21.427999
vt 7.183000 21.604000
vt 9.976999 0.000000
vt 9.976999 0.198000
vt 9.976999 0.638000
vt 9.976999 0.814000
vt 9.976999 7.568000
vt 9.976999 7.744000
vt 9.976999 14.498000
vt 9.976999 14.674000
vt 9.976999 21.427999
vt 9.976999 21.604000
vt 11.385000 -0.495000
vt 11.385000 -0.429000
vt 11.385000 0.902000
vt 11.385000 4.136000
vt 11.385000 7.832000
vt 11.385000 11.066001
vt 11.385000 14.762000
vt 11.385000 17.996000
vt 11.385000 21.691999
vt 11.385000 24.926001
vt 11.495000 -0.495000
vt 11.495000 -0.429000
vt 11.495000 0.902000
vt 11.495000 4.136000
vt 11.495000 7.832000
vt 11.495000 11.066001
vt 11.495000 14.762000
vt 11.495000 17.996000
vt 11.495000 21.691999
vt 11.495000 24.926001
vt 12.903000 0.000000
vt 12.903000 0.198000
vt 12.903000 0.638000
vt 12.903000 0.814000
vt 12.903000 7.568000
vt 12.903000 7.744000
vt 12.903000 14.498000
vt 12.903000 14.674000
vt 12.903000 21.427999
vt 12.903000 21.604000
vt 14.300000 0.000000
vt 14.300000 0.108900
vt 14.300000 5.500000
vt 14.300000 5.654000
vt 14.300000 12.430000
vt 14.300000 12.584000
vt 14.300000 19.360001
vt 14.300000 19.514000
vt 14.300000 26.289999
vt 14.300000 26.444000
vt 14.520000 0.000000
vt 14.520000 0.572000
vt 14.520000 29.875999
vt 14.520000 30.799999
vn -1.000000 0.000000 0.000000
vn 0.000000 -1.000000 0.000000
vn 0.000000 0.000000 -1.000000
vn 0.000000 0.000000 1.000000
vn 0.000000 1.000000 0.000000
vn 1.000000 0.000000 0.000000
usemtl TrimStone
f 1/2/2 349/282/2 2/1/2
f 1/3/3 3/4/3 351/284/3
f 1/3/3 351/284/3 349/283/3
f 1/177/1 2/149/1 3/178/1
f 2/1/2 349/282/2 350/281/2
f 2/3/4 350/283/4 352/284/4
f 2/3/4 352/284/4 4/4/4
f 2/149/1 4/150/1 3/178/1
f 3/2/5 4/1/5 351/282/5
f 4/1/5 352/281/5 351/282/5
f 5/6/2 333/272/2 6/5/2
f 5/7/3 7/8/3 335/274/3
f 5/7/3 335/274/3 333/273/3
f 5/159/1 6/135/1 7/160/1
f 6/5/2 333/272/2 334/271/2
f 6/7/4 334/273/4 336/274/4
f 6/7/4 336/274/4 8/8/4
f 6/135/1 8/136/1 7/160/1
f 7/6/5 8/5/5 335/272/5
f 8/5/5 336/271/5 335/272/5
f 9/6/2 337/272/2 10/5/2
f 9/9/3 11/10/3 339/276/3
f 9/9/3 339/276/3 337/275/3
f 9/161/1 10/139/1 11/162/1
f 10/5/2 337/272/2 338/271/2
f 10/9/4 338/275/4 340/276/4
f 10/9/4 340/276/4 12/10/4
f 10/139/1 12/140/1 11/162/1
f 11/6/5 12/5/5 339/272/5
f 12/5/5 340/271/5 339/272/5
f 13/6/2 341/272/2 14/5/2
f 13/11/3 15/12/3 343/278/3
f 13/11/3 343/278/3 341/277/3
f 13/163/1 14/143/1 15/164/1
f 14/5/2 341/272/2 342/271/2
f 14/11/4 342/277/4 344/278/4
f 14/11/4 344/278/4 16/12/4
f 14/143/1 16/144/1 15/164/1
f 15/6/5 16/5/5 343/272/5
f 16/5/5 344/271/5 343/272/5
f 17/6/2 345/272/2 18/5/2
f 17/13/3 19/14/3 347/280/3
f 17/13/3 347/280/3 345/279/3
f 17/165/1 18/147/1 19/166/1
f 18/5/2 345/272/2 346/271/2
f 18/13/4 346/279/4 348/280/4
f 18/13/4 348/280/4 20/14/4
f 18/147/1 20/148/1 19/166/1
f 19/6/5 20/5/5 347/272/5
f 20/5/5 348/271/5 347/272/5
f 21/16/2 69/46/2 22/15/2
f 21/17/3 23/18/3 71/48/3
f 21/17/3 71/48/3 69/47/3
f 21/167/1 22/132/1 23/168/1
f 22/15/2 69/46/2 70/45/2
f 22/17/4 70/47/4 72/48/4
f 22/17/4 72/48/4 24/18/4
f 22/132/1 24/133/1 23/168/1
f 23/16/5 24/15/5 71/46/5
f 24/15/5 72/45/5 71/46/5
f 25/16/2 73/46/2 26/15/2
f 25/19/3 27/20/3 75/50/3
f 25/19/3 75/50/3 73/49/3
f 25/169/1 26/137/1 27/170/1
f 26/15/2 73/46/2 74/45/2
f 26/19/4 74/49/4 76/50/4
f 26/19/4 76/50/4 28/20/4
f 26/137/1 28/138/1 27/170/1
f 27/16/5 28/15/5 75/46/5
f 28/15/5 76/45/5 75/46/5
f 29/16/2 77/46/2 30/15/2
f 29/21/3 31/22/3 79/52/3
f 29/21/3 79/52/3 77/51/3
f 29/171/1 30/141/1 31/172/1
f 30/15/2 77/46/2 78/45/2
f 30/21/4 78/51/4 80/52/4
f 30/21/4 80/52/4 32/22/4
f 30/141/1 32/142/1 31/172/1
f 31/16/5 32/15/5 79/46/5
f 32/15/5 80/45/5 79/46/5
f 33/16/2 81/46/2 34/15/2
f 33/23/3 35/24/3 83/54/3
f 33/23/3 83/54/3 81/53/3
f 33/173/1 34/145/1 35/174/1
f 34/15/2 81/46/2 82/45/2
f 34/23/4 82/53/4 84/54/4
f 34/23/4 84/54/4 36/24/4
f 34/145/1 36/146/1 35/174/1
f 35/16/5 36/15/5 83/46/5
f 36/15/5 84/45/5 83/46/5
f 37/26/2 53/36/2 38/25/2
f 37/27/3 39/28/3 55/38/3
f 37/27/3 55/38/3 53/37/3
f 37/115/1 38/107/1 39/116/1
f 38/25/2 53/36/2 54/35/2
f 38/27/4 54/37/4 56/38/4
f 38/27/4 56/38/4 40/28/4
f 38/107/1 40/108/1 39/116/1
f 39/26/5 40/25/5 55/36/5
f 40/25/5 56/35/5 55/36/5
f 41/26/2 57/36/2 42/25/2
f 41/29/3 43/30/3 59/40/3
f 41/29/3 59/40/3 57/39/3
f 41/117/1 42/109/1 43/118/1
f 42/25/2 57/36/2 58/35/2
f 42/29/4 58/39/4 60/40/4
f 42/29/4 60/40/4 44/30/4
f 42/109/1 44/110/1 43/118/1
f 43/26/5 44/25/5 59/36/5
f 44/25/5 60/35/5 59/36/5
f 45/26/2 61/36/2 46/25/2
f 45/31/3 47/32/3 63/42/3
f 45/31/3 63/42/3 61/41/3
f 45/119/1 46/111/1 47/120/1
f 46/25/2 61/36/2 62/35/2
f 46/31/4 62/41/4 64/42/4
f 46/31/4 64/42/4 48/32/4
f 46/111/1 48/112/1 47/120/1
f 47/26/5 48/25/5 63/36/5
f 48/25/5 64/35/5 63/36/5
f 49/26/2 65/36/2 50/25/2
f 49/33/3 51/34/3 67/44/3
f 49/33/3 67/44/3 65/43/3
f 49/121/1 50/113/1 51/122/1
f 50/25/2 65/36/2 66/35/2
f 50/33/4 66/43/4 68/44/4
f 50/33/4 68/44/4 52/34/4
f 50/113/1 52/114/1 51/122/1
f 51/26/5 52/25/5 67/36/5
f 52/25/5 68/35/5 67/36/5
f 53/115/6 55/116/6 54/107/6
f 54/107/6 55/116/6 56/108/6
f 57/117/6 59/118/6 58/109/6
f 58/109/6 59/118/6 60/110/6
f 61/119/6 63/120/6 62/111/6
f 62/111/6 63/120/6 64/112/6
f 65/121/6 67/122/6 66/113/6
f 66/113/6 67/122/6 68/114/6
f 69/167/6 71/168/6 70/132/6
f 70/132/6 71/168/6 72/133/6
f 73/169/6 75/170/6 74/137/6
f 74/137/6 75/170/6 76/138/6
f 77/171/6 79/172/6 78/141/6
f 78/141/6 79/172/6 80/142/6
f 81/173/6 83/174/6 82/145/6
f 82/145/6 83/174/6 84/146/6
f 85/56/2 133/86/2 86/55/2
f 85/57/3 87/58/3 135/88/3
f 85/57/3 135/88/3 133/87/3
f 85/167/1 86/132/1 87/168/1
f 86/55/2 133/86/2 134/85/2
f 86/57/4 134/87/4 136/88/4
f 86/57/4 136/88/4 88/58/4
f 86/132/1 88/133/1 87/168/1
f 87/56/5 88/55/5 135/86/5
f 88/55/5 136/85/5 135/86/5
f 89/56/2 137/86/2 90/55/2
f 89/59/3 91/60/3 139/90/3
f 89/59/3 139/90/3 137/89/3
f 89/169/1 90/137/1 91/170/1
f 90/55/2 137/86/2 138/85/2
f 90/59/4 138/89/4 140/90/4
f 90/59/4 140/90/4 92/60/4
f 90/137/1 92/138/1 91/170/1
f 91/56/5 92/55/5 139/86/5
f 92/55/5 140/85/5 139/86/5
f 93/56/2 141/86/2 94/55/2
f 93/61/3 95/62/3 143/92/3
f 93/61/3 143/92/3 141/91/3
f 93/171/1 94/141/1 95/172/1
f 94/55/2 141/86/2 142/85/2
f 94/61/4 142/91/4 144/92/4
f 94/61/4 144/92/4 96/62/4
f 94/141/1 96/142/1 95/172/1
f 95/56/5 96/55/5 143/86/5
f 96/55/5 144/85/5 143/86/5
f 97/56/2 145/86/2 98/55/2
f 97/63/3 99/64/3 147/94/3
f 97/63/3 147/94/3 145/93/3
f 97/173/1 98/145/1 99/174/1
f 98/55/2 145/86/2 146/85/2
f 98/63/4 146/93/4 148/94/4
f 98/63/4 148/94/4 100/64/4
f 98/145/1 100/146/1 99/174/1
f 99/56/5 100/55/5 147/86/5
f 100/55/5 148/85/5 147/86/5
f 101/66/2 117/76/2 102/65/2
f 101/67/3 103/68/3 119/78/3
f 101/67/3 119/78/3 117/77/3
f 101/115/1 102/107/1 103/116/1
f 102/65/2 117/76/2 118/75/2
f 102/67/4 118/77/4 120/78/4
f 102/67/4 120/78/4 104/68/4
f 102/107/1 104/108/1 103/116/1
f 103/66/5 104/65/5 119/76/5
f 104/65/5 120/75/5 119/76/5
f 105/66/2 121/76/2 106/65/2
f 105/69/3 107/70/3 123/80/3
f 105/69/3 123/80/3 121/79/3
f 105/117/1 106/109/1 107/118/1
f 106/65/2 121/76/2 122/75/2
f 106/69/4 122/79/4 124/80/4
f 106/69/4 124/80/4 108/70/4
f 106/109/1 108/110/1 107/118/1
f 107/66/5 108/65/5 123/76/5
f 108/65/5 124/75/5 123/76/5
f 109/66/2 125/76/2 110/65/2
f 109/71/3 111/72/3 127/82/3
f 109/71/3 127/82/3 125/81/3
f 109/119/1 110/111/1 111/120/1
f 110/65/2 125/76/2 126/75/2
f 110/71/4 126/81/4 128/82/4
f 110/71/4 128/82/4 112/72/4
f 110/111/1 112/112/1 111/120/1
f 111/66/5 112/65/5 127/76/5
f 112/65/5 128/75/5 127/76/5
f 113/66/2 129/76/2 114/65/2
f 113/73/3 115/74/3 131/84/3
f 113/73/3 131/84/3 129/83/3
f 113/121/1 114/113/1 115/122/1
f 114/65/2 129/76/2 130/75/2
f 114/73/4 130/83/4 132/84/4
f 114/73/4 132/84/4 116/74/4
f 114/113/1 116/114/1 115/122/1
f 115/66/5 116/65/5 131/76/5
f 116/65/5 132/75/5 131/76/5
f 117/115/6 119/116/6 118/107/6
f 118/107/6 119/116/6 120/108/6
f 121/117/6 123/118/6 122/109/6
f 122/109/6 123/118/6 124/110/6
f 125/119/6 127/120/6 126/111/6
f 126/111/6 127/120/6 128/112/6
f 129/121/6 131/122/6 130/113/6
f 130/113/6 131/122/6 132/114/6
f 133/167/6 135/168/6 134/132/6
f 134/132/6 135/168/6 136/133/6
f 137/169/6 139/170/6 138/137/6
f 138/137/6 139/170/6 140/138/6
f 141/171/6 143/172/6 142/141/6
f 142/141/6 143/172/6 144/142/6
f 145/173/6 147/174/6 146/145/6
f 146/145/6 147/174/6 148/146/6
f 149/95/3 151/98/3 203/190/3
f 149/95/3 203/190/3 201/187/3
f 149/97/2 201/189/2 150/96/2
f 149/175/1 150/131/1 151/176/1
f 150/95/4 202/187/4 204/190/4
f 150/95/4 204/190/4 152/98/4
f 150/96/2 201/189/2 202/188/2
f 150/131/1 152/134/1 151/176/1
f 151/97/5 152/96/5 203/189/5
f 152/96/5 204/188/5 203/189/5
f 153/100/2 189/180/2 154/99/2
f 153/101/3 155/102/3 191/182/3
f 153/101/3 191/182/3 189/181/3
f 153/169/1 154/137/1 155/170/1
f 154/99/2 189/180/2 190/179/2
f 154/101/4 190/181/4 192/182/4
f 154/101/4 192/182/4 156/102/4
f 154/137/1 156/138/1 155/170/1
f 155/100/5 156/99/5 191/180/5
f 156/99/5 192/179/5 191/180/5
f 157/100/2 193/180/2 158/99/2
f 157/103/3 159/104/3 195/184/3
f 157/103/3 195/184/3 193/183/3
f 157/171/1 158/141/1 159/172/1
f 158/99/2 193/180/2 194/179/2
f 158/103/4 194/183/4 196/184/4
f 158/103/4 196/184/4 160/104/4
f 158/141/1 160/142/1 159/172/1
f 159/100/5 160/99/5 195/180/5
f 160/99/5 196/179/5 195/180/5
f 161/100/2 197/180/2 162/99/2
f 161/105/3 163/106/3 199/186/3
f 161/105/3 199/186/3 197/185/3
f 161/173/1 162/145/1 163/174/1
f 162/99/2 197/180/2 198/179/2
f 162/105/4 198/185/4 200/186/4
f 162/105/4 200/186/4 164/106/4
f 162/145/1 164/146/1 163/174/1
f 163/100/5 164/99/5 199/180/5
f 164/99/5 200/179/5 199/180/5
f 165/117/1 166/109/1 167/118/1
f 165/124/2 177/152/2 166/123/2
f 165/125/3 167/126/3 179/154/3
f 165/125/3 179/154/3 177/153/3
f 166/109/1 168/110/1 167/118/1
f 166/123/2 177/152/2 178/151/2
f 166/125/4 178/153/4 180/154/4
f 166/125/4 180/154/4 168/126/4
f 167/124/5 168/123/5 179/152/5
f 168/123/5 180/151/5 179/152/5
f 169/119/1 170/111/1 171/120/1
f 169/124/2 181/152/2 170/123/2
f 169/127/3 171/128/3 183/156/3
f 169/127/3 183/156/3 181/155/3
f 170/111/1 172/112/1 171/120/1
f 170/123/2 181/152/2 182/151/2
f 170/127/4 182/155/4 184/156/4
f 170/127/4 184/156/4 172/128/4
f 171/124/5 172/123/5 183/152/5
f 172/123/5 184/151/5 183/152/5
f 173/121/1 174/113/1 175/122/1
f 173/124/2 185/152/2 174/123/2
f 173/129/3 175/130/3 187/158/3
f 173/129/3 187/158/3 185/157/3
f 174/113/1 176/114/1 175/122/1
f 174/123/2 185/152/2 186/151/2
f 174/129/4 186/157/4 188/158/4
f 174/129/4 188/158/4 176/130/4
f 175/124/5 176/123/5 187/152/5
f 176/123/5 188/151/5 187/152/5
f 177/117/6 179/118/6 178/109/6
f 178/109/6 179/118/6 180/110/6
f 181/119/6 183/120/6 182/111/6
f 182/111/6 183/120/6 184/112/6
f 185/121/6 187/122/6 186/113/6
f 186/113/6 187/122/6 188/114/6
f 189/169/6 191/170/6 190/137/6
f 190/137/6 191/170/6 192/138/6
f 193/171/6 195/172/6 194/141/6
f 194/141/6 195/172/6 196/142/6
f 197/173/6 199/174/6 198/145/6
f 198/145/6 199/174/6 200/146/6
f 201/175/6 203/176/6 202/131/6
f 202/131/6 203/176/6 204/134/6
f 205/167/1 206/132/1 207/168/1
f 205/192/2 253/222/2 206/191/2
f 205/193/3 207/194/3 255/224/3
f 205/193/3 255/224/3 253/223/3
f 206/132/1 208/133/1 207/168/1
f 206/191/2 253/222/2 254/221/2
f 206/193/4 254/223/4 256/224/4
f 206/193/4 256/224/4 208/194/4
f 207/192/5 208/191/5 255/222/5
f 208/191/5 256/221/5 255/222/5
f 209/169/1 210/137/1 211/170/1
f 209/192/2 257/222/2 210/191/2
f 209/195/3 211/196/3 259/226/3
f 209/195/3 259/226/3 257/225/3
f 210/137/1 212/138/1 211/170/1
f 210/191/2 257/222/2 258/221/2
f 210/195/4 258/225/4 260/226/4
f 210/195/4 260/226/4 212/196/4
f 211/192/5 212/191/5 259/222/5
f 212/191/5 260/221/5 259/222/5
f 213/171/1 214/141/1 215/172/1
f 213/192/2 261/222/2 214/191/2
f 213/197/3 215/198/3 263/228/3
f 213/197/3 263/228/3 261/227/3
f 214/141/1 216/142/1 215/172/1
f 214/191/2 261/222/2 262/221/2
f 214/197/4 262/227/4 264/228/4
f 214/197/4 264/228/4 216/198/4
f 215/192/5 216/191/5 263/222/5
f 216/191/5 264/221/5 263/222/5
f 217/173/1 218/145/1 219/174/1
f 217/192/2 265/222/2 218/191/2
f 217/199/3 219/200/3 267/230/3
f 217/199/3 267/230/3 265/229/3
f 218/145/1 220/146/1 219/174/1
f 218/191/2 265/222/2 266/221/2
f 218/199/4 266/229/4 268/230/4
f 218/199/4 268/230/4 220/200/4
f 219/192/5 220/191/5 267/222/5
f 220/191/5 268/221/5 267/222/5
f 221/115/1 222/107/1 223/116/1
f 221/202/2 237/212/2 222/201/2
f 221/203/3 223/204/3 239/214/3
f 221/203/3 239/214/3 237/213/3
f 222/107/1 224/108/1 223/116/1
f 222/201/2 237/212/2 238/211/2
f 222/203/4 238/213/4 240/214/4
f 222/203/4 240/214/4 224/204/4
f 223/202/5 224/201/5 239/212/5
f 224/201/5 240/211/5 239/212/5
f 225/117/1 226/109/1 227/118/1
f 225/202/2 241/212/2 226/201/2
f 225/205/3 227/206/3 243/216/3
f 225/205/3 243/216/3 241/215/3
f 226/109/1 228/110/1 227/118/1
f 226/201/2 241/212/2 242/211/2
f 226/205/4 242/215/4 244/216/4
f 226/205/4 244/216/4 228/206/4
f 227/202/5 228/201/5 243/212/5
f 228/201/5 244/211/5 243/212/5
f 229/119/1 230/111/1 231/120/1
f 229/202/2 245/212/2 230/201/2
f 229/207/3 231/208/3 247/218/3
f 229/207/3 247/218/3 245/217/3
f 230/111/1 232/112/1 231/120/1
f 230/201/2 245/212/2 246/211/2
f 230/207/4 246/217/4 248/218/4
f 230/207/4 248/218/4 232/208/4
f 231/202/5 232/201/5 247/212/5
f 232/201/5 248/211/5 247/212/5
f 233/121/1 234/113/1 235/122/1
f 233/202/2 249/212/2 234/201/2
f 233/209/3 235/210/3 251/220/3
f 233/209/3 251/220/3 249/219/3
f 234/113/1 236/114/1 235/122/1
f 234/201/2 249/212/2 250/211/2
f 234/209/4 250/219/4 252/220/4
f 234/209/4 252/220/4 236/210/4
f 235/202/5 236/201/5 251/212/5
f 236/201/5 252/211/5 251/212/5
f 237/115/6 239/116/6 238/107/6
f 238/107/6 239/116/6 240/108/6
f 241/117/6 243/118/6 242/109/6
f 242/109/6 243/118/6 244/110/6
f 245/119/6 247/120/6 246/111/6
f 246/111/6 247/120/6 248/112/6
f 249/121/6 251/122/6 250/113/6
f 250/113/6 251/122/6 252/114/6
f 253/167/6 255/168/6 254/132/6
f 254/132/6 255/168/6 256/133/6
f 257/169/6 259/170/6 258/137/6
f 258/137/6 259/170/6 260/138/6
f 261/171/6 263/172/6 262/141/6
f 262/141/6 263/172/6 264/142/6
f 265/173/6 267/174/6 266/145/6
f 266/145/6 267/174/6 268/146/6
f 269/167/1 270/132/1 271/168/1
f 269/232/2 317/262/2 270/231/2
f 269/233/3 271/234/3 319/264/3
f 269/233/3 319/264/3 317/263/3
f 270/132/1 272/133/1 271/168/1
f 270/231/2 317/262/2 318/261/2
f 270/233/4 318/263/4 320/264/4
f 270/233/4 320/264/4 272/234/4
f 271/232/5 272/231/5 319/262/5
f 272/231/5 320/261/5 319/262/5
f 273/169/1 274/137/1 275/170/1
f 273/232/2 321/262/2 274/231/2
f 273/235/3 275/236/3 323/266/3
f 273/235/3 323/266/3 321/265/3
f 274/137/1 276/138/1 275/170/1
f 274/231/2 321/262/2 322/261/2
f 274/235/4 322/265/4 324/266/4
f 274/235/4 324/266/4 276/236/4
f 275/232/5 276/231/5 323/262/5
f 276/231/5 324/261/5 323/262/5
f 277/171/1 278/141/1 279/172/1
f 277/232/2 325/262/2 278/231/2
f 277/237/3 279/238/3 327/268/3
f 277/237/3 327/268/3 325/267/3
f 278/141/1 280/142/1 279/172/1
f 278/231/2 325/262/2 326/261/2
f 278/237/4 326/267/4 328/268/4
f 278/237/4 328/268/4 280/238/4
f 279/232/5 280/231/5 327/262/5
f 280/231/5 328/261/5 327/262/5
f 281/173/1 282/145/1 283/174/1
f 281/232/2 329/262/2 282/231/2
f 281/239/3 283/240/3 331/270/3
f 281/239/3 331/270/3 329/269/3
f 282/145/1 284/146/1 283/174/1
f 282/231/2 329/262/2 330/261/2
f 282/239/4 330/269/4 332/270/4
f 282/239/4 332/270/4 284/240/4
f 283/232/5 284/231/5 331/262/5
f 284/231/5 332/261/5 331/262/5
f 285/115/1 286/107/1 287/116/1
f 285/242/2 301/252/2 286/241/2
f 285/243/3 287/244/3 303/254/3
f 285/243/3 303/254/3 301/253/3
f 286/107/1 288/108/1 287/116/1
f 286/241/2 301/252/2 302/251/2
f 286/243/4 302/253/4 304/254/4
f 286/243/4 304/254/4 288/244/4
f 287/242/5 288/241/5 303/252/5
f 288/241/5 304/251/5 303/252/5
f 289/117/1 290/109/1 291/118/1
f 289/242/2 305/252/2 290/241/2
f 289/245/3 291/246/3 307/256/3
f 289/245/3 307/256/3 305/255/3
f 290/109/1 292/110/1 291/118/1
f 290/241/2 305/252/2 306/251/2
f 290/245/4 306/255/4 308/256/4
f 290/245/4 308/256/4 292/246/4
f 291/242/5 292/241/5 307/252/5
f 292/241/5 308/251/5 307/252/5
f 293/119/1 294/111/1 295/120/1
f 293/242/2 309/252/2 294/241/2
f 293/247/3 295/248/3 311/258/3
f 293/247/3 311/258/3 309/257/3
f 294/111/1 296/112/1 295/120/1
f 294/241/2 309/252/2 310/251/2
f 294/247/4 310/257/4 312/258/4
f 294/247/4 312/258/4 296/248/4
f 295/242/5 296/241/5 311/252/5
f 296/241/5 312/251/5 311/252/5
f 297/121/1 298/113/1 299/122/1
f 297/242/2 313/252/2 298/241/2
f 297/249/3 299/250/3 315/260/3
f 297/249/3 315/260/3 313/259/3
f 298/113/1 300/114/1 299/122/1
f 298/241/2 313/252/2 314/251/2
f 298/249/4 314/259/4 316/260/4
f 298/249/4 316/260/4 300/250/4
f 299/242/5 300/241/5 315/252/5
f 300/241/5 316/251/5 315/252/5
f 301/115/6 303/116/6 302/107/6
f 302/107/6 303/116/6 304/108/6
f 305/117/6 307/118/6 306/109/6
f 306/109/6 307/118/6 308/110/6
f 309/119/6 311/120/6 310/111/6
f 310/111/6 311/120/6 312/112/6
f 313/121/6 315/122/6 314/113/6
f 314/113/6 315/122/6 316/114/6
f 317/167/6 319/168/6 318/132/6
f 318/132/6 319/168/6 320/133/6
f 321/169/6 323/170/6 322/137/6
f 322/137/6 323/170/6 324/138/6
f 325/171/6 327/172/6 326/141/6
f 326/141/6 327/172/6 328/142/6
f 329/173/6 331/174/6 330/145/6
f 330/145/6 331/174/6 332/146/6
f 333/159/6 335/160/6 334/135/6
f 334/135/6 335/160/6 336/136/6
f 337/161/6 339/162/6 338/139/6
f 338/139/6 339/162/6 340/140/6
f 341/163/6 343/164/6 342/143/6
f 342/143/6 343/164/6 344/144/6
f 345/165/6 347/166/6 346/147/6
f 346/147/6 347/166/6 348/148/6
f 349/177/6 351/178/6 350/149/6
f 350/149/6 351/178/6 352/150/6
