# exported by ae3d_export.py v3
# object: Street_BlockR2_Trim
mtllib Street_BlockR2_Trim.mtl
v -6.600000 11.580000 -0.260000
v -6.600000 11.580000 0.000000
v -6.600000 12.000000 -0.260000
v -6.600000 12.000000 0.000000
v -6.500000 2.470000 -0.049500
v -6.500000 2.470000 0.000000
v -6.500000 2.540000 -0.049500
v -6.500000 2.540000 0.000000
v -6.500000 5.620000 -0.049500
v -6.500000 5.620000 0.000000
v -6.500000 5.690000 -0.049500
v -6.500000 5.690000 0.000000
v -6.500000 8.770000 -0.049500
v -6.500000 8.770000 0.000000
v -6.500000 8.840000 -0.049500
v -6.500000 8.840000 0.000000
v -5.865000 0.260000 -0.090000
v -5.865000 0.260000 0.000000
v -5.865000 0.340000 -0.090000
v -5.865000 0.340000 0.000000
v -5.865000 3.410000 -0.090000
v -5.865000 3.410000 0.000000
v -5.865000 3.490000 -0.090000
v -5.865000 3.490000 0.000000
v -5.865000 6.560000 -0.090000
v -5.865000 6.560000 0.000000
v -5.865000 6.640000 -0.090000
v -5.865000 6.640000 0.000000
v -5.225000 0.380000 0.195000
v -5.225000 0.380000 0.225000
v -5.225000 1.850000 0.195000
v -5.225000 1.850000 0.225000
v -5.225000 3.530000 0.195000
v -5.225000 3.530000 0.225000
v -5.225000 5.000000 0.195000
v -5.225000 5.000000 0.225000
v -5.225000 6.680000 0.195000
v -5.225000 6.680000 0.225000
v -5.225000 8.150000 0.195000
v -5.225000 8.150000 0.225000
v -5.175000 0.380000 0.195000
v -5.175000 0.380000 0.225000
v -5.175000 1.850000 0.195000
v -5.175000 1.850000 0.225000
v -5.175000 3.530000 0.195000
v -5.175000 3.530000 0.225000
v -5.175000 5.000000 0.195000
v -5.175000 5.000000 0.225000
v -5.175000 6.680000 0.195000
v -5.175000 6.680000 0.225000
v -5.175000 8.150000 0.195000
v -5.175000 8.150000 0.225000
v -4.535000 0.260000 -0.090000
v -4.535000 0.260000 0.000000
v -4.535000 0.340000 -0.090000
v -4.535000 0.340000 0.000000
v -4.535000 3.410000 -0.090000
v -4.535000 3.410000 0.000000
v -4.535000 3.490000 -0.090000
v -4.535000 3.490000 0.000000
v -4.535000 6.560000 -0.090000
v -4.535000 6.560000 0.000000
v -4.535000 6.640000 -0.090000
v -4.535000 6.640000 0.000000
v -3.265000 0.260000 -0.090000
v -3.265000 0.260000 0.000000
v -3.265000 0.340000 -0.090000
v -3.265000 0.340000 0.000000
v -3.265000 3.410000 -0.090000
v -3.265000 3.410000 0.000000
v -3.265000 3.490000 -0.090000
v -3.265000 3.490000 0.000000
v -3.265000 6.560000 -0.090000
v -3.265000 6.560000 0.000000
v -3.265000 6.640000 -0.090000
v -3.265000 6.640000 0.000000
v -2.625000 0.380000 0.195000
v -2.625000 0.380000 0.225000
v -2.625000 1.850000 0.195000
v -2.625000 1.850000 0.225000
v -2.625000 3.530000 0.195000
v -2.625000 3.530000 0.225000
v -2.625000 5.000000 0.195000
v -2.625000 5.000000 0.225000
v -2.625000 6.680000 0.195000
v -2.625000 6.680000 0.225000
v -2.625000 8.150000 0.195000
v -2.625000 8.150000 0.225000
v -2.575000 0.380000 0.195000
v -2.575000 0.380000 0.225000
v -2.575000 1.850000 0.195000
v -2.575000 1.850000 0.225000
v -2.575000 3.530000 0.195000
v -2.575000 3.530000 0.225000
v -2.575000 5.000000 0.195000
v -2.575000 5.000000 0.225000
v -2.575000 6.680000 0.195000
v -2.575000 6.680000 0.225000
v -2.575000 8.150000 0.195000
v -2.575000 8.150000 0.225000
v -1.935000 0.260000 -0.090000
v -1.935000 0.260000 0.000000
v -1.935000 0.340000 -0.090000
v -1.935000 0.340000 0.000000
v -1.935000 3.410000 -0.090000
v -1.935000 3.410000 0.000000
v -1.935000 3.490000 -0.090000
v -1.935000 3.490000 0.000000
v -1.935000 6.560000 -0.090000
v -1.935000 6.560000 0.000000
v -1.935000 6.640000 -0.090000
v -1.935000 6.640000 0.000000
v -0.795000 -0.590000 -0.144000
v -0.795000 -0.590000 0.000000
v -0.795000 2.000000 -0.144000
v -0.795000 2.000000 0.000000
v -0.665000 3.410000 -0.090000
v -0.665000 3.410000 0.000000
v -0.665000 3.490000 -0.090000
v -0.665000 3.490000 0.000000
v -0.665000 6.560000 -0.090000
v -0.665000 6.560000 0.000000
v -0.665000 6.640000 -0.090000
v -0.665000 6.640000 0.000000
v -0.025000 3.530000 0.195000
v -0.025000 3.530000 0.225000
v -0.025000 5.000000 0.195000
v -0.025000 5.000000 0.225000
v -0.025000 6.680000 0.195000
v -0.025000 6.680000 0.225000
v -0.025000 8.150000 0.195000
v -0.025000 8.150000 0.225000
v 0.025000 3.530000 0.195000
v 0.025000 3.530000 0.225000
v 0.025000 5.000000 0.195000
v 0.025000 5.000000 0.225000
v 0.025000 6.680000 0.195000
v 0.025000 6.680000 0.225000
v 0.025000 8.150000 0.195000
v 0.025000 8.150000 0.225000
v 0.665000 3.410000 -0.090000
v 0.665000 3.410000 0.000000
v 0.665000 3.490000 -0.090000
v 0.665000 3.490000 0.000000
v 0.665000 6.560000 -0.090000
v 0.665000 6.560000 0.000000
v 0.665000 6.640000 -0.090000
v 0.665000 6.640000 0.000000
v 0.795000 -0.590000 -0.144000
v 0.795000 -0.590000 0.000000
v 0.795000 2.000000 -0.144000
v 0.795000 2.000000 0.000000
v 1.935000 0.260000 -0.090000
v 1.935000 0.260000 0.000000
v 1.935000 0.340000 -0.090000
v 1.935000 0.340000 0.000000
v 1.935000 3.410000 -0.090000
v 1.935000 3.410000 0.000000
v 1.935000 3.490000 -0.090000
v 1.935000 3.490000 0.000000
v 1.935000 6.560000 -0.090000
v 1.935000 6.560000 0.000000
v 1.935000 6.640000 -0.090000
v 1.935000 6.640000 0.000000
v 2.575000 0.380000 0.195000
v 2.575000 0.380000 0.225000
v 2.575000 1.850000 0.195000
v 2.575000 1.850000 0.225000
v 2.575000 3.530000 0.195000
v 2.575000 3.530000 0.225000
v 2.575000 5.000000 0.195000
v 2.575000 5.000000 0.225000
v 2.575000 6.680000 0.195000
v 2.575000 6.680000 0.225000
v 2.575000 8.150000 0.195000
v 2.575000 8.150000 0.225000
v 2.625000 0.380000 0.195000
v 2.625000 0.380000 0.225000
v 2.625000 1.850000 0.195000
v 2.625000 1.850000 0.225000
v 2.625000 3.530000 0.195000
v 2.625000 3.530000 0.225000
v 2.625000 5.000000 0.195000
v 2.625000 5.000000 0.225000
v 2.625000 6.680000 0.195000
v 2.625000 6.680000 0.225000
v 2.625000 8.150000 0.195000
v 2.625000 8.150000 0.225000
v 3.265000 0.260000 -0.090000
v 3.265000 0.260000 0.000000
v 3.265000 0.340000 -0.090000
v 3.265000 0.340000 0.000000
v 3.265000 3.410000 -0.090000
v 3.265000 3.410000 0.000000
v 3.265000 3.490000 -0.090000
v 3.265000 3.490000 0.000000
v 3.265000 6.560000 -0.090000
v 3.265000 6.560000 0.000000
v 3.265000 6.640000 -0.090000
v 3.265000 6.640000 0.000000
v 4.535000 0.260000 -0.090000
v 4.535000 0.260000 0.000000
v 4.535000 0.340000 -0.090000
v 4.535000 0.340000 0.000000
v 4.535000 3.410000 -0.090000
v 4.535000 3.410000 0.000000
v 4.535000 3.490000 -0.090000
v 4.535000 3.490000 0.000000
v 4.535000 6.560000 -0.090000
v 4.535000 6.560000 0.000000
v 4.535000 6.640000 -0.090000
v 4.535000 6.640000 0.000000
v 5.175000 0.380000 0.195000
v 5.175000 0.380000 0.225000
v 5.175000 1.850000 0.195000
v 5.175000 1.850000 0.225000
v 5.175000 3.530000 0.195000
v 5.175000 3.530000 0.225000
v 5.175000 5.000000 0.195000
v 5.175000 5.000000 0.225000
v 5.175000 6.680000 0.195000
v 5.175000 6.680000 0.225000
v 5.175000 8.150000 0.195000
v 5.175000 8.150000 0.225000
v 5.225000 0.380000 0.195000
v 5.225000 0.380000 0.225000
v 5.225000 1.850000 0.195000
v 5.225000 1.850000 0.225000
v 5.225000 3.530000 0.195000
v 5.225000 3.530000 0.225000
v 5.225000 5.000000 0.195000
v 5.225000 5.000000 0.225000
v 5.225000 6.680000 0.195000
v 5.225000 6.680000 0.225000
v 5.225000 8.150000 0.195000
v 5.225000 8.150000 0.225000
v 5.865000 0.260000 -0.090000
v 5.865000 0.260000 0.000000
v 5.865000 0.340000 -0.090000
v 5.865000 0.340000 0.000000
v 5.865000 3.410000 -0.090000
v 5.865000 3.410000 0.000000
v 5.865000 3.490000 -0.090000
v 5.865000 3.490000 0.000000
v 5.865000 6.560000 -0.090000
v 5.865000 6.560000 0.000000
v 5.865000 6.640000 -0.090000
v 5.865000 6.640000 0.000000
v 6.500000 2.470000 -0.049500
v 6.500000 2.470000 0.000000
v 6.500000 2.540000 -0.049500
v 6.500000 2.540000 0.000000
v 6.500000 5.620000 -0.049500
v 6.500000 5.620000 0.000000
v 6.500000 5.690000 -0.049500
v 6.500000 5.690000 0.000000
v 6.500000 8.770000 -0.049500
v 6.500000 8.770000 0.000000
v 6.500000 8.840000 -0.049500
v 6.500000 8.840000 0.000000
v 6.600000 11.580000 -0.260000
v 6.600000 11.580000 0.000000
v 6.600000 12.000000 -0.260000
v 6.600000 12.000000 0.000000
vt -14.520000 0.000000
vt -14.520000 0.572000
vt -14.520000 25.476000
vt -14.520000 26.400000
vt -14.300000 0.000000
vt -14.300000 0.108900
vt -14.300000 5.434000
vt -14.300000 5.588000
vt -14.300000 12.363999
vt -14.300000 12.518001
vt -14.300000 19.294001
vt -14.300000 19.448000
vt -12.903000 0.000000
vt -12.903000 0.198000
vt -12.903000 0.572000
vt -12.903000 0.748000
vt -12.903000 7.502000
vt -12.903000 7.678000
vt -12.903000 14.432000
vt -12.903000 14.608000
vt -11.495000 -0.495000
vt -11.495000 -0.429000
vt -11.495000 0.836000
vt -11.495000 4.070000
vt -11.495000 7.766000
vt -11.495000 11.000000
vt -11.495000 14.696000
vt -11.495000 17.929998
vt -11.385000 -0.495000
vt -11.385000 -0.429000
vt -11.385000 0.836000
vt -11.385000 4.070000
vt -11.385000 7.766000
vt -11.385000 11.000000
vt -11.385000 14.696000
vt -11.385000 17.929998
vt -9.976999 0.000000
vt -9.976999 0.198000
vt -9.976999 0.572000
vt -9.976999 0.748000
vt -9.976999 7.502000
vt -9.976999 7.678000
vt -9.976999 14.432000
vt -9.976999 14.608000
vt -7.183000 0.000000
vt -7.183000 0.198000
vt -7.183000 0.572000
vt -7.183000 0.748000
vt -7.183000 7.502000
vt -7.183000 7.678000
vt -7.183000 14.432000
vt -7.183000 14.608000
vt -5.775000 -0.495000
vt -5.775000 -0.429000
vt -5.775000 0.836000
vt -5.775000 4.070000
vt -5.775000 7.766000
vt -5.775000 11.000000
vt -5.775000 14.696000
vt -5.775000 17.929998
vt -5.665000 -0.495000
vt -5.665000 -0.429000
vt -5.665000 0.836000
vt -5.665000 4.070000
vt -5.665000 7.766000
vt -5.665000 11.000000
vt -5.665000 14.696000
vt -5.665000 17.929998
vt -4.257000 0.000000
vt -4.257000 0.198000
vt -4.257000 0.572000
vt -4.257000 0.748000
vt -4.257000 7.502000
vt -4.257000 7.678000
vt -4.257000 14.432000
vt -4.257000 14.608000
vt -1.749000 -1.298000
vt -1.749000 0.000000
vt -1.749000 0.316800
vt -1.749000 4.400000
vt -1.463000 0.000000
vt -1.463000 0.198000
vt -1.463000 7.502000
vt -1.463000 7.678000
vt -1.463000 14.432000
vt -1.463000 14.608000
vt -0.495000 0.836000
vt -0.495000 4.070000
vt -0.495000 7.766000
vt -0.495000 11.000000
vt -0.495000 14.696000
vt -0.495000 17.929998
vt -0.429000 0.836000
vt -0.429000 4.070000
vt -0.429000 7.766000
vt -0.429000 11.000000
vt -0.429000 14.696000
vt -0.429000 17.929998
vt -0.055000 -0.495000
vt -0.055000 -0.429000
vt -0.055000 7.766000
vt -0.055000 11.000000
vt -0.055000 14.696000
vt -0.055000 17.929998
vt 0.000000 -1.298000
vt 0.000000 0.572000
vt 0.000000 0.748000
vt 0.000000 4.400000
vt 0.000000 5.434000
vt 0.000000 5.588000
vt 0.000000 7.502000
vt 0.000000 7.678000
vt 0.000000 12.363999
vt 0.000000 12.518001
vt 0.000000 14.432000
vt 0.000000 14.608000
vt 0.000000 19.294001
vt 0.000000 19.448000
vt 0.000000 25.476000
vt 0.000000 26.400000
vt 0.055000 -0.495000
vt 0.055000 -0.429000
vt 0.055000 7.766000
vt 0.055000 11.000000
vt 0.055000 14.696000
vt 0.055000 17.929998
vt 0.108900 5.434000
vt 0.108900 5.588000
vt 0.108900 12.363999
vt 0.108900 12.518001
vt 0.108900 19.294001
vt 0.108900 19.448000
vt 0.198000 0.572000
vt 0.198000 0.748000
vt 0.198000 7.502000
vt 0.198000 7.678000
vt 0.198000 14.432000
vt 0.198000 14.608000
vt 0.316800 -1.298000
vt 0.316800 4.400000
vt 0.572000 25.476000
vt 0.572000 26.400000
vt 1.463000 0.000000
vt 1.463000 0.198000
vt 1.463000 7.502000
vt 1.463000 7.678000
vt 1.463000 14.432000
vt 1.463000 14.608000
vt 1.749000 -1.298000
vt 1.749000 0.000000
vt 1.749000 0.316800
vt 1.749000 4.400000
vt 4.257000 0.000000
vt 4.257000 0.198000
vt 4.257000 0.572000
vt 4.257000 0.748000
vt 4.257000 7.502000
vt 4.257000 7.678000
vt 4.257000 14.432000
vt 4.257000 14.608000
vt 5.665000 -0.495000
vt 5.665000 -0.429000
vt 5.665000 0.836000
vt 5.665000 4.070000
vt 5.665000 7.766000
vt 5.665000 11.000000
vt 5.665000 14.696000
vt 5.665000 17.929998
vt 5.775000 -0.495000
vt 5.775000 -0.429000
vt 5.775000 0.836000
vt 5.775000 4.070000
vt 5.775000 7.766000
vt 5.775000 11.000000
vt 5.775000 14.696000
vt 5.775000 17.929998
vt 7.183000 0.000000
vt 7.183000 0.198000
vt 7.183000 0.572000
vt 7.183000 0.748000
vt 7.183000 7.502000
vt 7.183000 7.678000
vt 7.183000 14.432000
vt 7.183000 14.608000
vt 9.976999 0.000000
vt 9.976999 0.198000
vt 9.976999 0.572000
vt 9.976999 0.748000
vt 9.976999 7.502000
vt 9.976999 7.678000
vt 9.976999 14.432000
vt 9.976999 14.608000
vt 11.385000 -0.495000
vt 11.385000 -0.429000
vt 11.385000 0.836000
vt 11.385000 4.070000
vt 11.385000 7.766000
vt 11.385000 11.000000
vt 11.385000 14.696000
vt 11.385000 17.929998
vt 11.495000 -0.495000
vt 11.495000 -0.429000
vt 11.495000 0.836000
vt 11.495000 4.070000
vt 11.495000 7.766000
vt 11.495000 11.000000
vt 11.495000 14.696000
vt 11.495000 17.929998
vt 12.903000 0.000000
vt 12.903000 0.198000
vt 12.903000 0.572000
vt 12.903000 0.748000
vt 12.903000 7.502000
vt 12.903000 7.678000
vt 12.903000 14.432000
vt 12.903000 14.608000
vt 14.300000 0.000000
vt 14.300000 0.108900
vt 14.300000 5.434000
vt 14.300000 5.588000
vt 14.300000 12.363999
vt 14.300000 12.518001
vt 14.300000 19.294001
vt 14.300000 19.448000
vt 14.520000 0.000000
vt 14.520000 0.572000
vt 14.520000 25.476000
vt 14.520000 26.400000
vn -1.000000 0.000000 0.000000
vn 0.000000 -1.000000 0.000000
vn 0.000000 0.000000 -1.000000
vn 0.000000 0.000000 1.000000
vn 0.000000 1.000000 0.000000
vn 1.000000 0.000000 0.000000
usemtl TrimStone
f 1/2/2 261/226/2 2/1/2
f 1/3/3 3/4/3 263/228/3
f 1/3/3 263/228/3 261/227/3
f 1/141/1 2/119/1 3/142/1
f 2/1/2 261/226/2 262/225/2
f 2/3/4 262/227/4 264/228/4
f 2/3/4 264/228/4 4/4/4
f 2/119/1 4/120/1 3/142/1
f 3/2/5 4/1/5 263/226/5
f 4/1/5 264/225/5 263/226/5
f 5/6/2 249/218/2 6/5/2
f 5/7/3 7/8/3 251/220/3
f 5/7/3 251/220/3 249/219/3
f 5/127/1 6/109/1 7/128/1
f 6/5/2 249/218/2 250/217/2
f 6/7/4 250/219/4 252/220/4
f 6/7/4 252/220/4 8/8/4
f 6/109/1 8/110/1 7/128/1
f 7/6/5 8/5/5 251/218/5
f 8/5/5 252/217/5 251/218/5
f 9/6/2 253/218/2 10/5/2
f 9/9/3 11/10/3 255/222/3
f 9/9/3 255/222/3 253/221/3
f 9/129/1 10/113/1 11/130/1
f 10/5/2 253/218/2 254/217/2
f 10/9/4 254/221/4 256/222/4
f 10/9/4 256/222/4 12/10/4
f 10/113/1 12/114/1 11/130/1
f 11/6/5 12/5/5 255/218/5
f 12/5/5 256/217/5 255/218/5
f 13/6/2 257/218/2 14/5/2
f 13/11/3 15/12/3 259/224/3
f 13/11/3 259/224/3 257/223/3
f 13/131/1 14/117/1 15/132/1
f 14/5/2 257/218/2 258/217/2
f 14/11/4 258/223/4 260/224/4
f 14/11/4 260/224/4 16/12/4
f 14/117/1 16/118/1 15/132/1
f 15/6/5 16/5/5 259/218/5
f 16/5/5 260/217/5 259/218/5
f 17/14/2 53/38/2 18/13/2
f 17/15/3 19/16/3 55/40/3
f 17/15/3 55/40/3 53/39/3
f 17/133/1 18/106/1 19/134/1
f 18/13/2 53/38/2 54/37/2
f 18/15/4 54/39/4 56/40/4
f 18/15/4 56/40/4 20/16/4
f 18/106/1 20/107/1 19/134/1
f 19/14/5 20/13/5 55/38/5
f 20/13/5 56/37/5 55/38/5
f 21/14/2 57/38/2 22/13/2
f 21/17/3 23/18/3 59/42/3
f 21/17/3 59/42/3 57/41/3
f 21/135/1 22/111/1 23/136/1
f 22/13/2 57/38/2 58/37/2
f 22/17/4 58/41/4 60/42/4
f 22/17/4 60/42/4 24/18/4
f 22/111/1 24/112/1 23/136/1
f 23/14/5 24/13/5 59/38/5
f 24/13/5 60/37/5 59/38/5
f 25/14/2 61/38/2 26/13/2
f 25/19/3 27/20/3 63/44/3
f 25/19/3 63/44/3 61/43/3
f 25/137/1 26/115/1 27/138/1
f 26/13/2 61/38/2 62/37/2
f 26/19/4 62/43/4 64/44/4
f 26/19/4 64/44/4 28/20/4
f 26/115/1 28/116/1 27/138/1
f 27/14/5 28/13/5 63/38/5
f 28/13/5 64/37/5 63/38/5
f 29/22/2 41/30/2 30/21/2
f 29/23/3 31/24/3 43/32/3
f 29/23/3 43/32/3 41/31/3
f 29/93/1 30/87/1 31/94/1
f 30/21/2 41/30/2 42/29/2
f 30/23/4 42/31/4 44/32/4
f 30/23/4 44/32/4 32/24/4
f 30/87/1 32/88/1 31/94/1
f 31/22/5 32/21/5 43/30/5
f 32/21/5 44/29/5 43/30/5
f 33/22/2 45/30/2 34/21/2
f 33/25/3 35/26/3 47/34/3
f 33/25/3 47/34/3 45/33/3
f 33/95/1 34/89/1 35/96/1
f 34/21/2 45/30/2 46/29/2
f 34/25/4 46/33/4 48/34/4
f 34/25/4 48/34/4 36/26/4
f 34/89/1 36/90/1 35/96/1
f 35/22/5 36/21/5 47/30/5
f 36/21/5 48/29/5 47/30/5
f 37/22/2 49/30/2 38/21/2
f 37/27/3 39/28/3 51/36/3
f 37/27/3 51/36/3 49/35/3
f 37/97/1 38/91/1 39/98/1
f 38/21/2 49/30/2 50/29/2
f 38/27/4 50/35/4 52/36/4
f 38/27/4 52/36/4 40/28/4
f 38/91/1 40/92/1 39/98/1
f 39/22/5 40/21/5 51/30/5
f 40/21/5 52/29/5 51/30/5
f 41/93/6 43/94/6 42/87/6
f 42/87/6 43/94/6 44/88/6
f 45/95/6 47/96/6 46/89/6
f 46/89/6 47/96/6 48/90/6
f 49/97/6 51/98/6 50/91/6
f 50/91/6 51/98/6 52/92/6
f 53/133/6 55/134/6 54/106/6
f 54/106/6 55/134/6 56/107/6
f 57/135/6 59/136/6 58/111/6
f 58/111/6 59/136/6 60/112/6
f 61/137/6 63/138/6 62/115/6
f 62/115/6 63/138/6 64/116/6
f 65/46/2 101/70/2 66/45/2
f 65/47/3 67/48/3 103/72/3
f 65/47/3 103/72/3 101/71/3
f 65/133/1 66/106/1 67/134/1
f 66/45/2 101/70/2 102/69/2
f 66/47/4 102/71/4 104/72/4
f 66/47/4 104/72/4 68/48/4
f 66/106/1 68/107/1 67/134/1
f 67/46/5 68/45/5 103/70/5
f 68/45/5 104/69/5 103/70/5
f 69/46/2 105/70/2 70/45/2
f 69/49/3 71/50/3 107/74/3
f 69/49/3 107/74/3 105/73/3
f 69/135/1 70/111/1 71/136/1
f 70/45/2 105/70/2 106/69/2
f 70/49/4 106/73/4 108/74/4
f 70/49/4 108/74/4 72/50/4
f 70/111/1 72/112/1 71/136/1
f 71/46/5 72/45/5 107/70/5
f 72/45/5 108/69/5 107/70/5
f 73/46/2 109/70/2 74/45/2
f 73/51/3 75/52/3 111/76/3
f 73/51/3 111/76/3 109/75/3
f 73/137/1 74/115/1 75/138/1
f 74/45/2 109/70/2 110/69/2
f 74/51/4 110/75/4 112/76/4
f 74/51/4 112/76/4 76/52/4
f 74/115/1 76/116/1 75/138/1
f 75/46/5 76/45/5 111/70/5
f 76/45/5 112/69/5 111/70/5
f 77/54/2 89/62/2 78/53/2
f 77/55/3 79/56/3 91/64/3
f 77/55/3 91/64/3 89/63/3
f 77/93/1 78/87/1 79/94/1
f 78/53/2 89/62/2 90/61/2
f 78/55/4 90/63/4 92/64/4
f 78/55/4 92/64/4 80/56/4
f 78/87/1 80/88/1 79/94/1
f 79/54/5 80/53/5 91/62/5
f 80/53/5 92/61/5 91/62/5
f 81/54/2 93/62/2 82/53/2
f 81/57/3 83/58/3 95/66/3
f 81/57/3 95/66/3 93/65/3
f 81/95/1 82/89/1 83/96/1
f 82/53/2 93/62/2 94/61/2
f 82/57/4 94/65/4 96/66/4
f 82/57/4 96/66/4 84/58/4
f 82/89/1 84/90/1 83/96/1
f 83/54/5 84/53/5 95/62/5
f 84/53/5 96/61/5 95/62/5
f 85/54/2 97/62/2 86/53/2
f 85/59/3 87/60/3 99/68/3
f 85/59/3 99/68/3 97/67/3
f 85/97/1 86/91/1 87/98/1
f 86/53/2 97/62/2 98/61/2
f 86/59/4 98/67/4 100/68/4
f 86/59/4 100/68/4 88/60/4
f 86/91/1 88/92/1 87/98/1
f 87/54/5 88/53/5 99/62/5
f 88/53/5 100/61/5 99/62/5
f 89/93/6 91/94/6 90/87/6
f 90/87/6 91/94/6 92/88/6
f 93/95/6 95/96/6 94/89/6
f 94/89/6 95/96/6 96/90/6
f 97/97/6 99/98/6 98/91/6
f 98/91/6 99/98/6 100/92/6
f 101/133/6 103/134/6 102/106/6
f 102/106/6 103/134/6 104/107/6
f 105/135/6 107/136/6 106/111/6
f 106/111/6 107/136/6 108/112/6
f 109/137/6 111/138/6 110/115/6
f 110/115/6 111/138/6 112/116/6
f 113/77/3 115/80/3 151/152/3
f 113/77/3 151/152/3 149/149/3
f 113/79/2 149/151/2 114/78/2
f 113/139/1 114/105/1 115/140/1
f 114/77/4 150/149/4 152/152/4
f 114/77/4 152/152/4 116/80/4
f 114/78/2 149/151/2 150/150/2
f 114/105/1 116/108/1 115/140/1
f 115/79/5 116/78/5 151/151/5
f 116/78/5 152/150/5 151/151/5
f 117/82/2 141/144/2 118/81/2
f 117/83/3 119/84/3 143/146/3
f 117/83/3 143/146/3 141/145/3
f 117/135/1 118/111/1 119/136/1
f 118/81/2 141/144/2 142/143/2
f 118/83/4 142/145/4 144/146/4
f 118/83/4 144/146/4 120/84/4
f 118/111/1 120/112/1 119/136/1
f 119/82/5 120/81/5 143/144/5
f 120/81/5 144/143/5 143/144/5
f 121/82/2 145/144/2 122/81/2
f 121/85/3 123/86/3 147/148/3
f 121/85/3 147/148/3 145/147/3
f 121/137/1 122/115/1 123/138/1
f 122/81/2 145/144/2 146/143/2
f 122/85/4 146/147/4 148/148/4
f 122/85/4 148/148/4 124/86/4
f 122/115/1 124/116/1 123/138/1
f 123/82/5 124/81/5 147/144/5
f 124/81/5 148/143/5 147/144/5
f 125/95/1 126/89/1 127/96/1
f 125/100/2 133/122/2 126/99/2
f 125/101/3 127/102/3 135/124/3
f 125/101/3 135/124/3 133/123/3
f 126/89/1 128/90/1 127/96/1
f 126/99/2 133/122/2 134/121/2
f 126/101/4 134/123/4 136/124/4
f 126/101/4 136/124/4 128/102/4
f 127/100/5 128/99/5 135/122/5
f 128/99/5 136/121/5 135/122/5
f 129/97/1 130/91/1 131/98/1
f 129/100/2 137/122/2 130/99/2
f 129/103/3 131/104/3 139/126/3
f 129/103/3 139/126/3 137/125/3
f 130/91/1 132/92/1 131/98/1
f 130/99/2 137/122/2 138/121/2
f 130/103/4 138/125/4 140/126/4
f 130/103/4 140/126/4 132/104/4
f 131/100/5 132/99/5 139/122/5
f 132/99/5 140/121/5 139/122/5
f 133/95/6 135/96/6 134/89/6
f 134/89/6 135/96/6 136/90/6
f 137/97/6 139/98/6 138/91/6
f 138/91/6 139/98/6 140/92/6
f 141/135/6 143/136/6 142/111/6
f 142/111/6 143/136/6 144/112/6
f 145/137/6 147/138/6 146/115/6
f 146/115/6 147/138/6 148/116/6
f 149/139/6 151/140/6 150/105/6
f 150/105/6 151/140/6 152/108/6
f 153/133/1 154/106/1 155/134/1
f 153/154/2 189/178/2 154/153/2
f 153/155/3 155/156/3 191/180/3
f 153/155/3 191/180/3 189/179/3
f 154/106/1 156/107/1 155/134/1
f 154/153/2 189/178/2 190/177/2
f 154/155/4 190/179/4 192/180/4
f 154/155/4 192/180/4 156/156/4
f 155/154/5 156/153/5 191/178/5
f 156/153/5 192/177/5 191/178/5
f 157/135/1 158/111/1 159/136/1
f 157/154/2 193/178/2 158/153/2
f 157/157/3 159/158/3 195/182/3
f 157/157/3 195/182/3 193/181/3
f 158/111/1 160/112/1 159/136/1
f 158/153/2 193/178/2 194/177/2
f 158/157/4 194/181/4 196/182/4
f 158/157/4 196/182/4 160/158/4
f 159/154/5 160/153/5 195/178/5
f 160/153/5 196/177/5 195/178/5
f 161/137/1 162/115/1 163/138/1
f 161/154/2 197/178/2 162/153/2
f 161/159/3 163/160/3 199/184/3
f 161/159/3 199/184/3 197/183/3
f 162/115/1 164/116/1 163/138/1
f 162/153/2 197/178/2 198/177/2
f 162/159/4 198/183/4 200/184/4
f 162/159/4 200/184/4 164/160/4
f 163/154/5 164/153/5 199/178/5
f 164/153/5 200/177/5 199/178/5
f 165/93/1 166/87/1 167/94/1
f 165/162/2 177/170/2 166/161/2
f 165/163/3 167/164/3 179/172/3
f 165/163/3 179/172/3 177/171/3
f 166/87/1 168/88/1 167/94/1
f 166/161/2 177/170/2 178/169/2
f 166/163/4 178/171/4 180/172/4
f 166/163/4 180/172/4 168/164/4
f 167/162/5 168/161/5 179/170/5
f 168/161/5 180/169/5 179/170/5
f 169/95/1 170/89/1 171/96/1
f 169/162/2 181/170/2 170/161/2
f 169/165/3 171/166/3 183/174/3
f 169/165/3 183/174/3 181/173/3
f 170/89/1 172/90/1 171/96/1
f 170/161/2 181/170/2 182/169/2
f 170/165/4 182/173/4 184/174/4
f 170/165/4 184/174/4 172/166/4
f 171/162/5 172/161/5 183/170/5
f 172/161/5 184/169/5 183/170/5
f 173/97/1 174/91/1 175/98/1
f 173/162/2 185/170/2 174/161/2
f 173/167/3 175/168/3 187/176/3
f 173/167/3 187/176/3 185/175/3
f 174/91/1 176/92/1 175/98/1
f 174/161/2 185/170/2 186/169/2
f 174/167/4 186/175/4 188/176/4
f 174/167/4 188/176/4 176/168/4
f 175/162/5 176/161/5 187/170/5
f 176/161/5 188/169/5 187/170/5
f 177/93/6 179/94/6 178/87/6
f 178/87/6 179/94/6 180/88/6
f 181/95/6 183/96/6 182/89/6
f 182/89/6 183/96/6 184/90/6
f 185/97/6 187/98/6 186/91/6
f 186/91/6 187/98/6 188/92/6
f 189/133/6 191/134/6 190/106/6
f 190/106/6 191/134/6 192/107/6
f 193/135/6 195/136/6 194/111/6
f 194/111/6 195/136/6 196/112/6
f 197/137/6 199/138/6 198/115/6
f 198/115/6 199/138/6 200/116/6
f 201/133/1 202/106/1 203/134/1
f 201/186/2 237/210/2 202/185/2
f 201/187/3 203/188/3 239/212/3
f 201/187/3 239/212/3 237/211/3
f 202/106/1 204/107/1 203/134/1
f 202/185/2 237/210/2 238/209/2
f 202/187/4 238/211/4 240/212/4
f 202/187/4 240/212/4 204/188/4
f 203/186/5 204/185/5 239/210/5
f 204/185/5 240/209/5 239/210/5
f 205/135/1 206/111/1 207/136/1
f 205/186/2 241/210/2 206/185/2
f 205/189/3 207/190/3 243/214/3
f 205/189/3 243/214/3 241/213/3
f 206/111/1 208/112/1 207/136/1
f 206/185/2 241/210/2 242/209/2
f 206/189/4 242/213/4 244/214/4
f 206/189/4 244/214/4 208/190/4
f 207/186/5 208/185/5 243/210/5
f 208/185/5 244/209/5 243/210/5
f 209/137/1 210/115/1 211/138/1
f 209/186/2 245/210/2 210/185/2
f 209/191/3 211/192/3 247/216/3
f 209/191/3 247/216/3 245/215/3
f 210/115/1 212/116/1 211/138/1
f 210/185/2 245/210/2 246/209/2
f 210/191/4 246/215/4 248/216/4
f 210/191/4 248/216/4 212/192/4
f 211/186/5 212/185/5 247/210/5
f 212/185/5 248/209/5 247/210/5
f 213/93/1 214/87/1 215/94/1
f 213/194/2 225/202/2 214/193/2
f 213/195/3 215/196/3 227/204/3
f 213/195/3 227/204/3 225/203/3
f 214/87/1 216/88/1 215/94/1
f 214/193/2 225/202/2 226/201/2
f 214/195/4 226/203/4 228/204/4
f 214/195/4 228/204/4 216/196/4
f 215/194/5 216/193/5 227/202/5
f 216/193/5 228/201/5 227/202/5
f 217/95/1 218/89/1 219/96/1
f 217/194/2 229/202/2 218/193/2
f 217/197/3 219/198/3 231/206/3
f 217/197/3 231/206/3 229/205/3
f 218/89/1 220/90/1 219/96/1
f 218/193/2 229/202/2 230/201/2
f 218/197/4 230/205/4 232/206/4
f 218/197/4 232/206/4 220/198/4
f 219/194/5 220/193/5 231/202/5
f 220/193/5 232/201/5 231/202/5
f 221/97/1 222/91/1 223/98/1
f 221/194/2 233/202/2 222/193/2
f 221/199/3 223/200/3 235/208/3
f 221/199/3 235/208/3 233/207/3
f 222/91/1 224/92/1 223/98/1
f 222/193/2 233/202/2 234/201/2
f 222/199/4 234/207/4 236/208/4
f 222/199/4 236/208/4 224/200/4
f 223/194/5 224/193/5 235/202/5
f 224/193/5 236/201/5 235/202/5
f 225/93/6 227/94/6 226/87/6
f 226/87/6 227/94/6 228/88/6
f 229/95/6 231/96/6 230/89/6
f 230/89/6 231/96/6 232/90/6
f 233/97/6 235/98/6 234/91/6
f 234/91/6 235/98/6 236/92/6
f 237/133/6 239/134/6 238/106/6
f 238/106/6 239/134/6 240/107/6
f 241/135/6 243/136/6 242/111/6
f 242/111/6 243/136/6 244/112/6
f 245/137/6 247/138/6 246/115/6
f 246/115/6 247/138/6 248/116/6
f 249/127/6 251/128/6 250/109/6
f 250/109/6 251/128/6 252/110/6
f 253/129/6 255/130/6 254/113/6
f 254/113/6 255/130/6 256/114/6
f 257/131/6 259/132/6 258/117/6
f 258/117/6 259/132/6 260/118/6
f 261/141/6 263/142/6 262/119/6
f 262/119/6 263/142/6 264/120/6
