# exported by ae3d_export.py v3
# object: Street_BlockR1_Lit
mtllib Street_BlockR1_Lit.mtl
v -5.735000 9.860000 0.225000
v -5.735000 11.330000 0.225000
v -4.665000 9.860000 0.225000
v -4.665000 11.330000 0.225000
v -3.135000 0.410000 0.225000
v -3.135000 1.880000 0.225000
v -2.065000 0.410000 0.225000
v -2.065000 1.880000 0.225000
v 2.065000 0.410000 0.225000
v 2.065000 1.880000 0.225000
v 2.065000 3.560000 0.225000
v 2.065000 5.030000 0.225000
v 3.135000 0.410000 0.225000
v 3.135000 1.880000 0.225000
v 3.135000 3.560000 0.225000
v 3.135000 5.030000 0.225000
v 4.665000 3.560000 0.225000
v 4.665000 5.030000 0.225000
v 5.735000 3.560000 0.225000
v 5.735000 5.030000 0.225000
vt 0.000000 0.000000
vt 0.000000 1.000000
vt 1.000000 0.000000
vt 1.000000 1.000000
vn 0.000000 0.000000 -1.000000
vn 0.000000 0.000000 1.000000
usemtl WindowLit
f 1/1/2 3/3/2 4/4/2
f 1/1/2 4/4/2 2/2/2
f 5/1/1 6/2/1 8/4/1
f 5/1/1 8/4/1 7/3/1
f 9/1/1 10/2/1 14/4/1
f 9/1/1 14/4/1 13/3/1
f 11/1/2 15/3/2 16/4/2
f 11/1/2 16/4/2 12/2/2
f 17/1/2 19/3/2 20/4/2
f 17/1/2 20/4/2 18/2/2
