# exported by ae3d_export.py v3
# object: Street_BlockL6_TankLeg2
mtllib Street_BlockL6_TankLeg2.mtl
v -0.060000 0.000000 -0.060000
v -0.060000 0.000000 0.060000
v -0.060000 1.150000 -0.060000
v -0.060000 1.150000 0.060000
v 0.060000 0.000000 -0.060000
v 0.060000 0.000000 0.060000
v 0.060000 1.150000 -0.060000
v 0.060000 1.150000 0.060000
vt -0.072000 -0.072000
vt -0.072000 0.000000
vt -0.072000 0.072000
vt -0.072000 1.380000
vt 0.072000 -0.072000
vt 0.072000 0.000000
vt 0.072000 0.072000
vt 0.072000 1.380000
vn -1.000000 0.000000 0.000000
vn 0.000000 -1.000000 0.000000
vn 0.000000 0.000000 -1.000000
vn 0.000000 0.000000 1.000000
vn 0.000000 1.000000 0.000000
vn 1.000000 0.000000 0.000000
usemtl LampMetal
f 1/2/3 3/4/3 5/6/3
f 1/3/2 5/7/2 2/1/2
f 1/6/1 2/2/1 4/4/1
f 1/6/1 4/4/1 3/8/1
f 2/1/2 5/7/2 6/5/2
f 2/2/4 6/6/4 8/8/4
f 2/2/4 8/8/4 4/4/4
f 3/3/5 4/1/5 7/7/5
f 3/4/3 7/8/3 5/6/3
f 4/1/5 8/5/5 7/7/5
f 5/6/6 7/8/6 6/2/6
f 6/2/6 7/8/6 8/4/6
