# exported by ae3d_export.py v3
# object: Street_BlockL4_Glass
mtllib Street_BlockL4_Glass.mtl
v -4.735000 0.470000 -0.225000
v -4.735000 1.940000 -0.225000
v -4.735000 6.770000 -0.225000
v -4.735000 8.240000 -0.225000
v -4.735000 9.920000 -0.225000
v -4.735000 11.390000 -0.225000
v -3.665000 0.470000 -0.225000
v -3.665000 1.940000 -0.225000
v -3.665000 6.770000 -0.225000
v -3.665000 8.240000 -0.225000
v -3.665000 9.920000 -0.225000
v -3.665000 11.390000 -0.225000
v -1.935000 0.470000 -0.225000
v -1.935000 1.940000 -0.225000
v -1.935000 6.770000 -0.225000
v -1.935000 8.240000 -0.225000
v -1.935000 9.920000 -0.225000
v -1.935000 11.390000 -0.225000
v -0.865000 0.470000 -0.225000
v -0.865000 1.940000 -0.225000
v -0.865000 6.770000 -0.225000
v -0.865000 8.240000 -0.225000
v -0.865000 9.920000 -0.225000
v -0.865000 11.390000 -0.225000
v 0.765000 -0.460000 -0.225000
v 0.765000 1.890000 -0.225000
v 0.865000 3.620000 -0.225000
v 0.865000 5.090000 -0.225000
v 0.865000 6.770000 -0.225000
v 0.865000 8.240000 -0.225000
v 0.865000 9.920000 -0.225000
v 0.865000 11.390000 -0.225000
v 1.935000 3.620000 -0.225000
v 1.935000 5.090000 -0.225000
v 1.935000 6.770000 -0.225000
v 1.935000 8.240000 -0.225000
v 1.935000 9.920000 -0.225000
v 1.935000 11.390000 -0.225000
v 2.035000 -0.460000 -0.225000
v 2.035000 1.890000 -0.225000
v 3.665000 0.470000 -0.225000
v 3.665000 1.940000 -0.225000
v 3.665000 3.620000 -0.225000
v 3.665000 5.090000 -0.225000
v 3.665000 9.920000 -0.225000
v 3.665000 11.390000 -0.225000
v 4.735000 0.470000 -0.225000
v 4.735000 1.940000 -0.225000
v 4.735000 3.620000 -0.225000
v 4.735000 5.090000 -0.225000
v 4.735000 9.920000 -0.225000
v 4.735000 11.390000 -0.225000
vt 0.000000 0.000000
vt 0.000000 1.000000
vt 1.000000 0.000000
vt 1.000000 1.000000
vn 0.000000 0.000000 -1.000000
vn 0.000000 0.000000 1.000000
usemtl WindowGlass
f 1/1/1 2/2/1 8/4/1
f 1/1/1 8/4/1 7/3/1
f 3/1/2 9/3/2 10/4/2
f 3/1/2 10/4/2 4/2/2
f 5/1/1 6/2/1 12/4/1
f 5/1/1 12/4/1 11/3/1
f 13/1/2 19/3/2 20/4/2
f 13/1/2 20/4/2 14/2/2
f 15/1/2 21/3/2 22/4/2
f 15/1/2 22/4/2 16/2/2
f 17/1/1 18/2/1 24/4/1
f 17/1/1 24/4/1 23/3/1
f 25/1/2 39/3/2 40/4/2
f 25/1/2 40/4/2 26/2/2
f 27/1/1 28/2/1 34/4/1
f 27/1/1 34/4/1 33/3/1
f 29/1/2 35/3/2 36/4/2
f 29/1/2 36/4/2 30/2/2
f 31/1/1 32/2/1 38/4/1
f 31/1/1 38/4/1 37/3/1
f 41/1/1 42/2/1 48/4/1
f 41/1/1 48/4/1 47/3/1
f 43/1/1 44/2/1 50/4/1
f 43/1/1 50/4/1 49/3/1
f 45/1/1 46/2/1 52/4/1
f 45/1/1 52/4/1 51/3/1
