# exported by ae3d_export.py v3
# object: Street_Sack6
mtllib Street_Sack6.mtl
v -0.271185 0.106159 -0.122228
v -0.271185 0.106159 0.122228
v -0.260176 0.030903 -0.141331
v -0.260176 0.030903 0.141331
v -0.240480 0.045062 -0.202317
v -0.240480 0.045062 0.202317
v -0.236955 0.106618 -0.201302
v -0.236955 0.106618 0.201302
v -0.214815 0.313841 -0.073374
v -0.214815 0.313841 0.073374
v -0.190000 0.000000 -0.150000
v -0.190000 0.000000 0.150000
v -0.180834 0.313382 -0.152663
v -0.180834 0.313382 0.152663
v -0.179548 0.031552 -0.220939
v -0.179548 0.031552 0.220939
v -0.162952 0.389097 -0.057070
v -0.162952 0.389097 0.057070
v -0.157161 0.107077 -0.234811
v -0.157161 0.107077 0.234811
v -0.150942 0.374938 -0.124717
v -0.150942 0.374938 0.124717
v -0.101289 0.312923 -0.186389
v -0.101289 0.312923 0.186389
v -0.082677 0.388448 -0.136984
v -0.082677 0.388448 0.136984
v -0.076000 0.420000 -0.051200
v -0.076000 0.420000 0.051200
v 0.076000 0.420000 -0.051200
v 0.076000 0.420000 0.051200
v 0.082677 0.388448 -0.136984
v 0.082677 0.388448 0.136984
v 0.101289 0.312923 -0.186389
v 0.101289 0.312923 0.186389
v 0.150942 0.374938 -0.124717
v 0.150942 0.374938 0.124717
v 0.157161 0.107077 -0.234811
v 0.157161 0.107077 0.234811
v 0.162952 0.389097 -0.057070
v 0.162952 0.389097 0.057070
v 0.179548 0.031552 -0.220939
v 0.179548 0.031552 0.220939
v 0.180834 0.313382 -0.152663
v 0.180834 0.313382 0.152663
v 0.190000 0.000000 -0.150000
v 0.190000 0.000000 0.150000
v 0.214815 0.313841 -0.073374
v 0.214815 0.313841 0.073374
v 0.236955 0.106618 -0.201302
v 0.236955 0.106618 0.201302
v 0.240480 0.045062 -0.202317
v 0.240480 0.045062 0.202317
v 0.260176 0.030903 -0.141331
v 0.260176 0.030903 0.141331
v 0.271185 0.106159 -0.122228
v 0.271185 0.106159 0.122228
vt -0.416281 -0.226129
vt -0.416281 0.226129
vt -0.384768 -0.323707
vt -0.384768 0.072099
vt -0.384768 0.323707
vt -0.379128 0.170589
vt -0.323707 0.072099
vt -0.322082 0.170589
vt -0.304000 -0.240000
vt -0.304000 0.240000
vt -0.289334 0.501411
vt -0.287277 -0.353503
vt -0.287277 0.050484
vt -0.287277 0.353503
vt -0.260722 -0.091312
vt -0.260722 0.091312
vt -0.251458 0.171324
vt -0.244261 0.501411
vt -0.241507 -0.199548
vt -0.241507 0.199548
vt -0.241507 0.599901
vt -0.226129 0.049445
vt -0.199548 0.599901
vt -0.195565 0.169854
vt -0.162062 0.500676
vt -0.132283 -0.219174
vt -0.132283 0.219174
vt -0.132283 0.621516
vt -0.121600 -0.081920
vt -0.121600 0.081920
vt -0.117398 0.502146
vt -0.091312 0.622555
vt 0.091312 0.622555
vt 0.117398 0.502146
vt 0.121600 -0.081920
vt 0.121600 0.081920
vt 0.132283 -0.219174
vt 0.132283 0.219174
vt 0.132283 0.621516
vt 0.162062 0.500676
vt 0.195565 0.169854
vt 0.199548 0.599901
vt 0.226129 0.049445
vt 0.241507 -0.199548
vt 0.241507 0.199548
vt 0.241507 0.599901
vt 0.244261 0.501411
vt 0.251458 0.171324
vt 0.260722 -0.091312
vt 0.260722 0.091312
vt 0.287277 -0.353503
vt 0.287277 0.050484
vt 0.287277 0.353503
vt 0.289334 0.501411
vt 0.304000 -0.240000
vt 0.304000 0.240000
vt 0.322082 0.170589
vt 0.323707 0.072099
vt 0.379128 0.170589
vt 0.384768 -0.323707
vt 0.384768 0.072099
vt 0.384768 0.323707
vt 0.416281 -0.226129
vt 0.416281 0.226129
vn -0.989467 -0.144758 0.000000
vn -0.965081 0.261951 0.000000
vn -0.933278 0.001750 0.359152
vn -0.933277 0.001750 -0.359152
vn -0.868918 0.323891 -0.374268
vn -0.868918 0.323891 0.374268
vn -0.823405 0.567454 0.000000
vn -0.773956 0.558823 -0.297840
vn -0.773956 0.558823 0.297840
vn -0.403020 -0.915191 0.000000
vn -0.370034 0.306724 0.876924
vn -0.370033 0.306723 -0.876924
vn -0.366675 -0.849963 -0.378301
vn -0.366675 -0.849963 0.378301
vn -0.349085 -0.021882 0.936836
vn -0.349084 -0.021882 -0.936836
vn -0.334884 0.942259 0.000000
vn -0.292450 0.546342 -0.784846
vn -0.292450 0.546342 0.784846
vn -0.274597 0.918877 0.283303
vn -0.274596 0.918878 -0.283303
vn 0.000000 -1.000000 0.000000
vn 0.000000 -0.913697 -0.406395
vn 0.000000 -0.913697 0.406395
vn 0.000000 -0.180655 -0.983547
vn 0.000000 -0.180655 0.983547
vn 0.000000 0.228988 -0.973429
vn 0.000000 0.228988 0.973429
vn 0.000000 0.547430 -0.836852
vn 0.000000 0.547430 0.836852
vn 0.000000 0.938528 -0.345202
vn 0.000000 0.938528 0.345203
vn 0.000000 1.000000 0.000000
vn 0.274597 0.918877 -0.283303
vn 0.274597 0.918877 0.283303
vn 0.292450 0.546342 -0.784846
vn 0.292450 0.546342 0.784846
vn 0.334884 0.942259 0.000000
vn 0.349084 -0.021882 0.936836
vn 0.349085 -0.021882 -0.936836
vn 0.366675 -0.849963 -0.378301
vn 0.366675 -0.849963 0.378301
vn 0.370034 0.306723 0.876924
vn 0.370034 0.306724 -0.876924
vn 0.403020 -0.915191 0.000000
vn 0.773956 0.558823 -0.297840
vn 0.773956 0.558823 0.297840
vn 0.823405 0.567454 0.000000
vn 0.868918 0.323891 -0.374268
vn 0.868918 0.323891 0.374268
vn 0.933277 0.001750 0.359152
vn 0.933278 0.001750 -0.359152
vn 0.965081 0.261951 0.000000
vn 0.989467 -0.144758 0.000000
usemtl PropSack
f 1/41/1 3/43/1 4/22/1
f 1/41/1 4/22/1 2/24/1
f 1/41/2 2/24/2 10/31/2
f 1/41/2 10/31/2 9/34/2
f 1/41/4 7/57/4 3/43/4
f 1/41/5 9/34/5 13/47/5
f 1/41/5 13/47/5 7/57/5
f 2/24/3 4/22/3 8/8/3
f 2/24/6 8/8/6 14/18/6
f 2/24/6 14/18/6 10/31/6
f 3/2/10 11/10/10 12/9/10
f 3/2/10 12/9/10 4/1/10
f 3/2/13 5/5/13 11/10/13
f 3/43/4 7/57/4 5/58/4
f 4/1/14 12/9/14 6/3/14
f 4/22/3 6/7/3 8/8/3
f 5/4/16 7/6/16 15/13/16
f 5/5/13 15/14/13 11/10/13
f 6/3/14 12/9/14 16/12/14
f 6/4/15 16/13/15 8/6/15
f 7/6/12 13/11/12 19/17/12
f 7/6/16 19/17/16 15/13/16
f 8/6/11 20/17/11 14/11/11
f 8/6/15 16/13/15 20/17/15
f 9/34/7 10/31/7 18/32/7
f 9/34/7 18/32/7 17/33/7
f 9/34/8 17/33/8 21/42/8
f 9/34/8 21/42/8 13/47/8
f 10/31/9 14/18/9 22/23/9
f 10/31/9 22/23/9 18/32/9
f 11/10/22 45/56/22 12/9/22
f 11/10/23 15/14/23 45/56/23
f 12/9/22 45/56/22 46/55/22
f 12/9/24 42/51/24 16/12/24
f 12/9/24 46/55/24 42/51/24
f 13/11/12 23/25/12 19/17/12
f 13/11/18 21/21/18 23/25/18
f 14/11/11 20/17/11 24/25/11
f 14/11/19 24/25/19 22/21/19
f 15/13/25 19/17/25 41/52/25
f 15/14/23 41/53/23 45/56/23
f 16/13/26 38/48/26 20/17/26
f 16/13/26 42/52/26 38/48/26
f 17/16/17 18/15/17 28/29/17
f 17/16/17 28/29/17 27/30/17
f 17/16/21 25/27/21 21/20/21
f 17/16/21 27/30/21 25/27/21
f 18/15/20 22/19/20 26/26/20
f 18/15/20 26/26/20 28/29/20
f 19/17/25 37/48/25 41/52/25
f 19/17/27 23/25/27 33/40/27
f 19/17/27 33/40/27 37/48/27
f 20/17/28 38/48/28 24/25/28
f 21/21/18 25/28/18 23/25/18
f 22/21/19 24/25/19 26/28/19
f 23/25/29 25/28/29 31/39/29
f 23/25/29 31/39/29 33/40/29
f 24/25/28 38/48/28 34/40/28
f 24/25/30 32/39/30 26/28/30
f 24/25/30 34/40/30 32/39/30
f 25/27/31 27/30/31 31/38/31
f 26/26/32 30/35/32 28/29/32
f 26/26/32 32/37/32 30/35/32
f 27/30/31 29/36/31 31/38/31
f 27/30/33 28/29/33 29/36/33
f 28/29/33 30/35/33 29/36/33
f 29/36/34 39/50/34 31/38/34
f 29/36/38 30/35/38 39/50/38
f 30/35/35 32/37/35 40/49/35
f 30/35/38 40/49/38 39/50/38
f 31/38/34 39/50/34 35/45/34
f 31/39/36 35/46/36 33/40/36
f 32/37/35 36/44/35 40/49/35
f 32/39/37 34/40/37 36/46/37
f 33/40/36 35/46/36 43/54/36
f 33/40/44 43/54/44 37/48/44
f 34/40/37 44/54/37 36/46/37
f 34/40/43 38/48/43 44/54/43
f 35/42/46 39/33/46 47/34/46
f 35/42/46 47/34/46 43/47/46
f 36/23/47 44/18/47 48/31/47
f 36/23/47 48/31/47 40/32/47
f 37/48/40 49/59/40 41/52/40
f 37/48/44 43/54/44 49/59/44
f 38/48/39 42/52/39 50/59/39
f 38/48/43 50/59/43 44/54/43
f 39/33/48 40/32/48 48/31/48
f 39/33/48 48/31/48 47/34/48
f 41/52/40 49/59/40 51/61/40
f 41/53/41 51/62/41 45/56/41
f 42/51/42 46/55/42 52/60/42
f 42/52/39 52/61/39 50/59/39
f 43/47/49 47/34/49 55/41/49
f 43/47/49 55/41/49 49/57/49
f 44/18/50 50/8/50 56/24/50
f 44/18/50 56/24/50 48/31/50
f 45/56/41 51/62/41 53/64/41
f 45/56/45 53/64/45 54/63/45
f 45/56/45 54/63/45 46/55/45
f 46/55/42 54/63/42 52/60/42
f 47/34/53 48/31/53 56/24/53
f 47/34/53 56/24/53 55/41/53
f 49/57/52 53/43/52 51/58/52
f 49/57/52 55/41/52 53/43/52
f 50/8/51 52/7/51 54/22/51
f 50/8/51 54/22/51 56/24/51
f 53/43/54 55/41/54 56/24/54
f 53/43/54 56/24/54 54/22/54
