# exported by ae3d_export.py v3
# object: Street_BlockL4_Pipes
mtllib Street_BlockL4_Pipes.mtl
v -5.405000 0.640000 0.000000
v -5.405000 0.640000 0.160000
v -5.405000 0.720000 0.000000
v -5.405000 0.720000 0.160000
v -5.405000 3.790000 0.000000
v -5.405000 3.790000 0.160000
v -5.405000 3.870000 0.000000
v -5.405000 3.870000 0.160000
v -5.405000 6.940000 0.000000
v -5.405000 6.940000 0.160000
v -5.405000 7.020000 0.000000
v -5.405000 7.020000 0.160000
v -5.375000 0.600000 0.050000
v -5.375000 0.600000 0.160000
v -5.375000 9.700000 0.050000
v -5.375000 9.700000 0.160000
v -5.265000 0.600000 0.050000
v -5.265000 0.600000 0.160000
v -5.265000 9.700000 0.050000
v -5.265000 9.700000 0.160000
v -5.235000 0.640000 0.000000
v -5.235000 0.640000 0.160000
v -5.235000 0.720000 0.000000
v -5.235000 0.720000 0.160000
v -5.235000 3.790000 0.000000
v -5.235000 3.790000 0.160000
v -5.235000 3.870000 0.000000
v -5.235000 3.870000 0.160000
v -5.235000 6.940000 0.000000
v -5.235000 6.940000 0.160000
v -5.235000 7.020000 0.000000
v -5.235000 7.020000 0.160000
v 5.235000 0.640000 0.000000
v 5.235000 0.640000 0.160000
v 5.235000 0.720000 0.000000
v 5.235000 0.720000 0.160000
v 5.235000 3.790000 0.000000
v 5.235000 3.790000 0.160000
v 5.235000 3.870000 0.000000
v 5.235000 3.870000 0.160000
v 5.235000 6.940000 0.000000
v 5.235000 6.940000 0.160000
v 5.235000 7.020000 0.000000
v 5.235000 7.020000 0.160000
v 5.265000 0.600000 0.050000
v 5.265000 0.600000 0.160000
v 5.265000 9.700000 0.050000
v 5.265000 9.700000 0.160000
v 5.375000 0.600000 0.050000
v 5.375000 0.600000 0.160000
v 5.375000 9.700000 0.050000
v 5.375000 9.700000 0.160000
v 5.405000 0.640000 0.000000
v 5.405000 0.640000 0.160000
v 5.405000 0.720000 0.000000
v 5.405000 0.720000 0.160000
v 5.405000 3.790000 0.000000
v 5.405000 3.790000 0.160000
v 5.405000 3.870000 0.000000
v 5.405000 3.870000 0.160000
v 5.405000 6.940000 0.000000
v 5.405000 6.940000 0.160000
v 5.405000 7.020000 0.000000
v 5.405000 7.020000 0.160000
vt -16.215000 -0.480000
vt -16.215000 0.000000
vt -16.215000 1.920000
vt -16.215000 2.160000
vt -16.215000 11.370000
vt -16.215000 11.610000
vt -16.215000 20.820000
vt -16.215000 21.059999
vt -16.125000 -0.480000
vt -16.125000 -0.150000
vt -16.125000 1.800000
vt -16.125000 29.099998
vt -15.795000 -0.480000
vt -15.795000 -0.150000
vt -15.795000 1.800000
vt -15.795000 29.099998
vt -15.705000 -0.480000
vt -15.705000 0.000000
vt -15.705000 1.920000
vt -15.705000 2.160000
vt -15.705000 11.370000
vt -15.705000 11.610000
vt -15.705000 20.820000
vt -15.705000 21.059999
vt -0.480000 1.800000
vt -0.480000 1.920000
vt -0.480000 2.160000
vt -0.480000 11.370000
vt -0.480000 11.610000
vt -0.480000 20.820000
vt -0.480000 21.059999
vt -0.480000 29.099998
vt -0.150000 1.800000
vt -0.150000 29.099998
vt 0.000000 1.920000
vt 0.000000 2.160000
vt 0.000000 11.370000
vt 0.000000 11.610000
vt 0.000000 20.820000
vt 0.000000 21.059999
vt 15.705000 -0.480000
vt 15.705000 0.000000
vt 15.705000 1.920000
vt 15.705000 2.160000
vt 15.705000 11.370000
vt 15.705000 11.610000
vt 15.705000 20.820000
vt 15.705000 21.059999
vt 15.795000 -0.480000
vt 15.795000 -0.150000
vt 15.795000 1.800000
vt 15.795000 29.099998
vt 16.125000 -0.480000
vt 16.125000 -0.150000
vt 16.125000 1.800000
vt 16.125000 29.099998
vt 16.215000 -0.480000
vt 16.215000 0.000000
vt 16.215000 1.920000
vt 16.215000 2.160000
vt 16.215000 11.370000
vt 16.215000 11.610000
vt 16.215000 20.820000
vt 16.215000 21.059999
vn -1.000000 0.000000 0.000000
vn 0.000000 -1.000000 0.000000
vn 0.000000 0.000000 -1.000000
vn 0.000000 0.000000 1.000000
vn 0.000000 1.000000 0.000000
vn 1.000000 0.000000 0.000000
usemtl PropPaint
f 1/2/2 21/18/2 2/1/2
f 1/3/3 3/4/3 23/20/3
f 1/3/3 23/20/3 21/19/3
f 1/35/1 2/26/1 3/36/1
f 2/1/2 21/18/2 22/17/2
f 2/3/4 22/19/4 24/20/4
f 2/3/4 24/20/4 4/4/4
f 2/26/1 4/27/1 3/36/1
f 3/2/5 4/1/5 23/18/5
f 4/1/5 24/17/5 23/18/5
f 5/2/2 25/18/2 6/1/2
f 5/5/3 7/6/3 27/22/3
f 5/5/3 27/22/3 25/21/3
f 5/37/1 6/28/1 7/38/1
f 6/1/2 25/18/2 26/17/2
f 6/5/4 26/21/4 28/22/4
f 6/5/4 28/22/4 8/6/4
f 6/28/1 8/29/1 7/38/1
f 7/2/5 8/1/5 27/18/5
f 8/1/5 28/17/5 27/18/5
f 9/2/2 29/18/2 10/1/2
f 9/7/3 11/8/3 31/24/3
f 9/7/3 31/24/3 29/23/3
f 9/39/1 10/30/1 11/40/1
f 10/1/2 29/18/2 30/17/2
f 10/7/4 30/23/4 32/24/4
f 10/7/4 32/24/4 12/8/4
f 10/30/1 12/31/1 11/40/1
f 11/2/5 12/1/5 31/18/5
f 12/1/5 32/17/5 31/18/5
f 13/10/2 17/14/2 14/9/2
f 13/11/3 15/12/3 19/16/3
f 13/11/3 19/16/3 17/15/3
f 13/33/1 14/25/1 15/34/1
f 14/9/2 17/14/2 18/13/2
f 14/11/4 18/15/4 20/16/4
f 14/11/4 20/16/4 16/12/4
f 14/25/1 16/32/1 15/34/1
f 15/10/5 16/9/5 19/14/5
f 16/9/5 20/13/5 19/14/5
f 17/33/6 19/34/6 18/25/6
f 18/25/6 19/34/6 20/32/6
f 21/35/6 23/36/6 22/26/6
f 22/26/6 23/36/6 24/27/6
f 25/37/6 27/38/6 26/28/6
f 26/28/6 27/38/6 28/29/6
f 29/39/6 31/40/6 30/30/6
f 30/30/6 31/40/6 32/31/6
f 33/35/1 34/26/1 35/36/1
f 33/42/2 53/58/2 34/41/2
f 33/43/3 35/44/3 55/60/3
f 33/43/3 55/60/3 53/59/3
f 34/26/1 36/27/1 35/36/1
f 34/41/2 53/58/2 54/57/2
f 34/43/4 54/59/4 56/60/4
f 34/43/4 56/60/4 36/44/4
f 35/42/5 36/41/5 55/58/5
f 36/41/5 56/57/5 55/58/5
f 37/37/1 38/28/1 39/38/1
f 37/42/2 57/58/2 38/41/2
f 37/45/3 39/46/3 59/62/3
f 37/45/3 59/62/3 57/61/3
f 38/28/1 40/29/1 39/38/1
f 38/41/2 57/58/2 58/57/2
f 38/45/4 58/61/4 60/62/4
f 38/45/4 60/62/4 40/46/4
f 39/42/5 40/41/5 59/58/5
f 40/41/5 60/57/5 59/58/5
f 41/39/1 42/30/1 43/40/1
f 41/42/2 61/58/2 42/41/2
f 41/47/3 43/48/3 63/64/3
f 41/47/3 63/64/3 61/63/3
f 42/30/1 44/31/1 43/40/1
f 42/41/2 61/58/2 62/57/2
f 42/47/4 62/63/4 64/64/4
f 42/47/4 64/64/4 44/48/4
f 43/42/5 44/41/5 63/58/5
f 44/41/5 64/57/5 63/58/5
f 45/33/1 46/25/1 47/34/1
f 45/50/2 49/54/2 46/49/2
f 45/51/3 47/52/3 51/56/3
f 45/51/3 51/56/3 49/55/3
f 46/25/1 48/32/1 47/34/1
f 46/49/2 49/54/2 50/53/2
f 46/51/4 50/55/4 52/56/4
f 46/51/4 52/56/4 48/52/4
f 47/50/5 48/49/5 51/54/5
f 48/49/5 52/53/5 51/54/5
f 49/33/6 51/34/6 50/25/6
f 50/25/6 51/34/6 52/32/6
f 53/35/6 55/36/6 54/26/6
f 54/26/6 55/36/6 56/27/6
f 57/37/6 59/38/6 58/28/6
f 58/28/6 59/38/6 60/29/6
f 61/39/6 63/40/6 62/30/6
f 62/30/6 63/40/6 64/31/6
