# exported by ae3d_export.py v3
# object: Street_BlockL2_Lit
mtllib Street_BlockL2_Lit.mtl
v -4.735000 0.530000 -0.225000
v -4.735000 2.000000 -0.225000
v -4.735000 3.680000 -0.225000
v -4.735000 5.150000 -0.225000
v -3.665000 0.530000 -0.225000
v -3.665000 2.000000 -0.225000
v -3.665000 3.680000 -0.225000
v -3.665000 5.150000 -0.225000
v -1.935000 0.530000 -0.225000
v -1.935000 2.000000 -0.225000
v -1.935000 3.680000 -0.225000
v -1.935000 5.150000 -0.225000
v -0.865000 0.530000 -0.225000
v -0.865000 2.000000 -0.225000
v -0.865000 3.680000 -0.225000
v -0.865000 5.150000 -0.225000
v 3.665000 0.530000 -0.225000
v 3.665000 2.000000 -0.225000
v 4.735000 0.530000 -0.225000
v 4.735000 2.000000 -0.225000
vt 0.000000 0.000000
vt 0.000000 1.000000
vt 1.000000 0.000000
vt 1.000000 1.000000
vn 0.000000 0.000000 -1.000000
vn 0.000000 0.000000 1.000000
usemtl WindowLit
f 1/1/1 2/2/1 6/4/1
f 1/1/1 6/4/1 5/3/1
f 3/1/1 4/2/1 8/4/1
f 3/1/1 8/4/1 7/3/1
f 9/1/2 13/3/2 14/4/2
f 9/1/2 14/4/2 10/2/2
f 11/1/2 15/3/2 16/4/2
f 11/1/2 16/4/2 12/2/2
f 17/1/1 18/2/1 20/4/1
f 17/1/1 20/4/1 19/3/1
