# exported by ae3d_export.py v3
# object: Street_BlockL6_Glass
mtllib Street_BlockL6_Glass.mtl
v -4.735000 0.410000 -0.225000
v -4.735000 1.880000 -0.225000
v -4.735000 3.560000 -0.225000
v -4.735000 5.030000 -0.225000
v -4.735000 6.710000 -0.225000
v -4.735000 8.180000 -0.225000
v -3.665000 0.410000 -0.225000
v -3.665000 1.880000 -0.225000
v -3.665000 3.560000 -0.225000
v -3.665000 5.030000 -0.225000
v -3.665000 6.710000 -0.225000
v -3.665000 8.180000 -0.225000
v -1.935000 3.560000 -0.225000
v -1.935000 5.030000 -0.225000
v -1.935000 6.710000 -0.225000
v -1.935000 8.180000 -0.225000
v -0.865000 3.560000 -0.225000
v -0.865000 5.030000 -0.225000
v -0.865000 6.710000 -0.225000
v -0.865000 8.180000 -0.225000
v 0.765000 -0.520000 -0.225000
v 0.765000 1.830000 -0.225000
v 2.035000 -0.520000 -0.225000
v 2.035000 1.830000 -0.225000
v 3.665000 3.560000 -0.225000
v 3.665000 5.030000 -0.225000
v 4.735000 3.560000 -0.225000
v 4.735000 5.030000 -0.225000
vt 0.000000 0.000000
vt 0.000000 1.000000
vt 1.000000 0.000000
vt 1.000000 1.000000
vn 0.000000 0.000000 -1.000000
vn 0.000000 0.000000 1.000000
usemtl WindowGlass
f 1/1/1 2/2/1 8/4/1
f 1/1/1 8/4/1 7/3/1
f 3/1/1 4/2/1 10/4/1
f 3/1/1 10/4/1 9/3/1
f 5/1/1 6/2/1 12/4/1
f 5/1/1 12/4/1 11/3/1
f 13/1/1 14/2/1 18/4/1
f 13/1/1 18/4/1 17/3/1
f 15/1/1 16/2/1 20/4/1
f 15/1/1 20/4/1 19/3/1
f 21/1/2 23/3/2 24/4/2
f 21/1/2 24/4/2 22/2/2
f 25/1/1 26/2/1 28/4/1
f 25/1/1 28/4/1 27/3/1
