# exported by ae3d_export.py v3
# object: Street_BlockR1_Coping
mtllib Street_BlockR1_Coping.mtl
v -1.337993 0.015000 0.015000
v -1.337993 0.015000 0.305000
v -1.337993 0.105000 0.015000
v -1.337993 0.105000 0.305000
v -1.333600 0.004393 0.015000
v -1.333600 0.004393 0.305000
v -1.333600 0.015000 0.004393
v -1.333600 0.015000 0.315607
v -1.333600 0.105000 0.004393
v -1.333600 0.105000 0.315607
v -1.333600 0.115607 0.015000
v -1.333600 0.115607 0.305000
v -1.331653 0.006340 0.006340
v -1.331653 0.006340 0.313660
v -1.331653 0.113660 0.006340
v -1.331653 0.113660 0.313660
v -1.322993 0.000000 0.015000
v -1.322993 0.000000 0.305000
v -1.322993 0.004393 0.004393
v -1.322993 0.004393 0.315607
v -1.322993 0.015000 0.000000
v -1.322993 0.015000 0.320000
v -1.322993 0.105000 0.000000
v -1.322993 0.105000 0.320000
v -1.322993 0.115607 0.004393
v -1.322993 0.115607 0.315607
v -1.322993 0.120000 0.015000
v -1.322993 0.120000 0.305000
v 1.322993 0.000000 0.015000
v 1.322993 0.000000 0.305000
v 1.322993 0.004393 0.004393
v 1.322993 0.004393 0.315607
v 1.322993 0.015000 0.000000
v 1.322993 0.015000 0.320000
v 1.322993 0.105000 0.000000
v 1.322993 0.105000 0.320000
v 1.322993 0.115607 0.004393
v 1.322993 0.115607 0.315607
v 1.322993 0.120000 0.015000
v 1.322993 0.120000 0.305000
v 1.331653 0.006340 0.006340
v 1.331653 0.006340 0.313660
v 1.331653 0.113660 0.006340
v 1.331653 0.113660 0.313660
v 1.333600 0.004393 0.015000
v 1.333600 0.004393 0.305000
v 1.333600 0.015000 0.004393
v 1.333600 0.015000 0.315607
v 1.333600 0.105000 0.004393
v 1.333600 0.105000 0.315607
v 1.333600 0.115607 0.015000
v 1.333600 0.115607 0.305000
v 1.337993 0.015000 0.015000
v 1.337993 0.015000 0.305000
v 1.337993 0.105000 0.015000
v 1.337993 0.105000 0.305000
vt -2.933919 -0.671000
vt -2.933919 -0.033000
vt -2.933919 0.033000
vt -2.933919 0.231000
vt -2.929637 -0.690053
vt -2.929637 -0.013947
vt -2.929637 0.013947
vt -2.929637 0.250053
vt -2.910585 -0.694335
vt -2.910585 -0.671000
vt -2.910585 -0.033000
vt -2.910585 -0.009665
vt -2.910585 0.009665
vt -2.910585 0.033000
vt -2.910585 0.231000
vt -2.910585 0.254335
vt -0.694335 0.033000
vt -0.694335 0.231000
vt -0.690053 0.013947
vt -0.690053 0.250053
vt -0.671000 0.009665
vt -0.671000 0.033000
vt -0.671000 0.231000
vt -0.671000 0.254335
vt -0.033000 0.009665
vt -0.033000 0.033000
vt -0.033000 0.231000
vt -0.033000 0.254335
vt -0.013947 0.013947
vt -0.013947 0.250053
vt -0.009665 0.033000
vt -0.009665 0.231000
vt 2.910585 -0.694335
vt 2.910585 -0.671000
vt 2.910585 -0.033000
vt 2.910585 -0.009665
vt 2.910585 0.009665
vt 2.910585 0.033000
vt 2.910585 0.231000
vt 2.910585 0.254335
vt 2.929637 -0.690053
vt 2.929637 -0.013947
vt 2.929637 0.013947
vt 2.929637 0.250053
vt 2.933919 -0.671000
vt 2.933919 -0.033000
vt 2.933919 0.033000
vt 2.933919 0.231000
vn -1.000000 0.000000 0.000000
vn -0.923881 -0.382679 0.000000
vn -0.923881 0.000000 -0.382681
vn -0.923881 0.000000 0.382681
vn -0.923881 0.382679 0.000000
vn -0.888074 0.325060 0.325054
vn -0.888073 -0.325060 0.325058
vn -0.888073 -0.325058 -0.325060
vn -0.888073 0.325058 -0.325058
vn -0.382682 -0.923880 0.000000
vn -0.382682 0.000000 -0.923880
vn -0.382682 0.000000 0.923880
vn -0.382682 0.923880 0.000000
vn -0.325059 0.325060 0.888072
vn -0.325058 -0.888071 0.325065
vn -0.325058 -0.325059 0.888073
vn -0.325057 -0.888071 -0.325065
vn -0.325057 0.325061 -0.888073
vn -0.325057 0.888073 -0.325061
vn -0.325057 0.888073 0.325061
vn -0.325055 -0.325059 -0.888074
vn 0.000000 -1.000000 0.000000
vn 0.000000 -0.923879 -0.382685
vn 0.000000 -0.923879 0.382684
vn 0.000000 -0.382684 -0.923879
vn 0.000000 -0.382684 0.923879
vn 0.000000 0.000000 -1.000000
vn 0.000000 0.000000 1.000000
vn 0.000000 0.382683 -0.923880
vn 0.000000 0.382683 0.923880
vn 0.000000 0.923879 -0.382684
vn 0.000000 0.923880 0.382683
vn 0.000000 1.000000 0.000000
vn 0.325057 -0.888071 -0.325065
vn 0.325057 -0.325060 -0.888073
vn 0.325057 -0.325057 0.888074
vn 0.325057 0.888073 -0.325061
vn 0.325057 0.888073 0.325061
vn 0.325058 -0.888071 0.325065
vn 0.325058 0.325059 0.888073
vn 0.325058 0.325061 -0.888072
vn 0.382682 -0.923880 0.000000
vn 0.382682 0.000000 -0.923880
vn 0.382682 0.000000 0.923880
vn 0.382682 0.923880 0.000000
vn 0.888072 -0.325059 0.325060
vn 0.888073 -0.325058 -0.325058
vn 0.888073 0.325059 0.325058
vn 0.888074 0.325059 -0.325054
vn 0.923881 -0.382679 0.000000
vn 0.923881 0.000000 -0.382681
vn 0.923881 0.000000 0.382681
vn 0.923881 0.382679 0.000000
vn 1.000000 0.000000 0.000000
usemtl TrimStone
f 1/26/48 5/25/48 13/29/48
f 1/26/48 13/29/48 7/31/48
f 1/26/52 7/31/52 9/32/52
f 1/26/52 9/32/52 3/27/52
f 1/26/53 2/22/53 6/21/53
f 1/26/53 6/21/53 5/25/53
f 1/26/54 3/27/54 2/22/54
f 2/22/49 8/17/49 14/19/49
f 2/22/49 14/19/49 6/21/49
f 2/22/51 4/23/51 10/18/51
f 2/22/51 10/18/51 8/17/51
f 2/22/54 3/27/54 4/23/54
f 3/27/46 9/32/46 15/30/46
f 3/27/46 15/30/46 11/28/46
f 3/27/50 11/28/50 4/23/50
f 4/23/47 12/24/47 16/20/47
f 4/23/47 16/20/47 10/18/47
f 4/23/50 11/28/50 12/24/50
f 5/2/38 17/11/38 13/6/38
f 5/2/45 6/1/45 18/10/45
f 5/2/45 18/10/45 17/11/45
f 6/1/37 14/5/37 18/10/37
f 7/3/40 13/7/40 21/14/40
f 7/3/44 21/14/44 9/4/44
f 8/3/41 22/14/41 14/7/41
f 8/3/43 10/4/43 22/14/43
f 9/4/36 23/15/36 15/8/36
f 9/4/44 21/14/44 23/15/44
f 10/4/35 16/8/35 24/15/35
f 10/4/43 24/15/43 22/14/43
f 11/2/39 15/6/39 27/11/39
f 11/2/42 27/11/42 12/1/42
f 12/1/34 28/10/34 16/5/34
f 12/1/42 27/11/42 28/10/42
f 13/6/38 17/11/38 19/12/38
f 13/7/40 19/13/40 21/14/40
f 14/5/37 20/9/37 18/10/37
f 14/7/41 22/14/41 20/13/41
f 15/6/39 25/12/39 27/11/39
f 15/8/36 23/15/36 25/16/36
f 16/5/34 28/10/34 26/9/34
f 16/8/35 26/16/35 24/15/35
f 17/11/32 29/35/32 19/12/32
f 17/11/33 18/10/33 30/34/33
f 17/11/33 30/34/33 29/35/33
f 18/10/31 20/9/31 30/34/31
f 19/12/32 29/35/32 31/36/32
f 19/13/30 31/37/30 33/38/30
f 19/13/30 33/38/30 21/14/30
f 20/9/31 32/33/31 30/34/31
f 20/13/29 22/14/29 32/37/29
f 21/14/28 33/38/28 35/39/28
f 21/14/28 35/39/28 23/15/28
f 22/14/27 24/15/27 34/38/27
f 22/14/29 34/38/29 32/37/29
f 23/15/26 35/39/26 37/40/26
f 23/15/26 37/40/26 25/16/26
f 24/15/25 26/16/25 36/39/25
f 24/15/27 36/39/27 34/38/27
f 25/12/24 37/36/24 27/11/24
f 26/9/23 28/10/23 38/33/23
f 26/16/25 38/40/25 36/39/25
f 27/11/22 39/35/22 40/34/22
f 27/11/22 40/34/22 28/10/22
f 27/11/24 37/36/24 39/35/24
f 28/10/23 40/34/23 38/33/23
f 29/35/13 30/34/13 46/45/13
f 29/35/13 46/45/13 45/46/13
f 29/35/20 41/42/20 31/36/20
f 29/35/20 45/46/20 41/42/20
f 30/34/19 32/33/19 42/41/19
f 30/34/19 42/41/19 46/45/19
f 31/37/14 41/43/14 33/38/14
f 32/37/18 34/38/18 42/43/18
f 33/38/12 47/47/12 49/48/12
f 33/38/12 49/48/12 35/39/12
f 33/38/14 41/43/14 47/47/14
f 34/38/11 36/39/11 50/48/11
f 34/38/11 50/48/11 48/47/11
f 34/38/18 48/47/18 42/43/18
f 35/39/16 43/44/16 37/40/16
f 35/39/16 49/48/16 43/44/16
f 36/39/21 38/40/21 44/44/21
f 36/39/21 44/44/21 50/48/21
f 37/36/15 43/42/15 39/35/15
f 38/33/17 40/34/17 44/41/17
f 39/35/10 51/46/10 40/34/10
f 39/35/15 43/42/15 51/46/15
f 40/34/10 51/46/10 52/45/10
f 40/34/17 52/45/17 44/41/17
f 41/29/6 45/25/6 53/26/6
f 41/29/6 53/26/6 47/31/6
f 42/19/9 48/17/9 54/22/9
f 42/19/9 54/22/9 46/21/9
f 43/30/7 49/32/7 55/27/7
f 43/30/7 55/27/7 51/28/7
f 44/20/8 52/24/8 56/23/8
f 44/20/8 56/23/8 50/18/8
f 45/25/5 46/21/5 54/22/5
f 45/25/5 54/22/5 53/26/5
f 47/31/4 53/26/4 49/32/4
f 48/17/3 50/18/3 54/22/3
f 49/32/4 53/26/4 55/27/4
f 50/18/3 56/23/3 54/22/3
f 51/28/2 55/27/2 52/24/2
f 52/24/2 55/27/2 56/23/2
f 53/26/1 54/22/1 56/23/1
f 53/26/1 56/23/1 55/27/1
