# exported by ae3d_export.py v3
# object: Street_BlockL1_Pipes
mtllib Street_BlockL1_Pipes.mtl
v -5.405000 0.730000 0.000000
v -5.405000 0.730000 0.160000
v -5.405000 0.810000 0.000000
v -5.405000 0.810000 0.160000
v -5.405000 3.880000 0.000000
v -5.405000 3.880000 0.160000
v -5.405000 3.960000 0.000000
v -5.405000 3.960000 0.160000
v -5.405000 7.030000 0.000000
v -5.405000 7.030000 0.160000
v -5.405000 7.110000 0.000000
v -5.405000 7.110000 0.160000
v -5.405000 10.180000 0.000000
v -5.405000 10.180000 0.160000
v -5.405000 10.260000 0.000000
v -5.405000 10.260000 0.160000
v -5.375000 0.600000 0.050000
v -5.375000 0.600000 0.160000
v -5.375000 12.200000 0.050000
v -5.375000 12.200000 0.160000
v -5.265000 0.600000 0.050000
v -5.265000 0.600000 0.160000
v -5.265000 12.200000 0.050000
v -5.265000 12.200000 0.160000
v -5.235000 0.730000 0.000000
v -5.235000 0.730000 0.160000
v -5.235000 0.810000 0.000000
v -5.235000 0.810000 0.160000
v -5.235000 3.880000 0.000000
v -5.235000 3.880000 0.160000
v -5.235000 3.960000 0.000000
v -5.235000 3.960000 0.160000
v -5.235000 7.030000 0.000000
v -5.235000 7.030000 0.160000
v -5.235000 7.110000 0.000000
v -5.235000 7.110000 0.160000
v -5.235000 10.180000 0.000000
v -5.235000 10.180000 0.160000
v -5.235000 10.260000 0.000000
v -5.235000 10.260000 0.160000
v 5.235000 0.730000 0.000000
v 5.235000 0.730000 0.160000
v 5.235000 0.810000 0.000000
v 5.235000 0.810000 0.160000
v 5.235000 3.880000 0.000000
v 5.235000 3.880000 0.160000
v 5.235000 3.960000 0.000000
v 5.235000 3.960000 0.160000
v 5.235000 7.030000 0.000000
v 5.235000 7.030000 0.160000
v 5.235000 7.110000 0.000000
v 5.235000 7.110000 0.160000
v 5.235000 10.180000 0.000000
v 5.235000 10.180000 0.160000
v 5.235000 10.260000 0.000000
v 5.235000 10.260000 0.160000
v 5.265000 0.600000 0.050000
v 5.265000 0.600000 0.160000
v 5.265000 12.200000 0.050000
v 5.265000 12.200000 0.160000
v 5.375000 0.600000 0.050000
v 5.375000 0.600000 0.160000
v 5.375000 12.200000 0.050000
v 5.375000 12.200000 0.160000
v 5.405000 0.730000 0.000000
v 5.405000 0.730000 0.160000
v 5.405000 0.810000 0.000000
v 5.405000 0.810000 0.160000
v 5.405000 3.880000 0.000000
v 5.405000 3.880000 0.160000
v 5.405000 3.960000 0.000000
v 5.405000 3.960000 0.160000
v 5.405000 7.030000 0.000000
v 5.405000 7.030000 0.160000
v 5.405000 7.110000 0.000000
v 5.405000 7.110000 0.160000
v 5.405000 10.180000 0.000000
v 5.405000 10.180000 0.160000
v 5.405000 10.260000 0.000000
v 5.405000 10.260000 0.160000
vt -16.215000 -0.480000
vt -16.215000 0.000000
vt -16.215000 2.190000
vt -16.215000 2.430000
vt -16.215000 11.640000
vt -16.215000 11.880000
vt -16.215000 21.090000
vt -16.215000 21.330000
vt -16.215000 30.540001
vt -16.215000 30.780001
vt -16.125000 -0.480000
vt -16.125000 -0.150000
vt -16.125000 1.800000
vt -16.125000 36.599998
vt -15.795000 -0.480000
vt -15.795000 -0.150000
vt -15.795000 1.800000
vt -15.795000 36.599998
vt -15.705000 -0.480000
vt -15.705000 0.000000
vt -15.705000 2.190000
vt -15.705000 2.430000
vt -15.705000 11.640000
vt -15.705000 11.880000
vt -15.705000 21.090000
vt -15.705000 21.330000
vt -15.705000 30.540001
vt -15.705000 30.780001
vt -0.480000 1.800000
vt -0.480000 2.190000
vt -0.480000 2.430000
vt -0.480000 11.640000
vt -0.480000 11.880000
vt -0.480000 21.090000
vt -0.480000 21.330000
vt -0.480000 30.540001
vt -0.480000 30.780001
vt -0.480000 36.599998
vt -0.150000 1.800000
vt -0.150000 36.599998
vt 0.000000 2.190000
vt 0.000000 2.430000
vt 0.000000 11.640000
vt 0.000000 11.880000
vt 0.000000 21.090000
vt 0.000000 21.330000
vt 0.000000 30.540001
vt 0.000000 30.780001
vt 15.705000 -0.480000
vt 15.705000 0.000000
vt 15.705000 2.190000
vt 15.705000 2.430000
vt 15.705000 11.640000
vt 15.705000 11.880000
vt 15.705000 21.090000
vt 15.705000 21.330000
vt 15.705000 30.540001
vt 15.705000 30.780001
vt 15.795000 -0.480000
vt 15.795000 -0.150000
vt 15.795000 1.800000
vt 15.795000 36.599998
vt 16.125000 -0.480000
vt 16.125000 -0.150000
vt 16.125000 1.800000
vt 16.125000 36.599998
vt 16.215000 -0.480000
vt 16.215000 0.000000
vt 16.215000 2.190000
vt 16.215000 2.430000
vt 16.215000 11.640000
vt 16.215000 11.880000
vt 16.215000 21.090000
vt 16.215000 21.330000
vt 16.215000 30.540001
vt 16.215000 30.780001
vn -1.000000 0.000000 0.000000
vn 0.000000 -1.000000 0.000000
vn 0.000000 0.000000 -1.000000
vn 0.000000 0.000000 1.000000
vn 0.000000 1.000000 0.000000
vn 1.000000 0.000000 0.000000
usemtl PropPaint
f 1/2/2 25/20/2 2/1/2
f 1/3/3 3/4/3 27/22/3
f 1/3/3 27/22/3 25/21/3
f 1/41/1 2/30/1 3/42/1
f 2/1/2 25/20/2 26/19/2
f 2/3/4 26/21/4 28/22/4
f 2/3/4 28/22/4 4/4/4
f 2/30/1 4/31/1 3/42/1
f 3/2/5 4/1/5 27/20/5
f 4/1/5 28/19/5 27/20/5
f 5/2/2 29/20/2 6/1/2
f 5/5/3 7/6/3 31/24/3
f 5/5/3 31/24/3 29/23/3
f 5/43/1 6/32/1 7/44/1
f 6/1/2 29/20/2 30/19/2
f 6/5/4 30/23/4 32/24/4
f 6/5/4 32/24/4 8/6/4
f 6/32/1 8/33/1 7/44/1
f 7/2/5 8/1/5 31/20/5
f 8/1/5 32/19/5 31/20/5
f 9/2/2 33/20/2 10/1/2
f 9/7/3 11/8/3 35/26/3
f 9/7/3 35/26/3 33/25/3
f 9/45/1 10/34/1 11/46/1
f 10/1/2 33/20/2 34/19/2
f 10/7/4 34/25/4 36/26/4
f 10/7/4 36/26/4 12/8/4
f 10/34/1 12/35/1 11/46/1
f 11/2/5 12/1/5 35/20/5
f 12/1/5 36/19/5 35/20/5
f 13/2/2 37/20/2 14/1/2
f 13/9/3 15/10/3 39/28/3
f 13/9/3 39/28/3 37/27/3
f 13/47/1 14/36/1 15/48/1
f 14/1/2 37/20/2 38/19/2
f 14/9/4 38/27/4 40/28/4
f 14/9/4 40/28/4 16/10/4
f 14/36/1 16/37/1 15/48/1
f 15/2/5 16/1/5 39/20/5
f 16/1/5 40/19/5 39/20/5
f 17/12/2 21/16/2 18/11/2
f 17/13/3 19/14/3 23/18/3
f 17/13/3 23/18/3 21/17/3
f 17/39/1 18/29/1 19/40/1
f 18/11/2 21/16/2 22/15/2
f 18/13/4 22/17/4 24/18/4
f 18/13/4 24/18/4 20/14/4
f 18/29/1 20/38/1 19/40/1
f 19/12/5 20/11/5 23/16/5
f 20/11/5 24/15/5 23/16/5
f 21/39/6 23/40/6 22/29/6
f 22/29/6 23/40/6 24/38/6
f 25/41/6 27/42/6 26/30/6
f 26/30/6 27/42/6 28/31/6
f 29/43/6 31/44/6 30/32/6
f 30/32/6 31/44/6 32/33/6
f 33/45/6 35/46/6 34/34/6
f 34/34/6 35/46/6 36/35/6
f 37/47/6 39/48/6 38/36/6
f 38/36/6 39/48/6 40/37/6
f 41/41/1 42/30/1 43/42/1
f 41/50/2 65/68/2 42/49/2
f 41/51/3 43/52/3 67/70/3
f 41/51/3 67/70/3 65/69/3
f 42/30/1 44/31/1 43/42/1
f 42/49/2 65/68/2 66/67/2
f 42/51/4 66/69/4 68/70/4
f 42/51/4 68/70/4 44/52/4
f 43/50/5 44/49/5 67/68/5
f 44/49/5 68/67/5 67/68/5
f 45/43/1 46/32/1 47/44/1
f 45/50/2 69/68/2 46/49/2
f 45/53/3 47/54/3 71/72/3
f 45/53/3 71/72/3 69/71/3
f 46/32/1 48/33/1 47/44/1
f 46/49/2 69/68/2 70/67/2
f 46/53/4 70/71/4 72/72/4
f 46/53/4 72/72/4 48/54/4
f 47/50/5 48/49/5 71/68/5
f 48/49/5 72/67/5 71/68/5
f 49/45/1 50/34/1 51/46/1
f 49/50/2 73/68/2 50/49/2
f 49/55/3 51/56/3 75/74/3
f 49/55/3 75/74/3 73/73/3
f 50/34/1 52/35/1 51/46/1
f 50/49/2 73/68/2 74/67/2
f 50/55/4 74/73/4 76/74/4
f 50/55/4 76/74/4 52/56/4
f 51/50/5 52/49/5 75/68/5
f 52/49/5 76/67/5 75/68/5
f 53/47/1 54/36/1 55/48/1
f 53/50/2 77/68/2 54/49/2
f 53/57/3 55/58/3 79/76/3
f 53/57/3 79/76/3 77/75/3
f 54/36/1 56/37/1 55/48/1
f 54/49/2 77/68/2 78/67/2
f 54/57/4 78/75/4 80/76/4
f 54/57/4 80/76/4 56/58/4
f 55/50/5 56/49/5 79/68/5
f 56/49/5 80/67/5 79/68/5
f 57/39/1 58/29/1 59/40/1
f 57/60/2 61/64/2 58/59/2
f 57/61/3 59/62/3 63/66/3
f 57/61/3 63/66/3 61/65/3
f 58/29/1 60/38/1 59/40/1
f 58/59/2 61/64/2 62/63/2
f 58/61/4 62/65/4 64/66/4
f 58/61/4 64/66/4 60/62/4
f 59/60/5 60/59/5 63/64/5
f 60/59/5 64/63/5 63/64/5
f 61/39/6 63/40/6 62/29/6
f 62/29/6 63/40/6 64/38/6
f 65/41/6 67/42/6 66/30/6
f 66/30/6 67/42/6 68/31/6
f 69/43/6 71/44/6 70/32/6
f 70/32/6 71/44/6 72/33/6
f 73/45/6 75/46/6 74/34/6
f 74/34/6 75/46/6 76/35/6
f 77/47/6 79/48/6 78/36/6
f 78/36/6 79/48/6 80/37/6
