# exported by ae3d_export.py v3
# object: Street_Bin13
mtllib Street_Bin13.mtl
v -0.306867 0.950005 -0.350932
v -0.306867 0.950005 0.350932
v -0.298458 0.971214 -0.351403
v -0.298458 0.971214 0.351403
v -0.298078 0.950006 -0.372148
v -0.298078 0.950006 0.372148
v -0.294494 0.967323 -0.368640
v -0.294494 0.967323 0.368640
v -0.290533 0.029995 -0.330654
v -0.290533 0.029995 0.330654
v -0.281743 0.029994 -0.351871
v -0.281743 0.029994 0.351871
v -0.281370 0.008786 -0.330190
v -0.281370 0.008786 0.330190
v -0.277545 0.012677 -0.347598
v -0.277545 0.012677 0.347598
v -0.277400 0.980000 -0.351600
v -0.277400 0.980000 0.351600
v -0.277242 0.971216 -0.372621
v -0.277242 0.971216 0.372621
v -0.276863 0.950007 -0.380939
v -0.276863 0.950007 0.380939
v -0.260528 0.029993 -0.360661
v -0.260528 0.029993 0.360661
v -0.260154 0.008784 -0.351408
v -0.260154 0.008784 0.351408
v -0.260000 0.000000 -0.330000
v -0.260000 0.000000 0.330000
v 0.260000 0.000000 -0.330000
v 0.260000 0.000000 0.330000
v 0.260154 0.008784 -0.351408
v 0.260154 0.008784 0.351408
v 0.260528 0.029993 -0.360661
v 0.260528 0.029993 0.360661
v 0.276863 0.950007 -0.380939
v 0.276863 0.950007 0.380939
v 0.277242 0.971216 -0.372621
v 0.277242 0.971216 0.372621
v 0.277400 0.980000 -0.351600
v 0.277400 0.980000 0.351600
v 0.277545 0.012677 -0.347598
v 0.277545 0.012677 0.347598
v 0.281370 0.008786 -0.330190
v 0.281370 0.008786 0.330190
v 0.281743 0.029994 -0.351871
v 0.281743 0.029994 0.351871
v 0.290533 0.029995 -0.330654
v 0.290533 0.029995 0.330654
v 0.294494 0.967323 -0.368640
v 0.294494 0.967323 0.368640
v 0.298078 0.950006 -0.372148
v 0.298078 0.950006 0.372148
v 0.298458 0.971214 -0.351403
v 0.298458 0.971214 0.351403
v 0.306867 0.950005 -0.350932
v 0.306867 0.950005 0.350932
vt -0.595438 1.520010
vt -0.589823 1.547717
vt -0.562993 0.047990
vt -0.562244 1.553942
vt -0.561491 1.520008
vt -0.556157 0.020283
vt -0.529046 0.047992
vt -0.528304 0.014058
vt -0.477533 -0.562244
vt -0.477533 0.562244
vt -0.476925 1.520010
vt -0.471191 -0.589823
vt -0.471191 0.589823
vt -0.471191 1.547717
vt -0.450789 0.047990
vt -0.450192 -0.528304
vt -0.450192 0.528304
vt -0.444071 -0.556157
vt -0.444071 0.020283
vt -0.444071 0.556157
vt -0.443840 -0.562560
vt -0.443840 0.562560
vt -0.443587 -0.596194
vt -0.443587 0.596194
vt -0.443587 1.553945
vt -0.442980 1.520012
vt -0.416844 0.047988
vt -0.416246 -0.562253
vt -0.416246 0.014055
vt -0.416246 0.562253
vt -0.416000 -0.528000
vt -0.416000 0.528000
vt 0.416000 -0.528000
vt 0.416000 0.528000
vt 0.416246 -0.562253
vt 0.416246 0.014055
vt 0.416246 0.562253
vt 0.416844 0.047988
vt 0.442980 1.520012
vt 0.443587 -0.596194
vt 0.443587 0.596194
vt 0.443587 1.553945
vt 0.443840 -0.562560
vt 0.443840 0.562560
vt 0.444071 -0.556157
vt 0.444071 0.020283
vt 0.444071 0.556157
vt 0.450192 -0.528304
vt 0.450192 0.528304
vt 0.450789 0.047990
vt 0.471191 -0.589823
vt 0.471191 0.589823
vt 0.471191 1.547717
vt 0.476925 1.520010
vt 0.477533 -0.562244
vt 0.477533 0.562244
vt 0.528304 0.014058
vt 0.529046 0.047992
vt 0.556157 0.020283
vt 0.561491 1.520008
vt 0.562244 1.553942
vt 0.562993 0.047990
vt 0.589823 1.547717
vt 0.595437 1.520010
vt 0.595438 1.520010
vn -0.999842 -0.017752 0.000000
vn -0.929598 0.368575 0.000000
vn -0.923581 -0.024831 -0.382598
vn -0.923581 -0.024831 0.382598
vn -0.918003 -0.396574 0.000000
vn -0.894534 0.304285 -0.327445
vn -0.894533 0.304285 0.327445
vn -0.881304 -0.345299 -0.322602
vn -0.881304 -0.345299 0.322602
vn -0.385049 0.922896 0.000000
vn -0.382641 -0.027148 -0.923498
vn -0.382641 -0.027148 0.923498
vn -0.380248 -0.924885 0.000000
vn -0.328852 0.885315 -0.328744
vn -0.328848 0.885317 0.328744
vn -0.327785 0.302070 0.895160
vn -0.327784 0.302070 -0.895160
vn -0.322431 -0.347400 -0.880540
vn -0.322431 -0.347400 0.880540
vn -0.321379 -0.890784 -0.321277
vn -0.321379 -0.890784 0.321277
vn 0.000000 -1.000000 0.000000
vn 0.000000 -0.925150 -0.379601
vn 0.000000 -0.925150 0.379602
vn 0.000000 -0.399876 0.916569
vn 0.000000 -0.399874 -0.916570
vn 0.000000 -0.022035 -0.999757
vn 0.000000 -0.022035 0.999757
vn 0.000000 0.365117 0.930961
vn 0.000000 0.365118 -0.930961
vn 0.000000 0.922681 -0.385564
vn 0.000000 0.922681 0.385564
vn 0.000000 1.000000 0.000000
vn 0.321379 -0.890784 -0.321277
vn 0.321380 -0.890784 0.321277
vn 0.322431 -0.347400 -0.880540
vn 0.322432 -0.347400 0.880540
vn 0.327782 0.302069 0.895161
vn 0.327785 0.302070 -0.895160
vn 0.328848 0.885317 -0.328744
vn 0.328851 0.885316 0.328743
vn 0.380248 -0.924884 0.000000
vn 0.382641 -0.027149 0.923498
vn 0.382641 -0.027148 -0.923498
vn 0.385052 0.922895 0.000000
vn 0.881304 -0.345299 -0.322602
vn 0.881304 -0.345298 0.322603
vn 0.894533 0.304285 -0.327445
vn 0.894533 0.304286 0.327446
vn 0.918003 -0.396574 0.000000
vn 0.923581 -0.024831 -0.382598
vn 0.923581 -0.024831 0.382598
vn 0.929597 0.368577 0.000000
vn 0.999842 -0.017752 0.000000
usemtl PropPaint
f 1/60/1 9/58/1 2/5/1
f 1/60/2 2/5/2 4/4/2
f 1/60/2 4/4/2 3/61/2
f 1/60/3 5/64/3 11/62/3
f 1/60/3 11/62/3 9/58/3
f 1/60/6 3/61/6 7/63/6
f 1/60/6 7/63/6 5/64/6
f 2/5/1 9/58/1 10/7/1
f 2/5/4 10/7/4 12/3/4
f 2/5/4 12/3/4 6/1/4
f 2/5/7 6/1/7 8/2/7
f 2/5/7 8/2/7 4/4/7
f 3/10/10 4/9/10 18/21/10
f 3/10/10 18/21/10 17/22/10
f 3/10/14 17/22/14 7/13/14
f 4/9/15 8/12/15 18/21/15
f 5/11/11 21/26/11 11/15/11
f 5/11/17 7/14/17 21/26/17
f 6/11/12 12/15/12 22/26/12
f 6/11/16 22/26/16 8/14/16
f 7/13/14 17/22/14 19/24/14
f 7/14/17 19/25/17 21/26/17
f 8/12/15 20/23/15 18/21/15
f 8/14/16 22/26/16 20/25/16
f 9/58/5 13/57/5 10/7/5
f 9/58/8 11/62/8 15/59/8
f 9/58/8 15/59/8 13/57/8
f 10/7/5 13/57/5 14/8/5
f 10/7/9 14/8/9 16/6/9
f 10/7/9 16/6/9 12/3/9
f 11/15/11 21/26/11 23/27/11
f 11/15/18 23/27/18 15/19/18
f 12/15/12 24/27/12 22/26/12
f 12/15/19 16/19/19 24/27/19
f 13/17/13 27/32/13 14/16/13
f 13/17/20 15/20/20 27/32/20
f 14/16/13 27/32/13 28/31/13
f 14/16/21 28/31/21 16/18/21
f 15/19/18 23/27/18 25/29/18
f 15/20/20 25/30/20 27/32/20
f 16/18/21 28/31/21 26/28/21
f 16/19/19 26/29/19 24/27/19
f 17/22/31 39/44/31 19/24/31
f 17/22/33 18/21/33 39/44/33
f 18/21/32 20/23/32 40/43/32
f 18/21/33 40/43/33 39/44/33
f 19/24/31 39/44/31 37/41/31
f 19/25/30 37/42/30 21/26/30
f 20/23/32 38/40/32 40/43/32
f 20/25/29 22/26/29 36/39/29
f 20/25/29 36/39/29 38/42/29
f 21/26/27 33/38/27 23/27/27
f 21/26/27 35/39/27 33/38/27
f 21/26/30 37/42/30 35/39/30
f 22/26/28 24/27/28 36/39/28
f 23/27/26 31/36/26 25/29/26
f 23/27/26 33/38/26 31/36/26
f 24/27/25 26/29/25 34/38/25
f 24/27/28 34/38/28 36/39/28
f 25/30/23 29/34/23 27/32/23
f 25/30/23 31/37/23 29/34/23
f 26/28/24 28/31/24 32/35/24
f 26/29/25 32/36/25 34/38/25
f 27/32/22 29/34/22 28/31/22
f 28/31/22 29/34/22 30/33/22
f 28/31/24 30/33/24 32/35/24
f 29/34/34 31/37/34 41/47/34
f 29/34/34 41/47/34 43/49/34
f 29/34/42 43/49/42 44/48/42
f 29/34/42 44/48/42 30/33/42
f 30/33/35 42/45/35 32/35/35
f 30/33/35 44/48/35 42/45/35
f 31/36/36 33/38/36 41/46/36
f 32/36/37 42/46/37 34/38/37
f 33/38/36 45/50/36 41/46/36
f 33/38/44 35/39/44 45/50/44
f 34/38/37 42/46/37 46/50/37
f 34/38/43 46/50/43 36/39/43
f 35/39/39 37/42/39 49/53/39
f 35/39/39 49/53/39 51/54/39
f 35/39/44 51/54/44 45/50/44
f 36/39/38 50/53/38 38/42/38
f 36/39/38 52/54/38 50/53/38
f 36/39/43 46/50/43 52/54/43
f 37/41/40 39/44/40 49/52/40
f 38/40/41 50/51/41 40/43/41
f 39/44/40 53/56/40 49/52/40
f 39/44/45 40/43/45 54/55/45
f 39/44/45 54/55/45 53/56/45
f 40/43/41 50/51/41 54/55/41
f 41/59/46 45/62/46 47/58/46
f 41/59/46 47/58/46 43/57/46
f 42/6/47 44/8/47 48/7/47
f 42/6/47 48/7/47 46/3/47
f 43/57/50 47/58/50 44/8/50
f 44/8/50 47/58/50 48/7/50
f 45/62/51 51/65/51 55/60/51
f 45/62/51 55/60/51 47/58/51
f 46/3/52 48/7/52 56/5/52
f 46/3/52 56/5/52 52/1/52
f 47/58/54 55/60/54 48/7/54
f 48/7/54 55/60/54 56/5/54
f 49/63/48 53/61/48 55/60/48
f 49/63/48 55/60/48 51/65/48
f 50/2/49 52/1/49 56/5/49
f 50/2/49 56/5/49 54/4/49
f 53/61/53 54/4/53 56/5/53
f 53/61/53 56/5/53 55/60/53
