# exported by ae3d_export.py v3
# object: Street_BlockR3_Lit
mtllib Street_BlockR3_Lit.mtl
v -0.535000 3.500000 0.225000
v -0.535000 4.970000 0.225000
v 0.535000 3.500000 0.225000
v 0.535000 4.970000 0.225000
v 2.065000 0.350000 0.225000
v 2.065000 1.820000 0.225000
v 2.065000 6.650000 0.225000
v 2.065000 8.120000 0.225000
v 3.135000 0.350000 0.225000
v 3.135000 1.820000 0.225000
v 3.135000 6.650000 0.225000
v 3.135000 8.120000 0.225000
v 4.665000 6.650000 0.225000
v 4.665000 8.120000 0.225000
v 5.735000 6.650000 0.225000
v 5.735000 8.120000 0.225000
vt 0.000000 0.000000
vt 0.000000 1.000000
vt 1.000000 0.000000
vt 1.000000 1.000000
vn 0.000000 0.000000 -1.000000
vn 0.000000 0.000000 1.000000
usemtl WindowLit
f 1/1/1 2/2/1 4/4/1
f 1/1/1 4/4/1 3/3/1
f 5/1/1 6/2/1 10/4/1
f 5/1/1 10/4/1 9/3/1
f 7/1/1 8/2/1 12/4/1
f 7/1/1 12/4/1 11/3/1
f 13/1/2 15/3/2 16/4/2
f 13/1/2 16/4/2 14/2/2
