# exported by ae3d_export.py v3
# object: Street_BlockL4_Lit
mtllib Street_BlockL4_Lit.mtl
v -4.735000 3.620000 -0.225000
v -4.735000 5.090000 -0.225000
v -3.665000 3.620000 -0.225000
v -3.665000 5.090000 -0.225000
v -1.935000 3.620000 -0.225000
v -1.935000 5.090000 -0.225000
v -0.865000 3.620000 -0.225000
v -0.865000 5.090000 -0.225000
v 3.665000 6.770000 -0.225000
v 3.665000 8.240000 -0.225000
v 4.735000 6.770000 -0.225000
v 4.735000 8.240000 -0.225000
vt 0.000000 0.000000
vt 0.000000 1.000000
vt 1.000000 0.000000
vt 1.000000 1.000000
vn 0.000000 0.000000 -1.000000
vn 0.000000 0.000000 1.000000
usemtl WindowLit
f 1/1/1 2/2/1 4/4/1
f 1/1/1 4/4/1 3/3/1
f 5/1/1 6/2/1 8/4/1
f 5/1/1 8/4/1 7/3/1
f 9/1/2 11/3/2 12/4/2
f 9/1/2 12/4/2 10/2/2
