# exported by ae3d_export.py v3
# object: Street_KerbR
mtllib Street_KerbR.mtl
v -34.987999 -0.420000 -0.170000
v -34.987999 -0.420000 0.170000
v -34.987999 0.152889 -0.170000
v -34.987999 0.152889 0.170000
v -34.112000 -0.420000 -0.170000
v -34.112000 -0.420000 0.170000
v -34.112000 0.152889 -0.170000
v -34.112000 0.152889 0.170000
v -34.088001 -0.420000 -0.170000
v -34.088001 -0.420000 0.170000
v -34.088001 0.155933 -0.170000
v -34.088001 0.155933 0.170000
v -33.212002 -0.420000 -0.170000
v -33.212002 -0.420000 0.170000
v -33.212002 0.155933 -0.170000
v -33.212002 0.155933 0.170000
v -33.188000 -0.420000 -0.170000
v -33.188000 -0.420000 0.170000
v -33.188000 0.153812 -0.170000
v -33.188000 0.153812 0.170000
v -32.312000 -0.420000 -0.170000
v -32.312000 -0.420000 0.170000
v -32.312000 0.153812 -0.170000
v -32.312000 0.153812 0.170000
v -32.287998 -0.420000 -0.170000
v -32.287998 -0.420000 0.170000
v -32.287998 0.149246 -0.170000
v -32.287998 0.149246 0.170000
v -31.412001 -0.420000 -0.170000
v -31.412001 -0.420000 0.170000
v -31.412001 0.149246 -0.170000
v -31.412001 0.149246 0.170000
v -31.388000 -0.420000 -0.170000
v -31.388000 -0.420000 0.170000
v -31.388000 0.146424 -0.170000
v -31.388000 0.146424 0.170000
v -30.511999 -0.420000 -0.170000
v -30.511999 -0.420000 0.170000
v -30.511999 0.146424 -0.170000
v -30.511999 0.146424 0.170000
v -30.488001 -0.420000 -0.170000
v -30.488001 -0.420000 0.170000
v -30.488001 0.152146 -0.170000
v -30.488001 0.152146 0.170000
v -29.612000 -0.420000 -0.170000
v -29.612000 -0.420000 0.170000
v -29.612000 0.152146 -0.170000
v -29.612000 0.152146 0.170000
v -29.587999 -0.420000 -0.170000
v -29.587999 -0.420000 0.170000
v -29.587999 0.154284 -0.170000
v -29.587999 0.154284 0.170000
v -28.712000 -0.420000 -0.170000
v -28.712000 -0.420000 0.170000
v -28.712000 0.154284 -0.170000
v -28.712000 0.154284 0.170000
v -28.688000 -0.420000 -0.170000
v -28.688000 -0.420000 0.170000
v -28.688000 0.154334 -0.170000
v -28.688000 0.154334 0.170000
v -27.812000 -0.420000 -0.170000
v -27.812000 -0.420000 0.170000
v -27.812000 0.154334 -0.170000
v -27.812000 0.154334 0.170000
v -27.788000 -0.420000 -0.170000
v -27.788000 -0.420000 0.170000
v -27.788000 0.148185 -0.170000
v -27.788000 0.148185 0.170000
v -26.912001 -0.420000 -0.170000
v -26.912001 -0.420000 0.170000
v -26.912001 0.148185 -0.170000
v -26.912001 0.148185 0.170000
v -26.888000 -0.420000 -0.170000
v -26.888000 -0.420000 0.170000
v -26.888000 0.149498 -0.170000
v -26.888000 0.149498 0.170000
v -26.011999 -0.420000 -0.170000
v -26.011999 -0.420000 0.170000
v -26.011999 0.149498 -0.170000
v -26.011999 0.149498 0.170000
v -25.988001 -0.420000 -0.170000
v -25.988001 -0.420000 0.170000
v -25.988001 0.151054 -0.170000
v -25.988001 0.151054 0.170000
v -25.112000 -0.420000 -0.170000
v -25.112000 -0.420000 0.170000
v -25.112000 0.151054 -0.170000
v -25.112000 0.151054 0.170000
v -25.087999 -0.420000 -0.170000
v -25.087999 -0.420000 0.170000
v -25.087999 0.149931 -0.170000
v -25.087999 0.149931 0.170000
v -24.212000 -0.420000 -0.170000
v -24.212000 -0.420000 0.170000
v -24.212000 0.149931 -0.170000
v -24.212000 0.149931 0.170000
v -24.188000 -0.420000 -0.170000
v -24.188000 -0.420000 0.170000
v -24.188000 0.149522 -0.170000
v -24.188000 0.149522 0.170000
v -23.312000 -0.420000 -0.170000
v -23.312000 -0.420000 0.170000
v -23.312000 0.149522 -0.170000
v -23.312000 0.149522 0.170000
v -23.288000 -0.420000 -0.170000
v -23.288000 -0.420000 0.170000
v -23.288000 0.155034 -0.170000
v -23.288000 0.155034 0.170000
v -22.412001 -0.420000 -0.170000
v -22.412001 -0.420000 0.170000
v -22.412001 0.155034 -0.170000
v -22.412001 0.155034 0.170000
v -22.388000 -0.420000 -0.170000
v -22.388000 -0.420000 0.170000
v -22.388000 0.153248 -0.170000
v -22.388000 0.153248 0.170000
v -21.511999 -0.420000 -0.170000
v -21.511999 -0.420000 0.170000
v -21.511999 0.153248 -0.170000
v -21.511999 0.153248 0.170000
v -21.488001 -0.420000 -0.170000
v -21.488001 -0.420000 0.170000
v -21.488001 0.149068 -0.170000
v -21.488001 0.149068 0.170000
v -20.612000 -0.420000 -0.170000
v -20.612000 -0.420000 0.170000
v -20.612000 0.149068 -0.170000
v -20.612000 0.149068 0.170000
v -20.587999 -0.420000 -0.170000
v -20.587999 -0.420000 0.170000
v -20.587999 0.147182 -0.170000
v -20.587999 0.147182 0.170000
v -19.712000 -0.420000 -0.170000
v -19.712000 -0.420000 0.170000
v -19.712000 0.147182 -0.170000
v -19.712000 0.147182 0.170000
v -19.688000 -0.420000 -0.170000
v -19.688000 -0.420000 0.170000
v -19.688000 0.147964 -0.170000
v -19.688000 0.147964 0.170000
v -18.812000 -0.420000 -0.170000
v -18.812000 -0.420000 0.170000
v -18.812000 0.147964 -0.170000
v -18.812000 0.147964 0.170000
v -18.788000 -0.420000 -0.170000
v -18.788000 -0.420000 0.170000
v -18.788000 0.153629 -0.170000
v -18.788000 0.153629 0.170000
v -17.912001 -0.420000 -0.170000
v -17.912001 -0.420000 0.170000
v -17.912001 0.153629 -0.170000
v -17.912001 0.153629 0.170000
v -17.888000 -0.420000 -0.170000
v -17.888000 -0.420000 0.170000
v -17.888000 0.155710 -0.170000
v -17.888000 0.155710 0.170000
v -17.011999 -0.420000 -0.170000
v -17.011999 -0.420000 0.170000
v -17.011999 0.155710 -0.170000
v -17.011999 0.155710 0.170000
v -16.988001 -0.420000 -0.170000
v -16.988001 -0.420000 0.170000
v -16.988001 0.148471 -0.170000
v -16.988001 0.148471 0.170000
v -16.112000 -0.420000 -0.170000
v -16.112000 -0.420000 0.170000
v -16.112000 0.148471 -0.170000
v -16.112000 0.148471 0.170000
v -16.087999 -0.420000 -0.170000
v -16.087999 -0.420000 0.170000
v -16.087999 0.151690 -0.170000
v -16.087999 0.151690 0.170000
v -15.212000 -0.420000 -0.170000
v -15.212000 -0.420000 0.170000
v -15.212000 0.151690 -0.170000
v -15.212000 0.151690 0.170000
v -15.188000 -0.420000 -0.170000
v -15.188000 -0.420000 0.170000
v -15.188000 0.153975 -0.170000
v -15.188000 0.153975 0.170000
v -14.312000 -0.420000 -0.170000
v -14.312000 -0.420000 0.170000
v -14.312000 0.153975 -0.170000
v -14.312000 0.153975 0.170000
v -14.288000 -0.420000 -0.170000
v -14.288000 -0.420000 0.170000
v -14.288000 0.153489 -0.170000
v -14.288000 0.153489 0.170000
v -13.412000 -0.420000 -0.170000
v -13.412000 -0.420000 0.170000
v -13.412000 0.153489 -0.170000
v -13.412000 0.153489 0.170000
v -13.388000 -0.420000 -0.170000
v -13.388000 -0.420000 0.170000
v -13.388000 0.151568 -0.170000
v -13.388000 0.151568 0.170000
v -12.512000 -0.420000 -0.170000
v -12.512000 -0.420000 0.170000
v -12.512000 0.151568 -0.170000
v -12.512000 0.151568 0.170000
v -12.488000 -0.420000 -0.170000
v -12.488000 -0.420000 0.170000
v -12.488000 0.146284 -0.170000
v -12.488000 0.146284 0.170000
v -11.612000 -0.420000 -0.170000
v -11.612000 -0.420000 0.170000
v -11.612000 0.146284 -0.170000
v -11.612000 0.146284 0.170000
v -11.588000 -0.420000 -0.170000
v -11.588000 -0.420000 0.170000
v -11.588000 0.146793 -0.170000
v -11.588000 0.146793 0.170000
v -10.712000 -0.420000 -0.170000
v -10.712000 -0.420000 0.170000
v -10.712000 0.146793 -0.170000
v -10.712000 0.146793 0.170000
v -10.688000 -0.420000 -0.170000
v -10.688000 -0.420000 0.170000
v -10.688000 0.147017 -0.170000
v -10.688000 0.147017 0.170000
v -9.812000 -0.420000 -0.170000
v -9.812000 -0.420000 0.170000
v -9.812000 0.147017 -0.170000
v -9.812000 0.147017 0.170000
v -9.788000 -0.420000 -0.170000
v -9.788000 -0.420000 0.170000
v -9.788000 0.155157 -0.170000
v -9.788000 0.155157 0.170000
v -8.912000 -0.420000 -0.170000
v -8.912000 -0.420000 0.170000
v -8.912000 0.155157 -0.170000
v -8.912000 0.155157 0.170000
v -8.888000 -0.420000 -0.170000
v -8.888000 -0.420000 0.170000
v -8.888000 0.150858 -0.170000
v -8.888000 0.150858 0.170000
v -8.012000 -0.420000 -0.170000
v -8.012000 -0.420000 0.170000
v -8.012000 0.150858 -0.170000
v -8.012000 0.150858 0.170000
v -7.988000 -0.420000 -0.170000
v -7.988000 -0.420000 0.170000
v -7.988000 0.147952 -0.170000
v -7.988000 0.147952 0.170000
v -7.112000 -0.420000 -0.170000
v -7.112000 -0.420000 0.170000
v -7.112000 0.147952 -0.170000
v -7.112000 0.147952 0.170000
v -7.088000 -0.420000 -0.170000
v -7.088000 -0.420000 0.170000
v -7.088000 0.146443 -0.170000
v -7.088000 0.146443 0.170000
v -6.212000 -0.420000 -0.170000
v -6.212000 -0.420000 0.170000
v -6.212000 0.146443 -0.170000
v -6.212000 0.146443 0.170000
v -6.188000 -0.420000 -0.170000
v -6.188000 -0.420000 0.170000
v -6.188000 0.154152 -0.170000
v -6.188000 0.154152 0.170000
v -5.312000 -0.420000 -0.170000
v -5.312000 -0.420000 0.170000
v -5.312000 0.154152 -0.170000
v -5.312000 0.154152 0.170000
v -5.288000 -0.420000 -0.170000
v -5.288000 -0.420000 0.170000
v -5.288000 0.148759 -0.170000
v -5.288000 0.148759 0.170000
v -4.412000 -0.420000 -0.170000
v -4.412000 -0.420000 0.170000
v -4.412000 0.148759 -0.170000
v -4.412000 0.148759 0.170000
v -4.388000 -0.420000 -0.170000
v -4.388000 -0.420000 0.170000
v -4.388000 0.150271 -0.170000
v -4.388000 0.150271 0.170000
v -3.512000 -0.420000 -0.170000
v -3.512000 -0.420000 0.170000
v -3.512000 0.150271 -0.170000
v -3.512000 0.150271 0.170000
v -3.488000 -0.420000 -0.170000
v -3.488000 -0.420000 0.170000
v -3.488000 0.147131 -0.170000
v -3.488000 0.147131 0.170000
v -2.612000 -0.420000 -0.170000
v -2.612000 -0.420000 0.170000
v -2.612000 0.147131 -0.170000
v -2.612000 0.147131 0.170000
v -2.588000 -0.420000 -0.170000
v -2.588000 -0.420000 0.170000
v -2.588000 0.150863 -0.170000
v -2.588000 0.150863 0.170000
v -1.712000 -0.420000 -0.170000
v -1.712000 -0.420000 0.170000
v -1.712000 0.150863 -0.170000
v -1.712000 0.150863 0.170000
v -1.688000 -0.420000 -0.170000
v -1.688000 -0.420000 0.170000
v -1.688000 0.152023 -0.170000
v -1.688000 0.152023 0.170000
v -0.812000 -0.420000 -0.170000
v -0.812000 -0.420000 0.170000
v -0.812000 0.152023 -0.170000
v -0.812000 0.152023 0.170000
v -0.788000 -0.420000 -0.170000
v -0.788000 -0.420000 0.170000
v -0.788000 0.155065 -0.170000
v -0.788000 0.155065 0.170000
v 0.088000 -0.420000 -0.170000
v 0.088000 -0.420000 0.170000
v 0.088000 0.155065 -0.170000
v 0.088000 0.155065 0.170000
v 0.112000 -0.420000 -0.170000
v 0.112000 -0.420000 0.170000
v 0.112000 0.149646 -0.170000
v 0.112000 0.149646 0.170000
v 0.988000 -0.420000 -0.170000
v 0.988000 -0.420000 0.170000
v 0.988000 0.149646 -0.170000
v 0.988000 0.149646 0.170000
v 1.012000 -0.420000 -0.170000
v 1.012000 -0.420000 0.170000
v 1.012000 0.151188 -0.170000
v 1.012000 0.151188 0.170000
v 1.888000 -0.420000 -0.170000
v 1.888000 -0.420000 0.170000
v 1.888000 0.151188 -0.170000
v 1.888000 0.151188 0.170000
v 1.912000 -0.420000 -0.170000
v 1.912000 -0.420000 0.170000
v 1.912000 0.153466 -0.170000
v 1.912000 0.153466 0.170000
v 2.788000 -0.420000 -0.170000
v 2.788000 -0.420000 0.170000
v 2.788000 0.153466 -0.170000
v 2.788000 0.153466 0.170000
v 2.812000 -0.420000 -0.170000
v 2.812000 -0.420000 0.170000
v 2.812000 0.154717 -0.170000
v 2.812000 0.154717 0.170000
v 3.688000 -0.420000 -0.170000
v 3.688000 -0.420000 0.170000
v 3.688000 0.154717 -0.170000
v 3.688000 0.154717 0.170000
v 3.712000 -0.420000 -0.170000
v 3.712000 -0.420000 0.170000
v 3.712000 0.147865 -0.170000
v 3.712000 0.147865 0.170000
v 4.588000 -0.420000 -0.170000
v 4.588000 -0.420000 0.170000
v 4.588000 0.147865 -0.170000
v 4.588000 0.147865 0.170000
v 4.612000 -0.420000 -0.170000
v 4.612000 -0.420000 0.170000
v 4.612000 0.152149 -0.170000
v 4.612000 0.152149 0.170000
v 5.488000 -0.420000 -0.170000
v 5.488000 -0.420000 0.170000
v 5.488000 0.152149 -0.170000
v 5.488000 0.152149 0.170000
v 5.512000 -0.420000 -0.170000
v 5.512000 -0.420000 0.170000
v 5.512000 0.149863 -0.170000
v 5.512000 0.149863 0.170000
v 6.388000 -0.420000 -0.170000
v 6.388000 -0.420000 0.170000
v 6.388000 0.149863 -0.170000
v 6.388000 0.149863 0.170000
v 6.412000 -0.420000 -0.170000
v 6.412000 -0.420000 0.170000
v 6.412000 0.152270 -0.170000
v 6.412000 0.152270 0.170000
v 7.288000 -0.420000 -0.170000
v 7.288000 -0.420000 0.170000
v 7.288000 0.152270 -0.170000
v 7.288000 0.152270 0.170000
v 7.312000 -0.420000 -0.170000
v 7.312000 -0.420000 0.170000
v 7.312000 0.151784 -0.170000
v 7.312000 0.151784 0.170000
v 8.188000 -0.420000 -0.170000
v 8.188000 -0.420000 0.170000
v 8.188000 0.151784 -0.170000
v 8.188000 0.151784 0.170000
v 8.212000 -0.420000 -0.170000
v 8.212000 -0.420000 0.170000
v 8.212000 0.153452 -0.170000
v 8.212000 0.153452 0.170000
v 9.088000 -0.420000 -0.170000
v 9.088000 -0.420000 0.170000
v 9.088000 0.153452 -0.170000
v 9.088000 0.153452 0.170000
v 9.112000 -0.420000 -0.170000
v 9.112000 -0.420000 0.170000
v 9.112000 0.149050 -0.170000
v 9.112000 0.149050 0.170000
v 9.988000 -0.420000 -0.170000
v 9.988000 -0.420000 0.170000
v 9.988000 0.149050 -0.170000
v 9.988000 0.149050 0.170000
v 10.012000 -0.420000 -0.170000
v 10.012000 -0.420000 0.170000
v 10.012000 0.150001 -0.170000
v 10.012000 0.150001 0.170000
v 10.888000 -0.420000 -0.170000
v 10.888000 -0.420000 0.170000
v 10.888000 0.150001 -0.170000
v 10.888000 0.150001 0.170000
v 10.912000 -0.420000 -0.170000
v 10.912000 -0.420000 0.170000
v 10.912000 0.147540 -0.170000
v 10.912000 0.147540 0.170000
v 11.788000 -0.420000 -0.170000
v 11.788000 -0.420000 0.170000
v 11.788000 0.147540 -0.170000
v 11.788000 0.147540 0.170000
v 11.812000 -0.420000 -0.170000
v 11.812000 -0.420000 0.170000
v 11.812000 0.152850 -0.170000
v 11.812000 0.152850 0.170000
v 12.688000 -0.420000 -0.170000
v 12.688000 -0.420000 0.170000
v 12.688000 0.152850 -0.170000
v 12.688000 0.152850 0.170000
v 12.712000 -0.420000 -0.170000
v 12.712000 -0.420000 0.170000
v 12.712000 0.147237 -0.170000
v 12.712000 0.147237 0.170000
v 13.588000 -0.420000 -0.170000
v 13.588000 -0.420000 0.170000
v 13.588000 0.147237 -0.170000
v 13.588000 0.147237 0.170000
v 13.612000 -0.420000 -0.170000
v 13.612000 -0.420000 0.170000
v 13.612000 0.150291 -0.170000
v 13.612000 0.150291 0.170000
v 14.488000 -0.420000 -0.170000
v 14.488000 -0.420000 0.170000
v 14.488000 0.150291 -0.170000
v 14.488000 0.150291 0.170000
v 14.512000 -0.420000 -0.170000
v 14.512000 -0.420000 0.170000
v 14.512000 0.151539 -0.170000
v 14.512000 0.151539 0.170000
v 15.388000 -0.420000 -0.170000
v 15.388000 -0.420000 0.170000
v 15.388000 0.151539 -0.170000
v 15.388000 0.151539 0.170000
v 15.412000 -0.420000 -0.170000
v 15.412000 -0.420000 0.170000
v 15.412000 0.147750 -0.170000
v 15.412000 0.147750 0.170000
v 16.288000 -0.420000 -0.170000
v 16.288000 -0.420000 0.170000
v 16.288000 0.147750 -0.170000
v 16.288000 0.147750 0.170000
v 16.312000 -0.420000 -0.170000
v 16.312000 -0.420000 0.170000
v 16.312000 0.148186 -0.170000
v 16.312000 0.148186 0.170000
v 17.188000 -0.420000 -0.170000
v 17.188000 -0.420000 0.170000
v 17.188000 0.148186 -0.170000
v 17.188000 0.148186 0.170000
v 17.212000 -0.420000 -0.170000
v 17.212000 -0.420000 0.170000
v 17.212000 0.150629 -0.170000
v 17.212000 0.150629 0.170000
v 18.087999 -0.420000 -0.170000
v 18.087999 -0.420000 0.170000
v 18.087999 0.150629 -0.170000
v 18.087999 0.150629 0.170000
v 18.112000 -0.420000 -0.170000
v 18.112000 -0.420000 0.170000
v 18.112000 0.150603 -0.170000
v 18.112000 0.150603 0.170000
v 18.988001 -0.420000 -0.170000
v 18.988001 -0.420000 0.170000
v 18.988001 0.150603 -0.170000
v 18.988001 0.150603 0.170000
v 19.011999 -0.420000 -0.170000
v 19.011999 -0.420000 0.170000
v 19.011999 0.155112 -0.170000
v 19.011999 0.155112 0.170000
v 19.888000 -0.420000 -0.170000
v 19.888000 -0.420000 0.170000
v 19.888000 0.155112 -0.170000
v 19.888000 0.155112 0.170000
v 19.912001 -0.420000 -0.170000
v 19.912001 -0.420000 0.170000
v 19.912001 0.152401 -0.170000
v 19.912001 0.152401 0.170000
v 20.788000 -0.420000 -0.170000
v 20.788000 -0.420000 0.170000
v 20.788000 0.152401 -0.170000
v 20.788000 0.152401 0.170000
v 20.812000 -0.420000 -0.170000
v 20.812000 -0.420000 0.170000
v 20.812000 0.146559 -0.170000
v 20.812000 0.146559 0.170000
v 21.688000 -0.420000 -0.170000
v 21.688000 -0.420000 0.170000
v 21.688000 0.146559 -0.170000
v 21.688000 0.146559 0.170000
v 21.712000 -0.420000 -0.170000
v 21.712000 -0.420000 0.170000
v 21.712000 0.149573 -0.170000
v 21.712000 0.149573 0.170000
v 22.587999 -0.420000 -0.170000
v 22.587999 -0.420000 0.170000
v 22.587999 0.149573 -0.170000
v 22.587999 0.149573 0.170000
v 22.612000 -0.420000 -0.170000
v 22.612000 -0.420000 0.170000
v 22.612000 0.146348 -0.170000
v 22.612000 0.146348 0.170000
v 23.488001 -0.420000 -0.170000
v 23.488001 -0.420000 0.170000
v 23.488001 0.146348 -0.170000
v 23.488001 0.146348 0.170000
v 23.511999 -0.420000 -0.170000
v 23.511999 -0.420000 0.170000
v 23.511999 0.150453 -0.170000
v 23.511999 0.150453 0.170000
v 24.388000 -0.420000 -0.170000
v 24.388000 -0.420000 0.170000
v 24.388000 0.150453 -0.170000
v 24.388000 0.150453 0.170000
v 24.412001 -0.420000 -0.170000
v 24.412001 -0.420000 0.170000
v 24.412001 0.148508 -0.170000
v 24.412001 0.148508 0.170000
v 25.288000 -0.420000 -0.170000
v 25.288000 -0.420000 0.170000
v 25.288000 0.148508 -0.170000
v 25.288000 0.148508 0.170000
v 25.312000 -0.420000 -0.170000
v 25.312000 -0.420000 0.170000
v 25.312000 0.146437 -0.170000
v 25.312000 0.146437 0.170000
v 26.188000 -0.420000 -0.170000
v 26.188000 -0.420000 0.170000
v 26.188000 0.146437 -0.170000
v 26.188000 0.146437 0.170000
v 26.212000 -0.420000 -0.170000
v 26.212000 -0.420000 0.170000
v 26.212000 0.147691 -0.170000
v 26.212000 0.147691 0.170000
v 27.087999 -0.420000 -0.170000
v 27.087999 -0.420000 0.170000
v 27.087999 0.147691 -0.170000
v 27.087999 0.147691 0.170000
v 27.112000 -0.420000 -0.170000
v 27.112000 -0.420000 0.170000
v 27.112000 0.149520 -0.170000
v 27.112000 0.149520 0.170000
v 27.988001 -0.420000 -0.170000
v 27.988001 -0.420000 0.170000
v 27.988001 0.149520 -0.170000
v 27.988001 0.149520 0.170000
v 28.011999 -0.420000 -0.170000
v 28.011999 -0.420000 0.170000
v 28.011999 0.148580 -0.170000
v 28.011999 0.148580 0.170000
v 28.888000 -0.420000 -0.170000
v 28.888000 -0.420000 0.170000
v 28.888000 0.148580 -0.170000
v 28.888000 0.148580 0.170000
v 28.912001 -0.420000 -0.170000
v 28.912001 -0.420000 0.170000
v 28.912001 0.155202 -0.170000
v 28.912001 0.155202 0.170000
v 29.788000 -0.420000 -0.170000
v 29.788000 -0.420000 0.170000
v 29.788000 0.155202 -0.170000
v 29.788000 0.155202 0.170000
v 29.812000 -0.420000 -0.170000
v 29.812000 -0.420000 0.170000
v 29.812000 0.149111 -0.170000
v 29.812000 0.149111 0.170000
v 30.688000 -0.420000 -0.170000
v 30.688000 -0.420000 0.170000
v 30.688000 0.149111 -0.170000
v 30.688000 0.149111 0.170000
v 30.712000 -0.420000 -0.170000
v 30.712000 -0.420000 0.170000
v 30.712000 0.146061 -0.170000
v 30.712000 0.146061 0.170000
v 31.587999 -0.420000 -0.170000
v 31.587999 -0.420000 0.170000
v 31.587999 0.146061 -0.170000
v 31.587999 0.146061 0.170000
v 31.612000 -0.420000 -0.170000
v 31.612000 -0.420000 0.170000
v 31.612000 0.147608 -0.170000
v 31.612000 0.147608 0.170000
v 32.487999 -0.420000 -0.170000
v 32.487999 -0.420000 0.170000
v 32.487999 0.147608 -0.170000
v 32.487999 0.147608 0.170000
v 32.512001 -0.420000 -0.170000
v 32.512001 -0.420000 0.170000
v 32.512001 0.155437 -0.170000
v 32.512001 0.155437 0.170000
v 33.388000 -0.420000 -0.170000
v 33.388000 -0.420000 0.170000
v 33.388000 0.155437 -0.170000
v 33.388000 0.155437 0.170000
v 33.411999 -0.420000 -0.170000
v 33.411999 -0.420000 0.170000
v 33.411999 0.150871 -0.170000
v 33.411999 0.150871 0.170000
v 34.287998 -0.420000 -0.170000
v 34.287998 -0.420000 0.170000
v 34.287998 0.150871 -0.170000
v 34.287998 0.150871 0.170000
vt -76.973595 -0.924000
vt -76.973595 -0.374000
vt -76.973595 0.336356
vt -76.973595 0.374000
vt -75.046402 -0.924000
vt -75.046402 -0.374000
vt -75.046402 0.336356
vt -75.046402 0.374000
vt -74.993607 -0.924000
vt -74.993607 -0.374000
vt -74.993607 0.343053
vt -74.993607 0.374000
vt -73.066406 -0.924000
vt -73.066406 -0.374000
vt -73.066406 0.343053
vt -73.066406 0.374000
vt -73.013596 -0.924000
vt -73.013596 -0.374000
vt -73.013596 0.338386
vt -73.013596 0.374000
vt -71.086403 -0.924000
vt -71.086403 -0.374000
vt -71.086403 0.338386
vt -71.086403 0.374000
vt -71.033600 -0.924000
vt -71.033600 -0.374000
vt -71.033600 0.328342
vt -71.033600 0.374000
vt -69.106400 -0.924000
vt -69.106400 -0.374000
vt -69.106400 0.328342
vt -69.106400 0.374000
vt -69.053604 -0.924000
vt -69.053604 -0.374000
vt -69.053604 0.322132
vt -69.053604 0.374000
vt -67.126396 -0.924000
vt -67.126396 -0.374000
vt -67.126396 0.322132
vt -67.126396 0.374000
vt -67.073601 -0.924000
vt -67.073601 -0.374000
vt -67.073601 0.334722
vt -67.073601 0.374000
vt -65.146400 -0.924000
vt -65.146400 -0.374000
vt -65.146400 0.334722
vt -65.146400 0.374000
vt -65.093597 -0.924000
vt -65.093597 -0.374000
vt -65.093597 0.339426
vt -65.093597 0.374000
vt -63.166401 -0.924000
vt -63.166401 -0.374000
vt -63.166401 0.339426
vt -63.166401 0.374000
vt -63.113598 -0.924000
vt -63.113598 -0.374000
vt -63.113598 0.339535
vt -63.113598 0.374000
vt -61.186401 -0.924000
vt -61.186401 -0.374000
vt -61.186401 0.339535
vt -61.186401 0.374000
vt -61.133602 -0.924000
vt -61.133602 -0.374000
vt -61.133602 0.326006
vt -61.133602 0.374000
vt -59.206402 -0.924000
vt -59.206402 -0.374000
vt -59.206402 0.326006
vt -59.206402 0.374000
vt -59.153603 -0.924000
vt -59.153603 -0.374000
vt -59.153603 0.328895
vt -59.153603 0.374000
vt -57.226398 -0.924000
vt -57.226398 -0.374000
vt -57.226398 0.328895
vt -57.226398 0.374000
vt -57.173603 -0.924000
vt -57.173603 -0.374000
vt -57.173603 0.332318
vt -57.173603 0.374000
vt -55.246399 -0.924000
vt -55.246399 -0.374000
vt -55.246399 0.332318
vt -55.246399 0.374000
vt -55.193600 -0.924000
vt -55.193600 -0.374000
vt -55.193600 0.329849
vt -55.193600 0.374000
vt -53.266399 -0.924000
vt -53.266399 -0.374000
vt -53.266399 0.329849
vt -53.266399 0.374000
vt -53.213600 -0.924000
vt -53.213600 -0.374000
vt -53.213600 0.328949
vt -53.213600 0.374000
vt -51.286400 -0.924000
vt -51.286400 -0.374000
vt -51.286400 0.328949
vt -51.286400 0.374000
vt -51.233601 -0.924000
vt -51.233601 -0.374000
vt -51.233601 0.341076
vt -51.233601 0.374000
vt -49.306400 -0.924000
vt -49.306400 -0.374000
vt -49.306400 0.341076
vt -49.306400 0.374000
vt -49.253601 -0.924000
vt -49.253601 -0.374000
vt -49.253601 0.337147
vt -49.253601 0.374000
vt -47.326397 -0.924000
vt -47.326397 -0.374000
vt -47.326397 0.337147
vt -47.326397 0.374000
vt -47.273602 -0.924000
vt -47.273602 -0.374000
vt -47.273602 0.327949
vt -47.273602 0.374000
vt -45.346397 -0.924000
vt -45.346397 -0.374000
vt -45.346397 0.327949
vt -45.346397 0.374000
vt -45.293598 -0.924000
vt -45.293598 -0.374000
vt -45.293598 0.323799
vt -45.293598 0.374000
vt -43.366402 -0.924000
vt -43.366402 -0.374000
vt -43.366402 0.323799
vt -43.366402 0.374000
vt -43.313599 -0.924000
vt -43.313599 -0.374000
vt -43.313599 0.325522
vt -43.313599 0.374000
vt -41.386402 -0.924000
vt -41.386402 -0.374000
vt -41.386402 0.325522
vt -41.386402 0.374000
vt -41.333599 -0.924000
vt -41.333599 -0.374000
vt -41.333599 0.337984
vt -41.333599 0.374000
vt -39.406403 -0.924000
vt -39.406403 -0.374000
vt -39.406403 0.337984
vt -39.406403 0.374000
vt -39.353600 -0.924000
vt -39.353600 -0.374000
vt -39.353600 0.342561
vt -39.353600 0.374000
vt -37.426399 -0.924000
vt -37.426399 -0.374000
vt -37.426399 0.342561
vt -37.426399 0.374000
vt -37.373604 -0.924000
vt -37.373604 -0.374000
vt -37.373604 0.326637
vt -37.373604 0.374000
vt -35.446400 -0.924000
vt -35.446400 -0.374000
vt -35.446400 0.326637
vt -35.446400 0.374000
vt -35.393600 -0.924000
vt -35.393600 -0.374000
vt -35.393600 0.333718
vt -35.393600 0.374000
vt -33.466400 -0.924000
vt -33.466400 -0.374000
vt -33.466400 0.333718
vt -33.466400 0.374000
vt -33.413601 -0.924000
vt -33.413601 -0.374000
vt -33.413601 0.338744
vt -33.413601 0.374000
vt -31.486401 -0.924000
vt -31.486401 -0.374000
vt -31.486401 0.338744
vt -31.486401 0.374000
vt -31.433599 -0.924000
vt -31.433599 -0.374000
vt -31.433599 0.337675
vt -31.433599 0.374000
vt -29.506399 -0.924000
vt -29.506399 -0.374000
vt -29.506399 0.337675
vt -29.506399 0.374000
vt -29.453600 -0.924000
vt -29.453600 -0.374000
vt -29.453600 0.333450
vt -29.453600 0.374000
vt -27.526400 -0.924000
vt -27.526400 -0.374000
vt -27.526400 0.333450
vt -27.526400 0.374000
vt -27.473600 -0.924000
vt -27.473600 -0.374000
vt -27.473600 0.321824
vt -27.473600 0.374000
vt -25.546402 -0.924000
vt -25.546402 -0.374000
vt -25.546402 0.321824
vt -25.546402 0.374000
vt -25.493601 -0.924000
vt -25.493601 -0.374000
vt -25.493601 0.322944
vt -25.493601 0.374000
vt -23.566401 -0.924000
vt -23.566401 -0.374000
vt -23.566401 0.322944
vt -23.566401 0.374000
vt -23.513599 -0.924000
vt -23.513599 -0.374000
vt -23.513599 0.323437
vt -23.513599 0.374000
vt -21.586401 -0.924000
vt -21.586401 -0.374000
vt -21.586401 0.323437
vt -21.586401 0.374000
vt -21.533600 -0.924000
vt -21.533600 -0.374000
vt -21.533600 0.341346
vt -21.533600 0.374000
vt -19.606400 -0.924000
vt -19.606400 -0.374000
vt -19.606400 0.341346
vt -19.606400 0.374000
vt -19.553598 -0.924000
vt -19.553598 -0.374000
vt -19.553598 0.331887
vt -19.553598 0.374000
vt -17.626400 -0.924000
vt -17.626400 -0.374000
vt -17.626400 0.331887
vt -17.626400 0.374000
vt -17.573601 -0.924000
vt -17.573601 -0.374000
vt -17.573601 0.325495
vt -17.573601 0.374000
vt -15.646400 -0.924000
vt -15.646400 -0.374000
vt -15.646400 0.325495
vt -15.646400 0.374000
vt -15.593599 -0.924000
vt -15.593599 -0.374000
vt -15.593599 0.322174
vt -15.593599 0.374000
vt -13.666400 -0.924000
vt -13.666400 -0.374000
vt -13.666400 0.322174
vt -13.666400 0.374000
vt -13.613601 -0.924000
vt -13.613601 -0.374000
vt -13.613601 0.339134
vt -13.613601 0.374000
vt -11.686399 -0.924000
vt -11.686399 -0.374000
vt -11.686399 0.339134
vt -11.686399 0.374000
vt -11.633600 -0.924000
vt -11.633600 -0.374000
vt -11.633600 0.327270
vt -11.633600 0.374000
vt -9.706400 -0.924000
vt -9.706400 -0.374000
vt -9.706400 0.327270
vt -9.706400 0.374000
vt -9.653600 -0.924000
vt -9.653600 -0.374000
vt -9.653600 0.330596
vt -9.653600 0.374000
vt -7.726400 -0.924000
vt -7.726400 -0.374000
vt -7.726400 0.330596
vt -7.726400 0.374000
vt -7.673600 -0.924000
vt -7.673600 -0.374000
vt -7.673600 0.323689
vt -7.673600 0.374000
vt -5.746400 -0.924000
vt -5.746400 -0.374000
vt -5.746400 0.323689
vt -5.746400 0.374000
vt -5.693600 -0.924000
vt -5.693600 -0.374000
vt -5.693600 0.331899
vt -5.693600 0.374000
vt -3.766400 -0.924000
vt -3.766400 -0.374000
vt -3.766400 0.331899
vt -3.766400 0.374000
vt -3.713600 -0.924000
vt -3.713600 -0.374000
vt -3.713600 0.334450
vt -3.713600 0.374000
vt -1.786400 -0.924000
vt -1.786400 -0.374000
vt -1.786400 0.334450
vt -1.786400 0.374000
vt -1.733600 -0.924000
vt -1.733600 -0.374000
vt -1.733600 0.341143
vt -1.733600 0.374000
vt -0.374000 -0.924000
vt -0.374000 0.321335
vt -0.374000 0.321824
vt -0.374000 0.321965
vt -0.374000 0.322132
vt -0.374000 0.322161
vt -0.374000 0.322174
vt -0.374000 0.322429
vt -0.374000 0.322944
vt -0.374000 0.323437
vt -0.374000 0.323689
vt -0.374000 0.323799
vt -0.374000 0.323920
vt -0.374000 0.324587
vt -0.374000 0.324738
vt -0.374000 0.324921
vt -0.374000 0.325051
vt -0.374000 0.325304
vt -0.374000 0.325495
vt -0.374000 0.325522
vt -0.374000 0.326006
vt -0.374000 0.326010
vt -0.374000 0.326637
vt -0.374000 0.326718
vt -0.374000 0.326877
vt -0.374000 0.327270
vt -0.374000 0.327910
vt -0.374000 0.327949
vt -0.374000 0.328044
vt -0.374000 0.328342
vt -0.374000 0.328895
vt -0.374000 0.328944
vt -0.374000 0.328949
vt -0.374000 0.329060
vt -0.374000 0.329221
vt -0.374000 0.329699
vt -0.374000 0.329849
vt -0.374000 0.330002
vt -0.374000 0.330596
vt -0.374000 0.330641
vt -0.374000 0.330997
vt -0.374000 0.331326
vt -0.374000 0.331383
vt -0.374000 0.331887
vt -0.374000 0.331899
vt -0.374000 0.331915
vt -0.374000 0.332318
vt -0.374000 0.332613
vt -0.374000 0.333385
vt -0.374000 0.333450
vt -0.374000 0.333718
vt -0.374000 0.333924
vt -0.374000 0.334450
vt -0.374000 0.334722
vt -0.374000 0.334727
vt -0.374000 0.334993
vt -0.374000 0.335282
vt -0.374000 0.336269
vt -0.374000 0.336356
vt -0.374000 0.337147
vt -0.374000 0.337594
vt -0.374000 0.337626
vt -0.374000 0.337675
vt -0.374000 0.337984
vt -0.374000 0.338386
vt -0.374000 0.338744
vt -0.374000 0.339134
vt -0.374000 0.339426
vt -0.374000 0.339535
vt -0.374000 0.340378
vt -0.374000 0.341076
vt -0.374000 0.341143
vt -0.374000 0.341246
vt -0.374000 0.341346
vt -0.374000 0.341444
vt -0.374000 0.341962
vt -0.374000 0.342561
vt -0.374000 0.343053
vt 0.193600 -0.924000
vt 0.193600 -0.374000
vt 0.193600 0.341143
vt 0.193600 0.374000
vt 0.246400 -0.924000
vt 0.246400 -0.374000
vt 0.246400 0.329221
vt 0.246400 0.374000
vt 0.374000 -0.924000
vt 0.374000 0.321335
vt 0.374000 0.321824
vt 0.374000 0.321965
vt 0.374000 0.322132
vt 0.374000 0.322161
vt 0.374000 0.322174
vt 0.374000 0.322429
vt 0.374000 0.322944
vt 0.374000 0.323437
vt 0.374000 0.323689
vt 0.374000 0.323799
vt 0.374000 0.323920
vt 0.374000 0.324587
vt 0.374000 0.324738
vt 0.374000 0.324921
vt 0.374000 0.325051
vt 0.374000 0.325304
vt 0.374000 0.325495
vt 0.374000 0.325522
vt 0.374000 0.326006
vt 0.374000 0.326010
vt 0.374000 0.326637
vt 0.374000 0.326718
vt 0.374000 0.326877
vt 0.374000 0.327270
vt 0.374000 0.327910
vt 0.374000 0.327949
vt 0.374000 0.328044
vt 0.374000 0.328342
vt 0.374000 0.328895
vt 0.374000 0.328944
vt 0.374000 0.328949
vt 0.374000 0.329060
vt 0.374000 0.329221
vt 0.374000 0.329699
vt 0.374000 0.329849
vt 0.374000 0.330002
vt 0.374000 0.330596
vt 0.374000 0.330641
vt 0.374000 0.330997
vt 0.374000 0.331326
vt 0.374000 0.331383
vt 0.374000 0.331887
vt 0.374000 0.331899
vt 0.374000 0.331915
vt 0.374000 0.332318
vt 0.374000 0.332613
vt 0.374000 0.333385
vt 0.374000 0.333450
vt 0.374000 0.333718
vt 0.374000 0.333924
vt 0.374000 0.334450
vt 0.374000 0.334722
vt 0.374000 0.334727
vt 0.374000 0.334993
vt 0.374000 0.335282
vt 0.374000 0.336269
vt 0.374000 0.336356
vt 0.374000 0.337147
vt 0.374000 0.337594
vt 0.374000 0.337626
vt 0.374000 0.337675
vt 0.374000 0.337984
vt 0.374000 0.338386
vt 0.374000 0.338744
vt 0.374000 0.339134
vt 0.374000 0.339426
vt 0.374000 0.339535
vt 0.374000 0.340378
vt 0.374000 0.341076
vt 0.374000 0.341143
vt 0.374000 0.341246
vt 0.374000 0.341346
vt 0.374000 0.341444
vt 0.374000 0.341962
vt 0.374000 0.342561
vt 0.374000 0.343053
vt 2.173600 -0.924000
vt 2.173600 -0.374000
vt 2.173600 0.329221
vt 2.173600 0.374000
vt 2.226400 -0.924000
vt 2.226400 -0.374000
vt 2.226400 0.332613
vt 2.226400 0.374000
vt 4.153600 -0.924000
vt 4.153600 -0.374000
vt 4.153600 0.332613
vt 4.153600 0.374000
vt 4.206400 -0.924000
vt 4.206400 -0.374000
vt 4.206400 0.337626
vt 4.206400 0.374000
vt 6.133600 -0.924000
vt 6.133600 -0.374000
vt 6.133600 0.337626
vt 6.133600 0.374000
vt 6.186400 -0.924000
vt 6.186400 -0.374000
vt 6.186400 0.340378
vt 6.186400 0.374000
vt 8.113600 -0.924000
vt 8.113600 -0.374000
vt 8.113600 0.340378
vt 8.113600 0.374000
vt 8.166400 -0.924000
vt 8.166400 -0.374000
vt 8.166400 0.325304
vt 8.166400 0.374000
vt 10.093599 -0.924000
vt 10.093599 -0.374000
vt 10.093599 0.325304
vt 10.093599 0.374000
vt 10.146400 -0.924000
vt 10.146400 -0.374000
vt 10.146400 0.334727
vt 10.146400 0.374000
vt 12.073600 -0.924000
vt 12.073600 -0.374000
vt 12.073600 0.334727
vt 12.073600 0.374000
vt 12.126400 -0.924000
vt 12.126400 -0.374000
vt 12.126400 0.329699
vt 12.126400 0.374000
vt 14.053600 -0.924000
vt 14.053600 -0.374000
vt 14.053600 0.329699
vt 14.053600 0.374000
vt 14.106400 -0.924000
vt 14.106400 -0.374000
vt 14.106400 0.334993
vt 14.106400 0.374000
vt 16.033600 -0.924000
vt 16.033600 -0.374000
vt 16.033600 0.334993
vt 16.033600 0.374000
vt 16.086399 -0.924000
vt 16.086399 -0.374000
vt 16.086399 0.333924
vt 16.086399 0.374000
vt 18.013599 -0.924000
vt 18.013599 -0.374000
vt 18.013599 0.333924
vt 18.013599 0.374000
vt 18.066401 -0.924000
vt 18.066401 -0.374000
vt 18.066401 0.337594
vt 18.066401 0.374000
vt 19.993601 -0.924000
vt 19.993601 -0.374000
vt 19.993601 0.337594
vt 19.993601 0.374000
vt 20.046402 -0.924000
vt 20.046402 -0.374000
vt 20.046402 0.327910
vt 20.046402 0.374000
vt 21.973600 -0.924000
vt 21.973600 -0.374000
vt 21.973600 0.327910
vt 21.973600 0.374000
vt 22.026400 -0.924000
vt 22.026400 -0.374000
vt 22.026400 0.330002
vt 22.026400 0.374000
vt 23.953600 -0.924000
vt 23.953600 -0.374000
vt 23.953600 0.330002
vt 23.953600 0.374000
vt 24.006399 -0.924000
vt 24.006399 -0.374000
vt 24.006399 0.324587
vt 24.006399 0.374000
vt 25.933599 -0.924000
vt 25.933599 -0.374000
vt 25.933599 0.324587
vt 25.933599 0.374000
vt 25.986401 -0.924000
vt 25.986401 -0.374000
vt 25.986401 0.336269
vt 25.986401 0.374000
vt 27.913599 -0.924000
vt 27.913599 -0.374000
vt 27.913599 0.336269
vt 27.913599 0.374000
vt 27.966400 -0.924000
vt 27.966400 -0.374000
vt 27.966400 0.323920
vt 27.966400 0.374000
vt 29.893600 -0.924000
vt 29.893600 -0.374000
vt 29.893600 0.323920
vt 29.893600 0.374000
vt 29.946402 -0.924000
vt 29.946402 -0.374000
vt 29.946402 0.330641
vt 29.946402 0.374000
vt 31.873600 -0.924000
vt 31.873600 -0.374000
vt 31.873600 0.330641
vt 31.873600 0.374000
vt 31.926401 -0.924000
vt 31.926401 -0.374000
vt 31.926401 0.333385
vt 31.926401 0.374000
vt 33.853600 -0.924000
vt 33.853600 -0.374000
vt 33.853600 0.333385
vt 33.853600 0.374000
vt 33.906399 -0.924000
vt 33.906399 -0.374000
vt 33.906399 0.325051
vt 33.906399 0.374000
vt 35.833599 -0.924000
vt 35.833599 -0.374000
vt 35.833599 0.325051
vt 35.833599 0.374000
vt 35.886402 -0.924000
vt 35.886402 -0.374000
vt 35.886402 0.326010
vt 35.886402 0.374000
vt 37.813599 -0.924000
vt 37.813599 -0.374000
vt 37.813599 0.326010
vt 37.813599 0.374000
vt 37.866402 -0.924000
vt 37.866402 -0.374000
vt 37.866402 0.331383
vt 37.866402 0.374000
vt 39.793598 -0.924000
vt 39.793598 -0.374000
vt 39.793598 0.331383
vt 39.793598 0.374000
vt 39.846397 -0.924000
vt 39.846397 -0.374000
vt 39.846397 0.331326
vt 39.846397 0.374000
vt 41.773602 -0.924000
vt 41.773602 -0.374000
vt 41.773602 0.331326
vt 41.773602 0.374000
vt 41.826397 -0.924000
vt 41.826397 -0.374000
vt 41.826397 0.341246
vt 41.826397 0.374000
vt 43.753601 -0.924000
vt 43.753601 -0.374000
vt 43.753601 0.341246
vt 43.753601 0.374000
vt 43.806400 -0.924000
vt 43.806400 -0.374000
vt 43.806400 0.335282
vt 43.806400 0.374000
vt 45.733601 -0.924000
vt 45.733601 -0.374000
vt 45.733601 0.335282
vt 45.733601 0.374000
vt 45.786400 -0.924000
vt 45.786400 -0.374000
vt 45.786400 0.322429
vt 45.786400 0.374000
vt 47.713600 -0.924000
vt 47.713600 -0.374000
vt 47.713600 0.322429
vt 47.713600 0.374000
vt 47.766399 -0.924000
vt 47.766399 -0.374000
vt 47.766399 0.329060
vt 47.766399 0.374000
vt 49.693600 -0.924000
vt 49.693600 -0.374000
vt 49.693600 0.329060
vt 49.693600 0.374000
vt 49.746399 -0.924000
vt 49.746399 -0.374000
vt 49.746399 0.321965
vt 49.746399 0.374000
vt 51.673603 -0.924000
vt 51.673603 -0.374000
vt 51.673603 0.321965
vt 51.673603 0.374000
vt 51.726398 -0.924000
vt 51.726398 -0.374000
vt 51.726398 0.330997
vt 51.726398 0.374000
vt 53.653603 -0.924000
vt 53.653603 -0.374000
vt 53.653603 0.330997
vt 53.653603 0.374000
vt 53.706402 -0.924000
vt 53.706402 -0.374000
vt 53.706402 0.326718
vt 53.706402 0.374000
vt 55.633602 -0.924000
vt 55.633602 -0.374000
vt 55.633602 0.326718
vt 55.633602 0.374000
vt 55.686401 -0.924000
vt 55.686401 -0.374000
vt 55.686401 0.322161
vt 55.686401 0.374000
vt 57.613598 -0.924000
vt 57.613598 -0.374000
vt 57.613598 0.322161
vt 57.613598 0.374000
vt 57.666401 -0.924000
vt 57.666401 -0.374000
vt 57.666401 0.324921
vt 57.666401 0.374000
vt 59.593597 -0.924000
vt 59.593597 -0.374000
vt 59.593597 0.324921
vt 59.593597 0.374000
vt 59.646400 -0.924000
vt 59.646400 -0.374000
vt 59.646400 0.328944
vt 59.646400 0.374000
vt 61.573601 -0.924000
vt 61.573601 -0.374000
vt 61.573601 0.328944
vt 61.573601 0.374000
vt 61.626400 -0.924000
vt 61.626400 -0.374000
vt 61.626400 0.326877
vt 61.626400 0.374000
vt 63.553600 -0.924000
vt 63.553600 -0.374000
vt 63.553600 0.326877
vt 63.553600 0.374000
vt 63.606403 -0.924000
vt 63.606403 -0.374000
vt 63.606403 0.341444
vt 63.606403 0.374000
vt 65.533600 -0.924000
vt 65.533600 -0.374000
vt 65.533600 0.341444
vt 65.533600 0.374000
vt 65.586403 -0.924000
vt 65.586403 -0.374000
vt 65.586403 0.328044
vt 65.586403 0.374000
vt 67.513596 -0.924000
vt 67.513596 -0.374000
vt 67.513596 0.328044
vt 67.513596 0.374000
vt 67.566399 -0.924000
vt 67.566399 -0.374000
vt 67.566399 0.321335
vt 67.566399 0.374000
vt 69.493599 -0.924000
vt 69.493599 -0.374000
vt 69.493599 0.321335
vt 69.493599 0.374000
vt 69.546402 -0.924000
vt 69.546402 -0.374000
vt 69.546402 0.324738
vt 69.546402 0.374000
vt 71.473595 -0.924000
vt 71.473595 -0.374000
vt 71.473595 0.324738
vt 71.473595 0.374000
vt 71.526405 -0.924000
vt 71.526405 -0.374000
vt 71.526405 0.341962
vt 71.526405 0.374000
vt 73.453598 -0.924000
vt 73.453598 -0.374000
vt 73.453598 0.341962
vt 73.453598 0.374000
vt 73.506393 -0.924000
vt 73.506393 -0.374000
vt 73.506393 0.331915
vt 73.506393 0.374000
vt 75.433594 -0.924000
vt 75.433594 -0.374000
vt 75.433594 0.331915
vt 75.433594 0.374000
vn -1.000000 0.000000 0.000000
vn 0.000000 -1.000000 0.000000
vn 0.000000 0.000000 -1.000000
vn 0.000000 0.000000 1.000000
vn 0.000000 1.000000 0.000000
vn 1.000000 0.000000 0.000000
usemtl TrimStone
f 1/1/3 3/3/3 7/7/3
f 1/1/3 7/7/3 5/5/3
f 1/4/2 5/8/2 2/2/2
f 1/395/1 2/309/1 3/453/1
f 2/1/4 6/5/4 8/7/4
f 2/1/4 8/7/4 4/3/4
f 2/2/2 5/8/2 6/6/2
f 2/309/1 4/367/1 3/453/1
f 3/4/5 4/2/5 7/8/5
f 4/2/5 8/6/5 7/8/5
f 5/395/6 7/453/6 6/309/6
f 6/309/6 7/453/6 8/367/6
f 9/9/3 11/11/3 15/15/3
f 9/9/3 15/15/3 13/13/3
f 9/12/2 13/16/2 10/10/2
f 9/395/1 10/309/1 11/472/1
f 10/9/4 14/13/4 16/15/4
f 10/9/4 16/15/4 12/11/4
f 10/10/2 13/16/2 14/14/2
f 10/309/1 12/386/1 11/472/1
f 11/12/5 12/10/5 15/16/5
f 12/10/5 16/14/5 15/16/5
f 13/395/6 15/472/6 14/309/6
f 14/309/6 15/472/6 16/386/6
f 17/17/3 19/19/3 23/23/3
f 17/17/3 23/23/3 21/21/3
f 17/20/2 21/24/2 18/18/2
f 17/395/1 18/309/1 19/459/1
f 18/17/4 22/21/4 24/23/4
f 18/17/4 24/23/4 20/19/4
f 18/18/2 21/24/2 22/22/2
f 18/309/1 20/373/1 19/459/1
f 19/20/5 20/18/5 23/24/5
f 20/18/5 24/22/5 23/24/5
f 21/395/6 23/459/6 22/309/6
f 22/309/6 23/459/6 24/373/6
f 25/25/3 27/27/3 31/31/3
f 25/25/3 31/31/3 29/29/3
f 25/28/2 29/32/2 26/26/2
f 25/395/1 26/309/1 27/424/1
f 26/25/4 30/29/4 32/31/4
f 26/25/4 32/31/4 28/27/4
f 26/26/2 29/32/2 30/30/2
f 26/309/1 28/338/1 27/424/1
f 27/28/5 28/26/5 31/32/5
f 28/26/5 32/30/5 31/32/5
f 29/395/6 31/424/6 30/309/6
f 30/309/6 31/424/6 32/338/6
f 33/33/3 35/35/3 39/39/3
f 33/33/3 39/39/3 37/37/3
f 33/36/2 37/40/2 34/34/2
f 33/395/1 34/309/1 35/399/1
f 34/33/4 38/37/4 40/39/4
f 34/33/4 40/39/4 36/35/4
f 34/34/2 37/40/2 38/38/2
f 34/309/1 36/313/1 35/399/1
f 35/36/5 36/34/5 39/40/5
f 36/34/5 40/38/5 39/40/5
f 37/395/6 39/399/6 38/309/6
f 38/309/6 39/399/6 40/313/6
f 41/41/3 43/43/3 47/47/3
f 41/41/3 47/47/3 45/45/3
f 41/44/2 45/48/2 42/42/2
f 41/395/1 42/309/1 43/448/1
f 42/41/4 46/45/4 48/47/4
f 42/41/4 48/47/4 44/43/4
f 42/42/2 45/48/2 46/46/2
f 42/309/1 44/362/1 43/448/1
f 43/44/5 44/42/5 47/48/5
f 44/42/5 48/46/5 47/48/5
f 45/395/6 47/448/6 46/309/6
f 46/309/6 47/448/6 48/362/6
f 49/49/3 51/51/3 55/55/3
f 49/49/3 55/55/3 53/53/3
f 49/52/2 53/56/2 50/50/2
f 49/395/1 50/309/1 51/462/1
f 50/49/4 54/53/4 56/55/4
f 50/49/4 56/55/4 52/51/4
f 50/50/2 53/56/2 54/54/2
f 50/309/1 52/376/1 51/462/1
f 51/52/5 52/50/5 55/56/5
f 52/50/5 56/54/5 55/56/5
f 53/395/6 55/462/6 54/309/6
f 54/309/6 55/462/6 56/376/6
f 57/57/3 59/59/3 63/63/3
f 57/57/3 63/63/3 61/61/3
f 57/60/2 61/64/2 58/58/2
f 57/395/1 58/309/1 59/463/1
f 58/57/4 62/61/4 64/63/4
f 58/57/4 64/63/4 60/59/4
f 58/58/2 61/64/2 62/62/2
f 58/309/1 60/377/1 59/463/1
f 59/60/5 60/58/5 63/64/5
f 60/58/5 64/62/5 63/64/5
f 61/395/6 63/463/6 62/309/6
f 62/309/6 63/463/6 64/377/6
f 65/65/3 67/67/3 71/71/3
f 65/65/3 71/71/3 69/69/3
f 65/68/2 69/72/2 66/66/2
f 65/395/1 66/309/1 67/415/1
f 66/65/4 70/69/4 72/71/4
f 66/65/4 72/71/4 68/67/4
f 66/66/2 69/72/2 70/70/2
f 66/309/1 68/329/1 67/415/1
f 67/68/5 68/66/5 71/72/5
f 68/66/5 72/70/5 71/72/5
f 69/395/6 71/415/6 70/309/6
f 70/309/6 71/415/6 72/329/6
f 73/73/3 75/75/3 79/79/3
f 73/73/3 79/79/3 77/77/3
f 73/76/2 77/80/2 74/74/2
f 73/395/1 74/309/1 75/425/1
f 74/73/4 78/77/4 80/79/4
f 74/73/4 80/79/4 76/75/4
f 74/74/2 77/80/2 78/78/2
f 74/309/1 76/339/1 75/425/1
f 75/76/5 76/74/5 79/80/5
f 76/74/5 80/78/5 79/80/5
f 77/395/6 79/425/6 78/309/6
f 78/309/6 79/425/6 80/339/6
f 81/81/3 83/83/3 87/87/3
f 81/81/3 87/87/3 85/85/3
f 81/84/2 85/88/2 82/82/2
f 81/395/1 82/309/1 83/441/1
f 82/81/4 86/85/4 88/87/4
f 82/81/4 88/87/4 84/83/4
f 82/82/2 85/88/2 86/86/2
f 82/309/1 84/355/1 83/441/1
f 83/84/5 84/82/5 87/88/5
f 84/82/5 88/86/5 87/88/5
f 85/395/6 87/441/6 86/309/6
f 86/309/6 87/441/6 88/355/6
f 89/89/3 91/91/3 95/95/3
f 89/89/3 95/95/3 93/93/3
f 89/92/2 93/96/2 90/90/2
f 89/395/1 90/309/1 91/431/1
f 90/89/4 94/93/4 96/95/4
f 90/89/4 96/95/4 92/91/4
f 90/90/2 93/96/2 94/94/2
f 90/309/1 92/345/1 91/431/1
f 91/92/5 92/90/5 95/96/5
f 92/90/5 96/94/5 95/96/5
f 93/395/6 95/431/6 94/309/6
f 94/309/6 95/431/6 96/345/6
f 97/97/3 99/99/3 103/103/3
f 97/97/3 103/103/3 101/101/3
f 97/100/2 101/104/2 98/98/2
f 97/395/1 98/309/1 99/427/1
f 98/97/4 102/101/4 104/103/4
f 98/97/4 104/103/4 100/99/4
f 98/98/2 101/104/2 102/102/2
f 98/309/1 100/341/1 99/427/1
f 99/100/5 100/98/5 103/104/5
f 100/98/5 104/102/5 103/104/5
f 101/395/6 103/427/6 102/309/6
f 102/309/6 103/427/6 104/341/6
f 105/105/3 107/107/3 111/111/3
f 105/105/3 111/111/3 109/109/3
f 105/108/2 109/112/2 106/106/2
f 105/395/1 106/309/1 107/465/1
f 106/105/4 110/109/4 112/111/4
f 106/105/4 112/111/4 108/107/4
f 106/106/2 109/112/2 110/110/2
f 106/309/1 108/379/1 107/465/1
f 107/108/5 108/106/5 111/112/5
f 108/106/5 112/110/5 111/112/5
f 109/395/6 111/465/6 110/309/6
f 110/309/6 111/465/6 112/379/6
f 113/113/3 115/115/3 119/119/3
f 113/113/3 119/119/3 117/117/3
f 113/116/2 117/120/2 114/114/2
f 113/395/1 114/309/1 115/454/1
f 114/113/4 118/117/4 120/119/4
f 114/113/4 120/119/4 116/115/4
f 114/114/2 117/120/2 118/118/2
f 114/309/1 116/368/1 115/454/1
f 115/116/5 116/114/5 119/120/5
f 116/114/5 120/118/5 119/120/5
f 117/395/6 119/454/6 118/309/6
f 118/309/6 119/454/6 120/368/6
f 121/121/3 123/123/3 127/127/3
f 121/121/3 127/127/3 125/125/3
f 121/124/2 125/128/2 122/122/2
f 121/395/1 122/309/1 123/422/1
f 122/121/4 126/125/4 128/127/4
f 122/121/4 128/127/4 124/123/4
f 122/122/2 125/128/2 126/126/2
f 122/309/1 124/336/1 123/422/1
f 123/124/5 124/122/5 127/128/5
f 124/122/5 128/126/5 127/128/5
f 125/395/6 127/422/6 126/309/6
f 126/309/6 127/422/6 128/336/6
f 129/129/3 131/131/3 135/135/3
f 129/129/3 135/135/3 133/133/3
f 129/132/2 133/136/2 130/130/2
f 129/395/1 130/309/1 131/406/1
f 130/129/4 134/133/4 136/135/4
f 130/129/4 136/135/4 132/131/4
f 130/130/2 133/136/2 134/134/2
f 130/309/1 132/320/1 131/406/1
f 131/132/5 132/130/5 135/136/5
f 132/130/5 136/134/5 135/136/5
f 133/395/6 135/406/6 134/309/6
f 134/309/6 135/406/6 136/320/6
f 137/137/3 139/139/3 143/143/3
f 137/137/3 143/143/3 141/141/3
f 137/140/2 141/144/2 138/138/2
f 137/395/1 138/309/1 139/414/1
f 138/137/4 142/141/4 144/143/4
f 138/137/4 144/143/4 140/139/4
f 138/138/2 141/144/2 142/142/2
f 138/309/1 140/328/1 139/414/1
f 139/140/5 140/138/5 143/144/5
f 140/138/5 144/142/5 143/144/5
f 141/395/6 143/414/6 142/309/6
f 142/309/6 143/414/6 144/328/6
f 145/145/3 147/147/3 151/151/3
f 145/145/3 151/151/3 149/149/3
f 145/148/2 149/152/2 146/146/2
f 145/395/1 146/309/1 147/458/1
f 146/145/4 150/149/4 152/151/4
f 146/145/4 152/151/4 148/147/4
f 146/146/2 149/152/2 150/150/2
f 146/309/1 148/372/1 147/458/1
f 147/148/5 148/146/5 151/152/5
f 148/146/5 152/150/5 151/152/5
f 149/395/6 151/458/6 150/309/6
f 150/309/6 151/458/6 152/372/6
f 153/153/3 155/155/3 159/159/3
f 153/153/3 159/159/3 157/157/3
f 153/156/2 157/160/2 154/154/2
f 153/395/1 154/309/1 155/471/1
f 154/153/4 158/157/4 160/159/4
f 154/153/4 160/159/4 156/155/4
f 154/154/2 157/160/2 158/158/2
f 154/309/1 156/385/1 155/471/1
f 155/156/5 156/154/5 159/160/5
f 156/154/5 160/158/5 159/160/5
f 157/395/6 159/471/6 158/309/6
f 158/309/6 159/471/6 160/385/6
f 161/161/3 163/163/3 167/167/3
f 161/161/3 167/167/3 165/165/3
f 161/164/2 165/168/2 162/162/2
f 161/395/1 162/309/1 163/417/1
f 162/161/4 166/165/4 168/167/4
f 162/161/4 168/167/4 164/163/4
f 162/162/2 165/168/2 166/166/2
f 162/309/1 164/331/1 163/417/1
f 163/164/5 164/162/5 167/168/5
f 164/162/5 168/166/5 167/168/5
f 165/395/6 167/417/6 166/309/6
f 166/309/6 167/417/6 168/331/6
f 169/169/3 171/171/3 175/175/3
f 169/169/3 175/175/3 173/173/3
f 169/172/2 173/176/2 170/170/2
f 169/395/1 170/309/1 171/445/1
f 170/169/4 174/173/4 176/175/4
f 170/169/4 176/175/4 172/171/4
f 170/170/2 173/176/2 174/174/2
f 170/309/1 172/359/1 171/445/1
f 171/172/5 172/170/5 175/176/5
f 172/170/5 176/174/5 175/176/5
f 173/395/6 175/445/6 174/309/6
f 174/309/6 175/445/6 176/359/6
f 177/177/3 179/179/3 183/183/3
f 177/177/3 183/183/3 181/181/3
f 177/180/2 181/184/2 178/178/2
f 177/395/1 178/309/1 179/460/1
f 178/177/4 182/181/4 184/183/4
f 178/177/4 184/183/4 180/179/4
f 178/178/2 181/184/2 182/182/2
f 178/309/1 180/374/1 179/460/1
f 179/180/5 180/178/5 183/184/5
f 180/178/5 184/182/5 183/184/5
f 181/395/6 183/460/6 182/309/6
f 182/309/6 183/460/6 184/374/6
f 185/185/3 187/187/3 191/191/3
f 185/185/3 191/191/3 189/189/3
f 185/188/2 189/192/2 186/186/2
f 185/395/1 186/309/1 187/457/1
f 186/185/4 190/189/4 192/191/4
f 186/185/4 192/191/4 188/187/4
f 186/186/2 189/192/2 190/190/2
f 186/309/1 188/371/1 187/457/1
f 187/188/5 188/186/5 191/192/5
f 188/186/5 192/190/5 191/192/5
f 189/395/6 191/457/6 190/309/6
f 190/309/6 191/457/6 192/371/6
f 193/193/3 195/195/3 199/199/3
f 193/193/3 199/199/3 197/197/3
f 193/196/2 197/200/2 194/194/2
f 193/395/1 194/309/1 195/444/1
f 194/193/4 198/197/4 200/199/4
f 194/193/4 200/199/4 196/195/4
f 194/194/2 197/200/2 198/198/2
f 194/309/1 196/358/1 195/444/1
f 195/196/5 196/194/5 199/200/5
f 196/194/5 200/198/5 199/200/5
f 197/395/6 199/444/6 198/309/6
f 198/309/6 199/444/6 200/358/6
f 201/201/3 203/203/3 207/207/3
f 201/201/3 207/207/3 205/205/3
f 201/204/2 205/208/2 202/202/2
f 201/395/1 202/309/1 203/397/1
f 202/201/4 206/205/4 208/207/4
f 202/201/4 208/207/4 204/203/4
f 202/202/2 205/208/2 206/206/2
f 202/309/1 204/311/1 203/397/1
f 203/204/5 204/202/5 207/208/5
f 204/202/5 208/206/5 207/208/5
f 205/395/6 207/397/6 206/309/6
f 206/309/6 207/397/6 208/311/6
f 209/209/3 211/211/3 215/215/3
f 209/209/3 215/215/3 213/213/3
f 209/212/2 213/216/2 210/210/2
f 209/395/1 210/309/1 211/403/1
f 210/209/4 214/213/4 216/215/4
f 210/209/4 216/215/4 212/211/4
f 210/210/2 213/216/2 214/214/2
f 210/309/1 212/317/1 211/403/1
f 211/212/5 212/210/5 215/216/5
f 212/210/5 216/214/5 215/216/5
f 213/395/6 215/403/6 214/309/6
f 214/309/6 215/403/6 216/317/6
f 217/217/3 219/219/3 223/223/3
f 217/217/3 223/223/3 221/221/3
f 217/220/2 221/224/2 218/218/2
f 217/395/1 218/309/1 219/404/1
f 218/217/4 222/221/4 224/223/4
f 218/217/4 224/223/4 220/219/4
f 218/218/2 221/224/2 222/222/2
f 218/309/1 220/318/1 219/404/1
f 219/220/5 220/218/5 223/224/5
f 220/218/5 224/222/5 223/224/5
f 221/395/6 223/404/6 222/309/6
f 222/309/6 223/404/6 224/318/6
f 225/225/3 227/227/3 231/231/3
f 225/225/3 231/231/3 229/229/3
f 225/228/2 229/232/2 226/226/2
f 225/395/1 226/309/1 227/468/1
f 226/225/4 230/229/4 232/231/4
f 226/225/4 232/231/4 228/227/4
f 226/226/2 229/232/2 230/230/2
f 226/309/1 228/382/1 227/468/1
f 227/228/5 228/226/5 231/232/5
f 228/226/5 232/230/5 231/232/5
f 229/395/6 231/468/6 230/309/6
f 230/309/6 231/468/6 232/382/6
f 233/233/3 235/235/3 239/239/3
f 233/233/3 239/239/3 237/237/3
f 233/236/2 237/240/2 234/234/2
f 233/395/1 234/309/1 235/438/1
f 234/233/4 238/237/4 240/239/4
f 234/233/4 240/239/4 236/235/4
f 234/234/2 237/240/2 238/238/2
f 234/309/1 236/352/1 235/438/1
f 235/236/5 236/234/5 239/240/5
f 236/234/5 240/238/5 239/240/5
f 237/395/6 239/438/6 238/309/6
f 238/309/6 239/438/6 240/352/6
f 241/241/3 243/243/3 247/247/3
f 241/241/3 247/247/3 245/245/3
f 241/244/2 245/248/2 242/242/2
f 241/395/1 242/309/1 243/413/1
f 242/241/4 246/245/4 248/247/4
f 242/241/4 248/247/4 244/243/4
f 242/242/2 245/248/2 246/246/2
f 242/309/1 244/327/1 243/413/1
f 243/244/5 244/242/5 247/248/5
f 244/242/5 248/246/5 247/248/5
f 245/395/6 247/413/6 246/309/6
f 246/309/6 247/413/6 248/327/6
f 249/249/3 251/251/3 255/255/3
f 249/249/3 255/255/3 253/253/3
f 249/252/2 253/256/2 250/250/2
f 249/395/1 250/309/1 251/401/1
f 250/249/4 254/253/4 256/255/4
f 250/249/4 256/255/4 252/251/4
f 250/250/2 253/256/2 254/254/2
f 250/309/1 252/315/1 251/401/1
f 251/252/5 252/250/5 255/256/5
f 252/250/5 256/254/5 255/256/5
f 253/395/6 255/401/6 254/309/6
f 254/309/6 255/401/6 256/315/6
f 257/257/3 259/259/3 263/263/3
f 257/257/3 263/263/3 261/261/3
f 257/260/2 261/264/2 258/258/2
f 257/395/1 258/309/1 259/461/1
f 258/257/4 262/261/4 264/263/4
f 258/257/4 264/263/4 260/259/4
f 258/258/2 261/264/2 262/262/2
f 258/309/1 260/375/1 259/461/1
f 259/260/5 260/258/5 263/264/5
f 260/258/5 264/262/5 263/264/5
f 261/395/6 263/461/6 262/309/6
f 262/309/6 263/461/6 264/375/6
f 265/265/3 267/267/3 271/271/3
f 265/265/3 271/271/3 269/269/3
f 265/268/2 269/272/2 266/266/2
f 265/395/1 266/309/1 267/420/1
f 266/265/4 270/269/4 272/271/4
f 266/265/4 272/271/4 268/267/4
f 266/266/2 269/272/2 270/270/2
f 266/309/1 268/334/1 267/420/1
f 267/268/5 268/266/5 271/272/5
f 268/266/5 272/270/5 271/272/5
f 269/395/6 271/420/6 270/309/6
f 270/309/6 271/420/6 272/334/6
f 273/273/3 275/275/3 279/279/3
f 273/273/3 279/279/3 277/277/3
f 273/276/2 277/280/2 274/274/2
f 273/395/1 274/309/1 275/433/1
f 274/273/4 278/277/4 280/279/4
f 274/273/4 280/279/4 276/275/4
f 274/274/2 277/280/2 278/278/2
f 274/309/1 276/347/1 275/433/1
f 275/276/5 276/274/5 279/280/5
f 276/274/5 280/278/5 279/280/5
f 277/395/6 279/433/6 278/309/6
f 278/309/6 279/433/6 280/347/6
f 281/281/3 283/283/3 287/287/3
f 281/281/3 287/287/3 285/285/3
f 281/284/2 285/288/2 282/282/2
f 281/395/1 282/309/1 283/405/1
f 282/281/4 286/285/4 288/287/4
f 282/281/4 288/287/4 284/283/4
f 282/282/2 285/288/2 286/286/2
f 282/309/1 284/319/1 283/405/1
f 283/284/5 284/282/5 287/288/5
f 284/282/5 288/286/5 287/288/5
f 285/395/6 287/405/6 286/309/6
f 286/309/6 287/405/6 288/319/6
f 289/289/3 291/291/3 295/295/3
f 289/289/3 295/295/3 293/293/3
f 289/292/2 293/296/2 290/290/2
f 289/395/1 290/309/1 291/439/1
f 290/289/4 294/293/4 296/295/4
f 290/289/4 296/295/4 292/291/4
f 290/290/2 293/296/2 294/294/2
f 290/309/1 292/353/1 291/439/1
f 291/292/5 292/290/5 295/296/5
f 292/290/5 296/294/5 295/296/5
f 293/395/6 295/439/6 294/309/6
f 294/309/6 295/439/6 296/353/6
f 297/297/3 299/299/3 303/303/3
f 297/297/3 303/303/3 301/301/3
f 297/300/2 301/304/2 298/298/2
f 297/395/1 298/309/1 299/447/1
f 298/297/4 302/301/4 304/303/4
f 298/297/4 304/303/4 300/299/4
f 298/298/2 301/304/2 302/302/2
f 298/309/1 300/361/1 299/447/1
f 299/300/5 300/298/5 303/304/5
f 300/298/5 304/302/5 303/304/5
f 301/395/6 303/447/6 302/309/6
f 302/309/6 303/447/6 304/361/6
f 305/305/3 307/307/3 311/389/3
f 305/305/3 311/389/3 309/387/3
f 305/308/2 309/390/2 306/306/2
f 305/395/1 306/309/1 307/466/1
f 306/305/4 310/387/4 312/389/4
f 306/305/4 312/389/4 308/307/4
f 306/306/2 309/390/2 310/388/2
f 306/309/1 308/380/1 307/466/1
f 307/308/5 308/306/5 311/390/5
f 308/306/5 312/388/5 311/390/5
f 309/395/6 311/466/6 310/309/6
f 310/309/6 311/466/6 312/380/6
f 313/391/3 315/393/3 319/475/3
f 313/391/3 319/475/3 317/473/3
f 313/394/2 317/476/2 314/392/2
f 313/395/1 314/309/1 315/429/1
f 314/309/1 316/343/1 315/429/1
f 314/391/4 318/473/4 320/475/4
f 314/391/4 320/475/4 316/393/4
f 314/392/2 317/476/2 318/474/2
f 315/394/5 316/392/5 319/476/5
f 316/392/5 320/474/5 319/476/5
f 317/395/6 319/429/6 318/309/6
f 318/309/6 319/429/6 320/343/6
f 321/395/1 322/309/1 323/442/1
f 321/477/3 323/479/3 327/483/3
f 321/477/3 327/483/3 325/481/3
f 321/480/2 325/484/2 322/478/2
f 322/309/1 324/356/1 323/442/1
f 322/477/4 326/481/4 328/483/4
f 322/477/4 328/483/4 324/479/4
f 322/478/2 325/484/2 326/482/2
f 323/480/5 324/478/5 327/484/5
f 324/478/5 328/482/5 327/484/5
f 325/395/6 327/442/6 326/309/6
f 326/309/6 327/442/6 328/356/6
f 329/395/1 330/309/1 331/456/1
f 329/485/3 331/487/3 335/491/3
f 329/485/3 335/491/3 333/489/3
f 329/488/2 333/492/2 330/486/2
f 330/309/1 332/370/1 331/456/1
f 330/485/4 334/489/4 336/491/4
f 330/485/4 336/491/4 332/487/4
f 330/486/2 333/492/2 334/490/2
f 331/488/5 332/486/5 335/492/5
f 332/486/5 336/490/5 335/492/5
f 333/395/6 335/456/6 334/309/6
f 334/309/6 335/456/6 336/370/6
f 337/395/1 338/309/1 339/464/1
f 337/493/3 339/495/3 343/499/3
f 337/493/3 343/499/3 341/497/3
f 337/496/2 341/500/2 338/494/2
f 338/309/1 340/378/1 339/464/1
f 338/493/4 342/497/4 344/499/4
f 338/493/4 344/499/4 340/495/4
f 338/494/2 341/500/2 342/498/2
f 339/496/5 340/494/5 343/500/5
f 340/494/5 344/498/5 343/500/5
f 341/395/6 343/464/6 342/309/6
f 342/309/6 343/464/6 344/378/6
f 345/395/1 346/309/1 347/412/1
f 345/501/3 347/503/3 351/507/3
f 345/501/3 351/507/3 349/505/3
f 345/504/2 349/508/2 346/502/2
f 346/309/1 348/326/1 347/412/1
f 346/501/4 350/505/4 352/507/4
f 346/501/4 352/507/4 348/503/4
f 346/502/2 349/508/2 350/506/2
f 347/504/5 348/502/5 351/508/5
f 348/502/5 352/506/5 351/508/5
f 349/395/6 351/412/6 350/309/6
f 350/309/6 351/412/6 352/326/6
f 353/395/1 354/309/1 355/449/1
f 353/509/3 355/511/3 359/515/3
f 353/509/3 359/515/3 357/513/3
f 353/512/2 357/516/2 354/510/2
f 354/309/1 356/363/1 355/449/1
f 354/509/4 358/513/4 360/515/4
f 354/509/4 360/515/4 356/511/4
f 354/510/2 357/516/2 358/514/2
f 355/512/5 356/510/5 359/516/5
f 356/510/5 360/514/5 359/516/5
f 357/395/6 359/449/6 358/309/6
f 358/309/6 359/449/6 360/363/6
f 361/395/1 362/309/1 363/430/1
f 361/517/3 363/519/3 367/523/3
f 361/517/3 367/523/3 365/521/3
f 361/520/2 365/524/2 362/518/2
f 362/309/1 364/344/1 363/430/1
f 362/517/4 366/521/4 368/523/4
f 362/517/4 368/523/4 364/519/4
f 362/518/2 365/524/2 366/522/2
f 363/520/5 364/518/5 367/524/5
f 364/518/5 368/522/5 367/524/5
f 365/395/6 367/430/6 366/309/6
f 366/309/6 367/430/6 368/344/6
f 369/395/1 370/309/1 371/450/1
f 369/525/3 371/527/3 375/531/3
f 369/525/3 375/531/3 373/529/3
f 369/528/2 373/532/2 370/526/2
f 370/309/1 372/364/1 371/450/1
f 370/525/4 374/529/4 376/531/4
f 370/525/4 376/531/4 372/527/4
f 370/526/2 373/532/2 374/530/2
f 371/528/5 372/526/5 375/532/5
f 372/526/5 376/530/5 375/532/5
f 373/395/6 375/450/6 374/309/6
f 374/309/6 375/450/6 376/364/6
f 377/395/1 378/309/1 379/446/1
f 377/533/3 379/535/3 383/539/3
f 377/533/3 383/539/3 381/537/3
f 377/536/2 381/540/2 378/534/2
f 378/309/1 380/360/1 379/446/1
f 378/533/4 382/537/4 384/539/4
f 378/533/4 384/539/4 380/535/4
f 378/534/2 381/540/2 382/538/2
f 379/536/5 380/534/5 383/540/5
f 380/534/5 384/538/5 383/540/5
f 381/395/6 383/446/6 382/309/6
f 382/309/6 383/446/6 384/360/6
f 385/395/1 386/309/1 387/455/1
f 385/541/3 387/543/3 391/547/3
f 385/541/3 391/547/3 389/545/3
f 385/544/2 389/548/2 386/542/2
f 386/309/1 388/369/1 387/455/1
f 386/541/4 390/545/4 392/547/4
f 386/541/4 392/547/4 388/543/4
f 386/542/2 389/548/2 390/546/2
f 387/544/5 388/542/5 391/548/5
f 388/542/5 392/546/5 391/548/5
f 389/395/6 391/455/6 390/309/6
f 390/309/6 391/455/6 392/369/6
f 393/395/1 394/309/1 395/421/1
f 393/549/3 395/551/3 399/555/3
f 393/549/3 399/555/3 397/553/3
f 393/552/2 397/556/2 394/550/2
f 394/309/1 396/335/1 395/421/1
f 394/549/4 398/553/4 400/555/4
f 394/549/4 400/555/4 396/551/4
f 394/550/2 397/556/2 398/554/2
f 395/552/5 396/550/5 399/556/5
f 396/550/5 400/554/5 399/556/5
f 397/395/6 399/421/6 398/309/6
f 398/309/6 399/421/6 400/335/6
f 401/395/1 402/309/1 403/432/1
f 401/557/3 403/559/3 407/563/3
f 401/557/3 407/563/3 405/561/3
f 401/560/2 405/564/2 402/558/2
f 402/309/1 404/346/1 403/432/1
f 402/557/4 406/561/4 408/563/4
f 402/557/4 408/563/4 404/559/4
f 402/558/2 405/564/2 406/562/2
f 403/560/5 404/558/5 407/564/5
f 404/558/5 408/562/5 407/564/5
f 405/395/6 407/432/6 406/309/6
f 406/309/6 407/432/6 408/346/6
f 409/395/1 410/309/1 411/408/1
f 409/565/3 411/567/3 415/571/3
f 409/565/3 415/571/3 413/569/3
f 409/568/2 413/572/2 410/566/2
f 410/309/1 412/322/1 411/408/1
f 410/565/4 414/569/4 416/571/4
f 410/565/4 416/571/4 412/567/4
f 410/566/2 413/572/2 414/570/2
f 411/568/5 412/566/5 415/572/5
f 412/566/5 416/570/5 415/572/5
f 413/395/6 415/408/6 414/309/6
f 414/309/6 415/408/6 416/322/6
f 417/395/1 418/309/1 419/452/1
f 417/573/3 419/575/3 423/579/3
f 417/573/3 423/579/3 421/577/3
f 417/576/2 421/580/2 418/574/2
f 418/309/1 420/366/1 419/452/1
f 418/573/4 422/577/4 424/579/4
f 418/573/4 424/579/4 420/575/4
f 418/574/2 421/580/2 422/578/2
f 419/576/5 420/574/5 423/580/5
f 420/574/5 424/578/5 423/580/5
f 421/395/6 423/452/6 422/309/6
f 422/309/6 423/452/6 424/366/6
f 425/395/1 426/309/1 427/407/1
f 425/581/3 427/583/3 431/587/3
f 425/581/3 431/587/3 429/585/3
f 425/584/2 429/588/2 426/582/2
f 426/309/1 428/321/1 427/407/1
f 426/581/4 430/585/4 432/587/4
f 426/581/4 432/587/4 428/583/4
f 426/582/2 429/588/2 430/586/2
f 427/584/5 428/582/5 431/588/5
f 428/582/5 432/586/5 431/588/5
f 429/395/6 431/407/6 430/309/6
f 430/309/6 431/407/6 432/321/6
f 433/395/1 434/309/1 435/434/1
f 433/589/3 435/591/3 439/595/3
f 433/589/3 439/595/3 437/593/3
f 433/592/2 437/596/2 434/590/2
f 434/309/1 436/348/1 435/434/1
f 434/589/4 438/593/4 440/595/4
f 434/589/4 440/595/4 436/591/4
f 434/590/2 437/596/2 438/594/2
f 435/592/5 436/590/5 439/596/5
f 436/590/5 440/594/5 439/596/5
f 437/395/6 439/434/6 438/309/6
f 438/309/6 439/434/6 440/348/6
f 441/395/1 442/309/1 443/443/1
f 441/597/3 443/599/3 447/603/3
f 441/597/3 447/603/3 445/601/3
f 441/600/2 445/604/2 442/598/2
f 442/309/1 444/357/1 443/443/1
f 442/597/4 446/601/4 448/603/4
f 442/597/4 448/603/4 444/599/4
f 442/598/2 445/604/2 446/602/2
f 443/600/5 444/598/5 447/604/5
f 444/598/5 448/602/5 447/604/5
f 445/395/6 447/443/6 446/309/6
f 446/309/6 447/443/6 448/357/6
f 449/395/1 450/309/1 451/411/1
f 449/605/3 451/607/3 455/611/3
f 449/605/3 455/611/3 453/609/3
f 449/608/2 453/612/2 450/606/2
f 450/309/1 452/325/1 451/411/1
f 450/605/4 454/609/4 456/611/4
f 450/605/4 456/611/4 452/607/4
f 450/606/2 453/612/2 454/610/2
f 451/608/5 452/606/5 455/612/5
f 452/606/5 456/610/5 455/612/5
f 453/395/6 455/411/6 454/309/6
f 454/309/6 455/411/6 456/325/6
f 457/395/1 458/309/1 459/416/1
f 457/613/3 459/615/3 463/619/3
f 457/613/3 463/619/3 461/617/3
f 457/616/2 461/620/2 458/614/2
f 458/309/1 460/330/1 459/416/1
f 458/613/4 462/617/4 464/619/4
f 458/613/4 464/619/4 460/615/4
f 458/614/2 461/620/2 462/618/2
f 459/616/5 460/614/5 463/620/5
f 460/614/5 464/618/5 463/620/5
f 461/395/6 463/416/6 462/309/6
f 462/309/6 463/416/6 464/330/6
f 465/395/1 466/309/1 467/437/1
f 465/621/3 467/623/3 471/627/3
f 465/621/3 471/627/3 469/625/3
f 465/624/2 469/628/2 466/622/2
f 466/309/1 468/351/1 467/437/1
f 466/621/4 470/625/4 472/627/4
f 466/621/4 472/627/4 468/623/4
f 466/622/2 469/628/2 470/626/2
f 467/624/5 468/622/5 471/628/5
f 468/622/5 472/626/5 471/628/5
f 469/395/6 471/437/6 470/309/6
f 470/309/6 471/437/6 472/351/6
f 473/395/1 474/309/1 475/436/1
f 473/629/3 475/631/3 479/635/3
f 473/629/3 479/635/3 477/633/3
f 473/632/2 477/636/2 474/630/2
f 474/309/1 476/350/1 475/436/1
f 474/629/4 478/633/4 480/635/4
f 474/629/4 480/635/4 476/631/4
f 474/630/2 477/636/2 478/634/2
f 475/632/5 476/630/5 479/636/5
f 476/630/5 480/634/5 479/636/5
f 477/395/6 479/436/6 478/309/6
f 478/309/6 479/436/6 480/350/6
f 481/395/1 482/309/1 483/467/1
f 481/637/3 483/639/3 487/643/3
f 481/637/3 487/643/3 485/641/3
f 481/640/2 485/644/2 482/638/2
f 482/309/1 484/381/1 483/467/1
f 482/637/4 486/641/4 488/643/4
f 482/637/4 488/643/4 484/639/4
f 482/638/2 485/644/2 486/642/2
f 483/640/5 484/638/5 487/644/5
f 484/638/5 488/642/5 487/644/5
f 485/395/6 487/467/6 486/309/6
f 486/309/6 487/467/6 488/381/6
f 489/395/1 490/309/1 491/451/1
f 489/645/3 491/647/3 495/651/3
f 489/645/3 495/651/3 493/649/3
f 489/648/2 493/652/2 490/646/2
f 490/309/1 492/365/1 491/451/1
f 490/645/4 494/649/4 496/651/4
f 490/645/4 496/651/4 492/647/4
f 490/646/2 493/652/2 494/650/2
f 491/648/5 492/646/5 495/652/5
f 492/646/5 496/650/5 495/652/5
f 493/395/6 495/451/6 494/309/6
f 494/309/6 495/451/6 496/365/6
f 497/395/1 498/309/1 499/402/1
f 497/653/3 499/655/3 503/659/3
f 497/653/3 503/659/3 501/657/3
f 497/656/2 501/660/2 498/654/2
f 498/309/1 500/316/1 499/402/1
f 498/653/4 502/657/4 504/659/4
f 498/653/4 504/659/4 500/655/4
f 498/654/2 501/660/2 502/658/2
f 499/656/5 500/654/5 503/660/5
f 500/654/5 504/658/5 503/660/5
f 501/395/6 503/402/6 502/309/6
f 502/309/6 503/402/6 504/316/6
f 505/395/1 506/309/1 507/428/1
f 505/661/3 507/663/3 511/667/3
f 505/661/3 511/667/3 509/665/3
f 505/664/2 509/668/2 506/662/2
f 506/309/1 508/342/1 507/428/1
f 506/661/4 510/665/4 512/667/4
f 506/661/4 512/667/4 508/663/4
f 506/662/2 509/668/2 510/666/2
f 507/664/5 508/662/5 511/668/5
f 508/662/5 512/666/5 511/668/5
f 509/395/6 511/428/6 510/309/6
f 510/309/6 511/428/6 512/342/6
f 513/395/1 514/309/1 515/398/1
f 513/669/3 515/671/3 519/675/3
f 513/669/3 519/675/3 517/673/3
f 513/672/2 517/676/2 514/670/2
f 514/309/1 516/312/1 515/398/1
f 514/669/4 518/673/4 520/675/4
f 514/669/4 520/675/4 516/671/4
f 514/670/2 517/676/2 518/674/2
f 515/672/5 516/670/5 519/676/5
f 516/670/5 520/674/5 519/676/5
f 517/395/6 519/398/6 518/309/6
f 518/309/6 519/398/6 520/312/6
f 521/395/1 522/309/1 523/435/1
f 521/677/3 523/679/3 527/683/3
f 521/677/3 527/683/3 525/681/3
f 521/680/2 525/684/2 522/678/2
f 522/309/1 524/349/1 523/435/1
f 522/677/4 526/681/4 528/683/4
f 522/677/4 528/683/4 524/679/4
f 522/678/2 525/684/2 526/682/2
f 523/680/5 524/678/5 527/684/5
f 524/678/5 528/682/5 527/684/5
f 525/395/6 527/435/6 526/309/6
f 526/309/6 527/435/6 528/349/6
f 529/395/1 530/309/1 531/418/1
f 529/685/3 531/687/3 535/691/3
f 529/685/3 535/691/3 533/689/3
f 529/688/2 533/692/2 530/686/2
f 530/309/1 532/332/1 531/418/1
f 530/685/4 534/689/4 536/691/4
f 530/685/4 536/691/4 532/687/4
f 530/686/2 533/692/2 534/690/2
f 531/688/5 532/686/5 535/692/5
f 532/686/5 536/690/5 535/692/5
f 533/395/6 535/418/6 534/309/6
f 534/309/6 535/418/6 536/332/6
f 537/395/1 538/309/1 539/400/1
f 537/693/3 539/695/3 543/699/3
f 537/693/3 543/699/3 541/697/3
f 537/696/2 541/700/2 538/694/2
f 538/309/1 540/314/1 539/400/1
f 538/693/4 542/697/4 544/699/4
f 538/693/4 544/699/4 540/695/4
f 538/694/2 541/700/2 542/698/2
f 539/696/5 540/694/5 543/700/5
f 540/694/5 544/698/5 543/700/5
f 541/395/6 543/400/6 542/309/6
f 542/309/6 543/400/6 544/314/6
f 545/395/1 546/309/1 547/410/1
f 545/701/3 547/703/3 551/707/3
f 545/701/3 551/707/3 549/705/3
f 545/704/2 549/708/2 546/702/2
f 546/309/1 548/324/1 547/410/1
f 546/701/4 550/705/4 552/707/4
f 546/701/4 552/707/4 548/703/4
f 546/702/2 549/708/2 550/706/2
f 547/704/5 548/702/5 551/708/5
f 548/702/5 552/706/5 551/708/5
f 549/395/6 551/410/6 550/309/6
f 550/309/6 551/410/6 552/324/6
f 553/395/1 554/309/1 555/426/1
f 553/709/3 555/711/3 559/715/3
f 553/709/3 559/715/3 557/713/3
f 553/712/2 557/716/2 554/710/2
f 554/309/1 556/340/1 555/426/1
f 554/709/4 558/713/4 560/715/4
f 554/709/4 560/715/4 556/711/4
f 554/710/2 557/716/2 558/714/2
f 555/712/5 556/710/5 559/716/5
f 556/710/5 560/714/5 559/716/5
f 557/395/6 559/426/6 558/309/6
f 558/309/6 559/426/6 560/340/6
f 561/395/1 562/309/1 563/419/1
f 561/717/3 563/719/3 567/723/3
f 561/717/3 567/723/3 565/721/3
f 561/720/2 565/724/2 562/718/2
f 562/309/1 564/333/1 563/419/1
f 562/717/4 566/721/4 568/723/4
f 562/717/4 568/723/4 564/719/4
f 562/718/2 565/724/2 566/722/2
f 563/720/5 564/718/5 567/724/5
f 564/718/5 568/722/5 567/724/5
f 565/395/6 567/419/6 566/309/6
f 566/309/6 567/419/6 568/333/6
f 569/395/1 570/309/1 571/469/1
f 569/725/3 571/727/3 575/731/3
f 569/725/3 575/731/3 573/729/3
f 569/728/2 573/732/2 570/726/2
f 570/309/1 572/383/1 571/469/1
f 570/725/4 574/729/4 576/731/4
f 570/725/4 576/731/4 572/727/4
f 570/726/2 573/732/2 574/730/2
f 571/728/5 572/726/5 575/732/5
f 572/726/5 576/730/5 575/732/5
f 573/395/6 575/469/6 574/309/6
f 574/309/6 575/469/6 576/383/6
f 577/395/1 578/309/1 579/423/1
f 577/733/3 579/735/3 583/739/3
f 577/733/3 583/739/3 581/737/3
f 577/736/2 581/740/2 578/734/2
f 578/309/1 580/337/1 579/423/1
f 578/733/4 582/737/4 584/739/4
f 578/733/4 584/739/4 580/735/4
f 578/734/2 581/740/2 582/738/2
f 579/736/5 580/734/5 583/740/5
f 580/734/5 584/738/5 583/740/5
f 581/395/6 583/423/6 582/309/6
f 582/309/6 583/423/6 584/337/6
f 585/395/1 586/309/1 587/396/1
f 585/741/3 587/743/3 591/747/3
f 585/741/3 591/747/3 589/745/3
f 585/744/2 589/748/2 586/742/2
f 586/309/1 588/310/1 587/396/1
f 586/741/4 590/745/4 592/747/4
f 586/741/4 592/747/4 588/743/4
f 586/742/2 589/748/2 590/746/2
f 587/744/5 588/742/5 591/748/5
f 588/742/5 592/746/5 591/748/5
f 589/395/6 591/396/6 590/309/6
f 590/309/6 591/396/6 592/310/6
f 593/395/1 594/309/1 595/409/1
f 593/749/3 595/751/3 599/755/3
f 593/749/3 599/755/3 597/753/3
f 593/752/2 597/756/2 594/750/2
f 594/309/1 596/323/1 595/409/1
f 594/749/4 598/753/4 600/755/4
f 594/749/4 600/755/4 596/751/4
f 594/750/2 597/756/2 598/754/2
f 595/752/5 596/750/5 599/756/5
f 596/750/5 600/754/5 599/756/5
f 597/395/6 599/409/6 598/309/6
f 598/309/6 599/409/6 600/323/6
f 601/395/1 602/309/1 603/470/1
f 601/757/3 603/759/3 607/763/3
f 601/757/3 607/763/3 605/761/3
f 601/760/2 605/764/2 602/758/2
f 602/309/1 604/384/1 603/470/1
f 602/757/4 606/761/4 608/763/4
f 602/757/4 608/763/4 604/759/4
f 602/758/2 605/764/2 606/762/2
f 603/760/5 604/758/5 607/764/5
f 604/758/5 608/762/5 607/764/5
f 605/395/6 607/470/6 606/309/6
f 606/309/6 607/470/6 608/384/6
f 609/395/1 610/309/1 611/440/1
f 609/765/3 611/767/3 615/771/3
f 609/765/3 615/771/3 613/769/3
f 609/768/2 613/772/2 610/766/2
f 610/309/1 612/354/1 611/440/1
f 610/765/4 614/769/4 616/771/4
f 610/765/4 616/771/4 612/767/4
f 610/766/2 613/772/2 614/770/2
f 611/768/5 612/766/5 615/772/5
f 612/766/5 616/770/5 615/772/5
f 613/395/6 615/440/6 614/309/6
f 614/309/6 615/440/6 616/354/6
