# exported by ae3d_export.py v3
# object: Street_BlockR1_Glass
mtllib Street_BlockR1_Glass.mtl
v -5.735000 0.410000 0.225000
v -5.735000 1.880000 0.225000
v -5.735000 3.560000 0.225000
v -5.735000 5.030000 0.225000
v -5.735000 6.710000 0.225000
v -5.735000 8.180000 0.225000
v -4.665000 0.410000 0.225000
v -4.665000 1.880000 0.225000
v -4.665000 3.560000 0.225000
v -4.665000 5.030000 0.225000
v -4.665000 6.710000 0.225000
v -4.665000 8.180000 0.225000
v -3.135000 0.410000 0.225000
v -3.135000 1.880000 0.225000
v -3.135000 3.560000 0.225000
v -3.135000 5.030000 0.225000
v -3.135000 6.710000 0.225000
v -3.135000 8.180000 0.225000
v -2.065000 0.410000 0.225000
v -2.065000 1.880000 0.225000
v -2.065000 3.560000 0.225000
v -2.065000 5.030000 0.225000
v -2.065000 6.710000 0.225000
v -2.065000 8.180000 0.225000
v -0.635000 -0.520000 0.225000
v -0.635000 1.830000 0.225000
v -0.535000 3.560000 0.225000
v -0.535000 5.030000 0.225000
v -0.535000 6.710000 0.225000
v -0.535000 8.180000 0.225000
v 0.535000 3.560000 0.225000
v 0.535000 5.030000 0.225000
v 0.535000 6.710000 0.225000
v 0.535000 8.180000 0.225000
v 0.635000 -0.520000 0.225000
v 0.635000 1.830000 0.225000
v 4.665000 0.410000 0.225000
v 4.665000 1.880000 0.225000
v 4.665000 3.560000 0.225000
v 4.665000 5.030000 0.225000
v 4.665000 6.710000 0.225000
v 4.665000 8.180000 0.225000
v 5.735000 0.410000 0.225000
v 5.735000 1.880000 0.225000
v 5.735000 3.560000 0.225000
v 5.735000 5.030000 0.225000
v 5.735000 6.710000 0.225000
v 5.735000 8.180000 0.225000
vt 0.000000 0.000000
vt 0.000000 1.000000
vt 1.000000 0.000000
vt 1.000000 1.000000
vn 0.000000 0.000000 -1.000000
vn 0.000000 0.000000 1.000000
usemtl WindowGlass
f 1/1/2 7/3/2 8/4/2
f 1/1/2 8/4/2 2/2/2
f 3/1/2 9/3/2 10/4/2
f 3/1/2 10/4/2 4/2/2
f 5/1/2 11/3/2 12/4/2
f 5/1/2 12/4/2 6/2/2
f 13/1/1 14/2/1 20/4/1
f 13/1/1 20/4/1 19/3/1
f 15/1/2 21/3/2 22/4/2
f 15/1/2 22/4/2 16/2/2
f 17/1/2 23/3/2 24/4/2
f 17/1/2 24/4/2 18/2/2
f 25/1/2 35/3/2 36/4/2
f 25/1/2 36/4/2 26/2/2
f 27/1/2 31/3/2 32/4/2
f 27/1/2 32/4/2 28/2/2
f 29/1/2 33/3/2 34/4/2
f 29/1/2 34/4/2 30/2/2
f 37/1/2 43/3/2 44/4/2
f 37/1/2 44/4/2 38/2/2
f 39/1/2 45/3/2 46/4/2
f 39/1/2 46/4/2 40/2/2
f 41/1/2 47/3/2 48/4/2
f 41/1/2 48/4/2 42/2/2
