# exported by ae3d_export.py v3
# object: Street_BlockL4_Coping
mtllib Street_BlockL4_Coping.mtl
v -1.419683 0.015000 -0.565000
v -1.419683 0.015000 0.245000
v -1.419683 0.105000 -0.565000
v -1.419683 0.105000 0.245000
v -1.415290 0.004393 -0.565000
v -1.415290 0.004393 0.245000
v -1.415290 0.015000 -0.575607
v -1.415290 0.015000 0.255607
v -1.415290 0.105000 -0.575607
v -1.415290 0.105000 0.255607
v -1.415290 0.115607 -0.565000
v -1.415290 0.115607 0.245000
v -1.413343 0.006340 -0.573660
v -1.413343 0.006340 0.253660
v -1.413343 0.113660 -0.573660
v -1.413343 0.113660 0.253660
v -1.404683 0.000000 -0.565000
v -1.404683 0.000000 0.245000
v -1.404683 0.004393 -0.575607
v -1.404683 0.004393 0.255607
v -1.404683 0.015000 -0.580000
v -1.404683 0.015000 0.260000
v -1.404683 0.105000 -0.580000
v -1.404683 0.105000 0.260000
v -1.404683 0.115607 -0.575607
v -1.404683 0.115607 0.255607
v -1.404683 0.120000 -0.565000
v -1.404683 0.120000 0.245000
v 1.404683 0.000000 -0.565000
v 1.404683 0.000000 0.245000
v 1.404683 0.004393 -0.575607
v 1.404683 0.004393 0.255607
v 1.404683 0.015000 -0.580000
v 1.404683 0.015000 0.260000
v 1.404683 0.105000 -0.580000
v 1.404683 0.105000 0.260000
v 1.404683 0.115607 -0.575607
v 1.404683 0.115607 0.255607
v 1.404683 0.120000 -0.565000
v 1.404683 0.120000 0.245000
v 1.413343 0.006340 -0.573660
v 1.413343 0.113660 -0.573660
v 1.413343 0.113660 0.253660
v 1.413344 0.006340 0.253660
v 1.415290 0.004393 -0.565000
v 1.415290 0.004393 0.245000
v 1.415290 0.015000 -0.575607
v 1.415290 0.015000 0.255607
v 1.415290 0.105000 -0.575607
v 1.415290 0.105000 0.255607
v 1.415290 0.115607 -0.565000
v 1.415290 0.115607 0.245000
v 1.419683 0.015000 -0.565000
v 1.419683 0.015000 0.245000
v 1.419683 0.105000 -0.565000
v 1.419683 0.105000 0.245000
vt -3.113637 -0.539000
vt -3.113637 0.033000
vt -3.113637 0.231000
vt -3.113637 1.243000
vt -3.109355 -0.558053
vt -3.109355 0.013947
vt -3.109355 0.250053
vt -3.109355 1.262053
vt -3.090303 -0.562335
vt -3.090303 -0.539000
vt -3.090303 0.009665
vt -3.090303 0.033000
vt -3.090303 0.231000
vt -3.090303 0.254335
vt -3.090303 1.243000
vt -3.090303 1.266335
vt -0.562335 0.033000
vt -0.562335 0.231000
vt -0.558053 0.013947
vt -0.558053 0.250053
vt -0.539000 0.009665
vt -0.539000 0.033000
vt -0.539000 0.231000
vt -0.539000 0.254335
vt 1.243000 0.009665
vt 1.243000 0.033000
vt 1.243000 0.231000
vt 1.243000 0.254335
vt 1.262053 0.013947
vt 1.262053 0.250053
vt 1.266335 0.033000
vt 1.266335 0.231000
vt 3.090303 -0.562335
vt 3.090303 -0.539000
vt 3.090303 0.009665
vt 3.090303 0.033000
vt 3.090303 0.231000
vt 3.090303 0.254335
vt 3.090303 1.243000
vt 3.090303 1.266335
vt 3.109355 -0.558053
vt 3.109355 0.013947
vt 3.109355 0.250053
vt 3.109355 1.262053
vt 3.109356 -0.558053
vt 3.109356 0.013947
vt 3.113637 -0.539000
vt 3.113637 0.033000
vt 3.113637 0.231000
vt 3.113637 1.243000
vt 3.113638 -0.539000
vt 3.113638 0.033000
vn -1.000000 0.000000 0.000000
vn -0.923876 0.000000 -0.382691
vn -0.923876 0.000000 0.382692
vn -0.923874 -0.382697 0.000000
vn -0.923874 0.382697 0.000000
vn -0.888068 0.325067 -0.325065
vn -0.888068 0.325070 0.325061
vn -0.888066 -0.325066 -0.325070
vn -0.888064 -0.325069 0.325072
vn -0.382690 0.923877 0.000000
vn -0.382689 -0.923877 0.000000
vn -0.382685 0.000000 0.923879
vn -0.382683 0.000000 -0.923880
vn -0.325062 -0.888072 0.325058
vn -0.325062 0.888072 -0.325058
vn -0.325062 0.888072 0.325058
vn -0.325061 -0.888072 -0.325058
vn -0.325061 0.325064 0.888070
vn -0.325060 -0.325064 0.888071
vn -0.325058 -0.325061 -0.888072
vn -0.325057 0.325061 -0.888073
vn 0.000000 -1.000000 0.000000
vn 0.000000 -0.923880 -0.382682
vn 0.000000 -0.923880 0.382683
vn 0.000000 -0.382681 -0.923881
vn 0.000000 -0.382681 0.923881
vn 0.000000 0.000000 -1.000000
vn 0.000000 0.000000 1.000000
vn 0.000000 0.382681 -0.923880
vn 0.000000 0.382681 0.923880
vn 0.000000 0.923880 -0.382683
vn 0.000000 0.923880 0.382683
vn 0.000000 1.000000 0.000000
vn 0.325055 -0.325059 0.888074
vn 0.325057 -0.325062 -0.888072
vn 0.325058 -0.888074 0.325058
vn 0.325058 0.325061 -0.888072
vn 0.325059 0.325063 0.888071
vn 0.325061 -0.888072 -0.325058
vn 0.325062 0.888072 -0.325058
vn 0.325062 0.888072 0.325058
vn 0.382680 0.000000 0.923881
vn 0.382683 0.000000 -0.923880
vn 0.382686 -0.923879 0.000000
vn 0.382690 0.923877 0.000000
vn 0.888065 -0.325066 -0.325072
vn 0.888067 0.325070 0.325065
vn 0.888069 0.325067 -0.325061
vn 0.888073 -0.325058 0.325060
vn 0.923874 0.382697 0.000000
vn 0.923876 0.000000 -0.382691
vn 0.923878 -0.382688 0.000000
vn 0.923881 0.000001 0.382680
vn 1.000000 0.000000 0.000000
usemtl TrimStone
f 1/26/1 2/22/1 4/23/1
f 1/26/1 4/23/1 3/27/1
f 1/26/2 3/27/2 9/32/2
f 1/26/2 9/32/2 7/31/2
f 1/26/4 5/25/4 6/21/4
f 1/26/4 6/21/4 2/22/4
f 1/26/8 7/31/8 13/29/8
f 1/26/8 13/29/8 5/25/8
f 2/22/3 8/17/3 10/18/3
f 2/22/3 10/18/3 4/23/3
f 2/22/9 6/21/9 14/19/9
f 2/22/9 14/19/9 8/17/9
f 3/27/5 4/23/5 12/24/5
f 3/27/5 12/24/5 11/28/5
f 3/27/6 11/28/6 15/30/6
f 3/27/6 15/30/6 9/32/6
f 4/23/7 10/18/7 16/20/7
f 4/23/7 16/20/7 12/24/7
f 5/4/11 17/15/11 6/1/11
f 5/4/17 13/8/17 17/15/17
f 6/1/11 17/15/11 18/10/11
f 6/1/14 18/10/14 14/5/14
f 7/2/13 9/3/13 21/12/13
f 7/2/20 21/12/20 13/6/20
f 8/2/12 22/12/12 10/3/12
f 8/2/19 14/6/19 22/12/19
f 9/3/13 23/13/13 21/12/13
f 9/3/21 15/7/21 23/13/21
f 10/3/12 22/12/12 24/13/12
f 10/3/18 24/13/18 16/7/18
f 11/4/10 12/1/10 27/15/10
f 11/4/15 27/15/15 15/8/15
f 12/1/10 28/10/10 27/15/10
f 12/1/16 16/5/16 28/10/16
f 13/6/20 21/12/20 19/11/20
f 13/8/17 19/16/17 17/15/17
f 14/5/14 18/10/14 20/9/14
f 14/6/19 20/11/19 22/12/19
f 15/7/21 25/14/21 23/13/21
f 15/8/15 27/15/15 25/16/15
f 16/5/16 26/9/16 28/10/16
f 16/7/18 24/13/18 26/14/18
f 17/15/22 29/39/22 18/10/22
f 17/15/23 19/16/23 29/39/23
f 18/10/22 29/39/22 30/34/22
f 18/10/24 30/34/24 20/9/24
f 19/11/25 21/12/25 31/35/25
f 19/16/23 31/40/23 29/39/23
f 20/9/24 30/34/24 32/33/24
f 20/11/26 32/35/26 34/36/26
f 20/11/26 34/36/26 22/12/26
f 21/12/25 33/36/25 31/35/25
f 21/12/27 23/13/27 33/36/27
f 22/12/28 34/36/28 36/37/28
f 22/12/28 36/37/28 24/13/28
f 23/13/27 35/37/27 33/36/27
f 23/13/29 25/14/29 35/37/29
f 24/13/30 36/37/30 38/38/30
f 24/13/30 38/38/30 26/14/30
f 25/14/29 37/38/29 35/37/29
f 25/16/31 27/15/31 37/40/31
f 26/9/32 38/33/32 40/34/32
f 26/9/32 40/34/32 28/10/32
f 27/15/31 39/39/31 37/40/31
f 27/15/33 28/10/33 39/39/33
f 28/10/33 40/34/33 39/39/33
f 29/39/39 31/40/39 41/44/39
f 29/39/39 41/44/39 45/50/39
f 29/39/44 45/50/44 46/51/44
f 29/39/44 46/51/44 30/34/44
f 30/34/36 44/45/36 32/33/36
f 30/34/36 46/51/36 44/45/36
f 31/35/35 33/36/35 41/42/35
f 32/35/34 44/46/34 34/36/34
f 33/36/35 47/48/35 41/42/35
f 33/36/43 35/37/43 49/49/43
f 33/36/43 49/49/43 47/48/43
f 34/36/34 44/46/34 48/52/34
f 34/36/42 48/52/42 50/49/42
f 34/36/42 50/49/42 36/37/42
f 35/37/37 37/38/37 42/43/37
f 35/37/37 42/43/37 49/49/37
f 36/37/38 43/43/38 38/38/38
f 36/37/38 50/49/38 43/43/38
f 37/40/40 39/39/40 42/44/40
f 38/33/41 43/41/41 40/34/41
f 39/39/40 51/50/40 42/44/40
f 39/39/45 40/34/45 52/47/45
f 39/39/45 52/47/45 51/50/45
f 40/34/41 43/41/41 52/47/41
f 41/29/46 47/31/46 53/26/46
f 41/29/46 53/26/46 45/25/46
f 42/30/48 51/28/48 55/27/48
f 42/30/48 55/27/48 49/32/48
f 43/20/47 50/18/47 56/23/47
f 43/20/47 56/23/47 52/24/47
f 44/19/49 46/21/49 54/22/49
f 44/19/49 54/22/49 48/17/49
f 45/25/52 53/26/52 46/21/52
f 46/21/52 53/26/52 54/22/52
f 47/31/51 49/32/51 53/26/51
f 48/17/53 54/22/53 56/23/53
f 48/17/53 56/23/53 50/18/53
f 49/32/51 55/27/51 53/26/51
f 51/28/50 52/24/50 55/27/50
f 52/24/50 56/23/50 55/27/50
f 53/26/54 55/27/54 54/22/54
f 54/22/54 55/27/54 56/23/54
