# exported by ae3d_export.py v3
# object: Street_BlockL3_Trim
mtllib Street_BlockL3_Trim.mtl
v -5.700000 9.580000 0.000000
v -5.700000 9.580000 0.260000
v -5.700000 10.000000 0.000000
v -5.700000 10.000000 0.260000
v -5.600000 2.590000 0.000000
v -5.600000 2.590000 0.049500
v -5.600000 2.660000 0.000000
v -5.600000 2.660000 0.049500
v -5.600000 5.740000 0.000000
v -5.600000 5.740000 0.049500
v -5.600000 5.810000 0.000000
v -5.600000 5.810000 0.049500
v -5.600000 8.890000 0.000000
v -5.600000 8.890000 0.049500
v -5.600000 8.960000 0.000000
v -5.600000 8.960000 0.049500
v -4.865000 0.380000 0.000000
v -4.865000 0.380000 0.090000
v -4.865000 0.460000 0.000000
v -4.865000 0.460000 0.090000
v -4.865000 3.530000 0.000000
v -4.865000 3.530000 0.090000
v -4.865000 3.610000 0.000000
v -4.865000 3.610000 0.090000
v -4.865000 6.680000 0.000000
v -4.865000 6.680000 0.090000
v -4.865000 6.760000 0.000000
v -4.865000 6.760000 0.090000
v -4.225000 0.500000 -0.225000
v -4.225000 0.500000 -0.195000
v -4.225000 1.970000 -0.225000
v -4.225000 1.970000 -0.195000
v -4.225000 3.650000 -0.225000
v -4.225000 3.650000 -0.195000
v -4.225000 5.120000 -0.225000
v -4.225000 5.120000 -0.195000
v -4.225000 6.800000 -0.225000
v -4.225000 6.800000 -0.195000
v -4.225000 8.270000 -0.225000
v -4.225000 8.270000 -0.195000
v -4.175000 0.500000 -0.225000
v -4.175000 0.500000 -0.195000
v -4.175000 1.970000 -0.225000
v -4.175000 1.970000 -0.195000
v -4.175000 3.650000 -0.225000
v -4.175000 3.650000 -0.195000
v -4.175000 5.120000 -0.225000
v -4.175000 5.120000 -0.195000
v -4.175000 6.800000 -0.225000
v -4.175000 6.800000 -0.195000
v -4.175000 8.270000 -0.225000
v -4.175000 8.270000 -0.195000
v -3.535000 0.380000 0.000000
v -3.535000 0.380000 0.090000
v -3.535000 0.460000 0.000000
v -3.535000 0.460000 0.090000
v -3.535000 3.530000 0.000000
v -3.535000 3.530000 0.090000
v -3.535000 3.610000 0.000000
v -3.535000 3.610000 0.090000
v -3.535000 6.680000 0.000000
v -3.535000 6.680000 0.090000
v -3.535000 6.760000 0.000000
v -3.535000 6.760000 0.090000
v -2.065000 0.380000 0.000000
v -2.065000 0.380000 0.090000
v -2.065000 0.460000 0.000000
v -2.065000 0.460000 0.090000
v -2.065000 3.530000 0.000000
v -2.065000 3.530000 0.090000
v -2.065000 3.610000 0.000000
v -2.065000 3.610000 0.090000
v -2.065000 6.680000 0.000000
v -2.065000 6.680000 0.090000
v -2.065000 6.760000 0.000000
v -2.065000 6.760000 0.090000
v -1.425000 0.500000 -0.225000
v -1.425000 0.500000 -0.195000
v -1.425000 1.970000 -0.225000
v -1.425000 1.970000 -0.195000
v -1.425000 3.650000 -0.225000
v -1.425000 3.650000 -0.195000
v -1.425000 5.120000 -0.225000
v -1.425000 5.120000 -0.195000
v -1.425000 6.800000 -0.225000
v -1.425000 6.800000 -0.195000
v -1.425000 8.270000 -0.225000
v -1.425000 8.270000 -0.195000
v -1.375000 0.500000 -0.225000
v -1.375000 0.500000 -0.195000
v -1.375000 1.970000 -0.225000
v -1.375000 1.970000 -0.195000
v -1.375000 3.650000 -0.225000
v -1.375000 3.650000 -0.195000
v -1.375000 5.120000 -0.225000
v -1.375000 5.120000 -0.195000
v -1.375000 6.800000 -0.225000
v -1.375000 6.800000 -0.195000
v -1.375000 8.270000 -0.225000
v -1.375000 8.270000 -0.195000
v -0.735000 0.380000 0.000000
v -0.735000 0.380000 0.090000
v -0.735000 0.460000 0.000000
v -0.735000 0.460000 0.090000
v -0.735000 3.530000 0.000000
v -0.735000 3.530000 0.090000
v -0.735000 3.610000 0.000000
v -0.735000 3.610000 0.090000
v -0.735000 6.680000 0.000000
v -0.735000 6.680000 0.090000
v -0.735000 6.760000 0.000000
v -0.735000 6.760000 0.090000
v 0.605000 -0.470000 0.000000
v 0.605000 -0.470000 0.144000
v 0.605000 2.120000 0.000000
v 0.605000 2.120000 0.144000
v 0.735000 3.530000 0.000000
v 0.735000 3.530000 0.090000
v 0.735000 3.610000 0.000000
v 0.735000 3.610000 0.090000
v 0.735000 6.680000 0.000000
v 0.735000 6.680000 0.090000
v 0.735000 6.760000 0.000000
v 0.735000 6.760000 0.090000
v 1.375000 3.650000 -0.225000
v 1.375000 3.650000 -0.195000
v 1.375000 5.120000 -0.225000
v 1.375000 5.120000 -0.195000
v 1.375000 6.800000 -0.225000
v 1.375000 6.800000 -0.195000
v 1.375000 8.270000 -0.225000
v 1.375000 8.270000 -0.195000
v 1.425000 3.650000 -0.225000
v 1.425000 3.650000 -0.195000
v 1.425000 5.120000 -0.225000
v 1.425000 5.120000 -0.195000
v 1.425000 6.800000 -0.225000
v 1.425000 6.800000 -0.195000
v 1.425000 8.270000 -0.225000
v 1.425000 8.270000 -0.195000
v 2.065000 3.530000 0.000000
v 2.065000 3.530000 0.090000
v 2.065000 3.610000 0.000000
v 2.065000 3.610000 0.090000
v 2.065000 6.680000 0.000000
v 2.065000 6.680000 0.090000
v 2.065000 6.760000 0.000000
v 2.065000 6.760000 0.090000
v 2.195000 -0.470000 0.000000
v 2.195000 -0.470000 0.144000
v 2.195000 2.120000 0.000000
v 2.195000 2.120000 0.144000
v 3.535000 0.380000 0.000000
v 3.535000 0.380000 0.090000
v 3.535000 0.460000 0.000000
v 3.535000 0.460000 0.090000
v 3.535000 3.530000 0.000000
v 3.535000 3.530000 0.090000
v 3.535000 3.610000 0.000000
v 3.535000 3.610000 0.090000
v 3.535000 6.680000 0.000000
v 3.535000 6.680000 0.090000
v 3.535000 6.760000 0.000000
v 3.535000 6.760000 0.090000
v 4.175000 0.500000 -0.225000
v 4.175000 0.500000 -0.195000
v 4.175000 1.970000 -0.225000
v 4.175000 1.970000 -0.195000
v 4.175000 3.650000 -0.225000
v 4.175000 3.650000 -0.195000
v 4.175000 5.120000 -0.225000
v 4.175000 5.120000 -0.195000
v 4.175000 6.800000 -0.225000
v 4.175000 6.800000 -0.195000
v 4.175000 8.270000 -0.225000
v 4.175000 8.270000 -0.195000
v 4.225000 0.500000 -0.225000
v 4.225000 0.500000 -0.195000
v 4.225000 1.970000 -0.225000
v 4.225000 1.970000 -0.195000
v 4.225000 3.650000 -0.225000
v 4.225000 3.650000 -0.195000
v 4.225000 5.120000 -0.225000
v 4.225000 5.120000 -0.195000
v 4.225000 6.800000 -0.225000
v 4.225000 6.800000 -0.195000
v 4.225000 8.270000 -0.225000
v 4.225000 8.270000 -0.195000
v 4.865000 0.380000 0.000000
v 4.865000 0.380000 0.090000
v 4.865000 0.460000 0.000000
v 4.865000 0.460000 0.090000
v 4.865000 3.530000 0.000000
v 4.865000 3.530000 0.090000
v 4.865000 3.610000 0.000000
v 4.865000 3.610000 0.090000
v 4.865000 6.680000 0.000000
v 4.865000 6.680000 0.090000
v 4.865000 6.760000 0.000000
v 4.865000 6.760000 0.090000
v 5.600000 2.590000 0.000000
v 5.600000 2.590000 0.049500
v 5.600000 2.660000 0.000000
v 5.600000 2.660000 0.049500
v 5.600000 5.740000 0.000000
v 5.600000 5.740000 0.049500
v 5.600000 5.810000 0.000000
v 5.600000 5.810000 0.049500
v 5.600000 8.890000 0.000000
v 5.600000 8.890000 0.049500
v 5.600000 8.960000 0.000000
v 5.600000 8.960000 0.049500
v 5.700000 9.580000 0.000000
v 5.700000 9.580000 0.260000
v 5.700000 10.000000 0.000000
v 5.700000 10.000000 0.260000
vt -12.540000 -0.572000
vt -12.540000 0.000000
vt -12.540000 21.076000
vt -12.540000 22.000000
vt -12.320000 -0.108900
vt -12.320000 0.000000
vt -12.320000 5.698000
vt -12.320000 5.852000
vt -12.320000 12.627999
vt -12.320000 12.782000
vt -12.320000 19.558001
vt -12.320000 19.712000
vt -10.702999 -0.198000
vt -10.702999 0.000000
vt -10.702999 0.836000
vt -10.702999 1.012000
vt -10.702999 7.766000
vt -10.702999 7.942000
vt -10.702999 14.696000
vt -10.702999 14.872001
vt -9.295000 0.429000
vt -9.295000 0.495000
vt -9.295000 1.100000
vt -9.295000 4.334000
vt -9.295000 8.030001
vt -9.295000 11.264000
vt -9.295000 14.960000
vt -9.295000 18.194000
vt -9.185000 0.429000
vt -9.185000 0.495000
vt -9.185000 1.100000
vt -9.185000 4.334000
vt -9.185000 8.030001
vt -9.185000 11.264000
vt -9.185000 14.960000
vt -9.185000 18.194000
vt -7.777000 -0.198000
vt -7.777000 0.000000
vt -7.777000 0.836000
vt -7.777000 1.012000
vt -7.777000 7.766000
vt -7.777000 7.942000
vt -7.777000 14.696000
vt -7.777000 14.872001
vt -4.543000 -0.198000
vt -4.543000 0.000000
vt -4.543000 0.836000
vt -4.543000 1.012000
vt -4.543000 7.766000
vt -4.543000 7.942000
vt -4.543000 14.696000
vt -4.543000 14.872001
vt -3.135000 0.429000
vt -3.135000 0.495000
vt -3.135000 1.100000
vt -3.135000 4.334000
vt -3.135000 8.030001
vt -3.135000 11.264000
vt -3.135000 14.960000
vt -3.135000 18.194000
vt -3.025000 0.429000
vt -3.025000 0.495000
vt -3.025000 1.100000
vt -3.025000 4.334000
vt -3.025000 8.030001
vt -3.025000 11.264000
vt -3.025000 14.960000
vt -3.025000 18.194000
vt -1.617000 -0.198000
vt -1.617000 0.000000
vt -1.617000 0.836000
vt -1.617000 1.012000
vt -1.617000 7.766000
vt -1.617000 7.942000
vt -1.617000 14.696000
vt -1.617000 14.872001
vt -0.572000 21.076000
vt -0.572000 22.000000
vt -0.316800 -1.034000
vt -0.316800 4.664000
vt -0.198000 0.836000
vt -0.198000 1.012000
vt -0.198000 7.766000
vt -0.198000 7.942000
vt -0.198000 14.696000
vt -0.198000 14.872001
vt -0.108900 5.698000
vt -0.108900 5.852000
vt -0.108900 12.627999
vt -0.108900 12.782000
vt -0.108900 19.558001
vt -0.108900 19.712000
vt 0.000000 -1.034000
vt 0.000000 0.836000
vt 0.000000 1.012000
vt 0.000000 4.664000
vt 0.000000 5.698000
vt 0.000000 5.852000
vt 0.000000 7.766000
vt 0.000000 7.942000
vt 0.000000 12.627999
vt 0.000000 12.782000
vt 0.000000 14.696000
vt 0.000000 14.872001
vt 0.000000 19.558001
vt 0.000000 19.712000
vt 0.000000 21.076000
vt 0.000000 22.000000
vt 0.429000 1.100000
vt 0.429000 4.334000
vt 0.429000 8.030001
vt 0.429000 11.264000
vt 0.429000 14.960000
vt 0.429000 18.194000
vt 0.495000 1.100000
vt 0.495000 4.334000
vt 0.495000 8.030001
vt 0.495000 11.264000
vt 0.495000 14.960000
vt 0.495000 18.194000
vt 1.331000 -1.034000
vt 1.331000 -0.316800
vt 1.331000 0.000000
vt 1.331000 4.664000
vt 1.617000 -0.198000
vt 1.617000 0.000000
vt 1.617000 7.766000
vt 1.617000 7.942000
vt 1.617000 14.696000
vt 1.617000 14.872001
vt 3.025000 0.429000
vt 3.025000 0.495000
vt 3.025000 8.030001
vt 3.025000 11.264000
vt 3.025000 14.960000
vt 3.025000 18.194000
vt 3.135000 0.429000
vt 3.135000 0.495000
vt 3.135000 8.030001
vt 3.135000 11.264000
vt 3.135000 14.960000
vt 3.135000 18.194000
vt 4.543000 -0.198000
vt 4.543000 0.000000
vt 4.543000 7.766000
vt 4.543000 7.942000
vt 4.543000 14.696000
vt 4.543000 14.872001
vt 4.829000 -1.034000
vt 4.829000 -0.316800
vt 4.829000 0.000000
vt 4.829000 4.664000
vt 7.777000 -0.198000
vt 7.777000 0.000000
vt 7.777000 0.836000
vt 7.777000 1.012000
vt 7.777000 7.766000
vt 7.777000 7.942000
vt 7.777000 14.696000
vt 7.777000 14.872001
vt 9.185000 0.429000
vt 9.185000 0.495000
vt 9.185000 1.100000
vt 9.185000 4.334000
vt 9.185000 8.030001
vt 9.185000 11.264000
vt 9.185000 14.960000
vt 9.185000 18.194000
vt 9.295000 0.429000
vt 9.295000 0.495000
vt 9.295000 1.100000
vt 9.295000 4.334000
vt 9.295000 8.030001
vt 9.295000 11.264000
vt 9.295000 14.960000
vt 9.295000 18.194000
vt 10.702999 -0.198000
vt 10.702999 0.000000
vt 10.702999 0.836000
vt 10.702999 1.012000
vt 10.702999 7.766000
vt 10.702999 7.942000
vt 10.702999 14.696000
vt 10.702999 14.872001
vt 12.320000 -0.108900
vt 12.320000 0.000000
vt 12.320000 5.698000
vt 12.320000 5.852000
vt 12.320000 12.627999
vt 12.320000 12.782000
vt 12.320000 19.558001
vt 12.320000 19.712000
vt 12.540000 -0.572000
vt 12.540000 0.000000
vt 12.540000 21.076000
vt 12.540000 22.000000
vn -1.000000 0.000000 0.000000
vn 0.000000 -1.000000 0.000000
vn 0.000000 0.000000 -1.000000
vn 0.000000 0.000000 1.000000
vn 0.000000 1.000000 0.000000
vn 1.000000 0.000000 0.000000
usemtl TrimStone
f 1/2/2 213/194/2 2/1/2
f 1/3/3 3/4/3 215/196/3
f 1/3/3 215/196/3 213/195/3
f 1/107/1 2/77/1 3/108/1
f 2/1/2 213/194/2 214/193/2
f 2/3/4 214/195/4 216/196/4
f 2/3/4 216/196/4 4/4/4
f 2/77/1 4/78/1 3/108/1
f 3/2/5 4/1/5 215/194/5
f 4/1/5 216/193/5 215/194/5
f 5/6/2 201/186/2 6/5/2
f 5/7/3 7/8/3 203/188/3
f 5/7/3 203/188/3 201/187/3
f 5/97/1 6/87/1 7/98/1
f 6/5/2 201/186/2 202/185/2
f 6/7/4 202/187/4 204/188/4
f 6/7/4 204/188/4 8/8/4
f 6/87/1 8/88/1 7/98/1
f 7/6/5 8/5/5 203/186/5
f 8/5/5 204/185/5 203/186/5
f 9/6/2 205/186/2 10/5/2
f 9/9/3 11/10/3 207/190/3
f 9/9/3 207/190/3 205/189/3
f 9/101/1 10/89/1 11/102/1
f 10/5/2 205/186/2 206/185/2
f 10/9/4 206/189/4 208/190/4
f 10/9/4 208/190/4 12/10/4
f 10/89/1 12/90/1 11/102/1
f 11/6/5 12/5/5 207/186/5
f 12/5/5 208/185/5 207/186/5
f 13/6/2 209/186/2 14/5/2
f 13/11/3 15/12/3 211/192/3
f 13/11/3 211/192/3 209/191/3
f 13/105/1 14/91/1 15/106/1
f 14/5/2 209/186/2 210/185/2
f 14/11/4 210/191/4 212/192/4
f 14/11/4 212/192/4 16/12/4
f 14/91/1 16/92/1 15/106/1
f 15/6/5 16/5/5 211/186/5
f 16/5/5 212/185/5 211/186/5
f 17/14/2 53/38/2 18/13/2
f 17/15/3 19/16/3 55/40/3
f 17/15/3 55/40/3 53/39/3
f 17/94/1 18/81/1 19/95/1
f 18/13/2 53/38/2 54/37/2
f 18/15/4 54/39/4 56/40/4
f 18/15/4 56/40/4 20/16/4
f 18/81/1 20/82/1 19/95/1
f 19/14/5 20/13/5 55/38/5
f 20/13/5 56/37/5 55/38/5
f 21/14/2 57/38/2 22/13/2
f 21/17/3 23/18/3 59/42/3
f 21/17/3 59/42/3 57/41/3
f 21/99/1 22/83/1 23/100/1
f 22/13/2 57/38/2 58/37/2
f 22/17/4 58/41/4 60/42/4
f 22/17/4 60/42/4 24/18/4
f 22/83/1 24/84/1 23/100/1
f 23/14/5 24/13/5 59/38/5
f 24/13/5 60/37/5 59/38/5
f 25/14/2 61/38/2 26/13/2
f 25/19/3 27/20/3 63/44/3
f 25/19/3 63/44/3 61/43/3
f 25/103/1 26/85/1 27/104/1
f 26/13/2 61/38/2 62/37/2
f 26/19/4 62/43/4 64/44/4
f 26/19/4 64/44/4 28/20/4
f 26/85/1 28/86/1 27/104/1
f 27/14/5 28/13/5 63/38/5
f 28/13/5 64/37/5 63/38/5
f 29/22/2 41/30/2 30/21/2
f 29/23/3 31/24/3 43/32/3
f 29/23/3 43/32/3 41/31/3
f 29/115/1 30/109/1 31/116/1
f 30/21/2 41/30/2 42/29/2
f 30/23/4 42/31/4 44/32/4
f 30/23/4 44/32/4 32/24/4
f 30/109/1 32/110/1 31/116/1
f 31/22/5 32/21/5 43/30/5
f 32/21/5 44/29/5 43/30/5
f 33/22/2 45/30/2 34/21/2
f 33/25/3 35/26/3 47/34/3
f 33/25/3 47/34/3 45/33/3
f 33/117/1 34/111/1 35/118/1
f 34/21/2 45/30/2 46/29/2
f 34/25/4 46/33/4 48/34/4
f 34/25/4 48/34/4 36/26/4
f 34/111/1 36/112/1 35/118/1
f 35/22/5 36/21/5 47/30/5
f 36/21/5 48/29/5 47/30/5
f 37/22/2 49/30/2 38/21/2
f 37/27/3 39/28/3 51/36/3
f 37/27/3 51/36/3 49/35/3
f 37/119/1 38/113/1 39/120/1
f 38/21/2 49/30/2 50/29/2
f 38/27/4 50/35/4 52/36/4
f 38/27/4 52/36/4 40/28/4
f 38/113/1 40/114/1 39/120/1
f 39/22/5 40/21/5 51/30/5
f 40/21/5 52/29/5 51/30/5
f 41/115/6 43/116/6 42/109/6
f 42/109/6 43/116/6 44/110/6
f 45/117/6 47/118/6 46/111/6
f 46/111/6 47/118/6 48/112/6
f 49/119/6 51/120/6 50/113/6
f 50/113/6 51/120/6 52/114/6
f 53/94/6 55/95/6 54/81/6
f 54/81/6 55/95/6 56/82/6
f 57/99/6 59/100/6 58/83/6
f 58/83/6 59/100/6 60/84/6
f 61/103/6 63/104/6 62/85/6
f 62/85/6 63/104/6 64/86/6
f 65/46/2 101/70/2 66/45/2
f 65/47/3 67/48/3 103/72/3
f 65/47/3 103/72/3 101/71/3
f 65/94/1 66/81/1 67/95/1
f 66/45/2 101/70/2 102/69/2
f 66/47/4 102/71/4 104/72/4
f 66/47/4 104/72/4 68/48/4
f 66/81/1 68/82/1 67/95/1
f 67/46/5 68/45/5 103/70/5
f 68/45/5 104/69/5 103/70/5
f 69/46/2 105/70/2 70/45/2
f 69/49/3 71/50/3 107/74/3
f 69/49/3 107/74/3 105/73/3
f 69/99/1 70/83/1 71/100/1
f 70/45/2 105/70/2 106/69/2
f 70/49/4 106/73/4 108/74/4
f 70/49/4 108/74/4 72/50/4
f 70/83/1 72/84/1 71/100/1
f 71/46/5 72/45/5 107/70/5
f 72/45/5 108/69/5 107/70/5
f 73/46/2 109/70/2 74/45/2
f 73/51/3 75/52/3 111/76/3
f 73/51/3 111/76/3 109/75/3
f 73/103/1 74/85/1 75/104/1
f 74/45/2 109/70/2 110/69/2
f 74/51/4 110/75/4 112/76/4
f 74/51/4 112/76/4 76/52/4
f 74/85/1 76/86/1 75/104/1
f 75/46/5 76/45/5 111/70/5
f 76/45/5 112/69/5 111/70/5
f 77/54/2 89/62/2 78/53/2
f 77/55/3 79/56/3 91/64/3
f 77/55/3 91/64/3 89/63/3
f 77/115/1 78/109/1 79/116/1
f 78/53/2 89/62/2 90/61/2
f 78/55/4 90/63/4 92/64/4
f 78/55/4 92/64/4 80/56/4
f 78/109/1 80/110/1 79/116/1
f 79/54/5 80/53/5 91/62/5
f 80/53/5 92/61/5 91/62/5
f 81/54/2 93/62/2 82/53/2
f 81/57/3 83/58/3 95/66/3
f 81/57/3 95/66/3 93/65/3
f 81/117/1 82/111/1 83/118/1
f 82/53/2 93/62/2 94/61/2
f 82/57/4 94/65/4 96/66/4
f 82/57/4 96/66/4 84/58/4
f 82/111/1 84/112/1 83/118/1
f 83/54/5 84/53/5 95/62/5
f 84/53/5 96/61/5 95/62/5
f 85/54/2 97/62/2 86/53/2
f 85/59/3 87/60/3 99/68/3
f 85/59/3 99/68/3 97/67/3
f 85/119/1 86/113/1 87/120/1
f 86/53/2 97/62/2 98/61/2
f 86/59/4 98/67/4 100/68/4
f 86/59/4 100/68/4 88/60/4
f 86/113/1 88/114/1 87/120/1
f 87/54/5 88/53/5 99/62/5
f 88/53/5 100/61/5 99/62/5
f 89/115/6 91/116/6 90/109/6
f 90/109/6 91/116/6 92/110/6
f 93/117/6 95/118/6 94/111/6
f 94/111/6 95/118/6 96/112/6
f 97/119/6 99/120/6 98/113/6
f 98/113/6 99/120/6 100/114/6
f 101/94/6 103/95/6 102/81/6
f 102/81/6 103/95/6 104/82/6
f 105/99/6 107/100/6 106/83/6
f 106/83/6 107/100/6 108/84/6
f 109/103/6 111/104/6 110/85/6
f 110/85/6 111/104/6 112/86/6
f 113/93/1 114/79/1 115/96/1
f 113/121/3 115/124/3 151/152/3
f 113/121/3 151/152/3 149/149/3
f 113/123/2 149/151/2 114/122/2
f 114/79/1 116/80/1 115/96/1
f 114/121/4 150/149/4 152/152/4
f 114/121/4 152/152/4 116/124/4
f 114/122/2 149/151/2 150/150/2
f 115/123/5 116/122/5 151/151/5
f 116/122/5 152/150/5 151/151/5
f 117/99/1 118/83/1 119/100/1
f 117/126/2 141/144/2 118/125/2
f 117/127/3 119/128/3 143/146/3
f 117/127/3 143/146/3 141/145/3
f 118/83/1 120/84/1 119/100/1
f 118/125/2 141/144/2 142/143/2
f 118/127/4 142/145/4 144/146/4
f 118/127/4 144/146/4 120/128/4
f 119/126/5 120/125/5 143/144/5
f 120/125/5 144/143/5 143/144/5
f 121/103/1 122/85/1 123/104/1
f 121/126/2 145/144/2 122/125/2
f 121/129/3 123/130/3 147/148/3
f 121/129/3 147/148/3 145/147/3
f 122/85/1 124/86/1 123/104/1
f 122/125/2 145/144/2 146/143/2
f 122/129/4 146/147/4 148/148/4
f 122/129/4 148/148/4 124/130/4
f 123/126/5 124/125/5 147/144/5
f 124/125/5 148/143/5 147/144/5
f 125/117/1 126/111/1 127/118/1
f 125/132/2 133/138/2 126/131/2
f 125/133/3 127/134/3 135/140/3
f 125/133/3 135/140/3 133/139/3
f 126/111/1 128/112/1 127/118/1
f 126/131/2 133/138/2 134/137/2
f 126/133/4 134/139/4 136/140/4
f 126/133/4 136/140/4 128/134/4
f 127/132/5 128/131/5 135/138/5
f 128/131/5 136/137/5 135/138/5
f 129/119/1 130/113/1 131/120/1
f 129/132/2 137/138/2 130/131/2
f 129/135/3 131/136/3 139/142/3
f 129/135/3 139/142/3 137/141/3
f 130/113/1 132/114/1 131/120/1
f 130/131/2 137/138/2 138/137/2
f 130/135/4 138/141/4 140/142/4
f 130/135/4 140/142/4 132/136/4
f 131/132/5 132/131/5 139/138/5
f 132/131/5 140/137/5 139/138/5
f 133/117/6 135/118/6 134/111/6
f 134/111/6 135/118/6 136/112/6
f 137/119/6 139/120/6 138/113/6
f 138/113/6 139/120/6 140/114/6
f 141/99/6 143/100/6 142/83/6
f 142/83/6 143/100/6 144/84/6
f 145/103/6 147/104/6 146/85/6
f 146/85/6 147/104/6 148/86/6
f 149/93/6 151/96/6 150/79/6
f 150/79/6 151/96/6 152/80/6
f 153/94/1 154/81/1 155/95/1
f 153/154/2 189/178/2 154/153/2
f 153/155/3 155/156/3 191/180/3
f 153/155/3 191/180/3 189/179/3
f 154/81/1 156/82/1 155/95/1
f 154/153/2 189/178/2 190/177/2
f 154/155/4 190/179/4 192/180/4
f 154/155/4 192/180/4 156/156/4
f 155/154/5 156/153/5 191/178/5
f 156/153/5 192/177/5 191/178/5
f 157/99/1 158/83/1 159/100/1
f 157/154/2 193/178/2 158/153/2
f 157/157/3 159/158/3 195/182/3
f 157/157/3 195/182/3 193/181/3
f 158/83/1 160/84/1 159/100/1
f 158/153/2 193/178/2 194/177/2
f 158/157/4 194/181/4 196/182/4
f 158/157/4 196/182/4 160/158/4
f 159/154/5 160/153/5 195/178/5
f 160/153/5 196/177/5 195/178/5
f 161/103/1 162/85/1 163/104/1
f 161/154/2 197/178/2 162/153/2
f 161/159/3 163/160/3 199/184/3
f 161/159/3 199/184/3 197/183/3
f 162/85/1 164/86/1 163/104/1
f 162/153/2 197/178/2 198/177/2
f 162/159/4 198/183/4 200/184/4
f 162/159/4 200/184/4 164/160/4
f 163/154/5 164/153/5 199/178/5
f 164/153/5 200/177/5 199/178/5
f 165/115/1 166/109/1 167/116/1
f 165/162/2 177/170/2 166/161/2
f 165/163/3 167/164/3 179/172/3
f 165/163/3 179/172/3 177/171/3
f 166/109/1 168/110/1 167/116/1
f 166/161/2 177/170/2 178/169/2
f 166/163/4 178/171/4 180/172/4
f 166/163/4 180/172/4 168/164/4
f 167/162/5 168/161/5 179/170/5
f 168/161/5 180/169/5 179/170/5
f 169/117/1 170/111/1 171/118/1
f 169/162/2 181/170/2 170/161/2
f 169/165/3 171/166/3 183/174/3
f 169/165/3 183/174/3 181/173/3
f 170/111/1 172/112/1 171/118/1
f 170/161/2 181/170/2 182/169/2
f 170/165/4 182/173/4 184/174/4
f 170/165/4 184/174/4 172/166/4
f 171/162/5 172/161/5 183/170/5
f 172/161/5 184/169/5 183/170/5
f 173/119/1 174/113/1 175/120/1
f 173/162/2 185/170/2 174/161/2
f 173/167/3 175/168/3 187/176/3
f 173/167/3 187/176/3 185/175/3
f 174/113/1 176/114/1 175/120/1
f 174/161/2 185/170/2 186/169/2
f 174/167/4 186/175/4 188/176/4
f 174/167/4 188/176/4 176/168/4
f 175/162/5 176/161/5 187/170/5
f 176/161/5 188/169/5 187/170/5
f 177/115/6 179/116/6 178/109/6
f 178/109/6 179/116/6 180/110/6
f 181/117/6 183/118/6 182/111/6
f 182/111/6 183/118/6 184/112/6
f 185/119/6 187/120/6 186/113/6
f 186/113/6 187/120/6 188/114/6
f 189/94/6 191/95/6 190/81/6
f 190/81/6 191/95/6 192/82/6
f 193/99/6 195/100/6 194/83/6
f 194/83/6 195/100/6 196/84/6
f 197/103/6 199/104/6 198/85/6
f 198/85/6 199/104/6 200/86/6
f 201/97/6 203/98/6 202/87/6
f 202/87/6 203/98/6 204/88/6
f 205/101/6 207/102/6 206/89/6
f 206/89/6 207/102/6 208/90/6
f 209/105/6 211/106/6 210/91/6
f 210/91/6 211/106/6 212/92/6
f 213/107/6 215/108/6 214/77/6
f 214/77/6 215/108/6 216/78/6
