# exported by ae3d_export.py v3
# object: Street_BlockL3_Lit
mtllib Street_BlockL3_Lit.mtl
v -4.735000 0.500000 -0.225000
v -4.735000 1.970000 -0.225000
v -3.665000 0.500000 -0.225000
v -3.665000 1.970000 -0.225000
v 3.665000 0.500000 -0.225000
v 3.665000 1.970000 -0.225000
v 3.665000 3.650000 -0.225000
v 3.665000 5.120000 -0.225000
v 4.735000 0.500000 -0.225000
v 4.735000 1.970000 -0.225000
v 4.735000 3.650000 -0.225000
v 4.735000 5.120000 -0.225000
vt 0.000000 0.000000
vt 0.000000 1.000000
vt 1.000000 0.000000
vt 1.000000 1.000000
vn 0.000000 0.000000 -1.000000
vn 0.000000 0.000000 1.000000
usemtl WindowLit
f 1/1/1 2/2/1 4/4/1
f 1/1/1 4/4/1 3/3/1
f 5/1/1 6/2/1 10/4/1
f 5/1/1 10/4/1 9/3/1
f 7/1/2 11/3/2 12/4/2
f 7/1/2 12/4/2 8/2/2
