# exported by ae3d_export.py v3
# object: Street_BlockR3_Pipes
mtllib Street_BlockR3_Pipes.mtl
v -6.305000 0.520000 -0.160000
v -6.305000 0.520000 0.000000
v -6.305000 0.600000 -0.160000
v -6.305000 0.600000 0.000000
v -6.305000 3.670000 -0.160000
v -6.305000 3.670000 0.000000
v -6.305000 3.750000 -0.160000
v -6.305000 3.750000 0.000000
v -6.305000 6.820000 -0.160000
v -6.305000 6.820000 0.000000
v -6.305000 6.900000 -0.160000
v -6.305000 6.900000 0.000000
v -6.275000 0.600000 -0.160000
v -6.275000 0.600000 -0.050000
v -6.275000 9.700000 -0.160000
v -6.275000 9.700000 -0.050000
v -6.165000 0.600000 -0.160000
v -6.165000 0.600000 -0.050000
v -6.165000 9.700000 -0.160000
v -6.165000 9.700000 -0.050000
v -6.135000 0.520000 -0.160000
v -6.135000 0.520000 0.000000
v -6.135000 0.600000 -0.160000
v -6.135000 0.600000 0.000000
v -6.135000 3.670000 -0.160000
v -6.135000 3.670000 0.000000
v -6.135000 3.750000 -0.160000
v -6.135000 3.750000 0.000000
v -6.135000 6.820000 -0.160000
v -6.135000 6.820000 0.000000
v -6.135000 6.900000 -0.160000
v -6.135000 6.900000 0.000000
v 6.135000 0.520000 -0.160000
v 6.135000 0.520000 0.000000
v 6.135000 0.600000 -0.160000
v 6.135000 0.600000 0.000000
v 6.135000 3.670000 -0.160000
v 6.135000 3.670000 0.000000
v 6.135000 3.750000 -0.160000
v 6.135000 3.750000 0.000000
v 6.135000 6.820000 -0.160000
v 6.135000 6.820000 0.000000
v 6.135000 6.900000 -0.160000
v 6.135000 6.900000 0.000000
v 6.165000 0.600000 -0.160000
v 6.165000 0.600000 -0.050000
v 6.165000 9.700000 -0.160000
v 6.165000 9.700000 -0.050000
v 6.275000 0.600000 -0.160000
v 6.275000 0.600000 -0.050000
v 6.275000 9.700000 -0.160000
v 6.275000 9.700000 -0.050000
v 6.305000 0.520000 -0.160000
v 6.305000 0.520000 0.000000
v 6.305000 0.600000 -0.160000
v 6.305000 0.600000 0.000000
v 6.305000 3.670000 -0.160000
v 6.305000 3.670000 0.000000
v 6.305000 3.750000 -0.160000
v 6.305000 3.750000 0.000000
v 6.305000 6.820000 -0.160000
v 6.305000 6.820000 0.000000
v 6.305000 6.900000 -0.160000
v 6.305000 6.900000 0.000000
vt -18.914999 0.000000
vt -18.914999 0.480000
vt -18.914999 1.560000
vt -18.914999 1.800000
vt -18.914999 11.010000
vt -18.914999 11.250000
vt -18.914999 20.460001
vt -18.914999 20.700001
vt -18.825001 0.150000
vt -18.825001 0.480000
vt -18.825001 1.800000
vt -18.825001 29.099998
vt -18.494999 0.150000
vt -18.494999 0.480000
vt -18.494999 1.800000
vt -18.494999 29.099998
vt -18.405001 0.000000
vt -18.405001 0.480000
vt -18.405001 1.560000
vt -18.405001 1.800000
vt -18.405001 11.010000
vt -18.405001 11.250000
vt -18.405001 20.460001
vt -18.405001 20.700001
vt 0.000000 1.560000
vt 0.000000 1.800000
vt 0.000000 11.010000
vt 0.000000 11.250000
vt 0.000000 20.460001
vt 0.000000 20.700001
vt 0.150000 1.800000
vt 0.150000 29.099998
vt 0.480000 1.560000
vt 0.480000 1.800000
vt 0.480000 11.010000
vt 0.480000 11.250000
vt 0.480000 20.460001
vt 0.480000 20.700001
vt 0.480000 29.099998
vt 18.405001 0.000000
vt 18.405001 0.480000
vt 18.405001 1.560000
vt 18.405001 1.800000
vt 18.405001 11.010000
vt 18.405001 11.250000
vt 18.405001 20.460001
vt 18.405001 20.700001
vt 18.494999 0.150000
vt 18.494999 0.480000
vt 18.494999 1.800000
vt 18.494999 29.099998
vt 18.825001 0.150000
vt 18.825001 0.480000
vt 18.825001 1.800000
vt 18.825001 29.099998
vt 18.914999 0.000000
vt 18.914999 0.480000
vt 18.914999 1.560000
vt 18.914999 1.800000
vt 18.914999 11.010000
vt 18.914999 11.250000
vt 18.914999 20.460001
vt 18.914999 20.700001
vn -1.000000 0.000000 0.000000
vn 0.000000 -1.000000 0.000000
vn 0.000000 0.000000 -1.000000
vn 0.000000 0.000000 1.000000
vn 0.000000 1.000000 0.000000
vn 1.000000 0.000000 0.000000
usemtl PropPaint
f 1/2/2 21/18/2 2/1/2
f 1/3/3 3/4/3 23/20/3
f 1/3/3 23/20/3 21/19/3
f 1/33/1 2/25/1 3/34/1
f 2/1/2 21/18/2 22/17/2
f 2/3/4 22/19/4 24/20/4
f 2/3/4 24/20/4 4/4/4
f 2/25/1 4/26/1 3/34/1
f 3/2/5 4/1/5 23/18/5
f 4/1/5 24/17/5 23/18/5
f 5/2/2 25/18/2 6/1/2
f 5/5/3 7/6/3 27/22/3
f 5/5/3 27/22/3 25/21/3
f 5/35/1 6/27/1 7/36/1
f 6/1/2 25/18/2 26/17/2
f 6/5/4 26/21/4 28/22/4
f 6/5/4 28/22/4 8/6/4
f 6/27/1 8/28/1 7/36/1
f 7/2/5 8/1/5 27/18/5
f 8/1/5 28/17/5 27/18/5
f 9/2/2 29/18/2 10/1/2
f 9/7/3 11/8/3 31/24/3
f 9/7/3 31/24/3 29/23/3
f 9/37/1 10/29/1 11/38/1
f 10/1/2 29/18/2 30/17/2
f 10/7/4 30/23/4 32/24/4
f 10/7/4 32/24/4 12/8/4
f 10/29/1 12/30/1 11/38/1
f 11/2/5 12/1/5 31/18/5
f 12/1/5 32/17/5 31/18/5
f 13/10/2 17/14/2 14/9/2
f 13/11/3 15/12/3 19/16/3
f 13/11/3 19/16/3 17/15/3
f 13/34/1 14/31/1 15/39/1
f 14/9/2 17/14/2 18/13/2
f 14/11/4 18/15/4 20/16/4
f 14/11/4 20/16/4 16/12/4
f 14/31/1 16/32/1 15/39/1
f 15/10/5 16/9/5 19/14/5
f 16/9/5 20/13/5 19/14/5
f 17/34/6 19/39/6 18/31/6
f 18/31/6 19/39/6 20/32/6
f 21/33/6 23/34/6 22/25/6
f 22/25/6 23/34/6 24/26/6
f 25/35/6 27/36/6 26/27/6
f 26/27/6 27/36/6 28/28/6
f 29/37/6 31/38/6 30/29/6
f 30/29/6 31/38/6 32/30/6
f 33/33/1 34/25/1 35/34/1
f 33/41/2 53/57/2 34/40/2
f 33/42/3 35/43/3 55/59/3
f 33/42/3 55/59/3 53/58/3
f 34/25/1 36/26/1 35/34/1
f 34/40/2 53/57/2 54/56/2
f 34/42/4 54/58/4 56/59/4
f 34/42/4 56/59/4 36/43/4
f 35/41/5 36/40/5 55/57/5
f 36/40/5 56/56/5 55/57/5
f 37/35/1 38/27/1 39/36/1
f 37/41/2 57/57/2 38/40/2
f 37/44/3 39/45/3 59/61/3
f 37/44/3 59/61/3 57/60/3
f 38/27/1 40/28/1 39/36/1
f 38/40/2 57/57/2 58/56/2
f 38/44/4 58/60/4 60/61/4
f 38/44/4 60/61/4 40/45/4
f 39/41/5 40/40/5 59/57/5
f 40/40/5 60/56/5 59/57/5
f 41/37/1 42/29/1 43/38/1
f 41/41/2 61/57/2 42/40/2
f 41/46/3 43/47/3 63/63/3
f 41/46/3 63/63/3 61/62/3
f 42/29/1 44/30/1 43/38/1
f 42/40/2 61/57/2 62/56/2
f 42/46/4 62/62/4 64/63/4
f 42/46/4 64/63/4 44/47/4
f 43/41/5 44/40/5 63/57/5
f 44/40/5 64/56/5 63/57/5
f 45/34/1 46/31/1 47/39/1
f 45/49/2 49/53/2 46/48/2
f 45/50/3 47/51/3 51/55/3
f 45/50/3 51/55/3 49/54/3
f 46/31/1 48/32/1 47/39/1
f 46/48/2 49/53/2 50/52/2
f 46/50/4 50/54/4 52/55/4
f 46/50/4 52/55/4 48/51/4
f 47/49/5 48/48/5 51/53/5
f 48/48/5 52/52/5 51/53/5
f 49/34/6 51/39/6 50/31/6
f 50/31/6 51/39/6 52/32/6
f 53/33/6 55/34/6 54/25/6
f 54/25/6 55/34/6 56/26/6
f 57/35/6 59/36/6 58/27/6
f 58/27/6 59/36/6 60/28/6
f 61/37/6 63/38/6 62/29/6
f 62/29/6 63/38/6 64/30/6
