# exported by ae3d_export.py v2
# object: Street_BlockR0
mtllib Street_BlockR0.mtl
v -6.500000 -0.550000 0.000000
v -6.500000 -0.550000 8.000000
v -6.500000 11.000000 0.000000
v -6.500000 11.000000 8.000000
v 6.500000 -0.550000 0.000000
v 6.500000 -0.550000 8.000000
v 6.500000 11.000000 0.000000
v 6.500000 11.000000 8.000000
vt -2.800000 -0.192500
vt -2.800000 3.850000
vt -2.275000 -2.800000
vt -2.275000 -0.192500
vt -2.275000 0.000000
vt -2.275000 3.850000
vt 0.000000 -0.192500
vt 0.000000 3.850000
vt 2.275000 -2.800000
vt 2.275000 -0.192500
vt 2.275000 0.000000
vt 2.275000 3.850000
vn -1.000000 0.000000 0.000000
vn 0.000000 -1.000000 0.000000
vn 0.000000 0.000000 -1.000000
vn 0.000000 0.000000 1.000000
vn 0.000000 1.000000 0.000000
vn 1.000000 0.000000 0.000000
usemtl WallConcrete
f 1/4/3 3/6/3 5/10/3
f 1/5/2 5/11/2 2/3/2
f 1/7/1 2/1/1 4/2/1
f 1/7/1 4/2/1 3/8/1
f 2/3/2 5/11/2 6/9/2
f 2/4/4 6/10/4 8/12/4
f 2/4/4 8/12/4 4/6/4
f 3/5/5 4/3/5 7/11/5
f 3/6/3 7/12/3 5/10/3
f 4/3/5 8/9/5 7/11/5
f 5/7/6 7/8/6 6/1/6
f 6/1/6 7/8/6 8/2/6
