# exported by ae3d_export.py v3
# object: Street_BlockR4_Glass
mtllib Street_BlockR4_Glass.mtl
v -5.735000 0.320000 0.225000
v -5.735000 1.790000 0.225000
v -5.735000 3.470000 0.225000
v -5.735000 4.940000 0.225000
v -5.735000 6.620000 0.225000
v -5.735000 8.090000 0.225000
v -4.665000 0.320000 0.225000
v -4.665000 1.790000 0.225000
v -4.665000 3.470000 0.225000
v -4.665000 4.940000 0.225000
v -4.665000 6.620000 0.225000
v -4.665000 8.090000 0.225000
v -3.135000 0.320000 0.225000
v -3.135000 1.790000 0.225000
v -3.135000 6.620000 0.225000
v -3.135000 8.090000 0.225000
v -3.135000 9.770000 0.225000
v -3.135000 11.240000 0.225000
v -2.065000 0.320000 0.225000
v -2.065000 1.790000 0.225000
v -2.065000 6.620000 0.225000
v -2.065000 8.090000 0.225000
v -2.065000 9.770000 0.225000
v -2.065000 11.240000 0.225000
v -0.635000 -0.610000 0.225000
v -0.635000 1.740000 0.225000
v -0.535000 3.470000 0.225000
v -0.535000 4.940000 0.225000
v -0.535000 6.620000 0.225000
v -0.535000 8.090000 0.225000
v -0.535000 9.770000 0.225000
v -0.535000 11.240000 0.225000
v 0.535000 3.470000 0.225000
v 0.535000 4.940000 0.225000
v 0.535000 6.620000 0.225000
v 0.535000 8.090000 0.225000
v 0.535000 9.770000 0.225000
v 0.535000 11.240000 0.225000
v 0.635000 -0.610000 0.225000
v 0.635000 1.740000 0.225000
v 2.065000 0.320000 0.225000
v 2.065000 1.790000 0.225000
v 2.065000 3.470000 0.225000
v 2.065000 4.940000 0.225000
v 3.135000 0.320000 0.225000
v 3.135000 1.790000 0.225000
v 3.135000 3.470000 0.225000
v 3.135000 4.940000 0.225000
v 4.665000 0.320000 0.225000
v 4.665000 1.790000 0.225000
v 4.665000 6.620000 0.225000
v 4.665000 8.090000 0.225000
v 5.735000 0.320000 0.225000
v 5.735000 1.790000 0.225000
v 5.735000 6.620000 0.225000
v 5.735000 8.090000 0.225000
vt 0.000000 0.000000
vt 0.000000 1.000000
vt 1.000000 0.000000
vt 1.000000 1.000000
vn 0.000000 0.000000 -1.000000
vn 0.000000 0.000000 1.000000
usemtl WindowGlass
f 1/1/2 7/3/2 8/4/2
f 1/1/2 8/4/2 2/2/2
f 3/1/2 9/3/2 10/4/2
f 3/1/2 10/4/2 4/2/2
f 5/1/2 11/3/2 12/4/2
f 5/1/2 12/4/2 6/2/2
f 13/1/1 14/2/1 20/4/1
f 13/1/1 20/4/1 19/3/1
f 15/1/2 21/3/2 22/4/2
f 15/1/2 22/4/2 16/2/2
f 17/1/2 23/3/2 24/4/2
f 17/1/2 24/4/2 18/2/2
f 25/1/2 39/3/2 40/4/2
f 25/1/2 40/4/2 26/2/2
f 27/1/2 33/3/2 34/4/2
f 27/1/2 34/4/2 28/2/2
f 29/1/2 35/3/2 36/4/2
f 29/1/2 36/4/2 30/2/2
f 31/1/2 37/3/2 38/4/2
f 31/1/2 38/4/2 32/2/2
f 41/1/1 42/2/1 46/4/1
f 41/1/1 46/4/1 45/3/1
f 43/1/1 44/2/1 48/4/1
f 43/1/1 48/4/1 47/3/1
f 49/1/2 53/3/2 54/4/2
f 49/1/2 54/4/2 50/2/2
f 51/1/2 55/3/2 56/4/2
f 51/1/2 56/4/2 52/2/2
