# exported by ae3d_export.py v3
# object: Street_BlockR2_Lit
mtllib Street_BlockR2_Lit.mtl
v -3.135000 0.380000 0.225000
v -3.135000 1.850000 0.225000
v -2.065000 0.380000 0.225000
v -2.065000 1.850000 0.225000
v -0.535000 6.680000 0.225000
v -0.535000 8.150000 0.225000
v 0.535000 6.680000 0.225000
v 0.535000 8.150000 0.225000
v 2.065000 9.830000 0.225000
v 2.065000 11.300000 0.225000
v 3.135000 9.830000 0.225000
v 3.135000 11.300000 0.225000
v 4.665000 6.680000 0.225000
v 4.665000 8.150000 0.225000
v 5.735000 6.680000 0.225000
v 5.735000 8.150000 0.225000
vt 0.000000 0.000000
vt 0.000000 1.000000
vt 1.000000 0.000000
vt 1.000000 1.000000
vn 0.000000 0.000000 -1.000000
vn 0.000000 0.000000 1.000000
usemtl WindowLit
f 1/1/1 2/2/1 4/4/1
f 1/1/1 4/4/1 3/3/1
f 5/1/1 6/2/1 8/4/1
f 5/1/1 8/4/1 7/3/1
f 9/1/2 11/3/2 12/4/2
f 9/1/2 12/4/2 10/2/2
f 13/1/2 15/3/2 16/4/2
f 13/1/2 16/4/2 14/2/2
