# exported by ae3d_export.py v3
# object: Street_KerbL
mtllib Street_KerbL.mtl
v -34.987999 -0.420000 -0.170000
v -34.987999 -0.420000 0.170000
v -34.987999 0.153231 -0.170000
v -34.987999 0.153231 0.170000
v -34.112000 -0.420000 -0.170000
v -34.112000 -0.420000 0.170000
v -34.112000 0.153231 -0.170000
v -34.112000 0.153231 0.170000
v -34.088001 -0.420000 -0.170000
v -34.088001 -0.420000 0.170000
v -34.088001 0.154798 -0.170000
v -34.088001 0.154798 0.170000
v -33.212002 -0.420000 -0.170000
v -33.212002 -0.420000 0.170000
v -33.212002 0.154798 -0.170000
v -33.212002 0.154798 0.170000
v -33.188000 -0.420000 -0.170000
v -33.188000 -0.420000 0.170000
v -33.188000 0.149050 -0.170000
v -33.188000 0.149050 0.170000
v -32.312000 -0.420000 -0.170000
v -32.312000 -0.420000 0.170000
v -32.312000 0.149050 -0.170000
v -32.312000 0.149050 0.170000
v -32.287998 -0.420000 -0.170000
v -32.287998 -0.420000 0.170000
v -32.287998 0.153971 -0.170000
v -32.287998 0.153971 0.170000
v -31.412001 -0.420000 -0.170000
v -31.412001 -0.420000 0.170000
v -31.412001 0.153971 -0.170000
v -31.412001 0.153971 0.170000
v -31.388000 -0.420000 -0.170000
v -31.388000 -0.420000 0.170000
v -31.388000 0.154045 -0.170000
v -31.388000 0.154045 0.170000
v -30.511999 -0.420000 -0.170000
v -30.511999 -0.420000 0.170000
v -30.511999 0.154045 -0.170000
v -30.511999 0.154045 0.170000
v -30.488001 -0.420000 -0.170000
v -30.488001 -0.420000 0.170000
v -30.488001 0.154241 -0.170000
v -30.488001 0.154241 0.170000
v -29.612000 -0.420000 -0.170000
v -29.612000 -0.420000 0.170000
v -29.612000 0.154241 -0.170000
v -29.612000 0.154241 0.170000
v -29.587999 -0.420000 -0.170000
v -29.587999 -0.420000 0.170000
v -29.587999 0.151772 -0.170000
v -29.587999 0.151772 0.170000
v -28.712000 -0.420000 -0.170000
v -28.712000 -0.420000 0.170000
v -28.712000 0.151772 -0.170000
v -28.712000 0.151772 0.170000
v -28.688000 -0.420000 -0.170000
v -28.688000 -0.420000 0.170000
v -28.688000 0.155791 -0.170000
v -28.688000 0.155791 0.170000
v -27.812000 -0.420000 -0.170000
v -27.812000 -0.420000 0.170000
v -27.812000 0.155791 -0.170000
v -27.812000 0.155791 0.170000
v -27.788000 -0.420000 -0.170000
v -27.788000 -0.420000 0.170000
v -27.788000 0.147096 -0.170000
v -27.788000 0.147096 0.170000
v -26.912001 -0.420000 -0.170000
v -26.912001 -0.420000 0.170000
v -26.912001 0.147096 -0.170000
v -26.912001 0.147096 0.170000
v -26.888000 -0.420000 -0.170000
v -26.888000 -0.420000 0.170000
v -26.888000 0.154315 -0.170000
v -26.888000 0.154315 0.170000
v -26.011999 -0.420000 -0.170000
v -26.011999 -0.420000 0.170000
v -26.011999 0.154315 -0.170000
v -26.011999 0.154315 0.170000
v -25.988001 -0.420000 -0.170000
v -25.988001 -0.420000 0.170000
v -25.988001 0.147052 -0.170000
v -25.988001 0.147052 0.170000
v -25.112000 -0.420000 -0.170000
v -25.112000 -0.420000 0.170000
v -25.112000 0.147052 -0.170000
v -25.112000 0.147052 0.170000
v -25.087999 -0.420000 -0.170000
v -25.087999 -0.420000 0.170000
v -25.087999 0.155889 -0.170000
v -25.087999 0.155889 0.170000
v -24.212000 -0.420000 -0.170000
v -24.212000 -0.420000 0.170000
v -24.212000 0.155889 -0.170000
v -24.212000 0.155889 0.170000
v -24.188000 -0.420000 -0.170000
v -24.188000 -0.420000 0.170000
v -24.188000 0.146908 -0.170000
v -24.188000 0.146908 0.170000
v -23.312000 -0.420000 -0.170000
v -23.312000 -0.420000 0.170000
v -23.312000 0.146908 -0.170000
v -23.312000 0.146908 0.170000
v -23.288000 -0.420000 -0.170000
v -23.288000 -0.420000 0.170000
v -23.288000 0.151691 -0.170000
v -23.288000 0.151691 0.170000
v -22.412001 -0.420000 -0.170000
v -22.412001 -0.420000 0.170000
v -22.412001 0.151691 -0.170000
v -22.412001 0.151691 0.170000
v -22.388000 -0.420000 -0.170000
v -22.388000 -0.420000 0.170000
v -22.388000 0.149240 -0.170000
v -22.388000 0.149240 0.170000
v -21.511999 -0.420000 -0.170000
v -21.511999 -0.420000 0.170000
v -21.511999 0.149240 -0.170000
v -21.511999 0.149240 0.170000
v -21.488001 -0.420000 -0.170000
v -21.488001 -0.420000 0.170000
v -21.488001 0.151511 -0.170000
v -21.488001 0.151511 0.170000
v -20.612000 -0.420000 -0.170000
v -20.612000 -0.420000 0.170000
v -20.612000 0.151511 -0.170000
v -20.612000 0.151511 0.170000
v -20.587999 -0.420000 -0.170000
v -20.587999 -0.420000 0.170000
v -20.587999 0.153325 -0.170000
v -20.587999 0.153325 0.170000
v -19.712000 -0.420000 -0.170000
v -19.712000 -0.420000 0.170000
v -19.712000 0.153325 -0.170000
v -19.712000 0.153325 0.170000
v -19.688000 -0.420000 -0.170000
v -19.688000 -0.420000 0.170000
v -19.688000 0.151294 -0.170000
v -19.688000 0.151294 0.170000
v -18.812000 -0.420000 -0.170000
v -18.812000 -0.420000 0.170000
v -18.812000 0.151294 -0.170000
v -18.812000 0.151294 0.170000
v -18.788000 -0.420000 -0.170000
v -18.788000 -0.420000 0.170000
v -18.788000 0.146057 -0.170000
v -18.788000 0.146057 0.170000
v -17.912001 -0.420000 -0.170000
v -17.912001 -0.420000 0.170000
v -17.912001 0.146057 -0.170000
v -17.912001 0.146057 0.170000
v -17.888000 -0.420000 -0.170000
v -17.888000 -0.420000 0.170000
v -17.888000 0.150848 -0.170000
v -17.888000 0.150848 0.170000
v -17.011999 -0.420000 -0.170000
v -17.011999 -0.420000 0.170000
v -17.011999 0.150848 -0.170000
v -17.011999 0.150848 0.170000
v -16.988001 -0.420000 -0.170000
v -16.988001 -0.420000 0.170000
v -16.988001 0.147928 -0.170000
v -16.988001 0.147928 0.170000
v -16.112000 -0.420000 -0.170000
v -16.112000 -0.420000 0.170000
v -16.112000 0.147928 -0.170000
v -16.112000 0.147928 0.170000
v -16.087999 -0.420000 -0.170000
v -16.087999 -0.420000 0.170000
v -16.087999 0.148937 -0.170000
v -16.087999 0.148937 0.170000
v -15.212000 -0.420000 -0.170000
v -15.212000 -0.420000 0.170000
v -15.212000 0.148937 -0.170000
v -15.212000 0.148937 0.170000
v -15.188000 -0.420000 -0.170000
v -15.188000 -0.420000 0.170000
v -15.188000 0.153583 -0.170000
v -15.188000 0.153583 0.170000
v -14.312000 -0.420000 -0.170000
v -14.312000 -0.420000 0.170000
v -14.312000 0.153583 -0.170000
v -14.312000 0.153583 0.170000
v -14.288000 -0.420000 -0.170000
v -14.288000 -0.420000 0.170000
v -14.288000 0.146061 -0.170000
v -14.288000 0.146061 0.170000
v -13.412000 -0.420000 -0.170000
v -13.412000 -0.420000 0.170000
v -13.412000 0.146061 -0.170000
v -13.412000 0.146061 0.170000
v -13.388000 -0.420000 -0.170000
v -13.388000 -0.420000 0.170000
v -13.388000 0.147036 -0.170000
v -13.388000 0.147036 0.170000
v -12.512000 -0.420000 -0.170000
v -12.512000 -0.420000 0.170000
v -12.512000 0.147036 -0.170000
v -12.512000 0.147036 0.170000
v -12.488000 -0.420000 -0.170000
v -12.488000 -0.420000 0.170000
v -12.488000 0.147456 -0.170000
v -12.488000 0.147456 0.170000
v -11.612000 -0.420000 -0.170000
v -11.612000 -0.420000 0.170000
v -11.612000 0.147456 -0.170000
v -11.612000 0.147456 0.170000
v -11.588000 -0.420000 -0.170000
v -11.588000 -0.420000 0.170000
v -11.588000 0.149700 -0.170000
v -11.588000 0.149700 0.170000
v -10.712000 -0.420000 -0.170000
v -10.712000 -0.420000 0.170000
v -10.712000 0.149700 -0.170000
v -10.712000 0.149700 0.170000
v -10.688000 -0.420000 -0.170000
v -10.688000 -0.420000 0.170000
v -10.688000 0.155751 -0.170000
v -10.688000 0.155751 0.170000
v -9.812000 -0.420000 -0.170000
v -9.812000 -0.420000 0.170000
v -9.812000 0.155751 -0.170000
v -9.812000 0.155751 0.170000
v -9.788000 -0.420000 -0.170000
v -9.788000 -0.420000 0.170000
v -9.788000 0.149171 -0.170000
v -9.788000 0.149171 0.170000
v -8.912000 -0.420000 -0.170000
v -8.912000 -0.420000 0.170000
v -8.912000 0.149171 -0.170000
v -8.912000 0.149171 0.170000
v -8.888000 -0.420000 -0.170000
v -8.888000 -0.420000 0.170000
v -8.888000 0.155722 -0.170000
v -8.888000 0.155722 0.170000
v -8.012000 -0.420000 -0.170000
v -8.012000 -0.420000 0.170000
v -8.012000 0.155722 -0.170000
v -8.012000 0.155722 0.170000
v -7.988000 -0.420000 -0.170000
v -7.988000 -0.420000 0.170000
v -7.988000 0.147352 -0.170000
v -7.988000 0.147352 0.170000
v -7.112000 -0.420000 -0.170000
v -7.112000 -0.420000 0.170000
v -7.112000 0.147352 -0.170000
v -7.112000 0.147352 0.170000
v -7.088000 -0.420000 -0.170000
v -7.088000 -0.420000 0.170000
v -7.088000 0.153059 -0.170000
v -7.088000 0.153059 0.170000
v -6.212000 -0.420000 -0.170000
v -6.212000 -0.420000 0.170000
v -6.212000 0.153059 -0.170000
v -6.212000 0.153059 0.170000
v -6.188000 -0.420000 -0.170000
v -6.188000 -0.420000 0.170000
v -6.188000 0.152572 -0.170000
v -6.188000 0.152572 0.170000
v -5.312000 -0.420000 -0.170000
v -5.312000 -0.420000 0.170000
v -5.312000 0.152572 -0.170000
v -5.312000 0.152572 0.170000
v -5.288000 -0.420000 -0.170000
v -5.288000 -0.420000 0.170000
v -5.288000 0.150343 -0.170000
v -5.288000 0.150343 0.170000
v -4.412000 -0.420000 -0.170000
v -4.412000 -0.420000 0.170000
v -4.412000 0.150343 -0.170000
v -4.412000 0.150343 0.170000
v -4.388000 -0.420000 -0.170000
v -4.388000 -0.420000 0.170000
v -4.388000 0.152421 -0.170000
v -4.388000 0.152421 0.170000
v -3.512000 -0.420000 -0.170000
v -3.512000 -0.420000 0.170000
v -3.512000 0.152421 -0.170000
v -3.512000 0.152421 0.170000
v -3.488000 -0.420000 -0.170000
v -3.488000 -0.420000 0.170000
v -3.488000 0.147306 -0.170000
v -3.488000 0.147306 0.170000
v -2.612000 -0.420000 -0.170000
v -2.612000 -0.420000 0.170000
v -2.612000 0.147306 -0.170000
v -2.612000 0.147306 0.170000
v -2.588000 -0.420000 -0.170000
v -2.588000 -0.420000 0.170000
v -2.588000 0.146923 -0.170000
v -2.588000 0.146923 0.170000
v -1.712000 -0.420000 -0.170000
v -1.712000 -0.420000 0.170000
v -1.712000 0.146923 -0.170000
v -1.712000 0.146923 0.170000
v -1.688000 -0.420000 -0.170000
v -1.688000 -0.420000 0.170000
v -1.688000 0.154201 -0.170000
v -1.688000 0.154201 0.170000
v -0.812000 -0.420000 -0.170000
v -0.812000 -0.420000 0.170000
v -0.812000 0.154201 -0.170000
v -0.812000 0.154201 0.170000
v -0.788000 -0.420000 -0.170000
v -0.788000 -0.420000 0.170000
v -0.788000 0.149817 -0.170000
v -0.788000 0.149817 0.170000
v 0.088000 -0.420000 -0.170000
v 0.088000 -0.420000 0.170000
v 0.088000 0.149817 -0.170000
v 0.088000 0.149817 0.170000
v 0.112000 -0.420000 -0.170000
v 0.112000 -0.420000 0.170000
v 0.112000 0.150513 -0.170000
v 0.112000 0.150513 0.170000
v 0.988000 -0.420000 -0.170000
v 0.988000 -0.420000 0.170000
v 0.988000 0.150513 -0.170000
v 0.988000 0.150513 0.170000
v 1.012000 -0.420000 -0.170000
v 1.012000 -0.420000 0.170000
v 1.012000 0.146167 -0.170000
v 1.012000 0.146167 0.170000
v 1.888000 -0.420000 -0.170000
v 1.888000 -0.420000 0.170000
v 1.888000 0.146167 -0.170000
v 1.888000 0.146167 0.170000
v 1.912000 -0.420000 -0.170000
v 1.912000 -0.420000 0.170000
v 1.912000 0.148948 -0.170000
v 1.912000 0.148948 0.170000
v 2.788000 -0.420000 -0.170000
v 2.788000 -0.420000 0.170000
v 2.788000 0.148948 -0.170000
v 2.788000 0.148948 0.170000
v 2.812000 -0.420000 -0.170000
v 2.812000 -0.420000 0.170000
v 2.812000 0.151564 -0.170000
v 2.812000 0.151564 0.170000
v 3.688000 -0.420000 -0.170000
v 3.688000 -0.420000 0.170000
v 3.688000 0.151564 -0.170000
v 3.688000 0.151564 0.170000
v 3.712000 -0.420000 -0.170000
v 3.712000 -0.420000 0.170000
v 3.712000 0.146286 -0.170000
v 3.712000 0.146286 0.170000
v 4.588000 -0.420000 -0.170000
v 4.588000 -0.420000 0.170000
v 4.588000 0.146286 -0.170000
v 4.588000 0.146286 0.170000
v 4.612000 -0.420000 -0.170000
v 4.612000 -0.420000 0.170000
v 4.612000 0.146158 -0.170000
v 4.612000 0.146158 0.170000
v 5.488000 -0.420000 -0.170000
v 5.488000 -0.420000 0.170000
v 5.488000 0.146158 -0.170000
v 5.488000 0.146158 0.170000
v 5.512000 -0.420000 -0.170000
v 5.512000 -0.420000 0.170000
v 5.512000 0.153311 -0.170000
v 5.512000 0.153311 0.170000
v 6.388000 -0.420000 -0.170000
v 6.388000 -0.420000 0.170000
v 6.388000 0.153311 -0.170000
v 6.388000 0.153311 0.170000
v 6.412000 -0.420000 -0.170000
v 6.412000 -0.420000 0.170000
v 6.412000 0.147375 -0.170000
v 6.412000 0.147375 0.170000
v 7.288000 -0.420000 -0.170000
v 7.288000 -0.420000 0.170000
v 7.288000 0.147375 -0.170000
v 7.288000 0.147375 0.170000
v 7.312000 -0.420000 -0.170000
v 7.312000 -0.420000 0.170000
v 7.312000 0.155942 -0.170000
v 7.312000 0.155942 0.170000
v 8.188000 -0.420000 -0.170000
v 8.188000 -0.420000 0.170000
v 8.188000 0.155942 -0.170000
v 8.188000 0.155942 0.170000
v 8.212000 -0.420000 -0.170000
v 8.212000 -0.420000 0.170000
v 8.212000 0.149512 -0.170000
v 8.212000 0.149512 0.170000
v 9.088000 -0.420000 -0.170000
v 9.088000 -0.420000 0.170000
v 9.088000 0.149512 -0.170000
v 9.088000 0.149512 0.170000
v 9.112000 -0.420000 -0.170000
v 9.112000 -0.420000 0.170000
v 9.112000 0.147897 -0.170000
v 9.112000 0.147897 0.170000
v 9.988000 -0.420000 -0.170000
v 9.988000 -0.420000 0.170000
v 9.988000 0.147897 -0.170000
v 9.988000 0.147897 0.170000
v 10.012000 -0.420000 -0.170000
v 10.012000 -0.420000 0.170000
v 10.012000 0.151425 -0.170000
v 10.012000 0.151425 0.170000
v 10.888000 -0.420000 -0.170000
v 10.888000 -0.420000 0.170000
v 10.888000 0.151425 -0.170000
v 10.888000 0.151425 0.170000
v 10.912000 -0.420000 -0.170000
v 10.912000 -0.420000 0.170000
v 10.912000 0.148691 -0.170000
v 10.912000 0.148691 0.170000
v 11.788000 -0.420000 -0.170000
v 11.788000 -0.420000 0.170000
v 11.788000 0.148691 -0.170000
v 11.788000 0.148691 0.170000
v 11.812000 -0.420000 -0.170000
v 11.812000 -0.420000 0.170000
v 11.812000 0.150084 -0.170000
v 11.812000 0.150084 0.170000
v 12.688000 -0.420000 -0.170000
v 12.688000 -0.420000 0.170000
v 12.688000 0.150084 -0.170000
v 12.688000 0.150084 0.170000
v 12.712000 -0.420000 -0.170000
v 12.712000 -0.420000 0.170000
v 12.712000 0.150860 -0.170000
v 12.712000 0.150860 0.170000
v 13.588000 -0.420000 -0.170000
v 13.588000 -0.420000 0.170000
v 13.588000 0.150860 -0.170000
v 13.588000 0.150860 0.170000
v 13.612000 -0.420000 -0.170000
v 13.612000 -0.420000 0.170000
v 13.612000 0.148105 -0.170000
v 13.612000 0.148105 0.170000
v 14.488000 -0.420000 -0.170000
v 14.488000 -0.420000 0.170000
v 14.488000 0.148105 -0.170000
v 14.488000 0.148105 0.170000
v 14.512000 -0.420000 -0.170000
v 14.512000 -0.420000 0.170000
v 14.512000 0.151869 -0.170000
v 14.512000 0.151869 0.170000
v 15.388000 -0.420000 -0.170000
v 15.388000 -0.420000 0.170000
v 15.388000 0.151869 -0.170000
v 15.388000 0.151869 0.170000
v 15.412000 -0.420000 -0.170000
v 15.412000 -0.420000 0.170000
v 15.412000 0.148758 -0.170000
v 15.412000 0.148758 0.170000
v 16.288000 -0.420000 -0.170000
v 16.288000 -0.420000 0.170000
v 16.288000 0.148758 -0.170000
v 16.288000 0.148758 0.170000
v 16.312000 -0.420000 -0.170000
v 16.312000 -0.420000 0.170000
v 16.312000 0.150706 -0.170000
v 16.312000 0.150706 0.170000
v 17.188000 -0.420000 -0.170000
v 17.188000 -0.420000 0.170000
v 17.188000 0.150706 -0.170000
v 17.188000 0.150706 0.170000
v 17.212000 -0.420000 -0.170000
v 17.212000 -0.420000 0.170000
v 17.212000 0.153752 -0.170000
v 17.212000 0.153752 0.170000
v 18.087999 -0.420000 -0.170000
v 18.087999 -0.420000 0.170000
v 18.087999 0.153752 -0.170000
v 18.087999 0.153752 0.170000
v 18.112000 -0.420000 -0.170000
v 18.112000 -0.420000 0.170000
v 18.112000 0.155180 -0.170000
v 18.112000 0.155180 0.170000
v 18.988001 -0.420000 -0.170000
v 18.988001 -0.420000 0.170000
v 18.988001 0.155180 -0.170000
v 18.988001 0.155180 0.170000
v 19.011999 -0.420000 -0.170000
v 19.011999 -0.420000 0.170000
v 19.011999 0.154798 -0.170000
v 19.011999 0.154798 0.170000
v 19.888000 -0.420000 -0.170000
v 19.888000 -0.420000 0.170000
v 19.888000 0.154798 -0.170000
v 19.888000 0.154798 0.170000
v 19.912001 -0.420000 -0.170000
v 19.912001 -0.420000 0.170000
v 19.912001 0.155024 -0.170000
v 19.912001 0.155024 0.170000
v 20.788000 -0.420000 -0.170000
v 20.788000 -0.420000 0.170000
v 20.788000 0.155024 -0.170000
v 20.788000 0.155024 0.170000
v 20.812000 -0.420000 -0.170000
v 20.812000 -0.420000 0.170000
v 20.812000 0.154315 -0.170000
v 20.812000 0.154315 0.170000
v 21.688000 -0.420000 -0.170000
v 21.688000 -0.420000 0.170000
v 21.688000 0.154315 -0.170000
v 21.688000 0.154315 0.170000
v 21.712000 -0.420000 -0.170000
v 21.712000 -0.420000 0.170000
v 21.712000 0.154968 -0.170000
v 21.712000 0.154968 0.170000
v 22.587999 -0.420000 -0.170000
v 22.587999 -0.420000 0.170000
v 22.587999 0.154968 -0.170000
v 22.587999 0.154968 0.170000
v 22.612000 -0.420000 -0.170000
v 22.612000 -0.420000 0.170000
v 22.612000 0.153977 -0.170000
v 22.612000 0.153977 0.170000
v 23.488001 -0.420000 -0.170000
v 23.488001 -0.420000 0.170000
v 23.488001 0.153977 -0.170000
v 23.488001 0.153977 0.170000
v 23.511999 -0.420000 -0.170000
v 23.511999 -0.420000 0.170000
v 23.511999 0.151403 -0.170000
v 23.511999 0.151403 0.170000
v 24.388000 -0.420000 -0.170000
v 24.388000 -0.420000 0.170000
v 24.388000 0.151403 -0.170000
v 24.388000 0.151403 0.170000
v 24.412001 -0.420000 -0.170000
v 24.412001 -0.420000 0.170000
v 24.412001 0.149610 -0.170000
v 24.412001 0.149610 0.170000
v 25.288000 -0.420000 -0.170000
v 25.288000 -0.420000 0.170000
v 25.288000 0.149610 -0.170000
v 25.288000 0.149610 0.170000
v 25.312000 -0.420000 -0.170000
v 25.312000 -0.420000 0.170000
v 25.312000 0.150895 -0.170000
v 25.312000 0.150895 0.170000
v 26.188000 -0.420000 -0.170000
v 26.188000 -0.420000 0.170000
v 26.188000 0.150895 -0.170000
v 26.188000 0.150895 0.170000
v 26.212000 -0.420000 -0.170000
v 26.212000 -0.420000 0.170000
v 26.212000 0.146092 -0.170000
v 26.212000 0.146092 0.170000
v 27.087999 -0.420000 -0.170000
v 27.087999 -0.420000 0.170000
v 27.087999 0.146092 -0.170000
v 27.087999 0.146092 0.170000
v 27.112000 -0.420000 -0.170000
v 27.112000 -0.420000 0.170000
v 27.112000 0.146274 -0.170000
v 27.112000 0.146274 0.170000
v 27.988001 -0.420000 -0.170000
v 27.988001 -0.420000 0.170000
v 27.988001 0.146274 -0.170000
v 27.988001 0.146274 0.170000
v 28.011999 -0.420000 -0.170000
v 28.011999 -0.420000 0.170000
v 28.011999 0.152661 -0.170000
v 28.011999 0.152661 0.170000
v 28.888000 -0.420000 -0.170000
v 28.888000 -0.420000 0.170000
v 28.888000 0.152661 -0.170000
v 28.888000 0.152661 0.170000
v 28.912001 -0.420000 -0.170000
v 28.912001 -0.420000 0.170000
v 28.912001 0.151891 -0.170000
v 28.912001 0.151891 0.170000
v 29.788000 -0.420000 -0.170000
v 29.788000 -0.420000 0.170000
v 29.788000 0.151891 -0.170000
v 29.788000 0.151891 0.170000
v 29.812000 -0.420000 -0.170000
v 29.812000 -0.420000 0.170000
v 29.812000 0.150710 -0.170000
v 29.812000 0.150710 0.170000
v 30.688000 -0.420000 -0.170000
v 30.688000 -0.420000 0.170000
v 30.688000 0.150710 -0.170000
v 30.688000 0.150710 0.170000
v 30.712000 -0.420000 -0.170000
v 30.712000 -0.420000 0.170000
v 30.712000 0.148823 -0.170000
v 30.712000 0.148823 0.170000
v 31.587999 -0.420000 -0.170000
v 31.587999 -0.420000 0.170000
v 31.587999 0.148823 -0.170000
v 31.587999 0.148823 0.170000
v 31.612000 -0.420000 -0.170000
v 31.612000 -0.420000 0.170000
v 31.612000 0.147062 -0.170000
v 31.612000 0.147062 0.170000
v 32.487999 -0.420000 -0.170000
v 32.487999 -0.420000 0.170000
v 32.487999 0.147062 -0.170000
v 32.487999 0.147062 0.170000
v 32.512001 -0.420000 -0.170000
v 32.512001 -0.420000 0.170000
v 32.512001 0.153186 -0.170000
v 32.512001 0.153186 0.170000
v 33.388000 -0.420000 -0.170000
v 33.388000 -0.420000 0.170000
v 33.388000 0.153186 -0.170000
v 33.388000 0.153186 0.170000
v 33.411999 -0.420000 -0.170000
v 33.411999 -0.420000 0.170000
v 33.411999 0.151459 -0.170000
v 33.411999 0.151459 0.170000
v 34.287998 -0.420000 -0.170000
v 34.287998 -0.420000 0.170000
v 34.287998 0.151459 -0.170000
v 34.287998 0.151459 0.170000
vt -76.973595 -0.924000
vt -76.973595 -0.374000
vt -76.973595 0.337108
vt -76.973595 0.374000
vt -75.046402 -0.924000
vt -75.046402 -0.374000
vt -75.046402 0.337108
vt -75.046402 0.374000
vt -74.993607 -0.924000
vt -74.993607 -0.374000
vt -74.993607 0.340555
vt -74.993607 0.374000
vt -73.066406 -0.924000
vt -73.066406 -0.374000
vt -73.066406 0.340555
vt -73.066406 0.374000
vt -73.013596 -0.924000
vt -73.013596 -0.374000
vt -73.013596 0.327910
vt -73.013596 0.374000
vt -71.086403 -0.924000
vt -71.086403 -0.374000
vt -71.086403 0.327910
vt -71.086403 0.374000
vt -71.033600 -0.924000
vt -71.033600 -0.374000
vt -71.033600 0.338737
vt -71.033600 0.374000
vt -69.106400 -0.924000
vt -69.106400 -0.374000
vt -69.106400 0.338737
vt -69.106400 0.374000
vt -69.053604 -0.924000
vt -69.053604 -0.374000
vt -69.053604 0.338900
vt -69.053604 0.374000
vt -67.126396 -0.924000
vt -67.126396 -0.374000
vt -67.126396 0.338900
vt -67.126396 0.374000
vt -67.073601 -0.924000
vt -67.073601 -0.374000
vt -67.073601 0.339330
vt -67.073601 0.374000
vt -65.146400 -0.924000
vt -65.146400 -0.374000
vt -65.146400 0.339330
vt -65.146400 0.374000
vt -65.093597 -0.924000
vt -65.093597 -0.374000
vt -65.093597 0.333898
vt -65.093597 0.374000
vt -63.166401 -0.924000
vt -63.166401 -0.374000
vt -63.166401 0.333898
vt -63.166401 0.374000
vt -63.113598 -0.924000
vt -63.113598 -0.374000
vt -63.113598 0.342740
vt -63.113598 0.374000
vt -61.186401 -0.924000
vt -61.186401 -0.374000
vt -61.186401 0.342740
vt -61.186401 0.374000
vt -61.133602 -0.924000
vt -61.133602 -0.374000
vt -61.133602 0.323612
vt -61.133602 0.374000
vt -59.206402 -0.924000
vt -59.206402 -0.374000
vt -59.206402 0.323612
vt -59.206402 0.374000
vt -59.153603 -0.924000
vt -59.153603 -0.374000
vt -59.153603 0.339494
vt -59.153603 0.374000
vt -57.226398 -0.924000
vt -57.226398 -0.374000
vt -57.226398 0.339494
vt -57.226398 0.374000
vt -57.173603 -0.924000
vt -57.173603 -0.374000
vt -57.173603 0.323514
vt -57.173603 0.374000
vt -55.246399 -0.924000
vt -55.246399 -0.374000
vt -55.246399 0.323514
vt -55.246399 0.374000
vt -55.193600 -0.924000
vt -55.193600 -0.374000
vt -55.193600 0.342955
vt -55.193600 0.374000
vt -53.266399 -0.924000
vt -53.266399 -0.374000
vt -53.266399 0.342955
vt -53.266399 0.374000
vt -53.213600 -0.924000
vt -53.213600 -0.374000
vt -53.213600 0.323198
vt -53.213600 0.374000
vt -51.286400 -0.924000
vt -51.286400 -0.374000
vt -51.286400 0.323198
vt -51.286400 0.374000
vt -51.233601 -0.924000
vt -51.233601 -0.374000
vt -51.233601 0.333721
vt -51.233601 0.374000
vt -49.306400 -0.924000
vt -49.306400 -0.374000
vt -49.306400 0.333721
vt -49.306400 0.374000
vt -49.253601 -0.924000
vt -49.253601 -0.374000
vt -49.253601 0.328329
vt -49.253601 0.374000
vt -47.326397 -0.924000
vt -47.326397 -0.374000
vt -47.326397 0.328329
vt -47.326397 0.374000
vt -47.273602 -0.924000
vt -47.273602 -0.374000
vt -47.273602 0.333325
vt -47.273602 0.374000
vt -45.346397 -0.924000
vt -45.346397 -0.374000
vt -45.346397 0.333325
vt -45.346397 0.374000
vt -45.293598 -0.924000
vt -45.293598 -0.374000
vt -45.293598 0.337315
vt -45.293598 0.374000
vt -43.366402 -0.924000
vt -43.366402 -0.374000
vt -43.366402 0.337315
vt -43.366402 0.374000
vt -43.313599 -0.924000
vt -43.313599 -0.374000
vt -43.313599 0.332847
vt -43.313599 0.374000
vt -41.386402 -0.924000
vt -41.386402 -0.374000
vt -41.386402 0.332847
vt -41.386402 0.374000
vt -41.333599 -0.924000
vt -41.333599 -0.374000
vt -41.333599 0.321326
vt -41.333599 0.374000
vt -39.406403 -0.924000
vt -39.406403 -0.374000
vt -39.406403 0.321326
vt -39.406403 0.374000
vt -39.353600 -0.924000
vt -39.353600 -0.374000
vt -39.353600 0.331867
vt -39.353600 0.374000
vt -37.426399 -0.924000
vt -37.426399 -0.374000
vt -37.426399 0.331867
vt -37.426399 0.374000
vt -37.373604 -0.924000
vt -37.373604 -0.374000
vt -37.373604 0.325441
vt -37.373604 0.374000
vt -35.446400 -0.924000
vt -35.446400 -0.374000
vt -35.446400 0.325441
vt -35.446400 0.374000
vt -35.393600 -0.924000
vt -35.393600 -0.374000
vt -35.393600 0.327661
vt -35.393600 0.374000
vt -33.466400 -0.924000
vt -33.466400 -0.374000
vt -33.466400 0.327661
vt -33.466400 0.374000
vt -33.413601 -0.924000
vt -33.413601 -0.374000
vt -33.413601 0.337883
vt -33.413601 0.374000
vt -31.486401 -0.924000
vt -31.486401 -0.374000
vt -31.486401 0.337883
vt -31.486401 0.374000
vt -31.433599 -0.924000
vt -31.433599 -0.374000
vt -31.433599 0.321334
vt -31.433599 0.374000
vt -29.506399 -0.924000
vt -29.506399 -0.374000
vt -29.506399 0.321334
vt -29.506399 0.374000
vt -29.453600 -0.924000
vt -29.453600 -0.374000
vt -29.453600 0.323478
vt -29.453600 0.374000
vt -27.526400 -0.924000
vt -27.526400 -0.374000
vt -27.526400 0.323478
vt -27.526400 0.374000
vt -27.473600 -0.924000
vt -27.473600 -0.374000
vt -27.473600 0.324403
vt -27.473600 0.374000
vt -25.546402 -0.924000
vt -25.546402 -0.374000
vt -25.546402 0.324403
vt -25.546402 0.374000
vt -25.493601 -0.924000
vt -25.493601 -0.374000
vt -25.493601 0.329339
vt -25.493601 0.374000
vt -23.566401 -0.924000
vt -23.566401 -0.374000
vt -23.566401 0.329339
vt -23.566401 0.374000
vt -23.513599 -0.924000
vt -23.513599 -0.374000
vt -23.513599 0.342652
vt -23.513599 0.374000
vt -21.586401 -0.924000
vt -21.586401 -0.374000
vt -21.586401 0.342652
vt -21.586401 0.374000
vt -21.533600 -0.924000
vt -21.533600 -0.374000
vt -21.533600 0.328177
vt -21.533600 0.374000
vt -19.606400 -0.924000
vt -19.606400 -0.374000
vt -19.606400 0.328177
vt -19.606400 0.374000
vt -19.553598 -0.924000
vt -19.553598 -0.374000
vt -19.553598 0.342588
vt -19.553598 0.374000
vt -17.626400 -0.924000
vt -17.626400 -0.374000
vt -17.626400 0.342588
vt -17.626400 0.374000
vt -17.573601 -0.924000
vt -17.573601 -0.374000
vt -17.573601 0.324175
vt -17.573601 0.374000
vt -15.646400 -0.924000
vt -15.646400 -0.374000
vt -15.646400 0.324175
vt -15.646400 0.374000
vt -15.593599 -0.924000
vt -15.593599 -0.374000
vt -15.593599 0.336729
vt -15.593599 0.374000
vt -13.666400 -0.924000
vt -13.666400 -0.374000
vt -13.666400 0.336729
vt -13.666400 0.374000
vt -13.613601 -0.924000
vt -13.613601 -0.374000
vt -13.613601 0.335659
vt -13.613601 0.374000
vt -11.686399 -0.924000
vt -11.686399 -0.374000
vt -11.686399 0.335659
vt -11.686399 0.374000
vt -11.633600 -0.924000
vt -11.633600 -0.374000
vt -11.633600 0.330755
vt -11.633600 0.374000
vt -9.706400 -0.924000
vt -9.706400 -0.374000
vt -9.706400 0.330755
vt -9.706400 0.374000
vt -9.653600 -0.924000
vt -9.653600 -0.374000
vt -9.653600 0.335327
vt -9.653600 0.374000
vt -7.726400 -0.924000
vt -7.726400 -0.374000
vt -7.726400 0.335327
vt -7.726400 0.374000
vt -7.673600 -0.924000
vt -7.673600 -0.374000
vt -7.673600 0.324074
vt -7.673600 0.374000
vt -5.746400 -0.924000
vt -5.746400 -0.374000
vt -5.746400 0.324074
vt -5.746400 0.374000
vt -5.693600 -0.924000
vt -5.693600 -0.374000
vt -5.693600 0.323230
vt -5.693600 0.374000
vt -3.766400 -0.924000
vt -3.766400 -0.374000
vt -3.766400 0.323230
vt -3.766400 0.374000
vt -3.713600 -0.924000
vt -3.713600 -0.374000
vt -3.713600 0.339242
vt -3.713600 0.374000
vt -1.786400 -0.924000
vt -1.786400 -0.374000
vt -1.786400 0.339242
vt -1.786400 0.374000
vt -1.733600 -0.924000
vt -1.733600 -0.374000
vt -1.733600 0.329597
vt -1.733600 0.374000
vt -0.374000 -0.924000
vt -0.374000 0.321326
vt -0.374000 0.321334
vt -0.374000 0.321401
vt -0.374000 0.321547
vt -0.374000 0.321568
vt -0.374000 0.321803
vt -0.374000 0.321829
vt -0.374000 0.323198
vt -0.374000 0.323230
vt -0.374000 0.323478
vt -0.374000 0.323514
vt -0.374000 0.323537
vt -0.374000 0.323612
vt -0.374000 0.324074
vt -0.374000 0.324175
vt -0.374000 0.324226
vt -0.374000 0.324403
vt -0.374000 0.325374
vt -0.374000 0.325441
vt -0.374000 0.325832
vt -0.374000 0.327119
vt -0.374000 0.327267
vt -0.374000 0.327410
vt -0.374000 0.327661
vt -0.374000 0.327685
vt -0.374000 0.327910
vt -0.374000 0.328177
vt -0.374000 0.328329
vt -0.374000 0.328926
vt -0.374000 0.329141
vt -0.374000 0.329339
vt -0.374000 0.329597
vt -0.374000 0.330184
vt -0.374000 0.330755
vt -0.374000 0.331129
vt -0.374000 0.331553
vt -0.374000 0.331563
vt -0.374000 0.331867
vt -0.374000 0.331893
vt -0.374000 0.331969
vt -0.374000 0.332847
vt -0.374000 0.333086
vt -0.374000 0.333135
vt -0.374000 0.333209
vt -0.374000 0.333325
vt -0.374000 0.333440
vt -0.374000 0.333721
vt -0.374000 0.333898
vt -0.374000 0.334112
vt -0.374000 0.334160
vt -0.374000 0.335327
vt -0.374000 0.335659
vt -0.374000 0.335853
vt -0.374000 0.336729
vt -0.374000 0.337010
vt -0.374000 0.337108
vt -0.374000 0.337284
vt -0.374000 0.337315
vt -0.374000 0.337883
vt -0.374000 0.338254
vt -0.374000 0.338737
vt -0.374000 0.338750
vt -0.374000 0.338900
vt -0.374000 0.339242
vt -0.374000 0.339330
vt -0.374000 0.339493
vt -0.374000 0.339494
vt -0.374000 0.340555
vt -0.374000 0.340929
vt -0.374000 0.341053
vt -0.374000 0.341396
vt -0.374000 0.342588
vt -0.374000 0.342652
vt -0.374000 0.342740
vt -0.374000 0.342955
vt -0.374000 0.343073
vt 0.193600 -0.924000
vt 0.193600 -0.374000
vt 0.193600 0.329597
vt 0.193600 0.374000
vt 0.246400 -0.924000
vt 0.246400 -0.374000
vt 0.246400 0.331129
vt 0.246400 0.374000
vt 0.374000 -0.924000
vt 0.374000 0.321326
vt 0.374000 0.321334
vt 0.374000 0.321401
vt 0.374000 0.321547
vt 0.374000 0.321568
vt 0.374000 0.321803
vt 0.374000 0.321829
vt 0.374000 0.323198
vt 0.374000 0.323230
vt 0.374000 0.323478
vt 0.374000 0.323514
vt 0.374000 0.323537
vt 0.374000 0.323612
vt 0.374000 0.324074
vt 0.374000 0.324175
vt 0.374000 0.324226
vt 0.374000 0.324403
vt 0.374000 0.325374
vt 0.374000 0.325441
vt 0.374000 0.325832
vt 0.374000 0.327119
vt 0.374000 0.327267
vt 0.374000 0.327410
vt 0.374000 0.327661
vt 0.374000 0.327685
vt 0.374000 0.327910
vt 0.374000 0.328177
vt 0.374000 0.328329
vt 0.374000 0.328926
vt 0.374000 0.329141
vt 0.374000 0.329339
vt 0.374000 0.329597
vt 0.374000 0.330184
vt 0.374000 0.330755
vt 0.374000 0.331129
vt 0.374000 0.331553
vt 0.374000 0.331563
vt 0.374000 0.331867
vt 0.374000 0.331893
vt 0.374000 0.331969
vt 0.374000 0.332847
vt 0.374000 0.333086
vt 0.374000 0.333135
vt 0.374000 0.333209
vt 0.374000 0.333325
vt 0.374000 0.333440
vt 0.374000 0.333721
vt 0.374000 0.333898
vt 0.374000 0.334112
vt 0.374000 0.334160
vt 0.374000 0.335327
vt 0.374000 0.335659
vt 0.374000 0.335853
vt 0.374000 0.336729
vt 0.374000 0.337010
vt 0.374000 0.337108
vt 0.374000 0.337284
vt 0.374000 0.337315
vt 0.374000 0.337883
vt 0.374000 0.338254
vt 0.374000 0.338737
vt 0.374000 0.338750
vt 0.374000 0.338900
vt 0.374000 0.339242
vt 0.374000 0.339330
vt 0.374000 0.339493
vt 0.374000 0.339494
vt 0.374000 0.340555
vt 0.374000 0.340929
vt 0.374000 0.341053
vt 0.374000 0.341396
vt 0.374000 0.342588
vt 0.374000 0.342652
vt 0.374000 0.342740
vt 0.374000 0.342955
vt 0.374000 0.343073
vt 2.173600 -0.924000
vt 2.173600 -0.374000
vt 2.173600 0.331129
vt 2.173600 0.374000
vt 2.226400 -0.924000
vt 2.226400 -0.374000
vt 2.226400 0.321568
vt 2.226400 0.374000
vt 4.153600 -0.924000
vt 4.153600 -0.374000
vt 4.153600 0.321568
vt 4.153600 0.374000
vt 4.206400 -0.924000
vt 4.206400 -0.374000
vt 4.206400 0.327685
vt 4.206400 0.374000
vt 6.133600 -0.924000
vt 6.133600 -0.374000
vt 6.133600 0.327685
vt 6.133600 0.374000
vt 6.186400 -0.924000
vt 6.186400 -0.374000
vt 6.186400 0.333440
vt 6.186400 0.374000
vt 8.113600 -0.924000
vt 8.113600 -0.374000
vt 8.113600 0.333440
vt 8.113600 0.374000
vt 8.166400 -0.924000
vt 8.166400 -0.374000
vt 8.166400 0.321829
vt 8.166400 0.374000
vt 10.093599 -0.924000
vt 10.093599 -0.374000
vt 10.093599 0.321829
vt 10.093599 0.374000
vt 10.146400 -0.924000
vt 10.146400 -0.374000
vt 10.146400 0.321547
vt 10.146400 0.374000
vt 12.073600 -0.924000
vt 12.073600 -0.374000
vt 12.073600 0.321547
vt 12.073600 0.374000
vt 12.126400 -0.924000
vt 12.126400 -0.374000
vt 12.126400 0.337284
vt 12.126400 0.374000
vt 14.053600 -0.924000
vt 14.053600 -0.374000
vt 14.053600 0.337284
vt 14.053600 0.374000
vt 14.106400 -0.924000
vt 14.106400 -0.374000
vt 14.106400 0.324226
vt 14.106400 0.374000
vt 16.033600 -0.924000
vt 16.033600 -0.374000
vt 16.033600 0.324226
vt 16.033600 0.374000
vt 16.086399 -0.924000
vt 16.086399 -0.374000
vt 16.086399 0.343073
vt 16.086399 0.374000
vt 18.013599 -0.924000
vt 18.013599 -0.374000
vt 18.013599 0.343073
vt 18.013599 0.374000
vt 18.066401 -0.924000
vt 18.066401 -0.374000
vt 18.066401 0.328926
vt 18.066401 0.374000
vt 19.993601 -0.924000
vt 19.993601 -0.374000
vt 19.993601 0.328926
vt 19.993601 0.374000
vt 20.046402 -0.924000
vt 20.046402 -0.374000
vt 20.046402 0.325374
vt 20.046402 0.374000
vt 21.973600 -0.924000
vt 21.973600 -0.374000
vt 21.973600 0.325374
vt 21.973600 0.374000
vt 22.026400 -0.924000
vt 22.026400 -0.374000
vt 22.026400 0.333135
vt 22.026400 0.374000
vt 23.953600 -0.924000
vt 23.953600 -0.374000
vt 23.953600 0.333135
vt 23.953600 0.374000
vt 24.006399 -0.924000
vt 24.006399 -0.374000
vt 24.006399 0.327119
vt 24.006399 0.374000
vt 25.933599 -0.924000
vt 25.933599 -0.374000
vt 25.933599 0.327119
vt 25.933599 0.374000
vt 25.986401 -0.924000
vt 25.986401 -0.374000
vt 25.986401 0.330184
vt 25.986401 0.374000
vt 27.913599 -0.924000
vt 27.913599 -0.374000
vt 27.913599 0.330184
vt 27.913599 0.374000
vt 27.966400 -0.924000
vt 27.966400 -0.374000
vt 27.966400 0.331893
vt 27.966400 0.374000
vt 29.893600 -0.924000
vt 29.893600 -0.374000
vt 29.893600 0.331893
vt 29.893600 0.374000
vt 29.946402 -0.924000
vt 29.946402 -0.374000
vt 29.946402 0.325832
vt 29.946402 0.374000
vt 31.873600 -0.924000
vt 31.873600 -0.374000
vt 31.873600 0.325832
vt 31.873600 0.374000
vt 31.926401 -0.924000
vt 31.926401 -0.374000
vt 31.926401 0.334112
vt 31.926401 0.374000
vt 33.853600 -0.924000
vt 33.853600 -0.374000
vt 33.853600 0.334112
vt 33.853600 0.374000
vt 33.906399 -0.924000
vt 33.906399 -0.374000
vt 33.906399 0.327267
vt 33.906399 0.374000
vt 35.833599 -0.924000
vt 35.833599 -0.374000
vt 35.833599 0.327267
vt 35.833599 0.374000
vt 35.886402 -0.924000
vt 35.886402 -0.374000
vt 35.886402 0.331553
vt 35.886402 0.374000
vt 37.813599 -0.924000
vt 37.813599 -0.374000
vt 37.813599 0.331553
vt 37.813599 0.374000
vt 37.866402 -0.924000
vt 37.866402 -0.374000
vt 37.866402 0.338254
vt 37.866402 0.374000
vt 39.793598 -0.924000
vt 39.793598 -0.374000
vt 39.793598 0.338254
vt 39.793598 0.374000
vt 39.846397 -0.924000
vt 39.846397 -0.374000
vt 39.846397 0.341396
vt 39.846397 0.374000
vt 41.773602 -0.924000
vt 41.773602 -0.374000
vt 41.773602 0.341396
vt 41.773602 0.374000
vt 41.826397 -0.924000
vt 41.826397 -0.374000
vt 41.826397 0.340555
vt 41.826397 0.374000
vt 43.753601 -0.924000
vt 43.753601 -0.374000
vt 43.753601 0.340555
vt 43.753601 0.374000
vt 43.806400 -0.924000
vt 43.806400 -0.374000
vt 43.806400 0.341053
vt 43.806400 0.374000
vt 45.733601 -0.924000
vt 45.733601 -0.374000
vt 45.733601 0.341053
vt 45.733601 0.374000
vt 45.786400 -0.924000
vt 45.786400 -0.374000
vt 45.786400 0.339493
vt 45.786400 0.374000
vt 47.713600 -0.924000
vt 47.713600 -0.374000
vt 47.713600 0.339493
vt 47.713600 0.374000
vt 47.766399 -0.924000
vt 47.766399 -0.374000
vt 47.766399 0.340929
vt 47.766399 0.374000
vt 49.693600 -0.924000
vt 49.693600 -0.374000
vt 49.693600 0.340929
vt 49.693600 0.374000
vt 49.746399 -0.924000
vt 49.746399 -0.374000
vt 49.746399 0.338750
vt 49.746399 0.374000
vt 51.673603 -0.924000
vt 51.673603 -0.374000
vt 51.673603 0.338750
vt 51.673603 0.374000
vt 51.726398 -0.924000
vt 51.726398 -0.374000
vt 51.726398 0.333086
vt 51.726398 0.374000
vt 53.653603 -0.924000
vt 53.653603 -0.374000
vt 53.653603 0.333086
vt 53.653603 0.374000
vt 53.706402 -0.924000
vt 53.706402 -0.374000
vt 53.706402 0.329141
vt 53.706402 0.374000
vt 55.633602 -0.924000
vt 55.633602 -0.374000
vt 55.633602 0.329141
vt 55.633602 0.374000
vt 55.686401 -0.924000
vt 55.686401 -0.374000
vt 55.686401 0.331969
vt 55.686401 0.374000
vt 57.613598 -0.924000
vt 57.613598 -0.374000
vt 57.613598 0.331969
vt 57.613598 0.374000
vt 57.666401 -0.924000
vt 57.666401 -0.374000
vt 57.666401 0.321401
vt 57.666401 0.374000
vt 59.593597 -0.924000
vt 59.593597 -0.374000
vt 59.593597 0.321401
vt 59.593597 0.374000
vt 59.646400 -0.924000
vt 59.646400 -0.374000
vt 59.646400 0.321803
vt 59.646400 0.374000
vt 61.573601 -0.924000
vt 61.573601 -0.374000
vt 61.573601 0.321803
vt 61.573601 0.374000
vt 61.626400 -0.924000
vt 61.626400 -0.374000
vt 61.626400 0.335853
vt 61.626400 0.374000
vt 63.553600 -0.924000
vt 63.553600 -0.374000
vt 63.553600 0.335853
vt 63.553600 0.374000
vt 63.606403 -0.924000
vt 63.606403 -0.374000
vt 63.606403 0.334160
vt 63.606403 0.374000
vt 65.533600 -0.924000
vt 65.533600 -0.374000
vt 65.533600 0.334160
vt 65.533600 0.374000
vt 65.586403 -0.924000
vt 65.586403 -0.374000
vt 65.586403 0.331563
vt 65.586403 0.374000
vt 67.513596 -0.924000
vt 67.513596 -0.374000
vt 67.513596 0.331563
vt 67.513596 0.374000
vt 67.566399 -0.924000
vt 67.566399 -0.374000
vt 67.566399 0.327410
vt 67.566399 0.374000
vt 69.493599 -0.924000
vt 69.493599 -0.374000
vt 69.493599 0.327410
vt 69.493599 0.374000
vt 69.546402 -0.924000
vt 69.546402 -0.374000
vt 69.546402 0.323537
vt 69.546402 0.374000
vt 71.473595 -0.924000
vt 71.473595 -0.374000
vt 71.473595 0.323537
vt 71.473595 0.374000
vt 71.526405 -0.924000
vt 71.526405 -0.374000
vt 71.526405 0.337010
vt 71.526405 0.374000
vt 73.453598 -0.924000
vt 73.453598 -0.374000
vt 73.453598 0.337010
vt 73.453598 0.374000
vt 73.506393 -0.924000
vt 73.506393 -0.374000
vt 73.506393 0.333209
vt 73.506393 0.374000
vt 75.433594 -0.924000
vt 75.433594 -0.374000
vt 75.433594 0.333209
vt 75.433594 0.374000
vn -1.000000 0.000000 0.000000
vn 0.000000 -1.000000 0.000000
vn 0.000000 0.000000 -1.000000
vn 0.000000 0.000000 1.000000
vn 0.000000 1.000000 0.000000
vn 1.000000 0.000000 0.000000
usemtl TrimStone
f 1/1/3 3/3/3 7/7/3
f 1/1/3 7/7/3 5/5/3
f 1/4/2 5/8/2 2/2/2
f 1/394/1 2/309/1 3/450/1
f 2/1/4 6/5/4 8/7/4
f 2/1/4 8/7/4 4/3/4
f 2/2/2 5/8/2 6/6/2
f 2/309/1 4/365/1 3/450/1
f 3/4/5 4/2/5 7/8/5
f 4/2/5 8/6/5 7/8/5
f 5/394/6 7/450/6 6/309/6
f 6/309/6 7/450/6 8/365/6
f 9/9/3 11/11/3 15/15/3
f 9/9/3 15/15/3 13/13/3
f 9/12/2 13/16/2 10/10/2
f 9/394/1 10/309/1 11/462/1
f 10/9/4 14/13/4 16/15/4
f 10/9/4 16/15/4 12/11/4
f 10/10/2 13/16/2 14/14/2
f 10/309/1 12/377/1 11/462/1
f 11/12/5 12/10/5 15/16/5
f 12/10/5 16/14/5 15/16/5
f 13/394/6 15/462/6 14/309/6
f 14/309/6 15/462/6 16/377/6
f 17/17/3 19/19/3 23/23/3
f 17/17/3 23/23/3 21/21/3
f 17/20/2 21/24/2 18/18/2
f 17/394/1 18/309/1 19/420/1
f 18/17/4 22/21/4 24/23/4
f 18/17/4 24/23/4 20/19/4
f 18/18/2 21/24/2 22/22/2
f 18/309/1 20/335/1 19/420/1
f 19/20/5 20/18/5 23/24/5
f 20/18/5 24/22/5 23/24/5
f 21/394/6 23/420/6 22/309/6
f 22/309/6 23/420/6 24/335/6
f 25/25/3 27/27/3 31/31/3
f 25/25/3 31/31/3 29/29/3
f 25/28/2 29/32/2 26/26/2
f 25/394/1 26/309/1 27/455/1
f 26/25/4 30/29/4 32/31/4
f 26/25/4 32/31/4 28/27/4
f 26/26/2 29/32/2 30/30/2
f 26/309/1 28/370/1 27/455/1
f 27/28/5 28/26/5 31/32/5
f 28/26/5 32/30/5 31/32/5
f 29/394/6 31/455/6 30/309/6
f 30/309/6 31/455/6 32/370/6
f 33/33/3 35/35/3 39/39/3
f 33/33/3 39/39/3 37/37/3
f 33/36/2 37/40/2 34/34/2
f 33/394/1 34/309/1 35/457/1
f 34/33/4 38/37/4 40/39/4
f 34/33/4 40/39/4 36/35/4
f 34/34/2 37/40/2 38/38/2
f 34/309/1 36/372/1 35/457/1
f 35/36/5 36/34/5 39/40/5
f 36/34/5 40/38/5 39/40/5
f 37/394/6 39/457/6 38/309/6
f 38/309/6 39/457/6 40/372/6
f 41/41/3 43/43/3 47/47/3
f 41/41/3 47/47/3 45/45/3
f 41/44/2 45/48/2 42/42/2
f 41/394/1 42/309/1 43/459/1
f 42/41/4 46/45/4 48/47/4
f 42/41/4 48/47/4 44/43/4
f 42/42/2 45/48/2 46/46/2
f 42/309/1 44/374/1 43/459/1
f 43/44/5 44/42/5 47/48/5
f 44/42/5 48/46/5 47/48/5
f 45/394/6 47/459/6 46/309/6
f 46/309/6 47/459/6 48/374/6
f 49/49/3 51/51/3 55/55/3
f 49/49/3 55/55/3 53/53/3
f 49/52/2 53/56/2 50/50/2
f 49/394/1 50/309/1 51/442/1
f 50/49/4 54/53/4 56/55/4
f 50/49/4 56/55/4 52/51/4
f 50/50/2 53/56/2 54/54/2
f 50/309/1 52/357/1 51/442/1
f 51/52/5 52/50/5 55/56/5
f 52/50/5 56/54/5 55/56/5
f 53/394/6 55/442/6 54/309/6
f 54/309/6 55/442/6 56/357/6
f 57/57/3 59/59/3 63/63/3
f 57/57/3 63/63/3 61/61/3
f 57/60/2 61/64/2 58/58/2
f 57/394/1 58/309/1 59/468/1
f 58/57/4 62/61/4 64/63/4
f 58/57/4 64/63/4 60/59/4
f 58/58/2 61/64/2 62/62/2
f 58/309/1 60/383/1 59/468/1
f 59/60/5 60/58/5 63/64/5
f 60/58/5 64/62/5 63/64/5
f 61/394/6 63/468/6 62/309/6
f 62/309/6 63/468/6 64/383/6
f 65/65/3 67/67/3 71/71/3
f 65/65/3 71/71/3 69/69/3
f 65/68/2 69/72/2 66/66/2
f 65/394/1 66/309/1 67/407/1
f 66/65/4 70/69/4 72/71/4
f 66/65/4 72/71/4 68/67/4
f 66/66/2 69/72/2 70/70/2
f 66/309/1 68/322/1 67/407/1
f 67/68/5 68/66/5 71/72/5
f 68/66/5 72/70/5 71/72/5
f 69/394/6 71/407/6 70/309/6
f 70/309/6 71/407/6 72/322/6
f 73/73/3 75/75/3 79/79/3
f 73/73/3 79/79/3 77/77/3
f 73/76/2 77/80/2 74/74/2
f 73/394/1 74/309/1 75/461/1
f 74/73/4 78/77/4 80/79/4
f 74/73/4 80/79/4 76/75/4
f 74/74/2 77/80/2 78/78/2
f 74/309/1 76/376/1 75/461/1
f 75/76/5 76/74/5 79/80/5
f 76/74/5 80/78/5 79/80/5
f 77/394/6 79/461/6 78/309/6
f 78/309/6 79/461/6 80/376/6
f 81/81/3 83/83/3 87/87/3
f 81/81/3 87/87/3 85/85/3
f 81/84/2 85/88/2 82/82/2
f 81/394/1 82/309/1 83/405/1
f 82/81/4 86/85/4 88/87/4
f 82/81/4 88/87/4 84/83/4
f 82/82/2 85/88/2 86/86/2
f 82/309/1 84/320/1 83/405/1
f 83/84/5 84/82/5 87/88/5
f 84/82/5 88/86/5 87/88/5
f 85/394/6 87/405/6 86/309/6
f 86/309/6 87/405/6 88/320/6
f 89/89/3 91/91/3 95/95/3
f 89/89/3 95/95/3 93/93/3
f 89/92/2 93/96/2 90/90/2
f 89/394/1 90/309/1 91/469/1
f 90/89/4 94/93/4 96/95/4
f 90/89/4 96/95/4 92/91/4
f 90/90/2 93/96/2 94/94/2
f 90/309/1 92/384/1 91/469/1
f 91/92/5 92/90/5 95/96/5
f 92/90/5 96/94/5 95/96/5
f 93/394/6 95/469/6 94/309/6
f 94/309/6 95/469/6 96/384/6
f 97/97/3 99/99/3 103/103/3
f 97/97/3 103/103/3 101/101/3
f 97/100/2 101/104/2 98/98/2
f 97/394/1 98/309/1 99/402/1
f 98/97/4 102/101/4 104/103/4
f 98/97/4 104/103/4 100/99/4
f 98/98/2 101/104/2 102/102/2
f 98/309/1 100/317/1 99/402/1
f 99/100/5 100/98/5 103/104/5
f 100/98/5 104/102/5 103/104/5
f 101/394/6 103/402/6 102/309/6
f 102/309/6 103/402/6 104/317/6
f 105/105/3 107/107/3 111/111/3
f 105/105/3 111/111/3 109/109/3
f 105/108/2 109/112/2 106/106/2
f 105/394/1 106/309/1 107/441/1
f 106/105/4 110/109/4 112/111/4
f 106/105/4 112/111/4 108/107/4
f 106/106/2 109/112/2 110/110/2
f 106/309/1 108/356/1 107/441/1
f 107/108/5 108/106/5 111/112/5
f 108/106/5 112/110/5 111/112/5
f 109/394/6 111/441/6 110/309/6
f 110/309/6 111/441/6 112/356/6
f 113/113/3 115/115/3 119/119/3
f 113/113/3 119/119/3 117/117/3
f 113/116/2 117/120/2 114/114/2
f 113/394/1 114/309/1 115/422/1
f 114/113/4 118/117/4 120/119/4
f 114/113/4 120/119/4 116/115/4
f 114/114/2 117/120/2 118/118/2
f 114/309/1 116/337/1 115/422/1
f 115/116/5 116/114/5 119/120/5
f 116/114/5 120/118/5 119/120/5
f 117/394/6 119/422/6 118/309/6
f 118/309/6 119/422/6 120/337/6
f 121/121/3 123/123/3 127/127/3
f 121/121/3 127/127/3 125/125/3
f 121/124/2 125/128/2 122/122/2
f 121/394/1 122/309/1 123/439/1
f 122/121/4 126/125/4 128/127/4
f 122/121/4 128/127/4 124/123/4
f 122/122/2 125/128/2 126/126/2
f 122/309/1 124/354/1 123/439/1
f 123/124/5 124/122/5 127/128/5
f 124/122/5 128/126/5 127/128/5
f 125/394/6 127/439/6 126/309/6
f 126/309/6 127/439/6 128/354/6
f 129/129/3 131/131/3 135/135/3
f 129/129/3 135/135/3 133/133/3
f 129/132/2 133/136/2 130/130/2
f 129/394/1 130/309/1 131/452/1
f 130/129/4 134/133/4 136/135/4
f 130/129/4 136/135/4 132/131/4
f 130/130/2 133/136/2 134/134/2
f 130/309/1 132/367/1 131/452/1
f 131/132/5 132/130/5 135/136/5
f 132/130/5 136/134/5 135/136/5
f 133/394/6 135/452/6 134/309/6
f 134/309/6 135/452/6 136/367/6
f 137/137/3 139/139/3 143/143/3
f 137/137/3 143/143/3 141/141/3
f 137/140/2 141/144/2 138/138/2
f 137/394/1 138/309/1 139/435/1
f 138/137/4 142/141/4 144/143/4
f 138/137/4 144/143/4 140/139/4
f 138/138/2 141/144/2 142/142/2
f 138/309/1 140/350/1 139/435/1
f 139/140/5 140/138/5 143/144/5
f 140/138/5 144/142/5 143/144/5
f 141/394/6 143/435/6 142/309/6
f 142/309/6 143/435/6 144/350/6
f 145/145/3 147/147/3 151/151/3
f 145/145/3 151/151/3 149/149/3
f 145/148/2 149/152/2 146/146/2
f 145/394/1 146/309/1 147/395/1
f 146/145/4 150/149/4 152/151/4
f 146/145/4 152/151/4 148/147/4
f 146/146/2 149/152/2 150/150/2
f 146/309/1 148/310/1 147/395/1
f 147/148/5 148/146/5 151/152/5
f 148/146/5 152/150/5 151/152/5
f 149/394/6 151/395/6 150/309/6
f 150/309/6 151/395/6 152/310/6
f 153/153/3 155/155/3 159/159/3
f 153/153/3 159/159/3 157/157/3
f 153/156/2 157/160/2 154/154/2
f 153/394/1 154/309/1 155/432/1
f 154/153/4 158/157/4 160/159/4
f 154/153/4 160/159/4 156/155/4
f 154/154/2 157/160/2 158/158/2
f 154/309/1 156/347/1 155/432/1
f 155/156/5 156/154/5 159/160/5
f 156/154/5 160/158/5 159/160/5
f 157/394/6 159/432/6 158/309/6
f 158/309/6 159/432/6 160/347/6
f 161/161/3 163/163/3 167/167/3
f 161/161/3 167/167/3 165/165/3
f 161/164/2 165/168/2 162/162/2
f 161/394/1 162/309/1 163/413/1
f 162/161/4 166/165/4 168/167/4
f 162/161/4 168/167/4 164/163/4
f 162/162/2 165/168/2 166/166/2
f 162/309/1 164/328/1 163/413/1
f 163/164/5 164/162/5 167/168/5
f 164/162/5 168/166/5 167/168/5
f 165/394/6 167/413/6 166/309/6
f 166/309/6 167/413/6 168/328/6
f 169/169/3 171/171/3 175/175/3
f 169/169/3 175/175/3 173/173/3
f 169/172/2 173/176/2 170/170/2
f 169/394/1 170/309/1 171/418/1
f 170/169/4 174/173/4 176/175/4
f 170/169/4 176/175/4 172/171/4
f 170/170/2 173/176/2 174/174/2
f 170/309/1 172/333/1 171/418/1
f 171/172/5 172/170/5 175/176/5
f 172/170/5 176/174/5 175/176/5
f 173/394/6 175/418/6 174/309/6
f 174/309/6 175/418/6 176/333/6
f 177/177/3 179/179/3 183/183/3
f 177/177/3 183/183/3 181/181/3
f 177/180/2 181/184/2 178/178/2
f 177/394/1 178/309/1 179/453/1
f 178/177/4 182/181/4 184/183/4
f 178/177/4 184/183/4 180/179/4
f 178/178/2 181/184/2 182/182/2
f 178/309/1 180/368/1 179/453/1
f 179/180/5 180/178/5 183/184/5
f 180/178/5 184/182/5 183/184/5
f 181/394/6 183/453/6 182/309/6
f 182/309/6 183/453/6 184/368/6
f 185/185/3 187/187/3 191/191/3
f 185/185/3 191/191/3 189/189/3
f 185/188/2 189/192/2 186/186/2
f 185/394/1 186/309/1 187/396/1
f 186/185/4 190/189/4 192/191/4
f 186/185/4 192/191/4 188/187/4
f 186/186/2 189/192/2 190/190/2
f 186/309/1 188/311/1 187/396/1
f 187/188/5 188/186/5 191/192/5
f 188/186/5 192/190/5 191/192/5
f 189/394/6 191/396/6 190/309/6
f 190/309/6 191/396/6 192/311/6
f 193/193/3 195/195/3 199/199/3
f 193/193/3 199/199/3 197/197/3
f 193/196/2 197/200/2 194/194/2
f 193/394/1 194/309/1 195/404/1
f 194/193/4 198/197/4 200/199/4
f 194/193/4 200/199/4 196/195/4
f 194/194/2 197/200/2 198/198/2
f 194/309/1 196/319/1 195/404/1
f 195/196/5 196/194/5 199/200/5
f 196/194/5 200/198/5 199/200/5
f 197/394/6 199/404/6 198/309/6
f 198/309/6 199/404/6 200/319/6
f 201/201/3 203/203/3 207/207/3
f 201/201/3 207/207/3 205/205/3
f 201/204/2 205/208/2 202/202/2
f 201/394/1 202/309/1 203/411/1
f 202/201/4 206/205/4 208/207/4
f 202/201/4 208/207/4 204/203/4
f 202/202/2 205/208/2 206/206/2
f 202/309/1 204/326/1 203/411/1
f 203/204/5 204/202/5 207/208/5
f 204/202/5 208/206/5 207/208/5
f 205/394/6 207/411/6 206/309/6
f 206/309/6 207/411/6 208/326/6
f 209/209/3 211/211/3 215/215/3
f 209/209/3 215/215/3 213/213/3
f 209/212/2 213/216/2 210/210/2
f 209/394/1 210/309/1 211/425/1
f 210/209/4 214/213/4 216/215/4
f 210/209/4 216/215/4 212/211/4
f 210/210/2 213/216/2 214/214/2
f 210/309/1 212/340/1 211/425/1
f 211/212/5 212/210/5 215/216/5
f 212/210/5 216/214/5 215/216/5
f 213/394/6 215/425/6 214/309/6
f 214/309/6 215/425/6 216/340/6
f 217/217/3 219/219/3 223/223/3
f 217/217/3 223/223/3 221/221/3
f 217/220/2 221/224/2 218/218/2
f 217/394/1 218/309/1 219/467/1
f 218/217/4 222/221/4 224/223/4
f 218/217/4 224/223/4 220/219/4
f 218/218/2 221/224/2 222/222/2
f 218/309/1 220/382/1 219/467/1
f 219/220/5 220/218/5 223/224/5
f 220/218/5 224/222/5 223/224/5
f 221/394/6 223/467/6 222/309/6
f 222/309/6 223/467/6 224/382/6
f 225/225/3 227/227/3 231/231/3
f 225/225/3 231/231/3 229/229/3
f 225/228/2 229/232/2 226/226/2
f 225/394/1 226/309/1 227/421/1
f 226/225/4 230/229/4 232/231/4
f 226/225/4 232/231/4 228/227/4
f 226/226/2 229/232/2 230/230/2
f 226/309/1 228/336/1 227/421/1
f 227/228/5 228/226/5 231/232/5
f 228/226/5 232/230/5 231/232/5
f 229/394/6 231/421/6 230/309/6
f 230/309/6 231/421/6 232/336/6
f 233/233/3 235/235/3 239/239/3
f 233/233/3 239/239/3 237/237/3
f 233/236/2 237/240/2 234/234/2
f 233/394/1 234/309/1 235/466/1
f 234/233/4 238/237/4 240/239/4
f 234/233/4 240/239/4 236/235/4
f 234/234/2 237/240/2 238/238/2
f 234/309/1 236/381/1 235/466/1
f 235/236/5 236/234/5 239/240/5
f 236/234/5 240/238/5 239/240/5
f 237/394/6 239/466/6 238/309/6
f 238/309/6 239/466/6 240/381/6
f 241/241/3 243/243/3 247/247/3
f 241/241/3 247/247/3 245/245/3
f 241/244/2 245/248/2 242/242/2
f 241/394/1 242/309/1 243/409/1
f 242/241/4 246/245/4 248/247/4
f 242/241/4 248/247/4 244/243/4
f 242/242/2 245/248/2 246/246/2
f 242/309/1 244/324/1 243/409/1
f 243/244/5 244/242/5 247/248/5
f 244/242/5 248/246/5 247/248/5
f 245/394/6 247/409/6 246/309/6
f 246/309/6 247/409/6 248/324/6
f 249/249/3 251/251/3 255/255/3
f 249/249/3 255/255/3 253/253/3
f 249/252/2 253/256/2 250/250/2
f 249/394/1 250/309/1 251/448/1
f 250/249/4 254/253/4 256/255/4
f 250/249/4 256/255/4 252/251/4
f 250/250/2 253/256/2 254/254/2
f 250/309/1 252/363/1 251/448/1
f 251/252/5 252/250/5 255/256/5
f 252/250/5 256/254/5 255/256/5
f 253/394/6 255/448/6 254/309/6
f 254/309/6 255/448/6 256/363/6
f 257/257/3 259/259/3 263/263/3
f 257/257/3 263/263/3 261/261/3
f 257/260/2 261/264/2 258/258/2
f 257/394/1 258/309/1 259/446/1
f 258/257/4 262/261/4 264/263/4
f 258/257/4 264/263/4 260/259/4
f 258/258/2 261/264/2 262/262/2
f 258/309/1 260/361/1 259/446/1
f 259/260/5 260/258/5 263/264/5
f 260/258/5 264/262/5 263/264/5
f 261/394/6 263/446/6 262/309/6
f 262/309/6 263/446/6 264/361/6
f 265/265/3 267/267/3 271/271/3
f 265/265/3 271/271/3 269/269/3
f 265/268/2 269/272/2 266/266/2
f 265/394/1 266/309/1 267/428/1
f 266/265/4 270/269/4 272/271/4
f 266/265/4 272/271/4 268/267/4
f 266/266/2 269/272/2 270/270/2
f 266/309/1 268/343/1 267/428/1
f 267/268/5 268/266/5 271/272/5
f 268/266/5 272/270/5 271/272/5
f 269/394/6 271/428/6 270/309/6
f 270/309/6 271/428/6 272/343/6
f 273/273/3 275/275/3 279/279/3
f 273/273/3 279/279/3 277/277/3
f 273/276/2 277/280/2 274/274/2
f 273/394/1 274/309/1 275/445/1
f 274/273/4 278/277/4 280/279/4
f 274/273/4 280/279/4 276/275/4
f 274/274/2 277/280/2 278/278/2
f 274/309/1 276/360/1 275/445/1
f 275/276/5 276/274/5 279/280/5
f 276/274/5 280/278/5 279/280/5
f 277/394/6 279/445/6 278/309/6
f 278/309/6 279/445/6 280/360/6
f 281/281/3 283/283/3 287/287/3
f 281/281/3 287/287/3 285/285/3
f 281/284/2 285/288/2 282/282/2
f 281/394/1 282/309/1 283/408/1
f 282/281/4 286/285/4 288/287/4
f 282/281/4 288/287/4 284/283/4
f 282/282/2 285/288/2 286/286/2
f 282/309/1 284/323/1 283/408/1
f 283/284/5 284/282/5 287/288/5
f 284/282/5 288/286/5 287/288/5
f 285/394/6 287/408/6 286/309/6
f 286/309/6 287/408/6 288/323/6
f 289/289/3 291/291/3 295/295/3
f 289/289/3 295/295/3 293/293/3
f 289/292/2 293/296/2 290/290/2
f 289/394/1 290/309/1 291/403/1
f 290/289/4 294/293/4 296/295/4
f 290/289/4 296/295/4 292/291/4
f 290/290/2 293/296/2 294/294/2
f 290/309/1 292/318/1 291/403/1
f 291/292/5 292/290/5 295/296/5
f 292/290/5 296/294/5 295/296/5
f 293/394/6 295/403/6 294/309/6
f 294/309/6 295/403/6 296/318/6
f 297/297/3 299/299/3 303/303/3
f 297/297/3 303/303/3 301/301/3
f 297/300/2 301/304/2 298/298/2
f 297/394/1 298/309/1 299/458/1
f 298/297/4 302/301/4 304/303/4
f 298/297/4 304/303/4 300/299/4
f 298/298/2 301/304/2 302/302/2
f 298/309/1 300/373/1 299/458/1
f 299/300/5 300/298/5 303/304/5
f 300/298/5 304/302/5 303/304/5
f 301/394/6 303/458/6 302/309/6
f 302/309/6 303/458/6 304/373/6
f 305/305/3 307/307/3 311/388/3
f 305/305/3 311/388/3 309/386/3
f 305/308/2 309/389/2 306/306/2
f 305/394/1 306/309/1 307/426/1
f 306/305/4 310/386/4 312/388/4
f 306/305/4 312/388/4 308/307/4
f 306/306/2 309/389/2 310/387/2
f 306/309/1 308/341/1 307/426/1
f 307/308/5 308/306/5 311/389/5
f 308/306/5 312/387/5 311/389/5
f 309/394/6 311/426/6 310/309/6
f 310/309/6 311/426/6 312/341/6
f 313/390/3 315/392/3 319/473/3
f 313/390/3 319/473/3 317/471/3
f 313/393/2 317/474/2 314/391/2
f 313/394/1 314/309/1 315/429/1
f 314/309/1 316/344/1 315/429/1
f 314/390/4 318/471/4 320/473/4
f 314/390/4 320/473/4 316/392/4
f 314/391/2 317/474/2 318/472/2
f 315/393/5 316/391/5 319/474/5
f 316/391/5 320/472/5 319/474/5
f 317/394/6 319/429/6 318/309/6
f 318/309/6 319/429/6 320/344/6
f 321/394/1 322/309/1 323/399/1
f 321/475/3 323/477/3 327/481/3
f 321/475/3 327/481/3 325/479/3
f 321/478/2 325/482/2 322/476/2
f 322/309/1 324/314/1 323/399/1
f 322/475/4 326/479/4 328/481/4
f 322/475/4 328/481/4 324/477/4
f 322/476/2 325/482/2 326/480/2
f 323/478/5 324/476/5 327/482/5
f 324/476/5 328/480/5 327/482/5
f 325/394/6 327/399/6 326/309/6
f 326/309/6 327/399/6 328/314/6
f 329/394/1 330/309/1 331/419/1
f 329/483/3 331/485/3 335/489/3
f 329/483/3 335/489/3 333/487/3
f 329/486/2 333/490/2 330/484/2
f 330/309/1 332/334/1 331/419/1
f 330/483/4 334/487/4 336/489/4
f 330/483/4 336/489/4 332/485/4
f 330/484/2 333/490/2 334/488/2
f 331/486/5 332/484/5 335/490/5
f 332/484/5 336/488/5 335/490/5
f 333/394/6 335/419/6 334/309/6
f 334/309/6 335/419/6 336/334/6
f 337/394/1 338/309/1 339/440/1
f 337/491/3 339/493/3 343/497/3
f 337/491/3 343/497/3 341/495/3
f 337/494/2 341/498/2 338/492/2
f 338/309/1 340/355/1 339/440/1
f 338/491/4 342/495/4 344/497/4
f 338/491/4 344/497/4 340/493/4
f 338/492/2 341/498/2 342/496/2
f 339/494/5 340/492/5 343/498/5
f 340/492/5 344/496/5 343/498/5
f 341/394/6 343/440/6 342/309/6
f 342/309/6 343/440/6 344/355/6
f 345/394/1 346/309/1 347/401/1
f 345/499/3 347/501/3 351/505/3
f 345/499/3 351/505/3 349/503/3
f 345/502/2 349/506/2 346/500/2
f 346/309/1 348/316/1 347/401/1
f 346/499/4 350/503/4 352/505/4
f 346/499/4 352/505/4 348/501/4
f 346/500/2 349/506/2 350/504/2
f 347/502/5 348/500/5 351/506/5
f 348/500/5 352/504/5 351/506/5
f 349/394/6 351/401/6 350/309/6
f 350/309/6 351/401/6 352/316/6
f 353/394/1 354/309/1 355/398/1
f 353/507/3 355/509/3 359/513/3
f 353/507/3 359/513/3 357/511/3
f 353/510/2 357/514/2 354/508/2
f 354/309/1 356/313/1 355/398/1
f 354/507/4 358/511/4 360/513/4
f 354/507/4 360/513/4 356/509/4
f 354/508/2 357/514/2 358/512/2
f 355/510/5 356/508/5 359/514/5
f 356/508/5 360/512/5 359/514/5
f 357/394/6 359/398/6 358/309/6
f 358/309/6 359/398/6 360/313/6
f 361/394/1 362/309/1 363/451/1
f 361/515/3 363/517/3 367/521/3
f 361/515/3 367/521/3 365/519/3
f 361/518/2 365/522/2 362/516/2
f 362/309/1 364/366/1 363/451/1
f 362/515/4 366/519/4 368/521/4
f 362/515/4 368/521/4 364/517/4
f 362/516/2 365/522/2 366/520/2
f 363/518/5 364/516/5 367/522/5
f 364/516/5 368/520/5 367/522/5
f 365/394/6 367/451/6 366/309/6
f 366/309/6 367/451/6 368/366/6
f 369/394/1 370/309/1 371/410/1
f 369/523/3 371/525/3 375/529/3
f 369/523/3 375/529/3 373/527/3
f 369/526/2 373/530/2 370/524/2
f 370/309/1 372/325/1 371/410/1
f 370/523/4 374/527/4 376/529/4
f 370/523/4 376/529/4 372/525/4
f 370/524/2 373/530/2 374/528/2
f 371/526/5 372/524/5 375/530/5
f 372/524/5 376/528/5 375/530/5
f 373/394/6 375/410/6 374/309/6
f 374/309/6 375/410/6 376/325/6
f 377/394/1 378/309/1 379/470/1
f 377/531/3 379/533/3 383/537/3
f 377/531/3 383/537/3 381/535/3
f 377/534/2 381/538/2 378/532/2
f 378/309/1 380/385/1 379/470/1
f 378/531/4 382/535/4 384/537/4
f 378/531/4 384/537/4 380/533/4
f 378/532/2 381/538/2 382/536/2
f 379/534/5 380/532/5 383/538/5
f 380/532/5 384/536/5 383/538/5
f 381/394/6 383/470/6 382/309/6
f 382/309/6 383/470/6 384/385/6
f 385/394/1 386/309/1 387/423/1
f 385/539/3 387/541/3 391/545/3
f 385/539/3 391/545/3 389/543/3
f 385/542/2 389/546/2 386/540/2
f 386/309/1 388/338/1 387/423/1
f 386/539/4 390/543/4 392/545/4
f 386/539/4 392/545/4 388/541/4
f 386/540/2 389/546/2 390/544/2
f 387/542/5 388/540/5 391/546/5
f 388/540/5 392/544/5 391/546/5
f 389/394/6 391/423/6 390/309/6
f 390/309/6 391/423/6 392/338/6
f 393/394/1 394/309/1 395/412/1
f 393/547/3 395/549/3 399/553/3
f 393/547/3 399/553/3 397/551/3
f 393/550/2 397/554/2 394/548/2
f 394/309/1 396/327/1 395/412/1
f 394/547/4 398/551/4 400/553/4
f 394/547/4 400/553/4 396/549/4
f 394/548/2 397/554/2 398/552/2
f 395/550/5 396/548/5 399/554/5
f 396/548/5 400/552/5 399/554/5
f 397/394/6 399/412/6 398/309/6
f 398/309/6 399/412/6 400/327/6
f 401/394/1 402/309/1 403/437/1
f 401/555/3 403/557/3 407/561/3
f 401/555/3 407/561/3 405/559/3
f 401/558/2 405/562/2 402/556/2
f 402/309/1 404/352/1 403/437/1
f 402/555/4 406/559/4 408/561/4
f 402/555/4 408/561/4 404/557/4
f 402/556/2 405/562/2 406/560/2
f 403/558/5 404/556/5 407/562/5
f 404/556/5 408/560/5 407/562/5
f 405/394/6 407/437/6 406/309/6
f 406/309/6 407/437/6 408/352/6
f 409/394/1 410/309/1 411/415/1
f 409/563/3 411/565/3 415/569/3
f 409/563/3 415/569/3 413/567/3
f 409/566/2 413/570/2 410/564/2
f 410/309/1 412/330/1 411/415/1
f 410/563/4 414/567/4 416/569/4
f 410/563/4 416/569/4 412/565/4
f 410/564/2 413/570/2 414/568/2
f 411/566/5 412/564/5 415/570/5
f 412/564/5 416/568/5 415/570/5
f 413/394/6 415/415/6 414/309/6
f 414/309/6 415/415/6 416/330/6
f 417/394/1 418/309/1 419/427/1
f 417/571/3 419/573/3 423/577/3
f 417/571/3 423/577/3 421/575/3
f 417/574/2 421/578/2 418/572/2
f 418/309/1 420/342/1 419/427/1
f 418/571/4 422/575/4 424/577/4
f 418/571/4 424/577/4 420/573/4
f 418/572/2 421/578/2 422/576/2
f 419/574/5 420/572/5 423/578/5
f 420/572/5 424/576/5 423/578/5
f 421/394/6 423/427/6 422/309/6
f 422/309/6 423/427/6 424/342/6
f 425/394/1 426/309/1 427/433/1
f 425/579/3 427/581/3 431/585/3
f 425/579/3 431/585/3 429/583/3
f 425/582/2 429/586/2 426/580/2
f 426/309/1 428/348/1 427/433/1
f 426/579/4 430/583/4 432/585/4
f 426/579/4 432/585/4 428/581/4
f 426/580/2 429/586/2 430/584/2
f 427/582/5 428/580/5 431/586/5
f 428/580/5 432/584/5 431/586/5
f 429/394/6 431/433/6 430/309/6
f 430/309/6 431/433/6 432/348/6
f 433/394/1 434/309/1 435/414/1
f 433/587/3 435/589/3 439/593/3
f 433/587/3 439/593/3 437/591/3
f 433/590/2 437/594/2 434/588/2
f 434/309/1 436/329/1 435/414/1
f 434/587/4 438/591/4 440/593/4
f 434/587/4 440/593/4 436/589/4
f 434/588/2 437/594/2 438/592/2
f 435/590/5 436/588/5 439/594/5
f 436/588/5 440/592/5 439/594/5
f 437/394/6 439/414/6 438/309/6
f 438/309/6 439/414/6 440/329/6
f 441/394/1 442/309/1 443/443/1
f 441/595/3 443/597/3 447/601/3
f 441/595/3 447/601/3 445/599/3
f 441/598/2 445/602/2 442/596/2
f 442/309/1 444/358/1 443/443/1
f 442/595/4 446/599/4 448/601/4
f 442/595/4 448/601/4 444/597/4
f 442/596/2 445/602/2 446/600/2
f 443/598/5 444/596/5 447/602/5
f 444/596/5 448/600/5 447/602/5
f 445/394/6 447/443/6 446/309/6
f 446/309/6 447/443/6 448/358/6
f 449/394/1 450/309/1 451/416/1
f 449/603/3 451/605/3 455/609/3
f 449/603/3 455/609/3 453/607/3
f 449/606/2 453/610/2 450/604/2
f 450/309/1 452/331/1 451/416/1
f 450/603/4 454/607/4 456/609/4
f 450/603/4 456/609/4 452/605/4
f 450/604/2 453/610/2 454/608/2
f 451/606/5 452/604/5 455/610/5
f 452/604/5 456/608/5 455/610/5
f 453/394/6 455/416/6 454/309/6
f 454/309/6 455/416/6 456/331/6
f 457/394/1 458/309/1 459/430/1
f 457/611/3 459/613/3 463/617/3
f 457/611/3 463/617/3 461/615/3
f 457/614/2 461/618/2 458/612/2
f 458/309/1 460/345/1 459/430/1
f 458/611/4 462/615/4 464/617/4
f 458/611/4 464/617/4 460/613/4
f 458/612/2 461/618/2 462/616/2
f 459/614/5 460/612/5 463/618/5
f 460/612/5 464/616/5 463/618/5
f 461/394/6 463/430/6 462/309/6
f 462/309/6 463/430/6 464/345/6
f 465/394/1 466/309/1 467/454/1
f 465/619/3 467/621/3 471/625/3
f 465/619/3 471/625/3 469/623/3
f 465/622/2 469/626/2 466/620/2
f 466/309/1 468/369/1 467/454/1
f 466/619/4 470/623/4 472/625/4
f 466/619/4 472/625/4 468/621/4
f 466/620/2 469/626/2 470/624/2
f 467/622/5 468/620/5 471/626/5
f 468/620/5 472/624/5 471/626/5
f 469/394/6 471/454/6 470/309/6
f 470/309/6 471/454/6 472/369/6
f 473/394/1 474/309/1 475/465/1
f 473/627/3 475/629/3 479/633/3
f 473/627/3 479/633/3 477/631/3
f 473/630/2 477/634/2 474/628/2
f 474/309/1 476/380/1 475/465/1
f 474/627/4 478/631/4 480/633/4
f 474/627/4 480/633/4 476/629/4
f 474/628/2 477/634/2 478/632/2
f 475/630/5 476/628/5 479/634/5
f 476/628/5 480/632/5 479/634/5
f 477/394/6 479/465/6 478/309/6
f 478/309/6 479/465/6 480/380/6
f 481/394/1 482/309/1 483/462/1
f 481/635/3 483/637/3 487/641/3
f 481/635/3 487/641/3 485/639/3
f 481/638/2 485/642/2 482/636/2
f 482/309/1 484/377/1 483/462/1
f 482/635/4 486/639/4 488/641/4
f 482/635/4 488/641/4 484/637/4
f 482/636/2 485/642/2 486/640/2
f 483/638/5 484/636/5 487/642/5
f 484/636/5 488/640/5 487/642/5
f 485/394/6 487/462/6 486/309/6
f 486/309/6 487/462/6 488/377/6
f 489/394/1 490/309/1 491/464/1
f 489/643/3 491/645/3 495/649/3
f 489/643/3 495/649/3 493/647/3
f 489/646/2 493/650/2 490/644/2
f 490/309/1 492/379/1 491/464/1
f 490/643/4 494/647/4 496/649/4
f 490/643/4 496/649/4 492/645/4
f 490/644/2 493/650/2 494/648/2
f 491/646/5 492/644/5 495/650/5
f 492/644/5 496/648/5 495/650/5
f 493/394/6 495/464/6 494/309/6
f 494/309/6 495/464/6 496/379/6
f 497/394/1 498/309/1 499/460/1
f 497/651/3 499/653/3 503/657/3
f 497/651/3 503/657/3 501/655/3
f 497/654/2 501/658/2 498/652/2
f 498/309/1 500/375/1 499/460/1
f 498/651/4 502/655/4 504/657/4
f 498/651/4 504/657/4 500/653/4
f 498/652/2 501/658/2 502/656/2
f 499/654/5 500/652/5 503/658/5
f 500/652/5 504/656/5 503/658/5
f 501/394/6 503/460/6 502/309/6
f 502/309/6 503/460/6 504/375/6
f 505/394/1 506/309/1 507/463/1
f 505/659/3 507/661/3 511/665/3
f 505/659/3 511/665/3 509/663/3
f 505/662/2 509/666/2 506/660/2
f 506/309/1 508/378/1 507/463/1
f 506/659/4 510/663/4 512/665/4
f 506/659/4 512/665/4 508/661/4
f 506/660/2 509/666/2 510/664/2
f 507/662/5 508/660/5 511/666/5
f 508/660/5 512/664/5 511/666/5
f 509/394/6 511/463/6 510/309/6
f 510/309/6 511/463/6 512/378/6
f 513/394/1 514/309/1 515/456/1
f 513/667/3 515/669/3 519/673/3
f 513/667/3 519/673/3 517/671/3
f 513/670/2 517/674/2 514/668/2
f 514/309/1 516/371/1 515/456/1
f 514/667/4 518/671/4 520/673/4
f 514/667/4 520/673/4 516/669/4
f 514/668/2 517/674/2 518/672/2
f 515/670/5 516/668/5 519/674/5
f 516/668/5 520/672/5 519/674/5
f 517/394/6 519/456/6 518/309/6
f 518/309/6 519/456/6 520/371/6
f 521/394/1 522/309/1 523/436/1
f 521/675/3 523/677/3 527/681/3
f 521/675/3 527/681/3 525/679/3
f 521/678/2 525/682/2 522/676/2
f 522/309/1 524/351/1 523/436/1
f 522/675/4 526/679/4 528/681/4
f 522/675/4 528/681/4 524/677/4
f 522/676/2 525/682/2 526/680/2
f 523/678/5 524/676/5 527/682/5
f 524/676/5 528/680/5 527/682/5
f 525/394/6 527/436/6 526/309/6
f 526/309/6 527/436/6 528/351/6
f 529/394/1 530/309/1 531/424/1
f 529/683/3 531/685/3 535/689/3
f 529/683/3 535/689/3 533/687/3
f 529/686/2 533/690/2 530/684/2
f 530/309/1 532/339/1 531/424/1
f 530/683/4 534/687/4 536/689/4
f 530/683/4 536/689/4 532/685/4
f 530/684/2 533/690/2 534/688/2
f 531/686/5 532/684/5 535/690/5
f 532/684/5 536/688/5 535/690/5
f 533/394/6 535/424/6 534/309/6
f 534/309/6 535/424/6 536/339/6
f 537/394/1 538/309/1 539/434/1
f 537/691/3 539/693/3 543/697/3
f 537/691/3 543/697/3 541/695/3
f 537/694/2 541/698/2 538/692/2
f 538/309/1 540/349/1 539/434/1
f 538/691/4 542/695/4 544/697/4
f 538/691/4 544/697/4 540/693/4
f 538/692/2 541/698/2 542/696/2
f 539/694/5 540/692/5 543/698/5
f 540/692/5 544/696/5 543/698/5
f 541/394/6 543/434/6 542/309/6
f 542/309/6 543/434/6 544/349/6
f 545/394/1 546/309/1 547/397/1
f 545/699/3 547/701/3 551/705/3
f 545/699/3 551/705/3 549/703/3
f 545/702/2 549/706/2 546/700/2
f 546/309/1 548/312/1 547/397/1
f 546/699/4 550/703/4 552/705/4
f 546/699/4 552/705/4 548/701/4
f 546/700/2 549/706/2 550/704/2
f 547/702/5 548/700/5 551/706/5
f 548/700/5 552/704/5 551/706/5
f 549/394/6 551/397/6 550/309/6
f 550/309/6 551/397/6 552/312/6
f 553/394/1 554/309/1 555/400/1
f 553/707/3 555/709/3 559/713/3
f 553/707/3 559/713/3 557/711/3
f 553/710/2 557/714/2 554/708/2
f 554/309/1 556/315/1 555/400/1
f 554/707/4 558/711/4 560/713/4
f 554/707/4 560/713/4 556/709/4
f 554/708/2 557/714/2 558/712/2
f 555/710/5 556/708/5 559/714/5
f 556/708/5 560/712/5 559/714/5
f 557/394/6 559/400/6 558/309/6
f 558/309/6 559/400/6 560/315/6
f 561/394/1 562/309/1 563/447/1
f 561/715/3 563/717/3 567/721/3
f 561/715/3 567/721/3 565/719/3
f 561/718/2 565/722/2 562/716/2
f 562/309/1 564/362/1 563/447/1
f 562/715/4 566/719/4 568/721/4
f 562/715/4 568/721/4 564/717/4
f 562/716/2 565/722/2 566/720/2
f 563/718/5 564/716/5 567/722/5
f 564/716/5 568/720/5 567/722/5
f 565/394/6 567/447/6 566/309/6
f 566/309/6 567/447/6 568/362/6
f 569/394/1 570/309/1 571/444/1
f 569/723/3 571/725/3 575/729/3
f 569/723/3 575/729/3 573/727/3
f 569/726/2 573/730/2 570/724/2
f 570/309/1 572/359/1 571/444/1
f 570/723/4 574/727/4 576/729/4
f 570/723/4 576/729/4 572/725/4
f 570/724/2 573/730/2 574/728/2
f 571/726/5 572/724/5 575/730/5
f 572/724/5 576/728/5 575/730/5
f 573/394/6 575/444/6 574/309/6
f 574/309/6 575/444/6 576/359/6
f 577/394/1 578/309/1 579/431/1
f 577/731/3 579/733/3 583/737/3
f 577/731/3 583/737/3 581/735/3
f 577/734/2 581/738/2 578/732/2
f 578/309/1 580/346/1 579/431/1
f 578/731/4 582/735/4 584/737/4
f 578/731/4 584/737/4 580/733/4
f 578/732/2 581/738/2 582/736/2
f 579/734/5 580/732/5 583/738/5
f 580/732/5 584/736/5 583/738/5
f 581/394/6 583/431/6 582/309/6
f 582/309/6 583/431/6 584/346/6
f 585/394/1 586/309/1 587/417/1
f 585/739/3 587/741/3 591/745/3
f 585/739/3 591/745/3 589/743/3
f 585/742/2 589/746/2 586/740/2
f 586/309/1 588/332/1 587/417/1
f 586/739/4 590/743/4 592/745/4
f 586/739/4 592/745/4 588/741/4
f 586/740/2 589/746/2 590/744/2
f 587/742/5 588/740/5 591/746/5
f 588/740/5 592/744/5 591/746/5
f 589/394/6 591/417/6 590/309/6
f 590/309/6 591/417/6 592/332/6
f 593/394/1 594/309/1 595/406/1
f 593/747/3 595/749/3 599/753/3
f 593/747/3 599/753/3 597/751/3
f 593/750/2 597/754/2 594/748/2
f 594/309/1 596/321/1 595/406/1
f 594/747/4 598/751/4 600/753/4
f 594/747/4 600/753/4 596/749/4
f 594/748/2 597/754/2 598/752/2
f 595/750/5 596/748/5 599/754/5
f 596/748/5 600/752/5 599/754/5
f 597/394/6 599/406/6 598/309/6
f 598/309/6 599/406/6 600/321/6
f 601/394/1 602/309/1 603/449/1
f 601/755/3 603/757/3 607/761/3
f 601/755/3 607/761/3 605/759/3
f 601/758/2 605/762/2 602/756/2
f 602/309/1 604/364/1 603/449/1
f 602/755/4 606/759/4 608/761/4
f 602/755/4 608/761/4 604/757/4
f 602/756/2 605/762/2 606/760/2
f 603/758/5 604/756/5 607/762/5
f 604/756/5 608/760/5 607/762/5
f 605/394/6 607/449/6 606/309/6
f 606/309/6 607/449/6 608/364/6
f 609/394/1 610/309/1 611/438/1
f 609/763/3 611/765/3 615/769/3
f 609/763/3 615/769/3 613/767/3
f 609/766/2 613/770/2 610/764/2
f 610/309/1 612/353/1 611/438/1
f 610/763/4 614/767/4 616/769/4
f 610/763/4 616/769/4 612/765/4
f 610/764/2 613/770/2 614/768/2
f 611/766/5 612/764/5 615/770/5
f 612/764/5 616/768/5 615/770/5
f 613/394/6 615/438/6 614/309/6
f 614/309/6 615/438/6 616/353/6
