# exported by ae3d_export.py v3
# object: Street_BlockL1_Coping
mtllib Street_BlockL1_Coping.mtl
v -1.317281 0.015000 -0.565000
v -1.317281 0.015000 0.245000
v -1.317281 0.105000 -0.565000
v -1.317281 0.105000 0.245000
v -1.312888 0.004393 -0.565000
v -1.312888 0.004393 0.245000
v -1.312888 0.015000 -0.575607
v -1.312888 0.015000 0.255607
v -1.312888 0.105000 -0.575607
v -1.312888 0.105000 0.255607
v -1.312888 0.115607 -0.565000
v -1.312888 0.115607 0.245000
v -1.310942 0.006340 -0.573660
v -1.310942 0.006340 0.253660
v -1.310942 0.113660 -0.573660
v -1.310942 0.113660 0.253660
v -1.302281 0.000000 -0.565000
v -1.302281 0.000000 0.245000
v -1.302281 0.004393 -0.575607
v -1.302281 0.004393 0.255607
v -1.302281 0.015000 -0.580000
v -1.302281 0.015000 0.260000
v -1.302281 0.105000 -0.580000
v -1.302281 0.105000 0.260000
v -1.302281 0.115607 -0.575607
v -1.302281 0.115607 0.255607
v -1.302281 0.120000 -0.565000
v -1.302281 0.120000 0.245000
v 1.302281 0.000000 -0.565000
v 1.302281 0.000000 0.245000
v 1.302281 0.004393 -0.575607
v 1.302281 0.004393 0.255607
v 1.302281 0.015000 -0.580000
v 1.302281 0.015000 0.260000
v 1.302281 0.105000 -0.580000
v 1.302281 0.105000 0.260000
v 1.302281 0.115607 -0.575607
v 1.302281 0.115607 0.255607
v 1.302281 0.120000 -0.565000
v 1.302281 0.120000 0.245000
v 1.310942 0.006340 -0.573660
v 1.310942 0.006340 0.253660
v 1.310942 0.113660 -0.573660
v 1.310942 0.113660 0.253660
v 1.312888 0.004393 -0.565000
v 1.312888 0.004393 0.245000
v 1.312888 0.015000 -0.575607
v 1.312888 0.015000 0.255607
v 1.312888 0.105000 -0.575607
v 1.312888 0.105000 0.255607
v 1.312888 0.115607 -0.565000
v 1.312888 0.115607 0.245000
v 1.317281 0.015000 -0.565000
v 1.317281 0.015000 0.245000
v 1.317281 0.105000 -0.565000
v 1.317281 0.105000 0.245000
vt -2.888354 -0.539000
vt -2.888354 0.033000
vt -2.888354 0.231000
vt -2.888354 1.243000
vt -2.884072 -0.558053
vt -2.884072 0.013947
vt -2.884072 0.250053
vt -2.884072 1.262053
vt -2.865019 -0.562335
vt -2.865019 -0.539000
vt -2.865019 0.009665
vt -2.865019 0.033000
vt -2.865019 0.231000
vt -2.865019 0.254335
vt -2.865019 1.243000
vt -2.865019 1.266335
vt -0.562335 0.033000
vt -0.562335 0.231000
vt -0.558053 0.013947
vt -0.558053 0.250053
vt -0.539000 0.009665
vt -0.539000 0.033000
vt -0.539000 0.231000
vt -0.539000 0.254335
vt 1.243000 0.009665
vt 1.243000 0.033000
vt 1.243000 0.231000
vt 1.243000 0.254335
vt 1.262053 0.013947
vt 1.262053 0.250053
vt 1.266335 0.033000
vt 1.266335 0.231000
vt 2.865019 -0.562335
vt 2.865019 -0.539000
vt 2.865019 0.009665
vt 2.865019 0.033000
vt 2.865019 0.231000
vt 2.865019 0.254335
vt 2.865019 1.243000
vt 2.865019 1.266335
vt 2.884072 -0.558053
vt 2.884072 0.013947
vt 2.884072 0.250053
vt 2.884072 1.262053
vt 2.888354 -0.539000
vt 2.888354 0.033000
vt 2.888354 0.231000
vt 2.888354 1.243000
vn -1.000000 0.000000 0.000000
vn -0.923881 -0.382679 0.000000
vn -0.923881 0.000000 -0.382679
vn -0.923881 0.000000 0.382680
vn -0.923881 0.382679 0.000000
vn -0.888074 -0.325058 -0.325058
vn -0.888073 -0.325058 0.325058
vn -0.888071 0.325057 -0.325066
vn -0.888071 0.325058 0.325064
vn -0.382683 0.923880 0.000000
vn -0.382682 -0.923880 0.000000
vn -0.382680 0.000000 0.923881
vn -0.382678 0.000000 -0.923882
vn -0.325058 -0.888074 0.325058
vn -0.325058 0.325061 0.888072
vn -0.325058 0.888073 0.325058
vn -0.325057 -0.888074 -0.325058
vn -0.325057 0.888074 -0.325058
vn -0.325056 -0.325060 0.888073
vn -0.325056 0.325061 -0.888073
vn -0.325055 -0.325058 -0.888074
vn 0.000000 -1.000000 0.000000
vn 0.000000 -0.923880 -0.382682
vn 0.000000 -0.923880 0.382683
vn 0.000000 -0.382682 0.923880
vn 0.000000 -0.382677 -0.923882
vn 0.000000 0.000000 -1.000000
vn 0.000000 0.000000 1.000000
vn 0.000000 0.382677 -0.923882
vn 0.000000 0.382682 0.923880
vn 0.000000 0.923880 -0.382683
vn 0.000000 0.923880 0.382683
vn 0.000000 1.000000 0.000000
vn 0.325054 -0.325059 -0.888075
vn 0.325056 0.325058 -0.888074
vn 0.325057 -0.888074 -0.325058
vn 0.325058 -0.888074 0.325058
vn 0.325058 -0.325061 0.888072
vn 0.325058 0.888073 0.325058
vn 0.325058 0.888074 -0.325058
vn 0.325059 0.325062 0.888072
vn 0.382678 0.000000 -0.923882
vn 0.382680 0.000000 0.923881
vn 0.382682 -0.923880 0.000000
vn 0.382683 0.923880 0.000000
vn 0.888071 0.325058 0.325066
vn 0.888072 0.325057 -0.325064
vn 0.888074 -0.325058 -0.325058
vn 0.888074 -0.325058 0.325058
vn 0.923881 -0.382679 0.000000
vn 0.923881 0.000000 -0.382679
vn 0.923881 0.000000 0.382680
vn 0.923881 0.382679 0.000000
vn 1.000000 0.000000 0.000000
usemtl TrimStone
f 1/26/1 2/22/1 4/23/1
f 1/26/1 4/23/1 3/27/1
f 1/26/2 5/25/2 6/21/2
f 1/26/2 6/21/2 2/22/2
f 1/26/3 3/27/3 9/32/3
f 1/26/3 9/32/3 7/31/3
f 1/26/6 7/31/6 13/29/6
f 1/26/6 13/29/6 5/25/6
f 2/22/4 8/17/4 10/18/4
f 2/22/4 10/18/4 4/23/4
f 2/22/7 6/21/7 14/19/7
f 2/22/7 14/19/7 8/17/7
f 3/27/5 4/23/5 12/24/5
f 3/27/5 12/24/5 11/28/5
f 3/27/8 11/28/8 15/30/8
f 3/27/8 15/30/8 9/32/8
f 4/23/9 10/18/9 16/20/9
f 4/23/9 16/20/9 12/24/9
f 5/4/11 17/15/11 6/1/11
f 5/4/17 13/8/17 17/15/17
f 6/1/11 17/15/11 18/10/11
f 6/1/14 18/10/14 14/5/14
f 7/2/13 9/3/13 21/12/13
f 7/2/21 21/12/21 13/6/21
f 8/2/12 22/12/12 10/3/12
f 8/2/19 14/6/19 22/12/19
f 9/3/13 23/13/13 21/12/13
f 9/3/20 15/7/20 23/13/20
f 10/3/12 22/12/12 24/13/12
f 10/3/15 24/13/15 16/7/15
f 11/4/10 12/1/10 27/15/10
f 11/4/18 27/15/18 15/8/18
f 12/1/10 28/10/10 27/15/10
f 12/1/16 16/5/16 28/10/16
f 13/6/21 21/12/21 19/11/21
f 13/8/17 19/16/17 17/15/17
f 14/5/14 18/10/14 20/9/14
f 14/6/19 20/11/19 22/12/19
f 15/7/20 25/14/20 23/13/20
f 15/8/18 27/15/18 25/16/18
f 16/5/16 26/9/16 28/10/16
f 16/7/15 24/13/15 26/14/15
f 17/15/22 29/39/22 18/10/22
f 17/15/23 19/16/23 29/39/23
f 18/10/22 29/39/22 30/34/22
f 18/10/24 30/34/24 32/33/24
f 18/10/24 32/33/24 20/9/24
f 19/11/26 21/12/26 31/35/26
f 19/16/23 31/40/23 29/39/23
f 20/11/25 32/35/25 34/36/25
f 20/11/25 34/36/25 22/12/25
f 21/12/26 33/36/26 31/35/26
f 21/12/27 23/13/27 33/36/27
f 22/12/28 34/36/28 36/37/28
f 22/12/28 36/37/28 24/13/28
f 23/13/27 35/37/27 33/36/27
f 23/13/29 25/14/29 35/37/29
f 24/13/30 36/37/30 38/38/30
f 24/13/30 38/38/30 26/14/30
f 25/14/29 37/38/29 35/37/29
f 25/16/31 27/15/31 37/40/31
f 26/9/32 38/33/32 40/34/32
f 26/9/32 40/34/32 28/10/32
f 27/15/31 39/39/31 37/40/31
f 27/15/33 28/10/33 39/39/33
f 28/10/33 40/34/33 39/39/33
f 29/39/36 31/40/36 41/44/36
f 29/39/36 41/44/36 45/48/36
f 29/39/44 45/48/44 46/45/44
f 29/39/44 46/45/44 30/34/44
f 30/34/37 42/41/37 32/33/37
f 30/34/37 46/45/37 42/41/37
f 31/35/34 33/36/34 41/42/34
f 32/35/38 42/42/38 34/36/38
f 33/36/34 47/46/34 41/42/34
f 33/36/42 35/37/42 49/47/42
f 33/36/42 49/47/42 47/46/42
f 34/36/38 42/42/38 48/46/38
f 34/36/43 48/46/43 50/47/43
f 34/36/43 50/47/43 36/37/43
f 35/37/35 37/38/35 43/43/35
f 35/37/35 43/43/35 49/47/35
f 36/37/41 44/43/41 38/38/41
f 36/37/41 50/47/41 44/43/41
f 37/40/40 39/39/40 43/44/40
f 38/33/39 44/41/39 40/34/39
f 39/39/40 51/48/40 43/44/40
f 39/39/45 40/34/45 52/45/45
f 39/39/45 52/45/45 51/48/45
f 40/34/39 44/41/39 52/45/39
f 41/29/48 47/31/48 53/26/48
f 41/29/48 53/26/48 45/25/48
f 42/19/49 46/21/49 54/22/49
f 42/19/49 54/22/49 48/17/49
f 43/30/47 51/28/47 55/27/47
f 43/30/47 55/27/47 49/32/47
f 44/20/46 50/18/46 56/23/46
f 44/20/46 56/23/46 52/24/46
f 45/25/50 53/26/50 46/21/50
f 46/21/50 53/26/50 54/22/50
f 47/31/51 49/32/51 53/26/51
f 48/17/52 54/22/52 50/18/52
f 49/32/51 55/27/51 53/26/51
f 50/18/52 54/22/52 56/23/52
f 51/28/53 52/24/53 55/27/53
f 52/24/53 56/23/53 55/27/53
f 53/26/54 55/27/54 54/22/54
f 54/22/54 55/27/54 56/23/54
