# exported by ae3d_export.py v2
# object: Street_BlockL3
mtllib Street_BlockL3.mtl
v -5.600000 -0.490000 -7.500000
v -5.600000 -0.490000 0.000000
v -5.600000 10.000000 -7.500000
v -5.600000 10.000000 0.000000
v 5.600000 -0.490000 -7.500000
v 5.600000 -0.490000 0.000000
v 5.600000 10.000000 -7.500000
v 5.600000 10.000000 0.000000
vt -1.960000 -0.171500
vt -1.960000 0.000000
vt -1.960000 2.625000
vt -1.960000 3.500000
vt 0.000000 -0.171500
vt 0.000000 3.500000
vt 1.960000 -0.171500
vt 1.960000 0.000000
vt 1.960000 2.625000
vt 1.960000 3.500000
vt 2.625000 -0.171500
vt 2.625000 3.500000
vn -1.000000 0.000000 0.000000
vn 0.000000 -1.000000 0.000000
vn 0.000000 0.000000 -1.000000
vn 0.000000 0.000000 1.000000
vn 0.000000 1.000000 0.000000
vn 1.000000 0.000000 0.000000
usemtl WallConcrete
f 1/1/3 3/4/3 5/7/3
f 1/3/2 5/9/2 2/2/2
f 1/11/1 2/5/1 4/6/1
f 1/11/1 4/6/1 3/12/1
f 2/1/4 6/7/4 8/10/4
f 2/1/4 8/10/4 4/4/4
f 2/2/2 5/9/2 6/8/2
f 3/3/5 4/2/5 7/9/5
f 3/4/3 7/10/3 5/7/3
f 4/2/5 8/8/5 7/9/5
f 5/11/6 7/12/6 6/5/6
f 6/5/6 7/12/6 8/6/6
