# exported by ae3d_export.py v3
# object: Street_Lamp0
mtllib Street_Lamp0.mtl
v -0.075000 0.015000 -0.060000
v -0.075000 0.015000 0.060000
v -0.075000 4.385000 -0.060000
v -0.075000 4.385000 0.060000
v -0.070607 0.004393 -0.060000
v -0.070607 0.004393 0.060000
v -0.070607 0.015000 -0.070607
v -0.070607 0.015000 0.070607
v -0.070607 4.385000 -0.070607
v -0.070607 4.385000 0.070607
v -0.070607 4.395607 -0.060000
v -0.070607 4.395607 0.060000
v -0.068660 0.006340 -0.068660
v -0.068660 0.006340 0.068660
v -0.068660 4.393661 -0.068660
v -0.068660 4.393661 0.068660
v -0.060000 0.000000 -0.060000
v -0.060000 0.000000 0.060000
v -0.060000 0.004393 -0.070607
v -0.060000 0.004393 0.070607
v -0.060000 0.015000 -0.075000
v -0.060000 0.015000 0.075000
v -0.060000 4.385000 -0.075000
v -0.060000 4.385000 0.075000
v -0.060000 4.395607 -0.070607
v -0.060000 4.395607 0.070607
v -0.060000 4.400000 -0.060000
v -0.060000 4.400000 0.060000
v 0.060000 0.000000 -0.060000
v 0.060000 0.000000 0.060000
v 0.060000 0.004393 -0.070607
v 0.060000 0.004393 0.070607
v 0.060000 0.015000 -0.075000
v 0.060000 0.015000 0.075000
v 0.060000 4.385000 -0.075000
v 0.060000 4.385000 0.075000
v 0.060000 4.395607 -0.070607
v 0.060000 4.395607 0.070607
v 0.060000 4.400000 -0.060000
v 0.060000 4.400000 0.060000
v 0.068660 0.006340 -0.068660
v 0.068660 0.006340 0.068660
v 0.068660 4.393661 -0.068660
v 0.068660 4.393661 0.068660
v 0.070607 0.004393 -0.060000
v 0.070607 0.004393 0.060000
v 0.070607 0.015000 -0.070607
v 0.070607 0.015000 0.070607
v 0.070607 4.385000 -0.070607
v 0.070607 4.385000 0.070607
v 0.070607 4.395607 -0.060000
v 0.070607 4.395607 0.060000
v 0.075000 0.015000 -0.060000
v 0.075000 0.015000 0.060000
v 0.075000 4.385000 -0.060000
v 0.075000 4.385000 0.060000
vt -0.084728 -0.072000
vt -0.084728 0.018000
vt -0.084728 0.072000
vt -0.084728 5.262000
vt -0.082392 -0.082392
vt -0.082392 0.007608
vt -0.082392 0.082392
vt -0.082392 5.272393
vt -0.072000 -0.084728
vt -0.072000 -0.072000
vt -0.072000 0.005272
vt -0.072000 0.018000
vt -0.072000 0.072000
vt -0.072000 0.084728
vt -0.072000 5.262000
vt -0.072000 5.274728
vt 0.072000 -0.084728
vt 0.072000 -0.072000
vt 0.072000 0.005272
vt 0.072000 0.018000
vt 0.072000 0.072000
vt 0.072000 0.084728
vt 0.072000 5.262000
vt 0.072000 5.274728
vt 0.082392 -0.082392
vt 0.082392 0.007608
vt 0.082392 0.082392
vt 0.082392 5.272393
vt 0.084728 -0.072000
vt 0.084728 0.018000
vt 0.084728 0.072000
vt 0.084728 5.262000
vn -1.000000 0.000000 0.000000
vn -0.923880 -0.382683 0.000000
vn -0.923880 0.000000 -0.382683
vn -0.923880 0.000000 0.382683
vn -0.923874 0.382697 0.000000
vn -0.888074 -0.325058 -0.325057
vn -0.888074 -0.325058 0.325057
vn -0.888074 0.325063 0.325053
vn -0.888072 0.325065 -0.325055
vn -0.382717 0.923865 0.000000
vn -0.382683 -0.923880 0.000000
vn -0.382683 0.000000 -0.923880
vn -0.382683 0.000000 0.923880
vn -0.325083 0.888069 -0.325046
vn -0.325075 0.888071 0.325047
vn -0.325057 -0.888074 -0.325057
vn -0.325057 -0.888074 0.325057
vn -0.325057 -0.325057 -0.888074
vn -0.325057 -0.325057 0.888074
vn -0.325053 0.325061 -0.888074
vn -0.325053 0.325061 0.888074
vn 0.000000 -1.000000 0.000000
vn 0.000000 -0.923880 -0.382683
vn 0.000000 -0.923880 0.382683
vn 0.000000 -0.382683 -0.923880
vn 0.000000 -0.382683 0.923880
vn 0.000000 0.000000 -1.000000
vn 0.000000 0.000000 1.000000
vn 0.000000 0.382693 -0.923876
vn 0.000000 0.382693 0.923876
vn 0.000000 0.923874 -0.382697
vn 0.000000 0.923874 0.382697
vn 0.000000 1.000000 0.000000
vn 0.325053 0.325061 -0.888074
vn 0.325053 0.325061 0.888074
vn 0.325057 -0.888074 -0.325057
vn 0.325057 -0.888074 0.325057
vn 0.325057 -0.325057 -0.888074
vn 0.325057 -0.325057 0.888074
vn 0.325075 0.888071 -0.325047
vn 0.325083 0.888069 0.325046
vn 0.382683 -0.923880 0.000000
vn 0.382683 0.000000 -0.923880
vn 0.382683 0.000000 0.923880
vn 0.382717 0.923865 0.000000
vn 0.888072 0.325065 0.325055
vn 0.888074 -0.325058 -0.325057
vn 0.888074 -0.325058 0.325057
vn 0.888074 0.325063 -0.325053
vn 0.923874 0.382697 0.000000
vn 0.923880 -0.382683 0.000000
vn 0.923880 0.000000 -0.382683
vn 0.923880 0.000000 0.382683
vn 1.000000 0.000000 0.000000
usemtl LampMetal
f 1/20/1 2/12/1 4/15/1
f 1/20/1 4/15/1 3/23/1
f 1/20/2 5/19/2 6/11/2
f 1/20/2 6/11/2 2/12/2
f 1/20/3 3/23/3 9/32/3
f 1/20/3 9/32/3 7/30/3
f 1/20/6 7/30/6 13/26/6
f 1/20/6 13/26/6 5/19/6
f 2/12/4 8/2/4 4/15/4
f 2/12/7 6/11/7 14/6/7
f 2/12/7 14/6/7 8/2/7
f 3/23/5 4/15/5 12/16/5
f 3/23/5 12/16/5 11/24/5
f 3/23/9 11/24/9 15/28/9
f 3/23/9 15/28/9 9/32/9
f 4/15/4 8/2/4 10/4/4
f 4/15/8 10/4/8 16/8/8
f 4/15/8 16/8/8 12/16/8
f 5/3/11 17/13/11 6/1/11
f 5/3/16 13/7/16 17/13/16
f 6/1/11 17/13/11 18/10/11
f 6/1/17 18/10/17 14/5/17
f 7/2/12 9/4/12 23/15/12
f 7/2/12 23/15/12 21/12/12
f 7/2/18 21/12/18 13/6/18
f 8/2/13 22/12/13 10/4/13
f 8/2/19 14/6/19 22/12/19
f 9/4/20 15/8/20 23/15/20
f 10/4/13 22/12/13 24/15/13
f 10/4/21 24/15/21 16/8/21
f 11/3/10 12/1/10 28/10/10
f 11/3/10 28/10/10 27/13/10
f 11/3/14 27/13/14 15/7/14
f 12/1/15 16/5/15 28/10/15
f 13/6/18 21/12/18 19/11/18
f 13/7/16 19/14/16 17/13/16
f 14/5/17 18/10/17 20/9/17
f 14/6/19 20/11/19 22/12/19
f 15/7/14 27/13/14 25/14/14
f 15/8/20 25/16/20 23/15/20
f 16/5/15 26/9/15 28/10/15
f 16/8/21 24/15/21 26/16/21
f 17/13/22 29/21/22 18/10/22
f 17/13/23 19/14/23 29/21/23
f 18/10/22 29/21/22 30/18/22
f 18/10/24 30/18/24 32/17/24
f 18/10/24 32/17/24 20/9/24
f 19/11/25 21/12/25 33/20/25
f 19/11/25 33/20/25 31/19/25
f 19/14/23 31/22/23 29/21/23
f 20/11/26 32/19/26 22/12/26
f 21/12/27 23/15/27 33/20/27
f 22/12/26 32/19/26 34/20/26
f 22/12/28 34/20/28 36/23/28
f 22/12/28 36/23/28 24/15/28
f 23/15/27 35/23/27 33/20/27
f 23/15/29 25/16/29 35/23/29
f 24/15/30 36/23/30 38/24/30
f 24/15/30 38/24/30 26/16/30
f 25/14/31 27/13/31 37/22/31
f 25/16/29 37/24/29 35/23/29
f 26/9/32 38/17/32 40/18/32
f 26/9/32 40/18/32 28/10/32
f 27/13/31 39/21/31 37/22/31
f 27/13/33 28/10/33 39/21/33
f 28/10/33 40/18/33 39/21/33
f 29/21/36 31/22/36 41/27/36
f 29/21/36 41/27/36 45/31/36
f 29/21/42 45/31/42 30/18/42
f 30/18/37 42/25/37 32/17/37
f 30/18/37 46/29/37 42/25/37
f 30/18/42 45/31/42 46/29/42
f 31/19/38 33/20/38 41/26/38
f 32/19/39 42/26/39 34/20/39
f 33/20/38 47/30/38 41/26/38
f 33/20/43 35/23/43 49/32/43
f 33/20/43 49/32/43 47/30/43
f 34/20/39 42/26/39 48/30/39
f 34/20/44 48/30/44 36/23/44
f 35/23/34 37/24/34 43/28/34
f 35/23/34 43/28/34 49/32/34
f 36/23/35 44/28/35 38/24/35
f 36/23/35 50/32/35 44/28/35
f 36/23/44 48/30/44 50/32/44
f 37/22/40 39/21/40 43/27/40
f 38/17/41 44/25/41 40/18/41
f 39/21/40 51/31/40 43/27/40
f 39/21/45 40/18/45 52/29/45
f 39/21/45 52/29/45 51/31/45
f 40/18/41 44/25/41 52/29/41
f 41/26/47 47/30/47 53/20/47
f 41/26/47 53/20/47 45/19/47
f 42/6/48 46/11/48 54/12/48
f 42/6/48 54/12/48 48/2/48
f 43/28/49 51/24/49 55/23/49
f 43/28/49 55/23/49 49/32/49
f 44/8/46 50/4/46 56/15/46
f 44/8/46 56/15/46 52/16/46
f 45/19/51 53/20/51 54/12/51
f 45/19/51 54/12/51 46/11/51
f 47/30/52 49/32/52 55/23/52
f 47/30/52 55/23/52 53/20/52
f 48/2/53 54/12/53 50/4/53
f 50/4/53 54/12/53 56/15/53
f 51/24/50 52/16/50 56/15/50
f 51/24/50 56/15/50 55/23/50
f 53/20/54 55/23/54 54/12/54
f 54/12/54 55/23/54 56/15/54
