# exported by ae3d_export.py v3
# object: Street_BlockL5_Glass
mtllib Street_BlockL5_Glass.mtl
v -4.735000 3.590000 -0.225000
v -4.735000 5.060000 -0.225000
v -4.735000 6.740000 -0.225000
v -4.735000 8.210000 -0.225000
v -3.665000 3.590000 -0.225000
v -3.665000 5.060000 -0.225000
v -3.665000 6.740000 -0.225000
v -3.665000 8.210000 -0.225000
v -1.935000 0.440000 -0.225000
v -1.935000 1.910000 -0.225000
v -0.865000 0.440000 -0.225000
v -0.865000 1.910000 -0.225000
v 0.765000 -0.490000 -0.225000
v 0.765000 1.860000 -0.225000
v 0.865000 3.590000 -0.225000
v 0.865000 5.060000 -0.225000
v 0.865000 6.740000 -0.225000
v 0.865000 8.210000 -0.225000
v 1.935000 3.590000 -0.225000
v 1.935000 5.060000 -0.225000
v 1.935000 6.740000 -0.225000
v 1.935000 8.210000 -0.225000
v 2.035000 -0.490000 -0.225000
v 2.035000 1.860000 -0.225000
v 3.665000 0.440000 -0.225000
v 3.665000 1.910000 -0.225000
v 3.665000 3.590000 -0.225000
v 3.665000 5.060000 -0.225000
v 4.735000 0.440000 -0.225000
v 4.735000 1.910000 -0.225000
v 4.735000 3.590000 -0.225000
v 4.735000 5.060000 -0.225000
vt 0.000000 0.000000
vt 0.000000 1.000000
vt 1.000000 0.000000
vt 1.000000 1.000000
vn 0.000000 0.000000 -1.000000
vn 0.000000 0.000000 1.000000
usemtl WindowGlass
f 1/1/1 2/2/1 6/4/1
f 1/1/1 6/4/1 5/3/1
f 3/1/1 4/2/1 8/4/1
f 3/1/1 8/4/1 7/3/1
f 9/1/2 11/3/2 12/4/2
f 9/1/2 12/4/2 10/2/2
f 13/1/2 23/3/2 24/4/2
f 13/1/2 24/4/2 14/2/2
f 15/1/2 19/3/2 20/4/2
f 15/1/2 20/4/2 16/2/2
f 17/1/1 18/2/1 22/4/1
f 17/1/1 22/4/1 21/3/1
f 25/1/1 26/2/1 30/4/1
f 25/1/1 30/4/1 29/3/1
f 27/1/1 28/2/1 32/4/1
f 27/1/1 32/4/1 31/3/1
