# exported by ae3d_export.py v3
# object: Street_BlockR0_Lit
mtllib Street_BlockR0_Lit.mtl
v -5.735000 0.440000 0.225000
v -5.735000 1.910000 0.225000
v -5.735000 6.740000 0.225000
v -5.735000 8.210000 0.225000
v -4.665000 0.440000 0.225000
v -4.665000 1.910000 0.225000
v -4.665000 6.740000 0.225000
v -4.665000 8.210000 0.225000
v -3.135000 3.590000 0.225000
v -3.135000 5.060000 0.225000
v -2.065000 3.590000 0.225000
v -2.065000 5.060000 0.225000
v 4.665000 0.440000 0.225000
v 4.665000 1.910000 0.225000
v 5.735000 0.440000 0.225000
v 5.735000 1.910000 0.225000
vt 0.000000 0.000000
vt 0.000000 1.000000
vt 1.000000 0.000000
vt 1.000000 1.000000
vn 0.000000 0.000000 -1.000000
vn 0.000000 0.000000 1.000000
usemtl WindowLit
f 1/1/2 5/3/2 6/4/2
f 1/1/2 6/4/2 2/2/2
f 3/1/2 7/3/2 8/4/2
f 3/1/2 8/4/2 4/2/2
f 9/1/1 10/2/1 12/4/1
f 9/1/1 12/4/1 11/3/1
f 13/1/2 15/3/2 16/4/2
f 13/1/2 16/4/2 14/2/2
