# exported by ae3d_export.py v3
# object: Street_BlockR2_Coping
mtllib Street_BlockR2_Coping.mtl
v -1.148284 0.015000 0.015000
v -1.148284 0.015000 0.305000
v -1.148284 0.105000 0.015000
v -1.148284 0.105000 0.305000
v -1.143891 0.004393 0.015000
v -1.143891 0.004393 0.305000
v -1.143891 0.015000 0.004393
v -1.143891 0.015000 0.315607
v -1.143891 0.105000 0.004393
v -1.143891 0.105000 0.315607
v -1.143891 0.115607 0.015000
v -1.143891 0.115607 0.305000
v -1.141945 0.006340 0.006340
v -1.141945 0.006340 0.313660
v -1.141945 0.113660 0.006340
v -1.141945 0.113660 0.313660
v -1.133284 0.000000 0.015000
v -1.133284 0.000000 0.305000
v -1.133284 0.004393 0.004393
v -1.133284 0.004393 0.315607
v -1.133284 0.015000 0.000000
v -1.133284 0.015000 0.320000
v -1.133284 0.105000 0.000000
v -1.133284 0.105000 0.320000
v -1.133284 0.115607 0.004393
v -1.133284 0.115607 0.315607
v -1.133284 0.120000 0.015000
v -1.133284 0.120000 0.305000
v 1.133284 0.000000 0.015000
v 1.133284 0.000000 0.305000
v 1.133284 0.004393 0.004393
v 1.133284 0.004393 0.315607
v 1.133284 0.015000 0.000000
v 1.133284 0.015000 0.320000
v 1.133284 0.105000 0.000000
v 1.133284 0.105000 0.320000
v 1.133284 0.115607 0.004393
v 1.133284 0.115607 0.315607
v 1.133284 0.120000 0.015000
v 1.133284 0.120000 0.305000
v 1.141945 0.006340 0.006340
v 1.141945 0.006340 0.313660
v 1.141945 0.113660 0.006340
v 1.141945 0.113660 0.313660
v 1.143891 0.004393 0.015000
v 1.143891 0.004393 0.305000
v 1.143891 0.015000 0.004393
v 1.143891 0.015000 0.315607
v 1.143891 0.105000 0.004393
v 1.143891 0.105000 0.315607
v 1.143891 0.115607 0.015000
v 1.143891 0.115607 0.305000
v 1.148284 0.015000 0.015000
v 1.148284 0.015000 0.305000
v 1.148284 0.105000 0.015000
v 1.148284 0.105000 0.305000
vt -2.516560 -0.671000
vt -2.516560 -0.033000
vt -2.516560 0.033000
vt -2.516560 0.231000
vt -2.512278 -0.690053
vt -2.512278 -0.013947
vt -2.512278 0.013947
vt -2.512278 0.250053
vt -2.493226 -0.694335
vt -2.493226 -0.671000
vt -2.493226 -0.033000
vt -2.493226 -0.009665
vt -2.493226 0.009665
vt -2.493226 0.033000
vt -2.493226 0.231000
vt -2.493226 0.254335
vt -0.694335 0.033000
vt -0.694335 0.231000
vt -0.690053 0.013947
vt -0.690053 0.250053
vt -0.671000 0.009665
vt -0.671000 0.033000
vt -0.671000 0.231000
vt -0.671000 0.254335
vt -0.033000 0.009665
vt -0.033000 0.033000
vt -0.033000 0.231000
vt -0.033000 0.254335
vt -0.013947 0.013947
vt -0.013947 0.250053
vt -0.009665 0.033000
vt -0.009665 0.231000
vt 2.493226 -0.694335
vt 2.493226 -0.671000
vt 2.493226 -0.033000
vt 2.493226 -0.009665
vt 2.493226 0.009665
vt 2.493226 0.033000
vt 2.493226 0.231000
vt 2.493226 0.254335
vt 2.512278 -0.690053
vt 2.512278 -0.013947
vt 2.512278 0.013947
vt 2.512278 0.250053
vt 2.516560 -0.671000
vt 2.516560 -0.033000
vt 2.516560 0.033000
vt 2.516560 0.231000
vn -1.000000 0.000000 0.000000
vn -0.923883 0.000000 -0.382675
vn -0.923883 0.000000 0.382674
vn -0.923881 -0.382679 0.000000
vn -0.923881 0.382679 0.000000
vn -0.888073 -0.325060 0.325058
vn -0.888073 -0.325058 -0.325060
vn -0.888073 0.325058 -0.325058
vn -0.888073 0.325059 0.325058
vn -0.382682 -0.923880 0.000000
vn -0.382682 0.000000 -0.923880
vn -0.382682 0.000000 0.923880
vn -0.382682 0.923880 0.000000
vn -0.325059 -0.888073 0.325059
vn -0.325058 -0.888073 -0.325059
vn -0.325058 0.888073 0.325059
vn -0.325057 -0.325058 0.888074
vn -0.325057 0.888073 -0.325059
vn -0.325056 0.325057 0.888074
vn -0.325055 -0.325059 -0.888074
vn -0.325055 0.325059 -0.888074
vn 0.000000 -1.000000 0.000000
vn 0.000000 -0.923879 -0.382684
vn 0.000000 -0.923879 0.382684
vn 0.000000 -0.382685 -0.923879
vn 0.000000 -0.382684 0.923879
vn 0.000000 0.000000 -1.000000
vn 0.000000 0.000000 1.000000
vn 0.000000 0.382683 0.923880
vn 0.000000 0.382684 -0.923879
vn 0.000000 0.923880 -0.382684
vn 0.000000 0.923880 0.382683
vn 0.000000 1.000000 0.000000
vn 0.325055 0.325059 -0.888074
vn 0.325056 -0.325060 -0.888074
vn 0.325056 0.325057 0.888074
vn 0.325057 -0.325057 0.888074
vn 0.325058 -0.888073 -0.325059
vn 0.325058 -0.888073 0.325059
vn 0.325058 0.888073 -0.325059
vn 0.325058 0.888073 0.325059
vn 0.382682 -0.923880 0.000000
vn 0.382682 0.000000 -0.923880
vn 0.382682 0.000000 0.923880
vn 0.382682 0.923880 0.000000
vn 0.888072 -0.325059 0.325060
vn 0.888073 -0.325058 -0.325058
vn 0.888073 0.325058 -0.325058
vn 0.888073 0.325059 0.325058
vn 0.923881 -0.382679 0.000000
vn 0.923881 0.382679 0.000000
vn 0.923883 0.000000 -0.382675
vn 0.923883 0.000000 0.382674
vn 1.000000 0.000000 0.000000
usemtl TrimStone
f 1/26/49 5/25/49 13/29/49
f 1/26/49 13/29/49 7/31/49
f 1/26/51 2/22/51 6/21/51
f 1/26/51 6/21/51 5/25/51
f 1/26/53 7/31/53 9/32/53
f 1/26/53 9/32/53 3/27/53
f 1/26/54 3/27/54 2/22/54
f 2/22/48 8/17/48 14/19/48
f 2/22/48 14/19/48 6/21/48
f 2/22/52 4/23/52 10/18/52
f 2/22/52 10/18/52 8/17/52
f 2/22/54 3/27/54 4/23/54
f 3/27/46 9/32/46 15/30/46
f 3/27/46 15/30/46 11/28/46
f 3/27/50 11/28/50 4/23/50
f 4/23/47 12/24/47 16/20/47
f 4/23/47 16/20/47 10/18/47
f 4/23/50 11/28/50 12/24/50
f 5/2/41 17/11/41 13/6/41
f 5/2/45 6/1/45 18/10/45
f 5/2/45 18/10/45 17/11/45
f 6/1/40 14/5/40 18/10/40
f 7/3/36 13/7/36 21/14/36
f 7/3/44 21/14/44 9/4/44
f 8/3/34 22/14/34 14/7/34
f 8/3/43 10/4/43 22/14/43
f 9/4/37 23/15/37 15/8/37
f 9/4/44 21/14/44 23/15/44
f 10/4/35 16/8/35 24/15/35
f 10/4/43 24/15/43 22/14/43
f 11/2/39 15/6/39 27/11/39
f 11/2/42 27/11/42 12/1/42
f 12/1/38 28/10/38 16/5/38
f 12/1/42 27/11/42 28/10/42
f 13/6/41 17/11/41 19/12/41
f 13/7/36 19/13/36 21/14/36
f 14/5/40 20/9/40 18/10/40
f 14/7/34 22/14/34 20/13/34
f 15/6/39 25/12/39 27/11/39
f 15/8/37 23/15/37 25/16/37
f 16/5/38 28/10/38 26/9/38
f 16/8/35 26/16/35 24/15/35
f 17/11/32 29/35/32 31/36/32
f 17/11/32 31/36/32 19/12/32
f 17/11/33 18/10/33 30/34/33
f 17/11/33 30/34/33 29/35/33
f 18/10/31 20/9/31 30/34/31
f 19/13/29 31/37/29 33/38/29
f 19/13/29 33/38/29 21/14/29
f 20/9/31 32/33/31 30/34/31
f 20/13/30 22/14/30 32/37/30
f 21/14/28 33/38/28 35/39/28
f 21/14/28 35/39/28 23/15/28
f 22/14/27 24/15/27 34/38/27
f 22/14/30 34/38/30 32/37/30
f 23/15/26 35/39/26 37/40/26
f 23/15/26 37/40/26 25/16/26
f 24/15/25 26/16/25 36/39/25
f 24/15/27 36/39/27 34/38/27
f 25/12/24 37/36/24 39/35/24
f 25/12/24 39/35/24 27/11/24
f 26/9/23 28/10/23 38/33/23
f 26/16/25 38/40/25 36/39/25
f 27/11/22 39/35/22 40/34/22
f 27/11/22 40/34/22 28/10/22
f 28/10/23 40/34/23 38/33/23
f 29/35/13 30/34/13 46/45/13
f 29/35/13 46/45/13 45/46/13
f 29/35/16 41/42/16 31/36/16
f 29/35/16 45/46/16 41/42/16
f 30/34/18 32/33/18 42/41/18
f 30/34/18 42/41/18 46/45/18
f 31/37/19 41/43/19 33/38/19
f 32/37/21 34/38/21 42/43/21
f 33/38/12 47/47/12 49/48/12
f 33/38/12 49/48/12 35/39/12
f 33/38/19 41/43/19 47/47/19
f 34/38/11 36/39/11 50/48/11
f 34/38/11 50/48/11 48/47/11
f 34/38/21 48/47/21 42/43/21
f 35/39/17 43/44/17 37/40/17
f 35/39/17 49/48/17 43/44/17
f 36/39/20 38/40/20 44/44/20
f 36/39/20 44/44/20 50/48/20
f 37/36/14 43/42/14 39/35/14
f 38/33/15 40/34/15 44/41/15
f 39/35/10 51/46/10 40/34/10
f 39/35/14 43/42/14 51/46/14
f 40/34/10 51/46/10 52/45/10
f 40/34/15 52/45/15 44/41/15
f 41/29/9 45/25/9 53/26/9
f 41/29/9 53/26/9 47/31/9
f 42/19/8 48/17/8 54/22/8
f 42/19/8 54/22/8 46/21/8
f 43/30/6 49/32/6 55/27/6
f 43/30/6 55/27/6 51/28/6
f 44/20/7 52/24/7 56/23/7
f 44/20/7 56/23/7 50/18/7
f 45/25/5 46/21/5 54/22/5
f 45/25/5 54/22/5 53/26/5
f 47/31/3 53/26/3 49/32/3
f 48/17/2 50/18/2 54/22/2
f 49/32/3 53/26/3 55/27/3
f 50/18/2 56/23/2 54/22/2
f 51/28/4 55/27/4 52/24/4
f 52/24/4 55/27/4 56/23/4
f 53/26/1 54/22/1 56/23/1
f 53/26/1 56/23/1 55/27/1
