# exported by ae3d_export.py v3
# object: Street_BlockL1_Trim
mtllib Street_BlockL1_Trim.mtl
v -5.700000 8.580000 0.000000
v -5.700000 8.580000 0.260000
v -5.700000 9.000000 0.000000
v -5.700000 9.000000 0.260000
v -5.660000 -0.430000 0.000000
v -5.660000 -0.430000 0.130000
v -5.660000 0.480000 0.000000
v -5.660000 0.480000 0.130000
v -5.600000 2.650000 0.000000
v -5.600000 2.650000 0.049500
v -5.600000 2.720000 0.000000
v -5.600000 2.720000 0.049500
v -5.600000 5.800000 0.000000
v -5.600000 5.800000 0.049500
v -5.600000 5.870000 0.000000
v -5.600000 5.870000 0.049500
v -4.865000 0.440000 0.000000
v -4.865000 0.440000 0.090000
v -4.865000 0.520000 0.000000
v -4.865000 0.520000 0.090000
v -4.865000 3.590000 0.000000
v -4.865000 3.590000 0.090000
v -4.865000 3.670000 0.000000
v -4.865000 3.670000 0.090000
v -4.225000 0.560000 -0.225000
v -4.225000 0.560000 -0.195000
v -4.225000 2.030000 -0.225000
v -4.225000 2.030000 -0.195000
v -4.225000 3.710000 -0.225000
v -4.225000 3.710000 -0.195000
v -4.225000 5.180000 -0.225000
v -4.225000 5.180000 -0.195000
v -4.175000 0.560000 -0.225000
v -4.175000 0.560000 -0.195000
v -4.175000 2.030000 -0.225000
v -4.175000 2.030000 -0.195000
v -4.175000 3.710000 -0.225000
v -4.175000 3.710000 -0.195000
v -4.175000 5.180000 -0.225000
v -4.175000 5.180000 -0.195000
v -3.535000 0.440000 0.000000
v -3.535000 0.440000 0.090000
v -3.535000 0.520000 0.000000
v -3.535000 0.520000 0.090000
v -3.535000 3.590000 0.000000
v -3.535000 3.590000 0.090000
v -3.535000 3.670000 0.000000
v -3.535000 3.670000 0.090000
v -2.065000 0.440000 0.000000
v -2.065000 0.440000 0.090000
v -2.065000 0.520000 0.000000
v -2.065000 0.520000 0.090000
v -2.065000 3.590000 0.000000
v -2.065000 3.590000 0.090000
v -2.065000 3.670000 0.000000
v -2.065000 3.670000 0.090000
v -1.425000 0.560000 -0.225000
v -1.425000 0.560000 -0.195000
v -1.425000 2.030000 -0.225000
v -1.425000 2.030000 -0.195000
v -1.425000 3.710000 -0.225000
v -1.425000 3.710000 -0.195000
v -1.425000 5.180000 -0.225000
v -1.425000 5.180000 -0.195000
v -1.375000 0.560000 -0.225000
v -1.375000 0.560000 -0.195000
v -1.375000 2.030000 -0.225000
v -1.375000 2.030000 -0.195000
v -1.375000 3.710000 -0.225000
v -1.375000 3.710000 -0.195000
v -1.375000 5.180000 -0.225000
v -1.375000 5.180000 -0.195000
v -0.735000 0.440000 0.000000
v -0.735000 0.440000 0.090000
v -0.735000 0.520000 0.000000
v -0.735000 0.520000 0.090000
v -0.735000 3.590000 0.000000
v -0.735000 3.590000 0.090000
v -0.735000 3.670000 0.000000
v -0.735000 3.670000 0.090000
v 0.605000 -0.410000 0.000000
v 0.605000 -0.410000 0.144000
v 0.605000 2.180000 0.000000
v 0.605000 2.180000 0.144000
v 0.735000 3.590000 0.000000
v 0.735000 3.590000 0.090000
v 0.735000 3.670000 0.000000
v 0.735000 3.670000 0.090000
v 1.375000 3.710000 -0.225000
v 1.375000 3.710000 -0.195000
v 1.375000 5.180000 -0.225000
v 1.375000 5.180000 -0.195000
v 1.425000 3.710000 -0.225000
v 1.425000 3.710000 -0.195000
v 1.425000 5.180000 -0.225000
v 1.425000 5.180000 -0.195000
v 2.065000 3.590000 0.000000
v 2.065000 3.590000 0.090000
v 2.065000 3.670000 0.000000
v 2.065000 3.670000 0.090000
v 2.195000 -0.410000 0.000000
v 2.195000 -0.410000 0.144000
v 2.195000 2.180000 0.000000
v 2.195000 2.180000 0.144000
v 3.535000 0.440000 0.000000
v 3.535000 0.440000 0.090000
v 3.535000 0.520000 0.000000
v 3.535000 0.520000 0.090000
v 3.535000 3.590000 0.000000
v 3.535000 3.590000 0.090000
v 3.535000 3.670000 0.000000
v 3.535000 3.670000 0.090000
v 4.175000 0.560000 -0.225000
v 4.175000 0.560000 -0.195000
v 4.175000 2.030000 -0.225000
v 4.175000 2.030000 -0.195000
v 4.175000 3.710000 -0.225000
v 4.175000 3.710000 -0.195000
v 4.175000 5.180000 -0.225000
v 4.175000 5.180000 -0.195000
v 4.225000 0.560000 -0.225000
v 4.225000 0.560000 -0.195000
v 4.225000 2.030000 -0.225000
v 4.225000 2.030000 -0.195000
v 4.225000 3.710000 -0.225000
v 4.225000 3.710000 -0.195000
v 4.225000 5.180000 -0.225000
v 4.225000 5.180000 -0.195000
v 4.865000 0.440000 0.000000
v 4.865000 0.440000 0.090000
v 4.865000 0.520000 0.000000
v 4.865000 0.520000 0.090000
v 4.865000 3.590000 0.000000
v 4.865000 3.590000 0.090000
v 4.865000 3.670000 0.000000
v 4.865000 3.670000 0.090000
v 5.600000 2.650000 0.000000
v 5.600000 2.650000 0.049500
v 5.600000 2.720000 0.000000
v 5.600000 2.720000 0.049500
v 5.600000 5.800000 0.000000
v 5.600000 5.800000 0.049500
v 5.600000 5.870000 0.000000
v 5.600000 5.870000 0.049500
v 5.660000 -0.430000 0.000000
v 5.660000 -0.430000 0.130000
v 5.660000 0.480000 0.000000
v 5.660000 0.480000 0.130000
v 5.700000 8.580000 0.000000
v 5.700000 8.580000 0.260000
v 5.700000 9.000000 0.000000
v 5.700000 9.000000 0.260000
vt -12.540000 -0.572000
vt -12.540000 0.000000
vt -12.540000 18.875999
vt -12.540000 19.799999
vt -12.452000 -0.946000
vt -12.452000 -0.286000
vt -12.452000 0.000000
vt -12.452000 1.056000
vt -12.320000 -0.108900
vt -12.320000 0.000000
vt -12.320000 5.830000
vt -12.320000 5.984000
vt -12.320000 12.760000
vt -12.320000 12.914000
vt -10.702999 -0.198000
vt -10.702999 0.000000
vt -10.702999 0.968000
vt -10.702999 1.144000
vt -10.702999 7.898000
vt -10.702999 8.074000
vt -9.295000 0.429000
vt -9.295000 0.495000
vt -9.295000 1.232000
vt -9.295000 4.466000
vt -9.295000 8.162000
vt -9.295000 11.396000
vt -9.185000 0.429000
vt -9.185000 0.495000
vt -9.185000 1.232000
vt -9.185000 4.466000
vt -9.185000 8.162000
vt -9.185000 11.396000
vt -7.777000 -0.198000
vt -7.777000 0.000000
vt -7.777000 0.968000
vt -7.777000 1.144000
vt -7.777000 7.898000
vt -7.777000 8.074000
vt -4.543000 -0.198000
vt -4.543000 0.000000
vt -4.543000 0.968000
vt -4.543000 1.144000
vt -4.543000 7.898000
vt -4.543000 8.074000
vt -3.135000 0.429000
vt -3.135000 0.495000
vt -3.135000 1.232000
vt -3.135000 4.466000
vt -3.135000 8.162000
vt -3.135000 11.396000
vt -3.025000 0.429000
vt -3.025000 0.495000
vt -3.025000 1.232000
vt -3.025000 4.466000
vt -3.025000 8.162000
vt -3.025000 11.396000
vt -1.617000 -0.198000
vt -1.617000 0.000000
vt -1.617000 0.968000
vt -1.617000 1.144000
vt -1.617000 7.898000
vt -1.617000 8.074000
vt -0.572000 18.875999
vt -0.572000 19.799999
vt -0.316800 -0.902000
vt -0.316800 4.796000
vt -0.286000 -0.946000
vt -0.286000 1.056000
vt -0.198000 0.968000
vt -0.198000 1.144000
vt -0.198000 7.898000
vt -0.198000 8.074000
vt -0.108900 5.830000
vt -0.108900 5.984000
vt -0.108900 12.760000
vt -0.108900 12.914000
vt 0.000000 -0.946000
vt 0.000000 -0.902000
vt 0.000000 0.968000
vt 0.000000 1.056000
vt 0.000000 1.144000
vt 0.000000 4.796000
vt 0.000000 5.830000
vt 0.000000 5.984000
vt 0.000000 7.898000
vt 0.000000 8.074000
vt 0.000000 12.760000
vt 0.000000 12.914000
vt 0.000000 18.875999
vt 0.000000 19.799999
vt 0.429000 1.232000
vt 0.429000 4.466000
vt 0.429000 8.162000
vt 0.429000 11.396000
vt 0.495000 1.232000
vt 0.495000 4.466000
vt 0.495000 8.162000
vt 0.495000 11.396000
vt 1.331000 -0.902000
vt 1.331000 -0.316800
vt 1.331000 0.000000
vt 1.331000 4.796000
vt 1.617000 -0.198000
vt 1.617000 0.000000
vt 1.617000 7.898000
vt 1.617000 8.074000
vt 3.025000 0.429000
vt 3.025000 0.495000
vt 3.025000 8.162000
vt 3.025000 11.396000
vt 3.135000 0.429000
vt 3.135000 0.495000
vt 3.135000 8.162000
vt 3.135000 11.396000
vt 4.543000 -0.198000
vt 4.543000 0.000000
vt 4.543000 7.898000
vt 4.543000 8.074000
vt 4.829000 -0.902000
vt 4.829000 -0.316800
vt 4.829000 0.000000
vt 4.829000 4.796000
vt 7.777000 -0.198000
vt 7.777000 0.000000
vt 7.777000 0.968000
vt 7.777000 1.144000
vt 7.777000 7.898000
vt 7.777000 8.074000
vt 9.185000 0.429000
vt 9.185000 0.495000
vt 9.185000 1.232000
vt 9.185000 4.466000
vt 9.185000 8.162000
vt 9.185000 11.396000
vt 9.295000 0.429000
vt 9.295000 0.495000
vt 9.295000 1.232000
vt 9.295000 4.466000
vt 9.295000 8.162000
vt 9.295000 11.396000
vt 10.702999 -0.198000
vt 10.702999 0.000000
vt 10.702999 0.968000
vt 10.702999 1.144000
vt 10.702999 7.898000
vt 10.702999 8.074000
vt 12.320000 -0.108900
vt 12.320000 0.000000
vt 12.320000 5.830000
vt 12.320000 5.984000
vt 12.320000 12.760000
vt 12.320000 12.914000
vt 12.452000 -0.946000
vt 12.452000 -0.286000
vt 12.452000 0.000000
vt 12.452000 1.056000
vt 12.540000 -0.572000
vt 12.540000 0.000000
vt 12.540000 18.875999
vt 12.540000 19.799999
vn -1.000000 0.000000 0.000000
vn 0.000000 -1.000000 0.000000
vn 0.000000 0.000000 -1.000000
vn 0.000000 0.000000 1.000000
vn 0.000000 1.000000 0.000000
vn 1.000000 0.000000 0.000000
usemtl TrimStone
f 1/2/2 149/158/2 2/1/2
f 1/3/3 3/4/3 151/160/3
f 1/3/3 151/160/3 149/159/3
f 1/89/1 2/63/1 3/90/1
f 2/1/2 149/158/2 150/157/2
f 2/3/4 150/159/4 152/160/4
f 2/3/4 152/160/4 4/4/4
f 2/63/1 4/64/1 3/90/1
f 3/2/5 4/1/5 151/158/5
f 4/1/5 152/157/5 151/158/5
f 5/5/3 7/8/3 147/156/3
f 5/5/3 147/156/3 145/153/3
f 5/7/2 145/155/2 6/6/2
f 5/77/1 6/67/1 7/80/1
f 6/5/4 146/153/4 148/156/4
f 6/5/4 148/156/4 8/8/4
f 6/6/2 145/155/2 146/154/2
f 6/67/1 8/68/1 7/80/1
f 7/7/5 8/6/5 147/155/5
f 8/6/5 148/154/5 147/155/5
f 9/10/2 137/148/2 10/9/2
f 9/11/3 11/12/3 139/150/3
f 9/11/3 139/150/3 137/149/3
f 9/83/1 10/73/1 11/84/1
f 10/9/2 137/148/2 138/147/2
f 10/11/4 138/149/4 140/150/4
f 10/11/4 140/150/4 12/12/4
f 10/73/1 12/74/1 11/84/1
f 11/10/5 12/9/5 139/148/5
f 12/9/5 140/147/5 139/148/5
f 13/10/2 141/148/2 14/9/2
f 13/13/3 15/14/3 143/152/3
f 13/13/3 143/152/3 141/151/3
f 13/87/1 14/75/1 15/88/1
f 14/9/2 141/148/2 142/147/2
f 14/13/4 142/151/4 144/152/4
f 14/13/4 144/152/4 16/14/4
f 14/75/1 16/76/1 15/88/1
f 15/10/5 16/9/5 143/148/5
f 16/9/5 144/147/5 143/148/5
f 17/16/2 41/34/2 18/15/2
f 17/17/3 19/18/3 43/36/3
f 17/17/3 43/36/3 41/35/3
f 17/79/1 18/69/1 19/81/1
f 18/15/2 41/34/2 42/33/2
f 18/17/4 42/35/4 44/36/4
f 18/17/4 44/36/4 20/18/4
f 18/69/1 20/70/1 19/81/1
f 19/16/5 20/15/5 43/34/5
f 20/15/5 44/33/5 43/34/5
f 21/16/2 45/34/2 22/15/2
f 21/19/3 23/20/3 47/38/3
f 21/19/3 47/38/3 45/37/3
f 21/85/1 22/71/1 23/86/1
f 22/15/2 45/34/2 46/33/2
f 22/19/4 46/37/4 48/38/4
f 22/19/4 48/38/4 24/20/4
f 22/71/1 24/72/1 23/86/1
f 23/16/5 24/15/5 47/34/5
f 24/15/5 48/33/5 47/34/5
f 25/22/2 33/28/2 26/21/2
f 25/23/3 27/24/3 35/30/3
f 25/23/3 35/30/3 33/29/3
f 25/95/1 26/91/1 27/96/1
f 26/21/2 33/28/2 34/27/2
f 26/23/4 34/29/4 36/30/4
f 26/23/4 36/30/4 28/24/4
f 26/91/1 28/92/1 27/96/1
f 27/22/5 28/21/5 35/28/5
f 28/21/5 36/27/5 35/28/5
f 29/22/2 37/28/2 30/21/2
f 29/25/3 31/26/3 39/32/3
f 29/25/3 39/32/3 37/31/3
f 29/97/1 30/93/1 31/98/1
f 30/21/2 37/28/2 38/27/2
f 30/25/4 38/31/4 40/32/4
f 30/25/4 40/32/4 32/26/4
f 30/93/1 32/94/1 31/98/1
f 31/22/5 32/21/5 39/28/5
f 32/21/5 40/27/5 39/28/5
f 33/95/6 35/96/6 34/91/6
f 34/91/6 35/96/6 36/92/6
f 37/97/6 39/98/6 38/93/6
f 38/93/6 39/98/6 40/94/6
f 41/79/6 43/81/6 42/69/6
f 42/69/6 43/81/6 44/70/6
f 45/85/6 47/86/6 46/71/6
f 46/71/6 47/86/6 48/72/6
f 49/40/2 73/58/2 50/39/2
f 49/41/3 51/42/3 75/60/3
f 49/41/3 75/60/3 73/59/3
f 49/79/1 50/69/1 51/81/1
f 50/39/2 73/58/2 74/57/2
f 50/41/4 74/59/4 76/60/4
f 50/41/4 76/60/4 52/42/4
f 50/69/1 52/70/1 51/81/1
f 51/40/5 52/39/5 75/58/5
f 52/39/5 76/57/5 75/58/5
f 53/40/2 77/58/2 54/39/2
f 53/43/3 55/44/3 79/62/3
f 53/43/3 79/62/3 77/61/3
f 53/85/1 54/71/1 55/86/1
f 54/39/2 77/58/2 78/57/2
f 54/43/4 78/61/4 80/62/4
f 54/43/4 80/62/4 56/44/4
f 54/71/1 56/72/1 55/86/1
f 55/40/5 56/39/5 79/58/5
f 56/39/5 80/57/5 79/58/5
f 57/46/2 65/52/2 58/45/2
f 57/47/3 59/48/3 67/54/3
f 57/47/3 67/54/3 65/53/3
f 57/95/1 58/91/1 59/96/1
f 58/45/2 65/52/2 66/51/2
f 58/47/4 66/53/4 68/54/4
f 58/47/4 68/54/4 60/48/4
f 58/91/1 60/92/1 59/96/1
f 59/46/5 60/45/5 67/52/5
f 60/45/5 68/51/5 67/52/5
f 61/46/2 69/52/2 62/45/2
f 61/49/3 63/50/3 71/56/3
f 61/49/3 71/56/3 69/55/3
f 61/97/1 62/93/1 63/98/1
f 62/45/2 69/52/2 70/51/2
f 62/49/4 70/55/4 72/56/4
f 62/49/4 72/56/4 64/50/4
f 62/93/1 64/94/1 63/98/1
f 63/46/5 64/45/5 71/52/5
f 64/45/5 72/51/5 71/52/5
f 65/95/6 67/96/6 66/91/6
f 66/91/6 67/96/6 68/92/6
f 69/97/6 71/98/6 70/93/6
f 70/93/6 71/98/6 72/94/6
f 73/79/6 75/81/6 74/69/6
f 74/69/6 75/81/6 76/70/6
f 77/85/6 79/86/6 78/71/6
f 78/71/6 79/86/6 80/72/6
f 81/78/1 82/65/1 83/82/1
f 81/99/3 83/102/3 103/122/3
f 81/99/3 103/122/3 101/119/3
f 81/101/2 101/121/2 82/100/2
f 82/65/1 84/66/1 83/82/1
f 82/99/4 102/119/4 104/122/4
f 82/99/4 104/122/4 84/102/4
f 82/100/2 101/121/2 102/120/2
f 83/101/5 84/100/5 103/121/5
f 84/100/5 104/120/5 103/121/5
f 85/85/1 86/71/1 87/86/1
f 85/104/2 97/116/2 86/103/2
f 85/105/3 87/106/3 99/118/3
f 85/105/3 99/118/3 97/117/3
f 86/71/1 88/72/1 87/86/1
f 86/103/2 97/116/2 98/115/2
f 86/105/4 98/117/4 100/118/4
f 86/105/4 100/118/4 88/106/4
f 87/104/5 88/103/5 99/116/5
f 88/103/5 100/115/5 99/116/5
f 89/97/1 90/93/1 91/98/1
f 89/108/2 93/112/2 90/107/2
f 89/109/3 91/110/3 95/114/3
f 89/109/3 95/114/3 93/113/3
f 90/93/1 92/94/1 91/98/1
f 90/107/2 93/112/2 94/111/2
f 90/109/4 94/113/4 96/114/4
f 90/109/4 96/114/4 92/110/4
f 91/108/5 92/107/5 95/112/5
f 92/107/5 96/111/5 95/112/5
f 93/97/6 95/98/6 94/93/6
f 94/93/6 95/98/6 96/94/6
f 97/85/6 99/86/6 98/71/6
f 98/71/6 99/86/6 100/72/6
f 101/78/6 103/82/6 102/65/6
f 102/65/6 103/82/6 104/66/6
f 105/79/1 106/69/1 107/81/1
f 105/124/2 129/142/2 106/123/2
f 105/125/3 107/126/3 131/144/3
f 105/125/3 131/144/3 129/143/3
f 106/69/1 108/70/1 107/81/1
f 106/123/2 129/142/2 130/141/2
f 106/125/4 130/143/4 132/144/4
f 106/125/4 132/144/4 108/126/4
f 107/124/5 108/123/5 131/142/5
f 108/123/5 132/141/5 131/142/5
f 109/85/1 110/71/1 111/86/1
f 109/124/2 133/142/2 110/123/2
f 109/127/3 111/128/3 135/146/3
f 109/127/3 135/146/3 133/145/3
f 110/71/1 112/72/1 111/86/1
f 110/123/2 133/142/2 134/141/2
f 110/127/4 134/145/4 136/146/4
f 110/127/4 136/146/4 112/128/4
f 111/124/5 112/123/5 135/142/5
f 112/123/5 136/141/5 135/142/5
f 113/95/1 114/91/1 115/96/1
f 113/130/2 121/136/2 114/129/2
f 113/131/3 115/132/3 123/138/3
f 113/131/3 123/138/3 121/137/3
f 114/91/1 116/92/1 115/96/1
f 114/129/2 121/136/2 122/135/2
f 114/131/4 122/137/4 124/138/4
f 114/131/4 124/138/4 116/132/4
f 115/130/5 116/129/5 123/136/5
f 116/129/5 124/135/5 123/136/5
f 117/97/1 118/93/1 119/98/1
f 117/130/2 125/136/2 118/129/2
f 117/133/3 119/134/3 127/140/3
f 117/133/3 127/140/3 125/139/3
f 118/93/1 120/94/1 119/98/1
f 118/129/2 125/136/2 126/135/2
f 118/133/4 126/139/4 128/140/4
f 118/133/4 128/140/4 120/134/4
f 119/130/5 120/129/5 127/136/5
f 120/129/5 128/135/5 127/136/5
f 121/95/6 123/96/6 122/91/6
f 122/91/6 123/96/6 124/92/6
f 125/97/6 127/98/6 126/93/6
f 126/93/6 127/98/6 128/94/6
f 129/79/6 131/81/6 130/69/6
f 130/69/6 131/81/6 132/70/6
f 133/85/6 135/86/6 134/71/6
f 134/71/6 135/86/6 136/72/6
f 137/83/6 139/84/6 138/73/6
f 138/73/6 139/84/6 140/74/6
f 141/87/6 143/88/6 142/75/6
f 142/75/6 143/88/6 144/76/6
f 145/77/6 147/80/6 146/67/6
f 146/67/6 147/80/6 148/68/6
f 149/89/6 151/90/6 150/63/6
f 150/63/6 151/90/6 152/64/6
