# exported by ae3d_export.py v3
# object: Street_BlockL1_Lit
mtllib Street_BlockL1_Lit.mtl
v -1.935000 3.710000 -0.225000
v -1.935000 5.180000 -0.225000
v -0.865000 3.710000 -0.225000
v -0.865000 5.180000 -0.225000
v 0.865000 6.860000 -0.225000
v 0.865000 8.330000 -0.225000
v 1.935000 6.860000 -0.225000
v 1.935000 8.330000 -0.225000
v 3.665000 0.560000 -0.225000
v 3.665000 2.030000 -0.225000
v 3.665000 3.710000 -0.225000
v 3.665000 5.180000 -0.225000
v 4.735000 0.560000 -0.225000
v 4.735000 2.030000 -0.225000
v 4.735000 3.710000 -0.225000
v 4.735000 5.180000 -0.225000
vt 0.000000 0.000000
vt 0.000000 1.000000
vt 1.000000 0.000000
vt 1.000000 1.000000
vn 0.000000 0.000000 -1.000000
vn 0.000000 0.000000 1.000000
usemtl WindowLit
f 1/1/2 3/3/2 4/4/2
f 1/1/2 4/4/2 2/2/2
f 5/1/2 7/3/2 8/4/2
f 5/1/2 8/4/2 6/2/2
f 9/1/1 10/2/1 14/4/1
f 9/1/1 14/4/1 13/3/1
f 11/1/2 15/3/2 16/4/2
f 11/1/2 16/4/2 12/2/2
