# exported by ae3d_export.py v3
# object: Street_BlockL0
mtllib Street_BlockL0.mtl
v -5.600000 -0.400000 -7.000000
v -5.600000 -0.400000 0.000000
v -5.600000 -0.380000 0.000000
v -5.600000 0.550000 0.000000
v -5.600000 2.050000 0.000000
v -5.600000 2.100000 0.000000
v -5.600000 3.700000 0.000000
v -5.600000 5.250000 0.000000
v -5.600000 6.850000 0.000000
v -5.600000 8.400000 0.000000
v -5.600000 11.000000 -7.000000
v -5.600000 11.000000 0.000000
v -4.775000 -0.400000 0.000000
v -4.775000 -0.380000 0.000000
v -4.775000 0.550000 -0.240000
v -4.775000 0.550000 0.000000
v -4.775000 2.050000 0.000000
v -4.775000 2.100000 -0.240000
v -4.775000 2.100000 0.000000
v -4.775000 3.700000 -0.240000
v -4.775000 3.700000 0.000000
v -4.775000 5.250000 -0.240000
v -4.775000 5.250000 0.000000
v -4.775000 6.850000 -0.240000
v -4.775000 6.850000 0.000000
v -4.775000 8.400000 -0.240000
v -4.775000 8.400000 0.000000
v -4.775000 11.000000 0.000000
v -3.625000 -0.400000 0.000000
v -3.625000 -0.380000 0.000000
v -3.625000 0.550000 -0.240000
v -3.625000 0.550000 0.000000
v -3.625000 2.050000 0.000000
v -3.625000 2.100000 -0.240000
v -3.625000 2.100000 0.000000
v -3.625000 3.700000 -0.240000
v -3.625000 3.700000 0.000000
v -3.625000 5.250000 -0.240000
v -3.625000 5.250000 0.000000
v -3.625000 6.850000 -0.240000
v -3.625000 6.850000 0.000000
v -3.625000 8.400000 -0.240000
v -3.625000 8.400000 0.000000
v -3.625000 11.000000 0.000000
v -1.975000 -0.400000 0.000000
v -1.975000 -0.380000 0.000000
v -1.975000 0.550000 -0.240000
v -1.975000 0.550000 0.000000
v -1.975000 2.050000 0.000000
v -1.975000 2.100000 -0.240000
v -1.975000 2.100000 0.000000
v -1.975000 3.700000 -0.240000
v -1.975000 3.700000 0.000000
v -1.975000 5.250000 -0.240000
v -1.975000 5.250000 0.000000
v -1.975000 6.850000 -0.240000
v -1.975000 6.850000 0.000000
v -1.975000 8.400000 -0.240000
v -1.975000 8.400000 0.000000
v -1.975000 11.000000 0.000000
v -0.825000 -0.400000 0.000000
v -0.825000 -0.380000 0.000000
v -0.825000 0.550000 -0.240000
v -0.825000 0.550000 0.000000
v -0.825000 2.050000 0.000000
v -0.825000 2.100000 -0.240000
v -0.825000 2.100000 0.000000
v -0.825000 3.700000 -0.240000
v -0.825000 3.700000 0.000000
v -0.825000 5.250000 -0.240000
v -0.825000 5.250000 0.000000
v -0.825000 6.850000 -0.240000
v -0.825000 6.850000 0.000000
v -0.825000 8.400000 -0.240000
v -0.825000 8.400000 0.000000
v -0.825000 11.000000 0.000000
v 0.725000 -0.400000 0.000000
v 0.725000 -0.380000 -0.240000
v 0.725000 -0.380000 0.000000
v 0.725000 0.550000 0.000000
v 0.725000 2.050000 -0.240000
v 0.725000 2.050000 0.000000
v 0.725000 2.100000 0.000000
v 0.725000 3.700000 0.000000
v 0.725000 5.250000 0.000000
v 0.725000 6.850000 0.000000
v 0.725000 8.400000 0.000000
v 0.725000 11.000000 0.000000
v 0.825000 -0.400000 0.000000
v 0.825000 -0.380000 0.000000
v 0.825000 2.050000 0.000000
v 0.825000 2.100000 0.000000
v 0.825000 3.700000 -0.240000
v 0.825000 3.700000 0.000000
v 0.825000 5.250000 -0.240000
v 0.825000 5.250000 0.000000
v 0.825000 6.850000 -0.240000
v 0.825000 6.850000 0.000000
v 0.825000 8.400000 -0.240000
v 0.825000 8.400000 0.000000
v 0.825000 11.000000 0.000000
v 1.975000 -0.400000 0.000000
v 1.975000 -0.380000 0.000000
v 1.975000 2.050000 0.000000
v 1.975000 2.100000 0.000000
v 1.975000 3.700000 -0.240000
v 1.975000 3.700000 0.000000
v 1.975000 5.250000 -0.240000
v 1.975000 5.250000 0.000000
v 1.975000 6.850000 -0.240000
v 1.975000 6.850000 0.000000
v 1.975000 8.400000 -0.240000
v 1.975000 8.400000 0.000000
v 1.975000 11.000000 0.000000
v 2.075000 -0.400000 0.000000
v 2.075000 -0.380000 -0.240000
v 2.075000 -0.380000 0.000000
v 2.075000 0.550000 0.000000
v 2.075000 2.050000 -0.240000
v 2.075000 2.050000 0.000000
v 2.075000 2.100000 0.000000
v 2.075000 3.700000 0.000000
v 2.075000 5.250000 0.000000
v 2.075000 6.850000 0.000000
v 2.075000 8.400000 0.000000
v 2.075000 11.000000 0.000000
v 3.625000 -0.400000 0.000000
v 3.625000 -0.380000 0.000000
v 3.625000 0.550000 -0.240000
v 3.625000 0.550000 0.000000
v 3.625000 2.050000 0.000000
v 3.625000 2.100000 -0.240000
v 3.625000 2.100000 0.000000
v 3.625000 3.700000 -0.240000
v 3.625000 3.700000 0.000000
v 3.625000 5.250000 -0.240000
v 3.625000 5.250000 0.000000
v 3.625000 6.850000 -0.240000
v 3.625000 6.850000 0.000000
v 3.625000 8.400000 -0.240000
v 3.625000 8.400000 0.000000
v 3.625000 11.000000 0.000000
v 4.775000 -0.400000 0.000000
v 4.775000 -0.380000 0.000000
v 4.775000 0.550000 -0.240000
v 4.775000 0.550000 0.000000
v 4.775000 2.050000 0.000000
v 4.775000 2.100000 -0.240000
v 4.775000 2.100000 0.000000
v 4.775000 3.700000 -0.240000
v 4.775000 3.700000 0.000000
v 4.775000 5.250000 -0.240000
v 4.775000 5.250000 0.000000
v 4.775000 6.850000 -0.240000
v 4.775000 6.850000 0.000000
v 4.775000 8.400000 -0.240000
v 4.775000 8.400000 0.000000
v 4.775000 11.000000 0.000000
v 5.600000 -0.400000 -7.000000
v 5.600000 -0.400000 0.000000
v 5.600000 -0.380000 0.000000
v 5.600000 0.550000 0.000000
v 5.600000 2.050000 0.000000
v 5.600000 2.100000 0.000000
v 5.600000 3.700000 0.000000
v 5.600000 5.250000 0.000000
v 5.600000 6.850000 0.000000
v 5.600000 8.400000 0.000000
v 5.600000 11.000000 -7.000000
v 5.600000 11.000000 0.000000
vt -4.704000 -0.336000
vt -4.704000 -0.319200
vt -4.704000 0.000000
vt -4.704000 0.462000
vt -4.704000 1.722000
vt -4.704000 1.764000
vt -4.704000 3.108000
vt -4.704000 4.410000
vt -4.704000 5.754000
vt -4.704000 5.880000
vt -4.704000 7.056000
vt -4.704000 9.240000
vt -4.011000 -0.336000
vt -4.011000 -0.319200
vt -4.011000 0.000000
vt -4.011000 0.201600
vt -4.011000 0.462000
vt -4.011000 1.722000
vt -4.011000 1.764000
vt -4.011000 3.108000
vt -4.011000 4.410000
vt -4.011000 5.754000
vt -4.011000 7.056000
vt -4.011000 9.240000
vt -3.045000 -0.336000
vt -3.045000 -0.319200
vt -3.045000 0.000000
vt -3.045000 0.201600
vt -3.045000 0.462000
vt -3.045000 1.722000
vt -3.045000 1.764000
vt -3.045000 3.108000
vt -3.045000 4.410000
vt -3.045000 5.754000
vt -3.045000 7.056000
vt -3.045000 9.240000
vt -1.659000 -0.336000
vt -1.659000 -0.319200
vt -1.659000 0.000000
vt -1.659000 0.201600
vt -1.659000 0.462000
vt -1.659000 1.722000
vt -1.659000 1.764000
vt -1.659000 3.108000
vt -1.659000 4.410000
vt -1.659000 5.754000
vt -1.659000 7.056000
vt -1.659000 9.240000
vt -0.693000 -0.336000
vt -0.693000 -0.319200
vt -0.693000 0.000000
vt -0.693000 0.201600
vt -0.693000 0.462000
vt -0.693000 1.722000
vt -0.693000 1.764000
vt -0.693000 3.108000
vt -0.693000 4.410000
vt -0.693000 5.754000
vt -0.693000 7.056000
vt -0.693000 9.240000
vt 0.000000 -0.336000
vt 0.000000 -0.319200
vt 0.000000 0.462000
vt 0.000000 1.722000
vt 0.000000 1.764000
vt 0.000000 3.108000
vt 0.000000 4.410000
vt 0.000000 5.754000
vt 0.000000 7.056000
vt 0.000000 9.240000
vt 0.201600 -0.319200
vt 0.201600 0.462000
vt 0.201600 1.722000
vt 0.201600 1.764000
vt 0.201600 3.108000
vt 0.201600 4.410000
vt 0.201600 5.754000
vt 0.201600 7.056000
vt 0.609000 -0.336000
vt 0.609000 -0.319200
vt 0.609000 0.000000
vt 0.609000 0.201600
vt 0.609000 0.462000
vt 0.609000 1.722000
vt 0.609000 1.764000
vt 0.609000 3.108000
vt 0.609000 4.410000
vt 0.609000 5.754000
vt 0.609000 7.056000
vt 0.609000 9.240000
vt 0.693000 -0.336000
vt 0.693000 -0.319200
vt 0.693000 0.000000
vt 0.693000 0.201600
vt 0.693000 1.722000
vt 0.693000 1.764000
vt 0.693000 3.108000
vt 0.693000 4.410000
vt 0.693000 5.754000
vt 0.693000 7.056000
vt 0.693000 9.240000
vt 1.659000 -0.336000
vt 1.659000 -0.319200
vt 1.659000 0.000000
vt 1.659000 0.201600
vt 1.659000 1.722000
vt 1.659000 1.764000
vt 1.659000 3.108000
vt 1.659000 4.410000
vt 1.659000 5.754000
vt 1.659000 7.056000
vt 1.659000 9.240000
vt 1.743000 -0.336000
vt 1.743000 -0.319200
vt 1.743000 0.000000
vt 1.743000 0.201600
vt 1.743000 0.462000
vt 1.743000 1.722000
vt 1.743000 1.764000
vt 1.743000 3.108000
vt 1.743000 4.410000
vt 1.743000 5.754000
vt 1.743000 7.056000
vt 1.743000 9.240000
vt 3.045000 -0.336000
vt 3.045000 -0.319200
vt 3.045000 0.000000
vt 3.045000 0.201600
vt 3.045000 0.462000
vt 3.045000 1.722000
vt 3.045000 1.764000
vt 3.045000 3.108000
vt 3.045000 4.410000
vt 3.045000 5.754000
vt 3.045000 7.056000
vt 3.045000 9.240000
vt 4.011000 -0.336000
vt 4.011000 -0.319200
vt 4.011000 0.000000
vt 4.011000 0.201600
vt 4.011000 0.462000
vt 4.011000 1.722000
vt 4.011000 1.764000
vt 4.011000 3.108000
vt 4.011000 4.410000
vt 4.011000 5.754000
vt 4.011000 7.056000
vt 4.011000 9.240000
vt 4.704000 -0.336000
vt 4.704000 -0.319200
vt 4.704000 0.000000
vt 4.704000 0.462000
vt 4.704000 1.722000
vt 4.704000 1.764000
vt 4.704000 3.108000
vt 4.704000 4.410000
vt 4.704000 5.754000
vt 4.704000 5.880000
vt 4.704000 7.056000
vt 4.704000 9.240000
vt 5.880000 -0.336000
vt 5.880000 9.240000
vn -1.000000 0.000000 0.000000
vn 0.000000 -1.000000 0.000000
vn 0.000000 0.000000 -1.000000
vn 0.000000 0.000000 1.000000
vn 0.000000 1.000000 0.000000
vn 1.000000 0.000000 0.000000
usemtl WallConcrete
f 1/1/3 11/12/3 169/160/3
f 1/1/3 169/160/3 159/149/3
f 1/10/2 159/158/2 2/3/2
f 1/161/1 2/61/1 11/162/1
f 2/1/4 13/13/4 14/14/4
f 2/1/4 14/14/4 3/2/4
f 2/3/2 159/158/2 160/151/2
f 2/61/1 12/70/1 11/162/1
f 3/2/4 14/14/4 16/17/4
f 3/2/4 16/17/4 4/4/4
f 4/4/4 16/17/4 17/18/4
f 4/4/4 17/18/4 5/5/4
f 5/5/4 17/18/4 19/19/4
f 5/5/4 19/19/4 6/6/4
f 6/6/4 19/19/4 21/20/4
f 6/6/4 21/20/4 7/7/4
f 7/7/4 21/20/4 23/21/4
f 7/7/4 23/21/4 8/8/4
f 8/8/4 23/21/4 25/22/4
f 8/8/4 25/22/4 9/9/4
f 9/9/4 25/22/4 27/23/4
f 9/9/4 27/23/4 10/11/4
f 10/11/4 27/23/4 28/24/4
f 10/11/4 28/24/4 12/12/4
f 11/10/5 12/3/5 169/158/5
f 12/3/5 170/151/5 169/158/5
f 13/13/4 29/25/4 30/26/4
f 13/13/4 30/26/4 14/14/4
f 14/14/4 30/26/4 32/29/4
f 14/14/4 32/29/4 16/17/4
f 15/16/5 16/15/5 31/28/5
f 15/72/6 18/74/6 16/63/6
f 16/15/5 32/27/5 31/28/5
f 16/63/6 18/74/6 19/65/6
f 18/16/2 34/28/2 19/15/2
f 19/15/2 34/28/2 35/27/2
f 19/19/4 35/31/4 37/32/4
f 19/19/4 37/32/4 21/20/4
f 20/16/5 21/15/5 36/28/5
f 20/75/6 22/76/6 21/66/6
f 21/15/5 37/27/5 36/28/5
f 21/66/6 22/76/6 23/67/6
f 22/16/2 38/28/2 23/15/2
f 23/15/2 38/28/2 39/27/2
f 23/21/4 39/33/4 41/34/4
f 23/21/4 41/34/4 25/22/4
f 24/16/5 25/15/5 40/28/5
f 24/77/6 26/78/6 25/68/6
f 25/15/5 41/27/5 40/28/5
f 25/68/6 26/78/6 27/69/6
f 26/16/2 42/28/2 27/15/2
f 27/15/2 42/28/2 43/27/2
f 27/23/4 43/35/4 44/36/4
f 27/23/4 44/36/4 28/24/4
f 29/25/4 45/37/4 46/38/4
f 29/25/4 46/38/4 30/26/4
f 30/26/4 46/38/4 48/41/4
f 30/26/4 48/41/4 32/29/4
f 31/72/1 32/63/1 34/74/1
f 32/29/4 48/41/4 49/42/4
f 32/29/4 49/42/4 33/30/4
f 32/63/1 35/65/1 34/74/1
f 33/30/4 49/42/4 51/43/4
f 33/30/4 51/43/4 35/31/4
f 35/31/4 51/43/4 53/44/4
f 35/31/4 53/44/4 37/32/4
f 36/75/1 37/66/1 38/76/1
f 37/32/4 53/44/4 55/45/4
f 37/32/4 55/45/4 39/33/4
f 37/66/1 39/67/1 38/76/1
f 39/33/4 55/45/4 57/46/4
f 39/33/4 57/46/4 41/34/4
f 40/77/1 41/68/1 42/78/1
f 41/34/4 57/46/4 59/47/4
f 41/34/4 59/47/4 43/35/4
f 41/68/1 43/69/1 42/78/1
f 43/35/4 59/47/4 60/48/4
f 43/35/4 60/48/4 44/36/4
f 45/37/4 61/49/4 62/50/4
f 45/37/4 62/50/4 46/38/4
f 46/38/4 62/50/4 64/53/4
f 46/38/4 64/53/4 48/41/4
f 47/40/5 48/39/5 63/52/5
f 47/72/6 50/74/6 48/63/6
f 48/39/5 64/51/5 63/52/5
f 48/63/6 50/74/6 51/65/6
f 50/40/2 66/52/2 51/39/2
f 51/39/2 66/52/2 67/51/2
f 51/43/4 67/55/4 69/56/4
f 51/43/4 69/56/4 53/44/4
f 52/40/5 53/39/5 68/52/5
f 52/75/6 54/76/6 53/66/6
f 53/39/5 69/51/5 68/52/5
f 53/66/6 54/76/6 55/67/6
f 54/40/2 70/52/2 55/39/2
f 55/39/2 70/52/2 71/51/2
f 55/45/4 71/57/4 73/58/4
f 55/45/4 73/58/4 57/46/4
f 56/40/5 57/39/5 72/52/5
f 56/77/6 58/78/6 57/68/6
f 57/39/5 73/51/5 72/52/5
f 57/68/6 58/78/6 59/69/6
f 58/40/2 74/52/2 59/39/2
f 59/39/2 74/52/2 75/51/2
f 59/47/4 75/59/4 76/60/4
f 59/47/4 76/60/4 60/48/4
f 61/49/4 77/79/4 79/80/4
f 61/49/4 79/80/4 62/50/4
f 62/50/4 79/80/4 80/83/4
f 62/50/4 80/83/4 64/53/4
f 63/72/1 64/63/1 66/74/1
f 64/53/4 80/83/4 82/84/4
f 64/53/4 82/84/4 65/54/4
f 64/63/1 67/65/1 66/74/1
f 65/54/4 82/84/4 83/85/4
f 65/54/4 83/85/4 67/55/4
f 67/55/4 83/85/4 84/86/4
f 67/55/4 84/86/4 69/56/4
f 68/75/1 69/66/1 70/76/1
f 69/56/4 84/86/4 85/87/4
f 69/56/4 85/87/4 71/57/4
f 69/66/1 71/67/1 70/76/1
f 71/57/4 85/87/4 86/88/4
f 71/57/4 86/88/4 73/58/4
f 72/77/1 73/68/1 74/78/1
f 73/58/4 86/88/4 87/89/4
f 73/58/4 87/89/4 75/59/4
f 73/68/1 75/69/1 74/78/1
f 75/59/4 87/89/4 88/90/4
f 75/59/4 88/90/4 76/60/4
f 77/79/4 89/91/4 90/92/4
f 77/79/4 90/92/4 79/80/4
f 78/71/1 79/62/1 81/73/1
f 78/82/2 116/116/2 79/81/2
f 79/62/1 82/64/1 81/73/1
f 79/81/2 116/116/2 117/115/2
f 81/82/5 82/81/5 119/116/5
f 82/81/5 120/115/5 119/116/5
f 82/84/4 91/95/4 92/96/4
f 82/84/4 92/96/4 83/85/4
f 83/85/4 92/96/4 94/97/4
f 83/85/4 94/97/4 84/86/4
f 84/86/4 94/97/4 96/98/4
f 84/86/4 96/98/4 85/87/4
f 85/87/4 96/98/4 98/99/4
f 85/87/4 98/99/4 86/88/4
f 86/88/4 98/99/4 100/100/4
f 86/88/4 100/100/4 87/89/4
f 87/89/4 100/100/4 101/101/4
f 87/89/4 101/101/4 88/90/4
f 89/91/4 102/102/4 103/103/4
f 89/91/4 103/103/4 90/92/4
f 91/95/4 104/106/4 105/107/4
f 91/95/4 105/107/4 92/96/4
f 92/96/4 105/107/4 107/108/4
f 92/96/4 107/108/4 94/97/4
f 93/75/6 95/76/6 94/66/6
f 93/94/5 94/93/5 106/105/5
f 94/66/6 95/76/6 96/67/6
f 94/93/5 107/104/5 106/105/5
f 95/94/2 108/105/2 96/93/2
f 96/93/2 108/105/2 109/104/2
f 96/98/4 109/109/4 111/110/4
f 96/98/4 111/110/4 98/99/4
f 97/77/6 99/78/6 98/68/6
f 97/94/5 98/93/5 110/105/5
f 98/68/6 99/78/6 100/69/6
f 98/93/5 111/104/5 110/105/5
f 99/94/2 112/105/2 100/93/2
f 100/93/2 112/105/2 113/104/2
f 100/100/4 113/111/4 114/112/4
f 100/100/4 114/112/4 101/101/4
f 102/102/4 115/113/4 117/114/4
f 102/102/4 117/114/4 103/103/4
f 104/106/4 120/118/4 121/119/4
f 104/106/4 121/119/4 105/107/4
f 105/107/4 121/119/4 122/120/4
f 105/107/4 122/120/4 107/108/4
f 106/75/1 107/66/1 108/76/1
f 107/66/1 109/67/1 108/76/1
f 107/108/4 122/120/4 123/121/4
f 107/108/4 123/121/4 109/109/4
f 109/109/4 123/121/4 124/122/4
f 109/109/4 124/122/4 111/110/4
f 110/77/1 111/68/1 112/78/1
f 111/68/1 113/69/1 112/78/1
f 111/110/4 124/122/4 125/123/4
f 111/110/4 125/123/4 113/111/4
f 113/111/4 125/123/4 126/124/4
f 113/111/4 126/124/4 114/112/4
f 115/113/4 127/125/4 128/126/4
f 115/113/4 128/126/4 117/114/4
f 116/71/6 119/73/6 117/62/6
f 117/62/6 119/73/6 120/64/6
f 117/114/4 128/126/4 130/129/4
f 117/114/4 130/129/4 118/117/4
f 118/117/4 130/129/4 131/130/4
f 118/117/4 131/130/4 120/118/4
f 120/118/4 131/130/4 133/131/4
f 120/118/4 133/131/4 121/119/4
f 121/119/4 133/131/4 135/132/4
f 121/119/4 135/132/4 122/120/4
f 122/120/4 135/132/4 137/133/4
f 122/120/4 137/133/4 123/121/4
f 123/121/4 137/133/4 139/134/4
f 123/121/4 139/134/4 124/122/4
f 124/122/4 139/134/4 141/135/4
f 124/122/4 141/135/4 125/123/4
f 125/123/4 141/135/4 142/136/4
f 125/123/4 142/136/4 126/124/4
f 127/125/4 143/137/4 144/138/4
f 127/125/4 144/138/4 128/126/4
f 128/126/4 144/138/4 146/141/4
f 128/126/4 146/141/4 130/129/4
f 129/72/6 132/74/6 130/63/6
f 129/128/5 130/127/5 145/140/5
f 130/63/6 132/74/6 133/65/6
f 130/127/5 146/139/5 145/140/5
f 132/128/2 148/140/2 133/127/2
f 133/127/2 148/140/2 149/139/2
f 133/131/4 149/143/4 151/144/4
f 133/131/4 151/144/4 135/132/4
f 134/75/6 136/76/6 135/66/6
f 134/128/5 135/127/5 150/140/5
f 135/66/6 136/76/6 137/67/6
f 135/127/5 151/139/5 150/140/5
f 136/128/2 152/140/2 137/127/2
f 137/127/2 152/140/2 153/139/2
f 137/133/4 153/145/4 155/146/4
f 137/133/4 155/146/4 139/134/4
f 138/77/6 140/78/6 139/68/6
f 138/128/5 139/127/5 154/140/5
f 139/68/6 140/78/6 141/69/6
f 139/127/5 155/139/5 154/140/5
f 140/128/2 156/140/2 141/127/2
f 141/127/2 156/140/2 157/139/2
f 141/135/4 157/147/4 158/148/4
f 141/135/4 158/148/4 142/136/4
f 143/137/4 160/149/4 161/150/4
f 143/137/4 161/150/4 144/138/4
f 144/138/4 161/150/4 162/152/4
f 144/138/4 162/152/4 146/141/4
f 145/72/1 146/63/1 148/74/1
f 146/63/1 149/65/1 148/74/1
f 146/141/4 162/152/4 163/153/4
f 146/141/4 163/153/4 147/142/4
f 147/142/4 163/153/4 164/154/4
f 147/142/4 164/154/4 149/143/4
f 149/143/4 164/154/4 165/155/4
f 149/143/4 165/155/4 151/144/4
f 150/75/1 151/66/1 152/76/1
f 151/66/1 153/67/1 152/76/1
f 151/144/4 165/155/4 166/156/4
f 151/144/4 166/156/4 153/145/4
f 153/145/4 166/156/4 167/157/4
f 153/145/4 167/157/4 155/146/4
f 154/77/1 155/68/1 156/78/1
f 155/68/1 157/69/1 156/78/1
f 155/146/4 167/157/4 168/159/4
f 155/146/4 168/159/4 157/147/4
f 157/147/4 168/159/4 170/160/4
f 157/147/4 170/160/4 158/148/4
f 159/161/6 169/162/6 160/61/6
f 160/61/6 169/162/6 170/70/6
