# exported by ae3d_export.py v3
# object: Street_BlockL1_Glass
mtllib Street_BlockL1_Glass.mtl
v -4.735000 0.560000 -0.225000
v -4.735000 2.030000 -0.225000
v -4.735000 3.710000 -0.225000
v -4.735000 5.180000 -0.225000
v -4.735000 6.860000 -0.225000
v -4.735000 8.330000 -0.225000
v -3.665000 0.560000 -0.225000
v -3.665000 2.030000 -0.225000
v -3.665000 3.710000 -0.225000
v -3.665000 5.180000 -0.225000
v -3.665000 6.860000 -0.225000
v -3.665000 8.330000 -0.225000
v -1.935000 0.560000 -0.225000
v -1.935000 2.030000 -0.225000
v -1.935000 6.860000 -0.225000
v -1.935000 8.330000 -0.225000
v -0.865000 0.560000 -0.225000
v -0.865000 2.030000 -0.225000
v -0.865000 6.860000 -0.225000
v -0.865000 8.330000 -0.225000
v 0.765000 -0.370000 -0.225000
v 0.765000 1.980000 -0.225000
v 0.865000 3.710000 -0.225000
v 0.865000 5.180000 -0.225000
v 1.935000 3.710000 -0.225000
v 1.935000 5.180000 -0.225000
v 2.035000 -0.370000 -0.225000
v 2.035000 1.980000 -0.225000
v 3.665000 6.860000 -0.225000
v 3.665000 8.330000 -0.225000
v 4.735000 6.860000 -0.225000
v 4.735000 8.330000 -0.225000
vt 0.000000 0.000000
vt 0.000000 1.000000
vt 1.000000 0.000000
vt 1.000000 1.000000
vn 0.000000 0.000000 -1.000000
vn 0.000000 0.000000 1.000000
usemtl WindowGlass
f 1/1/1 2/2/1 8/4/1
f 1/1/1 8/4/1 7/3/1
f 3/1/2 9/3/2 10/4/2
f 3/1/2 10/4/2 4/2/2
f 5/1/2 11/3/2 12/4/2
f 5/1/2 12/4/2 6/2/2
f 13/1/2 17/3/2 18/4/2
f 13/1/2 18/4/2 14/2/2
f 15/1/2 19/3/2 20/4/2
f 15/1/2 20/4/2 16/2/2
f 21/1/2 27/3/2 28/4/2
f 21/1/2 28/4/2 22/2/2
f 23/1/2 25/3/2 26/4/2
f 23/1/2 26/4/2 24/2/2
f 29/1/2 31/3/2 32/4/2
f 29/1/2 32/4/2 30/2/2
