# exported by ae3d_export.py v1
# object: Street_Lamp3
mtllib Street_Lamp3.mtl
v -0.090000 -2.300000 -0.090000
v -0.090000 -2.300000 0.090000
v -0.090000 2.300000 -0.090000
v -0.090000 2.300000 0.090000
v 0.090000 -2.300000 -0.090000
v 0.090000 -2.300000 0.090000
v 0.090000 2.300000 -0.090000
v 0.090000 2.300000 0.090000
vt 0.125000 0.500000
vt 0.125000 0.750000
vt 0.375000 0.000000
vt 0.375000 0.250000
vt 0.375000 0.500000
vt 0.375000 0.750000
vt 0.375000 1.000000
vt 0.625000 0.000000
vt 0.625000 0.250000
vt 0.625000 0.500000
vt 0.625000 0.750000
vt 0.625000 1.000000
vt 0.875000 0.500000
vt 0.875000 0.750000
vn -1.000000 0.000000 0.000000
vn 0.000000 -1.000000 0.000000
vn 0.000000 0.000000 -1.000000
vn 0.000000 0.000000 1.000000
vn 0.000000 1.000000 0.000000
vn 1.000000 0.000000 0.000000
usemtl StreetLamp
f 1/1/2 5/5/2 6/6/2
f 1/1/2 6/6/2 2/2/2
f 1/4/1 2/3/1 3/9/1
f 1/4/3 3/9/3 7/10/3
f 1/4/3 7/10/3 5/5/3
f 2/3/1 4/8/1 3/9/1
f 2/7/4 6/6/4 4/12/4
f 3/13/5 4/14/5 7/10/5
f 4/12/4 6/6/4 8/11/4
f 4/14/5 8/11/5 7/10/5
f 5/5/6 7/10/6 8/11/6
f 5/5/6 8/11/6 6/6/6
