# exported by ae3d_export.py v3
# object: Street_BlockL2_Trim
mtllib Street_BlockL2_Trim.mtl
v -5.700000 13.080000 0.000000
v -5.700000 13.080000 0.260000
v -5.700000 13.500000 0.000000
v -5.700000 13.500000 0.260000
v -5.600000 2.620000 0.000000
v -5.600000 2.620000 0.049500
v -5.600000 2.690000 0.000000
v -5.600000 2.690000 0.049500
v -5.600000 5.770000 0.000000
v -5.600000 5.770000 0.049500
v -5.600000 5.840000 0.000000
v -5.600000 5.840000 0.049500
v -5.600000 8.920000 0.000000
v -5.600000 8.920000 0.049500
v -5.600000 8.990000 0.000000
v -5.600000 8.990000 0.049500
v -5.600000 12.070000 0.000000
v -5.600000 12.070000 0.049500
v -5.600000 12.140000 0.000000
v -5.600000 12.140000 0.049500
v -4.865000 0.410000 0.000000
v -4.865000 0.410000 0.090000
v -4.865000 0.490000 0.000000
v -4.865000 0.490000 0.090000
v -4.865000 3.560000 0.000000
v -4.865000 3.560000 0.090000
v -4.865000 3.640000 0.000000
v -4.865000 3.640000 0.090000
v -4.865000 6.710000 0.000000
v -4.865000 6.710000 0.090000
v -4.865000 6.790000 0.000000
v -4.865000 6.790000 0.090000
v -4.865000 9.860000 0.000000
v -4.865000 9.860000 0.090000
v -4.865000 9.940000 0.000000
v -4.865000 9.940000 0.090000
v -4.225000 0.530000 -0.225000
v -4.225000 0.530000 -0.195000
v -4.225000 2.000000 -0.225000
v -4.225000 2.000000 -0.195000
v -4.225000 3.680000 -0.225000
v -4.225000 3.680000 -0.195000
v -4.225000 5.150000 -0.225000
v -4.225000 5.150000 -0.195000
v -4.225000 6.830000 -0.225000
v -4.225000 6.830000 -0.195000
v -4.225000 8.300000 -0.225000
v -4.225000 8.300000 -0.195000
v -4.225000 9.980000 -0.225000
v -4.225000 9.980000 -0.195000
v -4.225000 11.450000 -0.225000
v -4.225000 11.450000 -0.195000
v -4.175000 0.530000 -0.225000
v -4.175000 0.530000 -0.195000
v -4.175000 2.000000 -0.225000
v -4.175000 2.000000 -0.195000
v -4.175000 3.680000 -0.225000
v -4.175000 3.680000 -0.195000
v -4.175000 5.150000 -0.225000
v -4.175000 5.150000 -0.195000
v -4.175000 6.830000 -0.225000
v -4.175000 6.830000 -0.195000
v -4.175000 8.300000 -0.225000
v -4.175000 8.300000 -0.195000
v -4.175000 9.980000 -0.225000
v -4.175000 9.980000 -0.195000
v -4.175000 11.450000 -0.225000
v -4.175000 11.450000 -0.195000
v -3.535000 0.410000 0.000000
v -3.535000 0.410000 0.090000
v -3.535000 0.490000 0.000000
v -3.535000 0.490000 0.090000
v -3.535000 3.560000 0.000000
v -3.535000 3.560000 0.090000
v -3.535000 3.640000 0.000000
v -3.535000 3.640000 0.090000
v -3.535000 6.710000 0.000000
v -3.535000 6.710000 0.090000
v -3.535000 6.790000 0.000000
v -3.535000 6.790000 0.090000
v -3.535000 9.860000 0.000000
v -3.535000 9.860000 0.090000
v -3.535000 9.940000 0.000000
v -3.535000 9.940000 0.090000
v -2.065000 0.410000 0.000000
v -2.065000 0.410000 0.090000
v -2.065000 0.490000 0.000000
v -2.065000 0.490000 0.090000
v -2.065000 3.560000 0.000000
v -2.065000 3.560000 0.090000
v -2.065000 3.640000 0.000000
v -2.065000 3.640000 0.090000
v -2.065000 6.710000 0.000000
v -2.065000 6.710000 0.090000
v -2.065000 6.790000 0.000000
v -2.065000 6.790000 0.090000
v -2.065000 9.860000 0.000000
v -2.065000 9.860000 0.090000
v -2.065000 9.940000 0.000000
v -2.065000 9.940000 0.090000
v -1.425000 0.530000 -0.225000
v -1.425000 0.530000 -0.195000
v -1.425000 2.000000 -0.225000
v -1.425000 2.000000 -0.195000
v -1.425000 3.680000 -0.225000
v -1.425000 3.680000 -0.195000
v -1.425000 5.150000 -0.225000
v -1.425000 5.150000 -0.195000
v -1.425000 6.830000 -0.225000
v -1.425000 6.830000 -0.195000
v -1.425000 8.300000 -0.225000
v -1.425000 8.300000 -0.195000
v -1.425000 9.980000 -0.225000
v -1.425000 9.980000 -0.195000
v -1.425000 11.450000 -0.225000
v -1.425000 11.450000 -0.195000
v -1.375000 0.530000 -0.225000
v -1.375000 0.530000 -0.195000
v -1.375000 2.000000 -0.225000
v -1.375000 2.000000 -0.195000
v -1.375000 3.680000 -0.225000
v -1.375000 3.680000 -0.195000
v -1.375000 5.150000 -0.225000
v -1.375000 5.150000 -0.195000
v -1.375000 6.830000 -0.225000
v -1.375000 6.830000 -0.195000
v -1.375000 8.300000 -0.225000
v -1.375000 8.300000 -0.195000
v -1.375000 9.980000 -0.225000
v -1.375000 9.980000 -0.195000
v -1.375000 11.450000 -0.225000
v -1.375000 11.450000 -0.195000
v -0.735000 0.410000 0.000000
v -0.735000 0.410000 0.090000
v -0.735000 0.490000 0.000000
v -0.735000 0.490000 0.090000
v -0.735000 3.560000 0.000000
v -0.735000 3.560000 0.090000
v -0.735000 3.640000 0.000000
v -0.735000 3.640000 0.090000
v -0.735000 6.710000 0.000000
v -0.735000 6.710000 0.090000
v -0.735000 6.790000 0.000000
v -0.735000 6.790000 0.090000
v -0.735000 9.860000 0.000000
v -0.735000 9.860000 0.090000
v -0.735000 9.940000 0.000000
v -0.735000 9.940000 0.090000
v 0.605000 -0.440000 0.000000
v 0.605000 -0.440000 0.144000
v 0.605000 2.150000 0.000000
v 0.605000 2.150000 0.144000
v 0.735000 3.560000 0.000000
v 0.735000 3.560000 0.090000
v 0.735000 3.640000 0.000000
v 0.735000 3.640000 0.090000
v 0.735000 6.710000 0.000000
v 0.735000 6.710000 0.090000
v 0.735000 6.790000 0.000000
v 0.735000 6.790000 0.090000
v 0.735000 9.860000 0.000000
v 0.735000 9.860000 0.090000
v 0.735000 9.940000 0.000000
v 0.735000 9.940000 0.090000
v 1.375000 3.680000 -0.225000
v 1.375000 3.680000 -0.195000
v 1.375000 5.150000 -0.225000
v 1.375000 5.150000 -0.195000
v 1.375000 6.830000 -0.225000
v 1.375000 6.830000 -0.195000
v 1.375000 8.300000 -0.225000
v 1.375000 8.300000 -0.195000
v 1.375000 9.980000 -0.225000
v 1.375000 9.980000 -0.195000
v 1.375000 11.450000 -0.225000
v 1.375000 11.450000 -0.195000
v 1.425000 3.680000 -0.225000
v 1.425000 3.680000 -0.195000
v 1.425000 5.150000 -0.225000
v 1.425000 5.150000 -0.195000
v 1.425000 6.830000 -0.225000
v 1.425000 6.830000 -0.195000
v 1.425000 8.300000 -0.225000
v 1.425000 8.300000 -0.195000
v 1.425000 9.980000 -0.225000
v 1.425000 9.980000 -0.195000
v 1.425000 11.450000 -0.225000
v 1.425000 11.450000 -0.195000
v 2.065000 3.560000 0.000000
v 2.065000 3.560000 0.090000
v 2.065000 3.640000 0.000000
v 2.065000 3.640000 0.090000
v 2.065000 6.710000 0.000000
v 2.065000 6.710000 0.090000
v 2.065000 6.790000 0.000000
v 2.065000 6.790000 0.090000
v 2.065000 9.860000 0.000000
v 2.065000 9.860000 0.090000
v 2.065000 9.940000 0.000000
v 2.065000 9.940000 0.090000
v 2.195000 -0.440000 0.000000
v 2.195000 -0.440000 0.144000
v 2.195000 2.150000 0.000000
v 2.195000 2.150000 0.144000
v 3.535000 0.410000 0.000000
v 3.535000 0.410000 0.090000
v 3.535000 0.490000 0.000000
v 3.535000 0.490000 0.090000
v 3.535000 3.560000 0.000000
v 3.535000 3.560000 0.090000
v 3.535000 3.640000 0.000000
v 3.535000 3.640000 0.090000
v 3.535000 6.710000 0.000000
v 3.535000 6.710000 0.090000
v 3.535000 6.790000 0.000000
v 3.535000 6.790000 0.090000
v 3.535000 9.860000 0.000000
v 3.535000 9.860000 0.090000
v 3.535000 9.940000 0.000000
v 3.535000 9.940000 0.090000
v 4.175000 0.530000 -0.225000
v 4.175000 0.530000 -0.195000
v 4.175000 2.000000 -0.225000
v 4.175000 2.000000 -0.195000
v 4.175000 3.680000 -0.225000
v 4.175000 3.680000 -0.195000
v 4.175000 5.150000 -0.225000
v 4.175000 5.150000 -0.195000
v 4.175000 6.830000 -0.225000
v 4.175000 6.830000 -0.195000
v 4.175000 8.300000 -0.225000
v 4.175000 8.300000 -0.195000
v 4.175000 9.980000 -0.225000
v 4.175000 9.980000 -0.195000
v 4.175000 11.450000 -0.225000
v 4.175000 11.450000 -0.195000
v 4.225000 0.530000 -0.225000
v 4.225000 0.530000 -0.195000
v 4.225000 2.000000 -0.225000
v 4.225000 2.000000 -0.195000
v 4.225000 3.680000 -0.225000
v 4.225000 3.680000 -0.195000
v 4.225000 5.150000 -0.225000
v 4.225000 5.150000 -0.195000
v 4.225000 6.830000 -0.225000
v 4.225000 6.830000 -0.195000
v 4.225000 8.300000 -0.225000
v 4.225000 8.300000 -0.195000
v 4.225000 9.980000 -0.225000
v 4.225000 9.980000 -0.195000
v 4.225000 11.450000 -0.225000
v 4.225000 11.450000 -0.195000
v 4.865000 0.410000 0.000000
v 4.865000 0.410000 0.090000
v 4.865000 0.490000 0.000000
v 4.865000 0.490000 0.090000
v 4.865000 3.560000 0.000000
v 4.865000 3.560000 0.090000
v 4.865000 3.640000 0.000000
v 4.865000 3.640000 0.090000
v 4.865000 6.710000 0.000000
v 4.865000 6.710000 0.090000
v 4.865000 6.790000 0.000000
v 4.865000 6.790000 0.090000
v 4.865000 9.860000 0.000000
v 4.865000 9.860000 0.090000
v 4.865000 9.940000 0.000000
v 4.865000 9.940000 0.090000
v 5.600000 2.620000 0.000000
v 5.600000 2.620000 0.049500
v 5.600000 2.690000 0.000000
v 5.600000 2.690000 0.049500
v 5.600000 5.770000 0.000000
v 5.600000 5.770000 0.049500
v 5.600000 5.840000 0.000000
v 5.600000 5.840000 0.049500
v 5.600000 8.920000 0.000000
v 5.600000 8.920000 0.049500
v 5.600000 8.990000 0.000000
v 5.600000 8.990000 0.049500
v 5.600000 12.070000 0.000000
v 5.600000 12.070000 0.049500
v 5.600000 12.140000 0.000000
v 5.600000 12.140000 0.049500
v 5.700000 13.080000 0.000000
v 5.700000 13.080000 0.260000
v 5.700000 13.500000 0.000000
v 5.700000 13.500000 0.260000
vt -12.540000 -0.572000
vt -12.540000 0.000000
vt -12.540000 28.775999
vt -12.540000 29.700001
vt -12.320000 -0.108900
vt -12.320000 0.000000
vt -12.320000 5.764000
vt -12.320000 5.918000
vt -12.320000 12.694000
vt -12.320000 12.848001
vt -12.320000 19.624001
vt -12.320000 19.778000
vt -12.320000 26.553999
vt -12.320000 26.708000
vt -10.702999 -0.198000
vt -10.702999 0.000000
vt -10.702999 0.902000
vt -10.702999 1.078000
vt -10.702999 7.832000
vt -10.702999 8.008000
vt -10.702999 14.762000
vt -10.702999 14.938000
vt -10.702999 21.691999
vt -10.702999 21.868000
vt -9.295000 0.429000
vt -9.295000 0.495000
vt -9.295000 1.166000
vt -9.295000 4.400000
vt -9.295000 8.096000
vt -9.295000 11.330000
vt -9.295000 15.026000
vt -9.295000 18.260000
vt -9.295000 21.955999
vt -9.295000 25.190001
vt -9.185000 0.429000
vt -9.185000 0.495000
vt -9.185000 1.166000
vt -9.185000 4.400000
vt -9.185000 8.096000
vt -9.185000 11.330000
vt -9.185000 15.026000
vt -9.185000 18.260000
vt -9.185000 21.955999
vt -9.185000 25.190001
vt -7.777000 -0.198000
vt -7.777000 0.000000
vt -7.777000 0.902000
vt -7.777000 1.078000
vt -7.777000 7.832000
vt -7.777000 8.008000
vt -7.777000 14.762000
vt -7.777000 14.938000
vt -7.777000 21.691999
vt -7.777000 21.868000
vt -4.543000 -0.198000
vt -4.543000 0.000000
vt -4.543000 0.902000
vt -4.543000 1.078000
vt -4.543000 7.832000
vt -4.543000 8.008000
vt -4.543000 14.762000
vt -4.543000 14.938000
vt -4.543000 21.691999
vt -4.543000 21.868000
vt -3.135000 0.429000
vt -3.135000 0.495000
vt -3.135000 1.166000
vt -3.135000 4.400000
vt -3.135000 8.096000
vt -3.135000 11.330000
vt -3.135000 15.026000
vt -3.135000 18.260000
vt -3.135000 21.955999
vt -3.135000 25.190001
vt -3.025000 0.429000
vt -3.025000 0.495000
vt -3.025000 1.166000
vt -3.025000 4.400000
vt -3.025000 8.096000
vt -3.025000 11.330000
vt -3.025000 15.026000
vt -3.025000 18.260000
vt -3.025000 21.955999
vt -3.025000 25.190001
vt -1.617000 -0.198000
vt -1.617000 0.000000
vt -1.617000 0.902000
vt -1.617000 1.078000
vt -1.617000 7.832000
vt -1.617000 8.008000
vt -1.617000 14.762000
vt -1.617000 14.938000
vt -1.617000 21.691999
vt -1.617000 21.868000
vt -0.572000 28.775999
vt -0.572000 29.700001
vt -0.316800 -0.968000
vt -0.316800 4.730000
vt -0.198000 0.902000
vt -0.198000 1.078000
vt -0.198000 7.832000
vt -0.198000 8.008000
vt -0.198000 14.762000
vt -0.198000 14.938000
vt -0.198000 21.691999
vt -0.198000 21.868000
vt -0.108900 5.764000
vt -0.108900 5.918000
vt -0.108900 12.694000
vt -0.108900 12.848001
vt -0.108900 19.624001
vt -0.108900 19.778000
vt -0.108900 26.553999
vt -0.108900 26.708000
vt 0.000000 -0.968000
vt 0.000000 0.902000
vt 0.000000 1.078000
vt 0.000000 4.730000
vt 0.000000 5.764000
vt 0.000000 5.918000
vt 0.000000 7.832000
vt 0.000000 8.008000
vt 0.000000 12.694000
vt 0.000000 12.848001
vt 0.000000 14.762000
vt 0.000000 14.938000
vt 0.000000 19.624001
vt 0.000000 19.778000
vt 0.000000 21.691999
vt 0.000000 21.868000
vt 0.000000 26.553999
vt 0.000000 26.708000
vt 0.000000 28.775999
vt 0.000000 29.700001
vt 0.429000 1.166000
vt 0.429000 4.400000
vt 0.429000 8.096000
vt 0.429000 11.330000
vt 0.429000 15.026000
vt 0.429000 18.260000
vt 0.429000 21.955999
vt 0.429000 25.190001
vt 0.495000 1.166000
vt 0.495000 4.400000
vt 0.495000 8.096000
vt 0.495000 11.330000
vt 0.495000 15.026000
vt 0.495000 18.260000
vt 0.495000 21.955999
vt 0.495000 25.190001
vt 1.331000 -0.968000
vt 1.331000 -0.316800
vt 1.331000 0.000000
vt 1.331000 4.730000
vt 1.617000 -0.198000
vt 1.617000 0.000000
vt 1.617000 7.832000
vt 1.617000 8.008000
vt 1.617000 14.762000
vt 1.617000 14.938000
vt 1.617000 21.691999
vt 1.617000 21.868000
vt 3.025000 0.429000
vt 3.025000 0.495000
vt 3.025000 8.096000
vt 3.025000 11.330000
vt 3.025000 15.026000
vt 3.025000 18.260000
vt 3.025000 21.955999
vt 3.025000 25.190001
vt 3.135000 0.429000
vt 3.135000 0.495000
vt 3.135000 8.096000
vt 3.135000 11.330000
vt 3.135000 15.026000
vt 3.135000 18.260000
vt 3.135000 21.955999
vt 3.135000 25.190001
vt 4.543000 -0.198000
vt 4.543000 0.000000
vt 4.543000 7.832000
vt 4.543000 8.008000
vt 4.543000 14.762000
vt 4.543000 14.938000
vt 4.543000 21.691999
vt 4.543000 21.868000
vt 4.829000 -0.968000
vt 4.829000 -0.316800
vt 4.829000 0.000000
vt 4.829000 4.730000
vt 7.777000 -0.198000
vt 7.777000 0.000000
vt 7.777000 0.902000
vt 7.777000 1.078000
vt 7.777000 7.832000
vt 7.777000 8.008000
vt 7.777000 14.762000
vt 7.777000 14.938000
vt 7.777000 21.691999
vt 7.777000 21.868000
vt 9.185000 0.429000
vt 9.185000 0.495000
vt 9.185000 1.166000
vt 9.185000 4.400000
vt 9.185000 8.096000
vt 9.185000 11.330000
vt 9.185000 15.026000
vt 9.185000 18.260000
vt 9.185000 21.955999
vt 9.185000 25.190001
vt 9.295000 0.429000
vt 9.295000 0.495000
vt 9.295000 1.166000
vt 9.295000 4.400000
vt 9.295000 8.096000
vt 9.295000 11.330000
vt 9.295000 15.026000
vt 9.295000 18.260000
vt 9.295000 21.955999
vt 9.295000 25.190001
vt 10.702999 -0.198000
vt 10.702999 0.000000
vt 10.702999 0.902000
vt 10.702999 1.078000
vt 10.702999 7.832000
vt 10.702999 8.008000
vt 10.702999 14.762000
vt 10.702999 14.938000
vt 10.702999 21.691999
vt 10.702999 21.868000
vt 12.320000 -0.108900
vt 12.320000 0.000000
vt 12.320000 5.764000
vt 12.320000 5.918000
vt 12.320000 12.694000
vt 12.320000 12.848001
vt 12.320000 19.624001
vt 12.320000 19.778000
vt 12.320000 26.553999
vt 12.320000 26.708000
vt 12.540000 -0.572000
vt 12.540000 0.000000
vt 12.540000 28.775999
vt 12.540000 29.700001
vn -1.000000 0.000000 0.000000
vn 0.000000 -1.000000 0.000000
vn 0.000000 0.000000 -1.000000
vn 0.000000 0.000000 1.000000
vn 0.000000 1.000000 0.000000
vn 1.000000 0.000000 0.000000
usemtl TrimStone
f 1/2/2 285/242/2 2/1/2
f 1/3/3 3/4/3 287/244/3
f 1/3/3 287/244/3 285/243/3
f 1/133/1 2/95/1 3/134/1
f 2/1/2 285/242/2 286/241/2
f 2/3/4 286/243/4 288/244/4
f 2/3/4 288/244/4 4/4/4
f 2/95/1 4/96/1 3/134/1
f 3/2/5 4/1/5 287/242/5
f 4/1/5 288/241/5 287/242/5
f 5/6/2 269/232/2 6/5/2
f 5/7/3 7/8/3 271/234/3
f 5/7/3 271/234/3 269/233/3
f 5/119/1 6/107/1 7/120/1
f 6/5/2 269/232/2 270/231/2
f 6/7/4 270/233/4 272/234/4
f 6/7/4 272/234/4 8/8/4
f 6/107/1 8/108/1 7/120/1
f 7/6/5 8/5/5 271/232/5
f 8/5/5 272/231/5 271/232/5
f 9/6/2 273/232/2 10/5/2
f 9/9/3 11/10/3 275/236/3
f 9/9/3 275/236/3 273/235/3
f 9/123/1 10/109/1 11/124/1
f 10/5/2 273/232/2 274/231/2
f 10/9/4 274/235/4 276/236/4
f 10/9/4 276/236/4 12/10/4
f 10/109/1 12/110/1 11/124/1
f 11/6/5 12/5/5 275/232/5
f 12/5/5 276/231/5 275/232/5
f 13/6/2 277/232/2 14/5/2
f 13/11/3 15/12/3 279/238/3
f 13/11/3 279/238/3 277/237/3
f 13/127/1 14/111/1 15/128/1
f 14/5/2 277/232/2 278/231/2
f 14/11/4 278/237/4 280/238/4
f 14/11/4 280/238/4 16/12/4
f 14/111/1 16/112/1 15/128/1
f 15/6/5 16/5/5 279/232/5
f 16/5/5 280/231/5 279/232/5
f 17/6/2 281/232/2 18/5/2
f 17/13/3 19/14/3 283/240/3
f 17/13/3 283/240/3 281/239/3
f 17/131/1 18/113/1 19/132/1
f 18/5/2 281/232/2 282/231/2
f 18/13/4 282/239/4 284/240/4
f 18/13/4 284/240/4 20/14/4
f 18/113/1 20/114/1 19/132/1
f 19/6/5 20/5/5 283/232/5
f 20/5/5 284/231/5 283/232/5
f 21/16/2 69/46/2 22/15/2
f 21/17/3 23/18/3 71/48/3
f 21/17/3 71/48/3 69/47/3
f 21/116/1 22/99/1 23/117/1
f 22/15/2 69/46/2 70/45/2
f 22/17/4 70/47/4 72/48/4
f 22/17/4 72/48/4 24/18/4
f 22/99/1 24/100/1 23/117/1
f 23/16/5 24/15/5 71/46/5
f 24/15/5 72/45/5 71/46/5
f 25/16/2 73/46/2 26/15/2
f 25/19/3 27/20/3 75/50/3
f 25/19/3 75/50/3 73/49/3
f 25/121/1 26/101/1 27/122/1
f 26/15/2 73/46/2 74/45/2
f 26/19/4 74/49/4 76/50/4
f 26/19/4 76/50/4 28/20/4
f 26/101/1 28/102/1 27/122/1
f 27/16/5 28/15/5 75/46/5
f 28/15/5 76/45/5 75/46/5
f 29/16/2 77/46/2 30/15/2
f 29/21/3 31/22/3 79/52/3
f 29/21/3 79/52/3 77/51/3
f 29/125/1 30/103/1 31/126/1
f 30/15/2 77/46/2 78/45/2
f 30/21/4 78/51/4 80/52/4
f 30/21/4 80/52/4 32/22/4
f 30/103/1 32/104/1 31/126/1
f 31/16/5 32/15/5 79/46/5
f 32/15/5 80/45/5 79/46/5
f 33/16/2 81/46/2 34/15/2
f 33/23/3 35/24/3 83/54/3
f 33/23/3 83/54/3 81/53/3
f 33/129/1 34/105/1 35/130/1
f 34/15/2 81/46/2 82/45/2
f 34/23/4 82/53/4 84/54/4
f 34/23/4 84/54/4 36/24/4
f 34/105/1 36/106/1 35/130/1
f 35/16/5 36/15/5 83/46/5
f 36/15/5 84/45/5 83/46/5
f 37/26/2 53/36/2 38/25/2
f 37/27/3 39/28/3 55/38/3
f 37/27/3 55/38/3 53/37/3
f 37/143/1 38/135/1 39/144/1
f 38/25/2 53/36/2 54/35/2
f 38/27/4 54/37/4 56/38/4
f 38/27/4 56/38/4 40/28/4
f 38/135/1 40/136/1 39/144/1
f 39/26/5 40/25/5 55/36/5
f 40/25/5 56/35/5 55/36/5
f 41/26/2 57/36/2 42/25/2
f 41/29/3 43/30/3 59/40/3
f 41/29/3 59/40/3 57/39/3
f 41/145/1 42/137/1 43/146/1
f 42/25/2 57/36/2 58/35/2
f 42/29/4 58/39/4 60/40/4
f 42/29/4 60/40/4 44/30/4
f 42/137/1 44/138/1 43/146/1
f 43/26/5 44/25/5 59/36/5
f 44/25/5 60/35/5 59/36/5
f 45/26/2 61/36/2 46/25/2
f 45/31/3 47/32/3 63/42/3
f 45/31/3 63/42/3 61/41/3
f 45/147/1 46/139/1 47/148/1
f 46/25/2 61/36/2 62/35/2
f 46/31/4 62/41/4 64/42/4
f 46/31/4 64/42/4 48/32/4
f 46/139/1 48/140/1 47/148/1
f 47/26/5 48/25/5 63/36/5
f 48/25/5 64/35/5 63/36/5
f 49/26/2 65/36/2 50/25/2
f 49/33/3 51/34/3 67/44/3
f 49/33/3 67/44/3 65/43/3
f 49/149/1 50/141/1 51/150/1
f 50/25/2 65/36/2 66/35/2
f 50/33/4 66/43/4 68/44/4
f 50/33/4 68/44/4 52/34/4
f 50/141/1 52/142/1 51/150/1
f 51/26/5 52/25/5 67/36/5
f 52/25/5 68/35/5 67/36/5
f 53/143/6 55/144/6 54/135/6
f 54/135/6 55/144/6 56/136/6
f 57/145/6 59/146/6 58/137/6
f 58/137/6 59/146/6 60/138/6
f 61/147/6 63/148/6 62/139/6
f 62/139/6 63/148/6 64/140/6
f 65/149/6 67/150/6 66/141/6
f 66/141/6 67/150/6 68/142/6
f 69/116/6 71/117/6 70/99/6
f 70/99/6 71/117/6 72/100/6
f 73/121/6 75/122/6 74/101/6
f 74/101/6 75/122/6 76/102/6
f 77/125/6 79/126/6 78/103/6
f 78/103/6 79/126/6 80/104/6
f 81/129/6 83/130/6 82/105/6
f 82/105/6 83/130/6 84/106/6
f 85/56/2 133/86/2 86/55/2
f 85/57/3 87/58/3 135/88/3
f 85/57/3 135/88/3 133/87/3
f 85/116/1 86/99/1 87/117/1
f 86/55/2 133/86/2 134/85/2
f 86/57/4 134/87/4 136/88/4
f 86/57/4 136/88/4 88/58/4
f 86/99/1 88/100/1 87/117/1
f 87/56/5 88/55/5 135/86/5
f 88/55/5 136/85/5 135/86/5
f 89/56/2 137/86/2 90/55/2
f 89/59/3 91/60/3 139/90/3
f 89/59/3 139/90/3 137/89/3
f 89/121/1 90/101/1 91/122/1
f 90/55/2 137/86/2 138/85/2
f 90/59/4 138/89/4 140/90/4
f 90/59/4 140/90/4 92/60/4
f 90/101/1 92/102/1 91/122/1
f 91/56/5 92/55/5 139/86/5
f 92/55/5 140/85/5 139/86/5
f 93/56/2 141/86/2 94/55/2
f 93/61/3 95/62/3 143/92/3
f 93/61/3 143/92/3 141/91/3
f 93/125/1 94/103/1 95/126/1
f 94/55/2 141/86/2 142/85/2
f 94/61/4 142/91/4 144/92/4
f 94/61/4 144/92/4 96/62/4
f 94/103/1 96/104/1 95/126/1
f 95/56/5 96/55/5 143/86/5
f 96/55/5 144/85/5 143/86/5
f 97/56/2 145/86/2 98/55/2
f 97/63/3 99/64/3 147/94/3
f 97/63/3 147/94/3 145/93/3
f 97/129/1 98/105/1 99/130/1
f 98/55/2 145/86/2 146/85/2
f 98/63/4 146/93/4 148/94/4
f 98/63/4 148/94/4 100/64/4
f 98/105/1 100/106/1 99/130/1
f 99/56/5 100/55/5 147/86/5
f 100/55/5 148/85/5 147/86/5
f 101/66/2 117/76/2 102/65/2
f 101/67/3 103/68/3 119/78/3
f 101/67/3 119/78/3 117/77/3
f 101/143/1 102/135/1 103/144/1
f 102/65/2 117/76/2 118/75/2
f 102/67/4 118/77/4 120/78/4
f 102/67/4 120/78/4 104/68/4
f 102/135/1 104/136/1 103/144/1
f 103/66/5 104/65/5 119/76/5
f 104/65/5 120/75/5 119/76/5
f 105/66/2 121/76/2 106/65/2
f 105/69/3 107/70/3 123/80/3
f 105/69/3 123/80/3 121/79/3
f 105/145/1 106/137/1 107/146/1
f 106/65/2 121/76/2 122/75/2
f 106/69/4 122/79/4 124/80/4
f 106/69/4 124/80/4 108/70/4
f 106/137/1 108/138/1 107/146/1
f 107/66/5 108/65/5 123/76/5
f 108/65/5 124/75/5 123/76/5
f 109/66/2 125/76/2 110/65/2
f 109/71/3 111/72/3 127/82/3
f 109/71/3 127/82/3 125/81/3
f 109/147/1 110/139/1 111/148/1
f 110/65/2 125/76/2 126/75/2
f 110/71/4 126/81/4 128/82/4
f 110/71/4 128/82/4 112/72/4
f 110/139/1 112/140/1 111/148/1
f 111/66/5 112/65/5 127/76/5
f 112/65/5 128/75/5 127/76/5
f 113/66/2 129/76/2 114/65/2
f 113/73/3 115/74/3 131/84/3
f 113/73/3 131/84/3 129/83/3
f 113/149/1 114/141/1 115/150/1
f 114/65/2 129/76/2 130/75/2
f 114/73/4 130/83/4 132/84/4
f 114/73/4 132/84/4 116/74/4
f 114/141/1 116/142/1 115/150/1
f 115/66/5 116/65/5 131/76/5
f 116/65/5 132/75/5 131/76/5
f 117/143/6 119/144/6 118/135/6
f 118/135/6 119/144/6 120/136/6
f 121/145/6 123/146/6 122/137/6
f 122/137/6 123/146/6 124/138/6
f 125/147/6 127/148/6 126/139/6
f 126/139/6 127/148/6 128/140/6
f 129/149/6 131/150/6 130/141/6
f 130/141/6 131/150/6 132/142/6
f 133/116/6 135/117/6 134/99/6
f 134/99/6 135/117/6 136/100/6
f 137/121/6 139/122/6 138/101/6
f 138/101/6 139/122/6 140/102/6
f 141/125/6 143/126/6 142/103/6
f 142/103/6 143/126/6 144/104/6
f 145/129/6 147/130/6 146/105/6
f 146/105/6 147/130/6 148/106/6
f 149/115/1 150/97/1 151/118/1
f 149/151/3 151/154/3 203/190/3
f 149/151/3 203/190/3 201/187/3
f 149/153/2 201/189/2 150/152/2
f 150/97/1 152/98/1 151/118/1
f 150/151/4 202/187/4 204/190/4
f 150/151/4 204/190/4 152/154/4
f 150/152/2 201/189/2 202/188/2
f 151/153/5 152/152/5 203/189/5
f 152/152/5 204/188/5 203/189/5
f 153/121/1 154/101/1 155/122/1
f 153/156/2 189/180/2 154/155/2
f 153/157/3 155/158/3 191/182/3
f 153/157/3 191/182/3 189/181/3
f 154/101/1 156/102/1 155/122/1
f 154/155/2 189/180/2 190/179/2
f 154/157/4 190/181/4 192/182/4
f 154/157/4 192/182/4 156/158/4
f 155/156/5 156/155/5 191/180/5
f 156/155/5 192/179/5 191/180/5
f 157/125/1 158/103/1 159/126/1
f 157/156/2 193/180/2 158/155/2
f 157/159/3 159/160/3 195/184/3
f 157/159/3 195/184/3 193/183/3
f 158/103/1 160/104/1 159/126/1
f 158/155/2 193/180/2 194/179/2
f 158/159/4 194/183/4 196/184/4
f 158/159/4 196/184/4 160/160/4
f 159/156/5 160/155/5 195/180/5
f 160/155/5 196/179/5 195/180/5
f 161/129/1 162/105/1 163/130/1
f 161/156/2 197/180/2 162/155/2
f 161/161/3 163/162/3 199/186/3
f 161/161/3 199/186/3 197/185/3
f 162/105/1 164/106/1 163/130/1
f 162/155/2 197/180/2 198/179/2
f 162/161/4 198/185/4 200/186/4
f 162/161/4 200/186/4 164/162/4
f 163/156/5 164/155/5 199/180/5
f 164/155/5 200/179/5 199/180/5
f 165/145/1 166/137/1 167/146/1
f 165/164/2 177/172/2 166/163/2
f 165/165/3 167/166/3 179/174/3
f 165/165/3 179/174/3 177/173/3
f 166/137/1 168/138/1 167/146/1
f 166/163/2 177/172/2 178/171/2
f 166/165/4 178/173/4 180/174/4
f 166/165/4 180/174/4 168/166/4
f 167/164/5 168/163/5 179/172/5
f 168/163/5 180/171/5 179/172/5
f 169/147/1 170/139/1 171/148/1
f 169/164/2 181/172/2 170/163/2
f 169/167/3 171/168/3 183/176/3
f 169/167/3 183/176/3 181/175/3
f 170/139/1 172/140/1 171/148/1
f 170/163/2 181/172/2 182/171/2
f 170/167/4 182/175/4 184/176/4
f 170/167/4 184/176/4 172/168/4
f 171/164/5 172/163/5 183/172/5
f 172/163/5 184/171/5 183/172/5
f 173/149/1 174/141/1 175/150/1
f 173/164/2 185/172/2 174/163/2
f 173/169/3 175/170/3 187/178/3
f 173/169/3 187/178/3 185/177/3
f 174/141/1 176/142/1 175/150/1
f 174/163/2 185/172/2 186/171/2
f 174/169/4 186/177/4 188/178/4
f 174/169/4 188/178/4 176/170/4
f 175/164/5 176/163/5 187/172/5
f 176/163/5 188/171/5 187/172/5
f 177/145/6 179/146/6 178/137/6
f 178/137/6 179/146/6 180/138/6
f 181/147/6 183/148/6 182/139/6
f 182/139/6 183/148/6 184/140/6
f 185/149/6 187/150/6 186/141/6
f 186/141/6 187/150/6 188/142/6
f 189/121/6 191/122/6 190/101/6
f 190/101/6 191/122/6 192/102/6
f 193/125/6 195/126/6 194/103/6
f 194/103/6 195/126/6 196/104/6
f 197/129/6 199/130/6 198/105/6
f 198/105/6 199/130/6 200/106/6
f 201/115/6 203/118/6 202/97/6
f 202/97/6 203/118/6 204/98/6
f 205/116/1 206/99/1 207/117/1
f 205/192/2 253/222/2 206/191/2
f 205/193/3 207/194/3 255/224/3
f 205/193/3 255/224/3 253/223/3
f 206/99/1 208/100/1 207/117/1
f 206/191/2 253/222/2 254/221/2
f 206/193/4 254/223/4 256/224/4
f 206/193/4 256/224/4 208/194/4
f 207/192/5 208/191/5 255/222/5
f 208/191/5 256/221/5 255/222/5
f 209/121/1 210/101/1 211/122/1
f 209/192/2 257/222/2 210/191/2
f 209/195/3 211/196/3 259/226/3
f 209/195/3 259/226/3 257/225/3
f 210/101/1 212/102/1 211/122/1
f 210/191/2 257/222/2 258/221/2
f 210/195/4 258/225/4 260/226/4
f 210/195/4 260/226/4 212/196/4
f 211/192/5 212/191/5 259/222/5
f 212/191/5 260/221/5 259/222/5
f 213/125/1 214/103/1 215/126/1
f 213/192/2 261/222/2 214/191/2
f 213/197/3 215/198/3 263/228/3
f 213/197/3 263/228/3 261/227/3
f 214/103/1 216/104/1 215/126/1
f 214/191/2 261/222/2 262/221/2
f 214/197/4 262/227/4 264/228/4
f 214/197/4 264/228/4 216/198/4
f 215/192/5 216/191/5 263/222/5
f 216/191/5 264/221/5 263/222/5
f 217/129/1 218/105/1 219/130/1
f 217/192/2 265/222/2 218/191/2
f 217/199/3 219/200/3 267/230/3
f 217/199/3 267/230/3 265/229/3
f 218/105/1 220/106/1 219/130/1
f 218/191/2 265/222/2 266/221/2
f 218/199/4 266/229/4 268/230/4
f 218/199/4 268/230/4 220/200/4
f 219/192/5 220/191/5 267/222/5
f 220/191/5 268/221/5 267/222/5
f 221/143/1 222/135/1 223/144/1
f 221/202/2 237/212/2 222/201/2
f 221/203/3 223/204/3 239/214/3
f 221/203/3 239/214/3 237/213/3
f 222/135/1 224/136/1 223/144/1
f 222/201/2 237/212/2 238/211/2
f 222/203/4 238/213/4 240/214/4
f 222/203/4 240/214/4 224/204/4
f 223/202/5 224/201/5 239/212/5
f 224/201/5 240/211/5 239/212/5
f 225/145/1 226/137/1 227/146/1
f 225/202/2 241/212/2 226/201/2
f 225/205/3 227/206/3 243/216/3
f 225/205/3 243/216/3 241/215/3
f 226/137/1 228/138/1 227/146/1
f 226/201/2 241/212/2 242/211/2
f 226/205/4 242/215/4 244/216/4
f 226/205/4 244/216/4 228/206/4
f 227/202/5 228/201/5 243/212/5
f 228/201/5 244/211/5 243/212/5
f 229/147/1 230/139/1 231/148/1
f 229/202/2 245/212/2 230/201/2
f 229/207/3 231/208/3 247/218/3
f 229/207/3 247/218/3 245/217/3
f 230/139/1 232/140/1 231/148/1
f 230/201/2 245/212/2 246/211/2
f 230/207/4 246/217/4 248/218/4
f 230/207/4 248/218/4 232/208/4
f 231/202/5 232/201/5 247/212/5
f 232/201/5 248/211/5 247/212/5
f 233/149/1 234/141/1 235/150/1
f 233/202/2 249/212/2 234/201/2
f 233/209/3 235/210/3 251/220/3
f 233/209/3 251/220/3 249/219/3
f 234/141/1 236/142/1 235/150/1
f 234/201/2 249/212/2 250/211/2
f 234/209/4 250/219/4 252/220/4
f 234/209/4 252/220/4 236/210/4
f 235/202/5 236/201/5 251/212/5
f 236/201/5 252/211/5 251/212/5
f 237/143/6 239/144/6 238/135/6
f 238/135/6 239/144/6 240/136/6
f 241/145/6 243/146/6 242/137/6
f 242/137/6 243/146/6 244/138/6
f 245/147/6 247/148/6 246/139/6
f 246/139/6 247/148/6 248/140/6
f 249/149/6 251/150/6 250/141/6
f 250/141/6 251/150/6 252/142/6
f 253/116/6 255/117/6 254/99/6
f 254/99/6 255/117/6 256/100/6
f 257/121/6 259/122/6 258/101/6
f 258/101/6 259/122/6 260/102/6
f 261/125/6 263/126/6 262/103/6
f 262/103/6 263/126/6 264/104/6
f 265/129/6 267/130/6 266/105/6
f 266/105/6 267/130/6 268/106/6
f 269/119/6 271/120/6 270/107/6
f 270/107/6 271/120/6 272/108/6
f 273/123/6 275/124/6 274/109/6
f 274/109/6 275/124/6 276/110/6
f 277/127/6 279/128/6 278/111/6
f 278/111/6 279/128/6 280/112/6
f 281/131/6 283/132/6 282/113/6
f 282/113/6 283/132/6 284/114/6
f 285/133/6 287/134/6 286/95/6
f 286/95/6 287/134/6 288/96/6
