# exported by ae3d_export.py v2
# object: Street_PathL
mtllib Street_PathL.mtl
v -34.000000 -0.430000 -1.530000
v -34.000000 -0.430000 1.530000
v -34.000000 0.130000 -1.530000
v -34.000000 0.130000 1.530000
v -33.994137 -0.444142 -1.530000
v -33.994137 -0.444142 1.530000
v -33.994137 -0.430000 -1.544142
v -33.994137 -0.430000 1.544142
v -33.994137 0.130000 -1.544142
v -33.994137 0.130000 1.544142
v -33.994137 0.144142 -1.530000
v -33.994137 0.144142 1.530000
v -33.991543 -0.441547 -1.541547
v -33.991543 -0.441547 1.541547
v -33.991543 0.141547 -1.541547
v -33.991543 0.141547 1.541547
v -33.980000 -0.450000 -1.530000
v -33.980000 -0.450000 1.530000
v -33.980000 -0.430000 -1.550000
v -33.980000 -0.430000 1.550000
v -33.980000 0.130000 -1.550000
v -33.980000 0.130000 1.550000
v -33.980000 0.150000 -1.530000
v -33.980000 0.150000 1.530000
v -33.979996 -0.444142 -1.544142
v -33.979996 -0.444142 1.544142
v -33.979996 0.144142 -1.544142
v -33.979996 0.144142 1.544142
v 33.979996 -0.444142 -1.544142
v 33.979996 0.144142 -1.544142
v 33.979996 0.144142 1.544142
v 33.980000 -0.450000 -1.530000
v 33.980000 -0.450000 1.530000
v 33.980000 -0.444142 1.544142
v 33.980000 -0.430000 -1.550000
v 33.980000 -0.430000 1.550000
v 33.980000 0.130000 -1.550000
v 33.980000 0.130000 1.550000
v 33.980000 0.150000 -1.530000
v 33.980000 0.150000 1.530000
v 33.991543 -0.441547 -1.541547
v 33.991543 0.141547 -1.541547
v 33.991543 0.141547 1.541547
v 33.991547 -0.441547 1.541547
v 33.994137 -0.444142 -1.530000
v 33.994137 -0.430000 -1.544142
v 33.994137 0.130000 -1.544142
v 33.994137 0.130000 1.544142
v 33.994137 0.144142 -1.530000
v 33.994137 0.144142 1.530000
v 33.994141 -0.444142 1.530000
v 33.994141 -0.430000 1.544142
v 34.000000 -0.430000 -1.530000
v 34.000000 -0.430000 1.530000
v 34.000000 0.130000 -1.530000
v 34.000000 0.130000 1.530000
vt -25.495602 -1.147500
vt -25.495602 -0.322500
vt -25.495602 0.097500
vt -25.495602 1.147500
vt -25.493656 -1.156160
vt -25.493656 -0.331160
vt -25.493656 0.106160
vt -25.493656 1.156160
vt -25.485001 -1.147500
vt -25.485001 -0.322500
vt -25.485001 0.097500
vt -25.485001 1.147500
vt -25.484997 -1.158107
vt -25.484997 -0.333107
vt -25.484997 0.108107
vt -25.484997 1.158107
vt -1.158107 -0.322500
vt -1.158107 0.097500
vt -1.156160 -0.331160
vt -1.156160 0.106160
vt -1.147500 -0.333107
vt -1.147500 -0.322500
vt -1.147500 0.097500
vt -1.147500 0.108107
vt 1.147500 -0.333107
vt 1.147500 -0.322500
vt 1.147500 0.097500
vt 1.147500 0.108107
vt 1.156160 -0.331160
vt 1.156160 0.106160
vt 1.158107 -0.322500
vt 1.158107 0.097500
vt 25.484997 -1.158107
vt 25.484997 -0.333107
vt 25.484997 0.108107
vt 25.484997 1.158107
vt 25.485001 -1.158107
vt 25.485001 -1.147500
vt 25.485001 -0.333107
vt 25.485001 -0.322500
vt 25.485001 0.097500
vt 25.485001 1.147500
vt 25.493656 -1.156160
vt 25.493656 -0.331160
vt 25.493656 0.106160
vt 25.493656 1.156160
vt 25.493660 -1.156160
vt 25.493660 -0.331160
vt 25.495602 -1.147500
vt 25.495602 -0.322500
vt 25.495602 0.097500
vt 25.495602 1.147500
vt 25.495605 -1.147500
vt 25.495605 -0.322500
vn -1.000000 0.000000 0.000000
vn -0.923757 0.382980 0.000000
vn -0.923756 -0.382981 0.000000
vn -0.923711 0.000000 -0.383089
vn -0.923711 0.000000 0.383089
vn -0.887938 -0.325170 -0.325316
vn -0.887938 0.325170 0.325317
vn -0.887915 -0.325161 0.325389
vn -0.887915 0.325161 -0.325389
vn -0.382797 -0.923832 0.000000
vn -0.382795 0.923833 0.000000
vn -0.382778 0.000000 -0.923840
vn -0.382778 0.000000 0.923840
vn -0.325115 -0.888039 -0.325097
vn -0.325114 -0.888039 0.325096
vn -0.325113 0.888039 0.325097
vn -0.325113 0.888040 -0.325096
vn -0.325038 -0.325008 -0.888099
vn -0.325038 -0.325005 0.888100
vn -0.325038 0.325005 -0.888100
vn -0.325037 0.325008 0.888100
vn 0.000000 -1.000000 0.000000
vn 0.000000 -0.923880 -0.382684
vn 0.000000 -0.923878 0.382686
vn 0.000000 -0.382690 0.923877
vn 0.000000 -0.382684 -0.923879
vn 0.000000 0.000000 -1.000000
vn 0.000000 0.000000 1.000000
vn 0.000000 0.382684 -0.923879
vn 0.000000 0.382684 0.923879
vn 0.000000 0.923880 -0.382684
vn 0.000000 0.923880 0.382684
vn 0.000000 1.000000 0.000000
vn 0.325037 0.325008 -0.888100
vn 0.325038 -0.325005 -0.888100
vn 0.325038 0.325005 0.888100
vn 0.325084 -0.325063 0.888062
vn 0.325086 -0.888104 0.324947
vn 0.325113 0.888039 -0.325097
vn 0.325113 0.888040 0.325096
vn 0.325114 -0.888039 -0.325096
vn 0.382700 0.000002 0.923873
vn 0.382753 -0.923851 0.000000
vn 0.382778 0.000000 -0.923840
vn 0.382795 0.923833 0.000000
vn 0.887915 -0.325161 -0.325389
vn 0.887915 0.325161 0.325389
vn 0.887938 0.325170 -0.325317
vn 0.888040 -0.325055 0.325151
vn 0.923711 0.000000 -0.383089
vn 0.923757 0.382980 0.000000
vn 0.923790 0.000003 0.382899
vn 0.923800 -0.382874 0.000000
vn 1.000000 0.000000 0.000000
usemtl PathPaving
f 1/26/1 2/22/1 4/23/1
f 1/26/1 4/23/1 3/27/1
f 1/26/3 5/25/3 2/22/3
f 1/26/4 3/27/4 9/32/4
f 1/26/4 9/32/4 7/31/4
f 1/26/6 7/31/6 13/29/6
f 1/26/6 13/29/6 5/25/6
f 2/22/3 5/25/3 6/21/3
f 2/22/5 8/17/5 4/23/5
f 2/22/8 6/21/8 14/19/8
f 2/22/8 14/19/8 8/17/8
f 3/27/2 4/23/2 12/24/2
f 3/27/2 12/24/2 11/28/2
f 3/27/9 11/28/9 15/30/9
f 3/27/9 15/30/9 9/32/9
f 4/23/5 8/17/5 10/18/5
f 4/23/7 10/18/7 16/20/7
f 4/23/7 16/20/7 12/24/7
f 5/4/10 17/12/10 6/1/10
f 5/4/14 13/8/14 17/12/14
f 6/1/10 17/12/10 18/9/10
f 6/1/15 18/9/15 14/5/15
f 7/2/12 9/3/12 21/11/12
f 7/2/12 21/11/12 19/10/12
f 7/2/18 19/10/18 13/6/18
f 8/2/13 20/10/13 10/3/13
f 8/2/19 14/6/19 20/10/19
f 9/3/20 15/7/20 21/11/20
f 10/3/13 20/10/13 22/11/13
f 10/3/21 22/11/21 16/7/21
f 11/4/11 12/1/11 24/9/11
f 11/4/11 24/9/11 23/12/11
f 11/4/17 23/12/17 15/8/17
f 12/1/16 16/5/16 24/9/16
f 13/6/18 19/10/18 25/14/18
f 13/8/14 25/16/14 17/12/14
f 14/5/15 18/9/15 26/13/15
f 14/6/19 26/14/19 20/10/19
f 15/7/20 27/15/20 21/11/20
f 15/8/17 23/12/17 27/16/17
f 16/5/16 28/13/16 24/9/16
f 16/7/21 22/11/21 28/15/21
f 17/12/22 32/42/22 18/9/22
f 17/12/23 25/16/23 32/42/23
f 18/9/22 32/42/22 33/38/22
f 18/9/24 33/38/24 26/13/24
f 19/10/26 29/34/26 25/14/26
f 19/10/26 35/40/26 29/34/26
f 19/10/27 21/11/27 35/40/27
f 20/10/25 26/14/25 36/40/25
f 20/10/28 36/40/28 38/41/28
f 20/10/28 38/41/28 22/11/28
f 21/11/27 37/41/27 35/40/27
f 21/11/29 27/15/29 37/41/29
f 22/11/30 31/35/30 28/15/30
f 22/11/30 38/41/30 31/35/30
f 23/12/31 30/36/31 27/16/31
f 23/12/31 39/42/31 30/36/31
f 23/12/33 24/9/33 39/42/33
f 24/9/32 28/13/32 40/38/32
f 24/9/33 40/38/33 39/42/33
f 25/16/23 29/36/23 32/42/23
f 26/13/24 33/38/24 34/37/24
f 26/14/25 34/39/25 36/40/25
f 27/15/29 30/35/29 37/41/29
f 28/13/32 31/33/32 40/38/32
f 29/34/35 35/40/35 41/44/35
f 29/36/41 41/46/41 32/42/41
f 30/35/34 42/45/34 37/41/34
f 30/36/39 39/42/39 42/46/39
f 31/33/40 43/43/40 40/38/40
f 31/35/36 38/41/36 43/45/36
f 32/42/41 41/46/41 45/52/41
f 32/42/43 45/52/43 33/38/43
f 33/38/38 44/47/38 34/37/38
f 33/38/38 51/53/38 44/47/38
f 33/38/43 45/52/43 51/53/43
f 34/39/37 44/48/37 36/40/37
f 35/40/35 46/50/35 41/44/35
f 35/40/44 37/41/44 47/51/44
f 35/40/44 47/51/44 46/50/44
f 36/40/37 44/48/37 52/54/37
f 36/40/42 48/51/42 38/41/42
f 36/40/42 52/54/42 48/51/42
f 37/41/34 42/45/34 47/51/34
f 38/41/36 48/51/36 43/45/36
f 39/42/39 49/52/39 42/46/39
f 39/42/45 40/38/45 50/49/45
f 39/42/45 50/49/45 49/52/45
f 40/38/40 43/43/40 50/49/40
f 41/29/46 46/31/46 53/26/46
f 41/29/46 53/26/46 45/25/46
f 42/30/48 49/28/48 55/27/48
f 42/30/48 55/27/48 47/32/48
f 43/20/47 48/18/47 56/23/47
f 43/20/47 56/23/47 50/24/47
f 44/19/49 51/21/49 54/22/49
f 44/19/49 54/22/49 52/17/49
f 45/25/53 53/26/53 51/21/53
f 46/31/50 47/32/50 55/27/50
f 46/31/50 55/27/50 53/26/50
f 48/18/52 52/17/52 56/23/52
f 49/28/51 50/24/51 56/23/51
f 49/28/51 56/23/51 55/27/51
f 51/21/53 53/26/53 54/22/53
f 52/17/52 54/22/52 56/23/52
f 53/26/54 55/27/54 54/22/54
f 54/22/54 55/27/54 56/23/54
