# exported by ae3d_export.py v3
# object: Street_BlockL0_Glass
mtllib Street_BlockL0_Glass.mtl
v -4.735000 0.590000 -0.225000
v -4.735000 2.060000 -0.225000
v -4.735000 6.890000 -0.225000
v -4.735000 8.360000 -0.225000
v -3.665000 0.590000 -0.225000
v -3.665000 2.060000 -0.225000
v -3.665000 6.890000 -0.225000
v -3.665000 8.360000 -0.225000
v -1.935000 0.590000 -0.225000
v -1.935000 2.060000 -0.225000
v -0.865000 0.590000 -0.225000
v -0.865000 2.060000 -0.225000
v 0.765000 -0.340000 -0.225000
v 0.765000 2.010000 -0.225000
v 2.035000 -0.340000 -0.225000
v 2.035000 2.010000 -0.225000
v 3.665000 0.590000 -0.225000
v 3.665000 2.060000 -0.225000
v 3.665000 3.740000 -0.225000
v 3.665000 5.210000 -0.225000
v 4.735000 0.590000 -0.225000
v 4.735000 2.060000 -0.225000
v 4.735000 3.740000 -0.225000
v 4.735000 5.210000 -0.225000
vt 0.000000 0.000000
vt 0.000000 1.000000
vt 1.000000 0.000000
vt 1.000000 1.000000
vn 0.000000 0.000000 -1.000000
vn 0.000000 0.000000 1.000000
usemtl WindowGlass
f 1/1/1 2/2/1 6/4/1
f 1/1/1 6/4/1 5/3/1
f 3/1/2 7/3/2 8/4/2
f 3/1/2 8/4/2 4/2/2
f 9/1/2 11/3/2 12/4/2
f 9/1/2 12/4/2 10/2/2
f 13/1/2 15/3/2 16/4/2
f 13/1/2 16/4/2 14/2/2
f 17/1/1 18/2/1 22/4/1
f 17/1/1 22/4/1 21/3/1
f 19/1/1 20/2/1 24/4/1
f 19/1/1 24/4/1 23/3/1
