# exported by ae3d_export.py v3
# object: Street_BenchEnd1_1
mtllib Street_BenchEnd1_1.mtl
v -0.040000 0.000000 -0.220000
v -0.040000 0.000000 0.220000
v -0.040000 0.440000 -0.220000
v -0.040000 0.440000 0.220000
v 0.040000 0.000000 -0.220000
v 0.040000 0.000000 0.220000
v 0.040000 0.440000 -0.220000
v 0.040000 0.440000 0.220000
vt -0.264000 0.000000
vt -0.264000 0.528000
vt -0.048000 -0.264000
vt -0.048000 0.000000
vt -0.048000 0.264000
vt -0.048000 0.528000
vt 0.048000 -0.264000
vt 0.048000 0.000000
vt 0.048000 0.264000
vt 0.048000 0.528000
vt 0.264000 0.000000
vt 0.264000 0.528000
vn -1.000000 0.000000 0.000000
vn 0.000000 -1.000000 0.000000
vn 0.000000 0.000000 -1.000000
vn 0.000000 0.000000 1.000000
vn 0.000000 1.000000 0.000000
vn 1.000000 0.000000 0.000000
usemtl LampMetal
f 1/4/3 3/6/3 5/8/3
f 1/5/2 5/9/2 2/3/2
f 1/11/1 2/1/1 4/2/1
f 1/11/1 4/2/1 3/12/1
f 2/3/2 5/9/2 6/7/2
f 2/4/4 6/8/4 8/10/4
f 2/4/4 8/10/4 4/6/4
f 3/5/5 4/3/5 7/9/5
f 3/6/3 7/10/3 5/8/3
f 4/3/5 8/7/5 7/9/5
f 5/11/6 7/12/6 6/1/6
f 6/1/6 7/12/6 8/2/6
