# exported by ae3d_export.py v3
# object: Street_BlockL5_Lit
mtllib Street_BlockL5_Lit.mtl
v -4.735000 3.590000 -0.225000
v -4.735000 5.060000 -0.225000
v -4.735000 6.740000 -0.225000
v -4.735000 8.210000 -0.225000
v -3.665000 3.590000 -0.225000
v -3.665000 5.060000 -0.225000
v -3.665000 6.740000 -0.225000
v -3.665000 8.210000 -0.225000
v -1.935000 6.740000 -0.225000
v -1.935000 8.210000 -0.225000
v -1.935000 9.890000 -0.225000
v -1.935000 11.360000 -0.225000
v -0.865000 6.740000 -0.225000
v -0.865000 8.210000 -0.225000
v -0.865000 9.890000 -0.225000
v -0.865000 11.360000 -0.225000
v 0.865000 3.590000 -0.225000
v 0.865000 5.060000 -0.225000
v 1.935000 3.590000 -0.225000
v 1.935000 5.060000 -0.225000
v 3.665000 9.890000 -0.225000
v 3.665000 11.360000 -0.225000
v 4.735000 9.890000 -0.225000
v 4.735000 11.360000 -0.225000
vt 0.000000 0.000000
vt 0.000000 1.000000
vt 1.000000 0.000000
vt 1.000000 1.000000
vn 0.000000 0.000000 -1.000000
vn 0.000000 0.000000 1.000000
usemtl WindowLit
f 1/1/1 2/2/1 6/4/1
f 1/1/1 6/4/1 5/3/1
f 3/1/1 4/2/1 8/4/1
f 3/1/1 8/4/1 7/3/1
f 9/1/1 10/2/1 14/4/1
f 9/1/1 14/4/1 13/3/1
f 11/1/2 15/3/2 16/4/2
f 11/1/2 16/4/2 12/2/2
f 17/1/2 19/3/2 20/4/2
f 17/1/2 20/4/2 18/2/2
f 21/1/2 23/3/2 24/4/2
f 21/1/2 24/4/2 22/2/2
