# exported by ae3d_export.py v3
# object: Street_LampHead2
mtllib Street_LampHead2.mtl
v -0.170000 -0.130000 -0.250000
v -0.170000 -0.130000 0.250000
v -0.170000 -0.030000 -0.250000
v -0.170000 -0.030000 0.250000
v -0.161213 -0.151213 -0.250000
v -0.161213 -0.151213 0.250000
v -0.161213 -0.130000 -0.271213
v -0.161213 -0.130000 0.271213
v -0.161213 -0.030000 -0.271213
v -0.161213 -0.030000 0.271213
v -0.161213 -0.008787 -0.250000
v -0.161213 -0.008787 0.250000
v -0.157320 -0.147321 -0.267320
v -0.157320 -0.147321 0.267320
v -0.157320 -0.012679 -0.267320
v -0.157320 -0.012679 0.267320
v -0.140000 -0.160000 -0.250000
v -0.140000 -0.160000 0.250000
v -0.140000 -0.151213 -0.271213
v -0.140000 -0.151213 0.271213
v -0.140000 -0.130000 -0.280000
v -0.140000 -0.130000 0.280000
v -0.140000 -0.030000 -0.280000
v -0.140000 -0.030000 0.280000
v -0.140000 -0.008787 -0.271213
v -0.140000 -0.008787 0.271213
v -0.140000 0.000000 -0.250000
v -0.140000 0.000000 0.250000
v 0.140000 -0.160000 -0.250000
v 0.140000 -0.160000 0.250000
v 0.140000 -0.151213 -0.271213
v 0.140000 -0.151213 0.271213
v 0.140000 -0.130000 -0.280000
v 0.140000 -0.130000 0.280000
v 0.140000 -0.030000 -0.280000
v 0.140000 -0.030000 0.280000
v 0.140000 -0.008787 -0.271213
v 0.140000 -0.008787 0.271213
v 0.140000 0.000000 -0.250000
v 0.140000 0.000000 0.250000
v 0.157320 -0.147321 -0.267320
v 0.157320 -0.147321 0.267320
v 0.157320 -0.012679 -0.267320
v 0.157320 -0.012679 0.267320
v 0.161213 -0.151213 -0.250000
v 0.161213 -0.151213 0.250000
v 0.161213 -0.130000 -0.271213
v 0.161213 -0.130000 0.271213
v 0.161213 -0.030000 -0.271213
v 0.161213 -0.030000 0.271213
v 0.161213 -0.008787 -0.250000
v 0.161213 -0.008787 0.250000
v 0.170000 -0.130000 -0.250000
v 0.170000 -0.130000 0.250000
v 0.170000 -0.030000 -0.250000
v 0.170000 -0.030000 0.250000
vt -0.271213 -0.130000
vt -0.271213 -0.030000
vt -0.267320 -0.147321
vt -0.267320 -0.012679
vt -0.250000 -0.151213
vt -0.250000 -0.130000
vt -0.250000 -0.030000
vt -0.250000 -0.008787
vt -0.161213 -0.250000
vt -0.161213 -0.130000
vt -0.161213 -0.030000
vt -0.161213 0.250000
vt -0.157320 -0.267320
vt -0.157320 -0.147321
vt -0.157320 -0.012679
vt -0.157320 0.267320
vt -0.140000 -0.271213
vt -0.140000 -0.250000
vt -0.140000 -0.151213
vt -0.140000 -0.130000
vt -0.140000 -0.030000
vt -0.140000 -0.008787
vt -0.140000 0.250000
vt -0.140000 0.271213
vt 0.140000 -0.271213
vt 0.140000 -0.250000
vt 0.140000 -0.151213
vt 0.140000 -0.130000
vt 0.140000 -0.030000
vt 0.140000 -0.008787
vt 0.140000 0.250000
vt 0.140000 0.271213
vt 0.157320 -0.267320
vt 0.157320 -0.147321
vt 0.157320 -0.012679
vt 0.157320 0.267320
vt 0.161213 -0.250000
vt 0.161213 -0.130000
vt 0.161213 -0.030000
vt 0.161213 0.250000
vt 0.250000 -0.151213
vt 0.250000 -0.130000
vt 0.250000 -0.030000
vt 0.250000 -0.008787
vt 0.267320 -0.147321
vt 0.267320 -0.012679
vt 0.271213 -0.130000
vt 0.271213 -0.030000
vn -1.000000 0.000000 0.000000
vn -0.923879 -0.382684 0.000000
vn -0.923879 0.000000 -0.382684
vn -0.923879 0.000000 0.382684
vn -0.923879 0.382684 0.000000
vn -0.888074 -0.325058 -0.325058
vn -0.888074 -0.325058 0.325057
vn -0.888074 0.325058 -0.325057
vn -0.888074 0.325058 0.325058
vn -0.382684 -0.923879 0.000000
vn -0.382684 0.000000 -0.923879
vn -0.382684 0.000000 0.923879
vn -0.382684 0.923879 0.000000
vn -0.325058 -0.888073 -0.325058
vn -0.325058 -0.888073 0.325058
vn -0.325058 -0.325058 -0.888074
vn -0.325058 -0.325058 0.888074
vn -0.325058 0.325058 -0.888074
vn -0.325058 0.325058 0.888073
vn -0.325058 0.888074 -0.325058
vn -0.325058 0.888074 0.325058
vn 0.000000 -1.000000 0.000000
vn 0.000000 -0.923880 -0.382683
vn 0.000000 -0.923880 0.382683
vn 0.000000 -0.382682 -0.923880
vn 0.000000 -0.382682 0.923880
vn 0.000000 0.000000 -1.000000
vn 0.000000 0.000000 1.000000
vn 0.000000 0.382682 -0.923880
vn 0.000000 0.382682 0.923880
vn 0.000000 0.923880 -0.382683
vn 0.000000 0.923880 0.382683
vn 0.000000 1.000000 0.000000
vn 0.325058 -0.888073 -0.325058
vn 0.325058 -0.888073 0.325058
vn 0.325058 -0.325058 -0.888074
vn 0.325058 -0.325058 0.888074
vn 0.325058 0.325058 -0.888073
vn 0.325058 0.325058 0.888074
vn 0.325058 0.888074 -0.325058
vn 0.325058 0.888074 0.325058
vn 0.382684 -0.923879 0.000000
vn 0.382684 0.000000 -0.923879
vn 0.382684 0.000000 0.923879
vn 0.382684 0.923879 0.000000
vn 0.888074 -0.325058 -0.325057
vn 0.888074 -0.325058 0.325058
vn 0.888074 0.325058 -0.325058
vn 0.888074 0.325058 0.325057
vn 0.923879 -0.382684 0.000000
vn 0.923879 0.000000 -0.382684
vn 0.923879 0.000000 0.382684
vn 0.923879 0.382684 0.000000
vn 1.000000 0.000000 0.000000
usemtl LampGlow
f 1/42/1 2/6/1 4/7/1
f 1/42/1 4/7/1 3/43/1
f 1/42/2 5/41/2 2/6/2
f 1/42/3 3/43/3 9/48/3
f 1/42/3 9/48/3 7/47/3
f 1/42/6 7/47/6 13/45/6
f 1/42/6 13/45/6 5/41/6
f 2/6/2 5/41/2 6/5/2
f 2/6/4 8/1/4 4/7/4
f 2/6/7 6/5/7 14/3/7
f 2/6/7 14/3/7 8/1/7
f 3/43/5 4/7/5 12/8/5
f 3/43/5 12/8/5 11/44/5
f 3/43/8 11/44/8 15/46/8
f 3/43/8 15/46/8 9/48/8
f 4/7/4 8/1/4 10/2/4
f 4/7/9 10/2/9 16/4/9
f 4/7/9 16/4/9 12/8/9
f 5/12/10 17/23/10 6/9/10
f 5/12/14 13/16/14 17/23/14
f 6/9/10 17/23/10 18/18/10
f 6/9/15 18/18/15 14/13/15
f 7/10/11 9/11/11 23/21/11
f 7/10/11 23/21/11 21/20/11
f 7/10/16 21/20/16 13/14/16
f 8/10/12 22/20/12 10/11/12
f 8/10/17 14/14/17 22/20/17
f 9/11/18 15/15/18 23/21/18
f 10/11/12 22/20/12 24/21/12
f 10/11/19 24/21/19 16/15/19
f 11/12/13 12/9/13 28/18/13
f 11/12/13 28/18/13 27/23/13
f 11/12/20 27/23/20 15/16/20
f 12/9/21 16/13/21 28/18/21
f 13/14/16 21/20/16 19/19/16
f 13/16/14 19/24/14 17/23/14
f 14/13/15 18/18/15 20/17/15
f 14/14/17 20/19/17 22/20/17
f 15/15/18 25/22/18 23/21/18
f 15/16/20 27/23/20 25/24/20
f 16/13/21 26/17/21 28/18/21
f 16/15/19 24/21/19 26/22/19
f 17/23/22 29/31/22 18/18/22
f 17/23/23 19/24/23 29/31/23
f 18/18/22 29/31/22 30/26/22
f 18/18/24 30/26/24 32/25/24
f 18/18/24 32/25/24 20/17/24
f 19/19/25 21/20/25 31/27/25
f 19/24/23 31/32/23 29/31/23
f 20/19/26 32/27/26 34/28/26
f 20/19/26 34/28/26 22/20/26
f 21/20/25 33/28/25 31/27/25
f 21/20/27 23/21/27 33/28/27
f 22/20/28 34/28/28 36/29/28
f 22/20/28 36/29/28 24/21/28
f 23/21/27 35/29/27 33/28/27
f 23/21/29 25/22/29 35/29/29
f 24/21/30 36/29/30 38/30/30
f 24/21/30 38/30/30 26/22/30
f 25/22/29 37/30/29 35/29/29
f 25/24/31 27/23/31 37/32/31
f 26/17/32 38/25/32 40/26/32
f 26/17/32 40/26/32 28/18/32
f 27/23/31 39/31/31 37/32/31
f 27/23/33 28/18/33 39/31/33
f 28/18/33 40/26/33 39/31/33
f 29/31/34 31/32/34 41/36/34
f 29/31/34 41/36/34 45/40/34
f 29/31/42 45/40/42 30/26/42
f 30/26/35 42/33/35 32/25/35
f 30/26/35 46/37/35 42/33/35
f 30/26/42 45/40/42 46/37/42
f 31/27/36 33/28/36 41/34/36
f 32/27/37 42/34/37 34/28/37
f 33/28/36 47/38/36 41/34/36
f 33/28/43 35/29/43 49/39/43
f 33/28/43 49/39/43 47/38/43
f 34/28/37 42/34/37 48/38/37
f 34/28/44 48/38/44 36/29/44
f 35/29/38 37/30/38 43/35/38
f 35/29/38 43/35/38 49/39/38
f 36/29/39 44/35/39 38/30/39
f 36/29/39 50/39/39 44/35/39
f 36/29/44 48/38/44 50/39/44
f 37/32/40 39/31/40 43/36/40
f 38/25/41 44/33/41 40/26/41
f 39/31/40 51/40/40 43/36/40
f 39/31/45 40/26/45 52/37/45
f 39/31/45 52/37/45 51/40/45
f 40/26/41 44/33/41 52/37/41
f 41/45/46 47/47/46 53/42/46
f 41/45/46 53/42/46 45/41/46
f 42/3/47 46/5/47 54/6/47
f 42/3/47 54/6/47 48/1/47
f 43/46/48 51/44/48 55/43/48
f 43/46/48 55/43/48 49/48/48
f 44/4/49 50/2/49 56/7/49
f 44/4/49 56/7/49 52/8/49
f 45/41/50 53/42/50 46/5/50
f 46/5/50 53/42/50 54/6/50
f 47/47/51 49/48/51 55/43/51
f 47/47/51 55/43/51 53/42/51
f 48/1/52 54/6/52 50/2/52
f 50/2/52 54/6/52 56/7/52
f 51/44/53 52/8/53 56/7/53
f 51/44/53 56/7/53 55/43/53
f 53/42/54 55/43/54 54/6/54
f 54/6/54 55/43/54 56/7/54
