# exported by ae3d_export.py v3
# object: Street_BlockL1_Pot1
mtllib Street_BlockL1_Pot1.mtl
v -0.159128 0.019981 -0.139109
v -0.159128 0.019981 0.139109
v -0.153891 0.005852 -0.139735
v -0.153891 0.005852 0.139735
v -0.153261 0.019981 -0.153261
v -0.153261 0.019981 0.153261
v -0.151174 0.008445 -0.151174
v -0.151174 0.008445 0.151174
v -0.140000 0.000000 -0.140000
v -0.140000 0.000000 0.140000
v -0.139735 0.005852 -0.153891
v -0.139735 0.005852 0.153891
v -0.139109 0.019981 -0.159128
v -0.139109 0.019981 0.159128
v -0.136872 0.530019 -0.116853
v -0.136872 0.530019 0.116853
v -0.131005 0.530019 -0.131005
v -0.131005 0.530019 0.131005
v -0.130401 0.544148 -0.116246
v -0.130401 0.544148 0.116246
v -0.127912 0.541555 -0.127911
v -0.127911 0.541555 0.127911
v -0.116853 0.530019 -0.136872
v -0.116853 0.530019 0.136872
v -0.116246 0.544148 -0.130401
v -0.116246 0.544148 0.130401
v -0.116000 0.550000 -0.116000
v -0.116000 0.550000 0.116000
v 0.116000 0.550000 -0.116000
v 0.116000 0.550000 0.116000
v 0.116246 0.544148 -0.130401
v 0.116246 0.544148 0.130401
v 0.116853 0.530019 -0.136872
v 0.116853 0.530019 0.136872
v 0.127911 0.541555 -0.127911
v 0.127911 0.541555 0.127911
v 0.130401 0.544148 -0.116246
v 0.130401 0.544148 0.116246
v 0.131005 0.530019 -0.131005
v 0.131005 0.530019 0.131005
v 0.136872 0.530019 -0.116853
v 0.136872 0.530019 0.116853
v 0.139109 0.019981 -0.159128
v 0.139109 0.019981 0.159128
v 0.139735 0.005852 -0.153891
v 0.139735 0.005852 0.153891
v 0.140000 0.000000 -0.140000
v 0.140000 0.000000 0.140000
v 0.151174 0.008445 -0.151174
v 0.151174 0.008445 0.151174
v 0.153261 0.019981 -0.153261
v 0.153261 0.019981 0.153261
v 0.153891 0.005852 -0.139735
v 0.153891 0.005852 0.139735
v 0.159128 0.019981 -0.139109
v 0.159128 0.019981 0.139109
vt -0.338560 -0.307417
vt -0.338560 0.307417
vt -0.337174 0.043958
vt -0.332584 -0.332584
vt -0.332584 0.018579
vt -0.332584 0.332584
vt -0.308000 -0.308000
vt -0.308000 0.308000
vt -0.307417 -0.338560
vt -0.307417 0.012875
vt -0.307417 0.338560
vt -0.306040 0.043958
vt -0.288210 1.166042
vt -0.286883 -0.255741
vt -0.286883 0.255741
vt -0.281405 -0.281405
vt -0.281405 0.281405
vt -0.281405 1.191421
vt -0.257076 1.166042
vt -0.255741 -0.286883
vt -0.255741 0.286883
vt -0.255741 1.197125
vt -0.255200 -0.255200
vt -0.255200 0.255200
vt 0.255200 -0.255200
vt 0.255200 0.255200
vt 0.255741 -0.286883
vt 0.255741 0.286883
vt 0.255741 1.197125
vt 0.257076 1.166042
vt 0.281405 -0.281405
vt 0.281405 0.281405
vt 0.281405 1.191421
vt 0.286883 -0.255741
vt 0.286883 0.255741
vt 0.288210 1.166042
vt 0.306040 0.043958
vt 0.307417 -0.338560
vt 0.307417 0.012875
vt 0.307417 0.338560
vt 0.308000 -0.308000
vt 0.308000 0.308000
vt 0.332584 -0.332584
vt 0.332584 0.018579
vt 0.332584 0.332584
vt 0.337174 0.043958
vt 0.338560 -0.307417
vt 0.338560 0.307417
vn -0.999049 0.043595 0.000000
vn -0.937650 -0.347581 0.000000
vn -0.922253 0.056929 -0.382372
vn -0.922253 0.056929 0.382372
vn -0.909191 0.416379 0.000000
vn -0.902389 -0.276319 -0.330670
vn -0.902389 -0.276319 0.330669
vn -0.871945 0.370978 -0.319512
vn -0.871944 0.370979 0.319514
vn -0.388259 -0.921550 0.000000
vn -0.382372 0.056929 -0.922253
vn -0.382372 0.056929 0.922253
vn -0.376473 0.926427 0.000000
vn -0.333267 -0.881967 -0.333267
vn -0.333267 -0.881967 0.333267
vn -0.330669 -0.276321 -0.902389
vn -0.330669 -0.276321 0.902389
vn -0.319513 0.370980 0.871944
vn -0.319512 0.370979 -0.871944
vn -0.316895 0.893954 -0.316896
vn -0.316894 0.893954 0.316897
vn 0.000000 -1.000000 0.000000
vn 0.000000 -0.921550 -0.388259
vn 0.000000 -0.921550 0.388259
vn 0.000000 -0.347580 -0.937650
vn 0.000000 -0.347579 0.937651
vn 0.000000 0.043595 -0.999049
vn 0.000000 0.043595 0.999049
vn 0.000000 0.416378 0.909191
vn 0.000000 0.416379 -0.909191
vn 0.000000 0.926428 -0.376471
vn 0.000000 0.926428 0.376471
vn 0.000000 1.000000 0.000000
vn 0.316894 0.893954 -0.316897
vn 0.316895 0.893954 0.316897
vn 0.319513 0.370980 -0.871944
vn 0.319513 0.370980 0.871944
vn 0.330668 -0.276320 0.902389
vn 0.330669 -0.276321 -0.902389
vn 0.333267 -0.881967 -0.333267
vn 0.333267 -0.881967 0.333267
vn 0.376473 0.926427 0.000000
vn 0.382372 0.056929 -0.922253
vn 0.382372 0.056929 0.922253
vn 0.388259 -0.921550 0.000000
vn 0.871944 0.370979 -0.319514
vn 0.871944 0.370979 0.319513
vn 0.902389 -0.276319 -0.330669
vn 0.902389 -0.276319 0.330668
vn 0.909191 0.416379 0.000000
vn 0.922253 0.056929 -0.382372
vn 0.922253 0.056929 0.382372
vn 0.937650 -0.347580 0.000000
vn 0.999049 0.043595 0.000000
usemtl TrimStone
f 1/37/1 2/12/1 16/19/1
f 1/37/1 16/19/1 15/30/1
f 1/37/2 3/39/2 2/12/2
f 1/37/3 15/30/3 17/36/3
f 1/37/3 17/36/3 5/46/3
f 1/37/6 5/46/6 7/44/6
f 1/37/6 7/44/6 3/39/6
f 2/12/2 3/39/2 4/10/2
f 2/12/4 6/3/4 18/13/4
f 2/12/4 18/13/4 16/19/4
f 2/12/7 4/10/7 8/5/7
f 2/12/7 8/5/7 6/3/7
f 3/2/10 9/8/10 4/1/10
f 3/2/14 7/6/14 9/8/14
f 4/1/10 9/8/10 10/7/10
f 4/1/15 10/7/15 8/4/15
f 5/3/11 17/13/11 13/12/11
f 5/3/16 13/12/16 7/5/16
f 6/3/12 14/12/12 18/13/12
f 6/3/17 8/5/17 14/12/17
f 7/5/16 13/12/16 11/10/16
f 7/6/14 11/11/14 9/8/14
f 8/4/15 10/7/15 12/9/15
f 8/5/17 12/10/17 14/12/17
f 9/8/22 47/42/22 10/7/22
f 9/8/23 11/11/23 47/42/23
f 10/7/22 47/42/22 48/41/22
f 10/7/24 48/41/24 12/9/24
f 11/10/25 13/12/25 45/39/25
f 11/11/23 45/40/23 47/42/23
f 12/9/24 48/41/24 46/38/24
f 12/10/26 46/39/26 14/12/26
f 13/12/11 17/13/11 23/19/11
f 13/12/25 43/37/25 45/39/25
f 13/12/27 23/19/27 43/37/27
f 14/12/12 24/19/12 18/13/12
f 14/12/26 46/39/26 44/37/26
f 14/12/28 34/30/28 24/19/28
f 14/12/28 44/37/28 34/30/28
f 15/30/5 16/19/5 19/29/5
f 15/30/8 19/29/8 21/33/8
f 15/30/8 21/33/8 17/36/8
f 16/19/5 20/22/5 19/29/5
f 16/19/9 18/13/9 22/18/9
f 16/19/9 22/18/9 20/22/9
f 17/13/19 21/18/19 23/19/19
f 18/13/18 24/19/18 22/18/18
f 19/15/13 20/14/13 27/24/13
f 19/15/20 27/24/20 21/17/20
f 20/14/13 28/23/13 27/24/13
f 20/14/21 22/16/21 28/23/21
f 21/17/20 27/24/20 25/21/20
f 21/18/19 25/22/19 23/19/19
f 22/16/21 26/20/21 28/23/21
f 22/18/18 24/19/18 26/22/18
f 23/19/27 33/30/27 43/37/27
f 23/19/30 25/22/30 31/29/30
f 23/19/30 31/29/30 33/30/30
f 24/19/29 32/29/29 26/22/29
f 24/19/29 34/30/29 32/29/29
f 25/21/31 27/24/31 31/28/31
f 26/20/32 30/25/32 28/23/32
f 26/20/32 32/27/32 30/25/32
f 27/24/31 29/26/31 31/28/31
f 27/24/33 28/23/33 29/26/33
f 28/23/33 30/25/33 29/26/33
f 29/26/34 35/32/34 31/28/34
f 29/26/34 37/35/34 35/32/34
f 29/26/42 30/25/42 38/34/42
f 29/26/42 38/34/42 37/35/42
f 30/25/35 32/27/35 36/31/35
f 30/25/35 36/31/35 38/34/35
f 31/29/36 35/33/36 33/30/36
f 32/29/37 34/30/37 36/33/37
f 33/30/36 35/33/36 39/36/36
f 33/30/43 39/36/43 43/37/43
f 34/30/37 40/36/37 36/33/37
f 34/30/44 44/37/44 40/36/44
f 35/33/46 37/29/46 41/30/46
f 35/33/46 41/30/46 39/36/46
f 36/18/47 40/13/47 42/19/47
f 36/18/47 42/19/47 38/22/47
f 37/29/50 38/22/50 42/19/50
f 37/29/50 42/19/50 41/30/50
f 39/36/43 51/46/43 43/37/43
f 39/36/51 41/30/51 55/37/51
f 39/36/51 55/37/51 51/46/51
f 40/13/52 52/3/52 56/12/52
f 40/13/52 56/12/52 42/19/52
f 40/36/44 44/37/44 52/46/44
f 41/30/54 42/19/54 56/12/54
f 41/30/54 56/12/54 55/37/54
f 43/37/39 49/44/39 45/39/39
f 43/37/39 51/46/39 49/44/39
f 44/37/38 46/39/38 50/44/38
f 44/37/38 50/44/38 52/46/38
f 45/40/40 49/45/40 47/42/40
f 46/38/41 48/41/41 50/43/41
f 47/42/40 49/45/40 53/48/40
f 47/42/45 53/48/45 48/41/45
f 48/41/41 54/47/41 50/43/41
f 48/41/45 53/48/45 54/47/45
f 49/44/48 51/46/48 55/37/48
f 49/44/48 55/37/48 53/39/48
f 50/5/49 54/10/49 56/12/49
f 50/5/49 56/12/49 52/3/49
f 53/39/53 55/37/53 54/10/53
f 54/10/53 55/37/53 56/12/53
