# exported by ae3d_export.py v3
# object: Street_BlockR4_Parapet
mtllib Street_BlockR4_Parapet.mtl
v -1.014987 0.000000 0.000000
v -1.014987 0.000000 0.220000
v -1.014987 0.561552 0.000000
v -1.014987 0.561552 0.220000
v 1.014987 0.000000 0.000000
v 1.014987 0.000000 0.220000
v 1.014987 0.561552 0.000000
v 1.014987 0.561552 0.220000
vt -0.852589 -0.184800
vt -0.852589 0.000000
vt -0.852589 0.471703
vt -0.184800 0.000000
vt -0.184800 0.471703
vt 0.000000 0.000000
vt 0.000000 0.471703
vt 0.852589 -0.184800
vt 0.852589 0.000000
vt 0.852589 0.471703
vn -1.000000 0.000000 0.000000
vn 0.000000 -1.000000 0.000000
vn 0.000000 0.000000 -1.000000
vn 0.000000 0.000000 1.000000
vn 0.000000 1.000000 0.000000
vn 1.000000 0.000000 0.000000
usemtl WallBrick
f 1/2/4 5/9/4 7/10/4
f 1/2/4 7/10/4 3/3/4
f 1/2/5 2/1/5 6/8/5
f 1/2/5 6/8/5 5/9/5
f 1/6/6 3/7/6 2/4/6
f 2/2/3 4/3/3 6/9/3
f 2/4/6 3/7/6 4/5/6
f 3/2/2 7/9/2 8/8/2
f 3/2/2 8/8/2 4/1/2
f 4/3/3 8/10/3 6/9/3
f 5/6/1 6/4/1 8/5/1
f 5/6/1 8/5/1 7/7/1
