# exported by ae3d_export.py v3
# object: Street_BlockL1_Parapet
mtllib Street_BlockL1_Parapet.mtl
v -1.237282 0.000000 -0.420000
v -1.237282 0.000000 0.200000
v -1.237282 0.531580 -0.420000
v -1.237282 0.531580 0.200000
v 1.237282 0.000000 -0.420000
v 1.237282 0.000000 0.200000
v 1.237282 0.531580 -0.420000
v 1.237282 0.531580 0.200000
vt -1.039317 -0.168000
vt -1.039317 0.000000
vt -1.039317 0.352800
vt -1.039317 0.446527
vt -0.168000 0.000000
vt -0.168000 0.446527
vt 0.352800 0.000000
vt 0.352800 0.446527
vt 1.039317 -0.168000
vt 1.039317 0.000000
vt 1.039317 0.352800
vt 1.039317 0.446527
vn -1.000000 0.000000 0.000000
vn 0.000000 -1.000000 0.000000
vn 0.000000 0.000000 -1.000000
vn 0.000000 0.000000 1.000000
vn 0.000000 1.000000 0.000000
vn 1.000000 0.000000 0.000000
usemtl WallBrick
f 1/2/3 3/4/3 5/10/3
f 1/3/2 5/11/2 2/1/2
f 1/7/1 2/5/1 4/6/1
f 1/7/1 4/6/1 3/8/1
f 2/1/2 5/11/2 6/9/2
f 2/2/4 6/10/4 8/12/4
f 2/2/4 8/12/4 4/4/4
f 3/3/5 4/1/5 7/11/5
f 3/4/3 7/12/3 5/10/3
f 4/1/5 8/9/5 7/11/5
f 5/7/6 7/8/6 6/5/6
f 6/5/6 7/8/6 8/6/6
