# exported by ae3d_export.py v3
# object: Street_Bench1
mtllib Street_Bench1.mtl
v -0.850000 0.008000 -0.232000
v -0.850000 0.008000 0.232000
v -0.850000 0.042000 -0.232000
v -0.850000 0.042000 0.232000
v -0.847657 0.002343 -0.232000
v -0.847657 0.002343 0.232000
v -0.847657 0.008000 -0.237657
v -0.847657 0.008000 0.237657
v -0.847657 0.042000 -0.237657
v -0.847657 0.042000 0.237657
v -0.847657 0.047657 -0.232000
v -0.847657 0.047657 0.232000
v -0.846619 0.003381 -0.236619
v -0.846619 0.003381 0.236619
v -0.846619 0.046619 -0.236619
v -0.846619 0.046619 0.236619
v -0.842000 0.000000 -0.232000
v -0.842000 0.000000 0.232000
v -0.842000 0.002343 -0.237657
v -0.842000 0.002343 0.237657
v -0.842000 0.008000 -0.240000
v -0.842000 0.008000 0.240000
v -0.842000 0.042000 -0.240000
v -0.842000 0.042000 0.240000
v -0.842000 0.047657 -0.237657
v -0.842000 0.047657 0.237657
v -0.842000 0.050000 -0.232000
v -0.842000 0.050000 0.232000
v 0.842000 0.000000 -0.232000
v 0.842000 0.000000 0.232000
v 0.842000 0.002343 -0.237657
v 0.842000 0.002343 0.237657
v 0.842000 0.008000 -0.240000
v 0.842000 0.008000 0.240000
v 0.842000 0.042000 -0.240000
v 0.842000 0.042000 0.240000
v 0.842000 0.047657 -0.237657
v 0.842000 0.047657 0.237657
v 0.842000 0.050000 -0.232000
v 0.842000 0.050000 0.232000
v 0.846619 0.003381 -0.236619
v 0.846619 0.003381 0.236619
v 0.846619 0.046619 -0.236619
v 0.846619 0.046619 0.236619
v 0.847657 0.002343 -0.232000
v 0.847657 0.002343 0.232000
v 0.847657 0.008000 -0.237657
v 0.847657 0.008000 0.237657
v 0.847657 0.042000 -0.237657
v 0.847657 0.042000 0.237657
v 0.847657 0.047657 -0.232000
v 0.847657 0.047657 0.232000
v 0.850000 0.008000 -0.232000
v 0.850000 0.008000 0.232000
v 0.850000 0.042000 -0.232000
v 0.850000 0.042000 0.232000
vt -1.441017 -0.394400
vt -1.441017 0.013600
vt -1.441017 0.071400
vt -1.441017 0.394400
vt -1.439252 -0.402252
vt -1.439252 0.005748
vt -1.439252 0.079252
vt -1.439252 0.402252
vt -1.431400 -0.404017
vt -1.431400 -0.394400
vt -1.431400 0.003983
vt -1.431400 0.013600
vt -1.431400 0.071400
vt -1.431400 0.081017
vt -1.431400 0.394400
vt -1.431400 0.404017
vt -0.404017 0.013600
vt -0.404017 0.071400
vt -0.402252 0.005748
vt -0.402252 0.079252
vt -0.394400 0.003983
vt -0.394400 0.013600
vt -0.394400 0.071400
vt -0.394400 0.081017
vt 0.394400 0.003983
vt 0.394400 0.013600
vt 0.394400 0.071400
vt 0.394400 0.081017
vt 0.402252 0.005748
vt 0.402252 0.079252
vt 0.404017 0.013600
vt 0.404017 0.071400
vt 1.431400 -0.404017
vt 1.431400 -0.394400
vt 1.431400 0.003983
vt 1.431400 0.013600
vt 1.431400 0.071400
vt 1.431400 0.081017
vt 1.431400 0.394400
vt 1.431400 0.404017
vt 1.439252 -0.402252
vt 1.439252 0.005748
vt 1.439252 0.079252
vt 1.439252 0.402252
vt 1.441017 -0.394400
vt 1.441017 0.013600
vt 1.441017 0.071400
vt 1.441017 0.394400
vn -1.000000 0.000000 0.000000
vn -0.923874 -0.382696 0.000000
vn -0.923874 0.382696 0.000000
vn -0.923873 0.000000 -0.382700
vn -0.923873 0.000000 0.382700
vn -0.888075 -0.325062 0.325051
vn -0.888073 -0.325061 -0.325055
vn -0.888070 0.325060 -0.325066
vn -0.888068 0.325059 0.325071
vn -0.382688 -0.923878 0.000000
vn -0.382687 0.000000 -0.923878
vn -0.382687 0.000000 0.923878
vn -0.382687 0.923878 0.000000
vn -0.325063 -0.325062 -0.888070
vn -0.325063 0.325062 0.888070
vn -0.325062 -0.325060 0.888071
vn -0.325062 0.325060 -0.888071
vn -0.325059 -0.888075 -0.325053
vn -0.325059 -0.888075 0.325053
vn -0.325059 0.888075 -0.325053
vn -0.325059 0.888075 0.325053
vn 0.000000 -1.000000 0.000000
vn 0.000000 -0.923879 -0.382685
vn 0.000000 -0.923879 0.382685
vn 0.000000 -0.382686 -0.923878
vn 0.000000 -0.382686 0.923878
vn 0.000000 0.000000 -1.000000
vn 0.000000 0.000000 1.000000
vn 0.000000 0.382686 -0.923879
vn 0.000000 0.382686 0.923879
vn 0.000000 0.923879 -0.382684
vn 0.000000 0.923879 0.382684
vn 0.000000 1.000000 0.000000
vn 0.325059 -0.888075 -0.325053
vn 0.325059 -0.888075 0.325053
vn 0.325059 0.888075 -0.325053
vn 0.325059 0.888075 0.325053
vn 0.325062 -0.325060 -0.888071
vn 0.325062 0.325060 0.888071
vn 0.325063 -0.325062 0.888070
vn 0.325063 0.325062 -0.888070
vn 0.382687 0.000000 -0.923878
vn 0.382687 0.000000 0.923878
vn 0.382687 0.923878 0.000000
vn 0.382688 -0.923878 0.000000
vn 0.888068 0.325059 -0.325071
vn 0.888070 0.325060 0.325066
vn 0.888073 -0.325061 0.325055
vn 0.888075 -0.325062 -0.325051
vn 0.923873 0.000000 -0.382700
vn 0.923873 0.000000 0.382700
vn 0.923874 -0.382696 0.000000
vn 0.923874 0.382696 0.000000
vn 1.000000 0.000000 0.000000
usemtl PropWood
f 1/26/1 2/22/1 4/23/1
f 1/26/1 4/23/1 3/27/1
f 1/26/2 5/25/2 2/22/2
f 1/26/4 3/27/4 9/32/4
f 1/26/4 9/32/4 7/31/4
f 1/26/7 7/31/7 13/29/7
f 1/26/7 13/29/7 5/25/7
f 2/22/2 5/25/2 6/21/2
f 2/22/5 8/17/5 4/23/5
f 2/22/6 6/21/6 14/19/6
f 2/22/6 14/19/6 8/17/6
f 3/27/3 4/23/3 12/24/3
f 3/27/3 12/24/3 11/28/3
f 3/27/8 11/28/8 15/30/8
f 3/27/8 15/30/8 9/32/8
f 4/23/5 8/17/5 10/18/5
f 4/23/9 10/18/9 16/20/9
f 4/23/9 16/20/9 12/24/9
f 5/4/10 17/15/10 6/1/10
f 5/4/18 13/8/18 17/15/18
f 6/1/10 17/15/10 18/10/10
f 6/1/19 18/10/19 14/5/19
f 7/2/11 9/3/11 23/13/11
f 7/2/11 23/13/11 21/12/11
f 7/2/14 21/12/14 13/6/14
f 8/2/12 22/12/12 10/3/12
f 8/2/16 14/6/16 22/12/16
f 9/3/17 15/7/17 23/13/17
f 10/3/12 22/12/12 24/13/12
f 10/3/15 24/13/15 16/7/15
f 11/4/13 12/1/13 28/10/13
f 11/4/13 28/10/13 27/15/13
f 11/4/20 27/15/20 15/8/20
f 12/1/21 16/5/21 28/10/21
f 13/6/14 21/12/14 19/11/14
f 13/8/18 19/16/18 17/15/18
f 14/5/19 18/10/19 20/9/19
f 14/6/16 20/11/16 22/12/16
f 15/7/17 25/14/17 23/13/17
f 15/8/20 27/15/20 25/16/20
f 16/5/21 26/9/21 28/10/21
f 16/7/15 24/13/15 26/14/15
f 17/15/22 29/39/22 18/10/22
f 17/15/23 19/16/23 29/39/23
f 18/10/22 29/39/22 30/34/22
f 18/10/24 30/34/24 32/33/24
f 18/10/24 32/33/24 20/9/24
f 19/11/25 21/12/25 31/35/25
f 19/16/23 31/40/23 29/39/23
f 20/11/26 32/35/26 34/36/26
f 20/11/26 34/36/26 22/12/26
f 21/12/25 33/36/25 31/35/25
f 21/12/27 23/13/27 33/36/27
f 22/12/28 34/36/28 36/37/28
f 22/12/28 36/37/28 24/13/28
f 23/13/27 35/37/27 33/36/27
f 23/13/29 25/14/29 35/37/29
f 24/13/30 36/37/30 38/38/30
f 24/13/30 38/38/30 26/14/30
f 25/14/29 37/38/29 35/37/29
f 25/16/31 27/15/31 37/40/31
f 26/9/32 38/33/32 40/34/32
f 26/9/32 40/34/32 28/10/32
f 27/15/31 39/39/31 37/40/31
f 27/15/33 28/10/33 39/39/33
f 28/10/33 40/34/33 39/39/33
f 29/39/34 31/40/34 41/44/34
f 29/39/34 41/44/34 45/48/34
f 29/39/45 45/48/45 30/34/45
f 30/34/35 42/41/35 32/33/35
f 30/34/35 46/45/35 42/41/35
f 30/34/45 45/48/45 46/45/45
f 31/35/38 33/36/38 41/42/38
f 32/35/40 42/42/40 34/36/40
f 33/36/38 47/46/38 41/42/38
f 33/36/42 35/37/42 49/47/42
f 33/36/42 49/47/42 47/46/42
f 34/36/40 42/42/40 48/46/40
f 34/36/43 48/46/43 36/37/43
f 35/37/41 37/38/41 43/43/41
f 35/37/41 43/43/41 49/47/41
f 36/37/39 44/43/39 38/38/39
f 36/37/39 50/47/39 44/43/39
f 36/37/43 48/46/43 50/47/43
f 37/40/36 39/39/36 43/44/36
f 38/33/37 44/41/37 40/34/37
f 39/39/36 51/48/36 43/44/36
f 39/39/44 40/34/44 52/45/44
f 39/39/44 52/45/44 51/48/44
f 40/34/37 44/41/37 52/45/37
f 41/29/49 47/31/49 53/26/49
f 41/29/49 53/26/49 45/25/49
f 42/19/48 46/21/48 54/22/48
f 42/19/48 54/22/48 48/17/48
f 43/30/46 51/28/46 55/27/46
f 43/30/46 55/27/46 49/32/46
f 44/20/47 50/18/47 56/23/47
f 44/20/47 56/23/47 52/24/47
f 45/25/52 53/26/52 46/21/52
f 46/21/52 53/26/52 54/22/52
f 47/31/50 49/32/50 55/27/50
f 47/31/50 55/27/50 53/26/50
f 48/17/51 54/22/51 50/18/51
f 50/18/51 54/22/51 56/23/51
f 51/28/53 52/24/53 56/23/53
f 51/28/53 56/23/53 55/27/53
f 53/26/54 55/27/54 54/22/54
f 54/22/54 55/27/54 56/23/54
