# exported by ae3d_export.py v3
# object: Street_Ground
mtllib Street_Ground.mtl
v -42.000000 -0.466420 -22.000000
v -42.000000 -0.465973 0.000000
v -42.000000 -0.458058 -5.500000
v -42.000000 -0.457166 22.000000
v -42.000000 -0.452332 -16.500000
v -42.000000 -0.427324 16.500000
v -42.000000 -0.426779 11.000000
v -42.000000 -0.409944 -11.000000
v -42.000000 -0.405914 5.500000
v -42.000000 -0.386420 -22.000000
v -42.000000 -0.385973 0.000000
v -42.000000 -0.378058 -5.500000
v -42.000000 -0.377166 22.000000
v -42.000000 -0.372332 -16.500000
v -42.000000 -0.347324 16.500000
v -42.000000 -0.346779 11.000000
v -42.000000 -0.329944 -11.000000
v -42.000000 -0.325914 5.500000
v -36.000000 -0.467466 5.500000
v -36.000000 -0.462545 -16.500000
v -36.000000 -0.460500 -11.000000
v -36.000000 -0.458575 0.000000
v -36.000000 -0.456481 22.000000
v -36.000000 -0.456301 -22.000000
v -36.000000 -0.451290 -5.500000
v -36.000000 -0.428057 16.500000
v -36.000000 -0.413998 11.000000
v -36.000000 -0.387466 5.500000
v -36.000000 -0.382545 -16.500000
v -36.000000 -0.380500 -11.000000
v -36.000000 -0.378575 0.000000
v -36.000000 -0.376480 22.000000
v -36.000000 -0.376301 -22.000000
v -36.000000 -0.371290 -5.500000
v -36.000000 -0.348057 16.500000
v -36.000000 -0.333998 11.000000
v -30.000000 -0.457483 11.000000
v -30.000000 -0.449662 -16.500000
v -30.000000 -0.446952 16.500000
v -30.000000 -0.446081 -11.000000
v -30.000000 -0.445037 0.000000
v -30.000000 -0.437945 -22.000000
v -30.000000 -0.426106 5.500000
v -30.000000 -0.418990 -5.500000
v -30.000000 -0.415393 22.000000
v -30.000000 -0.377483 11.000000
v -30.000000 -0.369662 -16.500000
v -30.000000 -0.366952 16.500000
v -30.000000 -0.366081 -11.000000
v -30.000000 -0.365037 0.000000
v -30.000000 -0.357945 -22.000000
v -30.000000 -0.346106 5.500000
v -30.000000 -0.338989 -5.500000
v -30.000000 -0.335393 22.000000
v -24.000000 -0.465746 16.500000
v -24.000000 -0.455443 -5.500000
v -24.000000 -0.454675 0.000000
v -24.000000 -0.433275 -16.500000
v -24.000000 -0.432055 -22.000000
v -24.000000 -0.430421 11.000000
v -24.000000 -0.415287 22.000000
v -24.000000 -0.403752 -11.000000
v -24.000000 -0.403493 5.500000
v -24.000000 -0.385746 16.500000
v -24.000000 -0.375443 -5.500000
v -24.000000 -0.374675 0.000000
v -24.000000 -0.353275 -16.500000
v -24.000000 -0.352055 -22.000000
v -24.000000 -0.350421 11.000000
v -24.000000 -0.335287 22.000000
v -24.000000 -0.323752 -11.000000
v -24.000000 -0.323493 5.500000
v -18.000000 -0.452505 16.500000
v -18.000000 -0.450314 11.000000
v -18.000000 -0.450271 -16.500000
v -18.000000 -0.445091 22.000000
v -18.000000 -0.440149 -5.500000
v -18.000000 -0.434745 -11.000000
v -18.000000 -0.423881 0.000000
v -18.000000 -0.423688 -22.000000
v -18.000000 -0.412477 5.500000
v -18.000000 -0.372505 16.500000
v -18.000000 -0.370314 11.000000
v -18.000000 -0.370271 -16.500000
v -18.000000 -0.365091 22.000000
v -18.000000 -0.360149 -5.500000
v -18.000000 -0.354745 -11.000000
v -18.000000 -0.343881 0.000000
v -18.000000 -0.343688 -22.000000
v -18.000000 -0.332477 5.500000
v -12.000000 -0.457302 22.000000
v -12.000000 -0.457004 -16.500000
v -12.000000 -0.451205 0.000000
v -12.000000 -0.438647 -5.500000
v -12.000000 -0.420839 5.500000
v -12.000000 -0.417985 16.500000
v -12.000000 -0.409143 11.000000
v -12.000000 -0.401491 -11.000000
v -12.000000 -0.400538 -22.000000
v -12.000000 -0.377302 22.000000
v -12.000000 -0.377004 -16.500000
v -12.000000 -0.371205 0.000000
v -12.000000 -0.358647 -5.500000
v -12.000000 -0.340839 5.500000
v -12.000000 -0.337985 16.500000
v -12.000000 -0.329143 11.000000
v -12.000000 -0.321491 -11.000000
v -12.000000 -0.320538 -22.000000
v -6.000000 -0.465929 11.000000
v -6.000000 -0.458914 -5.500000
v -6.000000 -0.457742 -22.000000
v -6.000000 -0.453774 5.500000
v -6.000000 -0.441469 22.000000
v -6.000000 -0.434035 16.500000
v -6.000000 -0.423361 0.000000
v -6.000000 -0.413585 -11.000000
v -6.000000 -0.402512 -16.500000
v -6.000000 -0.385929 11.000000
v -6.000000 -0.378914 -5.500000
v -6.000000 -0.377742 -22.000000
v -6.000000 -0.373774 5.500000
v -6.000000 -0.361469 22.000000
v -6.000000 -0.354035 16.500000
v -6.000000 -0.343361 0.000000
v -6.000000 -0.333585 -11.000000
v -6.000000 -0.322512 -16.500000
v 0.000000 -0.465213 -16.500000
v 0.000000 -0.457071 5.500000
v 0.000000 -0.451833 -22.000000
v 0.000000 -0.447133 -11.000000
v 0.000000 -0.444223 16.500000
v 0.000000 -0.443322 22.000000
v 0.000000 -0.436717 0.000000
v 0.000000 -0.419473 -5.500000
v 0.000000 -0.415121 11.000000
v 0.000000 -0.385213 -16.500000
v 0.000000 -0.377071 5.500000
v 0.000000 -0.371833 -22.000000
v 0.000000 -0.367133 -11.000000
v 0.000000 -0.364223 16.500000
v 0.000000 -0.363322 22.000000
v 0.000000 -0.356717 0.000000
v 0.000000 -0.339473 -5.500000
v 0.000000 -0.335121 11.000000
v 6.000000 -0.456628 22.000000
v 6.000000 -0.453116 5.500000
v 6.000000 -0.441596 -22.000000
v 6.000000 -0.440071 11.000000
v 6.000000 -0.432052 0.000000
v 6.000000 -0.423054 -16.500000
v 6.000000 -0.404852 -11.000000
v 6.000000 -0.401685 16.500000
v 6.000000 -0.400515 -5.500000
v 6.000000 -0.376628 22.000000
v 6.000000 -0.373116 5.500000
v 6.000000 -0.361596 -22.000000
v 6.000000 -0.360071 11.000000
v 6.000000 -0.352052 0.000000
v 6.000000 -0.343054 -16.500000
v 6.000000 -0.324852 -11.000000
v 6.000000 -0.321685 16.500000
v 6.000000 -0.320515 -5.500000
v 12.000000 -0.450529 -22.000000
v 12.000000 -0.447472 -11.000000
v 12.000000 -0.446334 16.500000
v 12.000000 -0.446224 -16.500000
v 12.000000 -0.437923 5.500000
v 12.000000 -0.431205 22.000000
v 12.000000 -0.428097 -5.500000
v 12.000000 -0.427725 11.000000
v 12.000000 -0.423975 0.000000
v 12.000000 -0.370529 -22.000000
v 12.000000 -0.367472 -11.000000
v 12.000000 -0.366334 16.500000
v 12.000000 -0.366224 -16.500000
v 12.000000 -0.357923 5.500000
v 12.000000 -0.351205 22.000000
v 12.000000 -0.348097 -5.500000
v 12.000000 -0.347725 11.000000
v 12.000000 -0.343975 0.000000
v 18.000000 -0.461217 5.500000
v 18.000000 -0.458077 22.000000
v 18.000000 -0.456054 -22.000000
v 18.000000 -0.437966 11.000000
v 18.000000 -0.433595 -5.500000
v 18.000000 -0.433392 0.000000
v 18.000000 -0.422112 16.500000
v 18.000000 -0.403942 -16.500000
v 18.000000 -0.400029 -11.000000
v 18.000000 -0.381217 5.500000
v 18.000000 -0.378077 22.000000
v 18.000000 -0.376054 -22.000000
v 18.000000 -0.357966 11.000000
v 18.000000 -0.353595 -5.500000
v 18.000000 -0.353392 0.000000
v 18.000000 -0.342112 16.500000
v 18.000000 -0.323942 -16.500000
v 18.000000 -0.320029 -11.000000
v 24.000000 -0.454763 -16.500000
v 24.000000 -0.447688 11.000000
v 24.000000 -0.445079 -11.000000
v 24.000000 -0.442621 0.000000
v 24.000000 -0.431255 5.500000
v 24.000000 -0.430825 -22.000000
v 24.000000 -0.420447 16.500000
v 24.000000 -0.411894 -5.500000
v 24.000000 -0.402282 22.000000
v 24.000000 -0.374763 -16.500000
v 24.000000 -0.367688 11.000000
v 24.000000 -0.365079 -11.000000
v 24.000000 -0.362621 0.000000
v 24.000000 -0.351255 5.500000
v 24.000000 -0.350825 -22.000000
v 24.000000 -0.340447 16.500000
v 24.000000 -0.331894 -5.500000
v 24.000000 -0.322282 22.000000
v 30.000000 -0.459933 -16.500000
v 30.000000 -0.450223 22.000000
v 30.000000 -0.444585 16.500000
v 30.000000 -0.442707 -5.500000
v 30.000000 -0.428436 -22.000000
v 30.000000 -0.419181 0.000000
v 30.000000 -0.418195 -11.000000
v 30.000000 -0.414259 5.500000
v 30.000000 -0.405046 11.000000
v 30.000000 -0.379933 -16.500000
v 30.000000 -0.370223 22.000000
v 30.000000 -0.364585 16.500000
v 30.000000 -0.362707 -5.500000
v 30.000000 -0.348436 -22.000000
v 30.000000 -0.339181 0.000000
v 30.000000 -0.338195 -11.000000
v 30.000000 -0.334259 5.500000
v 30.000000 -0.325046 11.000000
v 36.000000 -0.468366 -11.000000
v 36.000000 -0.463104 16.500000
v 36.000000 -0.453636 22.000000
v 36.000000 -0.449540 0.000000
v 36.000000 -0.437880 11.000000
v 36.000000 -0.426719 5.500000
v 36.000000 -0.422511 -22.000000
v 36.000000 -0.417605 -5.500000
v 36.000000 -0.413549 -16.500000
v 36.000000 -0.388366 -11.000000
v 36.000000 -0.383104 16.500000
v 36.000000 -0.373636 22.000000
v 36.000000 -0.369540 0.000000
v 36.000000 -0.357880 11.000000
v 36.000000 -0.346719 5.500000
v 36.000000 -0.342511 -22.000000
v 36.000000 -0.337605 -5.500000
v 36.000000 -0.333549 -16.500000
v 42.000000 -0.465335 11.000000
v 42.000000 -0.462096 16.500000
v 42.000000 -0.461688 -5.500000
v 42.000000 -0.444606 0.000000
v 42.000000 -0.427959 22.000000
v 42.000000 -0.425331 -11.000000
v 42.000000 -0.423871 5.500000
v 42.000000 -0.421568 -16.500000
v 42.000000 -0.400931 -22.000000
v 42.000000 -0.385335 11.000000
v 42.000000 -0.382096 16.500000
v 42.000000 -0.381688 -5.500000
v 42.000000 -0.364606 0.000000
v 42.000000 -0.347959 22.000000
v 42.000000 -0.345331 -11.000000
v 42.000000 -0.343871 5.500000
v 42.000000 -0.341568 -16.500000
v 42.000000 -0.320931 -22.000000
vt -35.279999 -18.480000
vt -35.279999 -13.860000
vt -35.279999 -9.240000
vt -35.279999 -4.620000
vt -35.279999 -0.391793
vt -35.279999 -0.384019
vt -35.279999 -0.324593
vt -35.279999 -0.316819
vt -35.279999 0.000000
vt -35.279999 4.620000
vt -35.279999 9.240000
vt -35.279999 13.860000
vt -35.279999 18.480000
vt -30.240000 -18.480000
vt -30.240000 -13.860000
vt -30.240000 -9.240000
vt -30.240000 -4.620000
vt -30.240000 -0.383444
vt -30.240000 -0.383293
vt -30.240000 -0.316244
vt -30.240000 -0.316093
vt -30.240000 0.000000
vt -30.240000 4.620000
vt -30.240000 9.240000
vt -30.240000 13.860000
vt -30.240000 18.480000
vt -25.200001 -18.480000
vt -25.200001 -13.860000
vt -25.200001 -9.240000
vt -25.200001 -4.620000
vt -25.200001 -0.367874
vt -25.200001 -0.348930
vt -25.200001 -0.300674
vt -25.200001 -0.281730
vt -25.200001 0.000000
vt -25.200001 4.620000
vt -25.200001 9.240000
vt -25.200001 13.860000
vt -25.200001 18.480000
vt -20.160000 -18.480000
vt -20.160000 -13.860000
vt -20.160000 -9.240000
vt -20.160000 -4.620000
vt -20.160000 -0.362926
vt -20.160000 -0.348841
vt -20.160000 -0.295726
vt -20.160000 -0.281641
vt -20.160000 0.000000
vt -20.160000 4.620000
vt -20.160000 9.240000
vt -20.160000 13.860000
vt -20.160000 18.480000
vt -18.480000 -0.384019
vt -18.480000 -0.359485
vt -18.480000 -0.316819
vt -18.480000 -0.292285
vt -15.120000 -18.480000
vt -15.120000 -13.860000
vt -15.120000 -9.240000
vt -15.120000 -4.620000
vt -15.120000 -0.373876
vt -15.120000 -0.355898
vt -15.120000 -0.306676
vt -15.120000 -0.288698
vt -15.120000 0.000000
vt -15.120000 4.620000
vt -15.120000 9.240000
vt -15.120000 13.860000
vt -15.120000 18.480000
vt -13.860000 -0.388161
vt -13.860000 -0.358952
vt -13.860000 -0.320961
vt -13.860000 -0.291752
vt -10.080000 -18.480000
vt -10.080000 -13.860000
vt -10.080000 -9.240000
vt -10.080000 -4.620000
vt -10.080000 -0.384134
vt -10.080000 -0.336452
vt -10.080000 -0.316934
vt -10.080000 -0.269252
vt -10.080000 0.000000
vt -10.080000 4.620000
vt -10.080000 9.240000
vt -10.080000 13.860000
vt -10.080000 18.480000
vt -9.240000 -0.390882
vt -9.240000 -0.358495
vt -9.240000 -0.323682
vt -9.240000 -0.291295
vt -5.040000 -18.480000
vt -5.040000 -13.860000
vt -5.040000 -9.240000
vt -5.040000 -4.620000
vt -5.040000 -0.384503
vt -5.040000 -0.370834
vt -5.040000 -0.317303
vt -5.040000 -0.303634
vt -5.040000 0.000000
vt -5.040000 4.620000
vt -5.040000 9.240000
vt -5.040000 13.860000
vt -5.040000 18.480000
vt -4.620000 -0.356051
vt -4.620000 -0.340968
vt -4.620000 -0.288851
vt -4.620000 -0.273768
vt 0.000000 -18.480000
vt 0.000000 -13.860000
vt 0.000000 -9.240000
vt 0.000000 -4.620000
vt 0.000000 -0.391417
vt 0.000000 -0.379540
vt 0.000000 -0.373469
vt 0.000000 -0.372391
vt 0.000000 -0.324217
vt 0.000000 -0.312340
vt 0.000000 -0.306269
vt 0.000000 -0.305191
vt 0.000000 0.000000
vt 0.000000 4.620000
vt 0.000000 9.240000
vt 0.000000 13.860000
vt 0.000000 18.480000
vt 4.620000 -0.387818
vt 4.620000 -0.384768
vt 4.620000 -0.320618
vt 4.620000 -0.317568
vt 5.040000 -18.480000
vt 5.040000 -13.860000
vt 5.040000 -9.240000
vt 5.040000 -4.620000
vt 5.040000 -0.383567
vt 5.040000 -0.370941
vt 5.040000 -0.316367
vt 5.040000 -0.303741
vt 5.040000 0.000000
vt 5.040000 4.620000
vt 5.040000 9.240000
vt 5.040000 13.860000
vt 5.040000 18.480000
vt 9.240000 -0.357278
vt 9.240000 -0.344353
vt 9.240000 -0.290078
vt 9.240000 -0.277153
vt 10.080000 -18.480000
vt 10.080000 -13.860000
vt 10.080000 -9.240000
vt 10.080000 -4.620000
vt 10.080000 -0.378444
vt 10.080000 -0.362212
vt 10.080000 -0.311244
vt 10.080000 -0.295012
vt 10.080000 0.000000
vt 10.080000 4.620000
vt 10.080000 9.240000
vt 10.080000 13.860000
vt 10.080000 18.480000
vt 13.860000 -0.379959
vt 13.860000 -0.354117
vt 13.860000 -0.312759
vt 13.860000 -0.286917
vt 15.120000 -18.480000
vt 15.120000 -13.860000
vt 15.120000 -9.240000
vt 15.120000 -4.620000
vt 15.120000 -0.384785
vt 15.120000 -0.383085
vt 15.120000 -0.317585
vt 15.120000 -0.315885
vt 15.120000 0.000000
vt 15.120000 4.620000
vt 15.120000 9.240000
vt 15.120000 13.860000
vt 15.120000 18.480000
vt 18.480000 -0.391793
vt 18.480000 -0.336782
vt 18.480000 -0.324593
vt 18.480000 -0.269582
vt 20.160000 -18.480000
vt 20.160000 -13.860000
vt 20.160000 -9.240000
vt 20.160000 -4.620000
vt 20.160000 -0.361893
vt 20.160000 -0.337917
vt 20.160000 -0.294693
vt 20.160000 -0.270717
vt 20.160000 0.000000
vt 20.160000 4.620000
vt 20.160000 9.240000
vt 20.160000 13.860000
vt 20.160000 18.480000
vt 25.200001 -18.480000
vt 25.200001 -13.860000
vt 25.200001 -9.240000
vt 25.200001 -4.620000
vt 25.200001 -0.378187
vt 25.200001 -0.359886
vt 25.200001 -0.310987
vt 25.200001 -0.292686
vt 25.200001 0.000000
vt 25.200001 4.620000
vt 25.200001 9.240000
vt 25.200001 13.860000
vt 25.200001 18.480000
vt 30.240000 -18.480000
vt 30.240000 -13.860000
vt 30.240000 -9.240000
vt 30.240000 -4.620000
vt 30.240000 -0.381055
vt 30.240000 -0.354910
vt 30.240000 -0.313854
vt 30.240000 -0.287709
vt 30.240000 0.000000
vt 30.240000 4.620000
vt 30.240000 9.240000
vt 30.240000 13.860000
vt 30.240000 18.480000
vt 35.279999 -18.480000
vt 35.279999 -13.860000
vt 35.279999 -9.240000
vt 35.279999 -4.620000
vt 35.279999 -0.359485
vt 35.279999 -0.336782
vt 35.279999 -0.292285
vt 35.279999 -0.269582
vt 35.279999 0.000000
vt 35.279999 4.620000
vt 35.279999 9.240000
vt 35.279999 13.860000
vt 35.279999 18.480000
vn -1.000000 0.000000 0.000000
vn -0.008021 -0.999968 0.000637
vn -0.007989 -0.999967 0.001236
vn -0.007477 0.999972 -0.000242
vn -0.007476 -0.999972 -0.000042
vn -0.007037 0.999970 -0.003298
vn -0.006307 0.999980 0.001003
vn -0.006070 -0.999979 0.002096
vn -0.006006 -0.999981 0.001139
vn -0.005850 -0.999981 0.002156
vn -0.005482 -0.999984 0.001541
vn -0.005198 -0.999986 -0.000321
vn -0.005103 0.999983 -0.002909
vn -0.005064 -0.999979 0.004039
vn -0.004970 0.999987 0.000656
vn -0.004893 0.999983 -0.003009
vn -0.004788 0.999987 0.001618
vn -0.004733 -0.999982 0.003804
vn -0.004575 0.999989 -0.000913
vn -0.004513 -0.999979 0.004651
vn -0.004366 0.999990 -0.000469
vn -0.004359 0.999988 0.002049
vn -0.004279 -0.999974 -0.005887
vn -0.004140 0.999977 0.005300
vn -0.004064 -0.999987 0.002964
vn -0.003999 -0.999984 0.004095
vn -0.003959 0.999989 -0.002709
vn -0.003893 0.999987 -0.003300
vn -0.003841 -0.999990 -0.002298
vn -0.003841 0.999991 -0.001549
vn -0.003820 0.999988 0.003030
vn -0.003774 -0.999993 -0.000177
vn -0.003649 -0.999987 -0.003537
vn -0.003568 -0.999991 0.002522
vn -0.003533 0.999986 -0.004040
vn -0.003495 0.999993 0.001290
vn -0.003385 0.999994 -0.000254
vn -0.003370 0.999993 -0.001481
vn -0.003262 -0.999994 -0.001350
vn -0.003063 0.999982 -0.005129
vn -0.002974 -0.999988 0.003797
vn -0.002918 0.999982 0.005325
vn -0.002896 0.999988 0.003869
vn -0.002795 -0.999991 0.003041
vn -0.002734 0.999993 0.002376
vn -0.002726 -0.999989 -0.003798
vn -0.002697 -0.999968 -0.007498
vn -0.002692 -0.999995 0.001798
vn -0.002675 -0.999994 0.002077
vn -0.002603 0.999995 0.001633
vn -0.002436 0.999985 0.004913
vn -0.002406 -0.999980 -0.005888
vn -0.002295 0.999995 -0.002113
vn -0.002275 0.999997 -0.000511
vn -0.002224 0.999990 -0.003964
vn -0.002210 0.999977 -0.006458
vn -0.002204 -0.999996 -0.001999
vn -0.002174 0.999996 -0.001664
vn -0.002152 -0.999998 0.000337
vn -0.002133 -0.999994 0.002561
vn -0.002089 -0.999995 0.002386
vn -0.002051 -0.999986 -0.004784
vn -0.001968 0.999988 0.004434
vn -0.001946 -0.999998 -0.000035
vn -0.001939 0.999993 0.003183
vn -0.001859 0.999994 0.002900
vn -0.001856 0.999998 0.001176
vn -0.001849 0.999998 -0.000285
vn -0.001828 -0.999998 0.000348
vn -0.001817 0.999982 -0.005689
vn -0.001810 0.999987 -0.004675
vn -0.001750 -0.999986 0.004999
vn -0.001728 0.999997 0.001496
vn -0.001687 0.999998 -0.000620
vn -0.001625 -0.999996 -0.002492
vn -0.001602 -0.999992 -0.003619
vn -0.001557 -0.999971 0.007456
vn -0.001542 0.999998 0.001118
vn -0.001466 0.999999 -0.000844
vn -0.001388 -0.999988 -0.004615
vn -0.001380 -0.999985 0.005261
vn -0.001368 0.999971 0.007550
vn -0.001308 -0.999986 -0.005190
vn -0.001243 -0.999999 0.000393
vn -0.001180 0.999998 0.001382
vn -0.001165 0.999999 0.000250
vn -0.001130 0.999999 0.001061
vn -0.001081 0.999979 -0.006374
vn -0.001039 0.999996 0.002775
vn -0.001004 0.999999 0.001328
vn -0.001003 -0.999999 -0.000594
vn -0.000719 -0.999997 -0.002528
vn -0.000718 0.999993 0.003765
vn -0.000689 0.999997 0.002254
vn -0.000671 -0.999992 0.003918
vn -0.000649 0.999992 -0.003960
vn -0.000631 0.999998 -0.002090
vn -0.000614 -1.000000 -0.000655
vn -0.000554 -0.999994 -0.003411
vn -0.000491 0.999999 0.001606
vn -0.000490 0.999997 0.002236
vn -0.000438 -1.000000 -0.000765
vn -0.000424 -1.000000 -0.000004
vn -0.000327 -1.000000 0.000788
vn -0.000316 -0.999999 -0.001189
vn -0.000232 -0.999987 -0.005039
vn -0.000226 -1.000000 -0.000112
vn -0.000221 -0.999998 -0.001894
vn -0.000177 -0.999998 0.002008
vn -0.000087 -0.999999 0.001309
vn -0.000018 -0.999991 -0.004250
vn -0.000008 -1.000000 0.000713
vn -0.000004 -0.999986 -0.005297
vn 0.000000 0.000000 -1.000000
vn 0.000000 0.000000 1.000000
vn 0.000004 0.999986 0.005297
vn 0.000008 1.000000 -0.000713
vn 0.000018 0.999991 0.004250
vn 0.000087 0.999999 -0.001309
vn 0.000177 0.999998 -0.002008
vn 0.000221 0.999998 0.001894
vn 0.000226 1.000000 0.000112
vn 0.000232 0.999987 0.005039
vn 0.000316 0.999999 0.001189
vn 0.000327 1.000000 -0.000788
vn 0.000424 1.000000 0.000004
vn 0.000438 1.000000 0.000765
vn 0.000490 -0.999997 -0.002236
vn 0.000491 -0.999999 -0.001606
vn 0.000554 0.999994 0.003411
vn 0.000614 1.000000 0.000655
vn 0.000631 -0.999998 0.002090
vn 0.000649 -0.999992 0.003960
vn 0.000671 0.999992 -0.003918
vn 0.000689 -0.999997 -0.002254
vn 0.000718 -0.999993 -0.003765
vn 0.000719 0.999997 0.002528
vn 0.001003 0.999999 0.000594
vn 0.001004 -0.999999 -0.001328
vn 0.001039 -0.999996 -0.002775
vn 0.001081 -0.999979 0.006374
vn 0.001130 -0.999999 -0.001061
vn 0.001165 -0.999999 -0.000250
vn 0.001180 -0.999998 -0.001382
vn 0.001243 0.999999 -0.000393
vn 0.001308 0.999986 0.005190
vn 0.001368 -0.999971 -0.007550
vn 0.001380 0.999985 -0.005261
vn 0.001388 0.999988 0.004615
vn 0.001466 -0.999999 0.000844
vn 0.001542 -0.999998 -0.001118
vn 0.001557 0.999971 -0.007456
vn 0.001602 0.999992 0.003619
vn 0.001625 0.999996 0.002492
vn 0.001687 -0.999998 0.000620
vn 0.001728 -0.999997 -0.001496
vn 0.001750 0.999986 -0.004999
vn 0.001810 -0.999987 0.004675
vn 0.001817 -0.999982 0.005689
vn 0.001828 0.999998 -0.000348
vn 0.001849 -0.999998 0.000285
vn 0.001856 -0.999998 -0.001176
vn 0.001859 -0.999994 -0.002900
vn 0.001939 -0.999993 -0.003183
vn 0.001946 0.999998 0.000035
vn 0.001968 -0.999988 -0.004434
vn 0.002051 0.999986 0.004784
vn 0.002089 0.999995 -0.002386
vn 0.002133 0.999994 -0.002561
vn 0.002152 0.999998 -0.000337
vn 0.002174 -0.999996 0.001664
vn 0.002204 0.999996 0.001999
vn 0.002210 -0.999977 0.006458
vn 0.002224 -0.999990 0.003964
vn 0.002275 -0.999997 0.000511
vn 0.002295 -0.999995 0.002113
vn 0.002406 0.999980 0.005888
vn 0.002436 -0.999985 -0.004913
vn 0.002603 -0.999995 -0.001633
vn 0.002675 0.999994 -0.002077
vn 0.002692 0.999995 -0.001798
vn 0.002697 0.999968 0.007498
vn 0.002726 0.999989 0.003798
vn 0.002734 -0.999993 -0.002376
vn 0.002795 0.999991 -0.003041
vn 0.002896 -0.999988 -0.003869
vn 0.002918 -0.999982 -0.005325
vn 0.002974 0.999988 -0.003797
vn 0.003063 -0.999982 0.005129
vn 0.003262 0.999994 0.001350
vn 0.003370 -0.999993 0.001481
vn 0.003385 -0.999994 0.000254
vn 0.003495 -0.999993 -0.001290
vn 0.003533 -0.999986 0.004040
vn 0.003568 0.999991 -0.002522
vn 0.003649 0.999987 0.003537
vn 0.003775 0.999993 0.000177
vn 0.003820 -0.999988 -0.003030
vn 0.003841 -0.999991 0.001549
vn 0.003841 0.999990 0.002298
vn 0.003893 -0.999987 0.003300
vn 0.003959 -0.999989 0.002709
vn 0.003999 0.999984 -0.004095
vn 0.004064 0.999987 -0.002964
vn 0.004140 -0.999977 -0.005300
vn 0.004279 0.999974 0.005887
vn 0.004359 -0.999988 -0.002049
vn 0.004366 -0.999990 0.000469
vn 0.004513 0.999979 -0.004651
vn 0.004575 -0.999989 0.000913
vn 0.004733 0.999982 -0.003804
vn 0.004788 -0.999987 -0.001618
vn 0.004893 -0.999983 0.003009
vn 0.004970 -0.999987 -0.000656
vn 0.005064 0.999979 -0.004039
vn 0.005103 -0.999983 0.002909
vn 0.005198 0.999986 0.000321
vn 0.005482 0.999984 -0.001541
vn 0.005850 0.999981 -0.002156
vn 0.006006 0.999981 -0.001139
vn 0.006070 0.999979 -0.002096
vn 0.006307 -0.999980 -0.001003
vn 0.007037 -0.999970 0.003298
vn 0.007476 0.999972 0.000042
vn 0.007477 -0.999972 0.000242
vn 0.007989 0.999967 -0.001236
vn 0.008021 0.999968 -0.000637
vn 1.000000 0.000000 -0.000001
vn 1.000000 0.000000 0.000000
usemtl RoadTarmac
f 1/5/114 10/7/114 24/19/114
f 1/13/112 20/25/112 5/12/112
f 1/13/112 24/26/112 20/25/112
f 1/176/1 5/159/1 10/178/1
f 2/9/20 19/17/20 9/4/20
f 2/9/20 22/22/20 19/17/20
f 2/9/144 3/10/144 22/22/144
f 2/112/1 9/105/1 11/116/1
f 2/112/1 11/116/1 3/126/1
f 3/10/33 8/11/33 21/24/33
f 3/10/33 21/24/33 25/23/33
f 3/10/144 25/23/144 22/22/144
f 3/126/1 11/116/1 12/128/1
f 3/126/1 12/128/1 8/143/1
f 4/1/113 6/2/113 26/15/113
f 4/1/113 26/15/113 23/14/113
f 4/6/115 23/18/115 13/8/115
f 4/53/1 13/55/1 6/71/1
f 5/12/14 20/25/14 21/24/14
f 5/12/14 21/24/14 8/11/14
f 5/159/1 8/143/1 14/161/1
f 5/159/1 14/161/1 10/178/1
f 6/2/139 7/3/139 26/15/139
f 6/71/1 13/55/1 15/73/1
f 6/71/1 15/73/1 7/88/1
f 7/3/25 9/4/25 27/16/25
f 7/3/139 27/16/139 26/15/139
f 7/88/1 15/73/1 16/90/1
f 7/88/1 16/90/1 9/105/1
f 8/143/1 12/128/1 17/145/1
f 8/143/1 17/145/1 14/161/1
f 9/4/25 19/17/25 27/16/25
f 9/105/1 16/90/1 18/107/1
f 9/105/1 18/107/1 11/116/1
f 10/7/114 33/21/114 24/19/114
f 10/13/117 14/12/117 29/25/117
f 10/13/117 29/25/117 33/26/117
f 11/9/85 31/22/85 12/10/85
f 11/9/209 18/4/209 28/17/209
f 11/9/209 28/17/209 31/22/209
f 12/10/85 31/22/85 34/23/85
f 12/10/196 30/24/196 17/11/196
f 12/10/196 34/23/196 30/24/196
f 13/1/116 32/14/116 35/15/116
f 13/1/116 35/15/116 15/2/116
f 13/8/115 23/18/115 32/20/115
f 14/12/215 17/11/215 30/24/215
f 14/12/215 30/24/215 29/25/215
f 15/2/90 35/15/90 16/3/90
f 16/3/90 35/15/90 36/16/90
f 16/3/204 36/16/204 18/4/204
f 18/4/204 36/16/204 28/17/204
f 19/17/109 37/29/109 27/16/109
f 19/17/109 43/30/109 37/29/109
f 19/17/210 22/22/210 41/35/210
f 19/17/210 41/35/210 43/30/210
f 20/25/175 38/38/175 21/24/175
f 20/25/179 24/26/179 38/38/179
f 21/24/175 38/38/175 40/37/175
f 21/24/201 40/37/201 25/23/201
f 22/22/198 25/23/198 41/35/198
f 23/14/161 26/15/161 39/28/161
f 23/14/161 39/28/161 45/27/161
f 23/18/115 45/32/115 32/20/115
f 24/19/114 33/21/114 42/31/114
f 24/26/179 42/39/179 38/38/179
f 25/23/198 44/36/198 41/35/198
f 25/23/201 40/37/201 44/36/201
f 26/15/12 27/16/12 37/29/12
f 26/15/12 37/29/12 39/28/12
f 28/17/19 50/35/19 31/22/19
f 28/17/19 52/30/19 50/35/19
f 28/17/120 36/16/120 46/29/120
f 28/17/120 46/29/120 52/30/120
f 29/25/50 47/38/50 33/26/50
f 29/25/54 30/24/54 47/38/54
f 30/24/28 34/23/28 49/37/28
f 30/24/54 49/37/54 47/38/54
f 31/22/31 50/35/31 34/23/31
f 32/14/68 48/28/68 35/15/68
f 32/14/68 54/27/68 48/28/68
f 32/20/115 45/32/115 54/34/115
f 33/21/114 51/33/114 42/31/114
f 33/26/50 47/38/50 51/39/50
f 34/23/28 53/36/28 49/37/28
f 34/23/31 50/35/31 53/36/31
f 35/15/217 46/29/217 36/16/217
f 35/15/217 48/28/217 46/29/217
f 37/29/135 55/41/135 39/28/135
f 37/29/135 60/42/135 55/41/135
f 37/29/205 43/30/205 60/42/205
f 38/38/162 42/39/162 58/51/162
f 38/38/213 58/51/213 40/37/213
f 39/28/77 55/41/77 61/40/77
f 39/28/77 61/40/77 45/27/77
f 40/37/128 56/49/128 44/36/128
f 40/37/128 62/50/128 56/49/128
f 40/37/213 58/51/213 62/50/213
f 41/35/29 44/36/29 56/49/29
f 41/35/29 56/49/29 57/48/29
f 41/35/141 57/48/141 43/30/141
f 42/31/114 51/33/114 59/44/114
f 42/39/162 59/52/162 58/51/162
f 43/30/141 57/48/141 63/43/141
f 43/30/205 63/43/205 60/42/205
f 45/32/115 61/45/115 54/34/115
f 46/29/24 69/42/24 52/30/24
f 46/29/94 48/28/94 64/41/94
f 46/29/94 64/41/94 69/42/94
f 47/38/16 49/37/16 67/51/16
f 47/38/67 67/51/67 51/39/67
f 48/28/152 54/27/152 70/40/152
f 48/28/152 70/40/152 64/41/152
f 49/37/16 71/50/16 67/51/16
f 49/37/101 53/36/101 65/49/101
f 49/37/101 65/49/101 71/50/101
f 50/35/88 52/30/88 66/48/88
f 50/35/200 65/49/200 53/36/200
f 50/35/200 66/48/200 65/49/200
f 51/33/114 68/46/114 59/44/114
f 51/39/67 67/51/67 68/52/67
f 52/30/24 69/42/24 72/43/24
f 52/30/88 72/43/88 66/48/88
f 54/34/115 61/45/115 70/47/115
f 55/41/81 73/58/81 76/57/81
f 55/41/81 76/57/81 61/40/81
f 55/41/99 60/42/99 74/59/99
f 55/41/99 74/59/99 73/58/99
f 56/49/83 62/50/83 78/67/83
f 56/49/83 78/67/83 77/66/83
f 56/49/199 77/66/199 57/48/199
f 57/48/159 79/65/159 63/43/159
f 57/48/199 77/66/199 79/65/199
f 58/51/26 75/68/26 78/67/26
f 58/51/26 78/67/26 62/50/26
f 58/51/92 59/52/92 80/69/92
f 58/51/92 80/69/92 75/68/92
f 59/44/114 68/46/114 80/62/114
f 60/42/52 63/43/52 81/60/52
f 60/42/52 81/60/52 74/59/52
f 61/45/115 76/61/115 85/63/115
f 61/45/115 85/63/115 70/47/115
f 63/43/159 79/65/159 81/60/159
f 64/41/130 82/58/130 83/59/130
f 64/41/130 83/59/130 69/42/130
f 64/41/148 70/40/148 85/57/148
f 64/41/148 85/57/148 82/58/148
f 65/49/30 66/48/30 86/66/30
f 65/49/146 86/66/146 87/67/146
f 65/49/146 87/67/146 71/50/146
f 66/48/30 88/65/30 86/66/30
f 66/48/70 72/43/70 88/65/70
f 67/51/137 84/68/137 89/69/137
f 67/51/137 89/69/137 68/52/137
f 67/51/203 71/50/203 87/67/203
f 67/51/203 87/67/203 84/68/203
f 68/46/114 89/64/114 80/62/114
f 69/42/177 83/59/177 90/60/177
f 69/42/177 90/60/177 72/43/177
f 72/43/70 90/60/70 88/65/70
f 73/58/163 91/74/163 76/57/163
f 73/58/163 96/75/163 91/74/163
f 73/58/222 74/59/222 96/75/222
f 74/59/184 81/60/184 97/76/184
f 74/59/222 97/76/222 96/75/222
f 75/68/147 80/69/147 92/85/147
f 75/68/173 92/85/173 78/67/173
f 76/61/115 91/78/115 100/80/115
f 76/61/115 100/80/115 85/63/115
f 77/66/59 93/82/59 79/65/59
f 77/66/59 94/83/59 93/82/59
f 77/66/186 78/67/186 94/83/186
f 78/67/173 92/85/173 98/84/173
f 78/67/186 98/84/186 94/83/186
f 79/65/41 93/82/41 95/77/41
f 79/65/41 95/77/41 81/60/41
f 80/62/114 89/64/114 99/79/114
f 80/69/147 99/86/147 92/85/147
f 81/60/184 95/77/184 97/76/184
f 82/58/7 105/75/7 83/59/7
f 82/58/66 85/57/66 100/74/66
f 82/58/66 100/74/66 105/75/66
f 83/59/7 105/75/7 106/76/7
f 83/59/45 106/76/45 90/60/45
f 84/68/56 87/67/56 101/85/56
f 84/68/82 101/85/82 89/69/82
f 86/66/43 103/83/43 87/67/43
f 86/66/170 88/65/170 102/82/170
f 86/66/170 102/82/170 103/83/170
f 87/67/43 103/83/43 107/84/43
f 87/67/56 107/84/56 101/85/56
f 88/65/188 90/60/188 104/77/188
f 88/65/188 104/77/188 102/82/188
f 89/64/114 108/81/114 99/79/114
f 89/69/82 101/85/82 108/86/82
f 90/60/45 106/76/45 104/77/45
f 91/74/111 96/75/111 114/92/111
f 91/74/111 114/92/111 113/91/111
f 91/78/115 113/96/115 100/80/115
f 92/85/107 99/86/107 111/103/107
f 92/85/107 111/103/107 117/102/107
f 92/85/194 117/102/194 98/84/194
f 93/82/103 115/99/103 95/77/103
f 93/82/132 94/83/132 110/100/132
f 93/82/132 110/100/132 115/99/132
f 94/83/47 98/84/47 116/101/47
f 94/83/47 116/101/47 110/100/47
f 95/77/5 112/94/5 97/76/5
f 95/77/103 115/99/103 112/94/103
f 96/75/8 97/76/8 114/92/8
f 97/76/5 112/94/5 109/93/5
f 97/76/8 109/93/8 114/92/8
f 98/84/194 117/102/194 116/101/194
f 99/79/114 108/81/114 120/97/114
f 99/79/114 120/97/114 111/95/114
f 100/74/118 122/91/118 123/92/118
f 100/74/118 123/92/118 105/75/118
f 100/80/115 113/96/115 122/98/115
f 101/85/35 107/84/35 126/102/35
f 101/85/122 120/103/122 108/86/122
f 101/85/122 126/102/122 120/103/122
f 102/82/97 119/100/97 103/83/97
f 102/82/97 124/99/97 119/100/97
f 102/82/126 104/77/126 124/99/126
f 103/83/182 119/100/182 125/101/182
f 103/83/182 125/101/182 107/84/182
f 104/77/126 121/94/126 124/99/126
f 104/77/224 106/76/224 121/94/224
f 105/75/221 123/92/221 106/76/221
f 106/76/221 123/92/221 118/93/221
f 106/76/224 118/93/224 121/94/224
f 107/84/35 125/101/35 126/102/35
f 109/93/192 135/110/192 114/92/192
f 109/93/202 112/94/202 128/111/202
f 109/93/202 128/111/202 135/110/202
f 110/100/129 116/101/129 134/121/129
f 110/100/171 134/121/171 115/99/171
f 111/95/114 120/97/114 129/113/114
f 111/103/18 127/123/18 117/102/18
f 111/103/18 129/124/18 127/123/18
f 112/94/80 115/99/80 133/120/80
f 112/94/80 133/120/80 128/111/80
f 113/91/91 114/92/91 131/109/91
f 113/91/91 131/109/91 132/108/91
f 113/96/115 132/115/115 141/119/115
f 113/96/115 141/119/115 122/98/115
f 114/92/192 135/110/192 131/109/192
f 115/99/171 134/121/171 133/120/171
f 116/101/2 117/102/2 130/122/2
f 116/101/129 130/122/129 134/121/129
f 117/102/2 127/123/2 130/122/2
f 118/93/27 137/111/27 121/94/27
f 118/93/27 144/110/27 137/111/27
f 118/93/37 123/92/37 144/110/37
f 119/100/58 124/99/58 143/121/58
f 119/100/100 143/121/100 125/101/100
f 120/97/114 138/117/114 129/113/114
f 120/103/211 126/102/211 136/123/211
f 120/103/211 136/123/211 138/124/211
f 121/94/149 137/111/149 142/120/149
f 121/94/149 142/120/149 124/99/149
f 122/91/138 140/109/138 123/92/138
f 122/91/138 141/108/138 140/109/138
f 123/92/37 140/109/37 144/110/37
f 124/99/58 142/120/58 143/121/58
f 125/101/100 143/121/100 139/122/100
f 125/101/227 139/122/227 126/102/227
f 126/102/227 139/122/227 136/123/227
f 127/123/208 129/124/208 147/141/208
f 127/123/208 147/141/208 150/140/208
f 127/123/223 150/140/223 130/122/223
f 128/111/72 146/132/72 148/131/72
f 128/111/72 148/131/72 135/110/72
f 128/111/136 133/120/136 146/132/136
f 129/113/114 138/117/114 147/134/114
f 130/122/216 151/139/216 134/121/216
f 130/122/223 150/140/223 151/139/223
f 131/109/150 135/110/150 148/131/150
f 131/109/150 148/131/150 152/130/150
f 131/109/178 145/129/178 132/108/178
f 131/109/178 152/130/178 145/129/178
f 132/115/115 145/133/115 154/135/115
f 132/115/115 154/135/115 141/119/115
f 133/120/136 149/137/136 146/132/136
f 133/120/166 134/121/166 149/137/166
f 134/121/166 153/138/166 149/137/166
f 134/121/216 151/139/216 153/138/216
f 136/123/6 139/122/6 159/140/6
f 136/123/21 156/141/21 138/124/21
f 136/123/21 159/140/21 156/141/21
f 137/111/93 155/132/93 142/120/93
f 137/111/157 144/110/157 157/131/157
f 137/111/157 157/131/157 155/132/157
f 138/117/114 156/136/114 147/134/114
f 139/122/6 160/139/6 159/140/6
f 139/122/13 143/121/13 160/139/13
f 140/109/51 141/108/51 154/129/51
f 140/109/51 154/129/51 161/130/51
f 140/109/79 157/131/79 144/110/79
f 140/109/79 161/130/79 157/131/79
f 142/120/63 158/137/63 143/121/63
f 142/120/93 155/132/93 158/137/93
f 143/121/13 162/138/13 160/139/13
f 143/121/63 158/137/63 162/138/63
f 145/129/76 152/130/76 165/147/76
f 145/129/76 165/147/76 168/146/76
f 145/133/115 168/151/115 154/135/115
f 146/132/164 149/137/164 167/149/164
f 146/132/176 167/149/176 148/131/176
f 147/134/114 156/136/114 172/152/114
f 147/134/114 172/152/114 163/150/114
f 147/141/49 163/158/49 166/157/49
f 147/141/49 166/157/49 150/140/49
f 148/131/48 165/147/48 152/130/48
f 148/131/48 170/148/48 165/147/48
f 148/131/176 167/149/176 170/148/176
f 149/137/75 153/138/75 169/155/75
f 149/137/75 169/155/75 171/154/75
f 149/137/164 171/154/164 167/149/164
f 150/140/11 164/156/11 151/139/11
f 150/140/11 166/157/11 164/156/11
f 151/139/10 164/156/10 169/155/10
f 151/139/10 169/155/10 153/138/10
f 154/129/153 174/147/153 161/130/153
f 154/129/153 177/146/153 174/147/153
f 154/135/115 168/151/115 177/153/115
f 155/132/53 157/131/53 176/149/53
f 155/132/65 176/149/65 158/137/65
f 156/141/180 159/140/180 175/157/180
f 156/141/180 175/157/180 172/158/180
f 157/131/53 179/148/53 176/149/53
f 157/131/181 161/130/181 174/147/181
f 157/131/181 174/147/181 179/148/181
f 158/137/65 176/149/65 180/154/65
f 158/137/154 178/155/154 162/138/154
f 158/137/154 180/154/154 178/155/154
f 159/140/218 160/139/218 173/156/218
f 159/140/218 173/156/218 175/157/218
f 160/139/219 162/138/219 178/155/219
f 160/139/219 178/155/219 173/156/219
f 163/150/114 172/152/114 192/170/114
f 163/150/114 192/170/114 183/168/114
f 163/158/189 183/175/189 166/157/189
f 164/156/193 185/172/193 169/155/193
f 164/156/193 189/173/193 185/172/193
f 164/156/225 166/157/225 188/174/225
f 164/156/225 188/174/225 189/173/225
f 165/147/108 187/164/108 168/146/108
f 165/147/143 170/148/143 187/164/143
f 166/157/189 183/175/189 188/174/189
f 167/149/44 181/166/44 184/165/44
f 167/149/44 184/165/44 170/148/44
f 167/149/46 171/154/46 186/171/46
f 167/149/46 186/171/46 181/166/46
f 168/146/108 187/164/108 182/163/108
f 168/151/115 182/167/115 191/169/115
f 168/151/115 191/169/115 177/153/115
f 169/155/84 185/172/84 186/171/84
f 169/155/84 186/171/84 171/154/84
f 170/148/143 184/165/143 187/164/143
f 172/158/40 175/157/40 192/175/40
f 173/156/4 197/174/4 175/157/4
f 173/156/4 198/173/4 197/174/4
f 173/156/36 178/155/36 194/172/36
f 173/156/36 194/172/36 198/173/36
f 174/147/86 196/164/86 179/148/86
f 174/147/121 177/146/121 196/164/121
f 175/157/40 197/174/40 192/175/40
f 176/149/183 190/166/183 195/171/183
f 176/149/183 195/171/183 180/154/183
f 176/149/185 179/148/185 193/165/185
f 176/149/185 193/165/185 190/166/185
f 177/146/121 191/163/121 196/164/121
f 178/155/145 180/154/145 195/171/145
f 178/155/145 195/171/145 194/172/145
f 179/148/86 196/164/86 193/165/86
f 181/166/155 203/183/155 184/165/155
f 181/166/156 186/171/156 203/183/156
f 182/163/212 187/164/212 207/180/212
f 182/167/115 207/185/115 191/169/115
f 183/168/114 192/170/114 204/184/114
f 183/175/60 199/191/60 188/174/60
f 183/175/60 204/192/60 199/191/60
f 184/165/95 200/182/95 205/181/95
f 184/165/95 205/181/95 187/164/95
f 184/165/155 203/183/155 200/182/155
f 185/172/64 189/173/64 201/190/64
f 185/172/64 201/190/64 206/189/64
f 185/172/140 202/188/140 186/171/140
f 185/172/140 206/189/140 202/188/140
f 186/171/156 202/188/156 203/183/156
f 187/164/212 205/181/212 207/180/212
f 188/174/3 199/191/3 201/190/3
f 188/174/3 201/190/3 189/173/3
f 190/166/73 212/183/73 195/171/73
f 190/166/74 193/165/74 212/183/74
f 191/163/17 216/180/17 196/164/17
f 191/169/115 207/185/115 216/187/115
f 192/170/114 213/186/114 204/184/114
f 192/175/169 197/174/169 208/191/169
f 192/175/169 208/191/169 213/192/169
f 193/165/74 209/182/74 212/183/74
f 193/165/134 196/164/134 214/181/134
f 193/165/134 214/181/134 209/182/134
f 194/172/89 195/171/89 211/188/89
f 194/172/89 211/188/89 215/189/89
f 194/172/165 210/190/165 198/173/165
f 194/172/165 215/189/165 210/190/165
f 195/171/73 212/183/73 211/188/73
f 196/164/17 216/180/17 214/181/17
f 197/174/226 198/173/226 210/190/226
f 197/174/226 210/190/226 208/191/226
f 199/191/106 204/192/106 221/205/106
f 199/191/106 221/205/106 217/204/106
f 199/191/158 217/204/158 201/190/158
f 200/182/151 219/194/151 205/181/151
f 200/182/151 225/195/151 219/194/151
f 200/182/214 203/183/214 225/195/214
f 201/190/104 220/202/104 206/189/104
f 201/190/104 223/203/104 220/202/104
f 201/190/158 217/204/158 223/203/158
f 202/188/98 206/189/98 220/202/98
f 202/188/98 220/202/98 222/201/98
f 202/188/191 222/201/191 203/183/191
f 203/183/191 222/201/191 224/196/191
f 203/183/214 224/196/214 225/195/214
f 204/184/114 213/186/114 221/198/114
f 205/181/9 218/193/9 207/180/9
f 205/181/9 219/194/9 218/193/9
f 207/185/115 218/197/115 227/199/115
f 207/185/115 227/199/115 216/187/115
f 208/191/71 210/190/71 226/204/71
f 208/191/123 226/204/123 230/205/123
f 208/191/123 230/205/123 213/192/123
f 209/182/15 234/195/15 212/183/15
f 209/182/78 214/181/78 228/194/78
f 209/182/78 228/194/78 234/195/78
f 210/190/71 232/203/71 226/204/71
f 210/190/125 215/189/125 229/202/125
f 210/190/125 229/202/125 232/203/125
f 211/188/38 212/183/38 231/201/38
f 211/188/131 229/202/131 215/189/131
f 211/188/131 231/201/131 229/202/131
f 212/183/15 234/195/15 233/196/15
f 212/183/38 233/196/38 231/201/38
f 213/186/114 230/200/114 221/198/114
f 214/181/220 216/180/220 227/193/220
f 214/181/220 227/193/220 228/194/220
f 217/204/105 243/217/105 223/203/105
f 217/204/207 221/205/207 243/217/207
f 218/193/69 219/194/69 237/206/69
f 218/197/115 237/210/115 246/212/115
f 218/197/115 246/212/115 227/199/115
f 219/194/23 225/195/23 239/208/23
f 219/194/23 239/208/23 236/207/23
f 219/194/69 236/207/69 237/206/69
f 220/202/61 223/203/61 242/215/61
f 220/202/102 242/215/102 222/201/102
f 221/198/114 230/200/114 241/211/114
f 221/205/207 241/218/207 243/217/207
f 222/201/34 238/214/34 240/209/34
f 222/201/34 240/209/34 224/196/34
f 222/201/102 242/215/102 238/214/102
f 223/203/61 235/216/61 242/215/61
f 223/203/105 243/217/105 235/216/105
f 224/196/32 240/209/32 225/195/32
f 225/195/32 240/209/32 239/208/32
f 226/204/22 252/217/22 230/205/22
f 226/204/124 232/203/124 252/217/124
f 227/193/160 246/206/160 228/194/160
f 228/194/160 246/206/160 245/207/160
f 228/194/206 245/207/206 248/208/206
f 228/194/206 248/208/206 234/195/206
f 229/202/127 231/201/127 251/215/127
f 229/202/168 251/215/168 232/203/168
f 230/200/114 250/213/114 241/211/114
f 230/205/22 252/217/22 250/218/22
f 231/201/127 247/214/127 251/215/127
f 231/201/195 233/196/195 249/209/195
f 231/201/195 249/209/195 247/214/195
f 232/203/124 244/216/124 252/217/124
f 232/203/168 251/215/168 244/216/168
f 233/196/197 234/195/197 249/209/197
f 234/195/197 248/208/197 249/209/197
f 235/216/110 255/228/110 242/215/110
f 235/216/110 258/229/110 255/228/110
f 235/216/187 243/217/187 258/229/187
f 236/207/57 239/208/57 253/221/57
f 236/207/57 253/221/57 254/220/57
f 236/207/174 254/220/174 237/206/174
f 237/206/174 254/220/174 257/219/174
f 237/210/115 257/223/115 246/212/115
f 238/214/39 242/215/39 255/228/39
f 238/214/39 255/228/39 256/227/39
f 238/214/133 256/227/133 240/209/133
f 239/208/62 240/209/62 259/222/62
f 239/208/62 259/222/62 253/221/62
f 240/209/133 256/227/133 259/222/133
f 241/211/114 250/213/114 261/224/114
f 241/218/142 260/230/142 243/217/142
f 241/218/142 261/231/142 260/230/142
f 243/217/187 260/230/187 258/229/187
f 244/216/42 267/229/42 252/217/42
f 244/216/119 251/215/119 264/228/119
f 244/216/119 264/228/119 267/229/119
f 245/207/55 246/206/55 263/220/55
f 245/207/172 262/221/172 248/208/172
f 245/207/172 263/220/172 262/221/172
f 246/206/55 266/219/55 263/220/55
f 246/212/115 257/223/115 266/225/115
f 247/214/96 249/209/96 265/227/96
f 247/214/190 264/228/190 251/215/190
f 247/214/190 265/227/190 264/228/190
f 248/208/167 262/221/167 268/222/167
f 248/208/167 268/222/167 249/209/167
f 249/209/96 268/222/96 265/227/96
f 250/213/114 270/226/114 261/224/114
f 250/218/87 252/217/87 269/230/87
f 250/218/87 269/230/87 270/231/87
f 252/217/42 267/229/42 269/230/42
f 253/87/229 259/104/229 262/89/229
f 253/87/229 262/89/229 254/70/229
f 254/70/229 262/89/229 263/72/229
f 254/70/229 263/72/229 257/54/229
f 255/125/228 258/142/228 264/127/228
f 255/125/229 264/127/229 256/114/229
f 256/114/229 264/127/229 265/118/229
f 256/114/229 265/118/229 259/104/229
f 257/54/229 263/72/229 266/56/229
f 258/142/228 267/144/228 264/127/228
f 258/142/229 260/160/229 267/144/229
f 259/104/229 265/118/229 268/106/229
f 259/104/229 268/106/229 262/89/229
f 260/160/228 261/177/228 269/162/228
f 260/160/229 269/162/229 267/144/229
f 261/177/228 270/179/228 269/162/228
