# exported by ae3d_export.py v3
# object: Street_Bollard6
mtllib Street_Bollard6.mtl
v -0.074674 0.019997 -0.054671
v -0.074674 0.019997 0.054671
v -0.069047 0.005857 -0.054903
v -0.069047 0.005857 0.054903
v -0.068815 0.019997 -0.068815
v -0.068815 0.019997 0.068815
v -0.066409 0.008452 -0.066409
v -0.066409 0.008452 0.066409
v -0.060326 0.900003 -0.040323
v -0.060326 0.900003 0.040323
v -0.055000 0.000000 -0.055000
v -0.055000 0.000000 0.055000
v -0.054903 0.005857 -0.069047
v -0.054903 0.005857 0.069047
v -0.054671 0.019997 -0.074674
v -0.054671 0.019997 0.074674
v -0.054467 0.900003 -0.054467
v -0.054467 0.900003 0.054467
v -0.054238 0.914143 -0.040094
v -0.054238 0.914143 0.040094
v -0.051684 0.911548 -0.051684
v -0.051684 0.911548 0.051684
v -0.040323 0.900003 -0.060326
v -0.040323 0.900003 0.060326
v -0.040094 0.914143 -0.054238
v -0.040094 0.914143 0.054238
v -0.040000 0.920000 -0.040000
v -0.040000 0.920000 0.040000
v 0.040000 0.920000 -0.040000
v 0.040000 0.920000 0.040000
v 0.040094 0.914143 -0.054238
v 0.040094 0.914143 0.054238
v 0.040323 0.900003 -0.060326
v 0.040323 0.900003 0.060326
v 0.051684 0.911548 -0.051684
v 0.051684 0.911548 0.051684
v 0.054238 0.914143 -0.040094
v 0.054238 0.914143 0.040094
v 0.054467 0.900003 -0.054467
v 0.054467 0.900003 0.054467
v 0.054671 0.019997 -0.074674
v 0.054671 0.019997 0.074674
v 0.054903 0.005857 -0.069047
v 0.054903 0.005857 0.069047
v 0.055000 0.000000 -0.055000
v 0.055000 0.000000 0.055000
v 0.060326 0.900003 -0.040323
v 0.060326 0.900003 0.040323
v 0.066409 0.008452 -0.066409
v 0.066409 0.008452 0.066409
v 0.068815 0.019997 -0.068815
v 0.068815 0.019997 0.068815
v 0.069047 0.005857 -0.054903
v 0.069047 0.005857 0.054903
v 0.074674 0.019997 -0.054671
v 0.074674 0.019997 0.054671
vt -0.110476 -0.087845
vt -0.110476 0.087845
vt -0.110104 0.031996
vt -0.106254 -0.106254
vt -0.106254 0.013523
vt -0.106254 0.106254
vt -0.088000 -0.088000
vt -0.088000 0.088000
vt -0.087845 -0.110476
vt -0.087845 0.009371
vt -0.087845 0.110476
vt -0.087474 0.031996
vt -0.087147 1.440004
vt -0.086781 -0.064151
vt -0.086781 0.064151
vt -0.082695 -0.082695
vt -0.082695 0.082695
vt -0.082695 1.458477
vt -0.064517 1.440004
vt -0.064151 -0.086781
vt -0.064151 0.086781
vt -0.064151 1.462629
vt -0.064000 -0.064000
vt -0.064000 0.064000
vt 0.064000 -0.064000
vt 0.064000 0.064000
vt 0.064151 -0.086781
vt 0.064151 0.086781
vt 0.064151 1.462629
vt 0.064517 1.440004
vt 0.082695 -0.082695
vt 0.082695 0.082695
vt 0.082695 1.458477
vt 0.086781 -0.064151
vt 0.086781 0.064151
vt 0.087147 1.440004
vt 0.087474 0.031996
vt 0.087845 -0.110476
vt 0.087845 0.009371
vt 0.087845 0.110476
vt 0.088000 -0.088000
vt 0.088000 0.088000
vt 0.106254 -0.106254
vt 0.106254 0.013523
vt 0.106254 0.106254
vt 0.110104 0.031996
vt 0.110476 -0.087845
vt 0.110476 0.087845
vn -0.999867 0.016302 0.000000
vn -0.929140 -0.369728 0.000000
vn -0.923652 0.021298 -0.382640
vn -0.923652 0.021298 0.382640
vn -0.918492 0.395440 0.000000
vn -0.893654 -0.307172 -0.327152
vn -0.893654 -0.307172 0.327152
vn -0.882241 0.342548 -0.322972
vn -0.882241 0.342549 0.322973
vn -0.384844 -0.922982 0.000000
vn -0.382640 0.021298 -0.923652
vn -0.382639 0.021298 0.923652
vn -0.380433 0.924808 0.000000
vn -0.328121 -0.885818 0.328121
vn -0.328120 -0.885818 -0.328120
vn -0.327151 -0.307172 -0.893654
vn -0.327151 -0.307172 0.893654
vn -0.322977 0.342550 0.882239
vn -0.322975 0.342550 -0.882240
vn -0.322004 0.890296 -0.322003
vn -0.321999 0.890298 0.322004
vn 0.000000 -1.000000 0.000000
vn 0.000000 -0.922982 -0.384844
vn 0.000000 -0.922982 0.384844
vn 0.000000 -0.369728 -0.929140
vn 0.000000 -0.369728 0.929140
vn 0.000000 0.016302 -0.999867
vn 0.000000 0.016302 0.999867
vn 0.000000 0.395443 -0.918490
vn 0.000000 0.395443 0.918490
vn 0.000000 0.924806 -0.380438
vn 0.000000 0.924806 0.380438
vn 0.000000 1.000000 0.000000
vn 0.321999 0.890298 -0.322004
vn 0.321999 0.890298 0.322004
vn 0.322977 0.342550 -0.882239
vn 0.322977 0.342550 0.882239
vn 0.327151 -0.307173 0.893654
vn 0.327151 -0.307172 -0.893654
vn 0.328121 -0.885818 -0.328121
vn 0.328121 -0.885818 0.328121
vn 0.380439 0.924806 0.000000
vn 0.382639 0.021298 -0.923652
vn 0.382640 0.021298 0.923652
vn 0.384844 -0.922982 0.000000
vn 0.882241 0.342548 0.322972
vn 0.882241 0.342549 -0.322973
vn 0.893654 -0.307172 -0.327152
vn 0.893654 -0.307172 0.327151
vn 0.918491 0.395442 0.000000
vn 0.923652 0.021298 -0.382640
vn 0.923652 0.021298 0.382640
vn 0.929140 -0.369728 0.000000
vn 0.999867 0.016302 0.000000
usemtl PropPaint
f 1/37/1 2/12/1 10/19/1
f 1/37/1 10/19/1 9/30/1
f 1/37/2 3/39/2 4/10/2
f 1/37/2 4/10/2 2/12/2
f 1/37/3 9/30/3 17/36/3
f 1/37/3 17/36/3 5/46/3
f 1/37/6 5/46/6 7/44/6
f 1/37/6 7/44/6 3/39/6
f 2/12/4 6/3/4 18/13/4
f 2/12/4 18/13/4 10/19/4
f 2/12/7 4/10/7 8/5/7
f 2/12/7 8/5/7 6/3/7
f 3/2/10 11/8/10 12/7/10
f 3/2/10 12/7/10 4/1/10
f 3/2/15 7/6/15 11/8/15
f 4/1/14 12/7/14 8/4/14
f 5/3/11 17/13/11 15/12/11
f 5/3/16 15/12/16 7/5/16
f 6/3/12 16/12/12 18/13/12
f 6/3/17 8/5/17 16/12/17
f 7/5/16 15/12/16 13/10/16
f 7/6/15 13/11/15 11/8/15
f 8/4/14 12/7/14 14/9/14
f 8/5/17 14/10/17 16/12/17
f 9/30/5 10/19/5 19/29/5
f 9/30/8 19/29/8 21/33/8
f 9/30/8 21/33/8 17/36/8
f 10/19/5 20/22/5 19/29/5
f 10/19/9 18/13/9 22/18/9
f 10/19/9 22/18/9 20/22/9
f 11/8/22 45/42/22 12/7/22
f 11/8/23 13/11/23 43/40/23
f 11/8/23 43/40/23 45/42/23
f 12/7/22 45/42/22 46/41/22
f 12/7/24 44/38/24 14/9/24
f 12/7/24 46/41/24 44/38/24
f 13/10/25 15/12/25 41/37/25
f 13/10/25 41/37/25 43/39/25
f 14/10/26 44/39/26 16/12/26
f 15/12/11 17/13/11 23/19/11
f 15/12/27 23/19/27 41/37/27
f 16/12/12 24/19/12 18/13/12
f 16/12/26 44/39/26 42/37/26
f 16/12/28 34/30/28 24/19/28
f 16/12/28 42/37/28 34/30/28
f 17/13/19 21/18/19 23/19/19
f 18/13/18 24/19/18 22/18/18
f 19/15/13 20/14/13 28/23/13
f 19/15/13 28/23/13 27/24/13
f 19/15/20 27/24/20 21/17/20
f 20/14/21 22/16/21 28/23/21
f 21/17/20 27/24/20 25/21/20
f 21/18/19 25/22/19 23/19/19
f 22/16/21 26/20/21 28/23/21
f 22/18/18 24/19/18 26/22/18
f 23/19/27 33/30/27 41/37/27
f 23/19/29 25/22/29 31/29/29
f 23/19/29 31/29/29 33/30/29
f 24/19/30 32/29/30 26/22/30
f 24/19/30 34/30/30 32/29/30
f 25/21/31 27/24/31 29/26/31
f 25/21/31 29/26/31 31/28/31
f 26/20/32 30/25/32 28/23/32
f 26/20/32 32/27/32 30/25/32
f 27/24/33 28/23/33 29/26/33
f 28/23/33 30/25/33 29/26/33
f 29/26/34 35/32/34 31/28/34
f 29/26/34 37/35/34 35/32/34
f 29/26/42 30/25/42 38/34/42
f 29/26/42 38/34/42 37/35/42
f 30/25/35 32/27/35 36/31/35
f 30/25/35 36/31/35 38/34/35
f 31/29/36 35/33/36 33/30/36
f 32/29/37 34/30/37 36/33/37
f 33/30/36 35/33/36 39/36/36
f 33/30/43 39/36/43 41/37/43
f 34/30/37 40/36/37 36/33/37
f 34/30/44 42/37/44 40/36/44
f 35/33/47 37/29/47 47/30/47
f 35/33/47 47/30/47 39/36/47
f 36/18/46 40/13/46 48/19/46
f 36/18/46 48/19/46 38/22/46
f 37/29/50 38/22/50 48/19/50
f 37/29/50 48/19/50 47/30/50
f 39/36/43 51/46/43 41/37/43
f 39/36/51 47/30/51 55/37/51
f 39/36/51 55/37/51 51/46/51
f 40/13/52 52/3/52 56/12/52
f 40/13/52 56/12/52 48/19/52
f 40/36/44 42/37/44 52/46/44
f 41/37/39 49/44/39 43/39/39
f 41/37/39 51/46/39 49/44/39
f 42/37/38 44/39/38 50/44/38
f 42/37/38 50/44/38 52/46/38
f 43/40/40 49/45/40 45/42/40
f 44/38/41 46/41/41 50/43/41
f 45/42/40 49/45/40 53/48/40
f 45/42/45 53/48/45 54/47/45
f 45/42/45 54/47/45 46/41/45
f 46/41/41 54/47/41 50/43/41
f 47/30/54 48/19/54 56/12/54
f 47/30/54 56/12/54 55/37/54
f 49/44/48 51/46/48 55/37/48
f 49/44/48 55/37/48 53/39/48
f 50/5/49 54/10/49 56/12/49
f 50/5/49 56/12/49 52/3/49
f 53/39/53 55/37/53 56/12/53
f 53/39/53 56/12/53 54/10/53
