# exported by ae3d_export.py v3
# object: Street_BlockL5_Pipes
mtllib Street_BlockL5_Pipes.mtl
v -5.405000 0.610000 0.000000
v -5.405000 0.610000 0.160000
v -5.405000 0.690000 0.000000
v -5.405000 0.690000 0.160000
v -5.405000 3.760000 0.000000
v -5.405000 3.760000 0.160000
v -5.405000 3.840000 0.000000
v -5.405000 3.840000 0.160000
v -5.405000 6.910000 0.000000
v -5.405000 6.910000 0.160000
v -5.405000 6.990000 0.000000
v -5.405000 6.990000 0.160000
v -5.405000 10.060000 0.000000
v -5.405000 10.060000 0.160000
v -5.405000 10.140000 0.000000
v -5.405000 10.140000 0.160000
v -5.405000 13.210000 0.000000
v -5.405000 13.210000 0.160000
v -5.405000 13.290000 0.000000
v -5.405000 13.290000 0.160000
v -5.375000 0.600000 0.050000
v -5.375000 0.600000 0.160000
v -5.375000 14.700000 0.050000
v -5.375000 14.700000 0.160000
v -5.265000 0.600000 0.050000
v -5.265000 0.600000 0.160000
v -5.265000 14.700000 0.050000
v -5.265000 14.700000 0.160000
v -5.235000 0.610000 0.000000
v -5.235000 0.610000 0.160000
v -5.235000 0.690000 0.000000
v -5.235000 0.690000 0.160000
v -5.235000 3.760000 0.000000
v -5.235000 3.760000 0.160000
v -5.235000 3.840000 0.000000
v -5.235000 3.840000 0.160000
v -5.235000 6.910000 0.000000
v -5.235000 6.910000 0.160000
v -5.235000 6.990000 0.000000
v -5.235000 6.990000 0.160000
v -5.235000 10.060000 0.000000
v -5.235000 10.060000 0.160000
v -5.235000 10.140000 0.000000
v -5.235000 10.140000 0.160000
v -5.235000 13.210000 0.000000
v -5.235000 13.210000 0.160000
v -5.235000 13.290000 0.000000
v -5.235000 13.290000 0.160000
v 5.235000 0.610000 0.000000
v 5.235000 0.610000 0.160000
v 5.235000 0.690000 0.000000
v 5.235000 0.690000 0.160000
v 5.235000 3.760000 0.000000
v 5.235000 3.760000 0.160000
v 5.235000 3.840000 0.000000
v 5.235000 3.840000 0.160000
v 5.235000 6.910000 0.000000
v 5.235000 6.910000 0.160000
v 5.235000 6.990000 0.000000
v 5.235000 6.990000 0.160000
v 5.235000 10.060000 0.000000
v 5.235000 10.060000 0.160000
v 5.235000 10.140000 0.000000
v 5.235000 10.140000 0.160000
v 5.235000 13.210000 0.000000
v 5.235000 13.210000 0.160000
v 5.235000 13.290000 0.000000
v 5.235000 13.290000 0.160000
v 5.265000 0.600000 0.050000
v 5.265000 0.600000 0.160000
v 5.265000 14.700000 0.050000
v 5.265000 14.700000 0.160000
v 5.375000 0.600000 0.050000
v 5.375000 0.600000 0.160000
v 5.375000 14.700000 0.050000
v 5.375000 14.700000 0.160000
v 5.405000 0.610000 0.000000
v 5.405000 0.610000 0.160000
v 5.405000 0.690000 0.000000
v 5.405000 0.690000 0.160000
v 5.405000 3.760000 0.000000
v 5.405000 3.760000 0.160000
v 5.405000 3.840000 0.000000
v 5.405000 3.840000 0.160000
v 5.405000 6.910000 0.000000
v 5.405000 6.910000 0.160000
v 5.405000 6.990000 0.000000
v 5.405000 6.990000 0.160000
v 5.405000 10.060000 0.000000
v 5.405000 10.060000 0.160000
v 5.405000 10.140000 0.000000
v 5.405000 10.140000 0.160000
v 5.405000 13.210000 0.000000
v 5.405000 13.210000 0.160000
v 5.405000 13.290000 0.000000
v 5.405000 13.290000 0.160000
vt -16.215000 -0.480000
vt -16.215000 0.000000
vt -16.215000 1.830000
vt -16.215000 2.070000
vt -16.215000 11.280000
vt -16.215000 11.520000
vt -16.215000 20.730000
vt -16.215000 20.969999
vt -16.215000 30.180000
vt -16.215000 30.420002
vt -16.215000 39.630001
vt -16.215000 39.869999
vt -16.125000 -0.480000
vt -16.125000 -0.150000
vt -16.125000 1.800000
vt -16.125000 44.099998
vt -15.795000 -0.480000
vt -15.795000 -0.150000
vt -15.795000 1.800000
vt -15.795000 44.099998
vt -15.705000 -0.480000
vt -15.705000 0.000000
vt -15.705000 1.830000
vt -15.705000 2.070000
vt -15.705000 11.280000
vt -15.705000 11.520000
vt -15.705000 20.730000
vt -15.705000 20.969999
vt -15.705000 30.180000
vt -15.705000 30.420002
vt -15.705000 39.630001
vt -15.705000 39.869999
vt -0.480000 1.800000
vt -0.480000 1.830000
vt -0.480000 2.070000
vt -0.480000 11.280000
vt -0.480000 11.520000
vt -0.480000 20.730000
vt -0.480000 20.969999
vt -0.480000 30.180000
vt -0.480000 30.420002
vt -0.480000 39.630001
vt -0.480000 39.869999
vt -0.480000 44.099998
vt -0.150000 1.800000
vt -0.150000 44.099998
vt 0.000000 1.830000
vt 0.000000 2.070000
vt 0.000000 11.280000
vt 0.000000 11.520000
vt 0.000000 20.730000
vt 0.000000 20.969999
vt 0.000000 30.180000
vt 0.000000 30.420002
vt 0.000000 39.630001
vt 0.000000 39.869999
vt 15.705000 -0.480000
vt 15.705000 0.000000
vt 15.705000 1.830000
vt 15.705000 2.070000
vt 15.705000 11.280000
vt 15.705000 11.520000
vt 15.705000 20.730000
vt 15.705000 20.969999
vt 15.705000 30.180000
vt 15.705000 30.420002
vt 15.705000 39.630001
vt 15.705000 39.869999
vt 15.795000 -0.480000
vt 15.795000 -0.150000
vt 15.795000 1.800000
vt 15.795000 44.099998
vt 16.125000 -0.480000
vt 16.125000 -0.150000
vt 16.125000 1.800000
vt 16.125000 44.099998
vt 16.215000 -0.480000
vt 16.215000 0.000000
vt 16.215000 1.830000
vt 16.215000 2.070000
vt 16.215000 11.280000
vt 16.215000 11.520000
vt 16.215000 20.730000
vt 16.215000 20.969999
vt 16.215000 30.180000
vt 16.215000 30.420002
vt 16.215000 39.630001
vt 16.215000 39.869999
vn -1.000000 0.000000 0.000000
vn 0.000000 -1.000000 0.000000
vn 0.000000 0.000000 -1.000000
vn 0.000000 0.000000 1.000000
vn 0.000000 1.000000 0.000000
vn 1.000000 0.000000 0.000000
usemtl PropPaint
f 1/2/2 29/22/2 2/1/2
f 1/3/3 3/4/3 31/24/3
f 1/3/3 31/24/3 29/23/3
f 1/47/1 2/34/1 3/48/1
f 2/1/2 29/22/2 30/21/2
f 2/3/4 30/23/4 32/24/4
f 2/3/4 32/24/4 4/4/4
f 2/34/1 4/35/1 3/48/1
f 3/2/5 4/1/5 31/22/5
f 4/1/5 32/21/5 31/22/5
f 5/2/2 33/22/2 6/1/2
f 5/5/3 7/6/3 35/26/3
f 5/5/3 35/26/3 33/25/3
f 5/49/1 6/36/1 7/50/1
f 6/1/2 33/22/2 34/21/2
f 6/5/4 34/25/4 36/26/4
f 6/5/4 36/26/4 8/6/4
f 6/36/1 8/37/1 7/50/1
f 7/2/5 8/1/5 35/22/5
f 8/1/5 36/21/5 35/22/5
f 9/2/2 37/22/2 10/1/2
f 9/7/3 11/8/3 39/28/3
f 9/7/3 39/28/3 37/27/3
f 9/51/1 10/38/1 11/52/1
f 10/1/2 37/22/2 38/21/2
f 10/7/4 38/27/4 40/28/4
f 10/7/4 40/28/4 12/8/4
f 10/38/1 12/39/1 11/52/1
f 11/2/5 12/1/5 39/22/5
f 12/1/5 40/21/5 39/22/5
f 13/2/2 41/22/2 14/1/2
f 13/9/3 15/10/3 43/30/3
f 13/9/3 43/30/3 41/29/3
f 13/53/1 14/40/1 15/54/1
f 14/1/2 41/22/2 42/21/2
f 14/9/4 42/29/4 44/30/4
f 14/9/4 44/30/4 16/10/4
f 14/40/1 16/41/1 15/54/1
f 15/2/5 16/1/5 43/22/5
f 16/1/5 44/21/5 43/22/5
f 17/2/2 45/22/2 18/1/2
f 17/11/3 19/12/3 47/32/3
f 17/11/3 47/32/3 45/31/3
f 17/55/1 18/42/1 19/56/1
f 18/1/2 45/22/2 46/21/2
f 18/11/4 46/31/4 48/32/4
f 18/11/4 48/32/4 20/12/4
f 18/42/1 20/43/1 19/56/1
f 19/2/5 20/1/5 47/22/5
f 20/1/5 48/21/5 47/22/5
f 21/14/2 25/18/2 22/13/2
f 21/15/3 23/16/3 27/20/3
f 21/15/3 27/20/3 25/19/3
f 21/45/1 22/33/1 23/46/1
f 22/13/2 25/18/2 26/17/2
f 22/15/4 26/19/4 28/20/4
f 22/15/4 28/20/4 24/16/4
f 22/33/1 24/44/1 23/46/1
f 23/14/5 24/13/5 27/18/5
f 24/13/5 28/17/5 27/18/5
f 25/45/6 27/46/6 26/33/6
f 26/33/6 27/46/6 28/44/6
f 29/47/6 31/48/6 30/34/6
f 30/34/6 31/48/6 32/35/6
f 33/49/6 35/50/6 34/36/6
f 34/36/6 35/50/6 36/37/6
f 37/51/6 39/52/6 38/38/6
f 38/38/6 39/52/6 40/39/6
f 41/53/6 43/54/6 42/40/6
f 42/40/6 43/54/6 44/41/6
f 45/55/6 47/56/6 46/42/6
f 46/42/6 47/56/6 48/43/6
f 49/47/1 50/34/1 51/48/1
f 49/58/2 77/78/2 50/57/2
f 49/59/3 51/60/3 79/80/3
f 49/59/3 79/80/3 77/79/3
f 50/34/1 52/35/1 51/48/1
f 50/57/2 77/78/2 78/77/2
f 50/59/4 78/79/4 80/80/4
f 50/59/4 80/80/4 52/60/4
f 51/58/5 52/57/5 79/78/5
f 52/57/5 80/77/5 79/78/5
f 53/49/1 54/36/1 55/50/1
f 53/58/2 81/78/2 54/57/2
f 53/61/3 55/62/3 83/82/3
f 53/61/3 83/82/3 81/81/3
f 54/36/1 56/37/1 55/50/1
f 54/57/2 81/78/2 82/77/2
f 54/61/4 82/81/4 84/82/4
f 54/61/4 84/82/4 56/62/4
f 55/58/5 56/57/5 83/78/5
f 56/57/5 84/77/5 83/78/5
f 57/51/1 58/38/1 59/52/1
f 57/58/2 85/78/2 58/57/2
f 57/63/3 59/64/3 87/84/3
f 57/63/3 87/84/3 85/83/3
f 58/38/1 60/39/1 59/52/1
f 58/57/2 85/78/2 86/77/2
f 58/63/4 86/83/4 88/84/4
f 58/63/4 88/84/4 60/64/4
f 59/58/5 60/57/5 87/78/5
f 60/57/5 88/77/5 87/78/5
f 61/53/1 62/40/1 63/54/1
f 61/58/2 89/78/2 62/57/2
f 61/65/3 63/66/3 91/86/3
f 61/65/3 91/86/3 89/85/3
f 62/40/1 64/41/1 63/54/1
f 62/57/2 89/78/2 90/77/2
f 62/65/4 90/85/4 92/86/4
f 62/65/4 92/86/4 64/66/4
f 63/58/5 64/57/5 91/78/5
f 64/57/5 92/77/5 91/78/5
f 65/55/1 66/42/1 67/56/1
f 65/58/2 93/78/2 66/57/2
f 65/67/3 67/68/3 95/88/3
f 65/67/3 95/88/3 93/87/3
f 66/42/1 68/43/1 67/56/1
f 66/57/2 93/78/2 94/77/2
f 66/67/4 94/87/4 96/88/4
f 66/67/4 96/88/4 68/68/4
f 67/58/5 68/57/5 95/78/5
f 68/57/5 96/77/5 95/78/5
f 69/45/1 70/33/1 71/46/1
f 69/70/2 73/74/2 70/69/2
f 69/71/3 71/72/3 75/76/3
f 69/71/3 75/76/3 73/75/3
f 70/33/1 72/44/1 71/46/1
f 70/69/2 73/74/2 74/73/2
f 70/71/4 74/75/4 76/76/4
f 70/71/4 76/76/4 72/72/4
f 71/70/5 72/69/5 75/74/5
f 72/69/5 76/73/5 75/74/5
f 73/45/6 75/46/6 74/33/6
f 74/33/6 75/46/6 76/44/6
f 77/47/6 79/48/6 78/34/6
f 78/34/6 79/48/6 80/35/6
f 81/49/6 83/50/6 82/36/6
f 82/36/6 83/50/6 84/37/6
f 85/51/6 87/52/6 86/38/6
f 86/38/6 87/52/6 88/39/6
f 89/53/6 91/54/6 90/40/6
f 90/40/6 91/54/6 92/41/6
f 93/55/6 95/56/6 94/42/6
f 94/42/6 95/56/6 96/43/6
