# exported by ae3d_export.py v3
# object: Street_Road
mtllib Street_Road.mtl
v -34.000000 -0.300000 -3.500000
v -34.000000 -0.300000 3.500000
v -34.000000 -0.005105 -3.500000
v -34.000000 -0.005088 3.500000
v -34.000000 0.029353 2.625000
v -34.000000 0.031128 -2.625000
v -34.000000 0.053983 1.750000
v -34.000000 0.057137 -1.750000
v -34.000000 0.068567 -0.875000
v -34.000000 0.074705 0.875000
v -34.000000 0.079642 0.000000
v -32.454544 -0.300000 -3.500000
v -32.454544 -0.300000 3.500000
v -32.454544 0.003418 3.500000
v -32.454544 0.005398 -3.500000
v -32.454544 0.026826 2.625000
v -32.454544 0.028584 -2.625000
v -32.454544 0.052725 1.750000
v -32.454544 0.058092 -1.750000
v -32.454544 0.067911 -0.875000
v -32.454544 0.074331 0.875000
v -32.454544 0.075490 0.000000
v -30.909090 -0.300000 -3.500000
v -30.909090 -0.300000 3.500000
v -30.909090 0.003352 -3.500000
v -30.909090 0.005690 3.500000
v -30.909090 0.028439 -2.625000
v -30.909090 0.034218 2.625000
v -30.909090 0.050756 -1.750000
v -30.909090 0.054819 1.750000
v -30.909090 0.069019 -0.875000
v -30.909090 0.069721 0.875000
v -30.909090 0.073033 0.000000
v -29.363636 -0.300000 -3.500000
v -29.363636 -0.300000 3.500000
v -29.363636 -0.002091 -3.500000
v -29.363636 0.001618 3.500000
v -29.363636 0.031895 2.625000
v -29.363636 0.035500 -2.625000
v -29.363636 0.050928 -1.750000
v -29.363636 0.059882 1.750000
v -29.363636 0.067514 -0.875000
v -29.363636 0.070250 0.000000
v -29.363636 0.072086 0.875000
v -27.818182 -0.300000 -3.500000
v -27.818182 -0.300000 3.500000
v -27.818182 0.002521 3.500000
v -27.818182 0.003315 -3.500000
v -27.818182 0.028353 -2.625000
v -27.818182 0.030275 2.625000
v -27.818182 0.052960 1.750000
v -27.818182 0.061434 -1.750000
v -27.818182 0.067446 -0.875000
v -27.818182 0.070072 0.000000
v -27.818182 0.074761 0.875000
v -26.272728 -0.300000 -3.500000
v -26.272728 -0.300000 3.500000
v -26.272728 -0.002687 3.500000
v -26.272728 0.002928 -3.500000
v -26.272728 0.030332 2.625000
v -26.272728 0.036886 -2.625000
v -26.272728 0.060243 1.750000
v -26.272728 0.061228 -1.750000
v -26.272728 0.067665 -0.875000
v -26.272728 0.070755 0.000000
v -26.272728 0.072378 0.875000
v -24.727272 -0.300000 -3.500000
v -24.727272 -0.300000 3.500000
v -24.727272 0.000470 3.500000
v -24.727272 0.004176 -3.500000
v -24.727272 0.028946 -2.625000
v -24.727272 0.036446 2.625000
v -24.727272 0.050359 -1.750000
v -24.727272 0.057955 1.750000
v -24.727272 0.068352 0.875000
v -24.727272 0.072131 0.000000
v -24.727272 0.073968 -0.875000
v -23.181818 -0.300000 -3.500000
v -23.181818 -0.300000 3.500000
v -23.181818 -0.001586 3.500000
v -23.181818 0.003129 -3.500000
v -23.181818 0.030773 2.625000
v -23.181818 0.036220 -2.625000
v -23.181818 0.051404 -1.750000
v -23.181818 0.055773 1.750000
v -23.181818 0.066189 -0.875000
v -23.181818 0.072383 0.875000
v -23.181818 0.076697 0.000000
v -21.636364 -0.300000 -3.500000
v -21.636364 -0.300000 3.500000
v -21.636364 -0.001728 3.500000
v -21.636364 0.004589 -3.500000
v -21.636364 0.032882 2.625000
v -21.636364 0.032976 -2.625000
v -21.636364 0.051737 1.750000
v -21.636364 0.052324 -1.750000
v -21.636364 0.069644 0.000000
v -21.636364 0.071306 -0.875000
v -21.636364 0.072638 0.875000
v -20.090910 -0.300000 -3.500000
v -20.090910 -0.300000 3.500000
v -20.090910 0.002308 3.500000
v -20.090910 0.002975 -3.500000
v -20.090910 0.031109 -2.625000
v -20.090910 0.031678 2.625000
v -20.090910 0.051472 -1.750000
v -20.090910 0.052518 1.750000
v -20.090910 0.068058 -0.875000
v -20.090910 0.076151 0.875000
v -20.090910 0.080565 0.000000
v -18.545454 -0.300000 -3.500000
v -18.545454 -0.300000 3.500000
v -18.545454 -0.003215 -3.500000
v -18.545454 0.000907 3.500000
v -18.545454 0.029959 -2.625000
v -18.545454 0.036727 2.625000
v -18.545454 0.060085 -1.750000
v -18.545454 0.060895 1.750000
v -18.545454 0.065190 -0.875000
v -18.545454 0.071272 0.875000
v -18.545454 0.072677 0.000000
v -17.000000 -0.300000 -3.500000
v -17.000000 -0.300000 3.500000
v -17.000000 -0.000562 3.500000
v -17.000000 0.003347 -3.500000
v -17.000000 0.036774 2.625000
v -17.000000 0.037948 -2.625000
v -17.000000 0.051997 1.750000
v -17.000000 0.056839 -1.750000
v -17.000000 0.073673 0.875000
v -17.000000 0.074980 -0.875000
v -17.000000 0.078371 0.000000
v -15.454545 -0.300000 -3.500000
v -15.454545 -0.300000 3.500000
v -15.454545 -0.004841 -3.500000
v -15.454545 0.003926 3.500000
v -15.454545 0.032012 2.625000
v -15.454545 0.035107 -2.625000
v -15.454545 0.050937 -1.750000
v -15.454545 0.054690 1.750000
v -15.454545 0.071061 0.875000
v -15.454545 0.075212 -0.875000
v -15.454545 0.080004 0.000000
v -13.909091 -0.300000 -3.500000
v -13.909091 -0.300000 3.500000
v -13.909091 -0.004544 -3.500000
v -13.909091 0.002107 3.500000
v -13.909091 0.031651 -2.625000
v -13.909091 0.035504 2.625000
v -13.909091 0.056131 -1.750000
v -13.909091 0.061901 1.750000
v -13.909091 0.064678 -0.875000
v -13.909091 0.067348 0.875000
v -13.909091 0.074567 0.000000
v -12.363636 -0.300000 -3.500000
v -12.363636 -0.300000 3.500000
v -12.363636 -0.005610 3.500000
v -12.363636 0.000059 -3.500000
v -12.363636 0.035040 2.625000
v -12.363636 0.035080 -2.625000
v -12.363636 0.054865 -1.750000
v -12.363636 0.062058 1.750000
v -12.363636 0.066741 -0.875000
v -12.363636 0.067342 0.875000
v -12.363636 0.080841 0.000000
v -10.818182 -0.300000 -3.500000
v -10.818182 -0.300000 3.500000
v -10.818182 0.002216 3.500000
v -10.818182 0.003122 -3.500000
v -10.818182 0.029165 2.625000
v -10.818182 0.031414 -2.625000
v -10.818182 0.052091 1.750000
v -10.818182 0.053765 -1.750000
v -10.818182 0.068516 0.875000
v -10.818182 0.070494 -0.875000
v -10.818182 0.079519 0.000000
v -9.272727 -0.300000 -3.500000
v -9.272727 -0.300000 3.500000
v -9.272727 0.001207 3.500000
v -9.272727 0.005400 -3.500000
v -9.272727 0.031318 -2.625000
v -9.272727 0.034774 2.625000
v -9.272727 0.056838 1.750000
v -9.272727 0.057300 -1.750000
v -9.272727 0.066201 0.875000
v -9.272727 0.067482 -0.875000
v -9.272727 0.070421 0.000000
v -7.727273 -0.300000 -3.500000
v -7.727273 -0.300000 3.500000
v -7.727273 -0.003988 -3.500000
v -7.727273 -0.001920 3.500000
v -7.727273 0.029396 -2.625000
v -7.727273 0.032816 2.625000
v -7.727273 0.059170 1.750000
v -7.727273 0.062219 -1.750000
v -7.727273 0.071530 0.000000
v -7.727273 0.072004 0.875000
v -7.727273 0.074079 -0.875000
v -6.181818 -0.300000 -3.500000
v -6.181818 -0.300000 3.500000
v -6.181818 -0.004556 -3.500000
v -6.181818 -0.001219 3.500000
v -6.181818 0.032669 -2.625000
v -6.181818 0.034407 2.625000
v -6.181818 0.050958 -1.750000
v -6.181818 0.053845 1.750000
v -6.181818 0.064625 0.875000
v -6.181818 0.066220 -0.875000
v -6.181818 0.070372 0.000000
v -4.636364 -0.300000 -3.500000
v -4.636364 -0.300000 3.500000
v -4.636364 -0.004264 -3.500000
v -4.636364 0.001711 3.500000
v -4.636364 0.035820 2.625000
v -4.636364 0.036830 -2.625000
v -4.636364 0.054417 1.750000
v -4.636364 0.057210 -1.750000
v -4.636364 0.064508 0.875000
v -4.636364 0.070649 -0.875000
v -4.636364 0.080813 0.000000
v -3.090909 -0.300000 -3.500000
v -3.090909 -0.300000 3.500000
v -3.090909 -0.003341 3.500000
v -3.090909 -0.000241 -3.500000
v -3.090909 0.029336 2.625000
v -3.090909 0.032214 -2.625000
v -3.090909 0.061089 -1.750000
v -3.090909 0.061281 1.750000
v -3.090909 0.072691 0.000000
v -3.090909 0.073188 0.875000
v -3.090909 0.075994 -0.875000
v -1.545455 -0.300000 -3.500000
v -1.545455 -0.300000 3.500000
v -1.545455 -0.005909 -3.500000
v -1.545455 -0.000813 3.500000
v -1.545455 0.026989 -2.625000
v -1.545455 0.034559 2.625000
v -1.545455 0.052063 1.750000
v -1.545455 0.062124 -1.750000
v -1.545455 0.065670 -0.875000
v -1.545455 0.066520 0.875000
v -1.545455 0.080575 0.000000
v 0.000000 -0.300000 -3.500000
v 0.000000 -0.300000 3.500000
v 0.000000 -0.001573 3.500000
v 0.000000 0.005019 -3.500000
v 0.000000 0.032538 2.625000
v 0.000000 0.034894 -2.625000
v 0.000000 0.057921 1.750000
v 0.000000 0.060161 -1.750000
v 0.000000 0.066269 -0.875000
v 0.000000 0.070533 0.000000
v 0.000000 0.075815 0.875000
v 1.545455 -0.300000 -3.500000
v 1.545455 -0.300000 3.500000
v 1.545455 0.000486 3.500000
v 1.545455 0.003238 -3.500000
v 1.545455 0.027135 2.625000
v 1.545455 0.028163 -2.625000
v 1.545455 0.055538 -1.750000
v 1.545455 0.060960 1.750000
v 1.545455 0.067008 -0.875000
v 1.545455 0.067382 0.875000
v 1.545455 0.075633 0.000000
v 3.090909 -0.300000 -3.500000
v 3.090909 -0.300000 3.500000
v 3.090909 -0.001044 -3.500000
v 3.090909 0.003002 3.500000
v 3.090909 0.027912 2.625000
v 3.090909 0.035905 -2.625000
v 3.090909 0.052917 -1.750000
v 3.090909 0.053591 1.750000
v 3.090909 0.065172 -0.875000
v 3.090909 0.065846 0.875000
v 3.090909 0.073703 0.000000
v 4.636364 -0.300000 -3.500000
v 4.636364 -0.300000 3.500000
v 4.636364 0.000784 -3.500000
v 4.636364 0.003058 3.500000
v 4.636364 0.031689 -2.625000
v 4.636364 0.038585 2.625000
v 4.636364 0.053332 1.750000
v 4.636364 0.057146 -1.750000
v 4.636364 0.068178 -0.875000
v 4.636364 0.070621 0.875000
v 4.636364 0.071207 0.000000
v 6.181818 -0.300000 -3.500000
v 6.181818 -0.300000 3.500000
v 6.181818 -0.000635 3.500000
v 6.181818 0.000375 -3.500000
v 6.181818 0.028003 -2.625000
v 6.181818 0.028965 2.625000
v 6.181818 0.055803 -1.750000
v 6.181818 0.057095 1.750000
v 6.181818 0.065093 -0.875000
v 6.181818 0.068986 0.875000
v 6.181818 0.079189 0.000000
v 7.727273 -0.300000 -3.500000
v 7.727273 -0.300000 3.500000
v 7.727273 -0.004434 -3.500000
v 7.727273 -0.003304 3.500000
v 7.727273 0.027634 2.625000
v 7.727273 0.032259 -2.625000
v 7.727273 0.051734 -1.750000
v 7.727273 0.060030 1.750000
v 7.727273 0.068226 0.875000
v 7.727273 0.073254 0.000000
v 7.727273 0.075641 -0.875000
v 9.272727 -0.300000 -3.500000
v 9.272727 -0.300000 3.500000
v 9.272727 -0.000829 3.500000
v 9.272727 0.005591 -3.500000
v 9.272727 0.033158 2.625000
v 9.272727 0.036025 -2.625000
v 9.272727 0.055678 -1.750000
v 9.272727 0.059625 1.750000
v 9.272727 0.067597 0.875000
v 9.272727 0.074818 -0.875000
v 9.272727 0.075127 0.000000
v 10.818182 -0.300000 -3.500000
v 10.818182 -0.300000 3.500000
v 10.818182 -0.002041 -3.500000
v 10.818182 0.001525 3.500000
v 10.818182 0.026975 2.625000
v 10.818182 0.028005 -2.625000
v 10.818182 0.054793 1.750000
v 10.818182 0.055845 -1.750000
v 10.818182 0.064397 0.875000
v 10.818182 0.067621 -0.875000
v 10.818182 0.079781 0.000000
v 12.363636 -0.300000 -3.500000
v 12.363636 -0.300000 3.500000
v 12.363636 -0.005660 3.500000
v 12.363636 -0.001461 -3.500000
v 12.363636 0.028279 -2.625000
v 12.363636 0.034269 2.625000
v 12.363636 0.059716 1.750000
v 12.363636 0.059919 -1.750000
v 12.363636 0.069902 -0.875000
v 12.363636 0.070855 0.000000
v 12.363636 0.071700 0.875000
v 13.909091 -0.300000 -3.500000
v 13.909091 -0.300000 3.500000
v 13.909091 0.000304 3.500000
v 13.909091 0.003767 -3.500000
v 13.909091 0.029082 -2.625000
v 13.909091 0.034596 2.625000
v 13.909091 0.053164 1.750000
v 13.909091 0.056809 -1.750000
v 13.909091 0.064873 0.875000
v 13.909091 0.068852 -0.875000
v 13.909091 0.074094 0.000000
v 15.454545 -0.300000 -3.500000
v 15.454545 -0.300000 3.500000
v 15.454545 0.005913 -3.500000
v 15.454545 0.005986 3.500000
v 15.454545 0.031193 -2.625000
v 15.454545 0.036290 2.625000
v 15.454545 0.054392 1.750000
v 15.454545 0.058792 -1.750000
v 15.454545 0.072524 -0.875000
v 15.454545 0.073110 0.000000
v 15.454545 0.076283 0.875000
v 17.000000 -0.300000 -3.500000
v 17.000000 -0.300000 3.500000
v 17.000000 -0.005359 -3.500000
v 17.000000 -0.001070 3.500000
v 17.000000 0.030154 2.625000
v 17.000000 0.032564 -2.625000
v 17.000000 0.051611 -1.750000
v 17.000000 0.061412 1.750000
v 17.000000 0.065151 -0.875000
v 17.000000 0.072125 0.875000
v 17.000000 0.075902 0.000000
v 18.545454 -0.300000 -3.500000
v 18.545454 -0.300000 3.500000
v 18.545454 -0.003984 3.500000
v 18.545454 0.001235 -3.500000
v 18.545454 0.032798 -2.625000
v 18.545454 0.033580 2.625000
v 18.545454 0.052699 1.750000
v 18.545454 0.054366 -1.750000
v 18.545454 0.068970 0.875000
v 18.545454 0.071989 0.000000
v 18.545454 0.073217 -0.875000
v 20.090910 -0.300000 -3.500000
v 20.090910 -0.300000 3.500000
v 20.090910 -0.004406 -3.500000
v 20.090910 -0.003036 3.500000
v 20.090910 0.032037 -2.625000
v 20.090910 0.034446 2.625000
v 20.090910 0.053324 1.750000
v 20.090910 0.054210 -1.750000
v 20.090910 0.068278 -0.875000
v 20.090910 0.072466 0.875000
v 20.090910 0.079346 0.000000
v 21.636364 -0.300000 -3.500000
v 21.636364 -0.300000 3.500000
v 21.636364 -0.003896 3.500000
v 21.636364 0.001527 -3.500000
v 21.636364 0.028394 -2.625000
v 21.636364 0.034567 2.625000
v 21.636364 0.051849 -1.750000
v 21.636364 0.060714 1.750000
v 21.636364 0.069694 -0.875000
v 21.636364 0.072726 0.000000
v 21.636364 0.074204 0.875000
v 23.181818 -0.300000 -3.500000
v 23.181818 -0.300000 3.500000
v 23.181818 -0.001185 -3.500000
v 23.181818 -0.000563 3.500000
v 23.181818 0.028251 2.625000
v 23.181818 0.033514 -2.625000
v 23.181818 0.054725 -1.750000
v 23.181818 0.060599 1.750000
v 23.181818 0.072825 0.875000
v 23.181818 0.073993 -0.875000
v 23.181818 0.078192 0.000000
v 24.727272 -0.300000 -3.500000
v 24.727272 -0.300000 3.500000
v 24.727272 -0.004609 3.500000
v 24.727272 -0.002472 -3.500000
v 24.727272 0.032240 -2.625000
v 24.727272 0.036652 2.625000
v 24.727272 0.050818 -1.750000
v 24.727272 0.060548 1.750000
v 24.727272 0.067455 -0.875000
v 24.727272 0.068797 0.875000
v 24.727272 0.069400 0.000000
v 26.272728 -0.300000 -3.500000
v 26.272728 -0.300000 3.500000
v 26.272728 -0.005106 -3.500000
v 26.272728 0.001570 3.500000
v 26.272728 0.032375 2.625000
v 26.272728 0.038325 -2.625000
v 26.272728 0.052069 -1.750000
v 26.272728 0.053725 1.750000
v 26.272728 0.065539 0.875000
v 26.272728 0.074625 -0.875000
v 26.272728 0.075351 0.000000
v 27.818182 -0.300000 -3.500000
v 27.818182 -0.300000 3.500000
v 27.818182 -0.004259 3.500000
v 27.818182 0.004471 -3.500000
v 27.818182 0.027241 2.625000
v 27.818182 0.034216 -2.625000
v 27.818182 0.053544 1.750000
v 27.818182 0.061438 -1.750000
v 27.818182 0.068377 -0.875000
v 27.818182 0.069126 0.000000
v 27.818182 0.075299 0.875000
v 29.363636 -0.300000 -3.500000
v 29.363636 -0.300000 3.500000
v 29.363636 -0.001992 -3.500000
v 29.363636 -0.001294 3.500000
v 29.363636 0.029033 -2.625000
v 29.363636 0.036481 2.625000
v 29.363636 0.056602 1.750000
v 29.363636 0.058363 -1.750000
v 29.363636 0.067642 0.875000
v 29.363636 0.070612 0.000000
v 29.363636 0.074688 -0.875000
v 30.909090 -0.300000 -3.500000
v 30.909090 -0.300000 3.500000
v 30.909090 -0.000184 3.500000
v 30.909090 0.001463 -3.500000
v 30.909090 0.027513 2.625000
v 30.909090 0.031718 -2.625000
v 30.909090 0.051008 -1.750000
v 30.909090 0.059627 1.750000
v 30.909090 0.066591 -0.875000
v 30.909090 0.067343 0.875000
v 30.909090 0.075344 0.000000
v 32.454544 -0.300000 -3.500000
v 32.454544 -0.300000 3.500000
v 32.454544 -0.003002 3.500000
v 32.454544 -0.001759 -3.500000
v 32.454544 0.030718 -2.625000
v 32.454544 0.032559 2.625000
v 32.454544 0.050291 1.750000
v 32.454544 0.051112 -1.750000
v 32.454544 0.064329 -0.875000
v 32.454544 0.067453 0.875000
v 32.454544 0.077040 0.000000
v 34.000000 -0.300000 -3.500000
v 34.000000 -0.300000 3.500000
v 34.000000 -0.001895 3.500000
v 34.000000 0.002019 -3.500000
v 34.000000 0.033064 -2.625000
v 34.000000 0.033253 2.625000
v 34.000000 0.052554 -1.750000
v 34.000000 0.054046 1.750000
v 34.000000 0.067145 0.875000
v 34.000000 0.075568 -0.875000
v 34.000000 0.076319 0.000000
vt -28.559999 -2.940000
vt -28.559999 -2.205000
vt -28.559999 -1.470000
vt -28.559999 -0.735000
vt -28.559999 -0.252000
vt -28.559999 -0.004288
vt -28.559999 -0.004274
vt -28.559999 0.000000
vt -28.559999 0.735000
vt -28.559999 1.470000
vt -28.559999 2.205000
vt -28.559999 2.940000
vt -27.261818 -2.940000
vt -27.261818 -2.205000
vt -27.261818 -1.470000
vt -27.261818 -0.735000
vt -27.261818 -0.252000
vt -27.261818 0.000000
vt -27.261818 0.002871
vt -27.261818 0.004535
vt -27.261818 0.735000
vt -27.261818 1.470000
vt -27.261818 2.205000
vt -27.261818 2.940000
vt -25.963636 -2.940000
vt -25.963636 -2.205000
vt -25.963636 -1.470000
vt -25.963636 -0.735000
vt -25.963636 -0.252000
vt -25.963636 0.000000
vt -25.963636 0.002815
vt -25.963636 0.004780
vt -25.963636 0.735000
vt -25.963636 1.470000
vt -25.963636 2.205000
vt -25.963636 2.940000
vt -24.665455 -2.940000
vt -24.665455 -2.205000
vt -24.665455 -1.470000
vt -24.665455 -0.735000
vt -24.665455 -0.252000
vt -24.665455 -0.001756
vt -24.665455 0.000000
vt -24.665455 0.001359
vt -24.665455 0.735000
vt -24.665455 1.470000
vt -24.665455 2.205000
vt -24.665455 2.940000
vt -23.367273 -2.940000
vt -23.367273 -2.205000
vt -23.367273 -1.470000
vt -23.367273 -0.735000
vt -23.367273 -0.252000
vt -23.367273 0.000000
vt -23.367273 0.002118
vt -23.367273 0.002785
vt -23.367273 0.735000
vt -23.367273 1.470000
vt -23.367273 2.205000
vt -23.367273 2.940000
vt -22.069092 -2.940000
vt -22.069092 -2.205000
vt -22.069092 -1.470000
vt -22.069092 -0.735000
vt -22.069092 -0.252000
vt -22.069092 -0.002257
vt -22.069092 0.000000
vt -22.069092 0.002459
vt -22.069092 0.735000
vt -22.069092 1.470000
vt -22.069092 2.205000
vt -22.069092 2.940000
vt -20.770908 -2.940000
vt -20.770908 -2.205000
vt -20.770908 -1.470000
vt -20.770908 -0.735000
vt -20.770908 -0.252000
vt -20.770908 0.000000
vt -20.770908 0.000395
vt -20.770908 0.003508
vt -20.770908 0.735000
vt -20.770908 1.470000
vt -20.770908 2.205000
vt -20.770908 2.940000
vt -19.472727 -2.940000
vt -19.472727 -2.205000
vt -19.472727 -1.470000
vt -19.472727 -0.735000
vt -19.472727 -0.252000
vt -19.472727 -0.001333
vt -19.472727 0.000000
vt -19.472727 0.002628
vt -19.472727 0.735000
vt -19.472727 1.470000
vt -19.472727 2.205000
vt -19.472727 2.940000
vt -18.174545 -2.940000
vt -18.174545 -2.205000
vt -18.174545 -1.470000
vt -18.174545 -0.735000
vt -18.174545 -0.252000
vt -18.174545 -0.001452
vt -18.174545 0.000000
vt -18.174545 0.003855
vt -18.174545 0.735000
vt -18.174545 1.470000
vt -18.174545 2.205000
vt -18.174545 2.940000
vt -16.876364 -2.940000
vt -16.876364 -2.205000
vt -16.876364 -1.470000
vt -16.876364 -0.735000
vt -16.876364 -0.252000
vt -16.876364 0.000000
vt -16.876364 0.001939
vt -16.876364 0.002499
vt -16.876364 0.735000
vt -16.876364 1.470000
vt -16.876364 2.205000
vt -16.876364 2.940000
vt -15.578181 -2.940000
vt -15.578181 -2.205000
vt -15.578181 -1.470000
vt -15.578181 -0.735000
vt -15.578181 -0.252000
vt -15.578181 -0.002701
vt -15.578181 0.000000
vt -15.578181 0.000762
vt -15.578181 0.735000
vt -15.578181 1.470000
vt -15.578181 2.205000
vt -15.578181 2.940000
vt -14.280000 -2.940000
vt -14.280000 -2.205000
vt -14.280000 -1.470000
vt -14.280000 -0.735000
vt -14.280000 -0.252000
vt -14.280000 -0.000472
vt -14.280000 0.000000
vt -14.280000 0.002812
vt -14.280000 0.735000
vt -14.280000 1.470000
vt -14.280000 2.205000
vt -14.280000 2.940000
vt -12.981818 -2.940000
vt -12.981818 -2.205000
vt -12.981818 -1.470000
vt -12.981818 -0.735000
vt -12.981818 -0.252000
vt -12.981818 -0.004066
vt -12.981818 0.000000
vt -12.981818 0.003298
vt -12.981818 0.735000
vt -12.981818 1.470000
vt -12.981818 2.205000
vt -12.981818 2.940000
vt -11.683637 -2.940000
vt -11.683637 -2.205000
vt -11.683637 -1.470000
vt -11.683637 -0.735000
vt -11.683637 -0.252000
vt -11.683637 -0.003817
vt -11.683637 0.000000
vt -11.683637 0.001770
vt -11.683637 0.735000
vt -11.683637 1.470000
vt -11.683637 2.205000
vt -11.683637 2.940000
vt -10.385454 -2.940000
vt -10.385454 -2.205000
vt -10.385454 -1.470000
vt -10.385454 -0.735000
vt -10.385454 -0.252000
vt -10.385454 -0.004712
vt -10.385454 0.000000
vt -10.385454 0.000050
vt -10.385454 0.735000
vt -10.385454 1.470000
vt -10.385454 2.205000
vt -10.385454 2.940000
vt -9.087273 -2.940000
vt -9.087273 -2.205000
vt -9.087273 -1.470000
vt -9.087273 -0.735000
vt -9.087273 -0.252000
vt -9.087273 0.000000
vt -9.087273 0.001861
vt -9.087273 0.002623
vt -9.087273 0.735000
vt -9.087273 1.470000
vt -9.087273 2.205000
vt -9.087273 2.940000
vt -7.789091 -2.940000
vt -7.789091 -2.205000
vt -7.789091 -1.470000
vt -7.789091 -0.735000
vt -7.789091 -0.252000
vt -7.789091 0.000000
vt -7.789091 0.001014
vt -7.789091 0.004536
vt -7.789091 0.735000
vt -7.789091 1.470000
vt -7.789091 2.205000
vt -7.789091 2.940000
vt -6.490909 -2.940000
vt -6.490909 -2.205000
vt -6.490909 -1.470000
vt -6.490909 -0.735000
vt -6.490909 -0.252000
vt -6.490909 -0.003350
vt -6.490909 -0.001612
vt -6.490909 0.000000
vt -6.490909 0.735000
vt -6.490909 1.470000
vt -6.490909 2.205000
vt -6.490909 2.940000
vt -5.192727 -2.940000
vt -5.192727 -2.205000
vt -5.192727 -1.470000
vt -5.192727 -0.735000
vt -5.192727 -0.252000
vt -5.192727 -0.003827
vt -5.192727 -0.001024
vt -5.192727 0.000000
vt -5.192727 0.735000
vt -5.192727 1.470000
vt -5.192727 2.205000
vt -5.192727 2.940000
vt -3.894545 -2.940000
vt -3.894545 -2.205000
vt -3.894545 -1.470000
vt -3.894545 -0.735000
vt -3.894545 -0.252000
vt -3.894545 -0.003582
vt -3.894545 0.000000
vt -3.894545 0.001437
vt -3.894545 0.735000
vt -3.894545 1.470000
vt -3.894545 2.205000
vt -3.894545 2.940000
vt -2.596364 -2.940000
vt -2.596364 -2.205000
vt -2.596364 -1.470000
vt -2.596364 -0.735000
vt -2.596364 -0.252000
vt -2.596364 -0.002806
vt -2.596364 -0.000203
vt -2.596364 0.000000
vt -2.596364 0.735000
vt -2.596364 1.470000
vt -2.596364 2.205000
vt -2.596364 2.940000
vt -1.298182 -2.940000
vt -1.298182 -2.205000
vt -1.298182 -1.470000
vt -1.298182 -0.735000
vt -1.298182 -0.252000
vt -1.298182 -0.004964
vt -1.298182 -0.000683
vt -1.298182 0.000000
vt -1.298182 0.735000
vt -1.298182 1.470000
vt -1.298182 2.205000
vt -1.298182 2.940000
vt 0.000000 -2.940000
vt 0.000000 -2.205000
vt 0.000000 -1.470000
vt 0.000000 -0.735000
vt 0.000000 -0.252000
vt 0.000000 -0.001321
vt 0.000000 0.000000
vt 0.000000 0.004216
vt 0.000000 0.735000
vt 0.000000 1.470000
vt 0.000000 2.205000
vt 0.000000 2.940000
vt 1.298182 -2.940000
vt 1.298182 -2.205000
vt 1.298182 -1.470000
vt 1.298182 -0.735000
vt 1.298182 -0.252000
vt 1.298182 0.000000
vt 1.298182 0.000408
vt 1.298182 0.002720
vt 1.298182 0.735000
vt 1.298182 1.470000
vt 1.298182 2.205000
vt 1.298182 2.940000
vt 2.596364 -2.940000
vt 2.596364 -2.205000
vt 2.596364 -1.470000
vt 2.596364 -0.735000
vt 2.596364 -0.252000
vt 2.596364 -0.000877
vt 2.596364 0.000000
vt 2.596364 0.002522
vt 2.596364 0.735000
vt 2.596364 1.470000
vt 2.596364 2.205000
vt 2.596364 2.940000
vt 3.894545 -2.940000
vt 3.894545 -2.205000
vt 3.894545 -1.470000
vt 3.894545 -0.735000
vt 3.894545 -0.252000
vt 3.894545 0.000000
vt 3.894545 0.000658
vt 3.894545 0.002569
vt 3.894545 0.735000
vt 3.894545 1.470000
vt 3.894545 2.205000
vt 3.894545 2.940000
vt 5.192727 -2.940000
vt 5.192727 -2.205000
vt 5.192727 -1.470000
vt 5.192727 -0.735000
vt 5.192727 -0.252000
vt 5.192727 -0.000533
vt 5.192727 0.000000
vt 5.192727 0.000315
vt 5.192727 0.735000
vt 5.192727 1.470000
vt 5.192727 2.205000
vt 5.192727 2.940000
vt 6.490909 -2.940000
vt 6.490909 -2.205000
vt 6.490909 -1.470000
vt 6.490909 -0.735000
vt 6.490909 -0.252000
vt 6.490909 -0.003725
vt 6.490909 -0.002776
vt 6.490909 0.000000
vt 6.490909 0.735000
vt 6.490909 1.470000
vt 6.490909 2.205000
vt 6.490909 2.940000
vt 7.789091 -2.940000
vt 7.789091 -2.205000
vt 7.789091 -1.470000
vt 7.789091 -0.735000
vt 7.789091 -0.252000
vt 7.789091 -0.000697
vt 7.789091 0.000000
vt 7.789091 0.004697
vt 7.789091 0.735000
vt 7.789091 1.470000
vt 7.789091 2.205000
vt 7.789091 2.940000
vt 9.087273 -2.940000
vt 9.087273 -2.205000
vt 9.087273 -1.470000
vt 9.087273 -0.735000
vt 9.087273 -0.252000
vt 9.087273 -0.001715
vt 9.087273 0.000000
vt 9.087273 0.001281
vt 9.087273 0.735000
vt 9.087273 1.470000
vt 9.087273 2.205000
vt 9.087273 2.940000
vt 10.385454 -2.940000
vt 10.385454 -2.205000
vt 10.385454 -1.470000
vt 10.385454 -0.735000
vt 10.385454 -0.252000
vt 10.385454 -0.004754
vt 10.385454 -0.001227
vt 10.385454 0.000000
vt 10.385454 0.735000
vt 10.385454 1.470000
vt 10.385454 2.205000
vt 10.385454 2.940000
vt 11.683637 -2.940000
vt 11.683637 -2.205000
vt 11.683637 -1.470000
vt 11.683637 -0.735000
vt 11.683637 -0.252000
vt 11.683637 0.000000
vt 11.683637 0.000256
vt 11.683637 0.003164
vt 11.683637 0.735000
vt 11.683637 1.470000
vt 11.683637 2.205000
vt 11.683637 2.940000
vt 12.981818 -2.940000
vt 12.981818 -2.205000
vt 12.981818 -1.470000
vt 12.981818 -0.735000
vt 12.981818 -0.252000
vt 12.981818 0.000000
vt 12.981818 0.004967
vt 12.981818 0.005029
vt 12.981818 0.735000
vt 12.981818 1.470000
vt 12.981818 2.205000
vt 12.981818 2.940000
vt 14.280000 -2.940000
vt 14.280000 -2.205000
vt 14.280000 -1.470000
vt 14.280000 -0.735000
vt 14.280000 -0.252000
vt 14.280000 -0.004502
vt 14.280000 -0.000899
vt 14.280000 0.000000
vt 14.280000 0.735000
vt 14.280000 1.470000
vt 14.280000 2.205000
vt 14.280000 2.940000
vt 15.578181 -2.940000
vt 15.578181 -2.205000
vt 15.578181 -1.470000
vt 15.578181 -0.735000
vt 15.578181 -0.252000
vt 15.578181 -0.003346
vt 15.578181 0.000000
vt 15.578181 0.001038
vt 15.578181 0.735000
vt 15.578181 1.470000
vt 15.578181 2.205000
vt 15.578181 2.940000
vt 16.876364 -2.940000
vt 16.876364 -2.205000
vt 16.876364 -1.470000
vt 16.876364 -0.735000
vt 16.876364 -0.252000
vt 16.876364 -0.003701
vt 16.876364 -0.002550
vt 16.876364 0.000000
vt 16.876364 0.735000
vt 16.876364 1.470000
vt 16.876364 2.205000
vt 16.876364 2.940000
vt 18.174545 -2.940000
vt 18.174545 -2.205000
vt 18.174545 -1.470000
vt 18.174545 -0.735000
vt 18.174545 -0.252000
vt 18.174545 -0.003272
vt 18.174545 0.000000
vt 18.174545 0.001283
vt 18.174545 0.735000
vt 18.174545 1.470000
vt 18.174545 2.205000
vt 18.174545 2.940000
vt 19.472727 -2.940000
vt 19.472727 -2.205000
vt 19.472727 -1.470000
vt 19.472727 -0.735000
vt 19.472727 -0.252000
vt 19.472727 -0.000996
vt 19.472727 -0.000473
vt 19.472727 0.000000
vt 19.472727 0.735000
vt 19.472727 1.470000
vt 19.472727 2.205000
vt 19.472727 2.940000
vt 20.770908 -2.940000
vt 20.770908 -2.205000
vt 20.770908 -1.470000
vt 20.770908 -0.735000
vt 20.770908 -0.252000
vt 20.770908 -0.003871
vt 20.770908 -0.002076
vt 20.770908 0.000000
vt 20.770908 0.735000
vt 20.770908 1.470000
vt 20.770908 2.205000
vt 20.770908 2.940000
vt 22.069092 -2.940000
vt 22.069092 -2.205000
vt 22.069092 -1.470000
vt 22.069092 -0.735000
vt 22.069092 -0.252000
vt 22.069092 -0.004289
vt 22.069092 0.000000
vt 22.069092 0.001319
vt 22.069092 0.735000
vt 22.069092 1.470000
vt 22.069092 2.205000
vt 22.069092 2.940000
vt 23.367273 -2.940000
vt 23.367273 -2.205000
vt 23.367273 -1.470000
vt 23.367273 -0.735000
vt 23.367273 -0.252000
vt 23.367273 -0.003578
vt 23.367273 0.000000
vt 23.367273 0.003756
vt 23.367273 0.735000
vt 23.367273 1.470000
vt 23.367273 2.205000
vt 23.367273 2.940000
vt 24.665455 -2.940000
vt 24.665455 -2.205000
vt 24.665455 -1.470000
vt 24.665455 -0.735000
vt 24.665455 -0.252000
vt 24.665455 -0.001674
vt 24.665455 -0.001087
vt 24.665455 0.000000
vt 24.665455 0.735000
vt 24.665455 1.470000
vt 24.665455 2.205000
vt 24.665455 2.940000
vt 25.963636 -2.940000
vt 25.963636 -2.205000
vt 25.963636 -1.470000
vt 25.963636 -0.735000
vt 25.963636 -0.252000
vt 25.963636 -0.000155
vt 25.963636 0.000000
vt 25.963636 0.001229
vt 25.963636 0.735000
vt 25.963636 1.470000
vt 25.963636 2.205000
vt 25.963636 2.940000
vt 27.261818 -2.940000
vt 27.261818 -2.205000
vt 27.261818 -1.470000
vt 27.261818 -0.735000
vt 27.261818 -0.252000
vt 27.261818 -0.002522
vt 27.261818 -0.001477
vt 27.261818 0.000000
vt 27.261818 0.735000
vt 27.261818 1.470000
vt 27.261818 2.205000
vt 27.261818 2.940000
vt 28.559999 -2.940000
vt 28.559999 -2.205000
vt 28.559999 -1.470000
vt 28.559999 -0.735000
vt 28.559999 -0.252000
vt 28.559999 -0.001592
vt 28.559999 0.000000
vt 28.559999 0.001696
vt 28.559999 0.735000
vt 28.559999 1.470000
vt 28.559999 2.205000
vt 28.559999 2.940000
vn -0.006089 0.999339 -0.035847
vn -0.005028 0.999908 0.012569
vn -0.005009 0.999968 -0.006216
vn -0.004902 0.999817 0.018483
vn -0.004811 0.999955 -0.008180
vn -0.004704 0.999240 -0.038699
vn -0.004670 0.999989 0.000811
vn -0.004459 0.999255 -0.038330
vn -0.004342 0.999660 0.025710
vn -0.004245 0.999990 -0.001526
vn -0.004102 0.999777 -0.020699
vn -0.004088 0.999807 0.019196
vn -0.003977 0.999640 0.026518
vn -0.003955 0.999916 0.012335
vn -0.003951 0.999529 0.030422
vn -0.003945 0.999210 0.039555
vn -0.003725 0.999914 -0.012594
vn -0.003511 0.999978 0.005656
vn -0.003500 0.999823 -0.018506
vn -0.003469 0.999398 0.034515
vn -0.003462 0.999601 0.028032
vn -0.003455 0.999860 -0.016399
vn -0.003403 0.999965 -0.007693
vn -0.003377 0.999911 -0.012912
vn -0.003373 0.999988 0.003456
vn -0.003368 0.999728 0.023094
vn -0.003368 0.999750 -0.022091
vn -0.003349 0.999664 0.025700
vn -0.003340 0.999915 0.012600
vn -0.003159 0.999986 -0.004132
vn -0.003126 0.999555 0.029665
vn -0.003098 0.999811 0.019179
vn -0.003068 0.999642 0.026562
vn -0.002997 0.999219 0.039395
vn -0.002984 0.999864 -0.016195
vn -0.002953 0.999822 0.018643
vn -0.002781 0.999985 0.004624
vn -0.002724 0.999746 -0.022390
vn -0.002700 0.999480 0.032123
vn -0.002697 0.999902 -0.013707
vn -0.002693 0.999458 -0.032796
vn -0.002691 0.999778 -0.020908
vn -0.002634 0.999429 -0.033693
vn -0.002632 0.999916 0.012683
vn -0.002619 0.999991 0.003488
vn -0.002596 0.999170 -0.040661
vn -0.002586 0.999309 0.037075
vn -0.002586 0.999671 -0.025515
vn -0.002573 0.999421 -0.033934
vn -0.002522 0.999995 0.001901
vn -0.002506 0.999242 0.038856
vn -0.002494 0.999747 -0.022353
vn -0.002494 0.999997 -0.000223
vn -0.002485 0.999997 -0.000716
vn -0.002483 0.999978 -0.006197
vn -0.002429 0.999666 0.025721
vn -0.002413 0.999581 -0.028839
vn -0.002403 0.999877 0.015487
vn -0.002385 0.999317 0.036886
vn -0.002373 0.999546 0.030041
vn -0.002373 0.999827 -0.018467
vn -0.002341 0.999909 -0.013306
vn -0.002339 0.999765 -0.021564
vn -0.002321 0.999773 -0.021202
vn -0.002236 0.999995 0.002140
vn -0.002207 0.999210 -0.039675
vn -0.002117 0.999910 -0.013283
vn -0.002096 0.999818 -0.018966
vn -0.002056 0.999921 -0.012433
vn -0.002054 0.999979 0.006165
vn -0.002033 0.999100 0.042374
vn -0.002028 0.999928 0.011837
vn -0.002013 0.999452 -0.033045
vn -0.001985 0.999385 -0.034996
vn -0.001980 0.999340 -0.036274
vn -0.001953 0.999812 -0.019292
vn -0.001950 0.999504 -0.031445
vn -0.001933 0.999452 0.033038
vn -0.001922 0.999403 -0.034495
vn -0.001889 0.999971 -0.007365
vn -0.001858 0.999921 -0.012394
vn -0.001829 0.999890 -0.014726
vn -0.001768 0.999125 -0.041778
vn -0.001701 0.999725 -0.023402
vn -0.001656 0.999677 -0.025355
vn -0.001655 0.999433 0.033617
vn -0.001585 0.999811 0.019388
vn -0.001584 0.999951 -0.009785
vn -0.001534 0.999607 -0.027998
vn -0.001492 0.999977 -0.006691
vn -0.001487 0.999402 0.034560
vn -0.001461 0.999856 0.016880
vn -0.001439 0.998999 -0.044709
vn -0.001439 0.999757 0.022009
vn -0.001434 0.999979 0.006268
vn -0.001408 0.999198 0.040010
vn -0.001406 0.999422 -0.033969
vn -0.001404 0.999206 0.039817
vn -0.001389 0.999675 0.025440
vn -0.001377 0.999581 -0.028900
vn -0.001343 0.999984 -0.005441
vn -0.001333 0.999794 0.020232
vn -0.001324 0.999500 -0.031599
vn -0.001322 0.999997 0.002222
vn -0.001241 0.999699 0.024500
vn -0.001237 0.999568 0.029370
vn -0.001225 0.999740 -0.022785
vn -0.001179 0.999306 0.037226
vn -0.001144 0.999997 0.002079
vn -0.001132 0.999922 0.012466
vn -0.001131 0.999811 0.019430
vn -0.001119 0.999375 -0.035335
vn -0.001115 0.999004 -0.044608
vn -0.001115 0.999850 0.017289
vn -0.001112 0.999618 -0.027608
vn -0.001086 0.999615 -0.027709
vn -0.001065 0.999566 0.029450
vn -0.001047 0.999911 -0.013293
vn -0.001010 0.999857 -0.016852
vn -0.001009 0.999697 -0.024591
vn -0.000969 0.999435 -0.033584
vn -0.000967 0.999730 -0.023202
vn -0.000945 0.999780 0.020950
vn -0.000926 0.999826 0.018627
vn -0.000916 0.999332 0.036536
vn -0.000886 0.999614 0.027754
vn -0.000882 0.999942 0.010717
vn -0.000874 0.999187 -0.040315
vn -0.000871 0.999982 0.005951
vn -0.000870 0.999994 -0.003330
vn -0.000858 0.999866 -0.016343
vn -0.000808 0.999993 -0.003729
vn -0.000787 0.999912 -0.013213
vn -0.000786 0.999891 0.014735
vn -0.000782 0.999984 -0.005623
vn -0.000778 0.999381 -0.035159
vn -0.000741 0.999192 0.040174
vn -0.000740 0.999346 -0.036153
vn -0.000738 0.999988 0.004825
vn -0.000720 0.999347 0.036124
vn -0.000708 0.999993 -0.003540
vn -0.000706 0.999520 -0.030962
vn -0.000704 0.999934 0.011477
vn -0.000700 0.999680 -0.025287
vn -0.000689 0.999861 0.016672
vn -0.000642 0.999764 0.021729
vn -0.000636 0.999268 0.038240
vn -0.000631 0.999255 0.038599
vn -0.000615 0.999153 0.041146
vn -0.000603 0.999989 -0.004676
vn -0.000598 0.999881 0.015431
vn -0.000586 0.999082 0.042844
vn -0.000584 0.999949 0.010049
vn -0.000582 0.999184 0.040373
vn -0.000562 0.999735 -0.023029
vn -0.000541 0.999383 0.035112
vn -0.000523 0.999359 -0.035793
vn -0.000519 0.999402 0.034566
vn -0.000482 0.999764 0.021708
vn -0.000471 0.999914 0.013092
vn -0.000402 0.999974 0.007176
vn -0.000393 0.999970 0.007747
vn -0.000340 0.999999 0.001188
vn -0.000292 0.999995 -0.003266
vn -0.000286 0.999602 0.028195
vn -0.000276 0.999417 -0.034144
vn -0.000258 0.999932 -0.011669
vn -0.000181 0.999959 0.009033
vn -0.000169 0.999882 -0.015375
vn -0.000165 0.999228 0.039277
vn -0.000165 0.999978 -0.006605
vn -0.000147 0.999929 0.011925
vn -0.000123 0.999583 0.028869
vn -0.000121 0.999617 0.027657
vn -0.000097 0.999926 -0.012141
vn -0.000061 0.999635 -0.027005
vn -0.000049 0.999981 0.006132
vn -0.000035 0.999303 0.037334
vn -0.000026 0.999764 0.021736
vn -0.000004 0.999706 -0.024260
vn -0.000004 0.999975 -0.007113
vn 0.000000 0.000000 -1.000000
vn 0.000000 0.000000 1.000000
vn 0.000048 0.999902 0.013999
vn 0.000080 0.999995 -0.003064
vn 0.000089 0.999302 0.037358
vn 0.000100 0.999534 0.030509
vn 0.000135 1.000000 0.000843
vn 0.000137 0.999743 0.022677
vn 0.000179 0.999325 -0.036730
vn 0.000183 0.999925 -0.012264
vn 0.000192 0.999118 -0.041991
vn 0.000195 0.999346 -0.036155
vn 0.000232 0.999451 0.033142
vn 0.000238 0.999604 -0.028134
vn 0.000239 0.999060 0.043356
vn 0.000242 0.999987 0.005013
vn 0.000290 0.999743 -0.022671
vn 0.000297 0.999688 -0.024987
vn 0.000305 0.999834 -0.018232
vn 0.000317 0.999969 0.007794
vn 0.000333 0.999943 0.010720
vn 0.000335 0.999957 0.009238
vn 0.000431 0.999802 -0.019909
vn 0.000437 0.999978 -0.006624
vn 0.000441 0.999985 -0.005516
vn 0.000442 1.000000 0.000345
vn 0.000460 0.999127 0.041768
vn 0.000483 0.999892 0.014694
vn 0.000514 0.999497 -0.031708
vn 0.000525 0.999965 0.008308
vn 0.000528 0.999708 0.024180
vn 0.000550 0.999993 -0.003607
vn 0.000563 0.999360 -0.035764
vn 0.000577 0.999383 -0.035109
vn 0.000623 0.999686 0.025052
vn 0.000626 0.999987 -0.005055
vn 0.000669 0.999765 0.021653
vn 0.000698 0.999864 -0.016455
vn 0.000709 0.999619 -0.027574
vn 0.000746 0.999425 -0.033905
vn 0.000752 0.999805 -0.019729
vn 0.000764 0.999428 0.033814
vn 0.000772 0.999249 -0.038745
vn 0.000790 0.999978 -0.006630
vn 0.000814 0.999782 0.020856
vn 0.000823 0.999974 -0.007125
vn 0.000828 0.999214 -0.039632
vn 0.000857 0.999999 0.001232
vn 0.000879 0.999742 -0.022686
vn 0.000899 0.999212 0.039673
vn 0.000899 0.999992 -0.003921
vn 0.000964 0.999261 0.038415
vn 0.001021 0.999054 -0.043469
vn 0.001040 0.999987 -0.004955
vn 0.001078 0.999998 0.001697
vn 0.001081 0.999397 0.034699
vn 0.001089 0.999996 -0.002672
vn 0.001122 0.999957 0.009205
vn 0.001126 0.999478 -0.032281
vn 0.001161 0.999988 0.004786
vn 0.001208 0.999657 0.026158
vn 0.001218 0.999951 -0.009803
vn 0.001223 0.999770 0.021430
vn 0.001224 0.999583 0.028862
vn 0.001238 0.999423 0.033945
vn 0.001256 0.999949 -0.010044
vn 0.001292 0.999600 0.028245
vn 0.001293 0.999401 0.034572
vn 0.001320 0.999931 0.011699
vn 0.001324 0.999440 -0.033429
vn 0.001326 0.999793 -0.020320
vn 0.001346 0.999920 -0.012585
vn 0.001355 0.999331 -0.036552
vn 0.001365 0.999357 -0.035824
vn 0.001374 0.999810 0.019428
vn 0.001387 0.999594 0.028472
vn 0.001387 0.999992 -0.003857
vn 0.001433 0.999932 -0.011612
vn 0.001442 0.999907 -0.013556
vn 0.001464 0.999993 0.003483
vn 0.001477 0.999852 -0.017167
vn 0.001482 0.999978 -0.006478
vn 0.001488 0.999823 0.018737
vn 0.001510 0.999613 -0.027772
vn 0.001541 0.999709 -0.024071
vn 0.001555 0.999942 -0.010659
vn 0.001579 0.999994 0.003087
vn 0.001627 0.999536 -0.030419
vn 0.001644 0.999238 0.039000
vn 0.001648 0.999822 -0.018807
vn 0.001666 0.999396 0.034707
vn 0.001676 0.999740 -0.022731
vn 0.001684 0.999966 -0.008057
vn 0.001710 0.999584 0.028775
vn 0.001719 0.999628 0.027220
vn 0.001727 0.999823 -0.018752
vn 0.001745 0.999902 0.013893
vn 0.001834 0.999705 -0.024231
vn 0.001879 0.999643 -0.026645
vn 0.001894 0.999698 0.024494
vn 0.001922 0.999553 0.029836
vn 0.001942 0.999658 -0.026065
vn 0.001997 0.999996 -0.001831
vn 0.002014 0.999682 0.025143
vn 0.002015 0.999869 -0.016044
vn 0.002043 0.999915 0.012874
vn 0.002068 0.999434 0.033584
vn 0.002070 0.999244 -0.038831
vn 0.002080 0.999440 0.033407
vn 0.002102 0.999830 0.018312
vn 0.002132 0.999420 0.033983
vn 0.002150 0.999970 -0.007493
vn 0.002164 0.999435 -0.033540
vn 0.002166 0.999960 0.008703
vn 0.002178 0.999757 -0.021934
vn 0.002199 0.999997 0.000754
vn 0.002274 0.999841 -0.017664
vn 0.002286 0.999990 0.003883
vn 0.002286 0.999994 0.002555
vn 0.002373 0.999384 -0.035012
vn 0.002419 0.999559 -0.029602
vn 0.002499 0.999235 0.039019
vn 0.002540 0.999298 0.037386
vn 0.002540 0.999629 -0.027128
vn 0.002541 0.999644 0.026567
vn 0.002583 0.999570 -0.029194
vn 0.002598 0.999946 0.010043
vn 0.002644 0.999102 0.042274
vn 0.002670 0.999475 -0.032298
vn 0.002753 0.999506 -0.031299
vn 0.002762 0.999577 0.028943
vn 0.002762 0.999992 0.003013
vn 0.002828 0.999799 -0.019836
vn 0.002844 0.999919 0.012405
vn 0.002863 0.999743 0.022504
vn 0.002881 0.999939 0.010671
vn 0.002918 0.999995 -0.000916
vn 0.002960 0.999953 0.009235
vn 0.002985 0.999894 0.014214
vn 0.003005 0.999940 -0.010543
vn 0.003055 0.999935 -0.010953
vn 0.003201 0.999343 -0.036093
vn 0.003261 0.999929 0.011464
vn 0.003378 0.999784 -0.020513
vn 0.003480 0.999929 -0.011425
vn 0.003522 0.999297 -0.037319
vn 0.003544 0.999361 0.035581
vn 0.003562 0.999513 0.031004
vn 0.003565 0.999088 -0.042560
vn 0.003590 0.999659 0.025846
vn 0.003657 0.999420 -0.033867
vn 0.003672 0.999541 -0.030067
vn 0.003693 0.999955 0.008698
vn 0.003729 0.999266 0.038136
vn 0.003766 0.999390 -0.034705
vn 0.003839 0.999874 0.015417
vn 0.003918 0.999969 -0.006836
vn 0.004035 0.999991 -0.000843
vn 0.004110 0.999901 0.013492
vn 0.004131 0.999986 0.003326
vn 0.004148 0.999986 0.003411
vn 0.004266 0.999373 0.035137
vn 0.004304 0.999299 0.037189
vn 0.004328 0.999899 0.013537
vn 0.004708 0.999868 -0.015582
vn 0.004960 0.999982 -0.003511
vn 0.004998 0.999821 -0.018230
vn 0.005061 0.999391 -0.034539
vn 0.005123 0.999580 0.028528
vn 0.005139 0.999873 0.015063
vn 0.005167 0.999951 -0.008389
vn 0.006083 0.999640 -0.026136
vn 0.006185 0.999861 -0.015496
usemtl RoadTarmac
f 1/5/182 3/6/182 12/17/182
f 2/5/183 13/17/183 4/7/183
f 3/6/182 15/20/182 12/17/182
f 3/12/49 6/11/49 15/24/49
f 4/1/78 14/13/78 5/2/78
f 4/7/183 13/17/183 14/19/183
f 5/2/78 14/13/78 16/14/78
f 5/2/245 16/14/245 18/15/245
f 5/2/245 18/15/245 7/3/245
f 6/11/49 17/23/49 15/24/49
f 6/11/210 8/10/210 19/22/210
f 6/11/210 19/22/210 17/23/210
f 7/3/212 18/15/212 21/16/212
f 7/3/212 21/16/212 10/4/212
f 8/10/175 9/9/175 19/22/175
f 9/9/175 20/21/175 19/22/175
f 9/9/267 11/8/267 22/18/267
f 9/9/267 22/18/267 20/21/267
f 10/4/261 21/16/261 22/18/261
f 10/4/261 22/18/261 11/8/261
f 12/17/182 15/20/182 25/31/182
f 12/17/182 25/31/182 23/29/182
f 13/17/183 24/29/183 14/19/183
f 14/13/31 26/25/31 16/14/31
f 14/19/183 24/29/183 26/32/183
f 15/24/220 17/23/220 27/35/220
f 15/24/220 27/35/220 25/36/220
f 16/14/31 26/25/31 28/26/31
f 16/14/33 28/26/33 18/15/33
f 17/23/302 19/22/302 29/34/302
f 17/23/302 29/34/302 27/35/302
f 18/15/33 28/26/33 30/27/33
f 18/15/226 30/27/226 32/28/226
f 18/15/226 32/28/226 21/16/226
f 19/22/286 20/21/286 31/33/286
f 19/22/286 31/33/286 29/34/286
f 20/21/205 22/18/205 33/30/205
f 20/21/205 33/30/205 31/33/205
f 21/16/300 32/28/300 33/30/300
f 21/16/300 33/30/300 22/18/300
f 23/29/182 25/31/182 36/42/182
f 23/29/182 36/42/182 34/41/182
f 24/29/183 35/41/183 37/44/183
f 24/29/183 37/44/183 26/32/183
f 25/36/157 27/35/157 36/48/157
f 26/25/288 37/37/288 38/38/288
f 26/25/288 38/38/288 28/26/288
f 27/35/63 29/34/63 39/47/63
f 27/35/157 39/47/157 36/48/157
f 28/26/126 38/38/126 30/27/126
f 29/34/63 40/46/63 39/47/63
f 29/34/204 31/33/204 42/45/204
f 29/34/204 42/45/204 40/46/204
f 30/27/58 41/39/58 32/28/58
f 30/27/126 38/38/126 41/39/126
f 31/33/258 33/30/258 43/43/258
f 31/33/258 43/43/258 42/45/258
f 32/28/58 41/39/58 44/40/58
f 32/28/188 43/43/188 33/30/188
f 32/28/188 44/40/188 43/43/188
f 34/41/182 36/42/182 45/53/182
f 35/41/183 46/53/183 37/44/183
f 36/42/182 48/56/182 45/53/182
f 36/48/214 39/47/214 49/59/214
f 36/48/214 49/59/214 48/60/214
f 37/37/194 47/49/194 50/50/194
f 37/37/194 50/50/194 38/38/194
f 37/44/183 46/53/183 47/55/183
f 38/38/312 50/50/312 51/51/312
f 38/38/312 51/51/312 41/39/312
f 39/47/116 40/46/116 49/59/116
f 40/46/24 42/45/24 52/58/24
f 40/46/116 52/58/116 49/59/116
f 41/39/256 51/51/256 55/52/256
f 41/39/256 55/52/256 44/40/256
f 42/45/24 53/57/24 52/58/24
f 42/45/185 43/43/185 54/54/185
f 42/45/185 54/54/185 53/57/185
f 43/43/132 44/40/132 54/54/132
f 44/40/132 55/52/132 54/54/132
f 45/53/182 48/56/182 59/68/182
f 45/53/182 59/68/182 56/65/182
f 46/53/183 57/65/183 58/66/183
f 46/53/183 58/66/183 47/55/183
f 47/49/272 58/61/272 60/62/272
f 47/49/272 60/62/272 50/50/272
f 48/60/43 49/59/43 59/72/43
f 49/59/41 52/58/41 61/71/41
f 49/59/43 61/71/43 59/72/43
f 50/50/60 60/62/60 51/51/60
f 51/51/60 60/62/60 62/63/60
f 51/51/87 62/63/87 55/52/87
f 52/58/41 63/70/41 61/71/41
f 52/58/181 53/57/181 63/70/181
f 53/57/164 54/54/164 64/69/164
f 53/57/181 64/69/181 63/70/181
f 54/54/164 65/67/164 64/69/164
f 54/54/213 55/52/213 66/64/213
f 54/54/213 66/64/213 65/67/213
f 55/52/87 62/63/87 66/64/87
f 56/65/182 59/68/182 67/77/182
f 57/65/183 68/77/183 58/66/183
f 58/61/34 69/73/34 60/62/34
f 58/66/183 68/77/183 69/79/183
f 59/68/182 70/80/182 67/77/182
f 59/72/294 61/71/294 71/83/294
f 59/72/294 71/83/294 70/84/294
f 60/62/34 69/73/34 72/74/34
f 60/62/106 72/74/106 62/63/106
f 61/71/353 63/70/353 73/82/353
f 61/71/353 73/82/353 71/83/353
f 62/63/106 72/74/106 74/75/106
f 62/63/287 74/75/287 75/76/287
f 62/63/287 75/76/287 66/64/287
f 63/70/262 64/69/262 77/81/262
f 63/70/262 77/81/262 73/82/262
f 64/69/54 65/67/54 77/81/54
f 65/67/54 76/78/54 77/81/54
f 65/67/229 66/64/229 76/78/229
f 66/64/229 75/76/229 76/78/229
f 67/77/182 70/80/182 81/92/182
f 67/77/182 81/92/182 78/89/182
f 68/77/183 79/89/183 80/90/183
f 68/77/183 80/90/183 69/79/183
f 69/73/303 80/85/303 82/86/303
f 69/73/303 82/86/303 72/74/303
f 70/84/73 71/83/73 81/96/73
f 71/83/42 73/82/42 83/95/42
f 71/83/73 83/95/73 81/96/73
f 72/74/306 82/86/306 85/87/306
f 72/74/306 85/87/306 74/75/306
f 73/82/42 84/94/42 83/95/42
f 73/82/296 77/81/296 86/93/296
f 73/82/296 86/93/296 84/94/296
f 74/75/151 85/87/151 75/76/151
f 75/76/37 87/88/37 76/78/37
f 75/76/151 85/87/151 87/88/151
f 76/78/37 87/88/37 88/91/37
f 76/78/235 88/91/235 77/81/235
f 77/81/235 88/91/235 86/93/235
f 78/89/182 81/92/182 89/101/182
f 79/89/183 90/101/183 91/102/183
f 79/89/183 91/102/183 80/90/183
f 80/85/147 91/97/147 82/86/147
f 81/92/182 92/104/182 89/101/182
f 81/96/215 83/95/215 94/107/215
f 81/96/215 94/107/215 92/108/215
f 82/86/147 91/97/147 93/98/147
f 82/86/216 93/98/216 95/99/216
f 82/86/216 95/99/216 85/87/216
f 83/95/222 84/94/222 96/106/222
f 83/95/222 96/106/222 94/107/222
f 84/94/76 86/93/76 96/106/76
f 85/87/244 95/99/244 99/100/244
f 85/87/244 99/100/244 87/88/244
f 86/93/76 98/105/76 96/106/76
f 86/93/217 88/91/217 97/103/217
f 86/93/217 97/103/217 98/105/217
f 87/88/297 97/103/297 88/91/297
f 87/88/297 99/100/297 97/103/297
f 89/101/182 92/104/182 103/116/182
f 89/101/182 103/116/182 100/113/182
f 90/101/183 101/113/183 91/102/183
f 91/97/125 102/109/125 93/98/125
f 91/102/183 101/113/183 102/115/183
f 92/108/240 94/107/240 104/119/240
f 92/108/240 104/119/240 103/120/240
f 93/98/125 102/109/125 105/110/125
f 93/98/189 105/110/189 107/111/189
f 93/98/189 107/111/189 95/99/189
f 94/107/230 96/106/230 106/118/230
f 94/107/230 106/118/230 104/119/230
f 95/99/99 107/111/99 99/100/99
f 96/106/252 98/105/252 108/117/252
f 96/106/252 108/117/252 106/118/252
f 97/103/7 99/100/7 109/112/7
f 97/103/7 109/112/7 110/114/7
f 97/103/55 108/117/55 98/105/55
f 97/103/55 110/114/55 108/117/55
f 99/100/99 107/111/99 109/112/99
f 100/113/182 103/116/182 113/126/182
f 100/113/182 113/126/182 111/125/182
f 101/113/183 112/125/183 114/128/183
f 101/113/183 114/128/183 102/115/183
f 102/109/108 114/121/108 105/110/108
f 103/120/301 104/119/301 115/131/301
f 103/120/301 115/131/301 113/132/301
f 104/119/57 106/118/57 115/131/57
f 105/110/9 116/122/9 107/111/9
f 105/110/108 114/121/108 116/122/108
f 106/118/57 117/130/57 115/131/57
f 106/118/81 108/117/81 117/130/81
f 107/111/9 116/122/9 118/123/9
f 107/111/111 118/123/111 109/112/111
f 108/117/81 119/129/81 117/130/81
f 108/117/326 110/114/326 121/127/326
f 108/117/326 121/127/326 119/129/326
f 109/112/111 118/123/111 120/124/111
f 109/112/341 120/124/341 121/127/341
f 109/112/341 121/127/341 110/114/341
f 111/125/182 113/126/182 122/137/182
f 112/125/183 123/137/183 124/138/183
f 112/125/183 124/138/183 114/128/183
f 113/126/182 125/140/182 122/137/182
f 113/132/6 115/131/6 125/144/6
f 114/121/208 124/133/208 126/134/208
f 114/121/208 126/134/208 116/122/208
f 115/131/6 127/143/6 125/144/6
f 115/131/89 117/130/89 127/143/89
f 116/122/316 126/134/316 128/135/316
f 116/122/316 128/135/316 118/123/316
f 117/130/67 119/129/67 129/142/67
f 117/130/89 129/142/89 127/143/89
f 118/123/291 128/135/291 130/136/291
f 118/123/291 130/136/291 120/124/291
f 119/129/3 121/127/3 131/141/3
f 119/129/67 131/141/67 129/142/67
f 120/124/45 130/136/45 121/127/45
f 121/127/3 132/139/3 131/141/3
f 121/127/45 130/136/45 132/139/45
f 122/137/182 125/140/182 135/150/182
f 122/137/182 135/150/182 133/149/182
f 123/137/183 134/149/183 124/138/183
f 124/133/186 136/145/186 137/146/186
f 124/133/186 137/146/186 126/134/186
f 124/138/183 134/149/183 136/152/183
f 125/144/330 127/143/330 138/155/330
f 125/144/330 138/155/330 135/156/330
f 126/134/218 137/146/218 140/147/218
f 126/134/218 140/147/218 128/135/218
f 127/143/314 129/142/314 139/154/314
f 127/143/314 139/154/314 138/155/314
f 128/135/179 140/147/179 130/136/179
f 129/142/279 131/141/279 142/153/279
f 129/142/279 142/153/279 139/154/279
f 130/136/179 140/147/179 141/148/179
f 130/136/201 141/148/201 143/151/201
f 130/136/201 143/151/201 132/139/201
f 131/141/150 132/139/150 142/153/150
f 132/139/150 143/151/150 142/153/150
f 133/149/182 135/150/182 144/161/182
f 134/149/183 145/161/183 147/164/183
f 134/149/183 147/164/183 136/152/183
f 135/150/182 146/162/182 144/161/182
f 135/156/234 138/155/234 148/167/234
f 135/156/234 148/167/234 146/168/234
f 136/145/156 147/157/156 137/146/156
f 137/146/21 149/158/21 140/147/21
f 137/146/156 147/157/156 149/158/156
f 138/155/155 139/154/155 148/167/155
f 139/154/155 150/166/155 148/167/155
f 139/154/277 142/153/277 152/165/277
f 139/154/277 152/165/277 150/166/277
f 140/147/21 149/158/21 151/159/21
f 140/147/110 151/159/110 141/148/110
f 141/148/110 151/159/110 153/160/110
f 141/148/319 153/160/319 154/163/319
f 141/148/319 154/163/319 143/151/319
f 142/153/352 143/151/352 154/163/352
f 142/153/352 154/163/352 152/165/352
f 144/161/182 146/162/182 155/173/182
f 145/161/183 156/173/183 157/174/183
f 145/161/183 157/174/183 147/164/183
f 146/162/182 158/176/182 155/173/182
f 146/168/46 148/167/46 158/180/46
f 147/157/309 157/169/309 159/170/309
f 147/157/309 159/170/309 149/158/309
f 148/167/46 160/179/46 158/180/46
f 148/167/144 150/166/144 160/179/144
f 149/158/187 159/170/187 162/171/187
f 149/158/187 162/171/187 151/159/187
f 150/166/144 161/178/144 160/179/144
f 150/166/167 152/165/167 161/178/167
f 151/159/177 162/171/177 153/160/177
f 152/165/40 154/163/40 163/177/40
f 152/165/167 163/177/167 161/178/167
f 153/160/72 164/172/72 154/163/72
f 153/160/177 162/171/177 164/172/177
f 154/163/40 165/175/40 163/177/40
f 154/163/72 164/172/72 165/175/72
f 155/173/182 158/176/182 166/185/182
f 156/173/183 167/185/183 157/174/183
f 157/169/148 168/181/148 159/170/148
f 157/174/183 167/185/183 168/187/183
f 158/176/182 169/188/182 166/185/182
f 158/180/193 160/179/193 171/191/193
f 158/180/193 171/191/193 169/192/193
f 159/170/148 168/181/148 170/182/148
f 159/170/350 170/182/350 172/183/350
f 159/170/350 172/183/350 162/171/350
f 160/179/266 161/178/266 173/190/266
f 160/179/266 173/190/266 171/191/266
f 161/178/131 163/177/131 173/190/131
f 162/171/315 172/183/315 174/184/315
f 162/171/315 174/184/315 164/172/315
f 163/177/131 175/189/131 173/190/131
f 163/177/133 165/175/133 175/189/133
f 164/172/184 174/184/184 176/186/184
f 164/172/184 176/186/184 165/175/184
f 165/175/133 176/186/133 175/189/133
f 166/185/182 169/188/182 177/197/182
f 167/185/183 178/197/183 179/199/183
f 167/185/183 179/199/183 168/187/183
f 168/181/91 179/193/91 170/182/91
f 169/188/182 180/200/182 177/197/182
f 169/192/142 171/191/142 180/204/142
f 170/182/28 182/194/28 172/183/28
f 170/182/91 179/193/91 182/194/91
f 171/191/115 173/190/115 181/203/115
f 171/191/142 181/203/142 180/204/142
f 172/183/28 182/194/28 183/195/28
f 172/183/134 183/195/134 174/184/134
f 173/190/115 184/202/115 181/203/115
f 173/190/169 175/189/169 184/202/169
f 174/184/134 183/195/134 185/196/134
f 174/184/334 185/196/334 187/198/334
f 174/184/334 187/198/334 176/186/334
f 175/189/169 186/201/169 184/202/169
f 175/189/338 176/186/338 187/198/338
f 175/189/338 187/198/338 186/201/338
f 177/197/182 180/200/182 190/210/182
f 177/197/182 190/210/182 188/209/182
f 178/197/183 189/209/183 191/211/183
f 178/197/183 191/211/183 179/199/183
f 179/193/270 191/205/270 193/206/270
f 179/193/270 193/206/270 182/194/270
f 180/204/332 181/203/332 192/215/332
f 180/204/332 192/215/332 190/216/332
f 181/203/121 184/202/121 192/215/121
f 182/194/174 193/206/174 183/195/174
f 183/195/44 194/207/44 185/196/44
f 183/195/174 193/206/174 194/207/174
f 184/202/17 186/201/17 195/214/17
f 184/202/121 195/214/121 192/215/121
f 185/196/44 194/207/44 197/208/44
f 185/196/65 197/208/65 187/198/65
f 186/201/17 198/213/17 195/214/17
f 186/201/53 187/198/53 198/213/53
f 187/198/53 196/212/53 198/213/53
f 187/198/65 197/208/65 196/212/65
f 188/209/182 190/210/182 201/222/182
f 188/209/182 201/222/182 199/221/182
f 189/209/183 200/221/183 191/211/183
f 190/216/128 192/215/128 201/228/128
f 191/205/137 202/217/137 193/206/137
f 191/211/183 200/221/183 202/223/183
f 192/215/128 203/227/128 201/228/128
f 192/215/307 195/214/307 205/226/307
f 192/215/307 205/226/307 203/227/307
f 193/206/137 202/217/137 204/218/137
f 193/206/242 204/218/242 206/219/242
f 193/206/242 206/219/242 194/207/242
f 194/207/340 206/219/340 207/220/340
f 194/207/340 207/220/340 197/208/340
f 195/214/354 198/213/354 208/225/354
f 195/214/354 208/225/354 205/226/354
f 196/212/313 197/208/313 209/224/313
f 196/212/318 209/224/318 198/213/318
f 197/208/313 207/220/313 209/224/313
f 198/213/318 209/224/318 208/225/318
f 199/221/182 201/222/182 210/233/182
f 200/221/183 211/233/183 202/223/183
f 201/222/182 212/234/182 210/233/182
f 201/228/93 203/227/93 212/240/93
f 202/217/98 213/229/98 204/218/98
f 202/223/183 211/233/183 213/236/183
f 203/227/27 205/226/27 215/239/27
f 203/227/93 215/239/93 212/240/93
f 204/218/98 213/229/98 214/230/98
f 204/218/146 214/230/146 206/219/146
f 205/226/22 208/225/22 217/238/22
f 205/226/27 217/238/27 215/239/27
f 206/219/146 214/230/146 216/231/146
f 206/219/172 216/231/172 207/220/172
f 207/220/29 218/232/29 209/224/29
f 207/220/172 216/231/172 218/232/172
f 208/225/5 209/224/5 219/237/5
f 208/225/22 219/237/22 217/238/22
f 209/224/5 220/235/5 219/237/5
f 209/224/29 218/232/29 220/235/29
f 210/233/182 212/234/182 221/245/182
f 211/233/183 222/245/183 223/246/183
f 211/233/183 223/246/183 213/236/183
f 212/234/182 224/247/182 221/245/182
f 212/240/192 215/239/192 226/251/192
f 212/240/192 226/251/192 224/252/192
f 213/229/335 223/241/335 225/242/335
f 213/229/335 225/242/335 214/230/335
f 214/230/173 225/242/173 216/231/173
f 215/239/195 217/238/195 227/250/195
f 215/239/195 227/250/195 226/251/195
f 216/231/2 228/243/2 218/232/2
f 216/231/173 225/242/173 228/243/173
f 217/238/35 219/237/35 227/250/35
f 218/232/2 228/243/2 230/244/2
f 218/232/168 230/244/168 220/235/168
f 219/237/35 231/249/35 227/250/35
f 219/237/232 220/235/232 229/248/232
f 219/237/232 229/248/232 231/249/232
f 220/235/168 230/244/168 229/248/168
f 221/245/182 224/247/182 234/258/182
f 221/245/182 234/258/182 232/257/182
f 222/245/183 233/257/183 223/246/183
f 223/241/51 235/253/51 225/242/51
f 223/246/183 233/257/183 235/259/183
f 224/252/327 226/251/327 236/263/327
f 224/252/327 236/263/327 234/264/327
f 225/242/51 235/253/51 237/254/51
f 225/242/248 237/254/248 238/255/248
f 225/242/248 238/255/248 228/243/248
f 226/251/254 227/250/254 239/262/254
f 226/251/254 239/262/254 236/263/254
f 227/250/321 231/249/321 240/261/321
f 227/250/321 240/261/321 239/262/321
f 228/243/351 238/255/351 241/256/351
f 228/243/351 241/256/351 230/244/351
f 229/248/162 230/244/162 241/256/162
f 229/248/162 241/256/162 242/260/162
f 229/248/225 242/260/225 231/249/225
f 231/249/225 242/260/225 240/261/225
f 232/257/182 234/258/182 243/269/182
f 233/257/183 244/269/183 245/270/183
f 233/257/183 245/270/183 235/259/183
f 234/258/182 246/272/182 243/269/182
f 234/264/1 236/263/1 246/276/1
f 235/253/231 245/265/231 247/266/231
f 235/253/231 247/266/231 237/254/231
f 236/263/1 248/275/1 246/276/1
f 236/263/79 239/262/79 248/275/79
f 237/254/105 247/266/105 238/255/105
f 238/255/4 249/267/4 241/256/4
f 238/255/105 247/266/105 249/267/105
f 239/262/79 250/274/79 248/275/79
f 239/262/206 240/261/206 251/273/206
f 239/262/206 251/273/206 250/274/206
f 240/261/322 242/260/322 252/271/322
f 240/261/322 252/271/322 251/273/322
f 241/256/4 249/267/4 253/268/4
f 241/256/197 252/271/197 242/260/197
f 241/256/197 253/268/197 252/271/197
f 243/269/182 246/272/182 257/284/182
f 243/269/182 257/284/182 254/281/182
f 244/269/183 255/281/183 245/270/183
f 245/265/237 256/277/237 258/278/237
f 245/265/237 258/278/237 247/266/237
f 245/270/183 255/281/183 256/283/183
f 246/276/311 248/275/311 259/287/311
f 246/276/311 259/287/311 257/288/311
f 247/266/223 258/278/223 261/279/223
f 247/266/223 261/279/223 249/267/223
f 248/275/333 250/274/333 260/286/333
f 248/275/333 260/286/333 259/287/333
f 249/267/278 261/279/278 263/280/278
f 249/267/278 263/280/278 253/268/278
f 250/274/247 251/273/247 262/285/247
f 250/274/247 262/285/247 260/286/247
f 251/273/80 252/271/80 262/285/80
f 252/271/80 264/282/80 262/285/80
f 252/271/236 253/268/236 264/282/236
f 253/268/236 263/280/236 264/282/236
f 254/281/182 257/284/182 267/294/182
f 254/281/182 267/294/182 265/293/182
f 255/281/183 266/293/183 256/283/183
f 256/277/117 268/289/117 258/278/117
f 256/283/183 266/293/183 268/296/183
f 257/288/112 259/287/112 267/300/112
f 258/278/117 268/289/117 269/290/117
f 258/278/292 269/290/292 272/291/292
f 258/278/292 272/291/292 261/279/292
f 259/287/85 260/286/85 270/299/85
f 259/287/112 270/299/112 267/300/112
f 260/286/85 271/298/85 270/299/85
f 260/286/260 262/285/260 273/297/260
f 260/286/260 273/297/260 271/298/260
f 261/279/317 272/291/317 274/292/317
f 261/279/317 274/292/317 263/280/317
f 262/285/243 264/282/243 275/295/243
f 262/285/243 275/295/243 273/297/243
f 263/280/239 274/292/239 275/295/239
f 263/280/239 275/295/239 264/282/239
f 265/293/182 267/294/182 276/305/182
f 266/293/183 277/305/183 268/296/183
f 267/294/182 278/307/182 276/305/182
f 267/300/224 270/299/224 280/311/224
f 267/300/224 280/311/224 278/312/224
f 268/289/20 279/301/20 269/290/20
f 268/296/183 277/305/183 279/308/183
f 269/290/20 279/301/20 281/302/20
f 269/290/26 281/302/26 272/291/26
f 270/299/180 271/298/180 280/311/180
f 271/298/62 273/297/62 283/310/62
f 271/298/180 283/310/180 280/311/180
f 272/291/26 281/302/26 282/303/26
f 272/291/92 282/303/92 274/292/92
f 273/297/62 284/309/62 283/310/62
f 273/297/171 275/295/171 284/309/171
f 274/292/92 282/303/92 285/304/92
f 274/292/139 285/304/139 275/295/139
f 275/295/139 285/304/139 286/306/139
f 275/295/171 286/306/171 284/309/171
f 276/305/182 278/307/182 290/320/182
f 276/305/182 290/320/182 287/317/182
f 277/305/183 288/317/183 289/318/183
f 277/305/183 289/318/183 279/308/183
f 278/312/251 280/311/251 291/323/251
f 278/312/251 291/323/251 290/324/251
f 279/301/344 289/313/344 292/314/344
f 279/301/344 292/314/344 281/302/344
f 280/311/269 283/310/269 293/322/269
f 280/311/269 293/322/269 291/323/269
f 281/302/281 292/314/281 294/315/281
f 281/302/281 294/315/281 282/303/281
f 282/303/145 294/315/145 285/304/145
f 283/310/259 284/309/259 295/321/259
f 283/310/259 295/321/259 293/322/259
f 284/309/88 286/306/88 295/321/88
f 285/304/70 296/316/70 286/306/70
f 285/304/145 294/315/145 296/316/145
f 286/306/70 296/316/70 297/319/70
f 286/306/88 297/319/88 295/321/88
f 287/317/182 290/320/182 300/330/182
f 287/317/182 300/330/182 298/329/182
f 288/317/183 299/329/183 301/331/183
f 288/317/183 301/331/183 289/318/183
f 289/313/249 301/325/249 302/326/249
f 289/313/249 302/326/249 292/314/249
f 290/324/190 291/323/190 303/335/190
f 290/324/190 303/335/190 300/336/190
f 291/323/176 293/322/176 303/335/176
f 292/314/158 302/326/158 294/315/158
f 293/322/68 295/321/68 304/334/68
f 293/322/176 304/334/176 303/335/176
f 294/315/143 305/327/143 296/316/143
f 294/315/158 302/326/158 305/327/158
f 295/321/68 308/333/68 304/334/68
f 295/321/90 297/319/90 308/333/90
f 296/316/143 305/327/143 306/328/143
f 296/316/295 306/328/295 307/332/295
f 296/316/295 307/332/295 297/319/295
f 297/319/90 307/332/90 308/333/90
f 298/329/182 300/330/182 309/341/182
f 299/329/183 310/341/183 301/331/183
f 300/330/182 312/344/182 309/341/182
f 300/336/8 303/335/8 312/348/8
f 301/325/47 311/337/47 302/326/47
f 301/331/183 310/341/183 311/342/183
f 302/326/47 311/337/47 313/338/47
f 302/326/86 313/338/86 305/327/86
f 303/335/8 314/347/8 312/348/8
f 303/335/52 304/334/52 314/347/52
f 304/334/52 315/346/52 314/347/52
f 304/334/120 308/333/120 315/346/120
f 305/327/86 313/338/86 316/339/86
f 305/327/203 316/339/203 317/340/203
f 305/327/203 317/340/203 306/328/203
f 306/328/161 317/340/161 307/332/161
f 307/332/161 317/340/161 319/343/161
f 307/332/163 319/343/163 308/333/163
f 308/333/120 318/345/120 315/346/120
f 308/333/163 319/343/163 318/345/163
f 309/341/182 312/344/182 322/354/182
f 309/341/182 322/354/182 320/353/182
f 310/341/183 321/353/183 311/342/183
f 311/337/246 323/349/246 324/350/246
f 311/337/246 324/350/246 313/338/246
f 311/342/183 321/353/183 323/356/183
f 312/348/349 314/347/349 325/359/349
f 312/348/349 325/359/349 322/360/349
f 313/338/329 324/350/329 326/351/329
f 313/338/329 326/351/329 316/339/329
f 314/347/305 315/346/305 327/358/305
f 314/347/305 327/358/305 325/359/305
f 315/346/298 318/345/298 329/357/298
f 315/346/298 329/357/298 327/358/298
f 316/339/308 326/351/308 328/352/308
f 316/339/308 328/352/308 317/340/308
f 317/340/160 328/352/160 319/343/160
f 318/345/227 319/343/227 330/355/227
f 318/345/227 330/355/227 329/357/227
f 319/343/160 328/352/160 330/355/160
f 320/353/182 322/354/182 331/365/182
f 321/353/183 332/365/183 333/366/183
f 321/353/183 333/366/183 323/356/183
f 322/354/182 334/367/182 331/365/182
f 322/360/166 325/359/166 334/372/166
f 323/349/178 333/361/178 324/350/178
f 324/350/15 336/362/15 326/351/15
f 324/350/178 333/361/178 336/362/178
f 325/359/97 327/358/97 335/371/97
f 325/359/166 335/371/166 334/372/166
f 326/351/14 337/363/14 328/352/14
f 326/351/15 336/362/15 337/363/15
f 327/358/69 329/357/69 338/370/69
f 327/358/97 338/370/97 335/371/97
f 328/352/14 337/363/14 341/364/14
f 328/352/211 340/368/211 330/355/211
f 328/352/211 341/364/211 340/368/211
f 329/357/69 339/369/69 338/370/69
f 329/357/293 330/355/293 340/368/293
f 329/357/293 340/368/293 339/369/293
f 331/365/182 334/367/182 342/377/182
f 332/365/183 343/377/183 333/366/183
f 333/361/71 344/373/71 336/362/71
f 333/366/183 343/377/183 344/379/183
f 334/367/182 345/380/182 342/377/182
f 334/372/77 335/371/77 345/384/77
f 335/371/77 346/383/77 345/384/77
f 335/371/221 338/370/221 349/382/221
f 335/371/221 349/382/221 346/383/221
f 336/362/71 344/373/71 347/374/71
f 336/362/285 347/374/285 348/375/285
f 336/362/285 348/375/285 337/363/285
f 337/363/345 348/375/345 350/376/345
f 337/363/345 350/376/345 341/364/345
f 338/370/253 339/369/253 351/381/253
f 338/370/253 351/381/253 349/382/253
f 339/369/141 340/368/141 351/381/141
f 340/368/141 352/378/141 351/381/141
f 340/368/241 341/364/241 352/378/241
f 341/364/241 350/376/241 352/378/241
f 342/377/182 345/380/182 353/389/182
f 343/377/183 354/389/183 344/379/183
f 344/373/59 356/385/59 347/374/59
f 344/379/183 354/389/183 356/392/183
f 345/380/182 355/391/182 353/389/182
f 345/384/100 346/383/100 355/396/100
f 346/383/100 357/395/100 355/396/100
f 346/383/103 349/382/103 357/395/103
f 347/374/59 356/385/59 358/386/59
f 347/374/123 358/386/123 348/375/123
f 348/375/12 359/387/12 350/376/12
f 348/375/123 358/386/123 359/387/123
f 349/382/82 351/381/82 360/394/82
f 349/382/103 360/394/103 357/395/103
f 350/376/12 359/387/12 363/388/12
f 350/376/25 363/388/25 352/378/25
f 351/381/82 361/393/82 360/394/82
f 351/381/130 352/378/130 361/393/130
f 352/378/25 363/388/25 362/390/25
f 352/378/130 362/390/130 361/393/130
f 353/389/182 355/391/182 366/402/182
f 353/389/182 366/402/182 364/401/182
f 354/389/183 365/401/183 367/403/183
f 354/389/183 367/403/183 356/392/183
f 355/396/323 357/395/323 369/407/323
f 355/396/323 369/407/323 366/408/323
f 356/385/343 367/397/343 368/398/343
f 356/385/343 368/398/343 358/386/343
f 357/395/280 360/394/280 370/406/280
f 357/395/280 370/406/280 369/407/280
f 358/386/165 368/398/165 359/387/165
f 359/387/124 371/399/124 363/388/124
f 359/387/165 368/398/165 371/399/165
f 360/394/346 361/393/346 372/405/346
f 360/394/346 372/405/346 370/406/346
f 361/393/263 362/390/263 374/404/263
f 361/393/263 374/404/263 372/405/263
f 362/390/207 363/388/207 374/404/207
f 363/388/124 371/399/124 373/400/124
f 363/388/207 373/400/207 374/404/207
f 364/401/182 366/402/182 375/413/182
f 365/401/183 376/413/183 377/414/183
f 365/401/183 377/414/183 367/403/183
f 366/402/182 378/416/182 375/413/182
f 366/408/66 369/407/66 378/420/66
f 367/397/170 377/409/170 368/398/170
f 368/398/170 377/409/170 380/410/170
f 368/398/275 380/410/275 381/411/275
f 368/398/275 381/411/275 371/399/275
f 369/407/66 379/419/66 378/420/66
f 369/407/122 370/406/122 379/419/122
f 370/406/19 372/405/19 382/418/19
f 370/406/122 382/418/122 379/419/122
f 371/399/337 381/411/337 383/412/337
f 371/399/337 383/412/337 373/400/337
f 372/405/19 385/417/19 382/418/19
f 372/405/101 374/404/101 385/417/101
f 373/400/299 383/412/299 384/415/299
f 373/400/299 384/415/299 374/404/299
f 374/404/101 384/415/101 385/417/101
f 375/413/182 378/416/182 388/426/182
f 375/413/182 388/426/182 386/425/182
f 376/413/183 387/425/183 377/414/183
f 377/409/152 389/421/152 380/410/152
f 377/414/183 387/425/183 389/427/183
f 378/420/289 379/419/289 390/431/289
f 378/420/289 390/431/289 388/432/289
f 379/419/199 382/418/199 393/430/199
f 379/419/199 393/430/199 390/431/199
f 380/410/152 389/421/152 391/422/152
f 380/410/159 391/422/159 381/411/159
f 381/411/102 392/423/102 383/412/102
f 381/411/159 391/422/159 392/423/159
f 382/418/271 385/417/271 394/429/271
f 382/418/271 394/429/271 393/430/271
f 383/412/18 395/424/18 384/415/18
f 383/412/102 392/423/102 395/424/102
f 384/415/18 395/424/18 396/428/18
f 384/415/135 394/429/135 385/417/135
f 384/415/135 396/428/135 394/429/135
f 386/425/182 388/426/182 397/437/182
f 387/425/183 398/437/183 399/438/183
f 387/425/183 399/438/183 389/427/183
f 388/426/182 400/440/182 397/437/182
f 388/432/138 390/431/138 400/444/138
f 389/421/196 399/433/196 402/434/196
f 389/421/196 402/434/196 391/422/196
f 390/431/138 401/443/138 400/444/138
f 390/431/283 393/430/283 403/442/283
f 390/431/283 403/442/283 401/443/283
f 391/422/56 402/434/56 392/423/56
f 392/423/36 404/435/36 395/424/36
f 392/423/56 402/434/56 404/435/56
f 393/430/200 394/429/200 405/441/200
f 393/430/200 405/441/200 403/442/200
f 394/429/274 396/428/274 406/439/274
f 394/429/274 406/439/274 405/441/274
f 395/424/36 404/435/36 407/436/36
f 395/424/268 406/439/268 396/428/268
f 395/424/268 407/436/268 406/439/268
f 397/437/182 400/440/182 410/450/182
f 397/437/182 410/450/182 408/449/182
f 398/437/183 409/449/183 399/438/183
f 399/433/233 411/445/233 412/446/233
f 399/433/233 412/446/233 402/434/233
f 399/438/183 409/449/183 411/451/183
f 400/444/136 401/443/136 410/456/136
f 401/443/48 403/442/48 413/455/48
f 401/443/136 413/455/136 410/456/136
f 402/434/290 412/446/290 415/447/290
f 402/434/290 415/447/290 404/435/290
f 403/442/48 414/454/48 413/455/48
f 403/442/64 405/441/64 414/454/64
f 404/435/209 415/447/209 416/448/209
f 404/435/209 416/448/209 407/436/209
f 405/441/30 406/439/30 417/453/30
f 405/441/64 417/453/64 414/454/64
f 406/439/30 418/452/30 417/453/30
f 406/439/104 407/436/104 416/448/104
f 406/439/104 416/448/104 418/452/104
f 408/449/182 410/450/182 422/463/182
f 408/449/182 422/463/182 419/461/182
f 409/449/183 420/461/183 421/462/183
f 409/449/183 421/462/183 411/451/183
f 410/456/228 413/455/228 423/467/228
f 410/456/228 423/467/228 422/468/228
f 411/445/96 421/457/96 412/446/96
f 412/446/39 424/458/39 415/447/39
f 412/446/96 421/457/96 424/458/96
f 413/455/273 414/454/273 425/466/273
f 413/455/273 425/466/273 423/467/273
f 414/454/325 417/453/325 427/465/325
f 414/454/325 427/465/325 425/466/325
f 415/447/39 424/458/39 426/459/39
f 415/447/250 426/459/250 428/460/250
f 415/447/250 428/460/250 416/448/250
f 416/448/342 428/460/342 429/464/342
f 416/448/342 429/464/342 418/452/342
f 417/453/347 418/452/347 429/464/347
f 417/453/347 429/464/347 427/465/347
f 419/461/182 422/463/182 432/474/182
f 419/461/182 432/474/182 430/473/182
f 420/461/183 431/473/183 421/462/183
f 421/457/149 433/469/149 424/458/149
f 421/462/183 431/473/183 433/476/183
f 422/468/113 423/467/113 432/480/113
f 423/467/61 425/466/61 435/479/61
f 423/467/113 435/479/113 432/480/113
f 424/458/149 433/469/149 434/470/149
f 424/458/331 434/470/331 437/471/331
f 424/458/331 437/471/331 426/459/331
f 425/466/38 427/465/38 436/478/38
f 425/466/61 436/478/61 435/479/61
f 426/459/324 437/471/324 438/472/324
f 426/459/324 438/472/324 428/460/324
f 427/465/10 429/464/10 439/477/10
f 427/465/38 439/477/38 436/478/38
f 428/460/129 438/472/129 429/464/129
f 429/464/10 440/475/10 439/477/10
f 429/464/129 438/472/129 440/475/129
f 430/473/182 432/474/182 441/485/182
f 431/473/183 442/485/183 443/486/183
f 431/473/183 443/486/183 433/476/183
f 432/474/182 444/488/182 441/485/182
f 432/480/83 435/479/83 444/492/83
f 433/469/328 443/481/328 445/482/328
f 433/469/328 445/482/328 434/470/328
f 434/470/276 445/482/276 447/483/276
f 434/470/276 447/483/276 437/471/276
f 435/479/83 446/491/83 444/492/83
f 435/479/84 436/478/84 446/491/84
f 436/478/84 448/490/84 446/491/84
f 436/478/119 439/477/119 448/490/119
f 437/471/32 447/483/32 438/472/32
f 438/472/32 447/483/32 451/484/32
f 438/472/109 451/484/109 440/475/109
f 439/477/119 449/489/119 448/490/119
f 439/477/339 440/475/339 450/487/339
f 439/477/339 450/487/339 449/489/339
f 440/475/109 451/484/109 450/487/109
f 441/485/182 444/488/182 454/498/182
f 441/485/182 454/498/182 452/497/182
f 442/485/183 453/497/183 443/486/183
f 443/481/16 455/493/16 445/482/16
f 443/486/183 453/497/183 455/499/183
f 444/492/336 446/491/336 456/503/336
f 444/492/336 456/503/336 454/504/336
f 445/482/13 457/494/13 447/483/13
f 445/482/16 455/493/16 457/494/16
f 446/491/310 448/490/310 459/502/310
f 446/491/310 459/502/310 456/503/310
f 447/483/13 457/494/13 458/495/13
f 447/483/264 458/495/264 460/496/264
f 447/483/264 460/496/264 451/484/264
f 448/490/118 449/489/118 459/502/118
f 449/489/50 450/487/50 461/500/50
f 449/489/50 461/500/50 462/501/50
f 449/489/118 462/501/118 459/502/118
f 450/487/284 451/484/284 460/496/284
f 450/487/284 460/496/284 461/500/284
f 452/497/182 454/498/182 463/509/182
f 453/497/183 464/509/183 455/499/183
f 454/498/182 466/512/182 463/509/182
f 454/504/74 456/503/74 466/516/74
f 455/493/304 465/505/304 467/506/304
f 455/493/304 467/506/304 457/494/304
f 455/499/183 464/509/183 465/510/183
f 456/503/74 468/515/74 466/516/74
f 456/503/265 459/502/265 469/514/265
f 456/503/265 469/514/265 468/515/265
f 457/494/282 467/506/282 470/507/282
f 457/494/282 470/507/282 458/495/282
f 458/495/127 470/507/127 460/496/127
f 459/502/348 462/501/348 471/513/348
f 459/502/348 471/513/348 469/514/348
f 460/496/95 472/508/95 461/500/95
f 460/496/127 470/507/127 472/508/127
f 461/500/95 472/508/95 473/511/95
f 461/500/238 473/511/238 462/501/238
f 462/501/238 473/511/238 471/513/238
f 463/509/182 466/512/182 477/523/182
f 463/509/182 477/523/182 474/521/182
f 464/509/183 475/521/183 476/522/183
f 464/509/183 476/522/183 465/510/183
f 465/505/140 476/517/140 467/506/140
f 466/516/255 468/515/255 478/527/255
f 466/516/255 478/527/255 477/528/255
f 467/506/140 476/517/140 479/518/140
f 467/506/257 479/518/257 480/519/257
f 467/506/257 480/519/257 470/507/257
f 468/515/198 469/514/198 481/526/198
f 468/515/198 481/526/198 478/527/198
f 469/514/219 471/513/219 482/525/219
f 469/514/219 482/525/219 481/526/219
f 470/507/320 480/519/320 483/520/320
f 470/507/320 483/520/320 472/508/320
f 471/513/191 473/511/191 484/524/191
f 471/513/191 484/524/191 482/525/191
f 472/508/153 483/520/153 473/511/153
f 473/511/153 483/520/153 484/524/153
f 474/521/182 477/523/182 485/533/182
f 475/521/183 486/533/183 476/522/183
f 476/517/154 487/529/154 479/518/154
f 476/522/183 486/533/183 487/534/183
f 477/523/182 488/536/182 485/533/182
f 477/528/75 478/527/75 488/540/75
f 478/527/75 489/539/75 488/540/75
f 478/527/107 481/526/107 489/539/107
f 479/518/94 490/530/94 480/519/94
f 479/518/154 487/529/154 490/530/154
f 480/519/94 490/530/94 492/531/94
f 480/519/114 492/531/114 483/520/114
f 481/526/11 482/525/11 491/538/11
f 481/526/107 491/538/107 489/539/107
f 482/525/11 494/537/11 491/538/11
f 482/525/23 484/524/23 494/537/23
f 483/520/114 492/531/114 493/532/114
f 483/520/202 493/532/202 495/535/202
f 483/520/202 495/535/202 484/524/202
f 484/524/23 495/535/23 494/537/23
