# exported by ae3d_export.py v3
# object: Street_BlockR2_Pipes
mtllib Street_BlockR2_Pipes.mtl
v -6.305000 0.550000 -0.160000
v -6.305000 0.550000 0.000000
v -6.305000 0.630000 -0.160000
v -6.305000 0.630000 0.000000
v -6.305000 3.700000 -0.160000
v -6.305000 3.700000 0.000000
v -6.305000 3.780000 -0.160000
v -6.305000 3.780000 0.000000
v -6.305000 6.850000 -0.160000
v -6.305000 6.850000 0.000000
v -6.305000 6.930000 -0.160000
v -6.305000 6.930000 0.000000
v -6.305000 10.000000 -0.160000
v -6.305000 10.000000 0.000000
v -6.305000 10.080000 -0.160000
v -6.305000 10.080000 0.000000
v -6.305000 13.150000 -0.160000
v -6.305000 13.150000 0.000000
v -6.305000 13.230000 -0.160000
v -6.305000 13.230000 0.000000
v -6.275000 0.600000 -0.160000
v -6.275000 0.600000 -0.050000
v -6.275000 13.700000 -0.160000
v -6.275000 13.700000 -0.050000
v -6.165000 0.600000 -0.160000
v -6.165000 0.600000 -0.050000
v -6.165000 13.700000 -0.160000
v -6.165000 13.700000 -0.050000
v -6.135000 0.550000 -0.160000
v -6.135000 0.550000 0.000000
v -6.135000 0.630000 -0.160000
v -6.135000 0.630000 0.000000
v -6.135000 3.700000 -0.160000
v -6.135000 3.700000 0.000000
v -6.135000 3.780000 -0.160000
v -6.135000 3.780000 0.000000
v -6.135000 6.850000 -0.160000
v -6.135000 6.850000 0.000000
v -6.135000 6.930000 -0.160000
v -6.135000 6.930000 0.000000
v -6.135000 10.000000 -0.160000
v -6.135000 10.000000 0.000000
v -6.135000 10.080000 -0.160000
v -6.135000 10.080000 0.000000
v -6.135000 13.150000 -0.160000
v -6.135000 13.150000 0.000000
v -6.135000 13.230000 -0.160000
v -6.135000 13.230000 0.000000
v 6.135000 0.550000 -0.160000
v 6.135000 0.550000 0.000000
v 6.135000 0.630000 -0.160000
v 6.135000 0.630000 0.000000
v 6.135000 3.700000 -0.160000
v 6.135000 3.700000 0.000000
v 6.135000 3.780000 -0.160000
v 6.135000 3.780000 0.000000
v 6.135000 6.850000 -0.160000
v 6.135000 6.850000 0.000000
v 6.135000 6.930000 -0.160000
v 6.135000 6.930000 0.000000
v 6.135000 10.000000 -0.160000
v 6.135000 10.000000 0.000000
v 6.135000 10.080000 -0.160000
v 6.135000 10.080000 0.000000
v 6.135000 13.150000 -0.160000
v 6.135000 13.150000 0.000000
v 6.135000 13.230000 -0.160000
v 6.135000 13.230000 0.000000
v 6.165000 0.600000 -0.160000
v 6.165000 0.600000 -0.050000
v 6.165000 13.700000 -0.160000
v 6.165000 13.700000 -0.050000
v 6.275000 0.600000 -0.160000
v 6.275000 0.600000 -0.050000
v 6.275000 13.700000 -0.160000
v 6.275000 13.700000 -0.050000
v 6.305000 0.550000 -0.160000
v 6.305000 0.550000 0.000000
v 6.305000 0.630000 -0.160000
v 6.305000 0.630000 0.000000
v 6.305000 3.700000 -0.160000
v 6.305000 3.700000 0.000000
v 6.305000 3.780000 -0.160000
v 6.305000 3.780000 0.000000
v 6.305000 6.850000 -0.160000
v 6.305000 6.850000 0.000000
v 6.305000 6.930000 -0.160000
v 6.305000 6.930000 0.000000
v 6.305000 10.000000 -0.160000
v 6.305000 10.000000 0.000000
v 6.305000 10.080000 -0.160000
v 6.305000 10.080000 0.000000
v 6.305000 13.150000 -0.160000
v 6.305000 13.150000 0.000000
v 6.305000 13.230000 -0.160000
v 6.305000 13.230000 0.000000
vt -18.914999 0.000000
vt -18.914999 0.480000
vt -18.914999 1.650000
vt -18.914999 1.890000
vt -18.914999 11.100000
vt -18.914999 11.340000
vt -18.914999 20.549999
vt -18.914999 20.789999
vt -18.914999 30.000000
vt -18.914999 30.240000
vt -18.914999 39.449997
vt -18.914999 39.689999
vt -18.825001 0.150000
vt -18.825001 0.480000
vt -18.825001 1.800000
vt -18.825001 41.099998
vt -18.494999 0.150000
vt -18.494999 0.480000
vt -18.494999 1.800000
vt -18.494999 41.099998
vt -18.405001 0.000000
vt -18.405001 0.480000
vt -18.405001 1.650000
vt -18.405001 1.890000
vt -18.405001 11.100000
vt -18.405001 11.340000
vt -18.405001 20.549999
vt -18.405001 20.789999
vt -18.405001 30.000000
vt -18.405001 30.240000
vt -18.405001 39.449997
vt -18.405001 39.689999
vt 0.000000 1.650000
vt 0.000000 1.890000
vt 0.000000 11.100000
vt 0.000000 11.340000
vt 0.000000 20.549999
vt 0.000000 20.789999
vt 0.000000 30.000000
vt 0.000000 30.240000
vt 0.000000 39.449997
vt 0.000000 39.689999
vt 0.150000 1.800000
vt 0.150000 41.099998
vt 0.480000 1.650000
vt 0.480000 1.800000
vt 0.480000 1.890000
vt 0.480000 11.100000
vt 0.480000 11.340000
vt 0.480000 20.549999
vt 0.480000 20.789999
vt 0.480000 30.000000
vt 0.480000 30.240000
vt 0.480000 39.449997
vt 0.480000 39.689999
vt 0.480000 41.099998
vt 18.405001 0.000000
vt 18.405001 0.480000
vt 18.405001 1.650000
vt 18.405001 1.890000
vt 18.405001 11.100000
vt 18.405001 11.340000
vt 18.405001 20.549999
vt 18.405001 20.789999
vt 18.405001 30.000000
vt 18.405001 30.240000
vt 18.405001 39.449997
vt 18.405001 39.689999
vt 18.494999 0.150000
vt 18.494999 0.480000
vt 18.494999 1.800000
vt 18.494999 41.099998
vt 18.825001 0.150000
vt 18.825001 0.480000
vt 18.825001 1.800000
vt 18.825001 41.099998
vt 18.914999 0.000000
vt 18.914999 0.480000
vt 18.914999 1.650000
vt 18.914999 1.890000
vt 18.914999 11.100000
vt 18.914999 11.340000
vt 18.914999 20.549999
vt 18.914999 20.789999
vt 18.914999 30.000000
vt 18.914999 30.240000
vt 18.914999 39.449997
vt 18.914999 39.689999
vn -1.000000 0.000000 0.000000
vn 0.000000 -1.000000 0.000000
vn 0.000000 0.000000 -1.000000
vn 0.000000 0.000000 1.000000
vn 0.000000 1.000000 0.000000
vn 1.000000 0.000000 0.000000
usemtl PropPaint
f 1/2/2 29/22/2 2/1/2
f 1/3/3 3/4/3 31/24/3
f 1/3/3 31/24/3 29/23/3
f 1/45/1 2/33/1 3/47/1
f 2/1/2 29/22/2 30/21/2
f 2/3/4 30/23/4 32/24/4
f 2/3/4 32/24/4 4/4/4
f 2/33/1 4/34/1 3/47/1
f 3/2/5 4/1/5 31/22/5
f 4/1/5 32/21/5 31/22/5
f 5/2/2 33/22/2 6/1/2
f 5/5/3 7/6/3 35/26/3
f 5/5/3 35/26/3 33/25/3
f 5/48/1 6/35/1 7/49/1
f 6/1/2 33/22/2 34/21/2
f 6/5/4 34/25/4 36/26/4
f 6/5/4 36/26/4 8/6/4
f 6/35/1 8/36/1 7/49/1
f 7/2/5 8/1/5 35/22/5
f 8/1/5 36/21/5 35/22/5
f 9/2/2 37/22/2 10/1/2
f 9/7/3 11/8/3 39/28/3
f 9/7/3 39/28/3 37/27/3
f 9/50/1 10/37/1 11/51/1
f 10/1/2 37/22/2 38/21/2
f 10/7/4 38/27/4 40/28/4
f 10/7/4 40/28/4 12/8/4
f 10/37/1 12/38/1 11/51/1
f 11/2/5 12/1/5 39/22/5
f 12/1/5 40/21/5 39/22/5
f 13/2/2 41/22/2 14/1/2
f 13/9/3 15/10/3 43/30/3
f 13/9/3 43/30/3 41/29/3
f 13/52/1 14/39/1 15/53/1
f 14/1/2 41/22/2 42/21/2
f 14/9/4 42/29/4 44/30/4
f 14/9/4 44/30/4 16/10/4
f 14/39/1 16/40/1 15/53/1
f 15/2/5 16/1/5 43/22/5
f 16/1/5 44/21/5 43/22/5
f 17/2/2 45/22/2 18/1/2
f 17/11/3 19/12/3 47/32/3
f 17/11/3 47/32/3 45/31/3
f 17/54/1 18/41/1 19/55/1
f 18/1/2 45/22/2 46/21/2
f 18/11/4 46/31/4 48/32/4
f 18/11/4 48/32/4 20/12/4
f 18/41/1 20/42/1 19/55/1
f 19/2/5 20/1/5 47/22/5
f 20/1/5 48/21/5 47/22/5
f 21/14/2 25/18/2 22/13/2
f 21/15/3 23/16/3 27/20/3
f 21/15/3 27/20/3 25/19/3
f 21/46/1 22/43/1 23/56/1
f 22/13/2 25/18/2 26/17/2
f 22/15/4 26/19/4 28/20/4
f 22/15/4 28/20/4 24/16/4
f 22/43/1 24/44/1 23/56/1
f 23/14/5 24/13/5 27/18/5
f 24/13/5 28/17/5 27/18/5
f 25/46/6 27/56/6 26/43/6
f 26/43/6 27/56/6 28/44/6
f 29/45/6 31/47/6 30/33/6
f 30/33/6 31/47/6 32/34/6
f 33/48/6 35/49/6 34/35/6
f 34/35/6 35/49/6 36/36/6
f 37/50/6 39/51/6 38/37/6
f 38/37/6 39/51/6 40/38/6
f 41/52/6 43/53/6 42/39/6
f 42/39/6 43/53/6 44/40/6
f 45/54/6 47/55/6 46/41/6
f 46/41/6 47/55/6 48/42/6
f 49/45/1 50/33/1 51/47/1
f 49/58/2 77/78/2 50/57/2
f 49/59/3 51/60/3 79/80/3
f 49/59/3 79/80/3 77/79/3
f 50/33/1 52/34/1 51/47/1
f 50/57/2 77/78/2 78/77/2
f 50/59/4 78/79/4 80/80/4
f 50/59/4 80/80/4 52/60/4
f 51/58/5 52/57/5 79/78/5
f 52/57/5 80/77/5 79/78/5
f 53/48/1 54/35/1 55/49/1
f 53/58/2 81/78/2 54/57/2
f 53/61/3 55/62/3 83/82/3
f 53/61/3 83/82/3 81/81/3
f 54/35/1 56/36/1 55/49/1
f 54/57/2 81/78/2 82/77/2
f 54/61/4 82/81/4 84/82/4
f 54/61/4 84/82/4 56/62/4
f 55/58/5 56/57/5 83/78/5
f 56/57/5 84/77/5 83/78/5
f 57/50/1 58/37/1 59/51/1
f 57/58/2 85/78/2 58/57/2
f 57/63/3 59/64/3 87/84/3
f 57/63/3 87/84/3 85/83/3
f 58/37/1 60/38/1 59/51/1
f 58/57/2 85/78/2 86/77/2
f 58/63/4 86/83/4 88/84/4
f 58/63/4 88/84/4 60/64/4
f 59/58/5 60/57/5 87/78/5
f 60/57/5 88/77/5 87/78/5
f 61/52/1 62/39/1 63/53/1
f 61/58/2 89/78/2 62/57/2
f 61/65/3 63/66/3 91/86/3
f 61/65/3 91/86/3 89/85/3
f 62/39/1 64/40/1 63/53/1
f 62/57/2 89/78/2 90/77/2
f 62/65/4 90/85/4 92/86/4
f 62/65/4 92/86/4 64/66/4
f 63/58/5 64/57/5 91/78/5
f 64/57/5 92/77/5 91/78/5
f 65/54/1 66/41/1 67/55/1
f 65/58/2 93/78/2 66/57/2
f 65/67/3 67/68/3 95/88/3
f 65/67/3 95/88/3 93/87/3
f 66/41/1 68/42/1 67/55/1
f 66/57/2 93/78/2 94/77/2
f 66/67/4 94/87/4 96/88/4
f 66/67/4 96/88/4 68/68/4
f 67/58/5 68/57/5 95/78/5
f 68/57/5 96/77/5 95/78/5
f 69/46/1 70/43/1 71/56/1
f 69/70/2 73/74/2 70/69/2
f 69/71/3 71/72/3 75/76/3
f 69/71/3 75/76/3 73/75/3
f 70/43/1 72/44/1 71/56/1
f 70/69/2 73/74/2 74/73/2
f 70/71/4 74/75/4 76/76/4
f 70/71/4 76/76/4 72/72/4
f 71/70/5 72/69/5 75/74/5
f 72/69/5 76/73/5 75/74/5
f 73/46/6 75/56/6 74/43/6
f 74/43/6 75/56/6 76/44/6
f 77/45/6 79/47/6 78/33/6
f 78/33/6 79/47/6 80/34/6
f 81/48/6 83/49/6 82/35/6
f 82/35/6 83/49/6 84/36/6
f 85/50/6 87/51/6 86/37/6
f 86/37/6 87/51/6 88/38/6
f 89/52/6 91/53/6 90/39/6
f 90/39/6 91/53/6 92/40/6
f 93/54/6 95/55/6 94/41/6
f 94/41/6 95/55/6 96/42/6
