# exported by ae3d_export.py v3
# object: Street_BlockL3_AerialBar0
mtllib Street_BlockL3_AerialBar0.mtl
v -0.550000 -0.015000 -0.015000
v -0.550000 -0.015000 0.015000
v -0.550000 0.015000 -0.015000
v -0.550000 0.015000 0.015000
v 0.550000 -0.015000 -0.015000
v 0.550000 -0.015000 0.015000
v 0.550000 0.015000 -0.015000
v 0.550000 0.015000 0.015000
vt -0.660000 -0.018000
vt -0.660000 0.018000
vt -0.018000 -0.018000
vt -0.018000 0.018000
vt 0.018000 -0.018000
vt 0.018000 0.018000
vt 0.660000 -0.018000
vt 0.660000 0.018000
vn -1.000000 0.000000 0.000000
vn 0.000000 -1.000000 0.000000
vn 0.000000 0.000000 -1.000000
vn 0.000000 0.000000 1.000000
vn 0.000000 1.000000 0.000000
vn 1.000000 0.000000 0.000000
usemtl LampMetal
f 1/1/3 3/2/3 5/7/3
f 1/2/2 5/8/2 2/1/2
f 1/5/1 2/3/1 4/4/1
f 1/5/1 4/4/1 3/6/1
f 2/1/2 5/8/2 6/7/2
f 2/1/4 6/7/4 8/8/4
f 2/1/4 8/8/4 4/2/4
f 3/2/3 7/8/3 5/7/3
f 3/2/5 4/1/5 7/8/5
f 4/1/5 8/7/5 7/8/5
f 5/5/6 7/6/6 6/3/6
f 6/3/6 7/6/6 8/4/6
