# exported by ae3d_export.py v3
# object: Street_BlockL0_Tank
mtllib Street_BlockL0_Tank.mtl
v -1.050000 0.060000 -0.990000
v -1.050000 0.060000 0.990000
v -1.050000 1.640000 -0.990000
v -1.050000 1.640000 0.990000
v -1.032426 0.017574 -0.990000
v -1.032426 0.017574 0.990000
v -1.032426 0.060000 -1.032426
v -1.032426 0.060000 1.032426
v -1.032426 1.640000 -1.032426
v -1.032426 1.640000 1.032426
v -1.032426 1.682427 -0.990000
v -1.032426 1.682427 0.990000
v -1.024641 0.025359 -1.024641
v -1.024641 0.025359 1.024641
v -1.024641 1.674641 -1.024641
v -1.024641 1.674641 1.024641
v -0.990000 0.000000 -0.990000
v -0.990000 0.000000 0.990000
v -0.990000 0.017574 -1.032426
v -0.990000 0.017574 1.032426
v -0.990000 0.060000 -1.050000
v -0.990000 0.060000 1.050000
v -0.990000 1.640000 -1.050000
v -0.990000 1.640000 1.050000
v -0.990000 1.682427 -1.032426
v -0.990000 1.682427 1.032426
v -0.990000 1.700000 -0.990000
v -0.990000 1.700000 0.990000
v 0.990000 0.000000 -0.990000
v 0.990000 0.000000 0.990000
v 0.990000 0.017574 -1.032426
v 0.990000 0.017574 1.032426
v 0.990000 0.060000 -1.050000
v 0.990000 0.060000 1.050000
v 0.990000 1.640000 -1.050000
v 0.990000 1.640000 1.050000
v 0.990000 1.682427 -1.032426
v 0.990000 1.682427 1.032426
v 0.990000 1.700000 -0.990000
v 0.990000 1.700000 0.990000
v 1.024641 0.025359 -1.024641
v 1.024641 0.025359 1.024641
v 1.024641 1.674641 -1.024641
v 1.024641 1.674641 1.024641
v 1.032426 0.017574 -0.990000
v 1.032426 0.017574 0.990000
v 1.032426 0.060000 -1.032426
v 1.032426 0.060000 1.032426
v 1.032426 1.640000 -1.032426
v 1.032426 1.640000 1.032426
v 1.032426 1.682427 -0.990000
v 1.032426 1.682427 0.990000
v 1.050000 0.060000 -0.990000
v 1.050000 0.060000 0.990000
v 1.050000 1.640000 -0.990000
v 1.050000 1.640000 0.990000
vt -1.651882 -1.584000
vt -1.651882 0.096000
vt -1.651882 1.584000
vt -1.651882 2.624000
vt -1.639426 -1.639426
vt -1.639426 0.040574
vt -1.639426 1.639426
vt -1.639426 2.679426
vt -1.584000 -1.651882
vt -1.584000 -1.584000
vt -1.584000 0.028118
vt -1.584000 0.096000
vt -1.584000 1.584000
vt -1.584000 1.651882
vt -1.584000 2.624000
vt -1.584000 2.691883
vt 1.584000 -1.651882
vt 1.584000 -1.584000
vt 1.584000 0.028118
vt 1.584000 0.096000
vt 1.584000 1.584000
vt 1.584000 1.651882
vt 1.584000 2.624000
vt 1.584000 2.691883
vt 1.639426 -1.639426
vt 1.639426 0.040574
vt 1.639426 1.639426
vt 1.639426 2.679426
vt 1.651882 -1.584000
vt 1.651882 0.096000
vt 1.651882 1.584000
vt 1.651882 2.624000
vn -1.000000 0.000000 0.000000
vn -0.923881 0.000000 -0.382680
vn -0.923881 0.000000 0.382679
vn -0.923881 0.382681 0.000000
vn -0.923880 -0.382681 0.000000
vn -0.888074 0.325055 0.325059
vn -0.888074 0.325057 -0.325059
vn -0.888073 -0.325056 -0.325061
vn -0.888073 -0.325056 0.325060
vn -0.382683 -0.923880 0.000000
vn -0.382681 0.000000 -0.923881
vn -0.382681 0.923881 0.000000
vn -0.382680 0.000000 0.923881
vn -0.325060 0.888074 -0.325055
vn -0.325059 0.325058 -0.888073
vn -0.325058 -0.888074 -0.325057
vn -0.325058 -0.888074 0.325057
vn -0.325058 0.325060 0.888073
vn -0.325057 -0.325061 -0.888073
vn -0.325057 -0.325061 0.888073
vn -0.325057 0.888075 0.325055
vn 0.000000 -1.000000 0.000000
vn 0.000000 -0.923880 -0.382682
vn 0.000000 -0.923880 0.382683
vn 0.000000 -0.382682 0.923880
vn 0.000000 -0.382679 -0.923881
vn 0.000000 0.000000 -1.000000
vn 0.000000 0.000000 1.000000
vn 0.000000 0.382679 0.923881
vn 0.000000 0.382681 -0.923880
vn 0.000000 0.923881 -0.382681
vn 0.000000 0.923881 0.382680
vn 0.000000 1.000000 0.000000
vn 0.325056 -0.325061 0.888073
vn 0.325057 -0.325061 -0.888073
vn 0.325057 0.888075 -0.325055
vn 0.325057 0.888075 0.325055
vn 0.325058 -0.888074 -0.325057
vn 0.325058 -0.888073 0.325060
vn 0.325058 0.325060 -0.888073
vn 0.325058 0.325061 0.888073
vn 0.382678 0.923882 0.000000
vn 0.382680 0.000000 -0.923881
vn 0.382681 0.000000 0.923881
vn 0.382683 -0.923880 0.000000
vn 0.888073 -0.325056 -0.325060
vn 0.888074 -0.325058 0.325056
vn 0.888074 0.325055 -0.325059
vn 0.888074 0.325055 0.325059
vn 0.923880 -0.382682 0.000000
vn 0.923880 0.000000 0.382682
vn 0.923881 0.000000 -0.382679
vn 0.923881 0.382680 0.000000
vn 1.000000 0.000000 0.000000
usemtl PropPaint
f 1/20/1 2/12/1 4/15/1
f 1/20/1 4/15/1 3/23/1
f 1/20/2 3/23/2 7/30/2
f 1/20/5 5/19/5 2/12/5
f 1/20/8 7/30/8 13/26/8
f 1/20/8 13/26/8 5/19/8
f 2/12/3 8/2/3 4/15/3
f 2/12/5 5/19/5 6/11/5
f 2/12/9 6/11/9 14/6/9
f 2/12/9 14/6/9 8/2/9
f 3/23/2 9/32/2 7/30/2
f 3/23/4 4/15/4 11/24/4
f 3/23/7 11/24/7 15/28/7
f 3/23/7 15/28/7 9/32/7
f 4/15/3 8/2/3 10/4/3
f 4/15/4 12/16/4 11/24/4
f 4/15/6 10/4/6 16/8/6
f 4/15/6 16/8/6 12/16/6
f 5/3/10 17/13/10 6/1/10
f 5/3/16 13/7/16 17/13/16
f 6/1/10 17/13/10 18/10/10
f 6/1/17 18/10/17 14/5/17
f 7/2/11 9/4/11 23/15/11
f 7/2/11 23/15/11 21/12/11
f 7/2/19 21/12/19 13/6/19
f 8/2/13 22/12/13 24/15/13
f 8/2/13 24/15/13 10/4/13
f 8/2/20 14/6/20 22/12/20
f 9/4/15 15/8/15 23/15/15
f 10/4/18 24/15/18 16/8/18
f 11/3/12 12/1/12 28/10/12
f 11/3/12 28/10/12 27/13/12
f 11/3/14 27/13/14 15/7/14
f 12/1/21 16/5/21 28/10/21
f 13/6/19 21/12/19 19/11/19
f 13/7/16 19/14/16 17/13/16
f 14/5/17 18/10/17 20/9/17
f 14/6/20 20/11/20 22/12/20
f 15/7/14 27/13/14 25/14/14
f 15/8/15 25/16/15 23/15/15
f 16/5/21 26/9/21 28/10/21
f 16/8/18 24/15/18 26/16/18
f 17/13/22 29/21/22 18/10/22
f 17/13/23 19/14/23 29/21/23
f 18/10/22 29/21/22 30/18/22
f 18/10/24 30/18/24 32/17/24
f 18/10/24 32/17/24 20/9/24
f 19/11/26 21/12/26 31/19/26
f 19/14/23 31/22/23 29/21/23
f 20/11/25 32/19/25 22/12/25
f 21/12/26 33/20/26 31/19/26
f 21/12/27 23/15/27 33/20/27
f 22/12/25 32/19/25 34/20/25
f 22/12/28 34/20/28 36/23/28
f 22/12/28 36/23/28 24/15/28
f 23/15/27 35/23/27 33/20/27
f 23/15/30 25/16/30 37/24/30
f 23/15/30 37/24/30 35/23/30
f 24/15/29 36/23/29 38/24/29
f 24/15/29 38/24/29 26/16/29
f 25/14/31 27/13/31 39/21/31
f 25/14/31 39/21/31 37/22/31
f 26/9/32 38/17/32 40/18/32
f 26/9/32 40/18/32 28/10/32
f 27/13/33 28/10/33 39/21/33
f 28/10/33 40/18/33 39/21/33
f 29/21/38 31/22/38 41/27/38
f 29/21/38 41/27/38 45/31/38
f 29/21/45 45/31/45 46/29/45
f 29/21/45 46/29/45 30/18/45
f 30/18/39 42/25/39 32/17/39
f 30/18/39 46/29/39 42/25/39
f 31/19/35 33/20/35 41/26/35
f 32/19/34 42/26/34 34/20/34
f 33/20/35 47/30/35 41/26/35
f 33/20/43 35/23/43 47/30/43
f 34/20/34 42/26/34 48/30/34
f 34/20/44 48/30/44 36/23/44
f 35/23/40 37/24/40 43/28/40
f 35/23/40 43/28/40 49/32/40
f 35/23/43 49/32/43 47/30/43
f 36/23/41 44/28/41 38/24/41
f 36/23/41 50/32/41 44/28/41
f 36/23/44 48/30/44 50/32/44
f 37/22/36 39/21/36 43/27/36
f 38/17/37 44/25/37 40/18/37
f 39/21/36 51/31/36 43/27/36
f 39/21/42 40/18/42 52/29/42
f 39/21/42 52/29/42 51/31/42
f 40/18/37 44/25/37 52/29/37
f 41/26/46 47/30/46 53/20/46
f 41/26/46 53/20/46 45/19/46
f 42/6/47 46/11/47 54/12/47
f 42/6/47 54/12/47 48/2/47
f 43/28/48 51/24/48 55/23/48
f 43/28/48 55/23/48 49/32/48
f 44/8/49 50/4/49 56/15/49
f 44/8/49 56/15/49 52/16/49
f 45/19/50 53/20/50 54/12/50
f 45/19/50 54/12/50 46/11/50
f 47/30/52 49/32/52 55/23/52
f 47/30/52 55/23/52 53/20/52
f 48/2/51 54/12/51 56/15/51
f 48/2/51 56/15/51 50/4/51
f 51/24/53 52/16/53 56/15/53
f 51/24/53 56/15/53 55/23/53
f 53/20/54 55/23/54 54/12/54
f 54/12/54 55/23/54 56/15/54
