# exported by ae3d_export.py v2
# object: Street_LampArm1
mtllib Street_LampArm1.mtl
v -0.060000 -0.040000 0.020000
v -0.060000 -0.040000 1.130000
v -0.060000 0.040000 0.020000
v -0.060000 0.040000 1.130000
v -0.054142 -0.054142 0.020000
v -0.054142 -0.054142 1.130000
v -0.054142 -0.040000 0.005858
v -0.054142 -0.040000 1.144142
v -0.054142 0.040000 0.005858
v -0.054142 0.040000 1.144142
v -0.054142 0.054142 0.020000
v -0.054142 0.054142 1.130000
v -0.051547 -0.051547 0.008453
v -0.051547 -0.051547 1.141547
v -0.051547 0.051547 0.008453
v -0.051547 0.051547 1.141547
v -0.040000 -0.060000 0.020000
v -0.040000 -0.060000 1.130000
v -0.040000 -0.054142 0.005858
v -0.040000 -0.054142 1.144142
v -0.040000 -0.040000 0.000000
v -0.040000 -0.040000 1.150000
v -0.040000 0.040000 0.000000
v -0.040000 0.040000 1.150000
v -0.040000 0.054142 0.005858
v -0.040000 0.054142 1.144142
v -0.040000 0.060000 0.020000
v -0.040000 0.060000 1.130000
v 0.040000 -0.060000 0.020000
v 0.040000 -0.060000 1.130000
v 0.040000 -0.054142 0.005858
v 0.040000 -0.054142 1.144142
v 0.040000 -0.040000 0.000000
v 0.040000 -0.040000 1.150000
v 0.040000 0.040000 0.000000
v 0.040000 0.040000 1.150000
v 0.040000 0.054142 0.005858
v 0.040000 0.054142 1.144142
v 0.040000 0.060000 0.020000
v 0.040000 0.060000 1.130000
v 0.051547 -0.051547 0.008453
v 0.051547 -0.051547 1.141547
v 0.051547 0.051547 0.008453
v 0.051547 0.051547 1.141547
v 0.054142 -0.054142 0.020000
v 0.054142 -0.054142 1.130000
v 0.054142 -0.040000 0.005858
v 0.054142 -0.040000 1.144142
v 0.054142 0.040000 0.005858
v 0.054142 0.040000 1.144142
v 0.054142 0.054142 0.020000
v 0.054142 0.054142 1.130000
v 0.060000 -0.040000 0.020000
v 0.060000 -0.040000 1.130000
v 0.060000 0.040000 0.020000
v 0.060000 0.040000 1.130000
vt -1.372970 -0.048000
vt -1.372970 0.048000
vt -1.369856 -0.061856
vt -1.369856 0.061856
vt -1.356000 -0.064971
vt -1.356000 -0.048000
vt -1.356000 0.048000
vt -1.356000 0.064971
vt -0.064971 -1.356000
vt -0.064971 -0.048000
vt -0.064971 -0.024000
vt -0.064971 0.048000
vt -0.061856 -1.369856
vt -0.061856 -0.061856
vt -0.061856 -0.010144
vt -0.061856 0.061856
vt -0.048000 -1.372970
vt -0.048000 -1.356000
vt -0.048000 -0.064971
vt -0.048000 -0.048000
vt -0.048000 -0.024000
vt -0.048000 -0.007029
vt -0.048000 0.048000
vt -0.048000 0.064971
vt -0.024000 -0.064971
vt -0.024000 -0.048000
vt -0.024000 0.048000
vt -0.024000 0.064971
vt -0.010144 -0.061856
vt -0.010144 0.061856
vt -0.007029 -0.048000
vt -0.007029 0.048000
vt 0.048000 -1.372970
vt 0.048000 -1.356000
vt 0.048000 -0.064971
vt 0.048000 -0.048000
vt 0.048000 -0.024000
vt 0.048000 -0.007029
vt 0.048000 0.048000
vt 0.048000 0.064971
vt 0.061856 -1.369856
vt 0.061856 -0.061856
vt 0.061856 -0.010144
vt 0.061856 0.061856
vt 0.064971 -1.356000
vt 0.064971 -0.048000
vt 0.064971 -0.024000
vt 0.064971 0.048000
vn -1.000000 0.000000 0.000000
vn -0.923880 0.000000 -0.382684
vn -0.923879 -0.382684 0.000000
vn -0.923879 0.382684 0.000000
vn -0.923878 0.000000 0.382686
vn -0.888074 -0.325058 -0.325058
vn -0.888074 0.325058 -0.325058
vn -0.888073 -0.325058 0.325059
vn -0.888073 0.325058 0.325059
vn -0.382688 0.000000 0.923878
vn -0.382684 -0.923879 0.000000
vn -0.382684 0.923879 0.000000
vn -0.382683 0.000000 -0.923880
vn -0.325061 -0.325064 0.888070
vn -0.325061 0.325064 0.888070
vn -0.325060 -0.888072 0.325060
vn -0.325060 0.888072 0.325059
vn -0.325058 -0.888074 -0.325058
vn -0.325058 -0.325058 -0.888074
vn -0.325058 0.325058 -0.888074
vn -0.325058 0.888074 -0.325058
vn 0.000000 -1.000000 0.000000
vn 0.000000 -0.923880 -0.382683
vn 0.000000 -0.923879 0.382686
vn 0.000000 -0.382687 0.923878
vn 0.000000 -0.382683 -0.923880
vn 0.000000 0.000000 -1.000000
vn 0.000000 0.000000 1.000000
vn 0.000000 0.382683 -0.923880
vn 0.000000 0.382687 0.923878
vn 0.000000 0.923879 0.382685
vn 0.000000 0.923880 -0.382684
vn 0.000000 1.000000 0.000000
vn 0.325057 -0.888074 0.325057
vn 0.325058 -0.888074 -0.325058
vn 0.325058 -0.325058 -0.888074
vn 0.325058 0.325058 -0.888074
vn 0.325058 0.888074 -0.325058
vn 0.325060 0.888072 0.325060
vn 0.325061 -0.325064 0.888070
vn 0.325061 0.325064 0.888070
vn 0.382683 0.000000 -0.923880
vn 0.382684 -0.923879 0.000000
vn 0.382684 0.923879 0.000000
vn 0.382688 0.000000 0.923878
vn 0.888073 -0.325059 0.325059
vn 0.888073 0.325058 0.325059
vn 0.888074 -0.325058 -0.325058
vn 0.888074 0.325058 -0.325058
vn 0.923878 0.000000 0.382686
vn 0.923879 0.382684 0.000000
vn 0.923880 -0.382683 0.000000
vn 0.923880 0.000000 -0.382684
vn 1.000000 0.000000 0.000000
usemtl LampMetal
f 1/26/1 2/6/1 4/7/1
f 1/26/1 4/7/1 3/27/1
f 1/26/2 3/27/2 9/32/2
f 1/26/2 9/32/2 7/31/2
f 1/26/3 5/25/3 6/5/3
f 1/26/3 6/5/3 2/6/3
f 1/26/6 7/31/6 13/29/6
f 1/26/6 13/29/6 5/25/6
f 2/6/5 8/1/5 4/7/5
f 2/6/8 6/5/8 14/3/8
f 2/6/8 14/3/8 8/1/8
f 3/27/4 4/7/4 12/8/4
f 3/27/4 12/8/4 11/28/4
f 3/27/7 11/28/7 15/30/7
f 3/27/7 15/30/7 9/32/7
f 4/7/5 8/1/5 10/2/5
f 4/7/9 10/2/9 16/4/9
f 4/7/9 16/4/9 12/8/9
f 5/11/11 17/21/11 6/9/11
f 5/11/18 13/15/18 17/21/18
f 6/9/11 17/21/11 18/18/11
f 6/9/16 18/18/16 14/13/16
f 7/10/13 9/12/13 21/20/13
f 7/10/19 21/20/19 13/14/19
f 8/10/10 22/20/10 10/12/10
f 8/10/14 14/14/14 22/20/14
f 9/12/13 23/23/13 21/20/13
f 9/12/20 15/16/20 23/23/20
f 10/12/10 22/20/10 24/23/10
f 10/12/15 24/23/15 16/16/15
f 11/11/12 12/9/12 27/21/12
f 11/11/21 27/21/21 15/15/21
f 12/9/12 28/18/12 27/21/12
f 12/9/17 16/13/17 28/18/17
f 13/14/19 21/20/19 19/19/19
f 13/15/18 19/22/18 17/21/18
f 14/13/16 18/18/16 20/17/16
f 14/14/14 20/19/14 22/20/14
f 15/15/21 27/21/21 25/22/21
f 15/16/20 25/24/20 23/23/20
f 16/13/17 26/17/17 28/18/17
f 16/16/15 24/23/15 26/24/15
f 17/21/22 29/37/22 18/18/22
f 17/21/23 19/22/23 29/37/23
f 18/18/22 29/37/22 30/34/22
f 18/18/24 30/34/24 20/17/24
f 19/19/26 21/20/26 31/35/26
f 19/22/23 31/38/23 29/37/23
f 20/17/24 30/34/24 32/33/24
f 20/19/25 32/35/25 34/36/25
f 20/19/25 34/36/25 22/20/25
f 21/20/26 33/36/26 31/35/26
f 21/20/27 23/23/27 33/36/27
f 22/20/28 34/36/28 36/39/28
f 22/20/28 36/39/28 24/23/28
f 23/23/27 35/39/27 33/36/27
f 23/23/29 25/24/29 35/39/29
f 24/23/30 36/39/30 38/40/30
f 24/23/30 38/40/30 26/24/30
f 25/22/32 27/21/32 37/38/32
f 25/24/29 37/40/29 35/39/29
f 26/17/31 38/33/31 40/34/31
f 26/17/31 40/34/31 28/18/31
f 27/21/32 39/37/32 37/38/32
f 27/21/33 28/18/33 39/37/33
f 28/18/33 40/34/33 39/37/33
f 29/37/35 31/38/35 41/43/35
f 29/37/35 41/43/35 45/47/35
f 29/37/43 45/47/43 46/45/43
f 29/37/43 46/45/43 30/34/43
f 30/34/34 42/41/34 32/33/34
f 30/34/34 46/45/34 42/41/34
f 31/35/36 33/36/36 41/42/36
f 32/35/40 42/42/40 34/36/40
f 33/36/36 47/46/36 41/42/36
f 33/36/42 35/39/42 49/48/42
f 33/36/42 49/48/42 47/46/42
f 34/36/40 42/42/40 48/46/40
f 34/36/45 48/46/45 36/39/45
f 35/39/37 37/40/37 43/44/37
f 35/39/37 43/44/37 49/48/37
f 36/39/41 44/44/41 38/40/41
f 36/39/41 50/48/41 44/44/41
f 36/39/45 48/46/45 50/48/45
f 37/38/38 39/37/38 43/43/38
f 38/33/39 44/41/39 40/34/39
f 39/37/38 51/47/38 43/43/38
f 39/37/44 40/34/44 52/45/44
f 39/37/44 52/45/44 51/47/44
f 40/34/39 44/41/39 52/45/39
f 41/29/48 47/31/48 53/26/48
f 41/29/48 53/26/48 45/25/48
f 42/3/46 46/5/46 54/6/46
f 42/3/46 54/6/46 48/1/46
f 43/30/49 51/28/49 55/27/49
f 43/30/49 55/27/49 49/32/49
f 44/4/47 50/2/47 56/7/47
f 44/4/47 56/7/47 52/8/47
f 45/25/52 53/26/52 46/5/52
f 46/5/52 53/26/52 54/6/52
f 47/31/53 49/32/53 55/27/53
f 47/31/53 55/27/53 53/26/53
f 48/1/50 54/6/50 56/7/50
f 48/1/50 56/7/50 50/2/50
f 51/28/51 52/8/51 55/27/51
f 52/8/51 56/7/51 55/27/51
f 53/26/54 55/27/54 54/6/54
f 54/6/54 55/27/54 56/7/54
