# exported by ae3d_export.py v2
# object: Zombie_FootL
mtllib Zombie_FootL.mtl
v -0.075000 -0.065000 -0.047000
v -0.075000 -0.065000 0.047000
v -0.075000 0.010000 -0.047000
v -0.075000 0.010000 0.047000
v -0.067678 -0.082678 -0.047000
v -0.067678 -0.082678 0.047000
v -0.067678 -0.065000 -0.064678
v -0.067678 -0.065000 0.064678
v -0.067678 0.010000 -0.064678
v -0.067678 0.010000 0.064678
v -0.067678 0.027678 -0.047000
v -0.067678 0.027678 0.047000
v -0.064434 -0.079434 -0.061434
v -0.064434 -0.079434 0.061434
v -0.064434 0.024434 -0.061434
v -0.064434 0.024434 0.061434
v -0.050000 -0.090000 -0.047000
v -0.050000 -0.090000 0.047000
v -0.050000 -0.082678 -0.064678
v -0.050000 -0.082678 0.064678
v -0.050000 -0.065000 -0.072000
v -0.050000 -0.065000 0.072000
v -0.050000 0.010000 -0.072000
v -0.050000 0.010000 0.072000
v -0.050000 0.027678 -0.064678
v -0.050000 0.027678 0.064678
v -0.050000 0.035000 -0.047000
v -0.050000 0.035000 0.047000
v 0.160000 -0.090000 -0.047000
v 0.160000 -0.090000 0.047000
v 0.160000 -0.082678 -0.064678
v 0.160000 -0.082678 0.064678
v 0.160000 -0.065000 -0.072000
v 0.160000 -0.065000 0.072000
v 0.160000 0.010000 -0.072000
v 0.160000 0.010000 0.072000
v 0.160000 0.027678 -0.064678
v 0.160000 0.027678 0.064678
v 0.160000 0.035000 -0.047000
v 0.160000 0.035000 0.047000
v 0.174434 -0.079434 -0.061434
v 0.174434 -0.079434 0.061434
v 0.174434 0.024434 -0.061434
v 0.174434 0.024434 0.061434
v 0.177678 -0.082678 -0.047000
v 0.177678 -0.082678 0.047000
v 0.177678 -0.065000 -0.064678
v 0.177678 -0.065000 0.064678
v 0.177678 0.010000 -0.064678
v 0.177678 0.010000 0.064678
v 0.177678 0.027678 -0.047000
v 0.177678 0.027678 0.047000
v 0.185000 -0.065000 -0.047000
v 0.185000 -0.065000 0.047000
v 0.185000 0.010000 -0.047000
v 0.185000 0.010000 0.047000
vt -0.270711 -0.260000
vt -0.270711 -0.188000
vt -0.270711 0.040000
vt -0.270711 0.188000
vt -0.258711 -0.260000
vt -0.258711 0.040000
vt -0.257735 -0.317735
vt -0.257735 -0.245735
vt -0.257735 0.097735
vt -0.257735 0.245735
vt -0.245735 -0.317735
vt -0.245735 0.097735
vt -0.200000 -0.330711
vt -0.200000 -0.260000
vt -0.200000 -0.258711
vt -0.200000 -0.188000
vt -0.200000 0.040000
vt -0.200000 0.110711
vt -0.200000 0.188000
vt -0.200000 0.258711
vt -0.188000 -0.330711
vt -0.188000 -0.260000
vt -0.188000 0.040000
vt -0.188000 0.110711
vt 0.188000 -0.330711
vt 0.188000 -0.260000
vt 0.188000 0.040000
vt 0.188000 0.110711
vt 0.245735 -0.317735
vt 0.245735 0.097735
vt 0.258711 -0.260000
vt 0.258711 0.040000
vt 0.640000 -0.330711
vt 0.640000 -0.260000
vt 0.640000 -0.258711
vt 0.640000 -0.188000
vt 0.640000 0.040000
vt 0.640000 0.110711
vt 0.640000 0.188000
vt 0.640000 0.258711
vt 0.697735 -0.317735
vt 0.697735 -0.245735
vt 0.697735 0.097735
vt 0.697735 0.245735
vt 0.710711 -0.260000
vt 0.710711 -0.188000
vt 0.710711 0.040000
vt 0.710711 0.188000
vn -1.000000 0.000000 0.000000
vn -0.923880 -0.382683 0.000000
vn -0.923880 0.000000 -0.382683
vn -0.923880 0.000000 0.382683
vn -0.923880 0.382683 0.000000
vn -0.888074 -0.325058 -0.325058
vn -0.888074 -0.325058 0.325058
vn -0.888074 0.325057 -0.325058
vn -0.888074 0.325058 0.325058
vn -0.382683 -0.923880 0.000000
vn -0.382683 0.000000 -0.923880
vn -0.382683 0.000000 0.923880
vn -0.382683 0.923880 0.000000
vn -0.325058 -0.888074 -0.325058
vn -0.325058 -0.888074 0.325058
vn -0.325058 -0.325058 -0.888074
vn -0.325058 -0.325058 0.888074
vn -0.325058 0.325058 -0.888074
vn -0.325058 0.325058 0.888074
vn -0.325058 0.888074 -0.325058
vn -0.325058 0.888074 0.325057
vn 0.000000 -1.000000 0.000000
vn 0.000000 -0.923880 -0.382683
vn 0.000000 -0.923880 0.382683
vn 0.000000 -0.382683 -0.923880
vn 0.000000 -0.382683 0.923880
vn 0.000000 0.000000 -1.000000
vn 0.000000 0.000000 1.000000
vn 0.000000 0.382683 -0.923880
vn 0.000000 0.382683 0.923880
vn 0.000000 0.923880 -0.382683
vn 0.000000 0.923880 0.382683
vn 0.000000 1.000000 0.000000
vn 0.325057 -0.888074 0.325058
vn 0.325057 -0.325058 0.888074
vn 0.325057 0.325058 -0.888074
vn 0.325058 -0.888074 -0.325058
vn 0.325058 -0.325058 -0.888074
vn 0.325058 0.325058 0.888074
vn 0.325058 0.888074 -0.325057
vn 0.325058 0.888074 0.325057
vn 0.382683 -0.923880 0.000000
vn 0.382683 0.000000 -0.923880
vn 0.382683 0.000000 0.923880
vn 0.382683 0.923880 0.000000
vn 0.888073 0.325058 0.325059
vn 0.888074 -0.325058 -0.325058
vn 0.888074 -0.325058 0.325058
vn 0.888074 0.325058 -0.325058
vn 0.923880 -0.382683 0.000000
vn 0.923880 0.000000 -0.382683
vn 0.923880 0.000000 0.382683
vn 0.923880 0.382683 0.000000
vn 1.000000 0.000000 0.000000
usemtl ZombieCloth
f 1/26/1 2/22/1 4/23/1
f 1/26/1 4/23/1 3/27/1
f 1/26/2 5/25/2 2/22/2
f 1/26/3 3/27/3 9/32/3
f 1/26/3 9/32/3 7/31/3
f 1/26/6 7/31/6 13/29/6
f 1/26/6 13/29/6 5/25/6
f 2/22/2 5/25/2 6/21/2
f 2/22/4 8/5/4 4/23/4
f 2/22/7 6/21/7 14/11/7
f 2/22/7 14/11/7 8/5/7
f 3/27/5 4/23/5 12/24/5
f 3/27/5 12/24/5 11/28/5
f 3/27/8 11/28/8 15/30/8
f 3/27/8 15/30/8 9/32/8
f 4/23/4 8/5/4 10/6/4
f 4/23/9 10/6/9 16/12/9
f 4/23/9 16/12/9 12/24/9
f 5/4/10 17/19/10 6/2/10
f 5/4/14 13/10/14 17/19/14
f 6/2/10 17/19/10 18/16/10
f 6/2/15 18/16/15 14/8/15
f 7/1/11 9/3/11 23/17/11
f 7/1/11 23/17/11 21/14/11
f 7/1/16 21/14/16 13/7/16
f 8/1/12 22/14/12 10/3/12
f 8/1/17 14/7/17 22/14/17
f 9/3/18 15/9/18 23/17/18
f 10/3/12 22/14/12 24/17/12
f 10/3/19 24/17/19 16/9/19
f 11/4/13 12/2/13 28/16/13
f 11/4/13 28/16/13 27/19/13
f 11/4/20 27/19/20 15/10/20
f 12/2/21 16/8/21 28/16/21
f 13/7/16 21/14/16 19/13/16
f 13/10/14 19/20/14 17/19/14
f 14/7/17 20/13/17 22/14/17
f 14/8/15 18/16/15 20/15/15
f 15/9/18 25/18/18 23/17/18
f 15/10/20 27/19/20 25/20/20
f 16/8/21 26/15/21 28/16/21
f 16/9/19 24/17/19 26/18/19
f 17/19/22 29/39/22 18/16/22
f 17/19/23 19/20/23 29/39/23
f 18/16/22 29/39/22 30/36/22
f 18/16/24 30/36/24 20/15/24
f 19/13/25 21/14/25 31/33/25
f 19/20/23 31/40/23 29/39/23
f 20/13/26 32/33/26 22/14/26
f 20/15/24 30/36/24 32/35/24
f 21/14/25 33/34/25 31/33/25
f 21/14/27 23/17/27 33/34/27
f 22/14/26 32/33/26 34/34/26
f 22/14/28 34/34/28 36/37/28
f 22/14/28 36/37/28 24/17/28
f 23/17/27 35/37/27 33/34/27
f 23/17/29 25/18/29 35/37/29
f 24/17/30 36/37/30 38/38/30
f 24/17/30 38/38/30 26/18/30
f 25/18/29 37/38/29 35/37/29
f 25/20/31 27/19/31 39/39/31
f 25/20/31 39/39/31 37/40/31
f 26/15/32 38/35/32 28/16/32
f 27/19/33 28/16/33 39/39/33
f 28/16/32 38/35/32 40/36/32
f 28/16/33 40/36/33 39/39/33
f 29/39/37 31/40/37 41/44/37
f 29/39/37 41/44/37 45/48/37
f 29/39/42 45/48/42 30/36/42
f 30/36/34 42/42/34 32/35/34
f 30/36/34 46/46/34 42/42/34
f 30/36/42 45/48/42 46/46/42
f 31/33/38 33/34/38 41/41/38
f 32/33/35 42/41/35 34/34/35
f 33/34/38 47/45/38 41/41/38
f 33/34/43 35/37/43 49/47/43
f 33/34/43 49/47/43 47/45/43
f 34/34/35 42/41/35 48/45/35
f 34/34/44 48/45/44 36/37/44
f 35/37/36 37/38/36 43/43/36
f 35/37/36 43/43/36 49/47/36
f 36/37/39 44/43/39 38/38/39
f 36/37/39 50/47/39 44/43/39
f 36/37/44 48/45/44 50/47/44
f 37/40/40 39/39/40 43/44/40
f 38/35/41 44/42/41 40/36/41
f 39/39/40 51/48/40 43/44/40
f 39/39/45 40/36/45 52/46/45
f 39/39/45 52/46/45 51/48/45
f 40/36/41 44/42/41 52/46/41
f 41/29/47 47/31/47 53/26/47
f 41/29/47 53/26/47 45/25/47
f 42/11/48 46/21/48 54/22/48
f 42/11/48 54/22/48 48/5/48
f 43/30/49 51/28/49 55/27/49
f 43/30/49 55/27/49 49/32/49
f 44/12/46 50/6/46 56/23/46
f 44/12/46 56/23/46 52/24/46
f 45/25/50 53/26/50 46/21/50
f 46/21/50 53/26/50 54/22/50
f 47/31/51 49/32/51 55/27/51
f 47/31/51 55/27/51 53/26/51
f 48/5/52 54/22/52 56/23/52
f 48/5/52 56/23/52 50/6/52
f 51/28/53 52/24/53 56/23/53
f 51/28/53 56/23/53 55/27/53
f 53/26/54 55/27/54 54/22/54
f 54/22/54 55/27/54 56/23/54
