# exported by ae3d_export.py v2
# object: Zombie_Spine
mtllib Zombie_Spine.mtl
v -0.195073 0.420139 -0.117227
v -0.195073 0.420139 0.117227
v -0.185739 0.448335 -0.119170
v -0.185739 0.448335 0.119170
v -0.183286 0.420114 -0.145555
v -0.183286 0.420114 0.145555
v -0.180058 0.443142 -0.141940
v -0.180058 0.443142 0.141940
v -0.158400 0.460000 -0.120000
v -0.158400 0.460000 0.120000
v -0.158327 -0.020139 -0.087593
v -0.158327 -0.020139 0.087593
v -0.157354 0.448301 -0.147515
v -0.157354 0.448301 0.147515
v -0.154931 0.420090 -0.157314
v -0.154931 0.420090 0.157314
v -0.146544 -0.020114 -0.115924
v -0.146544 -0.020114 0.115924
v -0.144287 -0.048335 -0.085740
v -0.144287 -0.048335 0.085740
v -0.139472 -0.043142 -0.109210
v -0.139472 -0.043142 0.109210
v -0.118192 -0.020090 -0.127686
v -0.118192 -0.020090 0.127686
v -0.115907 -0.048301 -0.114090
v -0.115907 -0.048301 0.114090
v -0.115000 -0.060000 -0.085000
v -0.115000 -0.060000 0.085000
v 0.115000 -0.060000 -0.085000
v 0.115000 -0.060000 0.085000
v 0.115907 -0.048301 -0.114090
v 0.115907 -0.048301 0.114090
v 0.118192 -0.020090 -0.127686
v 0.118192 -0.020090 0.127686
v 0.139472 -0.043142 -0.109210
v 0.139472 -0.043142 0.109210
v 0.144287 -0.048335 -0.085740
v 0.144287 -0.048335 0.085740
v 0.146544 -0.020114 -0.115924
v 0.146544 -0.020114 0.115924
v 0.154931 0.420090 -0.157314
v 0.154931 0.420090 0.157314
v 0.157354 0.448301 -0.147515
v 0.157354 0.448301 0.147515
v 0.158327 -0.020139 -0.087593
v 0.158327 -0.020139 0.087593
v 0.158400 0.460000 -0.120000
v 0.158400 0.460000 0.120000
v 0.180058 0.443142 -0.141940
v 0.180058 0.443142 0.141940
v 0.183286 0.420114 -0.145555
v 0.183286 0.420114 0.145555
v 0.185739 0.448335 -0.119170
v 0.185739 0.448335 0.119170
v 0.195073 0.420139 -0.117227
v 0.195073 0.420139 0.117227
vt -0.557218 -0.357510
vt -0.557218 0.357510
vt -0.549858 1.260343
vt -0.540173 -0.425821
vt -0.540173 0.425821
vt -0.540173 1.329427
vt -0.475200 -0.360000
vt -0.475200 0.360000
vt -0.472063 -0.442546
vt -0.472063 0.442546
vt -0.472063 1.344902
vt -0.464792 1.260271
vt -0.439632 -0.060343
vt -0.436664 1.260343
vt -0.432860 -0.257221
vt -0.432860 0.257221
vt -0.425821 1.329427
vt -0.418415 -0.327629
vt -0.418415 -0.129427
vt -0.418415 0.327629
vt -0.357510 1.345005
vt -0.354577 -0.060271
vt -0.351681 1.260416
vt -0.347772 -0.060343
vt -0.347722 -0.342271
vt -0.347722 -0.144902
vt -0.347722 0.342271
vt -0.345000 -0.255000
vt -0.345000 0.255000
vt -0.327629 -0.129427
vt -0.262779 -0.060416
vt -0.257221 -0.145005
vt 0.257221 -0.145005
vt 0.262779 -0.060416
vt 0.327629 -0.129427
vt 0.345000 -0.255000
vt 0.345000 0.255000
vt 0.347722 -0.342271
vt 0.347722 -0.144902
vt 0.347722 0.342271
vt 0.347772 -0.060343
vt 0.351681 1.260416
vt 0.354577 -0.060271
vt 0.357510 1.345005
vt 0.418415 -0.327629
vt 0.418415 -0.129427
vt 0.418415 0.327629
vt 0.425821 1.329427
vt 0.432860 -0.257221
vt 0.432860 0.257221
vt 0.436664 1.260343
vt 0.439632 -0.060343
vt 0.464792 1.260271
vt 0.472063 -0.442546
vt 0.472063 0.442546
vt 0.472063 1.344902
vt 0.475200 -0.360000
vt 0.475200 0.360000
vt 0.540173 -0.425821
vt 0.540173 0.425821
vt 0.540173 1.329427
vt 0.549858 1.260343
vt 0.557218 -0.357510
vt 0.557218 0.357510
vn -0.996535 -0.083172 0.000000
vn -0.949338 0.314257 0.000000
vn -0.918445 -0.102371 -0.382073
vn -0.918445 -0.102371 0.382073
vn -0.912227 0.234671 0.335814
vn -0.912227 0.234672 -0.335814
vn -0.895160 -0.445746 0.000000
vn -0.857513 -0.406229 -0.315673
vn -0.857513 -0.406229 0.315673
vn -0.392449 0.919774 0.000000
vn -0.381449 -0.093734 -0.919625
vn -0.381449 -0.093734 0.919625
vn -0.370037 -0.929017 0.000000
vn -0.338483 0.877395 -0.340012
vn -0.338483 0.877395 0.340012
vn -0.333663 0.243625 0.910668
vn -0.333663 0.243626 -0.910668
vn -0.315470 -0.398908 -0.861017
vn -0.315470 -0.398908 0.861017
vn -0.310297 -0.898087 -0.311698
vn -0.310297 -0.898087 0.311698
vn 0.000000 -1.000000 0.000000
vn 0.000000 -0.927781 -0.373126
vn 0.000000 -0.927781 0.373126
vn 0.000000 -0.434155 -0.900838
vn 0.000000 -0.434155 0.900838
vn 0.000000 -0.067156 -0.997742
vn 0.000000 -0.067156 0.997742
vn 0.000000 0.328103 -0.944642
vn 0.000000 0.328103 0.944642
vn 0.000000 0.920268 -0.391289
vn 0.000000 0.920268 0.391289
vn 0.000000 1.000000 0.000000
vn 0.310297 -0.898087 -0.311698
vn 0.310297 -0.898087 0.311698
vn 0.315470 -0.398908 -0.861017
vn 0.315470 -0.398908 0.861017
vn 0.333663 0.243625 -0.910668
vn 0.333663 0.243626 0.910668
vn 0.338483 0.877395 -0.340012
vn 0.338483 0.877395 0.340012
vn 0.370037 -0.929017 0.000000
vn 0.381449 -0.093734 -0.919625
vn 0.381449 -0.093734 0.919625
vn 0.392449 0.919774 0.000000
vn 0.857513 -0.406229 -0.315673
vn 0.857513 -0.406229 0.315673
vn 0.895160 -0.445746 0.000000
vn 0.912227 0.234671 -0.335814
vn 0.912227 0.234672 0.335814
vn 0.918445 -0.102371 -0.382073
vn 0.918445 -0.102371 0.382073
vn 0.949338 0.314257 0.000000
vn 0.996535 -0.083172 0.000000
usemtl ZombieCloth
f 1/42/1 11/34/1 2/23/1
f 1/42/2 2/23/2 4/21/2
f 1/42/2 4/21/2 3/44/2
f 1/42/3 5/51/3 17/41/3
f 1/42/3 17/41/3 11/34/3
f 1/42/6 3/44/6 7/48/6
f 1/42/6 7/48/6 5/51/6
f 2/23/1 11/34/1 12/31/1
f 2/23/4 12/31/4 18/24/4
f 2/23/4 18/24/4 6/14/4
f 2/23/5 6/14/5 8/17/5
f 2/23/5 8/17/5 4/21/5
f 3/2/10 4/1/10 10/7/10
f 3/2/10 10/7/10 9/8/10
f 3/2/14 9/8/14 7/5/14
f 4/1/15 8/4/15 10/7/15
f 5/3/11 15/12/11 17/13/11
f 5/3/17 7/6/17 15/12/17
f 6/3/12 18/13/12 16/12/12
f 6/3/16 16/12/16 8/6/16
f 7/5/14 9/8/14 13/10/14
f 7/6/17 13/11/17 15/12/17
f 8/4/15 14/9/15 10/7/15
f 8/6/16 16/12/16 14/11/16
f 9/8/31 43/55/31 13/10/31
f 9/8/31 47/58/31 43/55/31
f 9/8/33 10/7/33 47/58/33
f 10/7/32 14/9/32 48/57/32
f 10/7/33 48/57/33 47/58/33
f 11/34/7 19/33/7 12/31/7
f 11/34/8 17/41/8 21/35/8
f 11/34/8 21/35/8 19/33/8
f 12/31/7 19/33/7 20/32/7
f 12/31/9 20/32/9 22/30/9
f 12/31/9 22/30/9 18/24/9
f 13/11/29 41/53/29 15/12/29
f 13/11/29 43/56/29 41/53/29
f 14/9/32 44/54/32 48/57/32
f 14/11/30 16/12/30 44/56/30
f 15/12/11 23/22/11 17/13/11
f 15/12/27 41/53/27 23/22/27
f 16/12/12 18/13/12 24/22/12
f 16/12/28 24/22/28 34/43/28
f 16/12/28 34/43/28 42/53/28
f 16/12/30 42/53/30 44/56/30
f 17/13/18 23/22/18 21/19/18
f 18/13/19 22/19/19 24/22/19
f 19/16/13 27/29/13 20/15/13
f 19/16/20 21/20/20 27/29/20
f 20/15/13 27/29/13 28/28/13
f 20/15/21 28/28/21 22/18/21
f 21/19/18 23/22/18 25/26/18
f 21/20/20 25/27/20 27/29/20
f 22/18/21 28/28/21 26/25/21
f 22/19/19 26/26/19 24/22/19
f 23/22/25 31/39/25 25/26/25
f 23/22/25 33/43/25 31/39/25
f 23/22/27 41/53/27 33/43/27
f 24/22/26 26/26/26 34/43/26
f 25/27/23 29/37/23 27/29/23
f 25/27/23 31/40/23 29/37/23
f 26/25/24 28/28/24 32/38/24
f 26/26/26 32/39/26 34/43/26
f 27/29/22 29/37/22 28/28/22
f 28/28/22 29/37/22 30/36/22
f 28/28/24 30/36/24 32/38/24
f 29/37/34 31/40/34 35/47/34
f 29/37/34 35/47/34 37/50/34
f 29/37/42 37/50/42 30/36/42
f 30/36/35 36/45/35 32/38/35
f 30/36/35 38/49/35 36/45/35
f 30/36/42 37/50/42 38/49/42
f 31/39/36 33/43/36 35/46/36
f 32/39/37 36/46/37 34/43/37
f 33/43/36 39/52/36 35/46/36
f 33/43/43 41/53/43 39/52/43
f 34/43/37 36/46/37 40/52/37
f 34/43/44 40/52/44 42/53/44
f 35/35/46 39/41/46 45/34/46
f 35/35/46 45/34/46 37/33/46
f 36/30/47 38/32/47 46/31/47
f 36/30/47 46/31/47 40/24/47
f 37/33/48 45/34/48 38/32/48
f 38/32/48 45/34/48 46/31/48
f 39/41/51 51/51/51 55/42/51
f 39/41/51 55/42/51 45/34/51
f 39/52/43 41/53/43 51/62/43
f 40/24/52 46/31/52 56/23/52
f 40/24/52 56/23/52 52/14/52
f 40/52/44 52/62/44 42/53/44
f 41/53/38 43/56/38 49/61/38
f 41/53/38 49/61/38 51/62/38
f 42/53/39 50/61/39 44/56/39
f 42/53/39 52/62/39 50/61/39
f 43/55/40 47/58/40 49/60/40
f 44/54/41 50/59/41 48/57/41
f 45/34/54 55/42/54 46/31/54
f 46/31/54 55/42/54 56/23/54
f 47/58/40 53/64/40 49/60/40
f 47/58/45 48/57/45 54/63/45
f 47/58/45 54/63/45 53/64/45
f 48/57/41 50/59/41 54/63/41
f 49/48/49 53/44/49 55/42/49
f 49/48/49 55/42/49 51/51/49
f 50/17/50 52/14/50 56/23/50
f 50/17/50 56/23/50 54/21/50
f 53/44/53 54/21/53 56/23/53
f 53/44/53 56/23/53 55/42/53
