# exported by ae3d_export.py v2
# object: Zombie_LegLowerR
mtllib Zombie_LegLowerR.mtl
v -0.066000 -0.362000 -0.038000
v -0.066000 -0.362000 0.038000
v -0.066000 0.032000 -0.038000
v -0.066000 0.032000 0.038000
v -0.057799 -0.381799 -0.038000
v -0.057799 -0.381799 0.038000
v -0.057799 -0.362000 -0.057799
v -0.057799 -0.362000 0.057799
v -0.057799 0.032000 -0.057799
v -0.057799 0.032000 0.057799
v -0.057799 0.051799 -0.038000
v -0.057799 0.051799 0.038000
v -0.054166 -0.378166 -0.054166
v -0.054166 -0.378166 0.054166
v -0.054166 0.048166 -0.054166
v -0.054166 0.048166 0.054166
v -0.038000 -0.390000 -0.038000
v -0.038000 -0.390000 0.038000
v -0.038000 -0.381799 -0.057799
v -0.038000 -0.381799 0.057799
v -0.038000 -0.362000 -0.066000
v -0.038000 -0.362000 0.066000
v -0.038000 0.032000 -0.066000
v -0.038000 0.032000 0.066000
v -0.038000 0.051799 -0.057799
v -0.038000 0.051799 0.057799
v -0.038000 0.060000 -0.038000
v -0.038000 0.060000 0.038000
v 0.038000 -0.390000 -0.038000
v 0.038000 -0.390000 0.038000
v 0.038000 -0.381799 -0.057799
v 0.038000 -0.381799 0.057799
v 0.038000 -0.362000 -0.066000
v 0.038000 -0.362000 0.066000
v 0.038000 0.032000 -0.066000
v 0.038000 0.032000 0.066000
v 0.038000 0.051799 -0.057799
v 0.038000 0.051799 0.057799
v 0.038000 0.060000 -0.038000
v 0.038000 0.060000 0.038000
v 0.054166 -0.378166 -0.054166
v 0.054166 -0.378166 0.054166
v 0.054166 0.048166 -0.054166
v 0.054166 0.048166 0.054166
v 0.057799 -0.381799 -0.038000
v 0.057799 -0.381799 0.038000
v 0.057799 -0.362000 -0.057799
v 0.057799 -0.362000 0.057799
v 0.057799 0.032000 -0.057799
v 0.057799 0.032000 0.057799
v 0.057799 0.051799 -0.038000
v 0.057799 0.051799 0.038000
v 0.066000 -0.362000 -0.038000
v 0.066000 -0.362000 0.038000
v 0.066000 0.032000 -0.038000
v 0.066000 0.032000 0.038000
vt -0.202296 -1.267000
vt -0.202296 -0.133000
vt -0.202296 0.112000
vt -0.202296 0.133000
vt -0.189580 -1.323580
vt -0.189580 -0.189580
vt -0.189580 0.168580
vt -0.189580 0.189580
vt -0.133000 -1.336296
vt -0.133000 -1.267000
vt -0.133000 -0.202296
vt -0.133000 -0.133000
vt -0.133000 0.112000
vt -0.133000 0.133000
vt -0.133000 0.181296
vt -0.133000 0.202296
vt 0.133000 -1.336296
vt 0.133000 -1.267000
vt 0.133000 -0.202296
vt 0.133000 -0.133000
vt 0.133000 0.112000
vt 0.133000 0.133000
vt 0.133000 0.181296
vt 0.133000 0.202296
vt 0.189580 -1.323580
vt 0.189580 -0.189580
vt 0.189580 0.168580
vt 0.189580 0.189580
vt 0.202296 -1.267000
vt 0.202296 -0.133000
vt 0.202296 0.112000
vt 0.202296 0.133000
vn -1.000000 0.000000 0.000000
vn -0.923880 -0.382683 0.000000
vn -0.923880 0.000000 -0.382683
vn -0.923880 0.000000 0.382683
vn -0.923880 0.382683 0.000000
vn -0.888074 -0.325058 -0.325057
vn -0.888074 -0.325058 0.325057
vn -0.888074 0.325057 -0.325057
vn -0.888074 0.325057 0.325057
vn -0.382684 -0.923879 0.000000
vn -0.382683 0.000000 -0.923880
vn -0.382683 0.000000 0.923880
vn -0.382683 0.923880 0.000000
vn -0.325058 -0.888074 -0.325058
vn -0.325058 0.325057 -0.888074
vn -0.325057 -0.888074 0.325058
vn -0.325057 -0.325058 -0.888074
vn -0.325057 -0.325057 0.888074
vn -0.325057 0.325057 0.888074
vn -0.325057 0.888074 -0.325058
vn -0.325057 0.888074 0.325057
vn 0.000000 -1.000000 0.000000
vn 0.000000 -0.923880 -0.382683
vn 0.000000 -0.923880 0.382683
vn 0.000000 -0.382683 -0.923880
vn 0.000000 -0.382683 0.923880
vn 0.000000 0.000000 -1.000000
vn 0.000000 0.000000 1.000000
vn 0.000000 0.382683 -0.923880
vn 0.000000 0.382683 0.923880
vn 0.000000 0.923880 -0.382683
vn 0.000000 0.923880 0.382683
vn 0.000000 1.000000 0.000000
vn 0.325057 -0.888074 -0.325058
vn 0.325057 -0.325058 0.888074
vn 0.325057 -0.325057 -0.888074
vn 0.325057 0.325057 -0.888074
vn 0.325057 0.888074 -0.325057
vn 0.325057 0.888074 0.325058
vn 0.325058 -0.888074 0.325058
vn 0.325058 0.325057 0.888074
vn 0.382683 0.000000 -0.923880
vn 0.382683 0.000000 0.923880
vn 0.382683 0.923880 0.000000
vn 0.382684 -0.923879 0.000000
vn 0.888074 -0.325058 -0.325057
vn 0.888074 -0.325058 0.325057
vn 0.888074 0.325057 -0.325057
vn 0.888074 0.325057 0.325057
vn 0.923880 -0.382683 0.000000
vn 0.923880 0.000000 -0.382683
vn 0.923880 0.000000 0.382683
vn 0.923880 0.382683 0.000000
vn 1.000000 0.000000 0.000000
usemtl ZombieCloth
f 1/18/1 2/10/1 4/13/1
f 1/18/1 4/13/1 3/21/1
f 1/18/2 5/17/2 2/10/2
f 1/18/3 3/21/3 9/31/3
f 1/18/3 9/31/3 7/29/3
f 1/18/6 7/29/6 13/25/6
f 1/18/6 13/25/6 5/17/6
f 2/10/2 5/17/2 6/9/2
f 2/10/4 8/1/4 4/13/4
f 2/10/7 6/9/7 14/5/7
f 2/10/7 14/5/7 8/1/7
f 3/21/5 4/13/5 12/15/5
f 3/21/5 12/15/5 11/23/5
f 3/21/8 11/23/8 15/27/8
f 3/21/8 15/27/8 9/31/8
f 4/13/4 8/1/4 10/3/4
f 4/13/9 10/3/9 16/7/9
f 4/13/9 16/7/9 12/15/9
f 5/4/10 17/14/10 6/2/10
f 5/4/14 13/8/14 17/14/14
f 6/2/10 17/14/10 18/12/10
f 6/2/16 18/12/16 14/6/16
f 7/1/11 9/3/11 23/13/11
f 7/1/11 23/13/11 21/10/11
f 7/1/17 21/10/17 13/5/17
f 8/1/12 22/10/12 10/3/12
f 8/1/18 14/5/18 22/10/18
f 9/3/15 15/7/15 23/13/15
f 10/3/12 22/10/12 24/13/12
f 10/3/19 24/13/19 16/7/19
f 11/4/13 12/2/13 28/12/13
f 11/4/13 28/12/13 27/14/13
f 11/4/20 27/14/20 15/8/20
f 12/2/21 16/6/21 28/12/21
f 13/5/17 21/10/17 19/9/17
f 13/8/14 19/16/14 17/14/14
f 14/5/18 20/9/18 22/10/18
f 14/6/16 18/12/16 20/11/16
f 15/7/15 25/15/15 23/13/15
f 15/8/20 27/14/20 25/16/20
f 16/6/21 26/11/21 28/12/21
f 16/7/19 24/13/19 26/15/19
f 17/14/22 29/22/22 18/12/22
f 17/14/23 19/16/23 29/22/23
f 18/12/22 29/22/22 30/20/22
f 18/12/24 30/20/24 32/19/24
f 18/12/24 32/19/24 20/11/24
f 19/9/25 21/10/25 31/17/25
f 19/16/23 31/24/23 29/22/23
f 20/9/26 32/17/26 34/18/26
f 20/9/26 34/18/26 22/10/26
f 21/10/25 33/18/25 31/17/25
f 21/10/27 23/13/27 33/18/27
f 22/10/28 34/18/28 36/21/28
f 22/10/28 36/21/28 24/13/28
f 23/13/27 35/21/27 33/18/27
f 23/13/29 25/15/29 35/21/29
f 24/13/30 36/21/30 38/23/30
f 24/13/30 38/23/30 26/15/30
f 25/15/29 37/23/29 35/21/29
f 25/16/31 27/14/31 37/24/31
f 26/11/32 38/19/32 40/20/32
f 26/11/32 40/20/32 28/12/32
f 27/14/31 39/22/31 37/24/31
f 27/14/33 28/12/33 39/22/33
f 28/12/33 40/20/33 39/22/33
f 29/22/34 31/24/34 41/28/34
f 29/22/34 41/28/34 45/32/34
f 29/22/45 45/32/45 30/20/45
f 30/20/40 42/26/40 32/19/40
f 30/20/40 46/30/40 42/26/40
f 30/20/45 45/32/45 46/30/45
f 31/17/36 33/18/36 41/25/36
f 32/17/35 42/25/35 34/18/35
f 33/18/36 47/29/36 41/25/36
f 33/18/42 35/21/42 49/31/42
f 33/18/42 49/31/42 47/29/42
f 34/18/35 42/25/35 48/29/35
f 34/18/43 48/29/43 36/21/43
f 35/21/37 37/23/37 43/27/37
f 35/21/37 43/27/37 49/31/37
f 36/21/41 44/27/41 38/23/41
f 36/21/41 50/31/41 44/27/41
f 36/21/43 48/29/43 50/31/43
f 37/24/38 39/22/38 43/28/38
f 38/19/39 44/26/39 40/20/39
f 39/22/38 51/32/38 43/28/38
f 39/22/44 40/20/44 52/30/44
f 39/22/44 52/30/44 51/32/44
f 40/20/39 44/26/39 52/30/39
f 41/25/46 47/29/46 53/18/46
f 41/25/46 53/18/46 45/17/46
f 42/5/47 46/9/47 54/10/47
f 42/5/47 54/10/47 48/1/47
f 43/27/48 51/23/48 55/21/48
f 43/27/48 55/21/48 49/31/48
f 44/7/49 50/3/49 56/13/49
f 44/7/49 56/13/49 52/15/49
f 45/17/50 53/18/50 46/9/50
f 46/9/50 53/18/50 54/10/50
f 47/29/51 49/31/51 55/21/51
f 47/29/51 55/21/51 53/18/51
f 48/1/52 54/10/52 50/3/52
f 50/3/52 54/10/52 56/13/52
f 51/23/53 52/15/53 56/13/53
f 51/23/53 56/13/53 55/21/53
f 53/18/54 55/21/54 54/10/54
f 54/10/54 55/21/54 56/13/54
