# exported by ae3d_export.py v2
# object: Zombie_ArmUpperR
mtllib Zombie_ArmUpperR.mtl
v -0.066294 0.050013 -0.041281
v -0.066294 0.050013 0.041281
v -0.059544 0.067681 -0.041857
v -0.059544 0.067681 0.041857
v -0.058965 0.050013 -0.058965
v -0.058965 0.050013 0.058965
v -0.056190 0.064439 -0.056190
v -0.056190 0.064439 0.056190
v -0.055806 -0.275013 -0.030793
v -0.055806 -0.275013 0.030793
v -0.048477 -0.275013 -0.048477
v -0.048477 -0.275013 0.048477
v -0.047917 -0.292681 -0.030230
v -0.047917 -0.292681 0.030230
v -0.044772 -0.289439 -0.044772
v -0.044772 -0.289439 0.044772
v -0.042100 0.075000 -0.042100
v -0.042100 0.075000 0.042100
v -0.041857 0.067681 -0.059544
v -0.041857 0.067681 0.059544
v -0.041281 0.050013 -0.066294
v -0.041281 0.050013 0.066294
v -0.030793 -0.275013 -0.055806
v -0.030793 -0.275013 0.055806
v -0.030230 -0.292681 -0.047917
v -0.030230 -0.292681 0.047917
v -0.030000 -0.300000 -0.030000
v -0.030000 -0.300000 0.030000
v 0.030000 -0.300000 -0.030000
v 0.030000 -0.300000 0.030000
v 0.030230 -0.292681 -0.047917
v 0.030230 -0.292681 0.047917
v 0.030793 -0.275013 -0.055806
v 0.030793 -0.275013 0.055806
v 0.041281 0.050013 -0.066294
v 0.041281 0.050013 0.066294
v 0.041857 0.067681 -0.059544
v 0.041857 0.067681 0.059544
v 0.042100 0.075000 -0.042100
v 0.042100 0.075000 0.042100
v 0.044772 -0.289439 -0.044772
v 0.044772 -0.289439 0.044772
v 0.047917 -0.292681 -0.030230
v 0.047917 -0.292681 0.030230
v 0.048477 -0.275013 -0.048477
v 0.048477 -0.275013 0.048477
v 0.055806 -0.275013 -0.030793
v 0.055806 -0.275013 0.030793
v 0.056190 0.064439 -0.056190
v 0.056190 0.064439 0.056190
v 0.058965 0.050013 -0.058965
v 0.058965 0.050013 0.058965
v 0.059544 0.067681 -0.041857
v 0.059544 0.067681 0.041857
v 0.066294 0.050013 -0.041281
v 0.066294 0.050013 0.041281
vt -0.238177 -0.167429
vt -0.238177 0.167429
vt -0.235860 0.200052
vt -0.224761 -0.224761
vt -0.224761 0.224761
vt -0.224761 0.257757
vt -0.193910 -1.100052
vt -0.191666 -0.120919
vt -0.191666 0.120919
vt -0.179087 -1.157757
vt -0.179087 -0.179087
vt -0.179087 0.179087
vt -0.168400 -0.168400
vt -0.168400 0.168400
vt -0.167429 -0.238177
vt -0.167429 0.238177
vt -0.167429 0.270726
vt -0.165123 0.200052
vt -0.123173 -1.100052
vt -0.120919 -1.170726
vt -0.120919 -0.191666
vt -0.120919 0.191666
vt -0.120000 -0.120000
vt -0.120000 0.120000
vt 0.120000 -0.120000
vt 0.120000 0.120000
vt 0.120919 -1.170726
vt 0.120919 -0.191666
vt 0.120919 0.191666
vt 0.123173 -1.100052
vt 0.165123 0.200052
vt 0.167429 -0.238177
vt 0.167429 0.238177
vt 0.167429 0.270726
vt 0.168400 -0.168400
vt 0.168400 0.168400
vt 0.179087 -1.157757
vt 0.179087 -0.179087
vt 0.179087 0.179087
vt 0.191666 -0.120919
vt 0.191666 0.120919
vt 0.193910 -1.100052
vt 0.224761 -0.224761
vt 0.224761 0.224761
vt 0.224761 0.257757
vt 0.235860 0.200052
vt 0.238177 -0.167429
vt 0.238177 0.167429
vn -0.999480 -0.032250 0.000000
vn -0.934159 0.356858 0.000000
vn -0.922989 -0.042124 -0.382513
vn -0.922989 -0.042124 0.382513
vn -0.913099 -0.407739 0.000000
vn -0.898854 0.289284 -0.329206
vn -0.898854 0.289284 0.329206
vn -0.876302 -0.359289 0.320946
vn -0.876302 -0.359288 -0.320946
vn -0.386871 0.922134 0.000000
vn -0.382513 -0.042124 -0.922989
vn -0.382513 -0.042124 0.922989
vn -0.378149 -0.925745 0.000000
vn -0.331124 0.883580 -0.331125
vn -0.331124 0.883580 0.331125
vn -0.329206 0.289284 0.898854
vn -0.329206 0.289285 -0.898854
vn -0.320947 -0.359289 0.876302
vn -0.320946 -0.359289 -0.876302
vn -0.319017 -0.892444 0.319017
vn -0.319016 -0.892445 -0.319017
vn 0.000000 -1.000000 0.000000
vn 0.000000 -0.925745 -0.378148
vn 0.000000 -0.925745 0.378148
vn 0.000000 -0.407739 0.913099
vn 0.000000 -0.407738 -0.913099
vn 0.000000 -0.032250 -0.999480
vn 0.000000 -0.032250 0.999480
vn 0.000000 0.356858 -0.934159
vn 0.000000 0.356858 0.934159
vn 0.000000 0.922134 -0.386871
vn 0.000000 0.922134 0.386871
vn 0.000000 1.000000 0.000000
vn 0.319016 -0.892444 0.319017
vn 0.319017 -0.892444 -0.319017
vn 0.320946 -0.359289 0.876302
vn 0.320947 -0.359289 -0.876302
vn 0.329206 0.289284 -0.898854
vn 0.329206 0.289285 0.898854
vn 0.331124 0.883580 -0.331125
vn 0.331124 0.883580 0.331125
vn 0.378149 -0.925745 0.000000
vn 0.382513 -0.042124 -0.922989
vn 0.382513 -0.042124 0.922989
vn 0.386871 0.922134 0.000000
vn 0.876302 -0.359289 -0.320946
vn 0.876302 -0.359288 0.320946
vn 0.898854 0.289284 -0.329206
vn 0.898854 0.289284 0.329206
vn 0.913099 -0.407738 0.000000
vn 0.922989 -0.042124 -0.382513
vn 0.922989 -0.042124 0.382513
vn 0.934159 0.356858 0.000000
vn 0.999480 -0.032250 0.000000
usemtl ZombieCloth
f 1/31/1 9/30/1 2/18/1
f 1/31/2 2/18/2 3/34/2
f 1/31/3 5/46/3 11/42/3
f 1/31/3 11/42/3 9/30/3
f 1/31/6 3/34/6 7/45/6
f 1/31/6 7/45/6 5/46/6
f 2/18/1 9/30/1 10/19/1
f 2/18/2 4/17/2 3/34/2
f 2/18/4 10/19/4 12/7/4
f 2/18/4 12/7/4 6/3/4
f 2/18/7 6/3/7 8/6/7
f 2/18/7 8/6/7 4/17/7
f 3/2/10 4/1/10 17/14/10
f 3/2/14 17/14/14 7/5/14
f 4/1/10 18/13/10 17/14/10
f 4/1/15 8/4/15 18/13/15
f 5/3/11 21/18/11 11/7/11
f 5/3/17 7/6/17 21/18/17
f 6/3/12 12/7/12 22/18/12
f 6/3/16 22/18/16 8/6/16
f 7/5/14 17/14/14 19/16/14
f 7/6/17 19/17/17 21/18/17
f 8/4/15 20/15/15 18/13/15
f 8/6/16 22/18/16 20/17/16
f 9/30/5 13/27/5 14/20/5
f 9/30/5 14/20/5 10/19/5
f 9/30/9 11/42/9 15/37/9
f 9/30/9 15/37/9 13/27/9
f 10/19/8 14/20/8 16/10/8
f 10/19/8 16/10/8 12/7/8
f 11/7/11 21/18/11 23/19/11
f 11/7/19 23/19/19 15/10/19
f 12/7/12 24/19/12 22/18/12
f 12/7/18 16/10/18 24/19/18
f 13/9/13 27/24/13 14/8/13
f 13/9/21 15/12/21 27/24/21
f 14/8/13 27/24/13 28/23/13
f 14/8/20 28/23/20 16/11/20
f 15/10/19 23/19/19 25/20/19
f 15/12/21 25/22/21 27/24/21
f 16/10/18 26/20/18 24/19/18
f 16/11/20 28/23/20 26/21/20
f 17/14/31 39/36/31 19/16/31
f 17/14/33 18/13/33 39/36/33
f 18/13/32 20/15/32 38/32/32
f 18/13/32 38/32/32 40/35/32
f 18/13/33 40/35/33 39/36/33
f 19/16/31 39/36/31 37/33/31
f 19/17/29 37/34/29 21/18/29
f 20/17/30 22/18/30 36/31/30
f 20/17/30 36/31/30 38/34/30
f 21/18/27 33/30/27 23/19/27
f 21/18/27 35/31/27 33/30/27
f 21/18/29 37/34/29 35/31/29
f 22/18/28 24/19/28 36/31/28
f 23/19/26 33/30/26 25/20/26
f 24/19/25 26/20/25 34/30/25
f 24/19/28 34/30/28 36/31/28
f 25/20/26 33/30/26 31/27/26
f 25/22/23 29/26/23 27/24/23
f 25/22/23 31/29/23 29/26/23
f 26/20/25 32/27/25 34/30/25
f 26/21/24 28/23/24 32/28/24
f 27/24/22 29/26/22 28/23/22
f 28/23/22 29/26/22 30/25/22
f 28/23/24 30/25/24 32/28/24
f 29/26/35 31/29/35 41/39/35
f 29/26/35 41/39/35 43/41/35
f 29/26/42 43/41/42 44/40/42
f 29/26/42 44/40/42 30/25/42
f 30/25/34 42/38/34 32/28/34
f 30/25/34 44/40/34 42/38/34
f 31/27/37 33/30/37 41/37/37
f 32/27/36 42/37/36 34/30/36
f 33/30/37 45/42/37 41/37/37
f 33/30/43 35/31/43 45/42/43
f 34/30/36 42/37/36 46/42/36
f 34/30/44 46/42/44 36/31/44
f 35/31/38 37/34/38 49/45/38
f 35/31/38 49/45/38 51/46/38
f 35/31/43 51/46/43 45/42/43
f 36/31/39 50/45/39 38/34/39
f 36/31/39 52/46/39 50/45/39
f 36/31/44 46/42/44 52/46/44
f 37/33/40 39/36/40 49/44/40
f 38/32/41 50/43/41 40/35/41
f 39/36/40 53/48/40 49/44/40
f 39/36/45 40/35/45 53/48/45
f 40/35/41 50/43/41 54/47/41
f 40/35/45 54/47/45 53/48/45
f 41/37/46 45/42/46 47/30/46
f 41/37/46 47/30/46 43/27/46
f 42/10/47 44/20/47 48/19/47
f 42/10/47 48/19/47 46/7/47
f 43/27/50 47/30/50 44/20/50
f 44/20/50 47/30/50 48/19/50
f 45/42/51 51/46/51 55/31/51
f 45/42/51 55/31/51 47/30/51
f 46/7/52 48/19/52 56/18/52
f 46/7/52 56/18/52 52/3/52
f 47/30/54 55/31/54 48/19/54
f 48/19/54 55/31/54 56/18/54
f 49/45/48 53/34/48 55/31/48
f 49/45/48 55/31/48 51/46/48
f 50/6/49 52/3/49 56/18/49
f 50/6/49 56/18/49 54/17/49
f 53/34/53 54/17/53 55/31/53
f 54/17/53 56/18/53 55/31/53
