# exported by ae3d_export.py v2
# object: Zombie_Mouth
mtllib Zombie_Mouth.mtl
v -0.020000 -0.045000 -0.055000
v -0.020000 -0.045000 0.055000
v -0.020000 0.000000 -0.055000
v -0.020000 0.000000 0.055000
v 0.020000 -0.045000 -0.055000
v 0.020000 -0.045000 0.055000
v 0.020000 0.000000 -0.055000
v 0.020000 0.000000 0.055000
vt -0.440000 -0.360000
vt -0.440000 0.000000
vt -0.160000 -0.440000
vt -0.160000 -0.360000
vt -0.160000 0.000000
vt -0.160000 0.440000
vt 0.160000 -0.440000
vt 0.160000 -0.360000
vt 0.160000 0.000000
vt 0.160000 0.440000
vt 0.440000 -0.360000
vt 0.440000 0.000000
vn -1.000000 0.000000 0.000000
vn 0.000000 -1.000000 0.000000
vn 0.000000 0.000000 -1.000000
vn 0.000000 0.000000 1.000000
vn 0.000000 1.000000 0.000000
vn 1.000000 0.000000 0.000000
usemtl ZombieGore
f 1/4/3 3/5/3 5/8/3
f 1/6/2 5/10/2 2/3/2
f 1/11/1 2/1/1 4/2/1
f 1/11/1 4/2/1 3/12/1
f 2/3/2 5/10/2 6/7/2
f 2/4/4 6/8/4 8/9/4
f 2/4/4 8/9/4 4/5/4
f 3/5/3 7/9/3 5/8/3
f 3/6/5 4/3/5 7/10/5
f 4/3/5 8/7/5 7/10/5
f 5/11/6 7/12/6 6/1/6
f 6/1/6 7/12/6 8/2/6
