# exported by ae3d_export.py v2
# object: Zombie_Hips
mtllib Zombie_Hips.mtl
v -0.160000 -0.080000 -0.140000
v -0.160000 -0.080000 0.140000
v -0.160000 0.120000 -0.140000
v -0.160000 0.120000 0.140000
v -0.151213 -0.101213 -0.140000
v -0.151213 -0.101213 0.140000
v -0.151213 -0.080000 -0.161213
v -0.151213 -0.080000 0.161213
v -0.151213 0.120000 -0.161213
v -0.151213 0.120000 0.161213
v -0.151213 0.141213 -0.140000
v -0.151213 0.141213 0.140000
v -0.147321 -0.097320 -0.157320
v -0.147321 -0.097320 0.157320
v -0.147321 0.137321 -0.157320
v -0.147321 0.137321 0.157320
v -0.130000 -0.110000 -0.140000
v -0.130000 -0.110000 0.140000
v -0.130000 -0.101213 -0.161213
v -0.130000 -0.101213 0.161213
v -0.130000 -0.080000 -0.170000
v -0.130000 -0.080000 0.170000
v -0.130000 0.120000 -0.170000
v -0.130000 0.120000 0.170000
v -0.130000 0.141213 -0.161213
v -0.130000 0.141213 0.161213
v -0.130000 0.150000 -0.140000
v -0.130000 0.150000 0.140000
v 0.130000 -0.110000 -0.140000
v 0.130000 -0.110000 0.140000
v 0.130000 -0.101213 -0.161213
v 0.130000 -0.101213 0.161213
v 0.130000 -0.080000 -0.170000
v 0.130000 -0.080000 0.170000
v 0.130000 0.120000 -0.170000
v 0.130000 0.120000 0.170000
v 0.130000 0.141213 -0.161213
v 0.130000 0.141213 0.161213
v 0.130000 0.150000 -0.140000
v 0.130000 0.150000 0.140000
v 0.147321 -0.097320 -0.157320
v 0.147321 -0.097320 0.157320
v 0.147321 0.137321 -0.157320
v 0.147321 0.137321 0.157320
v 0.151213 -0.101213 -0.140000
v 0.151213 -0.101213 0.140000
v 0.151213 -0.080000 -0.161213
v 0.151213 -0.080000 0.161213
v 0.151213 0.120000 -0.161213
v 0.151213 0.120000 0.161213
v 0.151213 0.141213 -0.140000
v 0.151213 0.141213 0.140000
v 0.160000 -0.080000 -0.140000
v 0.160000 -0.080000 0.140000
v 0.160000 0.120000 -0.140000
v 0.160000 0.120000 0.140000
vt -0.483640 -0.240000
vt -0.483640 0.360000
vt -0.471961 -0.291961
vt -0.471961 0.411962
vt -0.453640 -0.420000
vt -0.453640 -0.240000
vt -0.453640 0.360000
vt -0.453640 0.420000
vt -0.441962 -0.471961
vt -0.441962 -0.291961
vt -0.441962 0.411962
vt -0.441962 0.471961
vt -0.420000 -0.303640
vt -0.420000 -0.240000
vt -0.420000 0.360000
vt -0.420000 0.423640
vt -0.390000 -0.483640
vt -0.390000 -0.420000
vt -0.390000 -0.303640
vt -0.390000 -0.240000
vt -0.390000 0.360000
vt -0.390000 0.420000
vt -0.390000 0.423640
vt -0.390000 0.483640
vt 0.390000 -0.483640
vt 0.390000 -0.420000
vt 0.390000 -0.303640
vt 0.390000 -0.240000
vt 0.390000 0.360000
vt 0.390000 0.420000
vt 0.390000 0.423640
vt 0.390000 0.483640
vt 0.420000 -0.303640
vt 0.420000 -0.240000
vt 0.420000 0.360000
vt 0.420000 0.423640
vt 0.441962 -0.471961
vt 0.441962 -0.291961
vt 0.441962 0.411962
vt 0.441962 0.471961
vt 0.453640 -0.420000
vt 0.453640 -0.240000
vt 0.453640 0.360000
vt 0.453640 0.420000
vt 0.471961 -0.291961
vt 0.471961 0.411962
vt 0.483640 -0.240000
vt 0.483640 0.360000
vn -1.000000 0.000000 0.000000
vn -0.923880 -0.382683 0.000000
vn -0.923880 0.382683 0.000000
vn -0.923879 0.000000 -0.382684
vn -0.923879 0.000000 0.382684
vn -0.888074 -0.325058 -0.325058
vn -0.888074 -0.325058 0.325058
vn -0.888074 0.325058 -0.325057
vn -0.888074 0.325058 0.325057
vn -0.382684 -0.923879 0.000000
vn -0.382684 0.000000 -0.923879
vn -0.382684 0.000000 0.923879
vn -0.382683 0.923880 0.000000
vn -0.325058 -0.888074 -0.325058
vn -0.325058 -0.888074 0.325058
vn -0.325058 -0.325057 -0.888074
vn -0.325058 -0.325057 0.888074
vn -0.325058 0.325057 -0.888074
vn -0.325057 0.325057 0.888074
vn -0.325057 0.888074 -0.325057
vn -0.325057 0.888074 0.325057
vn 0.000000 -1.000000 0.000000
vn 0.000000 -0.923879 -0.382684
vn 0.000000 -0.923879 0.382684
vn 0.000000 -0.382684 -0.923879
vn 0.000000 -0.382684 0.923879
vn 0.000000 0.000000 -1.000000
vn 0.000000 0.000000 1.000000
vn 0.000000 0.382684 -0.923879
vn 0.000000 0.382684 0.923879
vn 0.000000 0.923879 -0.382684
vn 0.000000 0.923879 0.382684
vn 0.000000 1.000000 0.000000
vn 0.325057 0.325057 -0.888074
vn 0.325057 0.888074 -0.325057
vn 0.325057 0.888074 0.325057
vn 0.325058 -0.888074 -0.325058
vn 0.325058 -0.888074 0.325058
vn 0.325058 -0.325057 -0.888074
vn 0.325058 -0.325057 0.888074
vn 0.325058 0.325057 0.888074
vn 0.382683 0.923880 0.000000
vn 0.382684 -0.923879 0.000000
vn 0.382684 0.000000 -0.923879
vn 0.382684 0.000000 0.923879
vn 0.888074 -0.325058 -0.325058
vn 0.888074 -0.325058 0.325058
vn 0.888074 0.325058 -0.325057
vn 0.888074 0.325058 0.325057
vn 0.923879 0.000000 -0.382684
vn 0.923879 0.000000 0.382684
vn 0.923880 -0.382683 0.000000
vn 0.923880 0.382683 0.000000
vn 1.000000 0.000000 0.000000
usemtl ZombieCloth
f 1/34/1 2/14/1 4/15/1
f 1/34/1 4/15/1 3/35/1
f 1/34/2 5/33/2 2/14/2
f 1/34/4 3/35/4 7/47/4
f 1/34/6 7/47/6 13/45/6
f 1/34/6 13/45/6 5/33/6
f 2/14/2 5/33/2 6/13/2
f 2/14/5 8/1/5 4/15/5
f 2/14/7 6/13/7 14/3/7
f 2/14/7 14/3/7 8/1/7
f 3/35/3 4/15/3 12/16/3
f 3/35/3 12/16/3 11/36/3
f 3/35/4 9/48/4 7/47/4
f 3/35/8 11/36/8 15/46/8
f 3/35/8 15/46/8 9/48/8
f 4/15/5 8/1/5 10/2/5
f 4/15/9 10/2/9 16/4/9
f 4/15/9 16/4/9 12/16/9
f 5/8/10 17/22/10 6/5/10
f 5/8/14 13/12/14 17/22/14
f 6/5/10 17/22/10 18/18/10
f 6/5/15 18/18/15 14/9/15
f 7/6/11 9/7/11 23/21/11
f 7/6/11 23/21/11 21/20/11
f 7/6/16 21/20/16 13/10/16
f 8/6/12 22/20/12 24/21/12
f 8/6/12 24/21/12 10/7/12
f 8/6/17 14/10/17 22/20/17
f 9/7/18 15/11/18 23/21/18
f 10/7/19 24/21/19 16/11/19
f 11/8/13 12/5/13 28/18/13
f 11/8/13 28/18/13 27/22/13
f 11/8/20 27/22/20 15/12/20
f 12/5/21 16/9/21 28/18/21
f 13/10/16 21/20/16 19/19/16
f 13/12/14 19/24/14 17/22/14
f 14/9/15 18/18/15 20/17/15
f 14/10/17 20/19/17 22/20/17
f 15/11/18 25/23/18 23/21/18
f 15/12/20 27/22/20 25/24/20
f 16/9/21 26/17/21 28/18/21
f 16/11/19 24/21/19 26/23/19
f 17/22/22 29/30/22 18/18/22
f 17/22/23 19/24/23 29/30/23
f 18/18/22 29/30/22 30/26/22
f 18/18/24 30/26/24 32/25/24
f 18/18/24 32/25/24 20/17/24
f 19/19/25 21/20/25 31/27/25
f 19/24/23 31/32/23 29/30/23
f 20/19/26 32/27/26 34/28/26
f 20/19/26 34/28/26 22/20/26
f 21/20/25 33/28/25 31/27/25
f 21/20/27 23/21/27 33/28/27
f 22/20/28 34/28/28 36/29/28
f 22/20/28 36/29/28 24/21/28
f 23/21/27 35/29/27 33/28/27
f 23/21/29 25/23/29 35/29/29
f 24/21/30 36/29/30 38/31/30
f 24/21/30 38/31/30 26/23/30
f 25/23/29 37/31/29 35/29/29
f 25/24/31 27/22/31 37/32/31
f 26/17/32 38/25/32 40/26/32
f 26/17/32 40/26/32 28/18/32
f 27/22/31 39/30/31 37/32/31
f 27/22/33 28/18/33 39/30/33
f 28/18/33 40/26/33 39/30/33
f 29/30/37 31/32/37 41/40/37
f 29/30/37 41/40/37 45/44/37
f 29/30/43 45/44/43 30/26/43
f 30/26/38 42/37/38 32/25/38
f 30/26/38 46/41/38 42/37/38
f 30/26/43 45/44/43 46/41/43
f 31/27/39 33/28/39 41/38/39
f 32/27/40 42/38/40 34/28/40
f 33/28/39 47/42/39 41/38/39
f 33/28/44 35/29/44 47/42/44
f 34/28/40 42/38/40 48/42/40
f 34/28/45 48/42/45 36/29/45
f 35/29/34 37/31/34 43/39/34
f 35/29/34 43/39/34 49/43/34
f 35/29/44 49/43/44 47/42/44
f 36/29/41 44/39/41 38/31/41
f 36/29/41 50/43/41 44/39/41
f 36/29/45 48/42/45 50/43/45
f 37/32/35 39/30/35 43/40/35
f 38/25/36 44/37/36 40/26/36
f 39/30/35 51/44/35 43/40/35
f 39/30/42 40/26/42 52/41/42
f 39/30/42 52/41/42 51/44/42
f 40/26/36 44/37/36 52/41/36
f 41/45/46 47/47/46 53/34/46
f 41/45/46 53/34/46 45/33/46
f 42/3/47 46/13/47 54/14/47
f 42/3/47 54/14/47 48/1/47
f 43/46/48 51/36/48 55/35/48
f 43/46/48 55/35/48 49/48/48
f 44/4/49 50/2/49 56/15/49
f 44/4/49 56/15/49 52/16/49
f 45/33/52 53/34/52 46/13/52
f 46/13/52 53/34/52 54/14/52
f 47/47/50 49/48/50 55/35/50
f 47/47/50 55/35/50 53/34/50
f 48/1/51 54/14/51 56/15/51
f 48/1/51 56/15/51 50/2/51
f 51/36/53 52/16/53 56/15/53
f 51/36/53 56/15/53 55/35/53
f 53/34/54 55/35/54 54/14/54
f 54/14/54 55/35/54 56/15/54
