# exported by ae3d_export.py v2
# object: Zombie_EyeR
mtllib Zombie_EyeR.mtl
v -0.030000 -0.022000 -0.025000
v -0.030000 -0.022000 0.025000
v -0.030000 0.022000 -0.025000
v -0.030000 0.022000 0.025000
v 0.012000 -0.022000 -0.025000
v 0.012000 -0.022000 0.025000
v 0.012000 0.022000 -0.025000
v 0.012000 0.022000 0.025000
vt -0.300000 -0.250000
vt -0.300000 -0.220000
vt -0.300000 0.220000
vt -0.300000 0.250000
vt -0.250000 -0.220000
vt -0.250000 0.220000
vt 0.120000 -0.250000
vt 0.120000 -0.220000
vt 0.120000 0.220000
vt 0.120000 0.250000
vt 0.250000 -0.220000
vt 0.250000 0.220000
vn -1.000000 0.000000 0.000000
vn 0.000000 -1.000000 0.000000
vn 0.000000 0.000000 -1.000000
vn 0.000000 0.000000 1.000000
vn 0.000000 1.000000 0.000000
vn 1.000000 0.000000 0.000000
usemtl ZombieGore
f 1/2/3 3/3/3 5/8/3
f 1/4/2 5/10/2 2/1/2
f 1/11/1 2/5/1 4/6/1
f 1/11/1 4/6/1 3/12/1
f 2/1/2 5/10/2 6/7/2
f 2/2/4 6/8/4 8/9/4
f 2/2/4 8/9/4 4/3/4
f 3/3/3 7/9/3 5/8/3
f 3/4/5 4/1/5 7/10/5
f 4/1/5 8/7/5 7/10/5
f 5/11/6 7/12/6 6/5/6
f 6/5/6 7/12/6 8/6/6
