# exported by ae3d_export.py v3
# object: Zombie_LegUpperR
mtllib Zombie_LegUpperR.mtl
v -0.102830 0.040048 -0.072782
v -0.102830 0.040048 0.072782
v -0.095248 0.061227 -0.074001
v -0.095248 0.061227 0.074001
v -0.094019 0.040048 -0.094019
v -0.094019 0.040048 0.094019
v -0.091116 0.057341 -0.091116
v -0.091116 0.057341 0.091116
v -0.079690 -0.370048 -0.049643
v -0.079690 -0.370048 0.049643
v -0.074520 0.070000 -0.074520
v -0.074520 0.070000 0.074520
v -0.074001 0.061227 -0.095248
v -0.074001 0.061227 0.095248
v -0.072782 0.040048 -0.102830
v -0.072782 0.040048 0.102830
v -0.070879 -0.370048 -0.070879
v -0.070879 -0.370048 0.070879
v -0.069718 -0.391227 -0.048471
v -0.069718 -0.391227 0.048471
v -0.066025 -0.387341 -0.066025
v -0.066025 -0.387341 0.066025
v -0.049643 -0.370048 -0.079690
v -0.049643 -0.370048 0.079690
v -0.048471 -0.391227 -0.069718
v -0.048471 -0.391227 0.069718
v -0.048000 -0.400000 -0.048000
v -0.048000 -0.400000 0.048000
v 0.048000 -0.400000 -0.048000
v 0.048000 -0.400000 0.048000
v 0.048471 -0.391227 -0.069718
v 0.048471 -0.391227 0.069718
v 0.049643 -0.370048 -0.079690
v 0.049643 -0.370048 0.079690
v 0.066025 -0.387341 -0.066025
v 0.066025 -0.387341 0.066025
v 0.069718 -0.391227 -0.048471
v 0.069718 -0.391227 0.048471
v 0.070879 -0.370048 -0.070879
v 0.070879 -0.370048 0.070879
v 0.072782 0.040048 -0.102830
v 0.072782 0.040048 0.102830
v 0.074001 0.061227 -0.095248
v 0.074001 0.061227 0.095248
v 0.074520 0.070000 -0.074520
v 0.074520 0.070000 0.074520
v 0.079690 -0.370048 -0.049643
v 0.079690 -0.370048 0.049643
v 0.091116 0.057341 -0.091116
v 0.091116 0.057341 0.091116
v 0.094019 0.040048 -0.094019
v 0.094019 0.040048 0.094019
v 0.095248 0.061227 -0.074001
v 0.095248 0.061227 0.074001
v 0.102830 0.040048 -0.072782
v 0.102830 0.040048 0.072782
vt -0.333368 -0.259004
vt -0.333368 0.259004
vt -0.329068 0.140167
vt -0.318907 -0.318907
vt -0.318907 0.200692
vt -0.318907 0.318907
vt -0.260820 -0.260820
vt -0.260820 0.260820
vt -0.259004 -0.333368
vt -0.259004 0.214295
vt -0.259004 0.333368
vt -0.254738 0.140167
vt -0.248078 -1.295167
vt -0.244013 -0.169649
vt -0.244013 0.169649
vt -0.231087 -1.355692
vt -0.231087 -0.231087
vt -0.231087 0.231087
vt -0.173749 -1.295167
vt -0.169649 -1.369295
vt -0.169649 -0.244013
vt -0.169649 0.244013
vt -0.168000 -0.168000
vt -0.168000 0.168000
vt 0.168000 -0.168000
vt 0.168000 0.168000
vt 0.169649 -1.369295
vt 0.169649 -0.244013
vt 0.169649 0.244013
vt 0.173749 -1.295167
vt 0.231087 -1.355692
vt 0.231087 -0.231087
vt 0.231087 0.231087
vt 0.244013 -0.169649
vt 0.244013 0.169649
vt 0.248078 -1.295167
vt 0.254738 0.140167
vt 0.259004 -0.333368
vt 0.259004 0.214295
vt 0.259004 0.333368
vt 0.260820 -0.260820
vt 0.260820 0.260820
vt 0.318907 -0.318907
vt 0.318907 0.200692
vt 0.318907 0.318907
vt 0.329068 0.140167
vt 0.333368 -0.259004
vt 0.333368 0.259004
vn -0.998412 -0.056336 0.000000
vn -0.941492 0.337037 0.000000
vn -0.921164 -0.073541 -0.382163
vn -0.921164 -0.073541 0.382163
vn -0.906190 0.261516 0.332310
vn -0.906189 0.261516 -0.332310
vn -0.904734 -0.425978 0.000000
vn -0.866925 -0.383895 0.317910
vn -0.866925 -0.383894 -0.317910
vn -0.389764 0.920915 0.000000
vn -0.382163 -0.073541 -0.921164
vn -0.382163 -0.073541 0.921164
vn -0.374539 -0.927211 0.000000
vn -0.335679 0.880136 -0.335679
vn -0.335679 0.880136 0.335679
vn -0.332310 0.261516 -0.906190
vn -0.332310 0.261516 0.906190
vn -0.317910 -0.383895 -0.866925
vn -0.317910 -0.383895 0.866925
vn -0.314515 -0.895634 -0.314515
vn -0.314515 -0.895634 0.314515
vn 0.000000 -1.000000 0.000000
vn 0.000000 -0.927211 -0.374539
vn 0.000000 -0.927211 0.374539
vn 0.000000 -0.425978 -0.904733
vn 0.000000 -0.425978 0.904733
vn 0.000000 -0.056336 -0.998412
vn 0.000000 -0.056336 0.998412
vn 0.000000 0.337037 -0.941492
vn 0.000000 0.337037 0.941492
vn 0.000000 0.920915 -0.389764
vn 0.000000 0.920915 0.389764
vn 0.000000 1.000000 0.000000
vn 0.314515 -0.895634 -0.314515
vn 0.314515 -0.895634 0.314515
vn 0.317910 -0.383895 -0.866925
vn 0.317910 -0.383895 0.866925
vn 0.332310 0.261516 -0.906190
vn 0.332310 0.261516 0.906190
vn 0.335679 0.880136 -0.335679
vn 0.335679 0.880136 0.335679
vn 0.374539 -0.927211 0.000000
vn 0.382163 -0.073541 -0.921164
vn 0.382163 -0.073541 0.921164
vn 0.389764 0.920915 0.000000
vn 0.866925 -0.383895 -0.317910
vn 0.866925 -0.383894 0.317910
vn 0.904734 -0.425978 0.000000
vn 0.906189 0.261516 0.332310
vn 0.906190 0.261516 -0.332310
vn 0.921164 -0.073541 -0.382163
vn 0.921164 -0.073541 0.382163
vn 0.941492 0.337037 0.000000
vn 0.998412 -0.056336 0.000000
usemtl ZombieCloth
f 1/37/1 9/30/1 2/12/1
f 1/37/2 2/12/2 4/10/2
f 1/37/2 4/10/2 3/39/2
f 1/37/3 5/46/3 17/36/3
f 1/37/3 17/36/3 9/30/3
f 1/37/6 3/39/6 7/44/6
f 1/37/6 7/44/6 5/46/6
f 2/12/1 9/30/1 10/19/1
f 2/12/4 10/19/4 18/13/4
f 2/12/4 18/13/4 6/3/4
f 2/12/5 6/3/5 8/5/5
f 2/12/5 8/5/5 4/10/5
f 3/2/10 4/1/10 11/8/10
f 3/2/14 11/8/14 7/6/14
f 4/1/10 12/7/10 11/8/10
f 4/1/15 8/4/15 12/7/15
f 5/3/11 15/12/11 17/13/11
f 5/3/16 7/5/16 15/12/16
f 6/3/12 18/13/12 16/12/12
f 6/3/17 16/12/17 8/5/17
f 7/5/16 13/10/16 15/12/16
f 7/6/14 11/8/14 13/11/14
f 8/4/15 14/9/15 12/7/15
f 8/5/17 16/12/17 14/10/17
f 9/30/7 19/27/7 20/20/7
f 9/30/7 20/20/7 10/19/7
f 9/30/9 17/36/9 21/31/9
f 9/30/9 21/31/9 19/27/9
f 10/19/8 20/20/8 22/16/8
f 10/19/8 22/16/8 18/13/8
f 11/8/31 45/42/31 13/11/31
f 11/8/33 12/7/33 45/42/33
f 12/7/32 14/9/32 44/38/32
f 12/7/32 44/38/32 46/41/32
f 12/7/33 46/41/33 45/42/33
f 13/10/29 41/37/29 15/12/29
f 13/10/29 43/39/29 41/37/29
f 13/11/31 45/42/31 43/40/31
f 14/10/30 16/12/30 44/39/30
f 15/12/11 23/19/11 17/13/11
f 15/12/27 33/30/27 23/19/27
f 15/12/27 41/37/27 33/30/27
f 16/12/12 18/13/12 24/19/12
f 16/12/28 24/19/28 42/37/28
f 16/12/30 42/37/30 44/39/30
f 17/13/18 23/19/18 21/16/18
f 18/13/19 22/16/19 24/19/19
f 19/15/13 27/24/13 20/14/13
f 19/15/20 21/18/20 27/24/20
f 20/14/13 27/24/13 28/23/13
f 20/14/21 28/23/21 22/17/21
f 21/16/18 23/19/18 25/20/18
f 21/18/20 25/22/20 27/24/20
f 22/16/19 26/20/19 24/19/19
f 22/17/21 28/23/21 26/21/21
f 23/19/25 33/30/25 25/20/25
f 24/19/26 26/20/26 32/27/26
f 24/19/26 32/27/26 34/30/26
f 24/19/28 34/30/28 42/37/28
f 25/20/25 33/30/25 31/27/25
f 25/22/23 29/26/23 27/24/23
f 25/22/23 31/29/23 29/26/23
f 26/21/24 28/23/24 32/28/24
f 27/24/22 29/26/22 28/23/22
f 28/23/22 29/26/22 30/25/22
f 28/23/24 30/25/24 32/28/24
f 29/26/34 31/29/34 35/33/34
f 29/26/34 35/33/34 37/35/34
f 29/26/42 37/35/42 30/25/42
f 30/25/35 36/32/35 32/28/35
f 30/25/35 38/34/35 36/32/35
f 30/25/42 37/35/42 38/34/42
f 31/27/36 33/30/36 35/31/36
f 32/27/37 36/31/37 34/30/37
f 33/30/36 39/36/36 35/31/36
f 33/30/43 41/37/43 39/36/43
f 34/30/37 36/31/37 40/36/37
f 34/30/44 40/36/44 42/37/44
f 35/31/46 39/36/46 47/30/46
f 35/31/46 47/30/46 37/27/46
f 36/16/47 38/20/47 48/19/47
f 36/16/47 48/19/47 40/13/47
f 37/27/48 47/30/48 48/19/48
f 37/27/48 48/19/48 38/20/48
f 39/36/43 41/37/43 51/46/43
f 39/36/51 51/46/51 55/37/51
f 39/36/51 55/37/51 47/30/51
f 40/13/52 48/19/52 56/12/52
f 40/13/52 56/12/52 52/3/52
f 40/36/44 52/46/44 42/37/44
f 41/37/38 43/39/38 49/44/38
f 41/37/38 49/44/38 51/46/38
f 42/37/39 50/44/39 44/39/39
f 42/37/39 52/46/39 50/44/39
f 43/40/40 45/42/40 49/45/40
f 44/38/41 50/43/41 46/41/41
f 45/42/40 53/48/40 49/45/40
f 45/42/45 46/41/45 53/48/45
f 46/41/41 50/43/41 54/47/41
f 46/41/45 54/47/45 53/48/45
f 47/30/54 55/37/54 48/19/54
f 48/19/54 55/37/54 56/12/54
f 49/44/50 53/39/50 55/37/50
f 49/44/50 55/37/50 51/46/50
f 50/5/49 52/3/49 56/12/49
f 50/5/49 56/12/49 54/10/49
f 53/39/53 54/10/53 56/12/53
f 53/39/53 56/12/53 55/37/53
