# exported by ae3d_export.py v2
# object: Zombie_LegUpperL
mtllib Zombie_LegUpperL.mtl
v -0.078000 -0.370000 -0.048000
v -0.078000 -0.370000 0.048000
v -0.078000 0.040000 -0.048000
v -0.078000 0.040000 0.048000
v -0.069213 -0.391213 -0.048000
v -0.069213 -0.391213 0.048000
v -0.069213 -0.370000 -0.069213
v -0.069213 -0.370000 0.069213
v -0.069213 0.040000 -0.069213
v -0.069213 0.040000 0.069213
v -0.069213 0.061213 -0.048000
v -0.069213 0.061213 0.048000
v -0.065321 -0.387321 -0.065321
v -0.065321 -0.387321 0.065321
v -0.065321 0.057321 -0.065321
v -0.065321 0.057321 0.065321
v -0.048000 -0.400000 -0.048000
v -0.048000 -0.400000 0.048000
v -0.048000 -0.391213 -0.069213
v -0.048000 -0.391213 0.069213
v -0.048000 -0.370000 -0.078000
v -0.048000 -0.370000 0.078000
v -0.048000 0.040000 -0.078000
v -0.048000 0.040000 0.078000
v -0.048000 0.061213 -0.069213
v -0.048000 0.061213 0.069213
v -0.048000 0.070000 -0.048000
v -0.048000 0.070000 0.048000
v 0.048000 -0.400000 -0.048000
v 0.048000 -0.400000 0.048000
v 0.048000 -0.391213 -0.069213
v 0.048000 -0.391213 0.069213
v 0.048000 -0.370000 -0.078000
v 0.048000 -0.370000 0.078000
v 0.048000 0.040000 -0.078000
v 0.048000 0.040000 0.078000
v 0.048000 0.061213 -0.069213
v 0.048000 0.061213 0.069213
v 0.048000 0.070000 -0.048000
v 0.048000 0.070000 0.048000
v 0.065321 -0.387321 -0.065321
v 0.065321 -0.387321 0.065321
v 0.065321 0.057321 -0.065321
v 0.065321 0.057321 0.065321
v 0.069213 -0.391213 -0.048000
v 0.069213 -0.391213 0.048000
v 0.069213 -0.370000 -0.069213
v 0.069213 -0.370000 0.069213
v 0.069213 0.040000 -0.069213
v 0.069213 0.040000 0.069213
v 0.069213 0.061213 -0.048000
v 0.069213 0.061213 0.048000
v 0.078000 -0.370000 -0.048000
v 0.078000 -0.370000 0.048000
v 0.078000 0.040000 -0.048000
v 0.078000 0.040000 0.048000
vt -0.242246 -1.295000
vt -0.242246 -0.168000
vt -0.242246 0.140000
vt -0.242246 0.168000
vt -0.228622 -1.355622
vt -0.228622 -0.228622
vt -0.228622 0.200622
vt -0.228622 0.228622
vt -0.168000 -1.369246
vt -0.168000 -1.295000
vt -0.168000 -0.242246
vt -0.168000 -0.168000
vt -0.168000 0.140000
vt -0.168000 0.168000
vt -0.168000 0.214246
vt -0.168000 0.242246
vt 0.168000 -1.369246
vt 0.168000 -1.295000
vt 0.168000 -0.242246
vt 0.168000 -0.168000
vt 0.168000 0.140000
vt 0.168000 0.168000
vt 0.168000 0.214246
vt 0.168000 0.242246
vt 0.228622 -1.355622
vt 0.228622 -0.228622
vt 0.228622 0.200622
vt 0.228622 0.228622
vt 0.242246 -1.295000
vt 0.242246 -0.168000
vt 0.242246 0.140000
vt 0.242246 0.168000
vn -1.000000 0.000000 0.000000
vn -0.923880 0.000000 -0.382683
vn -0.923880 0.000000 0.382683
vn -0.923880 0.382683 0.000000
vn -0.923879 -0.382684 0.000000
vn -0.888074 0.325057 -0.325058
vn -0.888074 0.325057 0.325058
vn -0.888073 -0.325058 -0.325059
vn -0.888073 -0.325058 0.325058
vn -0.382685 -0.923879 0.000000
vn -0.382683 0.000000 -0.923880
vn -0.382683 0.000000 0.923880
vn -0.382683 0.923880 0.000000
vn -0.325059 -0.888073 -0.325057
vn -0.325058 -0.888074 0.325057
vn -0.325058 0.325058 -0.888074
vn -0.325058 0.325058 0.888074
vn -0.325058 0.888074 -0.325058
vn -0.325058 0.888074 0.325058
vn -0.325057 -0.325058 -0.888074
vn -0.325057 -0.325058 0.888074
vn 0.000000 -1.000000 0.000000
vn 0.000000 -0.923879 -0.382683
vn 0.000000 -0.923879 0.382683
vn 0.000000 -0.382683 -0.923880
vn 0.000000 -0.382683 0.923880
vn 0.000000 0.000000 -1.000000
vn 0.000000 0.000000 1.000000
vn 0.000000 0.382683 -0.923880
vn 0.000000 0.382683 0.923880
vn 0.000000 0.923880 -0.382683
vn 0.000000 0.923880 0.382683
vn 0.000000 1.000000 0.000000
vn 0.325057 -0.325058 -0.888074
vn 0.325057 -0.325058 0.888074
vn 0.325058 -0.888074 -0.325057
vn 0.325058 0.325058 -0.888074
vn 0.325058 0.325058 0.888074
vn 0.325058 0.888074 -0.325058
vn 0.325058 0.888074 0.325058
vn 0.325059 -0.888073 0.325057
vn 0.382683 0.000000 -0.923880
vn 0.382683 0.000000 0.923880
vn 0.382683 0.923880 0.000000
vn 0.382685 -0.923879 0.000000
vn 0.888073 -0.325058 -0.325058
vn 0.888073 -0.325058 0.325059
vn 0.888074 0.325057 -0.325058
vn 0.888074 0.325057 0.325058
vn 0.923879 -0.382684 0.000000
vn 0.923880 0.000000 -0.382683
vn 0.923880 0.000000 0.382683
vn 0.923880 0.382683 0.000000
vn 1.000000 0.000000 0.000000
usemtl ZombieCloth
f 1/18/1 2/10/1 4/13/1
f 1/18/1 4/13/1 3/21/1
f 1/18/2 3/21/2 9/31/2
f 1/18/2 9/31/2 7/29/2
f 1/18/5 5/17/5 2/10/5
f 1/18/8 7/29/8 13/25/8
f 1/18/8 13/25/8 5/17/8
f 2/10/3 8/1/3 4/13/3
f 2/10/5 5/17/5 6/9/5
f 2/10/9 6/9/9 14/5/9
f 2/10/9 14/5/9 8/1/9
f 3/21/4 4/13/4 12/15/4
f 3/21/4 12/15/4 11/23/4
f 3/21/6 11/23/6 15/27/6
f 3/21/6 15/27/6 9/31/6
f 4/13/3 8/1/3 10/3/3
f 4/13/7 10/3/7 16/7/7
f 4/13/7 16/7/7 12/15/7
f 5/4/10 17/14/10 6/2/10
f 5/4/14 13/8/14 17/14/14
f 6/2/10 17/14/10 18/12/10
f 6/2/15 18/12/15 14/6/15
f 7/1/11 9/3/11 23/13/11
f 7/1/11 23/13/11 21/10/11
f 7/1/20 21/10/20 13/5/20
f 8/1/12 22/10/12 10/3/12
f 8/1/21 14/5/21 22/10/21
f 9/3/16 15/7/16 23/13/16
f 10/3/12 22/10/12 24/13/12
f 10/3/17 24/13/17 16/7/17
f 11/4/13 12/2/13 28/12/13
f 11/4/13 28/12/13 27/14/13
f 11/4/18 27/14/18 15/8/18
f 12/2/19 16/6/19 28/12/19
f 13/5/20 21/10/20 19/9/20
f 13/8/14 19/16/14 17/14/14
f 14/5/21 20/9/21 22/10/21
f 14/6/15 18/12/15 20/11/15
f 15/7/16 25/15/16 23/13/16
f 15/8/18 27/14/18 25/16/18
f 16/6/19 26/11/19 28/12/19
f 16/7/17 24/13/17 26/15/17
f 17/14/22 29/22/22 18/12/22
f 17/14/23 19/16/23 29/22/23
f 18/12/22 29/22/22 30/20/22
f 18/12/24 30/20/24 32/19/24
f 18/12/24 32/19/24 20/11/24
f 19/9/25 21/10/25 31/17/25
f 19/16/23 31/24/23 29/22/23
f 20/9/26 32/17/26 34/18/26
f 20/9/26 34/18/26 22/10/26
f 21/10/25 33/18/25 31/17/25
f 21/10/27 23/13/27 33/18/27
f 22/10/28 34/18/28 36/21/28
f 22/10/28 36/21/28 24/13/28
f 23/13/27 35/21/27 33/18/27
f 23/13/29 25/15/29 35/21/29
f 24/13/30 36/21/30 38/23/30
f 24/13/30 38/23/30 26/15/30
f 25/15/29 37/23/29 35/21/29
f 25/16/31 27/14/31 37/24/31
f 26/11/32 38/19/32 40/20/32
f 26/11/32 40/20/32 28/12/32
f 27/14/31 39/22/31 37/24/31
f 27/14/33 28/12/33 39/22/33
f 28/12/33 40/20/33 39/22/33
f 29/22/36 31/24/36 41/28/36
f 29/22/36 41/28/36 45/32/36
f 29/22/45 45/32/45 30/20/45
f 30/20/41 42/26/41 32/19/41
f 30/20/41 46/30/41 42/26/41
f 30/20/45 45/32/45 46/30/45
f 31/17/34 33/18/34 41/25/34
f 32/17/35 42/25/35 34/18/35
f 33/18/34 47/29/34 41/25/34
f 33/18/42 35/21/42 49/31/42
f 33/18/42 49/31/42 47/29/42
f 34/18/35 42/25/35 48/29/35
f 34/18/43 48/29/43 36/21/43
f 35/21/37 37/23/37 43/27/37
f 35/21/37 43/27/37 49/31/37
f 36/21/38 44/27/38 38/23/38
f 36/21/38 50/31/38 44/27/38
f 36/21/43 48/29/43 50/31/43
f 37/24/39 39/22/39 43/28/39
f 38/19/40 44/26/40 40/20/40
f 39/22/39 51/32/39 43/28/39
f 39/22/44 40/20/44 52/30/44
f 39/22/44 52/30/44 51/32/44
f 40/20/40 44/26/40 52/30/40
f 41/25/46 47/29/46 53/18/46
f 41/25/46 53/18/46 45/17/46
f 42/5/47 46/9/47 54/10/47
f 42/5/47 54/10/47 48/1/47
f 43/27/48 51/23/48 55/21/48
f 43/27/48 55/21/48 49/31/48
f 44/7/49 50/3/49 56/13/49
f 44/7/49 56/13/49 52/15/49
f 45/17/50 53/18/50 46/9/50
f 46/9/50 53/18/50 54/10/50
f 47/29/51 49/31/51 55/21/51
f 47/29/51 55/21/51 53/18/51
f 48/1/52 54/10/52 50/3/52
f 50/3/52 54/10/52 56/13/52
f 51/23/53 52/15/53 56/13/53
f 51/23/53 56/13/53 55/21/53
f 53/18/54 55/21/54 54/10/54
f 54/10/54 55/21/54 56/13/54
