# exported by ae3d_export.py v2
# object: Zombie_Neck
mtllib Zombie_Neck.mtl
v -0.061237 -0.010015 -0.041223
v -0.061237 -0.010015 0.041223
v -0.057803 0.080015 -0.037788
v -0.057803 0.080015 0.037788
v -0.055922 -0.024146 -0.041769
v -0.055922 -0.024146 0.041769
v -0.055372 -0.010015 -0.055372
v -0.055372 -0.010015 0.055372
v -0.053222 -0.021553 -0.053222
v -0.053222 -0.021553 0.053222
v -0.051937 0.080015 -0.051937
v -0.051937 0.080015 0.051937
v -0.051408 0.094146 -0.037256
v -0.051408 0.094146 0.037256
v -0.048906 0.091553 -0.048906
v -0.048906 0.091553 0.048906
v -0.042000 -0.030000 -0.042000
v -0.042000 -0.030000 0.042000
v -0.041769 -0.024146 -0.055922
v -0.041769 -0.024146 0.055922
v -0.041223 -0.010015 -0.061237
v -0.041223 -0.010015 0.061237
v -0.037788 0.080015 -0.057803
v -0.037788 0.080015 0.057803
v -0.037256 0.094146 -0.051408
v -0.037256 0.094146 0.051408
v -0.037040 0.100000 -0.037040
v -0.037040 0.100000 0.037040
v 0.037040 0.100000 -0.037040
v 0.037040 0.100000 0.037040
v 0.037256 0.094146 -0.051408
v 0.037256 0.094146 0.051408
v 0.037788 0.080015 -0.057803
v 0.037788 0.080015 0.057803
v 0.041223 -0.010015 -0.061237
v 0.041223 -0.010015 0.061237
v 0.041769 -0.024146 -0.055922
v 0.041769 -0.024146 0.055922
v 0.042000 -0.030000 -0.042000
v 0.042000 -0.030000 0.042000
v 0.048906 0.091553 -0.048906
v 0.048906 0.091553 0.048906
v 0.051408 0.094146 -0.037256
v 0.051408 0.094146 0.037256
v 0.051937 0.080015 -0.051937
v 0.051937 0.080015 0.051937
v 0.053222 -0.021553 -0.053222
v 0.053222 -0.021553 0.053222
v 0.055372 -0.010015 -0.055372
v 0.055372 -0.010015 0.055372
v 0.055922 -0.024146 -0.041769
v 0.055922 -0.024146 0.041769
v 0.057803 0.080015 -0.037788
v 0.057803 0.080015 0.037788
v 0.061237 -0.010015 -0.041223
v 0.061237 -0.010015 0.041223
vt -0.335531 -0.250616
vt -0.335531 0.250616
vt -0.332234 -0.060087
vt -0.319330 -0.319330
vt -0.319330 -0.129319
vt -0.319330 0.319330
vt -0.311624 0.480087
vt -0.308451 -0.223536
vt -0.308451 0.223536
vt -0.293437 -0.293437
vt -0.293437 0.293437
vt -0.293437 0.549319
vt -0.252000 -0.252000
vt -0.252000 0.252000
vt -0.250616 -0.335531
vt -0.250616 -0.144878
vt -0.250616 0.335531
vt -0.247338 -0.060087
vt -0.226728 0.480087
vt -0.223536 -0.308451
vt -0.223536 0.308451
vt -0.223536 0.564878
vt -0.222240 -0.222240
vt -0.222240 0.222240
vt 0.222240 -0.222240
vt 0.222240 0.222240
vt 0.223536 -0.308451
vt 0.223536 0.308451
vt 0.223536 0.564878
vt 0.226728 0.480087
vt 0.247338 -0.060087
vt 0.250616 -0.335531
vt 0.250616 -0.144878
vt 0.250616 0.335531
vt 0.252000 -0.252000
vt 0.252000 0.252000
vt 0.293437 -0.293437
vt 0.293437 0.293437
vt 0.293437 0.549319
vt 0.308451 -0.223536
vt 0.308451 0.223536
vt 0.311624 0.480087
vt 0.319330 -0.319330
vt 0.319330 -0.129319
vt 0.319330 0.319330
vt 0.332234 -0.060087
vt 0.335531 -0.250616
vt 0.335531 0.250616
vn -0.999273 0.038126 0.000000
vn -0.935975 -0.352065 0.000000
vn -0.922635 0.049794 -0.382446
vn -0.922635 0.049794 0.382446
vn -0.911083 0.412224 0.000000
vn -0.900703 -0.282594 -0.329963
vn -0.900703 -0.282594 0.329963
vn -0.874059 0.365366 0.320203
vn -0.874058 0.365366 -0.320203
vn -0.387595 -0.921830 0.000000
vn -0.382446 0.049794 -0.922635
vn -0.382445 0.049794 0.922635
vn -0.377284 0.926097 0.000000
vn -0.332234 -0.882746 -0.332234
vn -0.332233 -0.882747 0.332234
vn -0.329963 -0.282594 -0.900703
vn -0.329963 -0.282593 0.900703
vn -0.320203 0.365366 -0.874058
vn -0.320203 0.365366 0.874058
vn -0.317918 0.893228 -0.317918
vn -0.317918 0.893228 0.317918
vn 0.000000 -1.000000 0.000000
vn 0.000000 -0.921830 -0.387595
vn 0.000000 -0.921830 0.387595
vn 0.000000 -0.352065 -0.935975
vn 0.000000 -0.352065 0.935975
vn 0.000000 0.038126 -0.999273
vn 0.000000 0.038126 0.999273
vn 0.000000 0.412224 -0.911082
vn 0.000000 0.412224 0.911082
vn 0.000000 0.926097 -0.377284
vn 0.000000 0.926097 0.377284
vn 0.000000 1.000000 0.000000
vn 0.317918 0.893228 -0.317918
vn 0.317918 0.893228 0.317918
vn 0.320203 0.365366 -0.874058
vn 0.320203 0.365366 0.874058
vn 0.329963 -0.282594 0.900703
vn 0.329963 -0.282593 -0.900703
vn 0.332233 -0.882747 -0.332234
vn 0.332234 -0.882747 0.332234
vn 0.377285 0.926097 0.000000
vn 0.382445 0.049794 -0.922635
vn 0.382445 0.049794 0.922635
vn 0.387595 -0.921830 0.000000
vn 0.874059 0.365365 0.320203
vn 0.874059 0.365366 -0.320203
vn 0.900703 -0.282594 -0.329963
vn 0.900703 -0.282593 0.329963
vn 0.911082 0.412224 0.000000
vn 0.922635 0.049794 -0.382446
vn 0.922635 0.049794 0.382446
vn 0.935975 -0.352065 0.000000
vn 0.999273 0.038126 0.000000
usemtl ZombieSkin
f 1/31/1 2/18/1 4/19/1
f 1/31/1 4/19/1 3/30/1
f 1/31/2 5/33/2 2/18/2
f 1/31/3 3/30/3 11/42/3
f 1/31/3 11/42/3 7/46/3
f 1/31/6 7/46/6 9/44/6
f 1/31/6 9/44/6 5/33/6
f 2/18/2 5/33/2 6/16/2
f 2/18/4 8/3/4 12/7/4
f 2/18/4 12/7/4 4/19/4
f 2/18/7 6/16/7 10/5/7
f 2/18/7 10/5/7 8/3/7
f 3/30/5 4/19/5 13/29/5
f 3/30/9 13/29/9 15/39/9
f 3/30/9 15/39/9 11/42/9
f 4/19/5 14/22/5 13/29/5
f 4/19/8 12/7/8 16/12/8
f 4/19/8 16/12/8 14/22/8
f 5/2/10 17/14/10 6/1/10
f 5/2/14 9/6/14 17/14/14
f 6/1/10 17/14/10 18/13/10
f 6/1/15 18/13/15 10/4/15
f 7/3/11 11/7/11 21/18/11
f 7/3/16 21/18/16 9/5/16
f 8/3/12 22/18/12 12/7/12
f 8/3/17 10/5/17 22/18/17
f 9/5/16 21/18/16 19/16/16
f 9/6/14 19/17/14 17/14/14
f 10/4/15 18/13/15 20/15/15
f 10/5/17 20/16/17 22/18/17
f 11/7/11 23/19/11 21/18/11
f 11/7/18 15/12/18 23/19/18
f 12/7/12 22/18/12 24/19/12
f 12/7/19 24/19/19 16/12/19
f 13/9/13 14/8/13 28/23/13
f 13/9/13 28/23/13 27/24/13
f 13/9/20 27/24/20 15/11/20
f 14/8/21 16/10/21 28/23/21
f 15/11/20 27/24/20 25/21/20
f 15/12/18 25/22/18 23/19/18
f 16/10/21 26/20/21 28/23/21
f 16/12/19 24/19/19 26/22/19
f 17/14/22 39/36/22 18/13/22
f 17/14/23 19/17/23 39/36/23
f 18/13/22 39/36/22 40/35/22
f 18/13/24 38/32/24 20/15/24
f 18/13/24 40/35/24 38/32/24
f 19/16/25 21/18/25 37/33/25
f 19/17/23 37/34/23 39/36/23
f 20/16/26 36/31/26 22/18/26
f 20/16/26 38/33/26 36/31/26
f 21/18/25 35/31/25 37/33/25
f 21/18/27 23/19/27 35/31/27
f 22/18/28 34/30/28 24/19/28
f 22/18/28 36/31/28 34/30/28
f 23/19/27 33/30/27 35/31/27
f 23/19/29 25/22/29 31/29/29
f 23/19/29 31/29/29 33/30/29
f 24/19/30 32/29/30 26/22/30
f 24/19/30 34/30/30 32/29/30
f 25/21/31 27/24/31 29/26/31
f 25/21/31 29/26/31 31/28/31
f 26/20/32 30/25/32 28/23/32
f 26/20/32 32/27/32 30/25/32
f 27/24/33 28/23/33 29/26/33
f 28/23/33 30/25/33 29/26/33
f 29/26/34 41/38/34 31/28/34
f 29/26/34 43/41/34 41/38/34
f 29/26/42 30/25/42 44/40/42
f 29/26/42 44/40/42 43/41/42
f 30/25/35 32/27/35 42/37/35
f 30/25/35 42/37/35 44/40/35
f 31/29/36 41/39/36 33/30/36
f 32/29/37 34/30/37 42/39/37
f 33/30/36 41/39/36 45/42/36
f 33/30/43 45/42/43 35/31/43
f 34/30/37 46/42/37 42/39/37
f 34/30/44 36/31/44 46/42/44
f 35/31/39 47/44/39 37/33/39
f 35/31/39 49/46/39 47/44/39
f 35/31/43 45/42/43 49/46/43
f 36/31/38 38/33/38 48/44/38
f 36/31/38 48/44/38 50/46/38
f 36/31/44 50/46/44 46/42/44
f 37/34/40 47/45/40 39/36/40
f 38/32/41 40/35/41 48/43/41
f 39/36/40 47/45/40 51/48/40
f 39/36/45 51/48/45 40/35/45
f 40/35/41 52/47/41 48/43/41
f 40/35/45 51/48/45 52/47/45
f 41/39/47 43/29/47 53/30/47
f 41/39/47 53/30/47 45/42/47
f 42/12/46 46/7/46 54/19/46
f 42/12/46 54/19/46 44/22/46
f 43/29/50 44/22/50 54/19/50
f 43/29/50 54/19/50 53/30/50
f 45/42/51 53/30/51 55/31/51
f 45/42/51 55/31/51 49/46/51
f 46/7/52 50/3/52 56/18/52
f 46/7/52 56/18/52 54/19/52
f 47/44/48 49/46/48 55/31/48
f 47/44/48 55/31/48 51/33/48
f 48/5/49 52/16/49 56/18/49
f 48/5/49 56/18/49 50/3/49
f 51/33/53 55/31/53 52/16/53
f 52/16/53 55/31/53 56/18/53
f 53/30/54 54/19/54 56/18/54
f 53/30/54 56/18/54 55/31/54
