# exported by ae3d_export.py v2
# object: Zombie_LegLowerL
mtllib Zombie_LegLowerL.mtl
v -0.083331 0.032024 -0.055308
v -0.083331 0.032024 0.055308
v -0.075947 0.051806 -0.056132
v -0.075947 0.051806 0.056132
v -0.075118 0.032024 -0.075118
v -0.075118 0.032024 0.075118
v -0.072155 0.048176 -0.072155
v -0.072155 0.048176 0.072155
v -0.067149 -0.362024 -0.039125
v -0.067149 -0.362024 0.039125
v -0.058936 -0.362024 -0.058936
v -0.058936 -0.362024 0.058936
v -0.058140 -0.381806 -0.038325
v -0.058140 -0.381806 0.038325
v -0.056480 0.060000 -0.056480
v -0.056480 0.060000 0.056480
v -0.056132 0.051806 -0.075947
v -0.056132 0.051806 0.075947
v -0.055308 0.032024 -0.083331
v -0.055308 0.032024 0.083331
v -0.054646 -0.378176 -0.054646
v -0.054646 -0.378176 0.054646
v -0.039125 -0.362024 -0.067149
v -0.039125 -0.362024 0.067149
v -0.038325 -0.381806 -0.058140
v -0.038325 -0.381806 0.058140
v -0.038000 -0.390000 -0.038000
v -0.038000 -0.390000 0.038000
v 0.038000 -0.390000 -0.038000
v 0.038000 -0.390000 0.038000
v 0.038325 -0.381806 -0.058140
v 0.038325 -0.381806 0.058140
v 0.039125 -0.362024 -0.067149
v 0.039125 -0.362024 0.067149
v 0.054646 -0.378176 -0.054646
v 0.054646 -0.378176 0.054646
v 0.055308 0.032024 -0.083331
v 0.055308 0.032024 0.083331
v 0.056132 0.051806 -0.075947
v 0.056132 0.051806 0.075947
v 0.056480 0.060000 -0.056480
v 0.056480 0.060000 0.056480
v 0.058140 -0.381806 -0.038325
v 0.058140 -0.381806 0.038325
v 0.058936 -0.362024 -0.058936
v 0.058936 -0.362024 0.058936
v 0.067149 -0.362024 -0.039125
v 0.067149 -0.362024 0.039125
v 0.072155 0.048176 -0.072155
v 0.072155 0.048176 0.072155
v 0.075118 0.032024 -0.075118
v 0.075118 0.032024 0.075118
v 0.075947 0.051806 -0.056132
v 0.075947 0.051806 0.056132
v 0.083331 0.032024 -0.055308
v 0.083331 0.032024 0.055308
vt -0.265816 -0.196461
vt -0.265816 0.196461
vt -0.262914 0.112083
vt -0.252543 -0.252543
vt -0.252543 0.168615
vt -0.252543 0.252543
vt -0.206276 -1.267083
vt -0.206276 -1.267082
vt -0.203491 -0.134137
vt -0.203491 0.134137
vt -0.197680 -0.197680
vt -0.197680 0.197680
vt -0.196461 -0.265816
vt -0.196461 0.181321
vt -0.196461 0.265816
vt -0.193576 0.112083
vt -0.191262 -1.323615
vt -0.191262 -0.191262
vt -0.191262 0.191262
vt -0.136939 -1.267082
vt -0.134137 -1.336321
vt -0.134137 -1.336320
vt -0.134137 -0.203491
vt -0.134137 0.203491
vt -0.133000 -0.133000
vt -0.133000 0.133000
vt 0.133000 -0.133000
vt 0.133000 0.133000
vt 0.134137 -1.336321
vt 0.134137 -1.336320
vt 0.134137 -0.203491
vt 0.134137 0.203491
vt 0.136939 -1.267082
vt 0.191262 -1.323615
vt 0.191262 -0.191262
vt 0.191262 0.191262
vt 0.193576 0.112083
vt 0.196461 -0.265816
vt 0.196461 0.181321
vt 0.196461 0.265816
vt 0.197680 -0.197680
vt 0.197680 0.197680
vt 0.203491 -0.134137
vt 0.203491 0.134137
vt 0.206276 -1.267083
vt 0.206276 -1.267082
vt 0.252543 -0.252543
vt 0.252543 0.168615
vt 0.252543 0.252543
vt 0.262914 0.112083
vt 0.265816 -0.196461
vt 0.265816 0.196461
vn -0.999158 -0.041032 0.000000
vn -0.936867 0.349685 0.000000
vn -0.922439 -0.053586 -0.382408
vn -0.922439 -0.053586 0.382408
vn -0.910079 -0.414435 0.000000
vn -0.901603 0.279265 -0.330338
vn -0.901603 0.279265 0.330338
vn -0.872939 -0.368353 0.319835
vn -0.872938 -0.368353 -0.319835
vn -0.387949 0.921681 0.000000
vn -0.382408 -0.053586 -0.922439
vn -0.382408 -0.053586 0.922439
vn -0.376856 -0.926272 0.000000
vn -0.332783 0.882333 -0.332783
vn -0.332783 0.882333 0.332783
vn -0.330338 0.279265 -0.901603
vn -0.330338 0.279265 0.901603
vn -0.319836 -0.368354 -0.872938
vn -0.319836 -0.368354 0.872938
vn -0.317375 -0.893614 -0.317375
vn -0.317375 -0.893614 0.317375
vn -0.000001 -0.926273 0.376854
vn 0.000000 -1.000000 0.000000
vn 0.000000 -0.926272 -0.376855
vn 0.000000 -0.414435 -0.910079
vn 0.000000 -0.414435 0.910079
vn 0.000000 -0.041032 -0.999158
vn 0.000000 -0.041032 0.999158
vn 0.000000 0.349685 -0.936867
vn 0.000000 0.349685 0.936867
vn 0.000000 0.921681 -0.387949
vn 0.000000 0.921681 0.387949
vn 0.000000 1.000000 0.000000
vn 0.317374 -0.893615 0.317374
vn 0.317375 -0.893614 -0.317375
vn 0.319835 -0.368353 0.872939
vn 0.319836 -0.368354 -0.872938
vn 0.330338 0.279265 -0.901603
vn 0.330338 0.279265 0.901603
vn 0.332783 0.882333 -0.332783
vn 0.332783 0.882333 0.332783
vn 0.376855 -0.926272 0.000000
vn 0.382408 -0.053586 -0.922439
vn 0.382408 -0.053586 0.922439
vn 0.387949 0.921681 0.000000
vn 0.872938 -0.368353 0.319835
vn 0.872939 -0.368353 -0.319835
vn 0.901603 0.279265 -0.330338
vn 0.901603 0.279265 0.330338
vn 0.910079 -0.414435 0.000000
vn 0.922439 -0.053586 -0.382408
vn 0.922439 -0.053586 0.382408
vn 0.936867 0.349685 0.000000
vn 0.999158 -0.041032 0.000000
usemtl ZombieCloth
f 1/37/1 9/33/1 2/16/1
f 1/37/2 2/16/2 3/39/2
f 1/37/3 5/50/3 11/46/3
f 1/37/3 11/46/3 9/33/3
f 1/37/6 3/39/6 7/48/6
f 1/37/6 7/48/6 5/50/6
f 2/16/1 9/33/1 10/20/1
f 2/16/2 4/14/2 3/39/2
f 2/16/4 10/20/4 12/8/4
f 2/16/4 12/8/4 6/3/4
f 2/16/7 6/3/7 8/5/7
f 2/16/7 8/5/7 4/14/7
f 3/2/10 4/1/10 16/11/10
f 3/2/10 16/11/10 15/12/10
f 3/2/14 15/12/14 7/6/14
f 4/1/15 8/4/15 16/11/15
f 5/3/11 19/16/11 11/8/11
f 5/3/16 7/5/16 19/16/16
f 6/3/12 12/8/12 20/16/12
f 6/3/17 20/16/17 8/5/17
f 7/5/16 17/14/16 19/16/16
f 7/6/14 15/12/14 17/15/14
f 8/4/15 18/13/15 16/11/15
f 8/5/17 20/16/17 18/14/17
f 9/33/5 13/30/5 10/20/5
f 9/33/9 11/46/9 21/34/9
f 9/33/9 21/34/9 13/30/9
f 10/20/5 13/30/5 14/22/5
f 10/20/8 14/22/8 22/17/8
f 10/20/8 22/17/8 12/8/8
f 11/8/11 19/16/11 23/20/11
f 11/8/18 23/20/18 21/17/18
f 12/8/12 24/20/12 20/16/12
f 12/8/19 22/17/19 24/20/19
f 13/10/13 27/26/13 14/9/13
f 13/10/20 21/19/20 27/26/20
f 14/9/13 27/26/13 28/25/13
f 14/9/21 28/25/21 22/18/21
f 15/12/31 41/42/31 17/15/31
f 15/12/33 16/11/33 41/42/33
f 16/11/32 18/13/32 42/41/32
f 16/11/33 42/41/33 41/42/33
f 17/14/29 39/39/29 19/16/29
f 17/15/31 41/42/31 39/40/31
f 18/13/32 40/38/32 42/41/32
f 18/14/30 20/16/30 38/37/30
f 18/14/30 38/37/30 40/39/30
f 19/16/27 33/33/27 23/20/27
f 19/16/27 37/37/27 33/33/27
f 19/16/29 39/39/29 37/37/29
f 20/16/28 24/20/28 38/37/28
f 21/17/18 23/20/18 25/22/18
f 21/19/20 25/24/20 27/26/20
f 22/17/19 26/22/19 24/20/19
f 22/18/21 28/25/21 26/23/21
f 23/20/25 31/30/25 25/22/25
f 23/20/25 33/33/25 31/30/25
f 24/20/26 26/22/26 34/33/26
f 24/20/28 34/33/28 38/37/28
f 25/24/24 29/28/24 27/26/24
f 25/24/24 31/32/24 29/28/24
f 26/22/26 32/29/26 34/33/26
f 26/23/22 28/25/22 32/31/22
f 27/26/23 29/28/23 28/25/23
f 28/25/22 30/27/22 32/31/22
f 28/25/23 29/28/23 30/27/23
f 29/28/35 31/32/35 35/36/35
f 29/28/35 35/36/35 43/44/35
f 29/28/42 43/44/42 44/43/42
f 29/28/42 44/43/42 30/27/42
f 30/27/34 36/35/34 32/31/34
f 30/27/34 44/43/34 36/35/34
f 31/30/37 33/33/37 35/34/37
f 32/29/36 36/34/36 34/33/36
f 33/33/37 45/46/37 35/34/37
f 33/33/43 37/37/43 45/46/43
f 34/33/36 36/34/36 46/45/36
f 34/33/44 46/45/44 38/37/44
f 35/34/47 45/46/47 47/33/47
f 35/34/47 47/33/47 43/30/47
f 36/17/46 44/21/46 48/20/46
f 36/17/46 48/20/46 46/7/46
f 37/37/38 39/39/38 49/48/38
f 37/37/38 49/48/38 51/50/38
f 37/37/43 51/50/43 45/46/43
f 38/37/39 50/48/39 40/39/39
f 38/37/39 52/50/39 50/48/39
f 38/37/44 46/45/44 52/50/44
f 39/40/40 41/42/40 49/49/40
f 40/38/41 50/47/41 42/41/41
f 41/42/40 53/52/40 49/49/40
f 41/42/45 42/41/45 54/51/45
f 41/42/45 54/51/45 53/52/45
f 42/41/41 50/47/41 54/51/41
f 43/30/50 47/33/50 48/20/50
f 43/30/50 48/20/50 44/21/50
f 45/46/51 51/50/51 55/37/51
f 45/46/51 55/37/51 47/33/51
f 46/7/52 48/20/52 56/16/52
f 46/7/52 56/16/52 52/3/52
f 47/33/54 55/37/54 48/20/54
f 48/20/54 55/37/54 56/16/54
f 49/48/48 53/39/48 55/37/48
f 49/48/48 55/37/48 51/50/48
f 50/5/49 52/3/49 56/16/49
f 50/5/49 56/16/49 54/14/49
f 53/39/53 54/14/53 55/37/53
f 54/14/53 56/16/53 55/37/53
