# exported by ae3d_export.py v2
# object: Zombie_HandR
mtllib Zombie_HandR.mtl
v -0.067343 0.020030 -0.020627
v -0.067343 0.020030 0.020627
v -0.062267 0.034155 -0.021101
v -0.062267 0.034155 0.021101
v -0.061469 0.020021 -0.034774
v -0.061469 0.020021 0.034774
v -0.059517 0.031556 -0.032565
v -0.059517 0.031556 0.032565
v -0.059097 -0.130030 -0.015651
v -0.059097 -0.130030 0.015651
v -0.053225 -0.130021 -0.029799
v -0.053225 -0.130021 0.029799
v -0.052470 -0.144155 -0.015188
v -0.052470 -0.144155 0.015188
v -0.050005 -0.141556 -0.026825
v -0.050005 -0.141556 0.026825
v -0.048440 0.040000 -0.021300
v -0.048440 0.040000 0.021300
v -0.048103 0.034141 -0.035250
v -0.048103 0.034141 0.035250
v -0.047312 0.020011 -0.040637
v -0.047312 0.020011 0.040637
v -0.039068 -0.130011 -0.035663
v -0.039068 -0.130011 0.035663
v -0.038307 -0.144141 -0.029339
v -0.038307 -0.144141 0.029339
v -0.038000 -0.150000 -0.015000
v -0.038000 -0.150000 0.015000
v 0.038000 -0.150000 -0.015000
v 0.038000 -0.150000 0.015000
v 0.038307 -0.144141 -0.029339
v 0.038307 -0.144141 0.029339
v 0.039068 -0.130011 -0.035663
v 0.039068 -0.130011 0.035663
v 0.047312 0.020011 -0.040637
v 0.047312 0.020011 0.040637
v 0.048103 0.034141 -0.035250
v 0.048103 0.034141 0.035250
v 0.048440 0.040000 -0.021300
v 0.048440 0.040000 0.021300
v 0.050005 -0.141556 -0.026825
v 0.050005 -0.141556 0.026825
v 0.052470 -0.144155 -0.015188
v 0.052470 -0.144155 0.015188
v 0.053225 -0.130021 -0.029799
v 0.053225 -0.130021 0.029799
v 0.059097 -0.130030 -0.015651
v 0.059097 -0.130030 0.015651
v 0.059517 0.031556 -0.032565
v 0.059517 0.031556 0.032565
v 0.061469 0.020021 -0.034774
v 0.061469 0.020021 0.034774
v 0.062267 0.034155 -0.021101
v 0.062267 0.034155 0.021101
v 0.067343 0.020030 -0.020627
v 0.067343 0.020030 0.020627
vt -0.373603 -0.126604
vt -0.373603 0.126604
vt -0.368815 0.120123
vt -0.357100 -0.195388
vt -0.357100 0.189334
vt -0.357100 0.195388
vt -0.319349 -0.780123
vt -0.314817 -0.091130
vt -0.314817 0.091130
vt -0.300028 -0.849334
vt -0.300028 -0.160948
vt -0.300028 0.160948
vt -0.290640 -0.127800
vt -0.290640 0.127800
vt -0.288618 -0.211501
vt -0.288618 0.204848
vt -0.288618 0.211501
vt -0.283869 0.120066
vt -0.234409 -0.780066
vt -0.229841 -0.864848
vt -0.229841 -0.176032
vt -0.229841 0.176032
vt -0.228000 -0.090000
vt -0.228000 0.090000
vt -0.208645 0.120123
vt -0.195388 0.189334
vt -0.178795 -0.780123
vt -0.160948 -0.849334
vt -0.126604 0.204930
vt -0.123761 0.120181
vt -0.093907 -0.780181
vt -0.091130 -0.864930
vt 0.091130 -0.864930
vt 0.093907 -0.780181
vt 0.123761 0.120181
vt 0.126604 0.204930
vt 0.160948 -0.849334
vt 0.178795 -0.780123
vt 0.195388 0.189334
vt 0.208645 0.120123
vt 0.228000 -0.090000
vt 0.228000 0.090000
vt 0.229841 -0.864848
vt 0.229841 -0.176032
vt 0.229841 0.176032
vt 0.234409 -0.780066
vt 0.283869 0.120066
vt 0.288618 -0.211501
vt 0.288618 0.204848
vt 0.288618 0.211501
vt 0.290640 -0.127800
vt 0.290640 0.127800
vt 0.300028 -0.849334
vt 0.300028 -0.160948
vt 0.300028 0.160948
vt 0.314817 -0.091130
vt 0.314817 0.091130
vt 0.319349 -0.780123
vt 0.357100 -0.195388
vt 0.357100 0.189334
vt 0.357100 0.195388
vt 0.368815 0.120123
vt 0.373603 -0.126604
vt 0.373603 0.126604
vn -0.998494 -0.054865 0.000000
vn -0.941087 0.338164 0.000000
vn -0.921730 -0.063334 -0.382627
vn -0.921730 -0.063334 0.382627
vn -0.905293 -0.424788 0.000000
vn -0.903861 0.270010 -0.331858
vn -0.903861 0.270010 0.331858
vn -0.869642 -0.376530 -0.319294
vn -0.869642 -0.376530 0.319294
vn -0.389364 0.921084 0.000000
vn -0.382132 -0.051591 -0.922667
vn -0.382132 -0.051591 0.922667
vn -0.374552 -0.927206 0.000000
vn -0.332736 0.881918 -0.333927
vn -0.332736 0.881918 0.333927
vn -0.329619 0.281630 0.901130
vn -0.329619 0.281631 -0.901130
vn -0.319661 -0.366205 0.873906
vn -0.319661 -0.366204 -0.873906
vn -0.316247 -0.894013 -0.317378
vn -0.316246 -0.894013 0.317378
vn 0.000000 -1.000000 0.000000
vn 0.000000 -0.925710 -0.378234
vn 0.000000 -0.925710 0.378234
vn 0.000000 -0.408508 -0.912755
vn 0.000000 -0.408508 0.912755
vn 0.000000 -0.033140 -0.999451
vn 0.000000 -0.033140 0.999451
vn 0.000000 0.356229 -0.934399
vn 0.000000 0.356229 0.934399
vn 0.000000 0.921993 -0.387207
vn 0.000000 0.921993 0.387207
vn 0.000000 1.000000 0.000000
vn 0.316246 -0.894013 -0.317378
vn 0.316247 -0.894013 0.317378
vn 0.319661 -0.366205 -0.873906
vn 0.319661 -0.366204 0.873906
vn 0.329619 0.281630 -0.901130
vn 0.329619 0.281631 0.901130
vn 0.332736 0.881918 -0.333927
vn 0.332736 0.881918 0.333927
vn 0.374552 -0.927206 0.000000
vn 0.382132 -0.051591 -0.922667
vn 0.382132 -0.051591 0.922667
vn 0.389364 0.921084 0.000000
vn 0.869642 -0.376530 -0.319294
vn 0.869642 -0.376530 0.319294
vn 0.903861 0.270010 -0.331858
vn 0.903861 0.270010 0.331858
vn 0.905293 -0.424788 0.000000
vn 0.921730 -0.063334 -0.382627
vn 0.921730 -0.063334 0.382627
vn 0.941087 0.338164 0.000000
vn 0.998494 -0.054865 0.000000
usemtl ZombieSkin
f 1/35/1 9/34/1 2/30/1
f 1/35/2 2/30/2 4/29/2
f 1/35/2 4/29/2 3/36/2
f 1/35/3 5/40/3 11/38/3
f 1/35/3 11/38/3 9/34/3
f 1/35/6 3/36/6 7/39/6
f 1/35/6 7/39/6 5/40/6
f 2/30/1 9/34/1 10/31/1
f 2/30/4 10/31/4 12/27/4
f 2/30/4 12/27/4 6/25/4
f 2/30/7 6/25/7 8/26/7
f 2/30/7 8/26/7 4/29/7
f 3/2/10 4/1/10 18/13/10
f 3/2/10 18/13/10 17/14/10
f 3/2/14 17/14/14 7/6/14
f 4/1/15 8/4/15 18/13/15
f 5/3/11 21/18/11 11/7/11
f 5/3/17 7/5/17 21/18/17
f 6/3/12 12/7/12 22/18/12
f 6/3/16 22/18/16 8/5/16
f 7/5/17 19/16/17 21/18/17
f 7/6/14 17/14/14 19/17/14
f 8/4/15 20/15/15 18/13/15
f 8/5/16 22/18/16 20/16/16
f 9/34/5 13/33/5 10/31/5
f 9/34/8 11/38/8 15/37/8
f 9/34/8 15/37/8 13/33/8
f 10/31/5 13/33/5 14/32/5
f 10/31/9 14/32/9 16/28/9
f 10/31/9 16/28/9 12/27/9
f 11/7/11 21/18/11 23/19/11
f 11/7/19 23/19/19 15/10/19
f 12/7/12 24/19/12 22/18/12
f 12/7/18 16/10/18 24/19/18
f 13/9/13 27/24/13 14/8/13
f 13/9/20 15/12/20 27/24/20
f 14/8/13 27/24/13 28/23/13
f 14/8/21 28/23/21 16/11/21
f 15/10/19 23/19/19 25/20/19
f 15/12/20 25/22/20 27/24/20
f 16/10/18 26/20/18 24/19/18
f 16/11/21 28/23/21 26/21/21
f 17/14/31 37/50/31 19/17/31
f 17/14/31 39/52/31 37/50/31
f 17/14/33 18/13/33 39/52/33
f 18/13/32 20/15/32 40/51/32
f 18/13/33 40/51/33 39/52/33
f 19/16/29 35/47/29 21/18/29
f 19/16/29 37/49/29 35/47/29
f 20/15/32 38/48/32 40/51/32
f 20/16/30 22/18/30 38/49/30
f 21/18/27 33/46/27 23/19/27
f 21/18/27 35/47/27 33/46/27
f 22/18/28 24/19/28 36/47/28
f 22/18/30 36/47/30 38/49/30
f 23/19/25 33/46/25 25/20/25
f 24/19/26 26/20/26 32/43/26
f 24/19/26 32/43/26 34/46/26
f 24/19/28 34/46/28 36/47/28
f 25/20/25 33/46/25 31/43/25
f 25/22/23 31/45/23 27/24/23
f 26/21/24 28/23/24 30/41/24
f 26/21/24 30/41/24 32/44/24
f 27/24/22 29/42/22 28/23/22
f 27/24/23 31/45/23 29/42/23
f 28/23/22 29/42/22 30/41/22
f 29/42/34 31/45/34 41/55/34
f 29/42/34 41/55/34 43/57/34
f 29/42/42 43/57/42 30/41/42
f 30/41/35 42/54/35 32/44/35
f 30/41/35 44/56/35 42/54/35
f 30/41/42 43/57/42 44/56/42
f 31/43/36 33/46/36 41/53/36
f 32/43/37 42/53/37 34/46/37
f 33/46/36 45/58/36 41/53/36
f 33/46/43 35/47/43 45/58/43
f 34/46/37 42/53/37 46/58/37
f 34/46/44 46/58/44 36/47/44
f 35/47/38 37/49/38 49/60/38
f 35/47/38 49/60/38 51/62/38
f 35/47/43 51/62/43 45/58/43
f 36/47/39 50/60/39 38/49/39
f 36/47/39 52/62/39 50/60/39
f 36/47/44 46/58/44 52/62/44
f 37/50/40 39/52/40 49/61/40
f 38/48/41 50/59/41 40/51/41
f 39/52/40 53/64/40 49/61/40
f 39/52/45 40/51/45 54/63/45
f 39/52/45 54/63/45 53/64/45
f 40/51/41 50/59/41 54/63/41
f 41/37/46 45/38/46 47/34/46
f 41/37/46 47/34/46 43/33/46
f 42/28/47 44/32/47 48/31/47
f 42/28/47 48/31/47 46/27/47
f 43/33/50 47/34/50 44/32/50
f 44/32/50 47/34/50 48/31/50
f 45/38/51 51/40/51 55/35/51
f 45/38/51 55/35/51 47/34/51
f 46/27/52 48/31/52 56/30/52
f 46/27/52 56/30/52 52/25/52
f 47/34/54 55/35/54 48/31/54
f 48/31/54 55/35/54 56/30/54
f 49/39/48 53/36/48 55/35/48
f 49/39/48 55/35/48 51/40/48
f 50/26/49 52/25/49 56/30/49
f 50/26/49 56/30/49 54/29/49
f 53/36/53 54/29/53 56/30/53
f 53/36/53 56/30/53 55/35/53
