# exported by ae3d_export.py v2
# object: Zombie_Head
mtllib Zombie_Head.mtl
v -0.115000 0.005000 -0.055000
v -0.115000 0.005000 0.055000
v -0.115000 0.165000 -0.055000
v -0.115000 0.165000 0.055000
v -0.101820 -0.026820 -0.055000
v -0.101820 -0.026820 0.055000
v -0.101820 0.005000 -0.086820
v -0.101820 0.005000 0.086820
v -0.101820 0.165000 -0.086820
v -0.101820 0.165000 0.086820
v -0.101820 0.196820 -0.055000
v -0.101820 0.196820 0.055000
v -0.095981 -0.020981 -0.080981
v -0.095981 -0.020981 0.080981
v -0.095981 0.190981 -0.080981
v -0.095981 0.190981 0.080981
v -0.070000 -0.040000 -0.055000
v -0.070000 -0.040000 0.055000
v -0.070000 -0.026820 -0.086820
v -0.070000 -0.026820 0.086820
v -0.070000 0.005000 -0.100000
v -0.070000 0.005000 0.100000
v -0.070000 0.165000 -0.100000
v -0.070000 0.165000 0.100000
v -0.070000 0.196820 -0.086820
v -0.070000 0.196820 0.086820
v -0.070000 0.210000 -0.055000
v -0.070000 0.210000 0.055000
v 0.070000 -0.040000 -0.055000
v 0.070000 -0.040000 0.055000
v 0.070000 -0.026820 -0.086820
v 0.070000 -0.026820 0.086820
v 0.070000 0.005000 -0.100000
v 0.070000 0.005000 0.100000
v 0.070000 0.165000 -0.100000
v 0.070000 0.165000 0.100000
v 0.070000 0.196820 -0.086820
v 0.070000 0.196820 0.086820
v 0.070000 0.210000 -0.055000
v 0.070000 0.210000 0.055000
v 0.095981 -0.020981 -0.080981
v 0.095981 -0.020981 0.080981
v 0.095981 0.190981 -0.080981
v 0.095981 0.190981 0.080981
v 0.101820 -0.026820 -0.055000
v 0.101820 -0.026820 0.055000
v 0.101820 0.005000 -0.086820
v 0.101820 0.005000 0.086820
v 0.101820 0.165000 -0.086820
v 0.101820 0.165000 0.086820
v 0.101820 0.196820 -0.055000
v 0.101820 0.196820 0.055000
v 0.115000 0.005000 -0.055000
v 0.115000 0.005000 0.055000
v 0.115000 0.165000 -0.055000
v 0.115000 0.165000 0.055000
vt -0.407279 -0.220000
vt -0.407279 0.020000
vt -0.407279 0.220000
vt -0.407279 0.660000
vt -0.383923 -0.323923
vt -0.383923 -0.083923
vt -0.383923 0.323923
vt -0.383923 0.763923
vt -0.347279 0.020000
vt -0.347279 0.660000
vt -0.323923 -0.083923
vt -0.323923 0.763923
vt -0.280000 -0.347279
vt -0.280000 -0.220000
vt -0.280000 -0.107279
vt -0.280000 0.020000
vt -0.280000 0.220000
vt -0.280000 0.347279
vt -0.280000 0.660000
vt -0.280000 0.787279
vt -0.220000 -0.107279
vt -0.220000 0.020000
vt -0.220000 0.660000
vt -0.220000 0.787279
vt 0.220000 -0.107279
vt 0.220000 0.020000
vt 0.220000 0.660000
vt 0.220000 0.787279
vt 0.280000 -0.347279
vt 0.280000 -0.220000
vt 0.280000 -0.107279
vt 0.280000 0.020000
vt 0.280000 0.220000
vt 0.280000 0.347279
vt 0.280000 0.660000
vt 0.280000 0.787279
vt 0.323923 -0.083923
vt 0.323923 0.763923
vt 0.347279 0.020000
vt 0.347279 0.660000
vt 0.383923 -0.323923
vt 0.383923 -0.083923
vt 0.383923 0.323923
vt 0.383923 0.763923
vt 0.407279 -0.220000
vt 0.407279 0.020000
vt 0.407279 0.220000
vt 0.407279 0.660000
vn -1.000000 0.000000 0.000000
vn -0.923880 -0.382683 0.000000
vn -0.923880 0.382683 0.000000
vn -0.923879 0.000000 -0.382684
vn -0.923879 0.000000 0.382684
vn -0.888074 -0.325058 -0.325057
vn -0.888074 -0.325057 0.325058
vn -0.888074 0.325057 -0.325058
vn -0.888074 0.325058 0.325058
vn -0.382684 0.923879 0.000000
vn -0.382683 -0.923880 0.000000
vn -0.382683 0.000000 -0.923880
vn -0.382683 0.000000 0.923880
vn -0.325058 -0.888074 -0.325058
vn -0.325058 -0.325058 -0.888074
vn -0.325058 0.325058 -0.888074
vn -0.325058 0.325058 0.888074
vn -0.325057 -0.888074 0.325058
vn -0.325057 -0.325058 0.888074
vn -0.325057 0.888074 -0.325058
vn -0.325057 0.888074 0.325058
vn 0.000000 -1.000000 0.000000
vn 0.000000 -0.923880 -0.382683
vn 0.000000 -0.923880 0.382683
vn 0.000000 -0.382683 -0.923880
vn 0.000000 -0.382683 0.923880
vn 0.000000 0.000000 -1.000000
vn 0.000000 0.000000 1.000000
vn 0.000000 0.382683 -0.923880
vn 0.000000 0.382683 0.923880
vn 0.000000 0.923880 -0.382683
vn 0.000000 0.923880 0.382683
vn 0.000000 1.000000 0.000000
vn 0.325057 -0.888074 -0.325058
vn 0.325057 -0.325058 -0.888074
vn 0.325057 0.325058 0.888074
vn 0.325057 0.888074 -0.325058
vn 0.325057 0.888074 0.325058
vn 0.325058 -0.888074 0.325058
vn 0.325058 -0.325058 0.888074
vn 0.325058 0.325058 -0.888074
vn 0.382683 -0.923880 0.000000
vn 0.382683 0.000000 -0.923880
vn 0.382683 0.000000 0.923880
vn 0.382683 0.923880 0.000000
vn 0.888074 -0.325058 0.325057
vn 0.888074 -0.325057 -0.325058
vn 0.888074 0.325057 0.325058
vn 0.888074 0.325058 -0.325058
vn 0.923879 0.000000 -0.382684
vn 0.923879 0.000000 0.382684
vn 0.923880 -0.382683 0.000000
vn 0.923880 0.382683 0.000000
vn 1.000000 0.000000 0.000000
usemtl ZombieSkin
f 1/26/1 2/22/1 4/23/1
f 1/26/1 4/23/1 3/27/1
f 1/26/2 5/25/2 2/22/2
f 1/26/4 3/27/4 7/39/4
f 1/26/6 7/39/6 13/37/6
f 1/26/6 13/37/6 5/25/6
f 2/22/2 5/25/2 6/21/2
f 2/22/5 8/9/5 4/23/5
f 2/22/7 6/21/7 14/11/7
f 2/22/7 14/11/7 8/9/7
f 3/27/3 4/23/3 11/28/3
f 3/27/4 9/40/4 7/39/4
f 3/27/8 11/28/8 15/38/8
f 3/27/8 15/38/8 9/40/8
f 4/23/3 12/24/3 11/28/3
f 4/23/5 8/9/5 10/10/5
f 4/23/9 10/10/9 16/12/9
f 4/23/9 16/12/9 12/24/9
f 5/3/11 17/17/11 18/14/11
f 5/3/11 18/14/11 6/1/11
f 5/3/14 13/7/14 17/17/14
f 6/1/18 18/14/18 14/5/18
f 7/2/12 9/4/12 21/16/12
f 7/2/15 21/16/15 13/6/15
f 8/2/13 22/16/13 24/19/13
f 8/2/13 24/19/13 10/4/13
f 8/2/19 14/6/19 22/16/19
f 9/4/12 23/19/12 21/16/12
f 9/4/16 15/8/16 23/19/16
f 10/4/17 24/19/17 16/8/17
f 11/3/10 12/1/10 27/17/10
f 11/3/20 27/17/20 15/7/20
f 12/1/10 28/14/10 27/17/10
f 12/1/21 16/5/21 28/14/21
f 13/6/15 21/16/15 19/15/15
f 13/7/14 19/18/14 17/17/14
f 14/5/18 18/14/18 20/13/18
f 14/6/19 20/15/19 22/16/19
f 15/7/20 27/17/20 25/18/20
f 15/8/16 25/20/16 23/19/16
f 16/5/21 26/13/21 28/14/21
f 16/8/17 24/19/17 26/20/17
f 17/17/22 29/33/22 18/14/22
f 17/17/23 19/18/23 31/34/23
f 17/17/23 31/34/23 29/33/23
f 18/14/22 29/33/22 30/30/22
f 18/14/24 30/30/24 20/13/24
f 19/15/25 21/16/25 33/32/25
f 19/15/25 33/32/25 31/31/25
f 20/13/24 30/30/24 32/29/24
f 20/15/26 32/31/26 22/16/26
f 21/16/27 23/19/27 35/35/27
f 21/16/27 35/35/27 33/32/27
f 22/16/26 32/31/26 34/32/26
f 22/16/28 34/32/28 24/19/28
f 23/19/29 25/20/29 35/35/29
f 24/19/28 34/32/28 36/35/28
f 24/19/30 36/35/30 26/20/30
f 25/18/31 27/17/31 39/33/31
f 25/18/31 39/33/31 37/34/31
f 25/20/29 37/36/29 35/35/29
f 26/13/32 38/29/32 28/14/32
f 26/20/30 36/35/30 38/36/30
f 27/17/33 28/14/33 40/30/33
f 27/17/33 40/30/33 39/33/33
f 28/14/32 38/29/32 40/30/32
f 29/33/34 31/34/34 41/43/34
f 29/33/34 41/43/34 45/47/34
f 29/33/42 45/47/42 46/45/42
f 29/33/42 46/45/42 30/30/42
f 30/30/39 42/41/39 32/29/39
f 30/30/39 46/45/39 42/41/39
f 31/31/35 33/32/35 41/42/35
f 32/31/40 42/42/40 34/32/40
f 33/32/35 47/46/35 41/42/35
f 33/32/43 35/35/43 47/46/43
f 34/32/40 42/42/40 48/46/40
f 34/32/44 48/46/44 50/48/44
f 34/32/44 50/48/44 36/35/44
f 35/35/41 37/36/41 43/44/41
f 35/35/41 43/44/41 49/48/41
f 35/35/43 49/48/43 47/46/43
f 36/35/36 44/44/36 38/36/36
f 36/35/36 50/48/36 44/44/36
f 37/34/37 39/33/37 43/43/37
f 38/29/38 44/41/38 40/30/38
f 39/33/37 51/47/37 43/43/37
f 39/33/45 40/30/45 51/47/45
f 40/30/38 44/41/38 52/45/38
f 40/30/45 52/45/45 51/47/45
f 41/37/47 47/39/47 53/26/47
f 41/37/47 53/26/47 45/25/47
f 42/11/46 46/21/46 54/22/46
f 42/11/46 54/22/46 48/9/46
f 43/38/49 51/28/49 55/27/49
f 43/38/49 55/27/49 49/40/49
f 44/12/48 50/10/48 56/23/48
f 44/12/48 56/23/48 52/24/48
f 45/25/52 53/26/52 46/21/52
f 46/21/52 53/26/52 54/22/52
f 47/39/50 49/40/50 55/27/50
f 47/39/50 55/27/50 53/26/50
f 48/9/51 54/22/51 56/23/51
f 48/9/51 56/23/51 50/10/51
f 51/28/53 52/24/53 55/27/53
f 52/24/53 56/23/53 55/27/53
f 53/26/54 55/27/54 54/22/54
f 54/22/54 55/27/54 56/23/54
