# exported by ae3d_export.py v3
# object: Zombie_Body_LOD
mtllib Zombie_Body_LOD.mtl
v -0.145000 1.150000 -0.145000
v -0.145000 1.150000 0.145000
v -0.115000 1.720000 -0.115000
v -0.115000 1.720000 0.115000
v -0.090000 0.908437 0.000000
v -0.090000 0.991563 -0.179828
v -0.090000 0.991563 0.179828
v -0.081613 0.782256 -0.181613
v -0.081613 0.782256 0.018387
v -0.081613 0.782256 0.181613
v -0.075946 0.708487 -0.024465
v -0.072000 1.483867 -0.141531
v -0.072000 1.483867 0.141531
v -0.072000 1.616132 -0.198469
v -0.072000 1.616132 0.198469
v -0.068000 0.510000 -0.168000
v -0.068000 0.510000 0.032000
v -0.068000 0.510000 0.168000
v -0.065549 1.435437 -0.112197
v -0.065268 1.436413 0.113197
v -0.064897 1.442068 -0.243398
v -0.064818 1.440616 0.243667
v -0.062000 1.630000 -0.062000
v -0.062000 1.630000 0.062000
v -0.055000 1.850000 -0.055000
v -0.055000 1.850000 0.055000
v -0.054991 1.256605 -0.135120
v -0.048617 0.060319 -0.045708
v -0.048617 0.060319 0.154292
v -0.047136 0.059104 -0.154725
v -0.047136 0.059104 0.045275
v -0.039028 0.900553 0.241061
v -0.039017 0.901162 -0.241267
v -0.039015 0.900245 0.163155
v -0.038969 0.900119 -0.163096
v 0.038969 0.900119 0.163096
v 0.039015 0.900245 -0.163155
v 0.039017 0.901162 0.241267
v 0.039028 0.900553 -0.241061
v 0.045484 0.124054 -0.154516
v 0.045484 0.124054 0.045484
v 0.046761 0.124970 -0.045414
v 0.046761 0.124970 0.154586
v 0.054991 1.256605 0.135120
v 0.055000 1.850000 -0.055000
v 0.055000 1.850000 0.055000
v 0.057978 0.186218 -0.157978
v 0.057978 0.186218 -0.042022
v 0.057978 0.186218 0.042022
v 0.057978 0.186218 0.157978
v 0.062000 1.630000 -0.062000
v 0.062000 1.630000 0.062000
v 0.064818 1.440616 -0.243667
v 0.064897 1.442068 0.243398
v 0.065268 1.436413 -0.113197
v 0.065549 1.435437 0.112197
v 0.068000 0.510000 -0.168000
v 0.068000 0.510000 -0.032000
v 0.068000 0.510000 0.168000
v 0.072000 1.483867 -0.141531
v 0.072000 1.483867 0.141531
v 0.072000 1.616132 -0.198469
v 0.072000 1.616132 0.198469
v 0.075946 0.708487 0.024465
v 0.081613 0.782256 -0.181613
v 0.081613 0.782256 -0.018387
v 0.081613 0.782256 0.181613
v 0.090000 0.908437 0.000000
v 0.090000 0.991563 -0.179828
v 0.090000 0.991563 0.179828
v 0.115000 1.720000 -0.115000
v 0.115000 1.720000 0.115000
v 0.133744 -0.005368 -0.055635
v 0.134254 -0.005527 0.144327
v 0.134520 -0.004387 0.054796
v 0.134830 -0.004478 -0.145185
v 0.145000 1.150000 -0.145000
v 0.145000 1.150000 0.145000
v 0.164230 0.082691 -0.145000
v 0.164230 0.082691 -0.055000
v 0.164230 0.082691 0.055000
v 0.164230 0.082691 0.145000
vt 0.010066 0.555725
vt 0.010066 0.946694
vt 0.010066 0.982755
vt 0.011939 0.606901
vt 0.019561 0.765661
vt 0.042467 0.765840
vt 0.050007 0.607327
vt 0.050112 0.944353
vt 0.050112 0.986229
vt 0.052328 0.555725
vt 0.072460 0.891376
vt 0.072460 0.923661
vt 0.110649 0.873551
vt 0.110649 0.941056
vt 0.118992 0.987604
vt 0.119159 0.961323
vt 0.134856 0.555725
vt 0.137038 0.889297
vt 0.137038 0.925691
vt 0.137101 0.606840
vt 0.144685 0.765607
vt 0.145220 0.961188
vt 0.145393 0.987604
vt 0.146707 0.078545
vt 0.151705 0.323132
vt 0.152232 0.261651
vt 0.155691 0.403126
vt 0.157178 0.785918
vt 0.157178 0.924717
vt 0.159704 0.535225
vt 0.162531 0.214713
vt 0.167591 0.765786
vt 0.169382 0.826306
vt 0.171267 0.047717
vt 0.175173 0.607267
vt 0.177120 0.555725
vt 0.186747 0.074558
vt 0.188782 0.010066
vt 0.191701 0.535593
vt 0.195610 0.403126
vt 0.197252 0.801871
vt 0.197252 0.838263
vt 0.199614 0.323132
vt 0.205019 0.286041
vt 0.212187 0.344823
vt 0.218408 0.535225
vt 0.221069 0.010066
vt 0.223143 0.074558
vt 0.223569 0.786057
vt 0.223569 0.853558
vt 0.238776 0.047717
vt 0.247652 0.214713
vt 0.250405 0.535593
vt 0.254313 0.403126
vt 0.255918 0.595990
vt 0.255918 0.616122
vt 0.257798 0.261651
vt 0.258318 0.323132
vt 0.261839 0.803952
vt 0.261839 0.836236
vt 0.263215 0.078545
vt 0.283348 0.914600
vt 0.287117 0.970727
vt 0.313394 0.970345
vt 0.315350 0.914600
vt 0.365833 0.535958
vt 0.365833 0.785495
vt 0.366440 0.653031
vt 0.366482 0.573042
vt 0.393958 0.767853
vt 0.398539 0.749825
vt 0.400357 0.867424
vt 0.411581 0.597032
vt 0.412525 0.826963
vt 0.412525 0.965232
vt 0.418166 0.806831
vt 0.418590 0.538673
vt 0.419989 0.078256
vt 0.424875 0.322345
vt 0.425404 0.260876
vt 0.428186 0.781754
vt 0.428867 0.402351
vt 0.431798 0.497383
vt 0.432823 0.515826
vt 0.435582 0.213440
vt 0.444453 0.047029
vt 0.448318 0.766204
vt 0.450159 0.780186
vt 0.458121 0.937466
vt 0.460056 0.074380
vt 0.462132 0.010066
vt 0.464845 0.515533
vt 0.465834 0.497383
vt 0.468786 0.402351
vt 0.472785 0.322345
vt 0.478182 0.285226
vt 0.481008 0.937503
vt 0.485364 0.344059
vt 0.485564 0.832921
vt 0.488546 0.780474
vt 0.490502 0.497383
vt 0.490580 0.766204
vt 0.491527 0.515825
vt 0.494419 0.010066
vt 0.496453 0.074380
vt 0.500439 0.957647
vt 0.500439 0.989934
vt 0.510712 0.853871
vt 0.510731 0.876738
vt 0.511963 0.047029
vt 0.520703 0.213440
vt 0.523549 0.515533
vt 0.524538 0.497383
vt 0.527490 0.402350
vt 0.530970 0.260876
vt 0.531489 0.322345
vt 0.532428 0.957635
vt 0.532428 0.989922
vt 0.533276 0.853811
vt 0.533276 0.876755
vt 0.536499 0.078256
vt 0.608789 0.951106
vt 0.611942 0.987255
vt 0.619027 0.759642
vt 0.621104 0.773586
vt 0.628627 0.930937
vt 0.638357 0.986979
vt 0.639515 0.714137
vt 0.640816 0.951106
vt 0.649502 0.471001
vt 0.649726 0.739511
vt 0.651515 0.930974
vt 0.653724 0.507864
vt 0.656320 0.826352
vt 0.659502 0.773873
vt 0.661291 0.759642
vt 0.661612 0.587478
vt 0.661864 0.109198
vt 0.661864 0.422527
vt 0.669208 0.682250
vt 0.671125 0.448258
vt 0.673372 0.700042
vt 0.678967 0.155420
vt 0.681423 0.951074
vt 0.681508 0.010828
vt 0.682541 0.216802
vt 0.684575 0.987222
vt 0.687927 0.296624
vt 0.692543 0.391588
vt 0.696147 0.409502
vt 0.700958 0.527204
vt 0.702268 0.468390
vt 0.702268 0.717612
vt 0.710991 0.986946
vt 0.713450 0.951074
vt 0.722400 0.508773
vt 0.722400 0.670389
vt 0.722443 0.693334
vt 0.723766 0.010066
vt 0.724477 0.427971
vt 0.727836 0.295904
vt 0.730440 0.215938
vt 0.731789 0.154467
vt 0.734645 0.468390
vt 0.734645 0.607180
vt 0.744995 0.693334
vt 0.745006 0.670467
vt 0.746965 0.107663
vt 0.767097 0.565685
vt 0.782229 0.612536
vt 0.783575 0.674009
vt 0.786196 0.753956
vt 0.789999 0.886367
vt 0.790300 0.468087
vt 0.817521 0.867798
vt 0.819232 0.926109
vt 0.821500 0.849627
vt 0.822988 0.982080
vt 0.826103 0.754679
vt 0.831471 0.674877
vt 0.832555 0.468853
vt 0.835047 0.613493
vt 0.843105 0.905976
vt 0.849274 0.981948
vt 0.851234 0.926109
vt 0.852193 0.567227
vt 0.852193 0.880551
vt 0.872325 0.062774
vt 0.872326 0.523455
vt 0.872326 0.931670
vt 0.872326 0.973547
vt 0.878343 0.576097
vt 0.878350 0.115442
vt 0.881123 0.048584
vt 0.881133 0.509308
vt 0.885146 0.680924
vt 0.885156 0.220266
vt 0.898357 0.470727
vt 0.898359 0.010066
vt 0.908093 0.680924
vt 0.908103 0.220266
vt 0.910857 0.522029
vt 0.910859 0.061359
vt 0.912393 0.934041
vt 0.912393 0.970101
vt 0.930703 0.753622
vt 0.930989 0.312060
vt 0.930989 0.450309
vt 0.930991 0.062622
vt 0.939131 0.701056
vt 0.939425 0.010066
vt 0.943220 0.352506
vt 0.946171 0.911538
vt 0.946458 0.220550
vt 0.959378 0.738145
vt 0.959650 0.047095
vt 0.963352 0.385024
vt 0.963472 0.358737
vt 0.968948 0.751293
vt 0.968948 0.909507
vt 0.969235 0.060289
vt 0.969235 0.218520
vt 0.989554 0.358608
vt 0.989716 0.385024
vn -0.980757 -0.195215 0.002481
vn -0.873947 0.276190 -0.399920
vn -0.873947 0.276190 0.399920
vn -0.770903 0.009074 0.636888
vn -0.769347 0.018410 -0.638566
vn -0.716213 -0.106963 -0.689636
vn -0.715541 -0.100009 0.691375
vn -0.711734 -0.089221 0.696760
vn -0.708019 -0.062283 0.703442
vn -0.707478 -0.060290 -0.704159
vn -0.706330 -0.046865 -0.706330
vn -0.706330 -0.046865 0.706330
vn -0.705953 -0.058489 -0.705840
vn -0.700005 -0.050940 -0.712319
vn -0.698386 -0.048776 0.714058
vn -0.674261 0.054263 0.736497
vn -0.674095 0.054040 -0.736665
vn -0.640702 0.125265 -0.757502
vn -0.638268 0.116681 0.760920
vn -0.636804 -0.486266 0.598352
vn -0.636408 -0.485941 0.599038
vn -0.636313 -0.017687 -0.771228
vn -0.629638 -0.491939 -0.601292
vn -0.629404 -0.491819 -0.601635
vn -0.612182 -0.035694 0.789911
vn -0.575325 -0.608646 0.546398
vn -0.566017 -0.586347 -0.579502
vn -0.560465 -0.590426 0.580755
vn -0.555352 -0.621129 -0.552977
vn -0.441869 -0.005635 -0.897062
vn -0.439930 -0.011664 0.897956
vn -0.436506 0.786718 -0.436506
vn -0.436506 0.786718 0.436506
vn -0.298276 0.954030 0.029305
vn -0.248552 0.966843 -0.058629
vn -0.169672 0.904049 -0.392310
vn -0.095952 0.896141 0.433272
vn 0.095952 0.896141 -0.433272
vn 0.169672 0.904049 0.392310
vn 0.248552 0.966843 0.058629
vn 0.298276 0.954030 -0.029305
vn 0.363438 -0.749255 0.553652
vn 0.366694 -0.749058 0.551769
vn 0.371627 -0.742905 -0.556763
vn 0.374011 -0.743033 -0.554992
vn 0.436506 0.786718 -0.436506
vn 0.436506 0.786718 0.436506
vn 0.439930 -0.011664 -0.897956
vn 0.441869 -0.005635 0.897062
vn 0.442420 0.164365 -0.881617
vn 0.442422 0.164370 -0.881615
vn 0.447201 0.166337 0.878831
vn 0.447203 0.166313 0.878834
vn 0.555352 -0.621129 0.552977
vn 0.560465 -0.590426 -0.580755
vn 0.566017 -0.586347 0.579502
vn 0.575325 -0.608646 -0.546398
vn 0.612538 -0.036960 0.789577
vn 0.635926 -0.016404 -0.771576
vn 0.638268 0.116681 -0.760920
vn 0.640702 0.125265 0.757502
vn 0.674095 0.054040 0.736665
vn 0.674261 0.054263 -0.736497
vn 0.698386 -0.048776 -0.714058
vn 0.700005 -0.050940 0.712319
vn 0.703788 -0.053408 0.708399
vn 0.706330 -0.046865 -0.706330
vn 0.706330 -0.046865 0.706330
vn 0.706338 -0.057140 -0.705565
vn 0.707422 -0.053420 0.704770
vn 0.711560 -0.087691 -0.697132
vn 0.715541 -0.100009 -0.691375
vn 0.716213 -0.106963 0.689636
vn 0.717866 -0.103358 0.688466
vn 0.717909 -0.104317 -0.688276
vn 0.719228 -0.103301 0.687051
vn 0.719349 -0.101997 -0.687120
vn 0.753395 0.353429 -0.554513
vn 0.754054 0.353247 -0.553732
vn 0.754198 0.351354 0.554739
vn 0.754390 0.351941 0.554106
vn 0.769347 0.018410 -0.638566
vn 0.770903 0.009074 0.636888
vn 0.873947 0.276190 -0.399920
vn 0.873947 0.276190 0.399920
vn 0.980759 -0.195215 0.001712
usemtl ZombieSkin
f 1/29/5 14/28/35 12/33/30
f 1/52/5 2/31/4 15/24/34
f 1/52/5 5/44/1 2/31/4
f 1/52/5 6/57/22 5/44/1
f 1/52/5 15/24/34 14/61/35
f 1/169/5 12/174/30 77/186/82
f 1/169/5 69/182/59 6/170/22
f 1/169/5 77/186/82 69/182/59
f 2/31/4 5/44/1 7/26/25
f 2/55/4 15/55/37 15/55/34
f 2/165/4 13/156/31 15/164/37
f 2/168/4 7/163/25 70/143/58
f 2/168/4 61/145/49 13/159/31
f 2/168/4 70/143/58 78/138/83
f 2/168/4 78/138/83 61/145/49
f 3/49/11 25/59/32 45/60/46
f 3/49/11 45/60/46 71/50/67
f 3/49/11 71/50/67 23/41/2
f 3/51/11 4/34/12 25/47/32
f 3/51/11 23/48/2 24/37/3
f 3/51/11 24/37/3 4/34/12
f 4/13/12 24/18/3 52/19/85
f 4/13/12 52/19/85 72/14/68
f 4/13/12 72/14/68 26/11/33
f 4/34/12 26/38/33 25/47/32
f 5/44/1 6/57/22 8/58/14
f 5/44/1 8/58/14 11/45/8
f 5/44/1 9/43/6 10/25/15
f 5/44/1 10/25/15 7/26/25
f 5/66/1 68/77/86 9/69/6
f 5/152/1 11/151/8 66/133/73
f 5/152/1 66/133/73 68/130/86
f 6/170/22 69/182/59 8/171/14
f 7/163/25 10/162/15 67/146/65
f 7/163/25 67/146/65 70/143/58
f 8/58/14 16/54/10 11/45/8
f 8/171/14 65/180/64 16/172/10
f 8/171/14 69/182/59 65/180/64
f 9/43/6 17/40/13 10/25/15
f 9/69/6 64/73/71 17/68/13
f 9/69/6 68/77/86 64/73/71
f 10/25/15 17/40/13 18/27/9
f 10/162/15 18/161/9 59/148/66
f 10/162/15 59/148/66 67/146/65
f 11/45/8 16/54/10 28/46/21
f 11/151/8 28/153/21 48/140/76
f 11/151/8 48/140/76 58/137/70
f 11/151/8 58/137/70 66/133/73
f 12/56/30 14/56/35 14/56/36
f 12/136/30 19/135/19 55/125/61
f 12/136/30 55/125/61 60/124/48
f 12/174/30 60/181/48 77/186/82
f 12/195/30 14/198/36 21/202/17
f 12/195/30 21/202/17 19/189/19
f 13/87/31 61/102/49 20/88/18
f 13/215/31 20/219/18 22/206/16
f 13/215/31 22/206/16 15/210/37
f 14/1/36 62/10/38 21/4/17
f 14/56/35 62/56/41 14/56/36
f 14/56/36 62/56/41 62/56/38
f 14/61/35 15/24/34 23/48/2
f 14/190/35 23/204/2 51/205/84
f 14/190/35 51/205/84 62/191/41
f 15/8/34 52/3/85 24/2/3
f 15/8/34 63/9/40 52/3/85
f 15/24/34 24/37/3 23/48/2
f 15/36/37 22/35/16 54/20/62
f 15/36/37 54/20/62 63/17/39
f 15/55/34 15/55/37 63/55/39
f 15/55/34 63/55/39 63/55/40
f 16/54/10 30/53/23 28/46/21
f 16/172/10 47/177/77 30/173/23
f 16/172/10 57/179/69 47/177/77
f 16/172/10 65/180/64 57/179/69
f 17/40/13 29/30/20 18/27/9
f 17/40/13 31/39/24 29/30/20
f 17/68/13 49/71/75 31/67/24
f 17/68/13 64/73/71 49/71/75
f 18/161/9 29/160/20 50/149/74
f 18/161/9 50/149/74 59/148/66
f 19/135/19 27/134/7 55/125/61
f 19/189/19 21/202/17 27/192/7
f 20/88/18 44/99/72 34/89/29
f 20/88/18 56/100/60 44/99/72
f 20/88/18 61/102/49 56/100/60
f 20/219/18 34/220/29 22/206/16
f 21/4/17 53/7/63 33/5/27
f 21/4/17 62/10/38 53/7/63
f 21/202/17 33/200/27 27/192/7
f 22/35/16 32/32/28 38/21/56
f 22/35/16 38/21/56 54/20/62
f 22/206/16 34/220/29 32/213/28
f 23/41/2 71/50/67 51/42/84
f 25/107/32 26/106/33 46/117/47
f 25/107/32 46/117/47 45/118/46
f 26/11/33 72/14/68 46/12/47
f 27/134/7 35/132/26 37/126/54
f 27/134/7 37/126/54 55/125/61
f 27/192/7 33/200/27 35/196/26
f 28/153/21 42/142/52 48/140/76
f 28/153/21 73/131/42 42/142/52
f 28/176/21 30/185/23 73/178/42
f 29/62/20 31/65/24 74/63/43
f 29/160/20 43/150/53 50/149/74
f 29/160/20 74/141/43 43/150/53
f 30/173/23 40/175/50 76/183/45
f 30/173/23 47/177/77 40/175/50
f 30/185/23 76/184/45 73/178/42
f 31/65/24 75/64/44 74/63/43
f 31/67/24 41/70/51 75/76/44
f 31/67/24 49/71/75 41/70/51
f 32/109/28 34/108/29 36/119/57
f 32/109/28 36/119/57 38/120/56
f 33/5/27 53/7/63 39/6/55
f 33/157/27 39/167/55 35/158/26
f 34/89/29 44/99/72 36/97/57
f 35/158/26 39/167/55 37/166/54
f 36/197/57 44/193/72 38/201/56
f 37/222/54 39/214/55 53/209/63
f 37/222/54 53/209/63 55/221/61
f 38/201/56 44/193/72 54/203/62
f 40/84/50 47/83/77 42/92/52
f 40/144/50 42/155/52 79/147/79
f 40/175/50 79/187/79 76/183/45
f 41/70/51 81/81/78 75/76/44
f 41/103/51 49/101/75 43/112/53
f 41/122/51 43/129/53 81/123/78
f 42/92/52 47/83/77 48/93/76
f 42/142/52 73/131/42 80/128/80
f 42/155/52 80/154/80 79/147/79
f 43/112/53 49/101/75 50/113/74
f 43/129/53 82/127/81 81/123/78
f 43/150/53 74/141/43 82/139/81
f 44/193/72 56/188/60 54/203/62
f 45/91/46 46/104/47 71/86/67
f 46/104/47 72/110/68 71/86/67
f 47/83/77 57/82/69 48/93/76
f 48/93/76 57/82/69 58/94/70
f 49/101/75 64/98/71 50/113/74
f 50/113/74 64/98/71 59/114/66
f 51/90/84 52/105/85 63/121/40
f 51/90/84 63/121/40 62/78/41
f 51/90/84 71/86/67 72/110/68
f 51/90/84 72/110/68 52/105/85
f 53/209/63 60/216/48 55/221/61
f 53/209/63 62/211/38 60/216/48
f 54/203/62 56/188/60 61/194/49
f 54/203/62 61/194/49 63/199/39
f 57/82/69 65/79/64 58/94/70
f 58/94/70 65/79/64 66/95/73
f 59/114/66 64/98/71 67/116/65
f 60/72/48 62/74/38 77/75/82
f 61/55/49 63/55/40 63/55/39
f 61/212/49 78/208/83 63/207/40
f 62/56/38 62/56/41 77/56/82
f 62/78/41 63/121/40 77/85/82
f 63/121/40 78/111/83 77/85/82
f 64/98/71 68/96/86 67/116/65
f 65/79/64 68/96/86 66/95/73
f 65/79/64 69/80/59 68/96/86
f 67/116/65 68/96/86 70/115/58
f 68/96/86 69/80/59 77/85/82
f 68/96/86 77/85/82 78/111/83
f 68/96/86 78/111/83 70/115/58
f 73/217/42 76/218/45 80/224/80
f 74/15/43 75/16/44 82/23/81
f 75/16/44 81/22/78 82/23/81
f 76/218/45 79/223/79 80/224/80
