# exported by ae3d_export.py v2
# object: Zombie_ArmLowerL
mtllib Zombie_ArmLowerL.mtl
v -0.050000 -0.248000 -0.028000
v -0.050000 -0.248000 0.028000
v -0.050000 0.033000 -0.028000
v -0.050000 0.033000 0.028000
v -0.043556 -0.263556 -0.028000
v -0.043556 -0.263556 0.028000
v -0.043556 -0.248000 -0.043556
v -0.043556 -0.248000 0.043556
v -0.043556 0.033000 -0.043556
v -0.043556 0.033000 0.043556
v -0.043556 0.048556 -0.028000
v -0.043556 0.048556 0.028000
v -0.040702 -0.260702 -0.040702
v -0.040702 -0.260702 0.040702
v -0.040702 0.045702 -0.040702
v -0.040702 0.045702 0.040702
v -0.028000 -0.270000 -0.028000
v -0.028000 -0.270000 0.028000
v -0.028000 -0.263556 -0.043556
v -0.028000 -0.263556 0.043556
v -0.028000 -0.248000 -0.050000
v -0.028000 -0.248000 0.050000
v -0.028000 0.033000 -0.050000
v -0.028000 0.033000 0.050000
v -0.028000 0.048556 -0.043556
v -0.028000 0.048556 0.043556
v -0.028000 0.055000 -0.028000
v -0.028000 0.055000 0.028000
v 0.028000 -0.270000 -0.028000
v 0.028000 -0.270000 0.028000
v 0.028000 -0.263556 -0.043556
v 0.028000 -0.263556 0.043556
v 0.028000 -0.248000 -0.050000
v 0.028000 -0.248000 0.050000
v 0.028000 0.033000 -0.050000
v 0.028000 0.033000 0.050000
v 0.028000 0.048556 -0.043556
v 0.028000 0.048556 0.043556
v 0.028000 0.055000 -0.028000
v 0.028000 0.055000 0.028000
v 0.040702 -0.260702 -0.040702
v 0.040702 -0.260702 0.040702
v 0.040702 0.045702 -0.040702
v 0.040702 0.045702 0.040702
v 0.043556 -0.263556 -0.028000
v 0.043556 -0.263556 0.028000
v 0.043556 -0.248000 -0.043556
v 0.043556 -0.248000 0.043556
v 0.043556 0.033000 -0.043556
v 0.043556 0.033000 0.043556
v 0.043556 0.048556 -0.028000
v 0.043556 0.048556 0.028000
v 0.050000 -0.248000 -0.028000
v 0.050000 -0.248000 0.028000
v 0.050000 0.033000 -0.028000
v 0.050000 0.033000 0.028000
vt -0.196004 -1.116000
vt -0.196004 -0.126000
vt -0.196004 0.126000
vt -0.196004 0.148500
vt -0.183158 -1.173158
vt -0.183158 -0.183158
vt -0.183158 0.183158
vt -0.183158 0.205658
vt -0.126000 -1.186004
vt -0.126000 -1.116000
vt -0.126000 -0.196004
vt -0.126000 -0.126000
vt -0.126000 0.126000
vt -0.126000 0.148500
vt -0.126000 0.196004
vt -0.126000 0.218504
vt 0.126000 -1.186004
vt 0.126000 -1.116000
vt 0.126000 -0.196004
vt 0.126000 -0.126000
vt 0.126000 0.126000
vt 0.126000 0.148500
vt 0.126000 0.196004
vt 0.126000 0.218504
vt 0.183158 -1.173158
vt 0.183158 -0.183158
vt 0.183158 0.183158
vt 0.183158 0.205658
vt 0.196004 -1.116000
vt 0.196004 -0.126000
vt 0.196004 0.126000
vt 0.196004 0.148500
vn -1.000000 0.000000 0.000000
vn -0.923880 -0.382683 0.000000
vn -0.923880 0.000000 -0.382683
vn -0.923880 0.000000 0.382683
vn -0.923880 0.382683 0.000000
vn -0.888074 -0.325058 -0.325058
vn -0.888074 -0.325058 0.325058
vn -0.888074 0.325058 -0.325057
vn -0.888074 0.325058 0.325057
vn -0.382684 -0.923879 0.000000
vn -0.382683 0.000000 -0.923880
vn -0.382683 0.000000 0.923880
vn -0.382683 0.923880 0.000000
vn -0.325058 0.888074 -0.325057
vn -0.325057 -0.325058 0.888074
vn -0.325057 -0.325057 -0.888074
vn -0.325057 0.325057 0.888074
vn -0.325057 0.325058 -0.888074
vn -0.325057 0.888074 0.325057
vn -0.325056 -0.888074 -0.325058
vn -0.325056 -0.888074 0.325058
vn 0.000000 -1.000000 0.000000
vn 0.000000 -0.923880 -0.382683
vn 0.000000 -0.923880 0.382683
vn 0.000000 -0.382684 -0.923880
vn 0.000000 -0.382683 0.923880
vn 0.000000 0.000000 -1.000000
vn 0.000000 0.000000 1.000000
vn 0.000000 0.382683 -0.923880
vn 0.000000 0.382684 0.923880
vn 0.000000 0.923880 -0.382683
vn 0.000000 0.923880 0.382683
vn 0.000000 1.000000 0.000000
vn 0.325056 -0.888074 -0.325058
vn 0.325056 -0.888074 0.325058
vn 0.325057 -0.325058 -0.888074
vn 0.325057 -0.325058 0.888074
vn 0.325057 0.325057 -0.888074
vn 0.325057 0.325058 0.888074
vn 0.325057 0.888074 -0.325057
vn 0.325058 0.888074 0.325058
vn 0.382683 0.000000 -0.923880
vn 0.382683 0.000000 0.923880
vn 0.382683 0.923880 0.000000
vn 0.382684 -0.923879 0.000000
vn 0.888074 -0.325058 -0.325058
vn 0.888074 -0.325058 0.325058
vn 0.888074 0.325058 -0.325057
vn 0.888074 0.325058 0.325057
vn 0.923880 -0.382683 0.000000
vn 0.923880 0.000000 -0.382683
vn 0.923880 0.000000 0.382683
vn 0.923880 0.382683 0.000000
vn 1.000000 0.000000 0.000000
usemtl ZombieSkin
f 1/18/1 2/10/1 3/22/1
f 1/18/2 5/17/2 6/9/2
f 1/18/2 6/9/2 2/10/2
f 1/18/3 3/22/3 9/32/3
f 1/18/3 9/32/3 7/29/3
f 1/18/6 7/29/6 13/25/6
f 1/18/6 13/25/6 5/17/6
f 2/10/1 4/14/1 3/22/1
f 2/10/4 8/1/4 4/14/4
f 2/10/7 6/9/7 14/5/7
f 2/10/7 14/5/7 8/1/7
f 3/22/5 4/14/5 12/16/5
f 3/22/5 12/16/5 11/24/5
f 3/22/8 11/24/8 15/28/8
f 3/22/8 15/28/8 9/32/8
f 4/14/4 8/1/4 10/4/4
f 4/14/9 10/4/9 16/8/9
f 4/14/9 16/8/9 12/16/9
f 5/3/10 17/13/10 18/12/10
f 5/3/10 18/12/10 6/2/10
f 5/3/20 13/7/20 17/13/20
f 6/2/21 18/12/21 14/6/21
f 7/1/11 9/4/11 23/14/11
f 7/1/11 23/14/11 21/10/11
f 7/1/16 21/10/16 13/5/16
f 8/1/12 22/10/12 10/4/12
f 8/1/15 14/5/15 22/10/15
f 9/4/18 15/8/18 23/14/18
f 10/4/12 22/10/12 24/14/12
f 10/4/17 24/14/17 16/8/17
f 11/3/13 12/2/13 27/13/13
f 11/3/14 27/13/14 15/7/14
f 12/2/13 28/12/13 27/13/13
f 12/2/19 16/6/19 28/12/19
f 13/5/16 21/10/16 19/9/16
f 13/7/20 19/15/20 17/13/20
f 14/5/15 20/9/15 22/10/15
f 14/6/21 18/12/21 20/11/21
f 15/7/14 27/13/14 25/15/14
f 15/8/18 25/16/18 23/14/18
f 16/6/19 26/11/19 28/12/19
f 16/8/17 24/14/17 26/16/17
f 17/13/22 29/21/22 18/12/22
f 17/13/23 19/15/23 31/23/23
f 17/13/23 31/23/23 29/21/23
f 18/12/22 29/21/22 30/20/22
f 18/12/24 30/20/24 20/11/24
f 19/9/25 21/10/25 33/18/25
f 19/9/25 33/18/25 31/17/25
f 20/9/26 32/17/26 34/18/26
f 20/9/26 34/18/26 22/10/26
f 20/11/24 30/20/24 32/19/24
f 21/10/27 23/14/27 35/22/27
f 21/10/27 35/22/27 33/18/27
f 22/10/28 34/18/28 24/14/28
f 23/14/29 25/16/29 35/22/29
f 24/14/28 34/18/28 36/22/28
f 24/14/30 36/22/30 26/16/30
f 25/15/31 27/13/31 39/21/31
f 25/15/31 39/21/31 37/23/31
f 25/16/29 37/24/29 35/22/29
f 26/11/32 38/19/32 28/12/32
f 26/16/30 36/22/30 38/24/30
f 27/13/33 28/12/33 39/21/33
f 28/12/32 38/19/32 40/20/32
f 28/12/33 40/20/33 39/21/33
f 29/21/34 31/23/34 41/27/34
f 29/21/34 41/27/34 45/31/34
f 29/21/45 45/31/45 46/30/45
f 29/21/45 46/30/45 30/20/45
f 30/20/35 42/26/35 32/19/35
f 30/20/35 46/30/35 42/26/35
f 31/17/36 33/18/36 41/25/36
f 32/17/37 42/25/37 34/18/37
f 33/18/36 47/29/36 41/25/36
f 33/18/42 35/22/42 49/32/42
f 33/18/42 49/32/42 47/29/42
f 34/18/37 42/25/37 48/29/37
f 34/18/43 48/29/43 36/22/43
f 35/22/38 37/24/38 43/28/38
f 35/22/38 43/28/38 49/32/38
f 36/22/39 44/28/39 38/24/39
f 36/22/39 50/32/39 44/28/39
f 36/22/43 48/29/43 50/32/43
f 37/23/40 39/21/40 43/27/40
f 38/19/41 44/26/41 40/20/41
f 39/21/40 51/31/40 43/27/40
f 39/21/44 40/20/44 51/31/44
f 40/20/41 44/26/41 52/30/41
f 40/20/44 52/30/44 51/31/44
f 41/25/46 47/29/46 53/18/46
f 41/25/46 53/18/46 45/17/46
f 42/5/47 46/9/47 54/10/47
f 42/5/47 54/10/47 48/1/47
f 43/28/48 51/24/48 55/22/48
f 43/28/48 55/22/48 49/32/48
f 44/8/49 50/4/49 56/14/49
f 44/8/49 56/14/49 52/16/49
f 45/17/50 53/18/50 46/9/50
f 46/9/50 53/18/50 54/10/50
f 47/29/51 49/32/51 55/22/51
f 47/29/51 55/22/51 53/18/51
f 48/1/52 54/10/52 50/4/52
f 50/4/52 54/10/52 56/14/52
f 51/24/53 52/16/53 55/22/53
f 52/16/53 56/14/53 55/22/53
f 53/18/54 55/22/54 56/14/54
f 53/18/54 56/14/54 54/10/54
