# exported by ae3d_export.py v2
# object: Zombie_Jaw
mtllib Zombie_Jaw.mtl
v -0.100000 -0.040000 -0.055000
v -0.100000 -0.040000 0.055000
v -0.100000 -0.020000 -0.055000
v -0.100000 -0.020000 0.055000
v -0.094142 -0.054142 -0.055000
v -0.094142 -0.054142 0.055000
v -0.094142 -0.040000 -0.069142
v -0.094142 -0.040000 0.069142
v -0.094142 -0.020000 -0.069142
v -0.094142 -0.020000 0.069142
v -0.094142 -0.005858 -0.055000
v -0.094142 -0.005858 0.055000
v -0.091547 -0.051547 -0.066547
v -0.091547 -0.051547 0.066547
v -0.091547 -0.008453 -0.066547
v -0.091547 -0.008453 0.066547
v -0.080000 -0.060000 -0.055000
v -0.080000 -0.060000 0.055000
v -0.080000 -0.054142 -0.069142
v -0.080000 -0.054142 0.069142
v -0.080000 -0.040000 -0.075000
v -0.080000 -0.040000 0.075000
v -0.080000 -0.020000 -0.075000
v -0.080000 -0.020000 0.075000
v -0.080000 -0.005858 -0.069142
v -0.080000 -0.005858 0.069142
v -0.080000 0.000000 -0.055000
v -0.080000 0.000000 0.055000
v 0.100000 -0.060000 -0.055000
v 0.100000 -0.060000 0.055000
v 0.100000 -0.054142 -0.069142
v 0.100000 -0.054142 0.069142
v 0.100000 -0.040000 -0.075000
v 0.100000 -0.040000 0.075000
v 0.100000 -0.020000 -0.075000
v 0.100000 -0.020000 0.075000
v 0.100000 -0.005858 -0.069142
v 0.100000 -0.005858 0.069142
v 0.100000 0.000000 -0.055000
v 0.100000 0.000000 0.055000
v 0.111547 -0.051547 -0.066547
v 0.111547 -0.051547 0.066547
v 0.111547 -0.008453 -0.066547
v 0.111547 -0.008453 0.066547
v 0.114142 -0.054142 -0.055000
v 0.114142 -0.054142 0.055000
v 0.114142 -0.040000 -0.069142
v 0.114142 -0.040000 0.069142
v 0.114142 -0.020000 -0.069142
v 0.114142 -0.020000 0.069142
v 0.114142 -0.005858 -0.055000
v 0.114142 -0.005858 0.055000
v 0.120000 -0.040000 -0.055000
v 0.120000 -0.040000 0.055000
v 0.120000 -0.020000 -0.055000
v 0.120000 -0.020000 0.055000
vt -0.470711 -0.275000
vt -0.470711 -0.200000
vt -0.470711 -0.100000
vt -0.470711 0.275000
vt -0.457735 -0.332735
vt -0.457735 -0.257735
vt -0.457735 -0.042265
vt -0.457735 0.332735
vt -0.400000 -0.345711
vt -0.400000 -0.275000
vt -0.400000 -0.270711
vt -0.400000 -0.200000
vt -0.400000 -0.100000
vt -0.400000 -0.029289
vt -0.400000 0.275000
vt -0.400000 0.345711
vt -0.345711 -0.200000
vt -0.345711 -0.100000
vt -0.332735 -0.257735
vt -0.332735 -0.042265
vt -0.275000 -0.270711
vt -0.275000 -0.200000
vt -0.275000 -0.100000
vt -0.275000 -0.029289
vt 0.275000 -0.270711
vt 0.275000 -0.200000
vt 0.275000 -0.100000
vt 0.275000 -0.029289
vt 0.332735 -0.257735
vt 0.332735 -0.042265
vt 0.345711 -0.200000
vt 0.345711 -0.100000
vt 0.500000 -0.345711
vt 0.500000 -0.275000
vt 0.500000 -0.270711
vt 0.500000 -0.200000
vt 0.500000 -0.100000
vt 0.500000 -0.029289
vt 0.500000 0.275000
vt 0.500000 0.345711
vt 0.557735 -0.332735
vt 0.557735 -0.257735
vt 0.557735 -0.042265
vt 0.557735 0.332735
vt 0.570711 -0.275000
vt 0.570711 -0.200000
vt 0.570711 -0.100000
vt 0.570711 0.275000
vn -1.000000 0.000000 0.000000
vn -0.923880 -0.382683 0.000000
vn -0.923880 0.000000 -0.382683
vn -0.923880 0.382683 0.000000
vn -0.923879 0.000000 0.382684
vn -0.888074 -0.325058 -0.325057
vn -0.888074 -0.325057 0.325057
vn -0.888074 0.325058 -0.325058
vn -0.888074 0.325058 0.325057
vn -0.382683 -0.923880 0.000000
vn -0.382683 0.000000 -0.923880
vn -0.382683 0.000000 0.923880
vn -0.382683 0.923880 0.000000
vn -0.325058 0.325057 -0.888074
vn -0.325057 -0.888074 -0.325058
vn -0.325057 -0.888074 0.325058
vn -0.325057 -0.325058 -0.888074
vn -0.325057 -0.325058 0.888074
vn -0.325057 0.325058 0.888074
vn -0.325057 0.888074 -0.325058
vn -0.325057 0.888074 0.325058
vn 0.000000 -1.000000 0.000000
vn 0.000000 -0.923880 -0.382683
vn 0.000000 -0.923880 0.382683
vn 0.000000 -0.382683 -0.923880
vn 0.000000 -0.382683 0.923880
vn 0.000000 0.000000 -1.000000
vn 0.000000 0.000000 1.000000
vn 0.000000 0.382683 0.923880
vn 0.000000 0.382684 -0.923879
vn 0.000000 0.923879 -0.382684
vn 0.000000 0.923880 0.382683
vn 0.000000 1.000000 0.000000
vn 0.325057 -0.888074 -0.325058
vn 0.325057 -0.325058 -0.888074
vn 0.325057 -0.325058 0.888074
vn 0.325057 0.325058 -0.888074
vn 0.325057 0.325058 0.888074
vn 0.325057 0.888074 -0.325058
vn 0.325057 0.888074 0.325058
vn 0.325058 -0.888074 0.325058
vn 0.382683 -0.923880 0.000000
vn 0.382683 0.000000 -0.923880
vn 0.382683 0.000000 0.923880
vn 0.382683 0.923880 0.000000
vn 0.888074 -0.325058 0.325057
vn 0.888074 -0.325057 -0.325057
vn 0.888074 0.325057 0.325058
vn 0.888074 0.325058 -0.325057
vn 0.923880 -0.382683 0.000000
vn 0.923880 0.000000 -0.382683
vn 0.923880 0.000000 0.382683
vn 0.923880 0.382683 0.000000
vn 1.000000 0.000000 0.000000
usemtl ZombieSkin
f 1/26/1 2/22/1 3/27/1
f 1/26/2 5/25/2 2/22/2
f 1/26/3 3/27/3 9/32/3
f 1/26/3 9/32/3 7/31/3
f 1/26/6 7/31/6 13/29/6
f 1/26/6 13/29/6 5/25/6
f 2/22/1 4/23/1 3/27/1
f 2/22/2 5/25/2 6/21/2
f 2/22/5 8/17/5 4/23/5
f 2/22/7 6/21/7 14/19/7
f 2/22/7 14/19/7 8/17/7
f 3/27/4 4/23/4 11/28/4
f 3/27/8 11/28/8 15/30/8
f 3/27/8 15/30/8 9/32/8
f 4/23/4 12/24/4 11/28/4
f 4/23/5 8/17/5 10/18/5
f 4/23/9 10/18/9 16/20/9
f 4/23/9 16/20/9 12/24/9
f 5/4/10 17/15/10 6/1/10
f 5/4/15 13/8/15 17/15/15
f 6/1/10 17/15/10 18/10/10
f 6/1/16 18/10/16 14/5/16
f 7/2/11 9/3/11 23/13/11
f 7/2/11 23/13/11 21/12/11
f 7/2/17 21/12/17 13/6/17
f 8/2/12 22/12/12 10/3/12
f 8/2/18 14/6/18 22/12/18
f 9/3/14 15/7/14 23/13/14
f 10/3/12 22/12/12 24/13/12
f 10/3/19 24/13/19 16/7/19
f 11/4/13 12/1/13 28/10/13
f 11/4/13 28/10/13 27/15/13
f 11/4/20 27/15/20 15/8/20
f 12/1/21 16/5/21 28/10/21
f 13/6/17 21/12/17 19/11/17
f 13/8/15 19/16/15 17/15/15
f 14/5/16 18/10/16 20/9/16
f 14/6/18 20/11/18 22/12/18
f 15/7/14 25/14/14 23/13/14
f 15/8/20 27/15/20 25/16/20
f 16/5/21 26/9/21 28/10/21
f 16/7/19 24/13/19 26/14/19
f 17/15/22 29/39/22 18/10/22
f 17/15/23 19/16/23 29/39/23
f 18/10/22 29/39/22 30/34/22
f 18/10/24 30/34/24 20/9/24
f 19/11/25 21/12/25 31/35/25
f 19/16/23 31/40/23 29/39/23
f 20/9/24 30/34/24 32/33/24
f 20/11/26 32/35/26 22/12/26
f 21/12/25 33/36/25 31/35/25
f 21/12/27 23/13/27 33/36/27
f 22/12/26 32/35/26 34/36/26
f 22/12/28 34/36/28 36/37/28
f 22/12/28 36/37/28 24/13/28
f 23/13/27 35/37/27 33/36/27
f 23/13/30 25/14/30 37/38/30
f 23/13/30 37/38/30 35/37/30
f 24/13/29 36/37/29 38/38/29
f 24/13/29 38/38/29 26/14/29
f 25/16/31 27/15/31 39/39/31
f 25/16/31 39/39/31 37/40/31
f 26/9/32 38/33/32 40/34/32
f 26/9/32 40/34/32 28/10/32
f 27/15/33 28/10/33 39/39/33
f 28/10/33 40/34/33 39/39/33
f 29/39/34 31/40/34 41/44/34
f 29/39/34 41/44/34 45/48/34
f 29/39/42 45/48/42 30/34/42
f 30/34/41 42/41/41 32/33/41
f 30/34/41 46/45/41 42/41/41
f 30/34/42 45/48/42 46/45/42
f 31/35/35 33/36/35 41/42/35
f 32/35/36 42/42/36 34/36/36
f 33/36/35 47/46/35 41/42/35
f 33/36/43 35/37/43 49/47/43
f 33/36/43 49/47/43 47/46/43
f 34/36/36 42/42/36 48/46/36
f 34/36/44 48/46/44 36/37/44
f 35/37/37 37/38/37 43/43/37
f 35/37/37 43/43/37 49/47/37
f 36/37/38 44/43/38 38/38/38
f 36/37/38 50/47/38 44/43/38
f 36/37/44 48/46/44 50/47/44
f 37/40/39 39/39/39 43/44/39
f 38/33/40 44/41/40 40/34/40
f 39/39/39 51/48/39 43/44/39
f 39/39/45 40/34/45 52/45/45
f 39/39/45 52/45/45 51/48/45
f 40/34/40 44/41/40 52/45/40
f 41/29/47 47/31/47 53/26/47
f 41/29/47 53/26/47 45/25/47
f 42/19/46 46/21/46 54/22/46
f 42/19/46 54/22/46 48/17/46
f 43/30/49 51/28/49 55/27/49
f 43/30/49 55/27/49 49/32/49
f 44/20/48 50/18/48 56/23/48
f 44/20/48 56/23/48 52/24/48
f 45/25/50 53/26/50 46/21/50
f 46/21/50 53/26/50 54/22/50
f 47/31/51 49/32/51 55/27/51
f 47/31/51 55/27/51 53/26/51
f 48/17/52 54/22/52 56/23/52
f 48/17/52 56/23/52 50/18/52
f 51/28/53 52/24/53 56/23/53
f 51/28/53 56/23/53 55/27/53
f 53/26/54 55/27/54 56/23/54
f 53/26/54 56/23/54 54/22/54
