# exported by ae3d_export.py v3
# object: Zombie_Body_LOD_B
mtllib Zombie_Body_LOD_B.mtl
v -0.145000 1.150000 -0.145000
v -0.145000 1.150000 0.145000
v -0.115000 1.720000 -0.115000
v -0.115000 1.720000 0.115000
v -0.090000 0.908437 0.000000
v -0.090000 0.991563 -0.179828
v -0.090000 0.991563 0.179828
v -0.081613 0.782256 -0.181613
v -0.081613 0.782256 0.018387
v -0.081613 0.782256 0.181613
v -0.075946 0.708487 -0.024465
v -0.072000 1.483867 -0.141531
v -0.072000 1.483867 0.141531
v -0.072000 1.616132 -0.198469
v -0.072000 1.616132 0.198469
v -0.068000 0.510000 -0.168000
v -0.068000 0.510000 0.032000
v -0.068000 0.510000 0.168000
v -0.065549 1.435437 -0.112197
v -0.065268 1.436413 0.113197
v -0.064897 1.442068 -0.243398
v -0.064818 1.440616 0.243667
v -0.062000 1.630000 -0.062000
v -0.062000 1.630000 0.062000
v -0.055000 1.850000 -0.055000
v -0.055000 1.850000 0.055000
v -0.054991 1.256605 -0.135120
v -0.048617 0.060319 -0.045708
v -0.048617 0.060319 0.154292
v -0.047136 0.059104 -0.154725
v -0.047136 0.059104 0.045275
v -0.039028 0.900553 0.241061
v -0.039017 0.901162 -0.241267
v -0.039015 0.900245 0.163155
v -0.038969 0.900119 -0.163096
v 0.038969 0.900119 0.163096
v 0.039015 0.900245 -0.163155
v 0.039017 0.901162 0.241267
v 0.039028 0.900553 -0.241061
v 0.045484 0.124054 -0.154516
v 0.045484 0.124054 0.045484
v 0.046761 0.124970 -0.045414
v 0.046761 0.124970 0.154586
v 0.054991 1.256605 0.135120
v 0.055000 1.850000 -0.055000
v 0.055000 1.850000 0.055000
v 0.057978 0.186218 -0.157978
v 0.057978 0.186218 -0.042022
v 0.057978 0.186218 0.042022
v 0.057978 0.186218 0.157978
v 0.062000 1.630000 -0.062000
v 0.062000 1.630000 0.062000
v 0.064818 1.440616 -0.243667
v 0.064897 1.442068 0.243398
v 0.065268 1.436413 -0.113197
v 0.065549 1.435437 0.112197
v 0.068000 0.510000 -0.168000
v 0.068000 0.510000 -0.032000
v 0.068000 0.510000 0.168000
v 0.072000 1.483867 -0.141531
v 0.072000 1.483867 0.141531
v 0.072000 1.616132 -0.198469
v 0.072000 1.616132 0.198469
v 0.075946 0.708487 0.024465
v 0.081613 0.782256 -0.181613
v 0.081613 0.782256 -0.018387
v 0.081613 0.782256 0.181613
v 0.090000 0.908437 0.000000
v 0.090000 0.991563 -0.179828
v 0.090000 0.991563 0.179828
v 0.115000 1.720000 -0.115000
v 0.115000 1.720000 0.115000
v 0.133744 -0.005368 -0.055635
v 0.134254 -0.005527 0.144327
v 0.134520 -0.004387 0.054796
v 0.134830 -0.004478 -0.145185
v 0.145000 1.150000 -0.145000
v 0.145000 1.150000 0.145000
v 0.164230 0.082691 -0.145000
v 0.164230 0.082691 -0.055000
v 0.164230 0.082691 0.055000
v 0.164230 0.082691 0.145000
vt 0.065743 0.512993
vt 0.065743 5.133327
vt 0.065743 6.036256
vt 0.098384 2.110435
vt 0.101830 1.708891
vt 0.124421 2.632889
vt 0.145627 5.397491
vt 0.150633 3.495651
vt 0.169097 1.402332
vt 0.226152 0.311648
vt 0.327255 0.486954
vt 0.340543 0.065743
vt 0.359608 3.498058
vt 0.385137 2.632888
vt 0.411292 2.110435
vt 0.446588 1.868185
vt 0.473247 3.629545
vt 0.473247 5.236256
vt 0.473247 5.473938
vt 0.473247 6.450225
vt 0.474333 6.278579
vt 0.487910 3.963387
vt 0.493405 2.252101
vt 0.534037 3.495650
vt 0.537446 5.000321
vt 0.551416 0.065743
vt 0.564965 0.486954
vt 0.644542 6.277696
vt 0.645126 5.132974
vt 0.645126 5.573835
vt 0.645675 6.450225
vt 0.667067 0.311648
vt 0.687046 5.001488
vt 0.725033 1.402332
vt 0.736566 3.966172
vt 0.743012 3.498058
vt 0.749281 3.629545
vt 0.768541 2.632888
vt 0.791299 1.708891
vt 0.794696 2.110434
vt 0.826683 0.512993
vt 0.895075 5.249849
vt 0.895075 5.460696
vt 1.288288 3.973793
vt 1.288288 5.706232
vt 1.288288 6.204292
vt 1.308877 6.440385
vt 1.312908 6.072804
vt 1.327638 4.317772
vt 1.345744 3.881110
vt 1.372088 5.002398
vt 1.458321 3.629544
vt 1.481401 6.438581
vt 1.484528 6.070314
vt 1.497302 5.706232
vt 1.497459 6.204292
vt 1.521957 5.002398
vt 1.539960 3.964545
vt 1.671446 3.629544
vt 1.671446 3.761030
vt 1.850595 0.511106
vt 1.850595 3.500437
vt 1.850595 5.130214
vt 1.850595 5.517463
vt 1.850595 5.728323
vt 1.854562 4.265066
vt 1.854835 3.742639
vt 1.882504 2.105293
vt 1.885957 1.703831
vt 1.908576 2.627825
vt 1.927721 3.248499
vt 1.934412 3.368951
vt 1.952433 1.394019
vt 2.010372 0.307156
vt 2.034285 5.014991
vt 2.064204 4.897247
vt 2.100015 5.401047
vt 2.100015 5.841935
vt 2.112281 0.485792
vt 2.125836 0.065743
vt 2.143558 3.367043
vt 2.149384 3.899326
vt 2.150013 3.248499
vt 2.169294 2.627825
vt 2.192394 5.269561
vt 2.195161 3.518170
vt 2.195414 2.105293
vt 2.230660 1.862865
vt 2.257836 5.105776
vt 2.272369 5.503890
vt 2.272369 5.741586
vt 2.277570 2.247116
vt 2.311128 3.248499
vt 2.317820 3.368951
vt 2.336710 0.065743
vt 2.349994 0.485792
vt 2.403855 5.665306
vt 2.451291 0.307155
vt 2.483321 5.401047
vt 2.483321 6.304111
vt 2.508373 1.394018
vt 2.526966 3.367043
vt 2.533421 3.248499
vt 2.552701 2.627825
vt 2.575431 1.703830
vt 2.578821 2.105293
vt 2.611540 0.511105
vt 2.928049 3.500437
vt 2.928049 6.254566
vt 2.928049 6.465440
vt 2.940281 3.834672
vt 2.990062 4.871568
vt 3.136975 6.254490
vt 3.136975 6.465365
vt 3.139664 4.872733
vt 3.188907 3.837460
vt 3.204066 3.500437
vt 3.335552 3.764185
vt 3.335553 4.538385
vt 3.335553 5.444910
vt 3.415257 4.802170
vt 3.415527 3.500437
vt 3.415527 4.406898
vt 3.635457 2.759604
vt 3.635457 4.664161
vt 3.635458 0.713191
vt 3.635458 4.961364
vt 3.635458 6.211850
vt 3.649025 5.052433
vt 3.656046 6.447943
vt 3.695941 2.927655
vt 3.698155 6.080122
vt 3.700683 3.076192
vt 3.702149 4.829879
vt 3.728256 3.316955
vt 3.747160 1.015075
vt 3.763758 0.070722
vt 3.770505 1.415976
vt 3.779777 3.836926
vt 3.805676 1.937307
vt 3.828570 6.446138
vt 3.829386 4.455902
vt 3.835829 2.557536
vt 3.844628 6.211850
vt 3.847644 6.080363
vt 3.856582 4.572104
vt 3.859363 2.674534
vt 3.879027 5.397059
vt 3.899811 5.054308
vt 3.911492 4.961364
vt 4.036753 3.443263
vt 4.039748 0.065743
vt 4.044390 2.795154
vt 4.045305 3.059142
vt 4.045305 4.686856
vt 4.066333 1.932606
vt 4.083342 1.410333
vt 4.092147 1.008852
vt 4.191269 0.703165
vt 4.450499 4.961364
vt 4.462518 5.052682
vt 4.514525 6.079908
vt 4.664002 6.080150
vt 4.693757 5.397108
vt 4.713234 5.054567
vt 4.718125 4.660171
vt 4.718126 4.097089
vt 4.718248 4.809519
vt 4.718406 4.246948
vt 4.726516 4.961364
vt 4.865498 4.659780
vt 4.865498 4.809633
vt 4.865697 4.246948
vt 4.865770 4.097598
vt 5.010054 0.703172
vt 5.010055 6.048585
vt 5.034586 6.414144
vt 5.108882 1.009166
vt 5.117671 1.410656
vt 5.134792 1.932802
vt 5.159630 2.797602
vt 5.161595 0.065743
vt 5.206266 6.413284
vt 5.219068 6.048585
vt 5.339383 2.676328
vt 5.365364 2.557652
vt 5.395432 1.937525
vt 5.430489 1.416324
vt 5.437568 0.070744
vt 5.453847 1.015417
vt 5.506471 2.925678
vt 5.565831 0.713243
vt 5.565831 2.759620
vt 5.697318 4.922045
vt 5.697319 1.914457
vt 5.736620 2.258274
vt 5.752367 4.578728
vt 5.754842 1.822063
vt 5.781053 2.942920
vt 5.798344 5.953424
vt 5.867332 1.570084
vt 5.884603 4.820962
vt 5.930921 2.942920
vt 5.947103 4.906831
vt 5.947103 5.940155
vt 5.948974 1.905143
vt 6.080460 3.415788
vt 6.080461 1.633129
vt 6.080461 1.906631
vt 6.090492 6.100203
vt 6.090492 6.335718
vt 6.135541 3.072533
vt 6.181473 4.447242
vt 6.267633 3.314374
vt 6.291830 2.210648
vt 6.292612 2.038964
vt 6.330234 3.400549
vt 6.330234 4.433983
vt 6.342148 1.648610
vt 6.342148 1.884126
vt 6.352038 6.084910
vt 6.352038 6.358413
vt 6.462958 2.038118
vt 6.464016 2.210648
vn -0.980757 -0.195215 0.002481
vn -0.873947 0.276190 -0.399920
vn -0.873947 0.276190 0.399920
vn -0.770903 0.009074 0.636888
vn -0.769347 0.018410 -0.638566
vn -0.716213 -0.106963 -0.689636
vn -0.715541 -0.100009 0.691375
vn -0.711734 -0.089221 0.696760
vn -0.708019 -0.062283 0.703442
vn -0.707478 -0.060290 -0.704159
vn -0.706330 -0.046865 -0.706330
vn -0.706330 -0.046865 0.706330
vn -0.705953 -0.058489 -0.705840
vn -0.700005 -0.050940 -0.712319
vn -0.698386 -0.048776 0.714058
vn -0.674261 0.054263 0.736497
vn -0.674095 0.054040 -0.736665
vn -0.640702 0.125265 -0.757502
vn -0.638268 0.116681 0.760920
vn -0.636804 -0.486266 0.598352
vn -0.636408 -0.485941 0.599038
vn -0.636313 -0.017687 -0.771228
vn -0.629638 -0.491939 -0.601292
vn -0.629404 -0.491819 -0.601635
vn -0.612182 -0.035694 0.789911
vn -0.575325 -0.608646 0.546398
vn -0.566017 -0.586347 -0.579502
vn -0.560465 -0.590426 0.580755
vn -0.555352 -0.621129 -0.552977
vn -0.441869 -0.005635 -0.897062
vn -0.439930 -0.011664 0.897956
vn -0.436506 0.786718 -0.436506
vn -0.436506 0.786718 0.436506
vn -0.298276 0.954030 0.029305
vn -0.248552 0.966843 -0.058629
vn -0.169672 0.904049 -0.392310
vn -0.095952 0.896141 0.433272
vn 0.095952 0.896141 -0.433272
vn 0.169672 0.904049 0.392310
vn 0.248552 0.966843 0.058629
vn 0.298276 0.954030 -0.029305
vn 0.363438 -0.749255 0.553652
vn 0.366694 -0.749058 0.551769
vn 0.371627 -0.742905 -0.556763
vn 0.374011 -0.743033 -0.554992
vn 0.436506 0.786718 -0.436506
vn 0.436506 0.786718 0.436506
vn 0.439930 -0.011664 -0.897956
vn 0.441869 -0.005635 0.897062
vn 0.442420 0.164365 -0.881617
vn 0.442422 0.164370 -0.881615
vn 0.447201 0.166337 0.878831
vn 0.447203 0.166313 0.878834
vn 0.555352 -0.621129 0.552977
vn 0.560465 -0.590426 -0.580755
vn 0.566017 -0.586347 0.579502
vn 0.575325 -0.608646 -0.546398
vn 0.612538 -0.036960 0.789577
vn 0.635926 -0.016404 -0.771576
vn 0.638268 0.116681 -0.760920
vn 0.640702 0.125265 0.757502
vn 0.674095 0.054040 0.736665
vn 0.674261 0.054263 -0.736497
vn 0.698386 -0.048776 -0.714058
vn 0.700005 -0.050940 0.712319
vn 0.703788 -0.053408 0.708399
vn 0.706330 -0.046865 -0.706330
vn 0.706330 -0.046865 0.706330
vn 0.706338 -0.057140 -0.705565
vn 0.707422 -0.053420 0.704770
vn 0.711560 -0.087691 -0.697132
vn 0.715541 -0.100009 -0.691375
vn 0.716213 -0.106963 0.689636
vn 0.717866 -0.103358 0.688466
vn 0.717909 -0.104317 -0.688276
vn 0.719228 -0.103301 0.687051
vn 0.719349 -0.101997 -0.687120
vn 0.753395 0.353429 -0.554513
vn 0.754054 0.353247 -0.553732
vn 0.754198 0.351354 0.554739
vn 0.754390 0.351941 0.554106
vn 0.769347 0.018410 -0.638566
vn 0.770903 0.009074 0.636888
vn 0.873947 0.276190 -0.399920
vn 0.873947 0.276190 0.399920
vn 0.980759 -0.195215 0.001712
usemtl ZombieSkin
f 1/34/5 2/9/4 15/1/34
f 1/34/5 5/16/1 2/9/4
f 1/34/5 6/39/22 5/16/1
f 1/34/5 15/1/34 14/41/35
f 1/120/5 14/119/35 12/121/30
f 1/175/5 12/182/30 77/192/82
f 1/175/5 69/190/59 6/178/22
f 1/175/5 77/192/82 69/190/59
f 2/9/4 5/16/1 7/5/25
f 2/59/4 15/59/37 15/59/34
f 2/123/4 13/118/31 15/122/37
f 2/159/4 7/158/25 70/136/58
f 2/159/4 61/137/49 13/152/31
f 2/159/4 70/136/58 78/126/83
f 2/159/4 78/126/83 61/137/49
f 3/29/11 25/42/32 45/43/46
f 3/29/11 45/43/46 71/30/67
f 3/29/11 71/30/67 23/18/2
f 3/32/11 4/10/12 25/26/32
f 3/32/11 23/27/2 24/11/3
f 3/32/11 24/11/3 4/10/12
f 4/10/12 26/12/33 25/26/32
f 4/77/12 24/90/3 52/91/85
f 4/77/12 52/91/85 72/78/68
f 4/77/12 72/78/68 26/64/33
f 5/16/1 6/39/22 8/40/14
f 5/16/1 8/40/14 11/23/8
f 5/16/1 9/15/6 10/4/15
f 5/16/1 10/4/15 7/5/25
f 5/62/1 68/86/86 9/67/6
f 5/154/1 11/151/8 66/135/73
f 5/154/1 66/135/73 68/133/86
f 6/178/22 69/190/59 8/179/14
f 7/158/25 10/157/15 67/138/65
f 7/158/25 67/138/65 70/136/58
f 8/40/14 16/38/10 11/23/8
f 8/179/14 65/188/64 16/180/10
f 8/179/14 69/190/59 65/188/64
f 9/15/6 17/14/13 10/4/15
f 9/67/6 64/82/71 17/66/13
f 9/67/6 68/86/86 64/82/71
f 10/4/15 17/14/13 18/6/9
f 10/157/15 18/156/9 59/140/66
f 10/157/15 59/140/66 67/138/65
f 11/23/8 16/38/10 28/24/21
f 11/151/8 28/155/21 48/142/76
f 11/151/8 48/142/76 58/139/70
f 11/151/8 58/139/70 66/135/73
f 12/60/30 14/60/35 14/60/36
f 12/150/30 19/149/19 55/129/61
f 12/150/30 55/129/61 60/127/48
f 12/182/30 60/189/48 77/192/82
f 12/198/30 14/201/36 21/206/17
f 12/198/30 21/206/17 19/195/19
f 13/160/31 61/170/49 20/161/18
f 13/202/31 20/204/18 22/194/16
f 13/202/31 22/194/16 15/197/37
f 14/41/35 15/1/34 23/27/2
f 14/60/35 62/60/41 14/60/36
f 14/60/36 62/60/41 62/60/38
f 14/108/36 62/117/38 21/111/17
f 14/208/35 23/219/2 51/220/84
f 14/208/35 51/220/84 62/209/41
f 15/1/34 24/11/3 23/27/2
f 15/37/37 22/35/16 54/22/62
f 15/37/37 54/22/62 63/17/39
f 15/59/34 15/59/37 63/59/39
f 15/59/34 63/59/39 63/59/40
f 15/221/34 52/211/85 24/210/3
f 15/221/34 63/222/40 52/211/85
f 16/38/10 30/36/23 28/24/21
f 16/180/10 47/186/77 30/181/23
f 16/180/10 57/187/69 47/186/77
f 16/180/10 65/188/64 57/187/69
f 17/14/13 29/8/20 18/6/9
f 17/14/13 31/13/24 29/8/20
f 17/66/13 49/76/75 31/63/24
f 17/66/13 64/82/71 49/76/75
f 18/156/9 29/153/20 50/143/74
f 18/156/9 50/143/74 59/140/66
f 19/149/19 27/148/7 55/129/61
f 19/195/19 21/206/17 27/196/7
f 20/161/18 44/164/72 34/162/29
f 20/161/18 56/165/60 44/164/72
f 20/161/18 61/170/49 56/165/60
f 20/204/18 34/205/29 22/194/16
f 21/111/17 53/116/63 33/112/27
f 21/111/17 62/117/38 53/116/63
f 21/206/17 33/203/27 27/196/7
f 22/35/16 32/33/28 38/25/56
f 22/35/16 38/25/56 54/22/62
f 22/194/16 34/205/29 32/200/28
f 23/18/2 71/30/67 51/19/84
f 25/110/32 26/109/33 46/113/47
f 25/110/32 46/113/47 45/114/46
f 26/64/33 72/78/68 46/65/47
f 27/148/7 35/145/26 37/132/54
f 27/148/7 37/132/54 55/129/61
f 27/196/7 33/203/27 35/199/26
f 28/155/21 42/146/52 48/142/76
f 28/155/21 73/134/42 42/146/52
f 28/176/21 30/184/23 73/177/42
f 29/45/20 31/55/24 74/48/43
f 29/153/20 43/147/53 50/143/74
f 29/153/20 74/131/43 43/147/53
f 30/181/23 40/185/50 76/191/45
f 30/181/23 47/186/77 40/185/50
f 30/184/23 76/183/45 73/177/42
f 31/55/24 75/54/44 74/48/43
f 31/63/24 41/75/51 75/85/44
f 31/63/24 49/76/75 41/75/51
f 32/168/28 34/166/29 36/171/57
f 32/168/28 36/171/57 38/172/56
f 33/112/27 53/116/63 39/115/55
f 33/167/27 39/174/55 35/169/26
f 34/162/29 44/164/72 36/163/57
f 35/169/26 39/174/55 37/173/54
f 36/51/57 44/49/72 38/57/56
f 37/218/54 39/213/55 53/207/63
f 37/218/54 53/207/63 55/217/61
f 38/57/56 44/49/72 54/58/62
f 40/46/50 42/56/52 79/47/79
f 40/72/50 47/71/77 42/81/52
f 40/185/50 79/193/79 76/191/45
f 41/75/51 81/89/78 75/85/44
f 41/94/51 49/93/75 43/102/53
f 41/128/51 43/144/53 81/130/78
f 42/56/52 80/53/80 79/47/79
f 42/81/52 47/71/77 48/83/76
f 42/146/52 73/134/42 80/125/80
f 43/102/53 49/93/75 50/103/74
f 43/144/53 82/141/81 81/130/78
f 43/147/53 74/131/43 82/124/81
f 44/49/72 56/44/60 54/58/62
f 45/80/46 46/95/47 71/74/67
f 46/95/47 72/98/68 71/74/67
f 47/71/77 57/70/69 48/83/76
f 48/83/76 57/70/69 58/84/70
f 49/93/75 64/92/71 50/103/74
f 50/103/74 64/92/71 59/104/66
f 51/79/84 52/96/85 63/107/40
f 51/79/84 63/107/40 62/61/41
f 51/79/84 71/74/67 72/98/68
f 51/79/84 72/98/68 52/96/85
f 53/207/63 60/214/48 55/217/61
f 53/207/63 62/212/38 60/214/48
f 54/58/62 56/44/60 61/50/49
f 54/58/62 61/50/49 63/52/39
f 57/70/69 65/68/64 58/84/70
f 58/84/70 65/68/64 66/87/73
f 59/104/66 64/92/71 67/106/65
f 60/97/48 62/99/38 77/100/82
f 61/7/49 78/3/83 63/2/40
f 61/59/49 63/59/40 63/59/39
f 62/60/38 62/60/41 77/60/82
f 62/61/41 63/107/40 77/73/82
f 63/107/40 78/101/83 77/73/82
f 64/92/71 68/88/86 67/106/65
f 65/68/64 68/88/86 66/87/73
f 65/68/64 69/69/59 68/88/86
f 67/106/65 68/88/86 70/105/58
f 68/88/86 69/69/59 77/73/82
f 68/88/86 77/73/82 78/101/83
f 68/88/86 78/101/83 70/105/58
f 73/215/42 76/216/45 80/224/80
f 74/20/43 75/21/44 82/31/81
f 75/21/44 81/28/78 82/31/81
f 76/216/45 79/223/79 80/224/80
