# exported by ae3d_export.py v2
# object: Zombie_HandL
mtllib Zombie_HandL.mtl
v -0.058000 -0.130000 -0.015000
v -0.058000 -0.130000 0.015000
v -0.058000 0.020000 -0.015000
v -0.058000 0.020000 0.015000
v -0.052142 -0.144142 -0.015000
v -0.052142 -0.144142 0.015000
v -0.052142 -0.130000 -0.029142
v -0.052142 -0.130000 0.029142
v -0.052142 0.020000 -0.029142
v -0.052142 0.020000 0.029142
v -0.052142 0.034142 -0.015000
v -0.052142 0.034142 0.015000
v -0.049547 -0.141547 -0.026547
v -0.049547 -0.141547 0.026547
v -0.049547 0.031547 -0.026547
v -0.049547 0.031547 0.026547
v -0.038000 -0.150000 -0.015000
v -0.038000 -0.150000 0.015000
v -0.038000 -0.144142 -0.029142
v -0.038000 -0.144142 0.029142
v -0.038000 -0.130000 -0.035000
v -0.038000 -0.130000 0.035000
v -0.038000 0.020000 -0.035000
v -0.038000 0.020000 0.035000
v -0.038000 0.034142 -0.029142
v -0.038000 0.034142 0.029142
v -0.038000 0.040000 -0.015000
v -0.038000 0.040000 0.015000
v 0.038000 -0.150000 -0.015000
v 0.038000 -0.150000 0.015000
v 0.038000 -0.144142 -0.029142
v 0.038000 -0.144142 0.029142
v 0.038000 -0.130000 -0.035000
v 0.038000 -0.130000 0.035000
v 0.038000 0.020000 -0.035000
v 0.038000 0.020000 0.035000
v 0.038000 0.034142 -0.029142
v 0.038000 0.034142 0.029142
v 0.038000 0.040000 -0.015000
v 0.038000 0.040000 0.015000
v 0.049547 -0.141547 -0.026547
v 0.049547 -0.141547 0.026547
v 0.049547 0.031547 -0.026547
v 0.049547 0.031547 0.026547
v 0.052142 -0.144142 -0.015000
v 0.052142 -0.144142 0.015000
v 0.052142 -0.130000 -0.029142
v 0.052142 -0.130000 0.029142
v 0.052142 0.020000 -0.029142
v 0.052142 0.020000 0.029142
v 0.052142 0.034142 -0.015000
v 0.052142 0.034142 0.015000
v 0.058000 -0.130000 -0.015000
v 0.058000 -0.130000 0.015000
v 0.058000 0.020000 -0.015000
v 0.058000 0.020000 0.015000
vt -0.312853 -0.780000
vt -0.312853 -0.090000
vt -0.312853 0.090000
vt -0.312853 0.120000
vt -0.297282 -0.849282
vt -0.297282 -0.159282
vt -0.297282 0.159282
vt -0.297282 0.189282
vt -0.228000 -0.864853
vt -0.228000 -0.780000
vt -0.228000 -0.174853
vt -0.228000 -0.090000
vt -0.228000 0.090000
vt -0.228000 0.120000
vt -0.228000 0.174853
vt -0.228000 0.204853
vt -0.174853 -0.780000
vt -0.174853 0.120000
vt -0.159282 -0.849282
vt -0.159282 0.189282
vt -0.090000 -0.864853
vt -0.090000 -0.780000
vt -0.090000 0.120000
vt -0.090000 0.204853
vt 0.090000 -0.864853
vt 0.090000 -0.780000
vt 0.090000 0.120000
vt 0.090000 0.204853
vt 0.159282 -0.849282
vt 0.159282 0.189282
vt 0.174853 -0.780000
vt 0.174853 0.120000
vt 0.228000 -0.864853
vt 0.228000 -0.780000
vt 0.228000 -0.174853
vt 0.228000 -0.090000
vt 0.228000 0.090000
vt 0.228000 0.120000
vt 0.228000 0.174853
vt 0.228000 0.204853
vt 0.297282 -0.849282
vt 0.297282 -0.159282
vt 0.297282 0.159282
vt 0.297282 0.189282
vt 0.312853 -0.780000
vt 0.312853 -0.090000
vt 0.312853 0.090000
vt 0.312853 0.120000
vn -1.000000 0.000000 0.000000
vn -0.923880 -0.382683 0.000000
vn -0.923880 0.000000 -0.382683
vn -0.923880 0.000000 0.382683
vn -0.923880 0.382683 0.000000
vn -0.888074 -0.325057 -0.325057
vn -0.888074 -0.325057 0.325057
vn -0.888074 0.325057 -0.325058
vn -0.888074 0.325057 0.325058
vn -0.382683 0.000000 -0.923880
vn -0.382683 0.000000 0.923880
vn -0.382683 0.923880 0.000000
vn -0.382682 -0.923880 0.000000
vn -0.325058 -0.325058 -0.888074
vn -0.325058 0.325058 -0.888074
vn -0.325058 0.325058 0.888074
vn -0.325057 -0.888074 -0.325058
vn -0.325057 -0.325058 0.888074
vn -0.325057 0.888074 -0.325057
vn -0.325057 0.888074 0.325057
vn -0.325056 -0.888074 0.325058
vn 0.000000 -1.000000 0.000000
vn 0.000000 -0.923880 -0.382683
vn 0.000000 -0.923880 0.382683
vn 0.000000 -0.382684 -0.923880
vn 0.000000 -0.382684 0.923880
vn 0.000000 0.000000 -1.000000
vn 0.000000 0.000000 1.000000
vn 0.000000 0.382684 -0.923880
vn 0.000000 0.382684 0.923880
vn 0.000000 0.923880 -0.382683
vn 0.000000 0.923880 0.382683
vn 0.000000 1.000000 0.000000
vn 0.325056 -0.888074 -0.325058
vn 0.325057 -0.888074 0.325058
vn 0.325057 -0.325058 -0.888074
vn 0.325057 0.888074 -0.325057
vn 0.325057 0.888074 0.325057
vn 0.325058 -0.325058 0.888074
vn 0.325058 0.325058 -0.888074
vn 0.325058 0.325058 0.888074
vn 0.382682 -0.923880 0.000000
vn 0.382683 0.000000 -0.923880
vn 0.382683 0.000000 0.923880
vn 0.382683 0.923880 0.000000
vn 0.888074 -0.325057 -0.325057
vn 0.888074 -0.325057 0.325057
vn 0.888074 0.325057 -0.325058
vn 0.888074 0.325057 0.325058
vn 0.923880 -0.382683 0.000000
vn 0.923880 0.000000 -0.382683
vn 0.923880 0.000000 0.382683
vn 0.923880 0.382683 0.000000
vn 1.000000 0.000000 0.000000
usemtl ZombieSkin
f 1/26/1 2/22/1 4/23/1
f 1/26/1 4/23/1 3/27/1
f 1/26/2 5/25/2 2/22/2
f 1/26/3 3/27/3 7/31/3
f 1/26/6 7/31/6 13/29/6
f 1/26/6 13/29/6 5/25/6
f 2/22/2 5/25/2 6/21/2
f 2/22/4 8/17/4 10/18/4
f 2/22/4 10/18/4 4/23/4
f 2/22/7 6/21/7 14/19/7
f 2/22/7 14/19/7 8/17/7
f 3/27/3 9/32/3 7/31/3
f 3/27/5 4/23/5 12/24/5
f 3/27/5 12/24/5 11/28/5
f 3/27/8 11/28/8 15/30/8
f 3/27/8 15/30/8 9/32/8
f 4/23/9 10/18/9 16/20/9
f 4/23/9 16/20/9 12/24/9
f 5/3/13 17/13/13 18/12/13
f 5/3/13 18/12/13 6/2/13
f 5/3/17 13/7/17 17/13/17
f 6/2/21 18/12/21 14/6/21
f 7/1/10 9/4/10 21/10/10
f 7/1/14 21/10/14 13/5/14
f 8/1/11 22/10/11 24/14/11
f 8/1/11 24/14/11 10/4/11
f 8/1/18 14/5/18 22/10/18
f 9/4/10 23/14/10 21/10/10
f 9/4/15 15/8/15 23/14/15
f 10/4/16 24/14/16 16/8/16
f 11/3/12 12/2/12 27/13/12
f 11/3/19 27/13/19 15/7/19
f 12/2/12 28/12/12 27/13/12
f 12/2/20 16/6/20 28/12/20
f 13/5/14 21/10/14 19/9/14
f 13/7/17 19/15/17 17/13/17
f 14/5/18 20/9/18 22/10/18
f 14/6/21 18/12/21 20/11/21
f 15/7/19 27/13/19 25/15/19
f 15/8/15 25/16/15 23/14/15
f 16/6/20 26/11/20 28/12/20
f 16/8/16 24/14/16 26/16/16
f 17/13/22 29/37/22 18/12/22
f 17/13/23 19/15/23 31/39/23
f 17/13/23 31/39/23 29/37/23
f 18/12/22 29/37/22 30/36/22
f 18/12/24 30/36/24 20/11/24
f 19/9/25 21/10/25 31/33/25
f 20/9/26 32/33/26 34/34/26
f 20/9/26 34/34/26 22/10/26
f 20/11/24 30/36/24 32/35/24
f 21/10/25 33/34/25 31/33/25
f 21/10/27 23/14/27 33/34/27
f 22/10/28 34/34/28 36/38/28
f 22/10/28 36/38/28 24/14/28
f 23/14/27 35/38/27 33/34/27
f 23/14/29 25/16/29 37/40/29
f 23/14/29 37/40/29 35/38/29
f 24/14/30 36/38/30 26/16/30
f 25/15/31 27/13/31 39/37/31
f 25/15/31 39/37/31 37/39/31
f 26/11/32 38/35/32 28/12/32
f 26/16/30 36/38/30 38/40/30
f 27/13/33 28/12/33 40/36/33
f 27/13/33 40/36/33 39/37/33
f 28/12/32 38/35/32 40/36/32
f 29/37/34 31/39/34 41/43/34
f 29/37/34 41/43/34 45/47/34
f 29/37/42 45/47/42 46/46/42
f 29/37/42 46/46/42 30/36/42
f 30/36/35 42/42/35 32/35/35
f 30/36/35 46/46/35 42/42/35
f 31/33/36 33/34/36 41/41/36
f 32/33/39 42/41/39 34/34/39
f 33/34/36 47/45/36 41/41/36
f 33/34/43 35/38/43 47/45/43
f 34/34/39 42/41/39 48/45/39
f 34/34/44 48/45/44 50/48/44
f 34/34/44 50/48/44 36/38/44
f 35/38/40 37/40/40 43/44/40
f 35/38/40 43/44/40 49/48/40
f 35/38/43 49/48/43 47/45/43
f 36/38/41 44/44/41 38/40/41
f 36/38/41 50/48/41 44/44/41
f 37/39/37 39/37/37 43/43/37
f 38/35/38 44/42/38 40/36/38
f 39/37/37 51/47/37 43/43/37
f 39/37/45 40/36/45 51/47/45
f 40/36/38 44/42/38 52/46/38
f 40/36/45 52/46/45 51/47/45
f 41/29/46 47/31/46 53/26/46
f 41/29/46 53/26/46 45/25/46
f 42/19/47 46/21/47 54/22/47
f 42/19/47 54/22/47 48/17/47
f 43/30/48 51/28/48 55/27/48
f 43/30/48 55/27/48 49/32/48
f 44/20/49 50/18/49 56/23/49
f 44/20/49 56/23/49 52/24/49
f 45/25/50 53/26/50 46/21/50
f 46/21/50 53/26/50 54/22/50
f 47/31/51 49/32/51 53/26/51
f 48/17/52 54/22/52 56/23/52
f 48/17/52 56/23/52 50/18/52
f 49/32/51 55/27/51 53/26/51
f 51/28/53 52/24/53 56/23/53
f 51/28/53 56/23/53 55/27/53
f 53/26/54 55/27/54 54/22/54
f 54/22/54 55/27/54 56/23/54
