# exported by ae3d_export.py v2
# object: Orb
mtllib Orb.mtl
v -1.000000 0.000001 0.000000
v -0.956626 -0.251149 -0.147618
v -0.956626 -0.251149 0.147618
v -0.951058 0.000000 -0.309013
v -0.951058 0.000000 0.309013
v -0.947213 0.276396 -0.162458
v -0.947213 0.276397 0.162458
v -0.894426 -0.447216 0.000000
v -0.861803 -0.276396 -0.425324
v -0.861803 -0.276396 0.425324
v -0.860698 0.251151 -0.442858
v -0.860698 0.251151 0.442858
v -0.850648 0.525736 0.000000
v -0.831051 -0.502299 -0.238853
v -0.831051 -0.502299 0.238853
v -0.812729 0.502301 -0.295238
v -0.812729 0.502301 0.295238
v -0.809018 0.000000 -0.587783
v -0.809018 0.000000 0.587783
v -0.753442 -0.657515 0.000000
v -0.723607 0.447220 -0.525725
v -0.723607 0.447220 0.525725
v -0.688189 -0.525736 -0.499997
v -0.688189 -0.525736 0.499997
v -0.687159 0.251152 -0.681715
v -0.687159 0.251152 0.681715
v -0.670819 -0.276397 -0.688191
v -0.670819 -0.276397 0.688191
v -0.670817 0.723611 -0.162457
v -0.670817 0.723611 0.162457
v -0.638195 -0.723609 -0.262863
v -0.638195 -0.723609 0.262864
v -0.609547 0.657519 -0.442856
v -0.609547 0.657519 0.442856
v -0.587786 0.000000 -0.809017
v -0.587786 0.000000 0.809017
v -0.531941 0.502302 -0.681712
v -0.531941 0.502302 0.681712
v -0.525730 -0.850652 0.000000
v -0.483971 -0.502302 -0.716565
v -0.483971 -0.502302 0.716565
v -0.447216 0.276397 0.850648
v -0.447215 0.276397 -0.850649
v -0.447211 -0.723612 -0.525727
v -0.447211 -0.723610 0.525729
v -0.447210 0.894429 0.000000
v -0.436007 -0.251152 -0.864188
v -0.436007 -0.251152 0.864188
v -0.425323 0.850654 -0.309011
v -0.425323 0.850654 0.309011
v -0.361804 0.723612 -0.587778
v -0.361804 0.723612 0.587778
v -0.361801 -0.894429 -0.262863
v -0.361801 -0.894428 0.262864
v -0.309017 -0.000001 0.951056
v -0.309016 0.000000 -0.951057
v -0.276388 -0.447220 -0.850649
v -0.276388 -0.447220 0.850649
v -0.262869 0.525738 -0.809012
v -0.262869 0.525738 0.809012
v -0.251147 -0.967949 0.000000
v -0.232822 -0.657519 -0.716563
v -0.232822 -0.657519 0.716563
v -0.203181 0.967950 -0.147618
v -0.203181 0.967950 0.147618
v -0.162456 -0.850654 -0.499995
v -0.162456 -0.850654 0.499995
v -0.155215 -0.251152 -0.955422
v -0.155215 -0.251152 0.955422
v -0.138199 0.276397 -0.951055
v -0.138199 0.276397 0.951055
v -0.138197 0.894430 -0.425319
v -0.138197 0.894430 0.425319
v -0.077607 -0.967950 -0.238853
v -0.077607 -0.967950 0.238853
v -0.052790 0.723612 -0.688185
v -0.052790 0.723612 0.688185
v -0.029639 -0.502302 -0.864184
v -0.029639 -0.502302 0.864184
v 0.000000 -1.000000 0.000000
v 0.000000 0.000000 -1.000000
v 0.000000 0.000000 1.000000
v 0.000000 1.000000 0.000000
v 0.029639 0.502302 -0.864184
v 0.029639 0.502302 0.864184
v 0.052789 -0.723611 -0.688186
v 0.052790 -0.723612 0.688185
v 0.077607 0.967950 -0.238853
v 0.077607 0.967950 0.238853
v 0.138197 -0.894429 -0.425321
v 0.138199 -0.894429 0.425321
v 0.138199 -0.276398 -0.951055
v 0.138199 -0.276398 0.951055
v 0.155215 0.251152 -0.955422
v 0.155215 0.251152 0.955422
v 0.162456 0.850654 -0.499995
v 0.162456 0.850654 0.499995
v 0.203181 -0.967950 -0.147618
v 0.203181 -0.967950 0.147618
v 0.232822 0.657519 -0.716563
v 0.232822 0.657519 0.716563
v 0.251147 0.967949 0.000000
v 0.262869 -0.525738 -0.809012
v 0.262869 -0.525738 0.809012
v 0.276388 0.447220 -0.850649
v 0.276388 0.447220 0.850649
v 0.309017 0.000000 -0.951056
v 0.309017 0.000000 0.951056
v 0.361800 0.894429 -0.262863
v 0.361800 0.894429 0.262863
v 0.361803 -0.723612 -0.587779
v 0.361805 -0.723611 0.587779
v 0.425323 -0.850654 -0.309011
v 0.425323 -0.850654 0.309011
v 0.436007 0.251152 -0.864188
v 0.436007 0.251152 0.864188
v 0.447209 0.723612 -0.525728
v 0.447209 0.723612 0.525728
v 0.447211 -0.894428 0.000001
v 0.447216 -0.276398 -0.850648
v 0.447216 -0.276398 0.850648
v 0.483971 0.502302 -0.716565
v 0.483971 0.502302 0.716565
v 0.525730 0.850652 0.000000
v 0.531941 -0.502302 -0.681712
v 0.531941 -0.502302 0.681712
v 0.587786 0.000000 -0.809017
v 0.587786 0.000000 0.809017
v 0.609547 -0.657519 -0.442856
v 0.609547 -0.657519 0.442856
v 0.638194 0.723610 -0.262864
v 0.638194 0.723610 0.262864
v 0.670817 -0.723611 -0.162457
v 0.670818 -0.723610 0.162458
v 0.670820 0.276396 0.688190
v 0.670821 0.276397 -0.688189
v 0.687159 -0.251152 -0.681715
v 0.687159 -0.251152 0.681715
v 0.688189 0.525736 -0.499997
v 0.688189 0.525736 0.499997
v 0.723607 -0.447220 -0.525725
v 0.723607 -0.447220 0.525725
v 0.753442 0.657515 0.000000
v 0.809019 -0.000002 0.587783
v 0.809019 0.000000 -0.587782
v 0.812729 -0.502301 -0.295238
v 0.812729 -0.502301 0.295238
v 0.831051 0.502299 -0.238853
v 0.831051 0.502299 0.238853
v 0.850648 -0.525736 0.000000
v 0.860698 -0.251151 -0.442858
v 0.860698 -0.251151 0.442858
v 0.861804 0.276394 0.425323
v 0.861804 0.276396 -0.425322
v 0.894426 0.447216 0.000000
v 0.947213 -0.276396 -0.162458
v 0.947213 -0.276396 0.162458
v 0.951058 0.000000 -0.309013
v 0.951058 0.000000 0.309013
v 0.956626 0.251149 -0.147618
v 0.956626 0.251149 0.147618
v 1.000000 0.000000 0.000000
vt 0.000000 0.314921
vt 0.022727 0.275556
vt 0.022727 0.354286
vt 0.045455 0.236191
vt 0.045455 0.314921
vt 0.045455 0.393651
vt 0.068182 0.196826
vt 0.068182 0.275556
vt 0.068182 0.354286
vt 0.068182 0.433017
vt 0.090909 0.314921
vt 0.090910 0.157461
vt 0.090910 0.236191
vt 0.090910 0.393651
vt 0.090910 0.472382
vt 0.113637 0.118096
vt 0.113637 0.196826
vt 0.113637 0.275556
vt 0.113637 0.354286
vt 0.113637 0.433017
vt 0.136364 0.157461
vt 0.136364 0.236191
vt 0.136364 0.314921
vt 0.136365 0.078731
vt 0.136365 0.393651
vt 0.159092 0.039365
vt 0.159092 0.118096
vt 0.159092 0.196826
vt 0.159092 0.275556
vt 0.159092 0.354286
vt 0.181819 0.000000
vt 0.181819 0.078731
vt 0.181819 0.157461
vt 0.181819 0.236191
vt 0.181819 0.314921
vt 0.204546 0.039365
vt 0.204546 0.118096
vt 0.204546 0.196826
vt 0.204546 0.275556
vt 0.204546 0.354286
vt 0.227273 0.078731
vt 0.227273 0.236191
vt 0.227273 0.314921
vt 0.227273 0.393651
vt 0.227274 0.157461
vt 0.250001 0.118096
vt 0.250001 0.196826
vt 0.250001 0.275556
vt 0.250001 0.354286
vt 0.250001 0.433017
vt 0.272728 0.157461
vt 0.272728 0.236191
vt 0.272728 0.314921
vt 0.272728 0.393651
vt 0.272728 0.472382
vt 0.295455 0.118096
vt 0.295455 0.196826
vt 0.295455 0.275556
vt 0.295455 0.354286
vt 0.295455 0.433017
vt 0.318182 0.078731
vt 0.318182 0.157461
vt 0.318182 0.236191
vt 0.318182 0.314921
vt 0.318182 0.393651
vt 0.340910 0.039365
vt 0.340910 0.118096
vt 0.340910 0.196826
vt 0.340910 0.275556
vt 0.340910 0.354286
vt 0.363637 0.000000
vt 0.363637 0.078730
vt 0.363637 0.157461
vt 0.363637 0.236191
vt 0.363637 0.314921
vt 0.386364 0.039365
vt 0.386364 0.118096
vt 0.386364 0.196826
vt 0.386364 0.275556
vt 0.386364 0.354286
vt 0.409091 0.078731
vt 0.409091 0.236191
vt 0.409091 0.314921
vt 0.409091 0.393651
vt 0.409092 0.157461
vt 0.431819 0.118096
vt 0.431819 0.196826
vt 0.431819 0.275556
vt 0.431819 0.354286
vt 0.431819 0.433017
vt 0.454546 0.157461
vt 0.454546 0.236191
vt 0.454546 0.314921
vt 0.454546 0.393651
vt 0.454546 0.472382
vt 0.477273 0.118096
vt 0.477273 0.196826
vt 0.477273 0.275556
vt 0.477273 0.354286
vt 0.477273 0.433017
vt 0.500000 0.078731
vt 0.500000 0.157461
vt 0.500000 0.236191
vt 0.500000 0.314921
vt 0.500000 0.393651
vt 0.522728 0.039365
vt 0.522728 0.118096
vt 0.522728 0.196826
vt 0.522728 0.275556
vt 0.522728 0.354286
vt 0.545455 0.000000
vt 0.545455 0.078731
vt 0.545455 0.157461
vt 0.545455 0.236191
vt 0.545455 0.314921
vt 0.568182 0.039365
vt 0.568182 0.118096
vt 0.568182 0.196826
vt 0.568182 0.275556
vt 0.568182 0.354286
vt 0.590909 0.078731
vt 0.590909 0.157461
vt 0.590909 0.236191
vt 0.590909 0.314921
vt 0.590909 0.393651
vt 0.613637 0.118096
vt 0.613637 0.196826
vt 0.613637 0.275556
vt 0.613637 0.354286
vt 0.613637 0.433017
vt 0.636364 0.157461
vt 0.636364 0.236191
vt 0.636364 0.314921
vt 0.636364 0.393651
vt 0.636364 0.472382
vt 0.659091 0.118096
vt 0.659091 0.196826
vt 0.659091 0.275556
vt 0.659091 0.354286
vt 0.659091 0.433017
vt 0.681818 0.078731
vt 0.681818 0.157461
vt 0.681818 0.236191
vt 0.681818 0.314921
vt 0.681818 0.393651
vt 0.704546 0.039365
vt 0.704546 0.118096
vt 0.704546 0.196826
vt 0.704546 0.275556
vt 0.704546 0.354286
vt 0.727273 0.000000
vt 0.727273 0.078731
vt 0.727273 0.157461
vt 0.727273 0.236191
vt 0.727273 0.314921
vt 0.750000 0.039365
vt 0.750000 0.118096
vt 0.750000 0.196826
vt 0.750000 0.275556
vt 0.750000 0.354286
vt 0.772727 0.078731
vt 0.772727 0.157461
vt 0.772727 0.236191
vt 0.772727 0.314921
vt 0.772727 0.393651
vt 0.795455 0.118096
vt 0.795455 0.196826
vt 0.795455 0.275556
vt 0.795455 0.354286
vt 0.795455 0.433017
vt 0.818182 0.157461
vt 0.818182 0.236191
vt 0.818182 0.314921
vt 0.818182 0.393651
vt 0.818182 0.472382
vt 0.840909 0.118096
vt 0.840909 0.196826
vt 0.840909 0.275556
vt 0.840909 0.354286
vt 0.840909 0.433017
vt 0.863636 0.078731
vt 0.863636 0.157461
vt 0.863636 0.236191
vt 0.863636 0.314921
vt 0.863636 0.393651
vt 0.886364 0.039365
vt 0.886364 0.118096
vt 0.886364 0.196826
vt 0.886364 0.275556
vt 0.886364 0.354286
vt 0.909091 0.000000
vt 0.909091 0.078731
vt 0.909091 0.157461
vt 0.909091 0.236191
vt 0.909091 0.314921
vt 0.931818 0.039365
vt 0.931818 0.118096
vt 0.931818 0.196826
vt 0.931818 0.275556
vt 0.954545 0.078731
vt 0.954545 0.157461
vt 0.954545 0.236191
vt 0.977273 0.118096
vt 0.977273 0.196826
vt 1.000000 0.157461
vn -0.985412 -0.170183 0.000000
vn -0.984650 -0.078388 -0.155950
vn -0.984649 -0.078388 0.155951
vn -0.983104 0.096236 -0.155707
vn -0.983104 0.096237 0.155706
vn -0.982247 0.187592 0.000001
vn -0.953185 -0.302386 0.000000
vn -0.936570 -0.174545 -0.303924
vn -0.936570 -0.174545 0.303925
vn -0.936345 0.174544 -0.304618
vn -0.936345 0.174544 0.304618
vn -0.932509 0.361146 0.000000
vn -0.905035 -0.398686 -0.148193
vn -0.905035 -0.398685 0.148193
vn -0.896269 -0.348473 -0.274351
vn -0.896269 -0.348473 0.274351
vn -0.888267 0.078387 -0.452590
vn -0.888267 0.078387 0.452590
vn -0.886873 -0.096234 -0.451880
vn -0.886873 -0.096234 0.451880
vn -0.886357 0.348476 -0.304854
vn -0.886357 0.348476 0.304854
vn -0.885671 0.439870 -0.148666
vn -0.885671 0.439870 0.148666
vn -0.827125 -0.554505 -0.091586
vn -0.827125 -0.554505 0.091586
vn -0.819296 0.398687 -0.412072
vn -0.819296 0.398687 0.412072
vn -0.803908 -0.439871 0.400307
vn -0.803908 -0.439870 -0.400307
vn -0.797217 0.170186 -0.579208
vn -0.797217 0.170187 0.579207
vn -0.794654 -0.187594 -0.577350
vn -0.794654 -0.187594 0.577350
vn -0.789510 0.595460 -0.148667
vn -0.789510 0.595460 0.148667
vn -0.771146 0.302387 0.560265
vn -0.771146 0.302388 -0.560264
vn -0.754416 -0.361145 0.548115
vn -0.754416 -0.361144 -0.548116
vn -0.752032 -0.636944 -0.169558
vn -0.752031 -0.636945 0.169559
vn -0.740043 0.672560 0.000000
vn -0.726114 -0.595458 -0.343786
vn -0.726114 -0.595458 0.343786
vn -0.722992 0.554509 -0.412071
vn -0.722992 0.554509 0.412071
vn -0.708071 0.636946 -0.304852
vn -0.708071 0.636946 0.304853
vn -0.704932 0.078388 -0.704930
vn -0.704932 0.078388 0.704930
vn -0.703826 -0.096235 -0.703824
vn -0.703826 -0.096235 0.703824
vn -0.645086 0.398689 -0.651853
vn -0.645086 0.398689 0.651853
vn -0.644125 -0.759434 -0.091450
vn -0.644125 -0.759434 0.091451
vn -0.629137 -0.439872 -0.640858
vn -0.629137 -0.439872 0.640858
vn -0.615326 0.554509 -0.560263
vn -0.615326 0.554509 0.560263
vn -0.607057 0.794658 0.000000
vn -0.598706 -0.672561 -0.434985
vn -0.598706 -0.672561 0.434986
vn -0.579061 0.174545 -0.796381
vn -0.579061 0.174546 0.796381
vn -0.578465 -0.174546 -0.796814
vn -0.578465 -0.174546 0.796814
vn -0.574859 0.759438 -0.304617
vn -0.574859 0.759438 0.304617
vn -0.563838 0.348476 0.748767
vn -0.563837 0.348477 -0.748767
vn -0.551343 -0.595460 -0.584336
vn -0.551343 -0.595459 0.584337
vn -0.537885 -0.348476 -0.767622
vn -0.537885 -0.348476 0.767622
vn -0.525729 0.836280 -0.155706
vn -0.525729 0.836280 0.155706
vn -0.516846 -0.836280 -0.183045
vn -0.516846 -0.836280 0.183046
vn -0.508744 0.636947 0.579205
vn -0.508743 0.636947 -0.579205
vn -0.491122 -0.794657 -0.356818
vn -0.491122 -0.794656 0.356820
vn -0.467354 0.759438 -0.452587
vn -0.467354 0.759438 0.452587
vn -0.452594 -0.078389 -0.888265
vn -0.452594 -0.078389 0.888265
vn -0.451883 0.096236 -0.886871
vn -0.451883 0.096236 0.886871
vn -0.420608 -0.398689 -0.814945
vn -0.420607 -0.398689 0.814945
vn -0.415083 0.439871 0.796379
vn -0.415083 0.439872 -0.796379
vn -0.393647 -0.636948 -0.662826
vn -0.393647 -0.636948 0.662827
vn -0.391194 -0.915753 -0.091450
vn -0.391194 -0.915753 0.091451
vn -0.385367 0.595460 0.704925
vn -0.385367 0.595461 -0.704925
vn -0.370233 0.915755 -0.155951
vn -0.370233 0.915755 0.155951
vn -0.342698 -0.554509 -0.758339
vn -0.342698 -0.554509 0.758339
vn -0.333799 -0.836282 -0.434985
vn -0.333798 -0.836281 0.434986
vn -0.310547 0.836282 -0.451877
vn -0.310547 0.836282 0.451877
vn -0.304507 -0.170186 -0.937183
vn -0.304507 -0.170186 0.937183
vn -0.303534 0.187594 0.934171
vn -0.303533 0.187593 -0.934172
vn -0.294548 -0.302388 -0.906533
vn -0.294548 -0.302388 0.906533
vn -0.288470 0.957489 0.000000
vn -0.288164 0.361146 0.886868
vn -0.288163 0.361147 -0.886868
vn -0.286018 -0.759438 -0.584335
vn -0.286018 -0.759438 0.584335
vn -0.262729 0.915754 -0.303920
vn -0.262729 0.915754 0.303920
vn -0.233377 -0.957489 0.169558
vn -0.233376 -0.957489 -0.169558
vn -0.228689 0.672562 -0.703819
vn -0.228689 0.672562 0.703819
vn -0.207860 -0.915754 -0.343785
vn -0.207860 -0.915754 0.343785
vn -0.187594 0.794659 -0.577344
vn -0.187593 0.794659 0.577344
vn -0.168486 -0.554509 -0.814943
vn -0.168486 -0.554509 0.814943
vn -0.155953 -0.078389 -0.984649
vn -0.155953 -0.078389 0.984649
vn -0.155817 0.987786 0.000000
vn -0.155709 0.096235 0.983104
vn -0.155708 0.096235 -0.983104
vn -0.138726 -0.398688 -0.906533
vn -0.138726 -0.398688 0.906533
vn -0.132301 0.439872 -0.888262
vn -0.132300 0.439872 0.888262
vn -0.126060 -0.987786 -0.091587
vn -0.126060 -0.987786 0.091587
vn -0.112065 -0.759438 -0.640855
vn -0.112065 -0.759438 0.640855
vn -0.102585 0.595461 -0.796808
vn -0.102584 0.595461 0.796808
vn -0.089143 0.957489 -0.274349
vn -0.089143 0.957490 0.274349
vn -0.071126 -0.636947 -0.767619
vn -0.071125 -0.636948 0.767618
vn -0.048151 0.987786 -0.148190
vn -0.048151 0.987786 0.148190
vn -0.033908 -0.915754 -0.400305
vn -0.033907 -0.915754 0.400305
vn -0.016035 -0.348476 -0.937181
vn -0.016035 -0.348475 0.937181
vn -0.014375 0.836282 -0.548111
vn -0.014375 0.836282 0.548111
vn -0.000363 -0.174545 0.984649
vn -0.000363 -0.174544 -0.984649
vn 0.000363 0.174544 -0.984649
vn 0.000363 0.174545 0.984649
vn 0.014374 -0.836281 -0.548113
vn 0.014375 -0.836282 0.548112
vn 0.016034 0.348476 0.937180
vn 0.016035 0.348477 -0.937180
vn 0.033908 0.915754 -0.400305
vn 0.033908 0.915755 0.400305
vn 0.048151 -0.987786 -0.148190
vn 0.048151 -0.987786 0.148190
vn 0.071125 0.636948 -0.767619
vn 0.071125 0.636948 0.767619
vn 0.089144 -0.957489 -0.274350
vn 0.089144 -0.957489 0.274350
vn 0.102585 -0.595460 -0.796808
vn 0.102585 -0.595460 0.796808
vn 0.112066 0.759438 -0.640855
vn 0.112066 0.759438 0.640855
vn 0.126060 0.987786 -0.091587
vn 0.126060 0.987786 0.091587
vn 0.132300 -0.439872 -0.888262
vn 0.132300 -0.439872 0.888262
vn 0.138726 0.398688 -0.906533
vn 0.138726 0.398688 0.906533
vn 0.155708 -0.096235 -0.983104
vn 0.155708 -0.096235 0.983104
vn 0.155817 -0.987786 0.000000
vn 0.155953 0.078388 -0.984649
vn 0.155953 0.078388 0.984649
vn 0.168486 0.554509 -0.814943
vn 0.168486 0.554509 0.814943
vn 0.187594 -0.794658 -0.577345
vn 0.187595 -0.794658 0.577345
vn 0.207860 0.915754 -0.343785
vn 0.207860 0.915754 0.343785
vn 0.228688 -0.672562 -0.703820
vn 0.228689 -0.672562 0.703819
vn 0.233376 0.957489 -0.169558
vn 0.233376 0.957489 0.169558
vn 0.262728 -0.915754 -0.303921
vn 0.262729 -0.915754 0.303920
vn 0.286017 0.759438 0.584336
vn 0.286018 0.759438 -0.584336
vn 0.288163 -0.361147 -0.886868
vn 0.288164 -0.361147 0.886868
vn 0.288471 -0.957489 0.000000
vn 0.294548 0.302388 -0.906533
vn 0.294548 0.302388 0.906533
vn 0.303533 -0.187594 -0.934171
vn 0.303534 -0.187594 0.934171
vn 0.304507 0.170186 -0.937183
vn 0.304507 0.170186 0.937183
vn 0.310547 -0.836281 -0.451878
vn 0.310548 -0.836281 0.451878
vn 0.333798 0.836282 -0.434985
vn 0.333798 0.836282 0.434985
vn 0.342698 0.554509 -0.758339
vn 0.342698 0.554509 0.758339
vn 0.370234 -0.915754 -0.155950
vn 0.370234 -0.915754 0.155950
vn 0.385368 -0.595460 -0.704925
vn 0.385368 -0.595460 0.704925
vn 0.391194 0.915753 -0.091450
vn 0.391194 0.915753 0.091450
vn 0.393647 0.636948 -0.662827
vn 0.393648 0.636948 0.662827
vn 0.415083 -0.439872 -0.796378
vn 0.415083 -0.439872 0.796379
vn 0.420607 0.398690 -0.814945
vn 0.420607 0.398690 0.814945
vn 0.451883 -0.096236 -0.886871
vn 0.451884 -0.096236 0.886871
vn 0.452594 0.078389 -0.888265
vn 0.452594 0.078389 0.888265
vn 0.467353 -0.759438 -0.452587
vn 0.467354 -0.759438 0.452587
vn 0.491120 0.794658 -0.356820
vn 0.491120 0.794658 0.356820
vn 0.508743 -0.636948 -0.579205
vn 0.508744 -0.636947 0.579205
vn 0.516846 0.836280 -0.183045
vn 0.516846 0.836280 0.183045
vn 0.525729 -0.836281 -0.155705
vn 0.525729 -0.836280 0.155706
vn 0.537886 0.348475 -0.767622
vn 0.537887 0.348475 0.767622
vn 0.551342 0.595460 -0.584336
vn 0.551342 0.595460 0.584337
vn 0.563838 -0.348477 0.748766
vn 0.563838 -0.348476 -0.748766
vn 0.574858 -0.759438 0.304618
vn 0.574859 -0.759438 -0.304617
vn 0.578465 0.174546 -0.796813
vn 0.578465 0.174546 0.796813
vn 0.579061 -0.174546 -0.796381
vn 0.579061 -0.174545 0.796381
vn 0.598705 0.672562 -0.434986
vn 0.598706 0.672562 0.434986
vn 0.607058 -0.794658 0.000000
vn 0.615326 -0.554509 -0.560263
vn 0.615326 -0.554509 0.560263
vn 0.629137 0.439871 0.640859
vn 0.629137 0.439872 -0.640859
vn 0.644124 0.759434 -0.091451
vn 0.644124 0.759434 0.091451
vn 0.645086 -0.398689 -0.651853
vn 0.645086 -0.398689 0.651852
vn 0.703826 0.096234 0.703824
vn 0.703827 0.096235 -0.703823
vn 0.704932 -0.078389 0.704930
vn 0.704932 -0.078388 -0.704929
vn 0.708071 -0.636946 -0.304853
vn 0.708071 -0.636946 0.304854
vn 0.722992 -0.554509 -0.412071
vn 0.722992 -0.554509 0.412071
vn 0.726113 0.595458 -0.343786
vn 0.726114 0.595458 0.343786
vn 0.740043 -0.672560 0.000000
vn 0.752031 0.636945 -0.169559
vn 0.752031 0.636945 0.169559
vn 0.754417 0.361144 0.548114
vn 0.754418 0.361144 -0.548113
vn 0.771146 -0.302388 -0.560265
vn 0.771146 -0.302388 0.560264
vn 0.789510 -0.595460 -0.148666
vn 0.789511 -0.595459 0.148667
vn 0.794655 0.187592 0.577349
vn 0.794655 0.187594 -0.577348
vn 0.797217 -0.170188 0.579208
vn 0.797217 -0.170187 -0.579207
vn 0.803908 0.439869 0.400308
vn 0.803908 0.439870 -0.400308
vn 0.819296 -0.398687 -0.412072
vn 0.819296 -0.398687 0.412072
vn 0.827125 0.554505 -0.091587
vn 0.827125 0.554505 0.091587
vn 0.885671 -0.439870 -0.148666
vn 0.885671 -0.439870 0.148666
vn 0.886357 -0.348476 -0.304854
vn 0.886357 -0.348476 0.304854
vn 0.886873 0.096233 0.451880
vn 0.886873 0.096235 -0.451880
vn 0.888267 -0.078388 -0.452590
vn 0.888267 -0.078388 0.452589
vn 0.896269 0.348473 0.274351
vn 0.896269 0.348474 -0.274349
vn 0.905035 0.398686 -0.148193
vn 0.905035 0.398686 0.148193
vn 0.932509 -0.361146 0.000000
vn 0.936345 -0.174544 -0.304618
vn 0.936345 -0.174544 0.304618
vn 0.936571 0.174544 -0.303923
vn 0.936571 0.174544 0.303923
vn 0.953185 0.302386 0.000000
vn 0.982247 -0.187592 0.000000
vn 0.983104 -0.096236 -0.155706
vn 0.983104 -0.096236 0.155706
vn 0.984649 0.078388 -0.155951
vn 0.984649 0.078388 0.155951
vn 0.985412 0.170184 0.000000
usemtl OrbMetal
f 1/172/1 2/167/1 3/177/1
f 1/172/2 4/163/2 2/167/2
f 1/172/3 3/177/3 5/183/3
f 1/172/4 6/168/4 4/163/4
f 1/172/5 5/183/5 7/178/5
f 1/172/6 7/178/6 6/168/6
f 2/167/7 8/171/7 3/177/7
f 2/167/8 4/163/8 9/158/8
f 2/167/13 14/162/13 8/171/13
f 2/167/15 9/158/15 14/162/15
f 3/177/9 10/188/9 5/183/9
f 3/177/14 8/171/14 15/182/14
f 3/177/16 15/182/16 10/188/16
f 4/163/10 6/168/10 11/159/10
f 4/163/17 11/159/17 18/154/17
f 4/163/19 18/154/19 9/158/19
f 5/183/11 12/189/11 7/178/11
f 5/183/18 19/194/18 12/189/18
f 5/183/20 10/188/20 19/194/20
f 6/168/12 7/178/12 13/173/12
f 6/168/21 16/164/21 11/159/21
f 6/168/23 13/173/23 16/164/23
f 7/178/22 12/189/22 17/184/22
f 7/178/24 17/184/24 13/173/24
f 8/171/25 14/162/25 20/166/25
f 8/171/26 20/176/26 15/182/26
f 9/158/30 23/153/30 14/162/30
f 9/158/33 18/154/33 27/148/33
f 9/158/40 27/148/40 23/153/40
f 10/188/29 15/182/29 24/193/29
f 10/188/34 28/198/34 19/194/34
f 10/188/39 24/193/39 28/198/39
f 11/159/27 16/164/27 21/155/27
f 11/159/31 25/149/31 18/154/31
f 11/159/38 21/155/38 25/149/38
f 12/189/28 22/195/28 17/184/28
f 12/189/32 19/194/32 26/199/32
f 12/189/37 26/199/37 22/195/37
f 13/173/35 29/169/35 16/164/35
f 13/173/36 17/184/36 30/179/36
f 13/173/43 30/179/43 29/169/43
f 14/162/41 31/157/41 20/166/41
f 14/162/44 23/153/44 31/157/44
f 15/182/42 20/176/42 32/187/42
f 15/182/45 32/187/45 24/193/45
f 16/164/46 33/160/46 21/155/46
f 16/164/48 29/169/48 33/160/48
f 17/184/47 22/195/47 34/190/47
f 17/184/49 34/190/49 30/179/49
f 18/154/50 25/149/50 35/143/50
f 18/154/52 35/143/52 27/148/52
f 19/194/51 36/202/51 26/199/51
f 19/194/53 28/198/53 36/202/53
f 20/166/56 31/157/56 39/161/56
f 20/176/57 39/181/57 32/187/57
f 21/155/54 37/144/54 25/149/54
f 21/155/60 33/150/60 37/144/60
f 22/1/55 26/2/55 38/5/55
f 22/1/61 38/5/61 34/3/61
f 23/153/58 27/148/58 40/142/58
f 23/153/63 44/147/63 31/157/63
f 23/153/73 40/142/73 44/147/73
f 24/193/59 41/201/59 28/198/59
f 24/193/64 32/187/64 45/197/64
f 24/193/74 45/197/74 41/201/74
f 25/149/65 43/138/65 35/143/65
f 25/149/72 37/144/72 43/138/72
f 26/2/66 36/4/66 42/8/66
f 26/2/71 42/8/71 38/5/71
f 27/148/67 35/143/67 47/137/67
f 27/148/75 47/137/75 40/142/75
f 28/198/68 48/204/68 36/202/68
f 28/198/76 41/201/76 48/204/76
f 29/169/62 30/179/62 46/174/62
f 29/169/69 49/165/69 33/160/69
f 29/169/77 46/174/77 49/165/77
f 30/179/70 34/190/70 50/185/70
f 30/179/78 50/185/78 46/174/78
f 31/157/79 53/152/79 39/161/79
f 31/157/83 44/147/83 53/152/83
f 32/187/80 39/181/80 54/192/80
f 32/187/84 54/192/84 45/197/84
f 33/150/82 51/139/82 37/144/82
f 33/150/85 49/145/85 51/139/85
f 34/3/81 38/5/81 52/9/81
f 34/3/86 52/9/86 50/6/86
f 35/143/87 56/132/87 47/137/87
f 35/143/89 43/138/89 56/132/89
f 36/4/88 48/7/88 55/13/88
f 36/4/90 55/13/90 42/8/90
f 37/144/94 59/133/94 43/138/94
f 37/144/100 51/139/100 59/133/100
f 38/5/93 42/8/93 60/11/93
f 38/5/99 60/11/99 52/9/99
f 39/161/97 53/152/97 61/156/97
f 39/181/98 61/186/98 54/192/98
f 40/142/91 47/137/91 57/131/91
f 40/142/95 62/136/95 44/147/95
f 40/142/103 57/131/103 62/136/103
f 41/201/92 58/205/92 48/204/92
f 41/201/96 45/197/96 63/203/96
f 41/201/104 63/203/104 58/205/104
f 42/8/111 55/13/111 71/18/111
f 42/8/116 71/18/116 60/11/116
f 43/138/112 70/128/112 56/132/112
f 43/138/117 59/133/117 70/128/117
f 44/147/105 66/141/105 53/152/105
f 44/147/118 62/136/118 66/141/118
f 45/197/106 54/192/106 67/200/106
f 45/197/119 67/200/119 63/203/119
f 46/174/101 64/170/101 49/165/101
f 46/174/102 50/185/102 65/180/102
f 46/174/115 65/180/115 64/170/115
f 47/137/109 56/132/109 68/127/109
f 47/137/113 68/127/113 57/131/113
f 48/7/110 69/17/110 55/13/110
f 48/7/114 58/12/114 69/17/114
f 49/145/107 72/134/107 51/139/107
f 49/145/120 64/140/120 72/134/120
f 50/6/108 52/9/108 73/14/108
f 50/6/121 73/14/121 65/10/121
f 51/139/124 76/129/124 59/133/124
f 51/139/128 72/134/128 76/129/128
f 52/9/125 60/11/125 77/19/125
f 52/9/129 77/19/129 73/14/129
f 53/152/123 74/146/123 61/156/123
f 53/152/126 66/141/126 74/146/126
f 54/192/122 61/186/122 75/196/122
f 54/192/127 75/196/127 67/200/127
f 55/13/133 69/17/133 82/22/133
f 55/13/135 82/22/135 71/18/135
f 56/132/132 81/123/132 68/127/132
f 56/132/136 70/128/136 81/123/136
f 57/131/130 78/122/130 62/126/130
f 57/131/137 68/127/137 78/122/137
f 58/12/131 63/16/131 79/21/131
f 58/12/138 79/21/138 69/17/138
f 59/133/139 84/124/139 70/128/139
f 59/133/145 76/129/145 84/124/145
f 60/11/140 71/18/140 85/23/140
f 60/11/146 85/23/146 77/19/146
f 61/156/141 74/146/141 80/151/141
f 61/186/142 80/191/142 75/196/142
f 62/126/143 86/117/143 66/121/143
f 62/126/149 78/122/149 86/117/149
f 63/16/144 67/24/144 87/27/144
f 63/16/150 87/27/150 79/21/150
f 64/140/147 88/130/147 72/134/147
f 64/140/151 83/135/151 88/130/151
f 64/170/134 65/180/134 83/175/134
f 65/10/148 73/14/148 89/20/148
f 65/10/152 89/20/152 83/15/152
f 66/121/153 90/112/153 74/116/153
f 66/121/163 86/117/163 90/112/163
f 67/24/154 75/26/154 91/32/154
f 67/24/164 91/32/164 87/27/164
f 68/127/155 92/118/155 78/122/155
f 68/127/160 81/123/160 92/118/160
f 69/17/156 79/21/156 93/28/156
f 69/17/159 93/28/159 82/22/159
f 70/128/161 94/119/161 81/123/161
f 70/128/166 84/124/166 94/119/166
f 71/18/162 82/22/162 95/29/162
f 71/18/165 95/29/165 85/23/165
f 72/134/157 96/125/157 76/129/157
f 72/134/167 88/130/167 96/125/167
f 73/14/158 77/19/158 97/25/158
f 73/14/168 97/25/168 89/20/168
f 74/116/169 98/106/169 80/111/169
f 74/116/173 90/112/173 98/106/173
f 75/26/170 80/31/170 99/36/170
f 75/26/174 99/36/174 91/32/174
f 76/129/171 100/120/171 84/124/171
f 76/129/177 96/125/177 100/120/177
f 77/19/172 85/23/172 101/30/172
f 77/19/178 101/30/178 97/25/178
f 78/122/175 103/113/175 86/117/175
f 78/122/181 92/118/181 103/113/181
f 79/21/176 87/27/176 104/33/176
f 79/21/182 104/33/182 93/28/182
f 80/71/187 98/76/187 99/66/187
f 81/123/185 107/114/185 92/118/185
f 81/123/188 94/119/188 107/114/188
f 82/22/186 93/28/186 108/34/186
f 82/22/189 108/34/189 95/29/189
f 83/55/180 89/50/180 102/60/180
f 83/95/179 102/90/179 88/100/179
f 84/124/183 105/115/183 94/119/183
f 84/124/190 100/120/190 105/115/190
f 85/23/184 95/29/184 106/35/184
f 85/23/191 106/35/191 101/30/191
f 86/117/192 111/107/192 90/112/192
f 86/117/196 103/113/196 111/107/196
f 87/27/193 91/32/193 112/37/193
f 87/27/197 112/37/197 104/33/197
f 88/100/194 109/94/194 96/105/194
f 88/100/198 102/90/198 109/94/198
f 89/50/195 97/44/195 110/54/195
f 89/50/199 110/54/199 102/60/199
f 90/112/200 113/101/200 98/106/200
f 90/112/213 111/107/213 113/101/213
f 91/32/201 99/36/201 114/41/201
f 91/32/214 114/41/214 112/37/214
f 92/118/204 120/108/204 103/113/204
f 92/118/209 107/114/209 120/108/209
f 93/28/205 104/33/205 121/38/205
f 93/28/210 121/38/210 108/34/210
f 94/119/207 105/115/207 115/109/207
f 94/119/211 115/109/211 107/114/211
f 95/29/208 116/39/208 106/35/208
f 95/29/212 108/34/212 116/39/212
f 96/105/203 117/99/203 100/110/203
f 96/105/215 109/94/215 117/99/215
f 97/44/202 101/40/202 118/49/202
f 97/44/216 118/49/216 110/54/216
f 98/76/206 119/72/206 99/66/206
f 98/76/219 113/81/219 119/72/219
f 99/66/220 119/72/220 114/61/220
f 100/110/217 122/104/217 105/115/217
f 100/110/225 117/99/225 122/104/225
f 101/40/218 106/35/218 123/43/218
f 101/40/226 123/43/226 118/49/226
f 102/60/224 110/54/224 124/65/224
f 102/90/223 124/84/223 109/94/223
f 103/113/221 125/102/221 111/107/221
f 103/113/227 120/108/227 125/102/227
f 104/33/222 112/37/222 126/45/222
f 104/33/228 126/45/228 121/38/228
f 105/115/229 122/104/229 115/109/229
f 106/35/230 116/39/230 123/43/230
f 107/114/231 127/103/231 120/108/231
f 107/114/233 115/109/233 127/103/233
f 108/34/232 121/38/232 128/42/232
f 108/34/234 128/42/234 116/39/234
f 109/94/237 131/89/237 117/99/237
f 109/94/241 124/84/241 131/89/241
f 110/54/238 118/49/238 132/59/238
f 110/54/242 132/59/242 124/65/242
f 111/107/235 129/96/235 113/101/235
f 111/107/239 125/102/239 129/96/239
f 112/37/236 114/41/236 130/46/236
f 112/37/240 130/46/240 126/45/240
f 113/81/243 133/77/243 119/72/243
f 113/81/252 129/86/252 133/77/252
f 114/61/244 119/72/244 134/67/244
f 114/61/251 134/67/251 130/56/251
f 115/109/245 122/104/245 136/98/245
f 115/109/253 136/98/253 127/103/253
f 116/39/246 135/48/246 123/43/246
f 116/39/254 128/42/254 135/48/254
f 117/99/247 139/93/247 122/104/247
f 117/99/257 131/89/257 139/93/257
f 118/49/248 123/43/248 140/53/248
f 118/49/258 140/53/258 132/59/258
f 119/72/259 133/77/259 134/67/259
f 120/108/250 137/97/250 125/102/250
f 120/108/255 127/103/255 137/97/255
f 121/38/249 126/45/249 138/47/249
f 121/38/256 138/47/256 128/42/256
f 122/104/263 139/93/263 136/98/263
f 123/43/262 135/48/262 140/53/262
f 124/65/265 132/59/265 143/70/265
f 124/84/264 143/80/264 131/89/264
f 125/102/260 141/91/260 129/96/260
f 125/102/266 137/97/266 141/91/266
f 126/45/261 130/46/261 142/51/261
f 126/45/267 142/51/267 138/47/267
f 127/103/269 136/98/269 145/92/269
f 127/103/271 145/92/271 137/97/271
f 128/42/268 144/52/268 135/48/268
f 128/42/270 138/47/270 144/52/270
f 129/86/272 146/85/272 133/77/272
f 129/86/274 141/91/274 146/85/274
f 130/56/273 134/67/273 147/62/273
f 130/56/275 147/62/275 142/51/275
f 131/89/276 148/83/276 139/93/276
f 131/89/279 143/80/279 148/83/279
f 132/59/277 140/53/277 149/64/277
f 132/59/280 149/64/280 143/70/280
f 133/77/278 150/73/278 134/67/278
f 133/77/285 146/85/285 150/73/285
f 134/67/286 150/73/286 147/62/286
f 135/48/281 153/58/281 140/53/281
f 135/48/287 144/52/287 153/58/287
f 136/98/282 139/93/282 154/88/282
f 136/98/288 154/88/288 145/92/288
f 137/97/283 151/87/283 141/91/283
f 137/97/290 145/92/290 151/87/290
f 138/47/284 142/51/284 152/57/284
f 138/47/289 152/57/289 144/52/289
f 139/93/292 148/83/292 154/88/292
f 140/53/291 153/58/291 149/64/291
f 141/91/293 151/87/293 146/85/293
f 142/51/294 147/62/294 152/57/294
f 143/70/296 149/64/296 155/75/296
f 143/80/295 155/75/295 148/83/295
f 144/52/301 159/63/301 153/58/301
f 144/52/304 152/57/304 159/63/304
f 145/92/302 154/88/302 158/82/302
f 145/92/303 158/82/303 151/87/303
f 146/85/297 156/78/297 150/73/297
f 146/85/299 151/87/299 156/78/299
f 147/62/298 150/73/298 157/68/298
f 147/62/300 157/68/300 152/57/300
f 148/83/306 160/79/306 154/88/306
f 148/83/307 155/75/307 160/79/307
f 149/64/305 153/58/305 161/69/305
f 149/64/308 161/69/308 155/75/308
f 150/73/309 156/78/309 157/68/309
f 151/87/310 158/82/310 156/78/310
f 152/57/311 157/68/311 159/63/311
f 153/58/313 159/63/313 161/69/313
f 154/88/312 160/79/312 158/82/312
f 155/75/314 161/69/314 160/79/314
f 156/78/315 162/74/315 157/68/315
f 156/78/316 158/82/316 162/74/316
f 157/68/317 162/74/317 159/63/317
f 158/82/318 160/79/318 162/74/318
f 159/63/319 162/74/319 161/69/319
f 160/79/320 161/69/320 162/74/320
