# exported by ae3d_export.py v3
# object: Plinth
mtllib Plinth.mtl
v -2.600000 -0.150000 0.000000
v -2.600000 0.150000 0.000000
v -2.550042 -0.150000 -0.507235
v -2.550042 -0.150000 0.507235
v -2.550042 0.150000 -0.507235
v -2.550042 0.150000 0.507235
v -2.402087 -0.150000 -0.994977
v -2.402087 -0.150000 0.994977
v -2.402087 0.150000 -0.994977
v -2.402087 0.150000 0.994977
v -2.161821 -0.150000 -1.444483
v -2.161821 -0.150000 1.444483
v -2.161821 0.150000 -1.444483
v -2.161821 0.150000 1.444483
v -1.838477 -0.150000 -1.838477
v -1.838477 -0.150000 1.838477
v -1.838477 0.150000 -1.838477
v -1.838477 0.150000 1.838477
v -1.444483 -0.150000 -2.161821
v -1.444483 -0.150000 2.161821
v -1.444483 0.150000 -2.161821
v -1.444483 0.150000 2.161821
v -0.994977 -0.150000 -2.402087
v -0.994977 -0.150000 2.402087
v -0.994977 0.150000 -2.402087
v -0.994977 0.150000 2.402087
v -0.507235 -0.150000 -2.550042
v -0.507235 -0.150000 2.550042
v -0.507235 0.150000 -2.550042
v -0.507235 0.150000 2.550042
v 0.000000 -0.150000 -2.600000
v 0.000000 -0.150000 2.600000
v 0.000000 0.150000 -2.600000
v 0.000000 0.150000 2.600000
v 0.507235 -0.150000 -2.550042
v 0.507235 -0.150000 2.550042
v 0.507235 0.150000 -2.550042
v 0.507235 0.150000 2.550042
v 0.994977 -0.150000 -2.402087
v 0.994977 -0.150000 2.402087
v 0.994977 0.150000 -2.402087
v 0.994977 0.150000 2.402087
v 1.444483 -0.150000 -2.161821
v 1.444483 -0.150000 2.161821
v 1.444483 0.150000 -2.161821
v 1.444483 0.150000 2.161821
v 1.838477 -0.150000 -1.838477
v 1.838477 -0.150000 1.838477
v 1.838477 0.150000 -1.838477
v 1.838477 0.150000 1.838477
v 2.161821 -0.150000 -1.444483
v 2.161821 -0.150000 1.444483
v 2.161821 0.150000 -1.444483
v 2.161821 0.150000 1.444483
v 2.402087 -0.150000 -0.994977
v 2.402087 -0.150000 0.994977
v 2.402087 0.150000 -0.994977
v 2.402087 0.150000 0.994977
v 2.550042 -0.150000 -0.507235
v 2.550042 -0.150000 0.507235
v 2.550042 0.150000 -0.507235
v 2.550042 0.150000 0.507235
v 2.600000 -0.150000 0.000000
v 2.600000 0.150000 0.000000
vt 0.000000 0.500000
vt 0.000000 1.000000
vt 0.010000 0.250000
vt 0.014612 0.203178
vt 0.014612 0.296822
vt 0.028269 0.158156
vt 0.028269 0.341844
vt 0.031250 0.500000
vt 0.031250 1.000000
vt 0.050447 0.116663
vt 0.050447 0.383337
vt 0.062500 0.500000
vt 0.062500 1.000000
vt 0.080294 0.080294
vt 0.080294 0.419706
vt 0.093750 0.500000
vt 0.093750 1.000000
vt 0.116663 0.050447
vt 0.116663 0.449553
vt 0.125000 0.500000
vt 0.125000 1.000000
vt 0.156250 0.500000
vt 0.156250 1.000000
vt 0.158156 0.028269
vt 0.158156 0.471731
vt 0.187500 0.500000
vt 0.187500 1.000000
vt 0.203178 0.014612
vt 0.203178 0.485388
vt 0.218750 0.500000
vt 0.218750 1.000000
vt 0.250000 0.010000
vt 0.250000 0.490000
vt 0.250000 0.500000
vt 0.250000 1.000000
vt 0.281250 0.500000
vt 0.281250 1.000000
vt 0.296822 0.014612
vt 0.296822 0.485388
vt 0.312500 0.500000
vt 0.312500 1.000000
vt 0.341844 0.028269
vt 0.341844 0.471731
vt 0.343750 0.500000
vt 0.343750 1.000000
vt 0.375000 0.500000
vt 0.375000 1.000000
vt 0.383337 0.050447
vt 0.383337 0.449553
vt 0.406250 0.500000
vt 0.406250 1.000000
vt 0.419706 0.080294
vt 0.419706 0.419706
vt 0.437500 0.500000
vt 0.437500 1.000000
vt 0.449553 0.116663
vt 0.449553 0.383337
vt 0.468750 0.500000
vt 0.468750 1.000000
vt 0.471731 0.158156
vt 0.471731 0.341844
vt 0.485388 0.203178
vt 0.485388 0.296822
vt 0.490000 0.250000
vt 0.500000 0.500000
vt 0.500000 1.000000
vt 0.510000 0.250000
vt 0.514612 0.203178
vt 0.514612 0.296822
vt 0.528269 0.158156
vt 0.528269 0.341844
vt 0.531250 0.500000
vt 0.531250 1.000000
vt 0.550447 0.116663
vt 0.550447 0.383337
vt 0.562500 0.500000
vt 0.562500 1.000000
vt 0.580294 0.080294
vt 0.580294 0.419706
vt 0.593750 0.500000
vt 0.593750 1.000000
vt 0.616663 0.050447
vt 0.616663 0.449553
vt 0.625000 0.500000
vt 0.625000 1.000000
vt 0.656250 0.500000
vt 0.656250 1.000000
vt 0.658156 0.028269
vt 0.658156 0.471731
vt 0.687500 0.500000
vt 0.687500 1.000000
vt 0.703178 0.014612
vt 0.703178 0.485388
vt 0.718750 0.500000
vt 0.718750 1.000000
vt 0.750000 0.010000
vt 0.750000 0.490000
vt 0.750000 0.500000
vt 0.750000 1.000000
vt 0.781250 0.500000
vt 0.781250 1.000000
vt 0.796822 0.014612
vt 0.796822 0.485388
vt 0.812500 0.500000
vt 0.812500 1.000000
vt 0.841844 0.028269
vt 0.841844 0.471731
vt 0.843750 0.500000
vt 0.843750 1.000000
vt 0.875000 0.500000
vt 0.875000 1.000000
vt 0.883337 0.050447
vt 0.883337 0.449553
vt 0.906250 0.500000
vt 0.906250 1.000000
vt 0.919706 0.080294
vt 0.919706 0.419706
vt 0.937500 0.500000
vt 0.937500 1.000000
vt 0.949553 0.116663
vt 0.949553 0.383337
vt 0.968750 0.500000
vt 0.968750 1.000000
vt 0.971731 0.158156
vt 0.971731 0.341844
vt 0.985388 0.203178
vt 0.985388 0.296822
vt 0.990000 0.250000
vt 1.000000 0.500000
vt 1.000000 1.000000
vn -0.995185 0.000000 -0.098017
vn -0.995185 0.000000 0.098017
vn -0.956940 0.000000 -0.290285
vn -0.956940 0.000000 0.290285
vn -0.881921 0.000000 -0.471397
vn -0.881921 0.000000 0.471397
vn -0.773010 0.000000 -0.634393
vn -0.773010 0.000000 0.634393
vn -0.634393 0.000000 -0.773010
vn -0.634393 0.000000 0.773010
vn -0.471397 0.000000 -0.881921
vn -0.471397 0.000000 0.881921
vn -0.290285 0.000000 -0.956940
vn -0.290285 0.000000 0.956940
vn -0.098017 0.000000 -0.995185
vn -0.098017 0.000000 0.995185
vn 0.000000 -1.000000 0.000000
vn 0.000000 1.000000 0.000000
vn 0.098017 0.000000 -0.995185
vn 0.098017 0.000000 0.995185
vn 0.290285 0.000000 -0.956940
vn 0.290285 0.000000 0.956940
vn 0.471397 0.000000 -0.881921
vn 0.471397 0.000000 0.881921
vn 0.634393 0.000000 -0.773010
vn 0.634393 0.000000 0.773010
vn 0.773010 0.000000 -0.634393
vn 0.773010 0.000000 0.634393
vn 0.881921 0.000000 -0.471397
vn 0.881921 0.000000 0.471397
vn 0.956940 0.000000 -0.290285
vn 0.956940 0.000000 0.290285
vn 0.995185 0.000000 -0.098017
vn 0.995185 0.000000 0.098017
usemtl PlinthStone
f 1/34/1 2/35/1 5/31/1
f 1/34/1 5/31/1 3/30/1
f 1/34/2 4/36/2 2/35/2
f 1/67/17 3/69/17 31/97/17
f 1/67/17 31/97/17 4/68/17
f 2/3/18 6/4/18 37/39/18
f 2/3/18 37/39/18 5/5/18
f 2/35/2 4/36/2 6/37/2
f 3/30/3 5/31/3 9/27/3
f 3/30/3 9/27/3 7/26/3
f 3/69/17 7/71/17 31/97/17
f 4/36/4 8/40/4 6/37/4
f 4/68/17 31/97/17 8/70/17
f 5/5/18 37/39/18 9/7/18
f 6/4/18 10/6/18 37/39/18
f 6/37/4 8/40/4 10/41/4
f 7/26/5 9/27/5 13/23/5
f 7/26/5 13/23/5 11/22/5
f 7/71/17 11/75/17 31/97/17
f 8/40/6 12/44/6 10/41/6
f 8/70/17 31/97/17 12/74/17
f 9/7/18 37/39/18 13/11/18
f 10/6/18 14/10/18 37/39/18
f 10/41/6 12/44/6 14/45/6
f 11/22/7 13/23/7 17/21/7
f 11/22/7 17/21/7 15/20/7
f 11/75/17 15/79/17 31/97/17
f 12/44/8 16/46/8 14/45/8
f 12/74/17 31/97/17 16/78/17
f 13/11/18 37/39/18 17/15/18
f 14/10/18 18/14/18 37/39/18
f 14/45/8 16/46/8 18/47/8
f 15/20/9 17/21/9 21/17/9
f 15/20/9 21/17/9 19/16/9
f 15/79/17 19/83/17 31/97/17
f 16/46/10 20/50/10 18/47/10
f 16/78/17 31/97/17 20/82/17
f 17/15/18 37/39/18 21/19/18
f 18/14/18 22/18/18 37/39/18
f 18/47/10 20/50/10 22/51/10
f 19/16/11 21/17/11 25/13/11
f 19/16/11 25/13/11 23/12/11
f 19/83/17 23/89/17 31/97/17
f 20/50/12 24/54/12 22/51/12
f 20/82/17 31/97/17 24/88/17
f 21/19/18 37/39/18 25/25/18
f 22/18/18 26/24/18 37/39/18
f 22/51/12 24/54/12 26/55/12
f 23/12/13 25/13/13 29/9/13
f 23/12/13 29/9/13 27/8/13
f 23/89/17 27/93/17 31/97/17
f 24/54/14 28/58/14 26/55/14
f 24/88/17 31/97/17 28/92/17
f 25/25/18 37/39/18 29/29/18
f 26/24/18 30/28/18 37/39/18
f 26/55/14 28/58/14 30/59/14
f 27/8/15 29/9/15 33/2/15
f 27/8/15 33/2/15 31/1/15
f 28/58/16 32/65/16 30/59/16
f 28/92/17 31/97/17 32/96/17
f 29/29/18 37/39/18 33/33/18
f 30/28/18 34/32/18 37/39/18
f 30/59/16 32/65/16 34/66/16
f 31/97/17 35/103/17 39/107/17
f 31/97/17 36/102/17 32/96/17
f 31/97/17 39/107/17 43/113/17
f 31/97/17 40/106/17 36/102/17
f 31/97/17 43/113/17 47/117/17
f 31/97/17 44/112/17 40/106/17
f 31/97/17 47/117/17 51/121/17
f 31/97/17 48/116/17 44/112/17
f 31/97/17 51/121/17 55/125/17
f 31/97/17 52/120/17 48/116/17
f 31/97/17 55/125/17 59/127/17
f 31/97/17 56/124/17 52/120/17
f 31/97/17 59/127/17 63/128/17
f 31/97/17 60/126/17 56/124/17
f 31/97/17 63/128/17 60/126/17
f 31/129/19 33/130/19 37/123/19
f 31/129/19 37/123/19 35/122/19
f 32/65/20 36/72/20 34/66/20
f 34/32/18 38/38/18 37/39/18
f 34/66/20 36/72/20 38/73/20
f 35/122/21 37/123/21 41/119/21
f 35/122/21 41/119/21 39/118/21
f 36/72/22 40/76/22 38/73/22
f 37/39/18 38/38/18 42/42/18
f 37/39/18 42/42/18 46/48/18
f 37/39/18 45/49/18 41/43/18
f 37/39/18 46/48/18 50/52/18
f 37/39/18 49/53/18 45/49/18
f 37/39/18 50/52/18 54/56/18
f 37/39/18 53/57/18 49/53/18
f 37/39/18 54/56/18 58/60/18
f 37/39/18 57/61/18 53/57/18
f 37/39/18 58/60/18 62/62/18
f 37/39/18 61/63/18 57/61/18
f 37/39/18 62/62/18 64/64/18
f 37/39/18 64/64/18 61/63/18
f 38/73/22 40/76/22 42/77/22
f 39/118/23 41/119/23 45/115/23
f 39/118/23 45/115/23 43/114/23
f 40/76/24 44/80/24 42/77/24
f 42/77/24 44/80/24 46/81/24
f 43/114/25 45/115/25 49/111/25
f 43/114/25 49/111/25 47/110/25
f 44/80/26 48/84/26 46/81/26
f 46/81/26 48/84/26 50/85/26
f 47/110/27 49/111/27 53/109/27
f 47/110/27 53/109/27 51/108/27
f 48/84/28 52/86/28 50/85/28
f 50/85/28 52/86/28 54/87/28
f 51/108/29 53/109/29 57/105/29
f 51/108/29 57/105/29 55/104/29
f 52/86/30 56/90/30 54/87/30
f 54/87/30 56/90/30 58/91/30
f 55/104/31 57/105/31 61/101/31
f 55/104/31 61/101/31 59/100/31
f 56/90/32 60/94/32 58/91/32
f 58/91/32 60/94/32 62/95/32
f 59/100/33 61/101/33 64/99/33
f 59/100/33 64/99/33 63/98/33
f 60/94/34 63/98/34 62/95/34
f 62/95/34 63/98/34 64/99/34
